solid OpenSCAD_Model
  facet normal -1 0 0
    outer loop
      vertex 65.78 26.5 1.1
      vertex 65.78 62.5 1.5
      vertex 65.78 62.5 1.1
    endloop
  endfacet
  facet normal -1 -0 0
    outer loop
      vertex 65.78 62.5 1.5
      vertex 65.78 26.5 1.1
      vertex 65.78 26.5 1.5
    endloop
  endfacet
  facet normal 0 0 1
    outer loop
      vertex 65.78 62.5 1.1
      vertex 64.78 61.5 1.1
      vertex 65.78 26.5 1.1
    endloop
  endfacet
  facet normal 0 0 1
    outer loop
      vertex 65.78 62.5 1.1
      vertex 36.78 61.5 1.1
      vertex 64.78 61.5 1.1
    endloop
  endfacet
  facet normal 0 0 1
    outer loop
      vertex 36.78 61.5 1.1
      vertex 35.78 62.5 1.1
      vertex 36.78 27.5 1.1
    endloop
  endfacet
  facet normal -0 0 1
    outer loop
      vertex 35.78 62.5 1.1
      vertex 36.78 61.5 1.1
      vertex 65.78 62.5 1.1
    endloop
  endfacet
  facet normal -0 0 1
    outer loop
      vertex 64.78 27.5 1.1
      vertex 65.78 26.5 1.1
      vertex 64.78 61.5 1.1
    endloop
  endfacet
  facet normal -0 0 1
    outer loop
      vertex 36.78 27.5 1.1
      vertex 65.78 26.5 1.1
      vertex 64.78 27.5 1.1
    endloop
  endfacet
  facet normal 0 0 1
    outer loop
      vertex 36.78 27.5 1.1
      vertex 35.78 26.5 1.1
      vertex 65.78 26.5 1.1
    endloop
  endfacet
  facet normal 0 0 1
    outer loop
      vertex 35.78 26.5 1.1
      vertex 36.78 27.5 1.1
      vertex 35.78 62.5 1.1
    endloop
  endfacet
  facet normal 1 -0 0
    outer loop
      vertex 35.78 26.5 1.5
      vertex 35.78 62.5 1.1
      vertex 35.78 62.5 1.5
    endloop
  endfacet
  facet normal 1 0 0
    outer loop
      vertex 35.78 62.5 1.1
      vertex 35.78 26.5 1.5
      vertex 35.78 26.5 1.1
    endloop
  endfacet
  facet normal 0 -1 0
    outer loop
      vertex 35.78 62.5 1.1
      vertex 65.78 62.5 1.5
      vertex 35.78 62.5 1.5
    endloop
  endfacet
  facet normal 0 -1 -0
    outer loop
      vertex 65.78 62.5 1.5
      vertex 35.78 62.5 1.1
      vertex 65.78 62.5 1.1
    endloop
  endfacet
  facet normal 0 1 -0
    outer loop
      vertex 65.78 26.5 1.1
      vertex 35.78 26.5 1.5
      vertex 65.78 26.5 1.5
    endloop
  endfacet
  facet normal 0 1 0
    outer loop
      vertex 35.78 26.5 1.5
      vertex 65.78 26.5 1.1
      vertex 35.78 26.5 1.1
    endloop
  endfacet
  facet normal 1 -0 0
    outer loop
      vertex 64.78 27.5 1.5
      vertex 64.78 61.5 1.1
      vertex 64.78 61.5 1.5
    endloop
  endfacet
  facet normal 1 0 0
    outer loop
      vertex 64.78 61.5 1.1
      vertex 64.78 27.5 1.5
      vertex 64.78 27.5 1.1
    endloop
  endfacet
  facet normal 0 -1 0
    outer loop
      vertex 36.78 61.5 0
      vertex 64.78 61.5 1.1
      vertex 36.78 61.5 1.1
    endloop
  endfacet
  facet normal 0 -1 -0
    outer loop
      vertex 64.78 61.5 1.1
      vertex 36.78 61.5 0
      vertex 64.78 61.5 0
    endloop
  endfacet
  facet normal 0 1 -0
    outer loop
      vertex 64.78 27.5 0
      vertex 36.78 27.5 1.1
      vertex 64.78 27.5 1.1
    endloop
  endfacet
  facet normal 0 1 0
    outer loop
      vertex 36.78 27.5 1.1
      vertex 64.78 27.5 0
      vertex 36.78 27.5 0
    endloop
  endfacet
  facet normal 0.0980078 -0.995186 0
    outer loop
      vertex 88.654 0.02141 0
      vertex 89.3053 0.0855513 1.5
      vertex 88.654 0.02141 1.5
    endloop
  endfacet
  facet normal 0.0980078 -0.995186 0
    outer loop
      vertex 89.3053 0.0855513 1.5
      vertex 88.654 0.02141 0
      vertex 89.3053 0.0855513 0
    endloop
  endfacet
  facet normal 0.999465 -0.0327027 0
    outer loop
      vertex 97.9786 9.34597 1.5
      vertex 98 10 0
      vertex 98 10 1.5
    endloop
  endfacet
  facet normal 0.999465 -0.0327027 0
    outer loop
      vertex 98 10 0
      vertex 97.9786 9.34597 1.5
      vertex 97.9786 9.34597 0
    endloop
  endfacet
  facet normal -0.582479 -0.812846 0
    outer loop
      vertex 3.91238 2.06647 0
      vertex 4.4443 1.6853 1.5
      vertex 3.91238 2.06647 1.5
    endloop
  endfacet
  facet normal -0.582479 -0.812846 -0
    outer loop
      vertex 4.4443 1.6853 1.5
      vertex 3.91238 2.06647 0
      vertex 4.4443 1.6853 0
    endloop
  endfacet
  facet normal -1 0 0
    outer loop
      vertex 0 10 0
      vertex 0 69 1.5
      vertex 0 69 0
    endloop
  endfacet
  facet normal -1 -0 0
    outer loop
      vertex 0 69 1.5
      vertex 0 10 0
      vertex 0 10 1.5
    endloop
  endfacet
  facet normal -0.0981071 0.995176 0
    outer loop
      vertex 9.34597 78.9786 0
      vertex 8.69474 78.9144 1.5
      vertex 9.34597 78.9786 1.5
    endloop
  endfacet
  facet normal -0.0981071 0.995176 0
    outer loop
      vertex 8.69474 78.9144 1.5
      vertex 9.34597 78.9786 0
      vertex 8.69474 78.9144 0
    endloop
  endfacet
  facet normal 0.935901 0.352262 0
    outer loop
      vertex 97.4693 72.2144 1.5
      vertex 97.2388 72.8268 0
      vertex 97.2388 72.8268 1.5
    endloop
  endfacet
  facet normal 0.935901 0.352262 0
    outer loop
      vertex 97.2388 72.8268 0
      vertex 97.4693 72.2144 1.5
      vertex 97.4693 72.2144 0
    endloop
  endfacet
  facet normal -0.95694 0.290287 0
    outer loop
      vertex 0.340741 71.5882 0
      vertex 0.530698 72.2144 1.5
      vertex 0.530698 72.2144 0
    endloop
  endfacet
  facet normal -0.95694 0.290287 0
    outer loop
      vertex 0.530698 72.2144 1.5
      vertex 0.340741 71.5882 0
      vertex 0.340741 71.5882 1.5
    endloop
  endfacet
  facet normal 0.0327195 -0.999465 0
    outer loop
      vertex 88 0 0
      vertex 88.654 0.02141 1.5
      vertex 88 0 1.5
    endloop
  endfacet
  facet normal 0.0327195 -0.999465 0
    outer loop
      vertex 88.654 0.02141 1.5
      vertex 88 0 0
      vertex 88.654 0.02141 0
    endloop
  endfacet
  facet normal 0.582494 -0.812835 0
    outer loop
      vertex 93.5557 1.6853 0
      vertex 94.0876 2.06647 1.5
      vertex 93.5557 1.6853 1.5
    endloop
  endfacet
  facet normal 0.582494 -0.812835 0
    outer loop
      vertex 94.0876 2.06647 1.5
      vertex 93.5557 1.6853 0
      vertex 94.0876 2.06647 0
    endloop
  endfacet
  facet normal -0.910867 -0.4127 0
    outer loop
      vertex 1.03127 5.57711 0
      vertex 0.761204 6.17317 1.5
      vertex 0.761204 6.17317 0
    endloop
  endfacet
  facet normal -0.910867 -0.4127 0
    outer loop
      vertex 0.761204 6.17317 1.5
      vertex 1.03127 5.57711 0
      vertex 1.03127 5.57711 1.5
    endloop
  endfacet
  facet normal 0.528061 -0.849207 0
    outer loop
      vertex 93 1.33975 0
      vertex 93.5557 1.6853 1.5
      vertex 93 1.33975 1.5
    endloop
  endfacet
  facet normal 0.528061 -0.849207 0
    outer loop
      vertex 93.5557 1.6853 1.5
      vertex 93 1.33975 0
      vertex 93.5557 1.6853 0
    endloop
  endfacet
  facet normal -0.162894 -0.986644 0
    outer loop
      vertex 8.0491 0.192146 0
      vertex 8.69474 0.0855513 1.5
      vertex 8.0491 0.192146 1.5
    endloop
  endfacet
  facet normal -0.162894 -0.986644 -0
    outer loop
      vertex 8.69474 0.0855513 1.5
      vertex 8.0491 0.192146 0
      vertex 8.69474 0.0855513 0
    endloop
  endfacet
  facet normal -0.528061 -0.849207 0
    outer loop
      vertex 4.4443 1.6853 0
      vertex 5 1.33975 1.5
      vertex 4.4443 1.6853 1.5
    endloop
  endfacet
  facet normal -0.528061 -0.849207 -0
    outer loop
      vertex 5 1.33975 1.5
      vertex 4.4443 1.6853 0
      vertex 5 1.33975 0
    endloop
  endfacet
  facet normal 0 -1 0
    outer loop
      vertex 10 0 0
      vertex 88 0 1.5
      vertex 10 0 1.5
    endloop
  endfacet
  facet normal 0 -1 -0
    outer loop
      vertex 88 0 1.5
      vertex 10 0 0
      vertex 88 0 0
    endloop
  endfacet
  facet normal -0.227083 0.973875 0
    outer loop
      vertex 8.0491 78.8079 0
      vertex 7.41181 78.6593 1.5
      vertex 8.0491 78.8079 1.5
    endloop
  endfacet
  facet normal -0.227083 0.973875 0
    outer loop
      vertex 7.41181 78.6593 1.5
      vertex 8.0491 78.8079 0
      vertex 7.41181 78.6593 0
    endloop
  endfacet
  facet normal -0.812835 0.582494 0
    outer loop
      vertex 1.6853 74.5557 0
      vertex 2.06647 75.0876 1.5
      vertex 2.06647 75.0876 0
    endloop
  endfacet
  facet normal -0.812835 0.582494 0
    outer loop
      vertex 2.06647 75.0876 1.5
      vertex 1.6853 74.5557 0
      vertex 1.6853 74.5557 1.5
    endloop
  endfacet
  facet normal -0.729865 -0.683592 0
    outer loop
      vertex 2.92893 2.92893 0
      vertex 2.4816 3.40654 1.5
      vertex 2.4816 3.40654 0
    endloop
  endfacet
  facet normal -0.729865 -0.683592 0
    outer loop
      vertex 2.4816 3.40654 1.5
      vertex 2.92893 2.92893 0
      vertex 2.92893 2.92893 1.5
    endloop
  endfacet
  facet normal 0.683599 -0.729857 0
    outer loop
      vertex 94.5935 2.4816 0
      vertex 95.0711 2.92893 1.5
      vertex 94.5935 2.4816 1.5
    endloop
  endfacet
  facet normal 0.683599 -0.729857 0
    outer loop
      vertex 95.0711 2.92893 1.5
      vertex 94.5935 2.4816 0
      vertex 95.0711 2.92893 0
    endloop
  endfacet
  facet normal 0.812824 -0.58251 0
    outer loop
      vertex 95.9335 3.91238 1.5
      vertex 96.3147 4.4443 0
      vertex 96.3147 4.4443 1.5
    endloop
  endfacet
  facet normal 0.812824 -0.58251 0
    outer loop
      vertex 96.3147 4.4443 0
      vertex 95.9335 3.91238 1.5
      vertex 95.9335 3.91238 0
    endloop
  endfacet
  facet normal -0.032718 -0.999465 0
    outer loop
      vertex 9.34597 0.02141 0
      vertex 10 0 1.5
      vertex 9.34597 0.02141 1.5
    endloop
  endfacet
  facet normal -0.032718 -0.999465 -0
    outer loop
      vertex 10 0 1.5
      vertex 9.34597 0.02141 0
      vertex 10 0 0
    endloop
  endfacet
  facet normal 0.352262 0.935901 -0
    outer loop
      vertex 91.8268 78.2388 0
      vertex 91.2144 78.4693 1.5
      vertex 91.8268 78.2388 1.5
    endloop
  endfacet
  facet normal 0.352262 0.935901 0
    outer loop
      vertex 91.2144 78.4693 1.5
      vertex 91.8268 78.2388 0
      vertex 91.2144 78.4693 0
    endloop
  endfacet
  facet normal -0.471407 -0.881916 0
    outer loop
      vertex 5 1.33975 0
      vertex 5.57711 1.03127 1.5
      vertex 5 1.33975 1.5
    endloop
  endfacet
  facet normal -0.471407 -0.881916 -0
    outer loop
      vertex 5.57711 1.03127 1.5
      vertex 5 1.33975 0
      vertex 5.57711 1.03127 0
    endloop
  endfacet
  facet normal -0.634364 0.773035 0
    outer loop
      vertex 3.91238 76.9335 0
      vertex 3.40654 76.5184 1.5
      vertex 3.91238 76.9335 1.5
    endloop
  endfacet
  facet normal -0.634364 0.773035 0
    outer loop
      vertex 3.40654 76.5184 1.5
      vertex 3.91238 76.9335 0
      vertex 3.40654 76.5184 0
    endloop
  endfacet
  facet normal 0.0327042 0.999465 -0
    outer loop
      vertex 88.654 78.9786 0
      vertex 88 79 1.5
      vertex 88.654 78.9786 1.5
    endloop
  endfacet
  facet normal 0.0327042 0.999465 0
    outer loop
      vertex 88 79 1.5
      vertex 88.654 78.9786 0
      vertex 88 79 0
    endloop
  endfacet
  facet normal 0.412677 -0.910877 0
    outer loop
      vertex 91.8268 0.761204 0
      vertex 92.4229 1.03127 1.5
      vertex 91.8268 0.761204 1.5
    endloop
  endfacet
  facet normal 0.412677 -0.910877 0
    outer loop
      vertex 92.4229 1.03127 1.5
      vertex 91.8268 0.761204 0
      vertex 92.4229 1.03127 0
    endloop
  endfacet
  facet normal -0.999465 0.0327195 0
    outer loop
      vertex 0 69 0
      vertex 0.02141 69.654 1.5
      vertex 0.02141 69.654 0
    endloop
  endfacet
  facet normal -0.999465 0.0327195 0
    outer loop
      vertex 0.02141 69.654 1.5
      vertex 0 69 0
      vertex 0 69 1.5
    endloop
  endfacet
  facet normal 0.881967 -0.471311 0
    outer loop
      vertex 96.6603 5 1.5
      vertex 96.9687 5.57711 0
      vertex 96.9687 5.57711 1.5
    endloop
  endfacet
  facet normal 0.881967 -0.471311 0
    outer loop
      vertex 96.9687 5.57711 0
      vertex 96.6603 5 1.5
      vertex 96.6603 5 0
    endloop
  endfacet
  facet normal -0.999465 -0.032718 0
    outer loop
      vertex 0.02141 9.34597 0
      vertex 0 10 1.5
      vertex 0 10 0
    endloop
  endfacet
  facet normal -0.999465 -0.032718 0
    outer loop
      vertex 0 10 1.5
      vertex 0.02141 9.34597 0
      vertex 0.02141 9.34597 1.5
    endloop
  endfacet
  facet normal 0.683575 0.72988 -0
    outer loop
      vertex 95.0711 76.0711 0
      vertex 94.5935 76.5184 1.5
      vertex 95.0711 76.0711 1.5
    endloop
  endfacet
  facet normal 0.683575 0.72988 0
    outer loop
      vertex 94.5935 76.5184 1.5
      vertex 95.0711 76.0711 0
      vertex 94.5935 76.5184 0
    endloop
  endfacet
  facet normal 0.910847 -0.412743 0
    outer loop
      vertex 96.9687 5.57711 1.5
      vertex 97.2388 6.17317 0
      vertex 97.2388 6.17317 1.5
    endloop
  endfacet
  facet normal 0.910847 -0.412743 0
    outer loop
      vertex 97.2388 6.17317 0
      vertex 96.9687 5.57711 1.5
      vertex 96.9687 5.57711 0
    endloop
  endfacet
  facet normal -0.4127 -0.910867 0
    outer loop
      vertex 5.57711 1.03127 0
      vertex 6.17317 0.761204 1.5
      vertex 5.57711 1.03127 1.5
    endloop
  endfacet
  facet normal -0.4127 -0.910867 -0
    outer loop
      vertex 6.17317 0.761204 1.5
      vertex 5.57711 1.03127 0
      vertex 6.17317 0.761204 0
    endloop
  endfacet
  facet normal 0.935907 -0.352247 0
    outer loop
      vertex 97.2388 6.17317 1.5
      vertex 97.4693 6.7856 0
      vertex 97.4693 6.7856 1.5
    endloop
  endfacet
  facet normal 0.935907 -0.352247 0
    outer loop
      vertex 97.4693 6.7856 0
      vertex 97.2388 6.17317 1.5
      vertex 97.2388 6.17317 0
    endloop
  endfacet
  facet normal 0 1 -0
    outer loop
      vertex 88 79 0
      vertex 10 79 1.5
      vertex 88 79 1.5
    endloop
  endfacet
  facet normal 0 1 0
    outer loop
      vertex 10 79 1.5
      vertex 88 79 0
      vertex 10 79 0
    endloop
  endfacet
  facet normal -0.412743 0.910847 0
    outer loop
      vertex 6.17317 78.2388 0
      vertex 5.57711 77.9687 1.5
      vertex 6.17317 78.2388 1.5
    endloop
  endfacet
  facet normal -0.412743 0.910847 0
    outer loop
      vertex 5.57711 77.9687 1.5
      vertex 6.17317 78.2388 0
      vertex 5.57711 77.9687 0
    endloop
  endfacet
  facet normal 0.773035 -0.634364 0
    outer loop
      vertex 95.5184 3.40654 1.5
      vertex 95.9335 3.91238 0
      vertex 95.9335 3.91238 1.5
    endloop
  endfacet
  facet normal 0.773035 -0.634364 0
    outer loop
      vertex 95.9335 3.91238 0
      vertex 95.5184 3.40654 1.5
      vertex 95.5184 3.40654 0
    endloop
  endfacet
  facet normal -0.849207 -0.528061 0
    outer loop
      vertex 1.6853 4.4443 0
      vertex 1.33975 5 1.5
      vertex 1.33975 5 0
    endloop
  endfacet
  facet normal -0.849207 -0.528061 0
    outer loop
      vertex 1.33975 5 1.5
      vertex 1.6853 4.4443 0
      vertex 1.6853 4.4443 1.5
    endloop
  endfacet
  facet normal 0.812814 0.582524 0
    outer loop
      vertex 96.3147 74.5557 1.5
      vertex 95.9335 75.0876 0
      vertex 95.9335 75.0876 1.5
    endloop
  endfacet
  facet normal 0.812814 0.582524 0
    outer loop
      vertex 95.9335 75.0876 0
      vertex 96.3147 74.5557 1.5
      vertex 96.3147 74.5557 0
    endloop
  endfacet
  facet normal 1 -0 0
    outer loop
      vertex 98 10 1.5
      vertex 98 69 0
      vertex 98 69 1.5
    endloop
  endfacet
  facet normal 1 0 0
    outer loop
      vertex 98 69 0
      vertex 98 10 1.5
      vertex 98 10 0
    endloop
  endfacet
  facet normal -0.995185 -0.0980183 0
    outer loop
      vertex 0.0855513 8.69474 0
      vertex 0.02141 9.34597 1.5
      vertex 0.02141 9.34597 0
    endloop
  endfacet
  facet normal -0.995185 -0.0980183 0
    outer loop
      vertex 0.02141 9.34597 1.5
      vertex 0.0855513 8.69474 0
      vertex 0.0855513 8.69474 1.5
    endloop
  endfacet
  facet normal 0.471318 0.881963 -0
    outer loop
      vertex 93 77.6603 0
      vertex 92.4229 77.9687 1.5
      vertex 93 77.6603 1.5
    endloop
  endfacet
  facet normal 0.471318 0.881963 0
    outer loop
      vertex 92.4229 77.9687 1.5
      vertex 93 77.6603 0
      vertex 92.4229 77.9687 0
    endloop
  endfacet
  facet normal 0.986667 -0.162753 0
    outer loop
      vertex 97.8079 8.0491 1.5
      vertex 97.9144 8.69474 0
      vertex 97.9144 8.69474 1.5
    endloop
  endfacet
  facet normal 0.986667 -0.162753 0
    outer loop
      vertex 97.9144 8.69474 0
      vertex 97.8079 8.0491 1.5
      vertex 97.8079 8.0491 0
    endloop
  endfacet
  facet normal 0.995177 0.0980967 0
    outer loop
      vertex 97.9786 69.654 1.5
      vertex 97.9144 70.3053 0
      vertex 97.9144 70.3053 1.5
    endloop
  endfacet
  facet normal 0.995177 0.0980967 0
    outer loop
      vertex 97.9144 70.3053 0
      vertex 97.9786 69.654 1.5
      vertex 97.9786 69.654 0
    endloop
  endfacet
  facet normal -0.290282 -0.956941 0
    outer loop
      vertex 6.7856 0.530698 0
      vertex 7.41181 0.340741 1.5
      vertex 6.7856 0.530698 1.5
    endloop
  endfacet
  facet normal -0.290282 -0.956941 -0
    outer loop
      vertex 7.41181 0.340741 1.5
      vertex 6.7856 0.530698 0
      vertex 7.41181 0.340741 0
    endloop
  endfacet
  facet normal 0.729887 -0.683567 0
    outer loop
      vertex 95.0711 2.92893 1.5
      vertex 95.5184 3.40654 0
      vertex 95.5184 3.40654 1.5
    endloop
  endfacet
  facet normal 0.729887 -0.683567 0
    outer loop
      vertex 95.5184 3.40654 0
      vertex 95.0711 2.92893 1.5
      vertex 95.0711 2.92893 0
    endloop
  endfacet
  facet normal 0.290347 0.956922 -0
    outer loop
      vertex 91.2144 78.4693 0
      vertex 90.5882 78.6593 1.5
      vertex 91.2144 78.4693 1.5
    endloop
  endfacet
  facet normal 0.290347 0.956922 0
    outer loop
      vertex 90.5882 78.6593 1.5
      vertex 91.2144 78.4693 0
      vertex 90.5882 78.6593 0
    endloop
  endfacet
  facet normal 0.35227 -0.935898 0
    outer loop
      vertex 91.2144 0.530698 0
      vertex 91.8268 0.761204 1.5
      vertex 91.2144 0.530698 1.5
    endloop
  endfacet
  facet normal 0.35227 -0.935898 0
    outer loop
      vertex 91.8268 0.761204 1.5
      vertex 91.2144 0.530698 0
      vertex 91.8268 0.761204 0
    endloop
  endfacet
  facet normal 0.999465 0.0327042 0
    outer loop
      vertex 98 69 1.5
      vertex 97.9786 69.654 0
      vertex 97.9786 69.654 1.5
    endloop
  endfacet
  facet normal 0.999465 0.0327042 0
    outer loop
      vertex 97.9786 69.654 0
      vertex 98 69 1.5
      vertex 98 69 0
    endloop
  endfacet
  facet normal 0.956922 0.290347 0
    outer loop
      vertex 97.6593 71.5882 1.5
      vertex 97.4693 72.2144 0
      vertex 97.4693 72.2144 1.5
    endloop
  endfacet
  facet normal 0.956922 0.290347 0
    outer loop
      vertex 97.4693 72.2144 0
      vertex 97.6593 71.5882 1.5
      vertex 97.6593 71.5882 0
    endloop
  endfacet
  facet normal 0.41272 0.910858 -0
    outer loop
      vertex 92.4229 77.9687 0
      vertex 91.8268 78.2388 1.5
      vertex 92.4229 77.9687 1.5
    endloop
  endfacet
  facet normal 0.41272 0.910858 0
    outer loop
      vertex 91.8268 78.2388 1.5
      vertex 92.4229 77.9687 0
      vertex 91.8268 78.2388 0
    endloop
  endfacet
  facet normal 0.995176 -0.0981071 0
    outer loop
      vertex 97.9144 8.69474 1.5
      vertex 97.9786 9.34597 0
      vertex 97.9786 9.34597 1.5
    endloop
  endfacet
  facet normal 0.995176 -0.0981071 0
    outer loop
      vertex 97.9786 9.34597 0
      vertex 97.9144 8.69474 1.5
      vertex 97.9144 8.69474 0
    endloop
  endfacet
  facet normal -0.683567 0.729887 0
    outer loop
      vertex 3.40654 76.5184 0
      vertex 2.92893 76.0711 1.5
      vertex 3.40654 76.5184 1.5
    endloop
  endfacet
  facet normal -0.683567 0.729887 0
    outer loop
      vertex 2.92893 76.0711 1.5
      vertex 3.40654 76.5184 0
      vertex 2.92893 76.0711 0
    endloop
  endfacet
  facet normal -0.0980183 -0.995185 0
    outer loop
      vertex 8.69474 0.0855513 0
      vertex 9.34597 0.02141 1.5
      vertex 8.69474 0.0855513 1.5
    endloop
  endfacet
  facet normal -0.0980183 -0.995185 -0
    outer loop
      vertex 9.34597 0.02141 1.5
      vertex 8.69474 0.0855513 0
      vertex 9.34597 0.02141 0
    endloop
  endfacet
  facet normal -0.773049 0.634346 0
    outer loop
      vertex 2.06647 75.0876 0
      vertex 2.4816 75.5935 1.5
      vertex 2.4816 75.5935 0
    endloop
  endfacet
  facet normal -0.773049 0.634346 0
    outer loop
      vertex 2.4816 75.5935 1.5
      vertex 2.06647 75.0876 0
      vertex 2.06647 75.0876 1.5
    endloop
  endfacet
  facet normal 0.956923 -0.290342 0
    outer loop
      vertex 97.4693 6.7856 1.5
      vertex 97.6593 7.41181 0
      vertex 97.6593 7.41181 1.5
    endloop
  endfacet
  facet normal 0.956923 -0.290342 0
    outer loop
      vertex 97.6593 7.41181 0
      vertex 97.4693 6.7856 1.5
      vertex 97.4693 6.7856 0
    endloop
  endfacet
  facet normal 0.162904 -0.986642 0
    outer loop
      vertex 89.3053 0.0855513 0
      vertex 89.9509 0.192146 1.5
      vertex 89.3053 0.0855513 1.5
    endloop
  endfacet
  facet normal 0.162904 -0.986642 0
    outer loop
      vertex 89.9509 0.192146 1.5
      vertex 89.3053 0.0855513 0
      vertex 89.9509 0.192146 0
    endloop
  endfacet
  facet normal 0.634346 -0.773049 0
    outer loop
      vertex 94.0876 2.06647 0
      vertex 94.5935 2.4816 1.5
      vertex 94.0876 2.06647 1.5
    endloop
  endfacet
  facet normal 0.634346 -0.773049 0
    outer loop
      vertex 94.5935 2.4816 1.5
      vertex 94.0876 2.06647 0
      vertex 94.5935 2.4816 0
    endloop
  endfacet
  facet normal 0.849172 -0.528116 0
    outer loop
      vertex 96.3147 4.4443 1.5
      vertex 96.6603 5 0
      vertex 96.6603 5 1.5
    endloop
  endfacet
  facet normal 0.849172 -0.528116 0
    outer loop
      vertex 96.6603 5 0
      vertex 96.3147 4.4443 1.5
      vertex 96.3147 4.4443 0
    endloop
  endfacet
  facet normal 0.973875 -0.227083 0
    outer loop
      vertex 97.6593 7.41181 1.5
      vertex 97.8079 8.0491 0
      vertex 97.8079 8.0491 1.5
    endloop
  endfacet
  facet normal 0.973875 -0.227083 0
    outer loop
      vertex 97.8079 8.0491 0
      vertex 97.6593 7.41181 1.5
      vertex 97.6593 7.41181 0
    endloop
  endfacet
  facet normal 0.881963 0.471318 0
    outer loop
      vertex 96.9687 73.4229 1.5
      vertex 96.6603 74 0
      vertex 96.6603 74 1.5
    endloop
  endfacet
  facet normal 0.881963 0.471318 0
    outer loop
      vertex 96.6603 74 0
      vertex 96.9687 73.4229 1.5
      vertex 96.9687 73.4229 0
    endloop
  endfacet
  facet normal -0.986644 -0.162894 0
    outer loop
      vertex 0.192146 8.0491 0
      vertex 0.0855513 8.69474 1.5
      vertex 0.0855513 8.69474 0
    endloop
  endfacet
  facet normal -0.986644 -0.162894 0
    outer loop
      vertex 0.0855513 8.69474 1.5
      vertex 0.192146 8.0491 0
      vertex 0.192146 8.0491 1.5
    endloop
  endfacet
  facet normal 0.582524 0.812814 -0
    outer loop
      vertex 94.0876 76.9335 0
      vertex 93.5557 77.3147 1.5
      vertex 94.0876 76.9335 1.5
    endloop
  endfacet
  facet normal 0.582524 0.812814 0
    outer loop
      vertex 93.5557 77.3147 1.5
      vertex 94.0876 76.9335 0
      vertex 93.5557 77.3147 0
    endloop
  endfacet
  facet normal -0.935904 -0.352255 0
    outer loop
      vertex 0.761204 6.17317 0
      vertex 0.530698 6.7856 1.5
      vertex 0.530698 6.7856 0
    endloop
  endfacet
  facet normal -0.935904 -0.352255 0
    outer loop
      vertex 0.530698 6.7856 1.5
      vertex 0.761204 6.17317 0
      vertex 0.761204 6.17317 1.5
    endloop
  endfacet
  facet normal -0.956941 -0.290282 0
    outer loop
      vertex 0.530698 6.7856 0
      vertex 0.340741 7.41181 1.5
      vertex 0.340741 7.41181 0
    endloop
  endfacet
  facet normal -0.956941 -0.290282 0
    outer loop
      vertex 0.340741 7.41181 1.5
      vertex 0.530698 6.7856 0
      vertex 0.530698 6.7856 1.5
    endloop
  endfacet
  facet normal -0.729857 0.683599 0
    outer loop
      vertex 2.4816 75.5935 0
      vertex 2.92893 76.0711 1.5
      vertex 2.92893 76.0711 0
    endloop
  endfacet
  facet normal -0.729857 0.683599 0
    outer loop
      vertex 2.92893 76.0711 1.5
      vertex 2.4816 75.5935 0
      vertex 2.4816 75.5935 1.5
    endloop
  endfacet
  facet normal -0.162753 0.986667 0
    outer loop
      vertex 8.69474 78.9144 0
      vertex 8.0491 78.8079 1.5
      vertex 8.69474 78.9144 1.5
    endloop
  endfacet
  facet normal -0.162753 0.986667 0
    outer loop
      vertex 8.0491 78.8079 1.5
      vertex 8.69474 78.9144 0
      vertex 8.0491 78.8079 0
    endloop
  endfacet
  facet normal -0.352247 0.935907 0
    outer loop
      vertex 6.7856 78.4693 0
      vertex 6.17317 78.2388 1.5
      vertex 6.7856 78.4693 1.5
    endloop
  endfacet
  facet normal -0.352247 0.935907 0
    outer loop
      vertex 6.17317 78.2388 1.5
      vertex 6.7856 78.4693 0
      vertex 6.17317 78.2388 0
    endloop
  endfacet
  facet normal -0.995186 0.0980078 0
    outer loop
      vertex 0.02141 69.654 0
      vertex 0.0855513 70.3053 1.5
      vertex 0.0855513 70.3053 0
    endloop
  endfacet
  facet normal -0.995186 0.0980078 0
    outer loop
      vertex 0.0855513 70.3053 1.5
      vertex 0.02141 69.654 0
      vertex 0.02141 69.654 1.5
    endloop
  endfacet
  facet normal -0.973878 0.227073 0
    outer loop
      vertex 0.192146 70.9509 0
      vertex 0.340741 71.5882 1.5
      vertex 0.340741 71.5882 0
    endloop
  endfacet
  facet normal -0.973878 0.227073 0
    outer loop
      vertex 0.340741 71.5882 1.5
      vertex 0.192146 70.9509 0
      vertex 0.192146 70.9509 1.5
    endloop
  endfacet
  facet normal 0.910858 0.41272 0
    outer loop
      vertex 97.2388 72.8268 1.5
      vertex 96.9687 73.4229 0
      vertex 96.9687 73.4229 1.5
    endloop
  endfacet
  facet normal 0.910858 0.41272 0
    outer loop
      vertex 96.9687 73.4229 0
      vertex 97.2388 72.8268 1.5
      vertex 97.2388 72.8268 0
    endloop
  endfacet
  facet normal -0.881913 0.471413 0
    outer loop
      vertex 1.03127 73.4229 0
      vertex 1.33975 74 1.5
      vertex 1.33975 74 0
    endloop
  endfacet
  facet normal -0.881913 0.471413 0
    outer loop
      vertex 1.33975 74 1.5
      vertex 1.03127 73.4229 0
      vertex 1.03127 73.4229 1.5
    endloop
  endfacet
  facet normal -0.849207 0.528061 0
    outer loop
      vertex 1.33975 74 0
      vertex 1.6853 74.5557 1.5
      vertex 1.6853 74.5557 0
    endloop
  endfacet
  facet normal -0.849207 0.528061 0
    outer loop
      vertex 1.6853 74.5557 1.5
      vertex 1.33975 74 0
      vertex 1.33975 74 1.5
    endloop
  endfacet
  facet normal -0.227076 -0.973877 0
    outer loop
      vertex 7.41181 0.340741 0
      vertex 8.0491 0.192146 1.5
      vertex 7.41181 0.340741 1.5
    endloop
  endfacet
  facet normal -0.227076 -0.973877 -0
    outer loop
      vertex 8.0491 0.192146 1.5
      vertex 7.41181 0.340741 0
      vertex 8.0491 0.192146 0
    endloop
  endfacet
  facet normal 0.162763 0.986665 -0
    outer loop
      vertex 89.9509 78.8079 0
      vertex 89.3053 78.9144 1.5
      vertex 89.9509 78.8079 1.5
    endloop
  endfacet
  facet normal 0.162763 0.986665 0
    outer loop
      vertex 89.3053 78.9144 1.5
      vertex 89.9509 78.8079 0
      vertex 89.3053 78.9144 0
    endloop
  endfacet
  facet normal 0.227073 -0.973878 0
    outer loop
      vertex 89.9509 0.192146 0
      vertex 90.5882 0.340741 1.5
      vertex 89.9509 0.192146 1.5
    endloop
  endfacet
  facet normal 0.227073 -0.973878 0
    outer loop
      vertex 90.5882 0.340741 1.5
      vertex 89.9509 0.192146 0
      vertex 90.5882 0.340741 0
    endloop
  endfacet
  facet normal 0.22708 0.973876 -0
    outer loop
      vertex 90.5882 78.6593 0
      vertex 89.9509 78.8079 1.5
      vertex 90.5882 78.6593 1.5
    endloop
  endfacet
  facet normal 0.22708 0.973876 0
    outer loop
      vertex 89.9509 78.8079 1.5
      vertex 90.5882 78.6593 0
      vertex 89.9509 78.8079 0
    endloop
  endfacet
  facet normal 0.634319 0.773071 -0
    outer loop
      vertex 94.5935 76.5184 0
      vertex 94.0876 76.9335 1.5
      vertex 94.5935 76.5184 1.5
    endloop
  endfacet
  facet normal 0.634319 0.773071 0
    outer loop
      vertex 94.0876 76.9335 1.5
      vertex 94.5935 76.5184 0
      vertex 94.0876 76.9335 0
    endloop
  endfacet
  facet normal -0.683592 -0.729865 0
    outer loop
      vertex 2.92893 2.92893 0
      vertex 3.40654 2.4816 1.5
      vertex 2.92893 2.92893 1.5
    endloop
  endfacet
  facet normal -0.683592 -0.729865 -0
    outer loop
      vertex 3.40654 2.4816 1.5
      vertex 2.92893 2.92893 0
      vertex 3.40654 2.4816 0
    endloop
  endfacet
  facet normal -0.634391 -0.773012 0
    outer loop
      vertex 3.40654 2.4816 0
      vertex 3.91238 2.06647 1.5
      vertex 3.40654 2.4816 1.5
    endloop
  endfacet
  facet normal -0.634391 -0.773012 -0
    outer loop
      vertex 3.91238 2.06647 1.5
      vertex 3.40654 2.4816 0
      vertex 3.91238 2.06647 0
    endloop
  endfacet
  facet normal -0.881916 -0.471407 0
    outer loop
      vertex 1.33975 5 0
      vertex 1.03127 5.57711 1.5
      vertex 1.03127 5.57711 0
    endloop
  endfacet
  facet normal -0.881916 -0.471407 0
    outer loop
      vertex 1.03127 5.57711 1.5
      vertex 1.33975 5 0
      vertex 1.33975 5 1.5
    endloop
  endfacet
  facet normal 0.0980967 0.995177 -0
    outer loop
      vertex 89.3053 78.9144 0
      vertex 88.654 78.9786 1.5
      vertex 89.3053 78.9144 1.5
    endloop
  endfacet
  facet normal 0.0980967 0.995177 0
    outer loop
      vertex 88.654 78.9786 1.5
      vertex 89.3053 78.9144 0
      vertex 88.654 78.9786 0
    endloop
  endfacet
  facet normal 0.973876 0.22708 0
    outer loop
      vertex 97.8079 70.9509 1.5
      vertex 97.6593 71.5882 0
      vertex 97.6593 71.5882 1.5
    endloop
  endfacet
  facet normal 0.973876 0.22708 0
    outer loop
      vertex 97.6593 71.5882 0
      vertex 97.8079 70.9509 1.5
      vertex 97.8079 70.9509 0
    endloop
  endfacet
  facet normal 0.849172 0.528116 0
    outer loop
      vertex 96.6603 74 1.5
      vertex 96.3147 74.5557 0
      vertex 96.3147 74.5557 1.5
    endloop
  endfacet
  facet normal 0.849172 0.528116 0
    outer loop
      vertex 96.3147 74.5557 0
      vertex 96.6603 74 1.5
      vertex 96.6603 74 0
    endloop
  endfacet
  facet normal 0.528116 0.849172 -0
    outer loop
      vertex 93.5557 77.3147 0
      vertex 93 77.6603 1.5
      vertex 93.5557 77.3147 1.5
    endloop
  endfacet
  facet normal 0.528116 0.849172 0
    outer loop
      vertex 93 77.6603 1.5
      vertex 93.5557 77.3147 0
      vertex 93 77.6603 0
    endloop
  endfacet
  facet normal -0.773012 -0.634391 0
    outer loop
      vertex 2.4816 3.40654 0
      vertex 2.06647 3.91238 1.5
      vertex 2.06647 3.91238 0
    endloop
  endfacet
  facet normal -0.773012 -0.634391 0
    outer loop
      vertex 2.06647 3.91238 1.5
      vertex 2.4816 3.40654 0
      vertex 2.4816 3.40654 1.5
    endloop
  endfacet
  facet normal -0.812846 -0.582479 0
    outer loop
      vertex 2.06647 3.91238 0
      vertex 1.6853 4.4443 1.5
      vertex 1.6853 4.4443 0
    endloop
  endfacet
  facet normal -0.812846 -0.582479 0
    outer loop
      vertex 1.6853 4.4443 1.5
      vertex 2.06647 3.91238 0
      vertex 2.06647 3.91238 1.5
    endloop
  endfacet
  facet normal -0.973877 -0.227076 0
    outer loop
      vertex 0.340741 7.41181 0
      vertex 0.192146 8.0491 1.5
      vertex 0.192146 8.0491 0
    endloop
  endfacet
  facet normal -0.973877 -0.227076 0
    outer loop
      vertex 0.192146 8.0491 1.5
      vertex 0.340741 7.41181 0
      vertex 0.340741 7.41181 1.5
    endloop
  endfacet
  facet normal -0.58251 0.812824 0
    outer loop
      vertex 4.4443 77.3147 0
      vertex 3.91238 76.9335 1.5
      vertex 4.4443 77.3147 1.5
    endloop
  endfacet
  facet normal -0.58251 0.812824 0
    outer loop
      vertex 3.91238 76.9335 1.5
      vertex 4.4443 77.3147 0
      vertex 3.91238 76.9335 0
    endloop
  endfacet
  facet normal 0.773071 0.634319 0
    outer loop
      vertex 95.9335 75.0876 1.5
      vertex 95.5184 75.5935 0
      vertex 95.5184 75.5935 1.5
    endloop
  endfacet
  facet normal 0.773071 0.634319 0
    outer loop
      vertex 95.5184 75.5935 0
      vertex 95.9335 75.0876 1.5
      vertex 95.9335 75.0876 0
    endloop
  endfacet
  facet normal 0.72988 0.683575 0
    outer loop
      vertex 95.5184 75.5935 1.5
      vertex 95.0711 76.0711 0
      vertex 95.0711 76.0711 1.5
    endloop
  endfacet
  facet normal 0.72988 0.683575 0
    outer loop
      vertex 95.0711 76.0711 0
      vertex 95.5184 75.5935 1.5
      vertex 95.5184 75.5935 0
    endloop
  endfacet
  facet normal 0.471413 -0.881913 0
    outer loop
      vertex 92.4229 1.03127 0
      vertex 93 1.33975 1.5
      vertex 92.4229 1.03127 1.5
    endloop
  endfacet
  facet normal 0.471413 -0.881913 0
    outer loop
      vertex 93 1.33975 1.5
      vertex 92.4229 1.03127 0
      vertex 93 1.33975 0
    endloop
  endfacet
  facet normal -0.471311 0.881967 0
    outer loop
      vertex 5.57711 77.9687 0
      vertex 5 77.6603 1.5
      vertex 5.57711 77.9687 1.5
    endloop
  endfacet
  facet normal -0.471311 0.881967 0
    outer loop
      vertex 5 77.6603 1.5
      vertex 5.57711 77.9687 0
      vertex 5 77.6603 0
    endloop
  endfacet
  facet normal -0.935898 0.35227 0
    outer loop
      vertex 0.530698 72.2144 0
      vertex 0.761204 72.8268 1.5
      vertex 0.761204 72.8268 0
    endloop
  endfacet
  facet normal -0.935898 0.35227 0
    outer loop
      vertex 0.761204 72.8268 1.5
      vertex 0.530698 72.2144 0
      vertex 0.530698 72.2144 1.5
    endloop
  endfacet
  facet normal -0.986642 0.162904 0
    outer loop
      vertex 0.0855513 70.3053 0
      vertex 0.192146 70.9509 1.5
      vertex 0.192146 70.9509 0
    endloop
  endfacet
  facet normal -0.986642 0.162904 0
    outer loop
      vertex 0.192146 70.9509 1.5
      vertex 0.0855513 70.3053 0
      vertex 0.0855513 70.3053 1.5
    endloop
  endfacet
  facet normal -0.528116 0.849172 0
    outer loop
      vertex 5 77.6603 0
      vertex 4.4443 77.3147 1.5
      vertex 5 77.6603 1.5
    endloop
  endfacet
  facet normal -0.528116 0.849172 0
    outer loop
      vertex 4.4443 77.3147 1.5
      vertex 5 77.6603 0
      vertex 4.4443 77.3147 0
    endloop
  endfacet
  facet normal 0.986665 0.162763 0
    outer loop
      vertex 97.9144 70.3053 1.5
      vertex 97.8079 70.9509 0
      vertex 97.8079 70.9509 1.5
    endloop
  endfacet
  facet normal 0.986665 0.162763 0
    outer loop
      vertex 97.8079 70.9509 0
      vertex 97.9144 70.3053 1.5
      vertex 97.9144 70.3053 0
    endloop
  endfacet
  facet normal -0.352255 -0.935904 0
    outer loop
      vertex 6.17317 0.761204 0
      vertex 6.7856 0.530698 1.5
      vertex 6.17317 0.761204 1.5
    endloop
  endfacet
  facet normal -0.352255 -0.935904 -0
    outer loop
      vertex 6.7856 0.530698 1.5
      vertex 6.17317 0.761204 0
      vertex 6.7856 0.530698 0
    endloop
  endfacet
  facet normal -0.910877 0.412677 0
    outer loop
      vertex 0.761204 72.8268 0
      vertex 1.03127 73.4229 1.5
      vertex 1.03127 73.4229 0
    endloop
  endfacet
  facet normal -0.910877 0.412677 0
    outer loop
      vertex 1.03127 73.4229 1.5
      vertex 0.761204 72.8268 0
      vertex 0.761204 72.8268 1.5
    endloop
  endfacet
  facet normal -0.0327027 0.999465 0
    outer loop
      vertex 10 79 0
      vertex 9.34597 78.9786 1.5
      vertex 10 79 1.5
    endloop
  endfacet
  facet normal -0.0327027 0.999465 0
    outer loop
      vertex 9.34597 78.9786 1.5
      vertex 10 79 0
      vertex 9.34597 78.9786 0
    endloop
  endfacet
  facet normal 0 0 -1
    outer loop
      vertex 0 10 0
      vertex 7.9 7.9 0
      vertex 4.1 7.9 0
    endloop
  endfacet
  facet normal 0 0 -1
    outer loop
      vertex 7.9 7.9 0
      vertex 0 10 0
      vertex 7.9 71.1 0
    endloop
  endfacet
  facet normal 0 0 -1
    outer loop
      vertex 7.9 71.1 0
      vertex 36.78 27.5 0
      vertex 7.9 7.9 0
    endloop
  endfacet
  facet normal 0 0 -1
    outer loop
      vertex 7.9 74.9 0
      vertex 36.78 27.5 0
      vertex 7.9 71.1 0
    endloop
  endfacet
  facet normal 0 0 -1
    outer loop
      vertex 36.78 27.5 0
      vertex 7.9 74.9 0
      vertex 8.0491 78.8079 0
    endloop
  endfacet
  facet normal 0 0 -1
    outer loop
      vertex 7.9 74.9 0
      vertex 7.41181 78.6593 0
      vertex 8.0491 78.8079 0
    endloop
  endfacet
  facet normal 0 0 -1
    outer loop
      vertex 7.9 74.9 0
      vertex 6.7856 78.4693 0
      vertex 7.41181 78.6593 0
    endloop
  endfacet
  facet normal 0 0 -1
    outer loop
      vertex 7.9 74.9 0
      vertex 6.17317 78.2388 0
      vertex 6.7856 78.4693 0
    endloop
  endfacet
  facet normal 0 0 -1
    outer loop
      vertex 7.9 74.9 0
      vertex 5.57711 77.9687 0
      vertex 6.17317 78.2388 0
    endloop
  endfacet
  facet normal 0 0 -1
    outer loop
      vertex 7.9 74.9 0
      vertex 5 77.6603 0
      vertex 5.57711 77.9687 0
    endloop
  endfacet
  facet normal 0 0 -1
    outer loop
      vertex 4.1 74.9 0
      vertex 5 77.6603 0
      vertex 7.9 74.9 0
    endloop
  endfacet
  facet normal 0 0 -1
    outer loop
      vertex 5 77.6603 0
      vertex 4.1 74.9 0
      vertex 4.4443 77.3147 0
    endloop
  endfacet
  facet normal 0 0 -1
    outer loop
      vertex 4.1 74.9 0
      vertex 3.91238 76.9335 0
      vertex 4.4443 77.3147 0
    endloop
  endfacet
  facet normal 0 0 -1
    outer loop
      vertex 4.1 71.1 0
      vertex 3.91238 76.9335 0
      vertex 4.1 74.9 0
    endloop
  endfacet
  facet normal 0 0 -1
    outer loop
      vertex 0 10 0
      vertex 3.91238 2.06647 0
      vertex 3.40654 2.4816 0
    endloop
  endfacet
  facet normal -0 0 -1
    outer loop
      vertex 7.9 71.1 0
      vertex 0 69 0
      vertex 4.1 71.1 0
    endloop
  endfacet
  facet normal 0 0 -1
    outer loop
      vertex 0 10 0
      vertex 3.40654 2.4816 0
      vertex 2.92893 2.92893 0
    endloop
  endfacet
  facet normal 0 -0 -1
    outer loop
      vertex 0.02141 69.654 0
      vertex 4.1 71.1 0
      vertex 0 69 0
    endloop
  endfacet
  facet normal 0 0 -1
    outer loop
      vertex 0 10 0
      vertex 2.92893 2.92893 0
      vertex 2.4816 3.40654 0
    endloop
  endfacet
  facet normal 0 0 -1
    outer loop
      vertex 4.1 71.1 0
      vertex 3.40654 76.5184 0
      vertex 3.91238 76.9335 0
    endloop
  endfacet
  facet normal 0 0 -1
    outer loop
      vertex 0 10 0
      vertex 2.4816 3.40654 0
      vertex 2.06647 3.91238 0
    endloop
  endfacet
  facet normal 0 0 -1
    outer loop
      vertex 4.1 71.1 0
      vertex 2.92893 76.0711 0
      vertex 3.40654 76.5184 0
    endloop
  endfacet
  facet normal 0 0 -1
    outer loop
      vertex 0 10 0
      vertex 2.06647 3.91238 0
      vertex 1.6853 4.4443 0
    endloop
  endfacet
  facet normal 0 0 -1
    outer loop
      vertex 4.1 71.1 0
      vertex 2.4816 75.5935 0
      vertex 2.92893 76.0711 0
    endloop
  endfacet
  facet normal 0 0 -1
    outer loop
      vertex 0 10 0
      vertex 1.6853 4.4443 0
      vertex 1.33975 5 0
    endloop
  endfacet
  facet normal 0 0 -1
    outer loop
      vertex 4.1 71.1 0
      vertex 2.06647 75.0876 0
      vertex 2.4816 75.5935 0
    endloop
  endfacet
  facet normal 0 0 -1
    outer loop
      vertex 0 10 0
      vertex 1.33975 5 0
      vertex 1.03127 5.57711 0
    endloop
  endfacet
  facet normal 0 0 -1
    outer loop
      vertex 4.1 71.1 0
      vertex 1.6853 74.5557 0
      vertex 2.06647 75.0876 0
    endloop
  endfacet
  facet normal 0 0 -1
    outer loop
      vertex 0 10 0
      vertex 1.03127 5.57711 0
      vertex 0.761204 6.17317 0
    endloop
  endfacet
  facet normal 0 0 -1
    outer loop
      vertex 4.1 71.1 0
      vertex 1.33975 74 0
      vertex 1.6853 74.5557 0
    endloop
  endfacet
  facet normal 0 0 -1
    outer loop
      vertex 0 10 0
      vertex 0.761204 6.17317 0
      vertex 0.530698 6.7856 0
    endloop
  endfacet
  facet normal 0 0 -1
    outer loop
      vertex 4.1 71.1 0
      vertex 1.03127 73.4229 0
      vertex 1.33975 74 0
    endloop
  endfacet
  facet normal 0 0 -1
    outer loop
      vertex 0 10 0
      vertex 0.530698 6.7856 0
      vertex 0.340741 7.41181 0
    endloop
  endfacet
  facet normal 0 0 -1
    outer loop
      vertex 4.1 71.1 0
      vertex 0.761204 72.8268 0
      vertex 1.03127 73.4229 0
    endloop
  endfacet
  facet normal 0 0 -1
    outer loop
      vertex 0 10 0
      vertex 0.340741 7.41181 0
      vertex 0.192146 8.0491 0
    endloop
  endfacet
  facet normal 0 0 -1
    outer loop
      vertex 4.1 71.1 0
      vertex 0.530698 72.2144 0
      vertex 0.761204 72.8268 0
    endloop
  endfacet
  facet normal 0 0 -1
    outer loop
      vertex 0 10 0
      vertex 0.192146 8.0491 0
      vertex 0.0855513 8.69474 0
    endloop
  endfacet
  facet normal 0 0 -1
    outer loop
      vertex 4.1 71.1 0
      vertex 0.340741 71.5882 0
      vertex 0.530698 72.2144 0
    endloop
  endfacet
  facet normal 0 0 -1
    outer loop
      vertex 0 10 0
      vertex 0.0855513 8.69474 0
      vertex 0.02141 9.34597 0
    endloop
  endfacet
  facet normal -0 0 -1
    outer loop
      vertex 4.1 71.1 0
      vertex 0.192146 70.9509 0
      vertex 0.340741 71.5882 0
    endloop
  endfacet
  facet normal 0 0 -1
    outer loop
      vertex 4.1 71.1 0
      vertex 0.0855513 70.3053 0
      vertex 0.192146 70.9509 0
    endloop
  endfacet
  facet normal 0 0 -1
    outer loop
      vertex 4.1 71.1 0
      vertex 0.02141 69.654 0
      vertex 0.0855513 70.3053 0
    endloop
  endfacet
  facet normal -0 0 -1
    outer loop
      vertex 90.1 71.1 0
      vertex 64.78 61.5 0
      vertex 88 79 0
    endloop
  endfacet
  facet normal 0 0 -1
    outer loop
      vertex 36.78 61.5 0
      vertex 88 79 0
      vertex 64.78 61.5 0
    endloop
  endfacet
  facet normal 0 0 -1
    outer loop
      vertex 36.78 61.5 0
      vertex 10 79 0
      vertex 88 79 0
    endloop
  endfacet
  facet normal 0 0 -1
    outer loop
      vertex 36.78 27.5 0
      vertex 10 79 0
      vertex 36.78 61.5 0
    endloop
  endfacet
  facet normal 0 0 -1
    outer loop
      vertex 7.9 4.1 0
      vertex 10 0 0
      vertex 9.34597 0.02141 0
    endloop
  endfacet
  facet normal 0 0 -1
    outer loop
      vertex 10 0 0
      vertex 7.9 7.9 0
      vertex 36.78 27.5 0
    endloop
  endfacet
  facet normal 0 0 -1
    outer loop
      vertex 7.9 4.1 0
      vertex 9.34597 0.02141 0
      vertex 8.69474 0.0855513 0
    endloop
  endfacet
  facet normal 0 0 -1
    outer loop
      vertex 36.78 27.5 0
      vertex 8.0491 78.8079 0
      vertex 10 79 0
    endloop
  endfacet
  facet normal 0 0 -1
    outer loop
      vertex 7.9 4.1 0
      vertex 8.69474 0.0855513 0
      vertex 8.0491 0.192146 0
    endloop
  endfacet
  facet normal 0 0 -1
    outer loop
      vertex 10 79 0
      vertex 8.0491 78.8079 0
      vertex 9.34597 78.9786 0
    endloop
  endfacet
  facet normal 0 0 -1
    outer loop
      vertex 9.34597 78.9786 0
      vertex 8.0491 78.8079 0
      vertex 8.69474 78.9144 0
    endloop
  endfacet
  facet normal 0 0 -1
    outer loop
      vertex 7.41181 0.340741 0
      vertex 7.9 4.1 0
      vertex 8.0491 0.192146 0
    endloop
  endfacet
  facet normal 0 0 -1
    outer loop
      vertex 6.7856 0.530698 0
      vertex 7.9 4.1 0
      vertex 7.41181 0.340741 0
    endloop
  endfacet
  facet normal 0 0 -1
    outer loop
      vertex 6.17317 0.761204 0
      vertex 7.9 4.1 0
      vertex 6.7856 0.530698 0
    endloop
  endfacet
  facet normal 0 0 -1
    outer loop
      vertex 5.57711 1.03127 0
      vertex 7.9 4.1 0
      vertex 6.17317 0.761204 0
    endloop
  endfacet
  facet normal 0 0 -1
    outer loop
      vertex 5 1.33975 0
      vertex 7.9 4.1 0
      vertex 5.57711 1.03127 0
    endloop
  endfacet
  facet normal 0 0 -1
    outer loop
      vertex 4.1 4.1 0
      vertex 5 1.33975 0
      vertex 4.4443 1.6853 0
    endloop
  endfacet
  facet normal 0 0 -1
    outer loop
      vertex 5 1.33975 0
      vertex 4.1 4.1 0
      vertex 7.9 4.1 0
    endloop
  endfacet
  facet normal 0 0 -1
    outer loop
      vertex 0 10 0
      vertex 4.1 4.1 0
      vertex 3.91238 2.06647 0
    endloop
  endfacet
  facet normal 0 0 -1
    outer loop
      vertex 4.1 4.1 0
      vertex 0 10 0
      vertex 4.1 7.9 0
    endloop
  endfacet
  facet normal 0 0 -1
    outer loop
      vertex 0 69 0
      vertex 7.9 71.1 0
      vertex 0 10 0
    endloop
  endfacet
  facet normal 0 0 -1
    outer loop
      vertex 3.91238 2.06647 0
      vertex 4.1 4.1 0
      vertex 4.4443 1.6853 0
    endloop
  endfacet
  facet normal 0 0 -1
    outer loop
      vertex 98 10 0
      vertex 64.78 27.5 0
      vertex 98 69 0
    endloop
  endfacet
  facet normal 0 -0 -1
    outer loop
      vertex 90.1 71.1 0
      vertex 98 69 0
      vertex 64.78 27.5 0
    endloop
  endfacet
  facet normal 0 0 -1
    outer loop
      vertex 93.9 7.9 0
      vertex 98 10 0
      vertex 97.9786 9.34597 0
    endloop
  endfacet
  facet normal 0 0 -1
    outer loop
      vertex 90.1 7.9 0
      vertex 98 10 0
      vertex 93.9 7.9 0
    endloop
  endfacet
  facet normal 0 0 -1
    outer loop
      vertex 93.9 7.9 0
      vertex 97.9786 9.34597 0
      vertex 97.9144 8.69474 0
    endloop
  endfacet
  facet normal 0 0 -1
    outer loop
      vertex 64.78 27.5 0
      vertex 98 10 0
      vertex 90.1 7.9 0
    endloop
  endfacet
  facet normal 0 0 -1
    outer loop
      vertex 93.9 7.9 0
      vertex 97.9144 8.69474 0
      vertex 97.8079 8.0491 0
    endloop
  endfacet
  facet normal 0 0 -1
    outer loop
      vertex 98 69 0
      vertex 93.9 71.1 0
      vertex 97.9786 69.654 0
    endloop
  endfacet
  facet normal 0 0 -1
    outer loop
      vertex 93.9 7.9 0
      vertex 97.8079 8.0491 0
      vertex 97.6593 7.41181 0
    endloop
  endfacet
  facet normal 0 0 -1
    outer loop
      vertex 97.9786 69.654 0
      vertex 93.9 71.1 0
      vertex 97.9144 70.3053 0
    endloop
  endfacet
  facet normal 0 0 -1
    outer loop
      vertex 93.9 7.9 0
      vertex 97.6593 7.41181 0
      vertex 97.4693 6.7856 0
    endloop
  endfacet
  facet normal 0 0 -1
    outer loop
      vertex 97.9144 70.3053 0
      vertex 93.9 71.1 0
      vertex 97.8079 70.9509 0
    endloop
  endfacet
  facet normal 0 0 -1
    outer loop
      vertex 93.9 7.9 0
      vertex 97.4693 6.7856 0
      vertex 97.2388 6.17317 0
    endloop
  endfacet
  facet normal 0 0 -1
    outer loop
      vertex 97.8079 70.9509 0
      vertex 93.9 71.1 0
      vertex 97.6593 71.5882 0
    endloop
  endfacet
  facet normal 0 0 -1
    outer loop
      vertex 93.9 7.9 0
      vertex 97.2388 6.17317 0
      vertex 96.9687 5.57711 0
    endloop
  endfacet
  facet normal -0 0 -1
    outer loop
      vertex 97.6593 71.5882 0
      vertex 93.9 71.1 0
      vertex 97.4693 72.2144 0
    endloop
  endfacet
  facet normal 0 0 -1
    outer loop
      vertex 93.9 7.9 0
      vertex 96.9687 5.57711 0
      vertex 96.6603 5 0
    endloop
  endfacet
  facet normal -0 0 -1
    outer loop
      vertex 97.4693 72.2144 0
      vertex 93.9 71.1 0
      vertex 97.2388 72.8268 0
    endloop
  endfacet
  facet normal 0 0 -1
    outer loop
      vertex 93.9 4.1 0
      vertex 96.6603 5 0
      vertex 96.3147 4.4443 0
    endloop
  endfacet
  facet normal -0 0 -1
    outer loop
      vertex 97.2388 72.8268 0
      vertex 93.9 71.1 0
      vertex 96.9687 73.4229 0
    endloop
  endfacet
  facet normal 0 0 -1
    outer loop
      vertex 93.9 4.1 0
      vertex 96.3147 4.4443 0
      vertex 95.9335 3.91238 0
    endloop
  endfacet
  facet normal -0 0 -1
    outer loop
      vertex 96.9687 73.4229 0
      vertex 93.9 71.1 0
      vertex 96.6603 74 0
    endloop
  endfacet
  facet normal 0 0 -1
    outer loop
      vertex 93.9 4.1 0
      vertex 95.9335 3.91238 0
      vertex 95.5184 3.40654 0
    endloop
  endfacet
  facet normal 0 0 -1
    outer loop
      vertex 93.9 74.9 0
      vertex 96.6603 74 0
      vertex 93.9 71.1 0
    endloop
  endfacet
  facet normal 0 0 -1
    outer loop
      vertex 93.9 4.1 0
      vertex 95.5184 3.40654 0
      vertex 95.0711 2.92893 0
    endloop
  endfacet
  facet normal 0 0 -1
    outer loop
      vertex 96.6603 74 0
      vertex 93.9 74.9 0
      vertex 96.3147 74.5557 0
    endloop
  endfacet
  facet normal 0 0 -1
    outer loop
      vertex 93.9 4.1 0
      vertex 95.0711 2.92893 0
      vertex 94.5935 2.4816 0
    endloop
  endfacet
  facet normal 0 0 -1
    outer loop
      vertex 96.3147 74.5557 0
      vertex 93.9 74.9 0
      vertex 95.9335 75.0876 0
    endloop
  endfacet
  facet normal 0 0 -1
    outer loop
      vertex 93.9 4.1 0
      vertex 94.5935 2.4816 0
      vertex 94.0876 2.06647 0
    endloop
  endfacet
  facet normal -0 0 -1
    outer loop
      vertex 95.9335 75.0876 0
      vertex 93.9 74.9 0
      vertex 95.5184 75.5935 0
    endloop
  endfacet
  facet normal -0 0 -1
    outer loop
      vertex 96.6603 5 0
      vertex 93.9 4.1 0
      vertex 93.9 7.9 0
    endloop
  endfacet
  facet normal 0 0 -1
    outer loop
      vertex 93.5557 1.6853 0
      vertex 93.9 4.1 0
      vertex 94.0876 2.06647 0
    endloop
  endfacet
  facet normal 0 0 -1
    outer loop
      vertex 93 1.33975 0
      vertex 93.9 4.1 0
      vertex 93.5557 1.6853 0
    endloop
  endfacet
  facet normal 0 0 -1
    outer loop
      vertex 90.1 4.1 0
      vertex 93 1.33975 0
      vertex 92.4229 1.03127 0
    endloop
  endfacet
  facet normal 0 0 -1
    outer loop
      vertex 90.1 4.1 0
      vertex 92.4229 1.03127 0
      vertex 91.8268 0.761204 0
    endloop
  endfacet
  facet normal 0 0 -1
    outer loop
      vertex 90.1 4.1 0
      vertex 91.8268 0.761204 0
      vertex 91.2144 0.530698 0
    endloop
  endfacet
  facet normal 0 0 -1
    outer loop
      vertex 90.1 4.1 0
      vertex 91.2144 0.530698 0
      vertex 90.5882 0.340741 0
    endloop
  endfacet
  facet normal 0 0 -1
    outer loop
      vertex 93 1.33975 0
      vertex 90.1 4.1 0
      vertex 93.9 4.1 0
    endloop
  endfacet
  facet normal 0 0 -1
    outer loop
      vertex 88 0 0
      vertex 90.1 7.9 0
      vertex 90.1 4.1 0
    endloop
  endfacet
  facet normal 0 0 -1
    outer loop
      vertex 98 69 0
      vertex 90.1 71.1 0
      vertex 93.9 71.1 0
    endloop
  endfacet
  facet normal 0 0 -1
    outer loop
      vertex 89.3053 0.0855513 0
      vertex 90.1 4.1 0
      vertex 89.9509 0.192146 0
    endloop
  endfacet
  facet normal 0 0 -1
    outer loop
      vertex 89.9509 0.192146 0
      vertex 90.1 4.1 0
      vertex 90.5882 0.340741 0
    endloop
  endfacet
  facet normal -0 0 -1
    outer loop
      vertex 95.5184 75.5935 0
      vertex 93.9 74.9 0
      vertex 95.0711 76.0711 0
    endloop
  endfacet
  facet normal -0 0 -1
    outer loop
      vertex 95.0711 76.0711 0
      vertex 93.9 74.9 0
      vertex 94.5935 76.5184 0
    endloop
  endfacet
  facet normal -0 0 -1
    outer loop
      vertex 94.5935 76.5184 0
      vertex 93.9 74.9 0
      vertex 94.0876 76.9335 0
    endloop
  endfacet
  facet normal 0 0 -1
    outer loop
      vertex 93.9 74.9 0
      vertex 93.5557 77.3147 0
      vertex 94.0876 76.9335 0
    endloop
  endfacet
  facet normal 0 0 -1
    outer loop
      vertex 93.9 74.9 0
      vertex 93 77.6603 0
      vertex 93.5557 77.3147 0
    endloop
  endfacet
  facet normal 0 0 -1
    outer loop
      vertex 90.1 74.9 0
      vertex 93 77.6603 0
      vertex 93.9 74.9 0
    endloop
  endfacet
  facet normal -0 0 -1
    outer loop
      vertex 93 77.6603 0
      vertex 90.1 74.9 0
      vertex 92.4229 77.9687 0
    endloop
  endfacet
  facet normal -0 0 -1
    outer loop
      vertex 92.4229 77.9687 0
      vertex 90.1 74.9 0
      vertex 91.8268 78.2388 0
    endloop
  endfacet
  facet normal -0 0 -1
    outer loop
      vertex 91.8268 78.2388 0
      vertex 90.1 74.9 0
      vertex 91.2144 78.4693 0
    endloop
  endfacet
  facet normal -0 0 -1
    outer loop
      vertex 91.2144 78.4693 0
      vertex 90.1 74.9 0
      vertex 90.5882 78.6593 0
    endloop
  endfacet
  facet normal 0 0 -1
    outer loop
      vertex 90.1 74.9 0
      vertex 89.9509 78.8079 0
      vertex 90.5882 78.6593 0
    endloop
  endfacet
  facet normal 0 0 -1
    outer loop
      vertex 64.78 61.5 0
      vertex 90.1 71.1 0
      vertex 64.78 27.5 0
    endloop
  endfacet
  facet normal 0 0 -1
    outer loop
      vertex 88.654 0.02141 0
      vertex 90.1 4.1 0
      vertex 89.3053 0.0855513 0
    endloop
  endfacet
  facet normal 0 0 -1
    outer loop
      vertex 90.1 71.1 0
      vertex 88 79 0
      vertex 90.1 74.9 0
    endloop
  endfacet
  facet normal 0 0 -1
    outer loop
      vertex 90.1 4.1 0
      vertex 88.654 0.02141 0
      vertex 88 0 0
    endloop
  endfacet
  facet normal -0 -0 -1
    outer loop
      vertex 88.654 78.9786 0
      vertex 90.1 74.9 0
      vertex 88 79 0
    endloop
  endfacet
  facet normal -0 0 -1
    outer loop
      vertex 90.1 7.9 0
      vertex 88 0 0
      vertex 64.78 27.5 0
    endloop
  endfacet
  facet normal 0 0 -1
    outer loop
      vertex 90.1 74.9 0
      vertex 89.3053 78.9144 0
      vertex 89.9509 78.8079 0
    endloop
  endfacet
  facet normal 0 0 -1
    outer loop
      vertex 90.1 74.9 0
      vertex 88.654 78.9786 0
      vertex 89.3053 78.9144 0
    endloop
  endfacet
  facet normal 0 0 -1
    outer loop
      vertex 88 0 0
      vertex 36.78 27.5 0
      vertex 64.78 27.5 0
    endloop
  endfacet
  facet normal 0 0 -1
    outer loop
      vertex 7.9 7.9 0
      vertex 10 0 0
      vertex 7.9 4.1 0
    endloop
  endfacet
  facet normal 0 0 -1
    outer loop
      vertex 10 0 0
      vertex 36.78 27.5 0
      vertex 88 0 0
    endloop
  endfacet
  facet normal -0.290342 0.956923 0
    outer loop
      vertex 7.41181 78.6593 0
      vertex 6.7856 78.4693 1.5
      vertex 7.41181 78.6593 1.5
    endloop
  endfacet
  facet normal -0.290342 0.956923 0
    outer loop
      vertex 6.7856 78.4693 1.5
      vertex 7.41181 78.6593 0
      vertex 6.7856 78.4693 0
    endloop
  endfacet
  facet normal 0.290287 -0.95694 0
    outer loop
      vertex 90.5882 0.340741 0
      vertex 91.2144 0.530698 1.5
      vertex 90.5882 0.340741 1.5
    endloop
  endfacet
  facet normal 0.290287 -0.95694 0
    outer loop
      vertex 91.2144 0.530698 1.5
      vertex 90.5882 0.340741 0
      vertex 91.2144 0.530698 0
    endloop
  endfacet
  facet normal 0 0 1
    outer loop
      vertex 88 79 1.5
      vertex 98 69 1.5
      vertex 97.9786 69.654 1.5
    endloop
  endfacet
  facet normal 0 0 1
    outer loop
      vertex 98 69 1.5
      vertex 65.78 26.5 1.5
      vertex 98 10 1.5
    endloop
  endfacet
  facet normal 0 0 1
    outer loop
      vertex 88 79 1.5
      vertex 97.9786 69.654 1.5
      vertex 97.9144 70.3053 1.5
    endloop
  endfacet
  facet normal 0 -0 1
    outer loop
      vertex 88 0 1.5
      vertex 98 10 1.5
      vertex 65.78 26.5 1.5
    endloop
  endfacet
  facet normal 0 0 1
    outer loop
      vertex 88 79 1.5
      vertex 97.9144 70.3053 1.5
      vertex 97.8079 70.9509 1.5
    endloop
  endfacet
  facet normal 0 0 1
    outer loop
      vertex 98 10 1.5
      vertex 88 0 1.5
      vertex 97.9786 9.34597 1.5
    endloop
  endfacet
  facet normal 0 0 1
    outer loop
      vertex 88 79 1.5
      vertex 97.8079 70.9509 1.5
      vertex 97.6593 71.5882 1.5
    endloop
  endfacet
  facet normal 0 0 1
    outer loop
      vertex 97.9786 9.34597 1.5
      vertex 88 0 1.5
      vertex 97.9144 8.69474 1.5
    endloop
  endfacet
  facet normal 0 0 1
    outer loop
      vertex 88 79 1.5
      vertex 97.6593 71.5882 1.5
      vertex 97.4693 72.2144 1.5
    endloop
  endfacet
  facet normal 0 0 1
    outer loop
      vertex 97.9144 8.69474 1.5
      vertex 88 0 1.5
      vertex 97.8079 8.0491 1.5
    endloop
  endfacet
  facet normal 0 0 1
    outer loop
      vertex 88 79 1.5
      vertex 97.4693 72.2144 1.5
      vertex 97.2388 72.8268 1.5
    endloop
  endfacet
  facet normal 0 0 1
    outer loop
      vertex 97.8079 8.0491 1.5
      vertex 88 0 1.5
      vertex 97.6593 7.41181 1.5
    endloop
  endfacet
  facet normal 0 0 1
    outer loop
      vertex 88 79 1.5
      vertex 97.2388 72.8268 1.5
      vertex 96.9687 73.4229 1.5
    endloop
  endfacet
  facet normal 0 0 1
    outer loop
      vertex 97.6593 7.41181 1.5
      vertex 88 0 1.5
      vertex 97.4693 6.7856 1.5
    endloop
  endfacet
  facet normal 0 0 1
    outer loop
      vertex 88 79 1.5
      vertex 96.9687 73.4229 1.5
      vertex 96.6603 74 1.5
    endloop
  endfacet
  facet normal 0 0 1
    outer loop
      vertex 97.4693 6.7856 1.5
      vertex 88 0 1.5
      vertex 97.2388 6.17317 1.5
    endloop
  endfacet
  facet normal 0 0 1
    outer loop
      vertex 88 79 1.5
      vertex 96.6603 74 1.5
      vertex 96.3147 74.5557 1.5
    endloop
  endfacet
  facet normal 0 0 1
    outer loop
      vertex 97.2388 6.17317 1.5
      vertex 88 0 1.5
      vertex 96.9687 5.57711 1.5
    endloop
  endfacet
  facet normal 0 0 1
    outer loop
      vertex 88 79 1.5
      vertex 96.3147 74.5557 1.5
      vertex 95.9335 75.0876 1.5
    endloop
  endfacet
  facet normal 0 0 1
    outer loop
      vertex 96.9687 5.57711 1.5
      vertex 88 0 1.5
      vertex 96.6603 5 1.5
    endloop
  endfacet
  facet normal 0 0 1
    outer loop
      vertex 88 79 1.5
      vertex 95.9335 75.0876 1.5
      vertex 95.5184 75.5935 1.5
    endloop
  endfacet
  facet normal 0 0 1
    outer loop
      vertex 96.6603 5 1.5
      vertex 88 0 1.5
      vertex 96.3147 4.4443 1.5
    endloop
  endfacet
  facet normal 0 0 1
    outer loop
      vertex 88 79 1.5
      vertex 95.5184 75.5935 1.5
      vertex 95.0711 76.0711 1.5
    endloop
  endfacet
  facet normal 0 0 1
    outer loop
      vertex 96.3147 4.4443 1.5
      vertex 88 0 1.5
      vertex 95.9335 3.91238 1.5
    endloop
  endfacet
  facet normal 0 0 1
    outer loop
      vertex 88 79 1.5
      vertex 95.0711 76.0711 1.5
      vertex 94.5935 76.5184 1.5
    endloop
  endfacet
  facet normal 0 0 1
    outer loop
      vertex 95.9335 3.91238 1.5
      vertex 88 0 1.5
      vertex 95.5184 3.40654 1.5
    endloop
  endfacet
  facet normal 0 0 1
    outer loop
      vertex 88 79 1.5
      vertex 94.5935 76.5184 1.5
      vertex 94.0876 76.9335 1.5
    endloop
  endfacet
  facet normal 0 0 1
    outer loop
      vertex 95.5184 3.40654 1.5
      vertex 88 0 1.5
      vertex 95.0711 2.92893 1.5
    endloop
  endfacet
  facet normal 0 0 1
    outer loop
      vertex 88 79 1.5
      vertex 94.0876 76.9335 1.5
      vertex 93.5557 77.3147 1.5
    endloop
  endfacet
  facet normal 0 0 1
    outer loop
      vertex 95.0711 2.92893 1.5
      vertex 88 0 1.5
      vertex 94.5935 2.4816 1.5
    endloop
  endfacet
  facet normal 0 0 1
    outer loop
      vertex 88 79 1.5
      vertex 93.5557 77.3147 1.5
      vertex 93 77.6603 1.5
    endloop
  endfacet
  facet normal 0 0 1
    outer loop
      vertex 94.5935 2.4816 1.5
      vertex 88 0 1.5
      vertex 94.0876 2.06647 1.5
    endloop
  endfacet
  facet normal 0 0 1
    outer loop
      vertex 88 79 1.5
      vertex 93 77.6603 1.5
      vertex 92.4229 77.9687 1.5
    endloop
  endfacet
  facet normal 0 0 1
    outer loop
      vertex 94.0876 2.06647 1.5
      vertex 88 0 1.5
      vertex 93.5557 1.6853 1.5
    endloop
  endfacet
  facet normal 0 0 1
    outer loop
      vertex 88 79 1.5
      vertex 92.4229 77.9687 1.5
      vertex 91.8268 78.2388 1.5
    endloop
  endfacet
  facet normal 0 0 1
    outer loop
      vertex 93.5557 1.6853 1.5
      vertex 88 0 1.5
      vertex 93 1.33975 1.5
    endloop
  endfacet
  facet normal 0 0 1
    outer loop
      vertex 88 79 1.5
      vertex 91.8268 78.2388 1.5
      vertex 91.2144 78.4693 1.5
    endloop
  endfacet
  facet normal 0 0 1
    outer loop
      vertex 93 1.33975 1.5
      vertex 88 0 1.5
      vertex 92.4229 1.03127 1.5
    endloop
  endfacet
  facet normal 0 0 1
    outer loop
      vertex 88 79 1.5
      vertex 91.2144 78.4693 1.5
      vertex 90.5882 78.6593 1.5
    endloop
  endfacet
  facet normal 0 0 1
    outer loop
      vertex 92.4229 1.03127 1.5
      vertex 88 0 1.5
      vertex 91.8268 0.761204 1.5
    endloop
  endfacet
  facet normal 0 0 1
    outer loop
      vertex 88 79 1.5
      vertex 90.5882 78.6593 1.5
      vertex 89.9509 78.8079 1.5
    endloop
  endfacet
  facet normal 0 0 1
    outer loop
      vertex 91.8268 0.761204 1.5
      vertex 88 0 1.5
      vertex 91.2144 0.530698 1.5
    endloop
  endfacet
  facet normal 0 0 1
    outer loop
      vertex 88 79 1.5
      vertex 89.9509 78.8079 1.5
      vertex 89.3053 78.9144 1.5
    endloop
  endfacet
  facet normal 0 0 1
    outer loop
      vertex 91.2144 0.530698 1.5
      vertex 88 0 1.5
      vertex 90.5882 0.340741 1.5
    endloop
  endfacet
  facet normal 0 0 1
    outer loop
      vertex 88 79 1.5
      vertex 89.3053 78.9144 1.5
      vertex 88.654 78.9786 1.5
    endloop
  endfacet
  facet normal 0 0 1
    outer loop
      vertex 90.5882 0.340741 1.5
      vertex 88 0 1.5
      vertex 89.9509 0.192146 1.5
    endloop
  endfacet
  facet normal 0 0 1
    outer loop
      vertex 98 69 1.5
      vertex 88 79 1.5
      vertex 65.78 62.5 1.5
    endloop
  endfacet
  facet normal 0 0 1
    outer loop
      vertex 89.9509 0.192146 1.5
      vertex 88 0 1.5
      vertex 89.3053 0.0855513 1.5
    endloop
  endfacet
  facet normal 0 0 1
    outer loop
      vertex 98 69 1.5
      vertex 65.78 62.5 1.5
      vertex 65.78 26.5 1.5
    endloop
  endfacet
  facet normal 0 0 1
    outer loop
      vertex 88 79 1.5
      vertex 35.78 62.5 1.5
      vertex 65.78 62.5 1.5
    endloop
  endfacet
  facet normal -0 0 1
    outer loop
      vertex 0 69 1.5
      vertex 35.78 62.5 1.5
      vertex 10 79 1.5
    endloop
  endfacet
  facet normal -0 0 1
    outer loop
      vertex 10 79 1.5
      vertex 35.78 62.5 1.5
      vertex 88 79 1.5
    endloop
  endfacet
  facet normal 0 0 1
    outer loop
      vertex 89.3053 0.0855513 1.5
      vertex 88 0 1.5
      vertex 88.654 0.02141 1.5
    endloop
  endfacet
  facet normal -0 0 1
    outer loop
      vertex 35.78 26.5 1.5
      vertex 88 0 1.5
      vertex 65.78 26.5 1.5
    endloop
  endfacet
  facet normal 0 0 1
    outer loop
      vertex 35.78 26.5 1.5
      vertex 10 0 1.5
      vertex 88 0 1.5
    endloop
  endfacet
  facet normal 0 0 1
    outer loop
      vertex 35.78 62.5 1.5
      vertex 0 69 1.5
      vertex 35.78 26.5 1.5
    endloop
  endfacet
  facet normal 0 0 1
    outer loop
      vertex 0 69 1.5
      vertex 10 79 1.5
      vertex 9.34597 78.9786 1.5
    endloop
  endfacet
  facet normal 0 0 1
    outer loop
      vertex 0 10 1.5
      vertex 35.78 26.5 1.5
      vertex 0 69 1.5
    endloop
  endfacet
  facet normal 0 0 1
    outer loop
      vertex 0 69 1.5
      vertex 9.34597 78.9786 1.5
      vertex 8.69474 78.9144 1.5
    endloop
  endfacet
  facet normal 0 0 1
    outer loop
      vertex 35.78 26.5 1.5
      vertex 0 10 1.5
      vertex 10 0 1.5
    endloop
  endfacet
  facet normal 0 0 1
    outer loop
      vertex 0 69 1.5
      vertex 8.69474 78.9144 1.5
      vertex 8.0491 78.8079 1.5
    endloop
  endfacet
  facet normal 0 0 1
    outer loop
      vertex 10 0 1.5
      vertex 0 10 1.5
      vertex 9.34597 0.02141 1.5
    endloop
  endfacet
  facet normal 0 0 1
    outer loop
      vertex 0 69 1.5
      vertex 8.0491 78.8079 1.5
      vertex 7.41181 78.6593 1.5
    endloop
  endfacet
  facet normal 0 0 1
    outer loop
      vertex 9.34597 0.02141 1.5
      vertex 0 10 1.5
      vertex 8.69474 0.0855513 1.5
    endloop
  endfacet
  facet normal 0 0 1
    outer loop
      vertex 0 69 1.5
      vertex 7.41181 78.6593 1.5
      vertex 6.7856 78.4693 1.5
    endloop
  endfacet
  facet normal 0 0 1
    outer loop
      vertex 8.69474 0.0855513 1.5
      vertex 0 10 1.5
      vertex 8.0491 0.192146 1.5
    endloop
  endfacet
  facet normal 0 0 1
    outer loop
      vertex 0 69 1.5
      vertex 6.7856 78.4693 1.5
      vertex 6.17317 78.2388 1.5
    endloop
  endfacet
  facet normal 0 0 1
    outer loop
      vertex 8.0491 0.192146 1.5
      vertex 0 10 1.5
      vertex 7.41181 0.340741 1.5
    endloop
  endfacet
  facet normal 0 0 1
    outer loop
      vertex 0 69 1.5
      vertex 6.17317 78.2388 1.5
      vertex 5.57711 77.9687 1.5
    endloop
  endfacet
  facet normal 0 0 1
    outer loop
      vertex 7.41181 0.340741 1.5
      vertex 0 10 1.5
      vertex 6.7856 0.530698 1.5
    endloop
  endfacet
  facet normal 0 0 1
    outer loop
      vertex 0 69 1.5
      vertex 5.57711 77.9687 1.5
      vertex 5 77.6603 1.5
    endloop
  endfacet
  facet normal 0 0 1
    outer loop
      vertex 6.7856 0.530698 1.5
      vertex 0 10 1.5
      vertex 6.17317 0.761204 1.5
    endloop
  endfacet
  facet normal 0 0 1
    outer loop
      vertex 0 69 1.5
      vertex 5 77.6603 1.5
      vertex 4.4443 77.3147 1.5
    endloop
  endfacet
  facet normal 0 0 1
    outer loop
      vertex 6.17317 0.761204 1.5
      vertex 0 10 1.5
      vertex 5.57711 1.03127 1.5
    endloop
  endfacet
  facet normal 0 0 1
    outer loop
      vertex 0 69 1.5
      vertex 4.4443 77.3147 1.5
      vertex 3.91238 76.9335 1.5
    endloop
  endfacet
  facet normal 0 0 1
    outer loop
      vertex 5.57711 1.03127 1.5
      vertex 0 10 1.5
      vertex 5 1.33975 1.5
    endloop
  endfacet
  facet normal 0 0 1
    outer loop
      vertex 0 69 1.5
      vertex 3.91238 76.9335 1.5
      vertex 3.40654 76.5184 1.5
    endloop
  endfacet
  facet normal 0 0 1
    outer loop
      vertex 5 1.33975 1.5
      vertex 0 10 1.5
      vertex 4.4443 1.6853 1.5
    endloop
  endfacet
  facet normal 0 0 1
    outer loop
      vertex 0 69 1.5
      vertex 3.40654 76.5184 1.5
      vertex 2.92893 76.0711 1.5
    endloop
  endfacet
  facet normal 0 0 1
    outer loop
      vertex 4.4443 1.6853 1.5
      vertex 0 10 1.5
      vertex 3.91238 2.06647 1.5
    endloop
  endfacet
  facet normal 0 0 1
    outer loop
      vertex 0 69 1.5
      vertex 2.92893 76.0711 1.5
      vertex 2.4816 75.5935 1.5
    endloop
  endfacet
  facet normal 0 0 1
    outer loop
      vertex 3.91238 2.06647 1.5
      vertex 0 10 1.5
      vertex 3.40654 2.4816 1.5
    endloop
  endfacet
  facet normal 0 0 1
    outer loop
      vertex 0 69 1.5
      vertex 2.4816 75.5935 1.5
      vertex 2.06647 75.0876 1.5
    endloop
  endfacet
  facet normal 0 0 1
    outer loop
      vertex 3.40654 2.4816 1.5
      vertex 0 10 1.5
      vertex 2.92893 2.92893 1.5
    endloop
  endfacet
  facet normal 0 0 1
    outer loop
      vertex 0 69 1.5
      vertex 2.06647 75.0876 1.5
      vertex 1.6853 74.5557 1.5
    endloop
  endfacet
  facet normal 0 0 1
    outer loop
      vertex 2.92893 2.92893 1.5
      vertex 0 10 1.5
      vertex 2.4816 3.40654 1.5
    endloop
  endfacet
  facet normal 0 0 1
    outer loop
      vertex 0 69 1.5
      vertex 1.6853 74.5557 1.5
      vertex 1.33975 74 1.5
    endloop
  endfacet
  facet normal 0 0 1
    outer loop
      vertex 2.4816 3.40654 1.5
      vertex 0 10 1.5
      vertex 2.06647 3.91238 1.5
    endloop
  endfacet
  facet normal 0 0 1
    outer loop
      vertex 0 69 1.5
      vertex 1.33975 74 1.5
      vertex 1.03127 73.4229 1.5
    endloop
  endfacet
  facet normal 0 0 1
    outer loop
      vertex 2.06647 3.91238 1.5
      vertex 0 10 1.5
      vertex 1.6853 4.4443 1.5
    endloop
  endfacet
  facet normal 0 0 1
    outer loop
      vertex 0 69 1.5
      vertex 1.03127 73.4229 1.5
      vertex 0.761204 72.8268 1.5
    endloop
  endfacet
  facet normal 0 0 1
    outer loop
      vertex 1.6853 4.4443 1.5
      vertex 0 10 1.5
      vertex 1.33975 5 1.5
    endloop
  endfacet
  facet normal 0 0 1
    outer loop
      vertex 0 69 1.5
      vertex 0.761204 72.8268 1.5
      vertex 0.530698 72.2144 1.5
    endloop
  endfacet
  facet normal 0 0 1
    outer loop
      vertex 1.33975 5 1.5
      vertex 0 10 1.5
      vertex 1.03127 5.57711 1.5
    endloop
  endfacet
  facet normal 0 0 1
    outer loop
      vertex 0 69 1.5
      vertex 0.530698 72.2144 1.5
      vertex 0.340741 71.5882 1.5
    endloop
  endfacet
  facet normal 0 0 1
    outer loop
      vertex 1.03127 5.57711 1.5
      vertex 0 10 1.5
      vertex 0.761204 6.17317 1.5
    endloop
  endfacet
  facet normal 0 0 1
    outer loop
      vertex 0 69 1.5
      vertex 0.340741 71.5882 1.5
      vertex 0.192146 70.9509 1.5
    endloop
  endfacet
  facet normal 0 0 1
    outer loop
      vertex 0.761204 6.17317 1.5
      vertex 0 10 1.5
      vertex 0.530698 6.7856 1.5
    endloop
  endfacet
  facet normal 0 0 1
    outer loop
      vertex 0 69 1.5
      vertex 0.192146 70.9509 1.5
      vertex 0.0855513 70.3053 1.5
    endloop
  endfacet
  facet normal 0 0 1
    outer loop
      vertex 0.530698 6.7856 1.5
      vertex 0 10 1.5
      vertex 0.340741 7.41181 1.5
    endloop
  endfacet
  facet normal 0 0 1
    outer loop
      vertex 0 69 1.5
      vertex 0.0855513 70.3053 1.5
      vertex 0.02141 69.654 1.5
    endloop
  endfacet
  facet normal 0 0 1
    outer loop
      vertex 0.340741 7.41181 1.5
      vertex 0 10 1.5
      vertex 0.192146 8.0491 1.5
    endloop
  endfacet
  facet normal 0 0 1
    outer loop
      vertex 0.192146 8.0491 1.5
      vertex 0 10 1.5
      vertex 0.0855513 8.69474 1.5
    endloop
  endfacet
  facet normal 0 0 1
    outer loop
      vertex 0.0855513 8.69474 1.5
      vertex 0 10 1.5
      vertex 0.02141 9.34597 1.5
    endloop
  endfacet
  facet normal -1 0 0
    outer loop
      vertex 64.78 27.5 1.1
      vertex 64.78 61.5 1.1
      vertex 64.78 61.5 0
    endloop
  endfacet
  facet normal -1 0 0
    outer loop
      vertex 64.78 27.5 1.1
      vertex 64.78 61.5 0
      vertex 64.78 27.5 0
    endloop
  endfacet
  facet normal -1 0 0
    outer loop
      vertex 64.78 61.5 1.1
      vertex 64.78 27.5 1.1
      vertex 64.78 61.5 1.5
    endloop
  endfacet
  facet normal -1 -0 0
    outer loop
      vertex 64.78 61.5 1.5
      vertex 64.78 27.5 1.1
      vertex 64.78 27.5 1.5
    endloop
  endfacet
  facet normal 1 -0 0
    outer loop
      vertex 36.78 27.5 1.1
      vertex 36.78 61.5 0
      vertex 36.78 61.5 1.1
    endloop
  endfacet
  facet normal 1 0 0
    outer loop
      vertex 36.78 61.5 0
      vertex 36.78 27.5 1.1
      vertex 36.78 27.5 0
    endloop
  endfacet
  facet normal 1 -0 0
    outer loop
      vertex 7.9 4.1 -4.5
      vertex 7.9 7.9 -5
      vertex 7.9 7.9 -4.5
    endloop
  endfacet
  facet normal 1 0 0
    outer loop
      vertex 7.9 7.9 -5
      vertex 7.9 4.1 -4.5
      vertex 7.9 4.1 -5
    endloop
  endfacet
  facet normal 1 -0 0
    outer loop
      vertex 7.9 4.1 0
      vertex 7.9 7.9 -3.9
      vertex 7.9 7.9 0
    endloop
  endfacet
  facet normal 1 0 0
    outer loop
      vertex 7.9 7.9 -3.9
      vertex 7.9 4.1 0
      vertex 7.9 4.1 -3.9
    endloop
  endfacet
  facet normal 0 0 -1
    outer loop
      vertex 4.1 4.1 -5
      vertex 7.9 7.9 -5
      vertex 7.9 4.1 -5
    endloop
  endfacet
  facet normal -0 0 -1
    outer loop
      vertex 7.9 7.9 -5
      vertex 4.1 4.1 -5
      vertex 4.1 7.9 -5
    endloop
  endfacet
  facet normal -1 0 0
    outer loop
      vertex 4.1 4.1 -5
      vertex 4.1 7.9 0
      vertex 4.1 7.9 -5
    endloop
  endfacet
  facet normal -1 -0 0
    outer loop
      vertex 4.1 7.9 0
      vertex 4.1 4.1 -5
      vertex 4.1 4.1 0
    endloop
  endfacet
  facet normal 0 1 0
    outer loop
      vertex 8.3 7.9 -3.9
      vertex 8.3 7.9 -4.5
      vertex 7.9 7.9 -3.9
    endloop
  endfacet
  facet normal 0 1 -0
    outer loop
      vertex 7.9 7.9 -3.9
      vertex 4.1 7.9 0
      vertex 7.9 7.9 0
    endloop
  endfacet
  facet normal 0 1 0
    outer loop
      vertex 7.9 7.9 -4.5
      vertex 7.9 7.9 -3.9
      vertex 8.3 7.9 -4.5
    endloop
  endfacet
  facet normal 0 1 0
    outer loop
      vertex 4.1 7.9 -5
      vertex 7.9 7.9 -3.9
      vertex 7.9 7.9 -4.5
    endloop
  endfacet
  facet normal 0 1 0
    outer loop
      vertex 4.1 7.9 -5
      vertex 7.9 7.9 -4.5
      vertex 7.9 7.9 -5
    endloop
  endfacet
  facet normal 0 1 0
    outer loop
      vertex 7.9 7.9 -3.9
      vertex 4.1 7.9 -5
      vertex 4.1 7.9 0
    endloop
  endfacet
  facet normal 0 -1 0
    outer loop
      vertex 4.1 4.1 0
      vertex 7.9 4.1 -3.9
      vertex 7.9 4.1 0
    endloop
  endfacet
  facet normal 0 -1 0
    outer loop
      vertex 7.9 4.1 -3.9
      vertex 7.9 4.1 -4.5
      vertex 8.3 4.1 -3.9
    endloop
  endfacet
  facet normal 0 -1 0
    outer loop
      vertex 4.1 4.1 -5
      vertex 7.9 4.1 -3.9
      vertex 4.1 4.1 0
    endloop
  endfacet
  facet normal 0 -1 -0
    outer loop
      vertex 7.9 4.1 -3.9
      vertex 4.1 4.1 -5
      vertex 7.9 4.1 -4.5
    endloop
  endfacet
  facet normal 0 -1 -0
    outer loop
      vertex 7.9 4.1 -4.5
      vertex 4.1 4.1 -5
      vertex 7.9 4.1 -5
    endloop
  endfacet
  facet normal 0 -1 -0
    outer loop
      vertex 8.3 4.1 -3.9
      vertex 7.9 4.1 -4.5
      vertex 8.3 4.1 -4.5
    endloop
  endfacet
  facet normal 1 -0 0
    outer loop
      vertex 8.3 4.1 -3.9
      vertex 8.3 7.9 -4.5
      vertex 8.3 7.9 -3.9
    endloop
  endfacet
  facet normal 1 0 0
    outer loop
      vertex 8.3 7.9 -4.5
      vertex 8.3 4.1 -3.9
      vertex 8.3 4.1 -4.5
    endloop
  endfacet
  facet normal -0 0 1
    outer loop
      vertex 7.9 7.9 -3.9
      vertex 8.3 4.1 -3.9
      vertex 8.3 7.9 -3.9
    endloop
  endfacet
  facet normal 0 0 1
    outer loop
      vertex 8.3 4.1 -3.9
      vertex 7.9 7.9 -3.9
      vertex 7.9 4.1 -3.9
    endloop
  endfacet
  facet normal 0 0 -1
    outer loop
      vertex 7.9 4.1 -4.5
      vertex 8.3 7.9 -4.5
      vertex 8.3 4.1 -4.5
    endloop
  endfacet
  facet normal -0 0 -1
    outer loop
      vertex 8.3 7.9 -4.5
      vertex 7.9 4.1 -4.5
      vertex 7.9 7.9 -4.5
    endloop
  endfacet
  facet normal 1 -0 0
    outer loop
      vertex 93.9 4.1 0
      vertex 93.9 7.9 -5
      vertex 93.9 7.9 0
    endloop
  endfacet
  facet normal 1 0 0
    outer loop
      vertex 93.9 7.9 -5
      vertex 93.9 4.1 0
      vertex 93.9 4.1 -5
    endloop
  endfacet
  facet normal 0 0 -1
    outer loop
      vertex 90.1 4.1 -5
      vertex 93.9 7.9 -5
      vertex 93.9 4.1 -5
    endloop
  endfacet
  facet normal -0 0 -1
    outer loop
      vertex 93.9 7.9 -5
      vertex 90.1 4.1 -5
      vertex 90.1 7.9 -5
    endloop
  endfacet
  facet normal -1 0 0
    outer loop
      vertex 90.1 4.1 -5
      vertex 90.1 7.9 -4.5
      vertex 90.1 7.9 -5
    endloop
  endfacet
  facet normal -1 -0 0
    outer loop
      vertex 90.1 7.9 -4.5
      vertex 90.1 4.1 -5
      vertex 90.1 4.1 -4.5
    endloop
  endfacet
  facet normal -1 0 0
    outer loop
      vertex 90.1 4.1 -3.9
      vertex 90.1 7.9 0
      vertex 90.1 7.9 -3.9
    endloop
  endfacet
  facet normal -1 -0 0
    outer loop
      vertex 90.1 7.9 0
      vertex 90.1 4.1 -3.9
      vertex 90.1 4.1 0
    endloop
  endfacet
  facet normal 0 1 0
    outer loop
      vertex 93.9 7.9 0
      vertex 90.1 7.9 -3.9
      vertex 90.1 7.9 0
    endloop
  endfacet
  facet normal 0 1 0
    outer loop
      vertex 90.1 7.9 -3.9
      vertex 90.1 7.9 -4.5
      vertex 89.7 7.9 -3.9
    endloop
  endfacet
  facet normal 0 1 -0
    outer loop
      vertex 93.9 7.9 -5
      vertex 90.1 7.9 -3.9
      vertex 93.9 7.9 0
    endloop
  endfacet
  facet normal 0 1 0
    outer loop
      vertex 90.1 7.9 -3.9
      vertex 93.9 7.9 -5
      vertex 90.1 7.9 -4.5
    endloop
  endfacet
  facet normal 0 1 0
    outer loop
      vertex 90.1 7.9 -4.5
      vertex 93.9 7.9 -5
      vertex 90.1 7.9 -5
    endloop
  endfacet
  facet normal 0 1 0
    outer loop
      vertex 89.7 7.9 -3.9
      vertex 90.1 7.9 -4.5
      vertex 89.7 7.9 -4.5
    endloop
  endfacet
  facet normal 0 -1 0
    outer loop
      vertex 89.7 4.1 -3.9
      vertex 89.7 4.1 -4.5
      vertex 90.1 4.1 -3.9
    endloop
  endfacet
  facet normal 0 -1 0
    outer loop
      vertex 90.1 4.1 -3.9
      vertex 93.9 4.1 0
      vertex 90.1 4.1 0
    endloop
  endfacet
  facet normal 0 -1 0
    outer loop
      vertex 90.1 4.1 -4.5
      vertex 90.1 4.1 -3.9
      vertex 89.7 4.1 -4.5
    endloop
  endfacet
  facet normal 0 -1 0
    outer loop
      vertex 93.9 4.1 -5
      vertex 90.1 4.1 -3.9
      vertex 90.1 4.1 -4.5
    endloop
  endfacet
  facet normal 0 -1 0
    outer loop
      vertex 93.9 4.1 -5
      vertex 90.1 4.1 -4.5
      vertex 90.1 4.1 -5
    endloop
  endfacet
  facet normal 0 -1 0
    outer loop
      vertex 90.1 4.1 -3.9
      vertex 93.9 4.1 -5
      vertex 93.9 4.1 0
    endloop
  endfacet
  facet normal -0 0 1
    outer loop
      vertex 89.7 7.9 -3.9
      vertex 90.1 4.1 -3.9
      vertex 90.1 7.9 -3.9
    endloop
  endfacet
  facet normal 0 0 1
    outer loop
      vertex 90.1 4.1 -3.9
      vertex 89.7 7.9 -3.9
      vertex 89.7 4.1 -3.9
    endloop
  endfacet
  facet normal 0 0 -1
    outer loop
      vertex 89.7 4.1 -4.5
      vertex 90.1 7.9 -4.5
      vertex 90.1 4.1 -4.5
    endloop
  endfacet
  facet normal -0 0 -1
    outer loop
      vertex 90.1 7.9 -4.5
      vertex 89.7 4.1 -4.5
      vertex 89.7 7.9 -4.5
    endloop
  endfacet
  facet normal -1 0 0
    outer loop
      vertex 89.7 4.1 -4.5
      vertex 89.7 7.9 -3.9
      vertex 89.7 7.9 -4.5
    endloop
  endfacet
  facet normal -1 -0 0
    outer loop
      vertex 89.7 7.9 -3.9
      vertex 89.7 4.1 -4.5
      vertex 89.7 4.1 -3.9
    endloop
  endfacet
  facet normal 1 -0 0
    outer loop
      vertex 7.9 71.1 -4.5
      vertex 7.9 74.9 -5
      vertex 7.9 74.9 -4.5
    endloop
  endfacet
  facet normal 1 0 0
    outer loop
      vertex 7.9 74.9 -5
      vertex 7.9 71.1 -4.5
      vertex 7.9 71.1 -5
    endloop
  endfacet
  facet normal 1 -0 0
    outer loop
      vertex 7.9 71.1 0
      vertex 7.9 74.9 -3.9
      vertex 7.9 74.9 0
    endloop
  endfacet
  facet normal 1 0 0
    outer loop
      vertex 7.9 74.9 -3.9
      vertex 7.9 71.1 0
      vertex 7.9 71.1 -3.9
    endloop
  endfacet
  facet normal 0 0 -1
    outer loop
      vertex 4.1 71.1 -5
      vertex 7.9 74.9 -5
      vertex 7.9 71.1 -5
    endloop
  endfacet
  facet normal -0 0 -1
    outer loop
      vertex 7.9 74.9 -5
      vertex 4.1 71.1 -5
      vertex 4.1 74.9 -5
    endloop
  endfacet
  facet normal -1 0 0
    outer loop
      vertex 4.1 71.1 -5
      vertex 4.1 74.9 0
      vertex 4.1 74.9 -5
    endloop
  endfacet
  facet normal -1 -0 0
    outer loop
      vertex 4.1 74.9 0
      vertex 4.1 71.1 -5
      vertex 4.1 71.1 0
    endloop
  endfacet
  facet normal 0 1 0
    outer loop
      vertex 8.3 74.9 -3.9
      vertex 8.3 74.9 -4.5
      vertex 7.9 74.9 -3.9
    endloop
  endfacet
  facet normal 0 1 -0
    outer loop
      vertex 7.9 74.9 -3.9
      vertex 4.1 74.9 0
      vertex 7.9 74.9 0
    endloop
  endfacet
  facet normal 0 1 0
    outer loop
      vertex 7.9 74.9 -4.5
      vertex 7.9 74.9 -3.9
      vertex 8.3 74.9 -4.5
    endloop
  endfacet
  facet normal 0 1 0
    outer loop
      vertex 4.1 74.9 -5
      vertex 7.9 74.9 -3.9
      vertex 7.9 74.9 -4.5
    endloop
  endfacet
  facet normal 0 1 0
    outer loop
      vertex 4.1 74.9 -5
      vertex 7.9 74.9 -4.5
      vertex 7.9 74.9 -5
    endloop
  endfacet
  facet normal 0 1 0
    outer loop
      vertex 7.9 74.9 -3.9
      vertex 4.1 74.9 -5
      vertex 4.1 74.9 0
    endloop
  endfacet
  facet normal 0 -1 0
    outer loop
      vertex 4.1 71.1 0
      vertex 7.9 71.1 -3.9
      vertex 7.9 71.1 0
    endloop
  endfacet
  facet normal 0 -1 0
    outer loop
      vertex 7.9 71.1 -3.9
      vertex 7.9 71.1 -4.5
      vertex 8.3 71.1 -3.9
    endloop
  endfacet
  facet normal 0 -1 0
    outer loop
      vertex 4.1 71.1 -5
      vertex 7.9 71.1 -3.9
      vertex 4.1 71.1 0
    endloop
  endfacet
  facet normal 0 -1 -0
    outer loop
      vertex 7.9 71.1 -3.9
      vertex 4.1 71.1 -5
      vertex 7.9 71.1 -4.5
    endloop
  endfacet
  facet normal 0 -1 -0
    outer loop
      vertex 7.9 71.1 -4.5
      vertex 4.1 71.1 -5
      vertex 7.9 71.1 -5
    endloop
  endfacet
  facet normal 0 -1 -0
    outer loop
      vertex 8.3 71.1 -3.9
      vertex 7.9 71.1 -4.5
      vertex 8.3 71.1 -4.5
    endloop
  endfacet
  facet normal 1 -0 0
    outer loop
      vertex 8.3 71.1 -3.9
      vertex 8.3 74.9 -4.5
      vertex 8.3 74.9 -3.9
    endloop
  endfacet
  facet normal 1 0 0
    outer loop
      vertex 8.3 74.9 -4.5
      vertex 8.3 71.1 -3.9
      vertex 8.3 71.1 -4.5
    endloop
  endfacet
  facet normal -0 0 1
    outer loop
      vertex 7.9 74.9 -3.9
      vertex 8.3 71.1 -3.9
      vertex 8.3 74.9 -3.9
    endloop
  endfacet
  facet normal 0 0 1
    outer loop
      vertex 8.3 71.1 -3.9
      vertex 7.9 74.9 -3.9
      vertex 7.9 71.1 -3.9
    endloop
  endfacet
  facet normal 0 0 -1
    outer loop
      vertex 7.9 71.1 -4.5
      vertex 8.3 74.9 -4.5
      vertex 8.3 71.1 -4.5
    endloop
  endfacet
  facet normal -0 0 -1
    outer loop
      vertex 8.3 74.9 -4.5
      vertex 7.9 71.1 -4.5
      vertex 7.9 74.9 -4.5
    endloop
  endfacet
  facet normal 1 -0 0
    outer loop
      vertex 93.9 71.1 0
      vertex 93.9 74.9 -5
      vertex 93.9 74.9 0
    endloop
  endfacet
  facet normal 1 0 0
    outer loop
      vertex 93.9 74.9 -5
      vertex 93.9 71.1 0
      vertex 93.9 71.1 -5
    endloop
  endfacet
  facet normal 0 0 -1
    outer loop
      vertex 90.1 71.1 -5
      vertex 93.9 74.9 -5
      vertex 93.9 71.1 -5
    endloop
  endfacet
  facet normal -0 0 -1
    outer loop
      vertex 93.9 74.9 -5
      vertex 90.1 71.1 -5
      vertex 90.1 74.9 -5
    endloop
  endfacet
  facet normal -1 0 0
    outer loop
      vertex 90.1 71.1 -5
      vertex 90.1 74.9 -4.5
      vertex 90.1 74.9 -5
    endloop
  endfacet
  facet normal -1 -0 0
    outer loop
      vertex 90.1 74.9 -4.5
      vertex 90.1 71.1 -5
      vertex 90.1 71.1 -4.5
    endloop
  endfacet
  facet normal -1 0 0
    outer loop
      vertex 90.1 71.1 -3.9
      vertex 90.1 74.9 0
      vertex 90.1 74.9 -3.9
    endloop
  endfacet
  facet normal -1 -0 0
    outer loop
      vertex 90.1 74.9 0
      vertex 90.1 71.1 -3.9
      vertex 90.1 71.1 0
    endloop
  endfacet
  facet normal 0 1 0
    outer loop
      vertex 93.9 74.9 0
      vertex 90.1 74.9 -3.9
      vertex 90.1 74.9 0
    endloop
  endfacet
  facet normal 0 1 0
    outer loop
      vertex 90.1 74.9 -3.9
      vertex 90.1 74.9 -4.5
      vertex 89.7 74.9 -3.9
    endloop
  endfacet
  facet normal 0 1 -0
    outer loop
      vertex 93.9 74.9 -5
      vertex 90.1 74.9 -3.9
      vertex 93.9 74.9 0
    endloop
  endfacet
  facet normal 0 1 0
    outer loop
      vertex 90.1 74.9 -3.9
      vertex 93.9 74.9 -5
      vertex 90.1 74.9 -4.5
    endloop
  endfacet
  facet normal 0 1 0
    outer loop
      vertex 90.1 74.9 -4.5
      vertex 93.9 74.9 -5
      vertex 90.1 74.9 -5
    endloop
  endfacet
  facet normal 0 1 0
    outer loop
      vertex 89.7 74.9 -3.9
      vertex 90.1 74.9 -4.5
      vertex 89.7 74.9 -4.5
    endloop
  endfacet
  facet normal 0 -1 0
    outer loop
      vertex 89.7 71.1 -3.9
      vertex 89.7 71.1 -4.5
      vertex 90.1 71.1 -3.9
    endloop
  endfacet
  facet normal 0 -1 0
    outer loop
      vertex 90.1 71.1 -3.9
      vertex 93.9 71.1 0
      vertex 90.1 71.1 0
    endloop
  endfacet
  facet normal 0 -1 0
    outer loop
      vertex 90.1 71.1 -4.5
      vertex 90.1 71.1 -3.9
      vertex 89.7 71.1 -4.5
    endloop
  endfacet
  facet normal 0 -1 0
    outer loop
      vertex 93.9 71.1 -5
      vertex 90.1 71.1 -3.9
      vertex 90.1 71.1 -4.5
    endloop
  endfacet
  facet normal 0 -1 0
    outer loop
      vertex 93.9 71.1 -5
      vertex 90.1 71.1 -4.5
      vertex 90.1 71.1 -5
    endloop
  endfacet
  facet normal 0 -1 0
    outer loop
      vertex 90.1 71.1 -3.9
      vertex 93.9 71.1 -5
      vertex 93.9 71.1 0
    endloop
  endfacet
  facet normal -0 0 1
    outer loop
      vertex 89.7 74.9 -3.9
      vertex 90.1 71.1 -3.9
      vertex 90.1 74.9 -3.9
    endloop
  endfacet
  facet normal 0 0 1
    outer loop
      vertex 90.1 71.1 -3.9
      vertex 89.7 74.9 -3.9
      vertex 89.7 71.1 -3.9
    endloop
  endfacet
  facet normal 0 0 -1
    outer loop
      vertex 89.7 71.1 -4.5
      vertex 90.1 74.9 -4.5
      vertex 90.1 71.1 -4.5
    endloop
  endfacet
  facet normal -0 0 -1
    outer loop
      vertex 90.1 74.9 -4.5
      vertex 89.7 71.1 -4.5
      vertex 89.7 74.9 -4.5
    endloop
  endfacet
  facet normal -1 0 0
    outer loop
      vertex 89.7 71.1 -4.5
      vertex 89.7 74.9 -3.9
      vertex 89.7 74.9 -4.5
    endloop
  endfacet
  facet normal -1 -0 0
    outer loop
      vertex 89.7 74.9 -3.9
      vertex 89.7 71.1 -4.5
      vertex 89.7 71.1 -3.9
    endloop
  endfacet
endsolid OpenSCAD_Model
