%TF.GenerationSoftware,KiCad,Pcbnew,10.0.3-2.fc44*%
%TF.CreationDate,2026-05-25T14:44:46-04:00*%
%TF.ProjectId,SupaClock_Carrier,53757061-436c-46f6-936b-5f4361727269,v1.0*%
%TF.SameCoordinates,Original*%
%TF.FileFunction,Copper,L2,Bot*%
%TF.FilePolarity,Positive*%
%FSLAX46Y46*%
G04 Gerber Fmt 4.6, Leading zero omitted, Abs format (unit mm)*
G04 Created by KiCad (PCBNEW 10.0.3-2.fc44) date 2026-05-25 14:44:46*
%MOMM*%
%LPD*%
G01*
G04 APERTURE LIST*
G04 Aperture macros list*
%AMRoundRect*
0 Rectangle with rounded corners*
0 $1 Rounding radius*
0 $2 $3 $4 $5 $6 $7 $8 $9 X,Y pos of 4 corners*
0 Add a 4 corners polygon primitive as box body*
4,1,4,$2,$3,$4,$5,$6,$7,$8,$9,$2,$3,0*
0 Add four circle primitives for the rounded corners*
1,1,$1+$1,$2,$3*
1,1,$1+$1,$4,$5*
1,1,$1+$1,$6,$7*
1,1,$1+$1,$8,$9*
0 Add four rect primitives between the rounded corners*
20,1,$1+$1,$2,$3,$4,$5,0*
20,1,$1+$1,$4,$5,$6,$7,0*
20,1,$1+$1,$6,$7,$8,$9,0*
20,1,$1+$1,$8,$9,$2,$3,0*%
G04 Aperture macros list end*
%TA.AperFunction,ComponentPad*%
%ADD10C,2.200000*%
%TD*%
%TA.AperFunction,ComponentPad*%
%ADD11C,1.600000*%
%TD*%
%TA.AperFunction,ComponentPad*%
%ADD12C,6.000000*%
%TD*%
%TA.AperFunction,ComponentPad*%
%ADD13RoundRect,0.250000X0.550000X-0.550000X0.550000X0.550000X-0.550000X0.550000X-0.550000X-0.550000X0*%
%TD*%
%TA.AperFunction,ComponentPad*%
%ADD14C,2.089000*%
%TD*%
%TA.AperFunction,SMDPad,CuDef*%
%ADD15R,2.000000X1.200000*%
%TD*%
%TA.AperFunction,SMDPad,CuDef*%
%ADD16R,1.200000X2.000000*%
%TD*%
%TA.AperFunction,ViaPad*%
%ADD17C,1.800000*%
%TD*%
%TA.AperFunction,Conductor*%
%ADD18C,0.400000*%
%TD*%
%TA.AperFunction,Conductor*%
%ADD19C,0.600000*%
%TD*%
G04 APERTURE END LIST*
D10*
%TO.P,J11,1,Pin_1_1*%
%TO.N,/GND*%
X91934575Y-70434575D03*
%TO.P,J11,2,Pin_2_2*%
%TO.N,/+3V3*%
X91934575Y-67894575D03*
%TO.P,J11,3,Pin_3_3*%
%TO.N,/ECG_OUT*%
X91934575Y-65354575D03*
%TO.P,J11,4,Pin_4_4*%
%TO.N,unconnected-(J11-Pin_4-Pad4)*%
X91934575Y-62814575D03*
%TO.P,J11,5,Pin_5_5*%
%TO.N,unconnected-(J11-Pin_5-Pad5)*%
X91934575Y-60274575D03*
%TO.P,J11,6,Pin_6_6*%
%TO.N,/ECG_SDN*%
X91934575Y-57734575D03*
%TD*%
D11*
%TO.P,C6,1*%
%TO.N,/SPI_RES*%
X102409575Y-39409575D03*
%TO.P,C6,2*%
%TO.N,/GND*%
X97409575Y-39409575D03*
%TD*%
%TO.P,R5,1*%
%TO.N,/+3V3*%
X116409575Y-39409575D03*
%TO.P,R5,2*%
%TO.N,/SPI_RES*%
X108789575Y-39409575D03*
%TD*%
D10*
%TO.P,J13,1,Pin_1_1*%
%TO.N,/ECG_RA*%
X77934575Y-80434575D03*
%TO.P,J13,2,Pin_2_2*%
%TO.N,/ECG_LA*%
X75394575Y-80434575D03*
%TO.P,J13,3,Pin_3_3*%
%TO.N,/ECG_RL*%
X72854575Y-80434575D03*
%TD*%
%TO.P,J5,1,Pin_1_1*%
%TO.N,/+3V3*%
X128384575Y-77509575D03*
%TO.P,J5,2,Pin_2_2*%
%TO.N,unconnected-(J5-Pin_2-Pad2)*%
X128384575Y-74969575D03*
%TO.P,J5,3,Pin_3_3*%
%TO.N,/GND*%
X128384575Y-72429575D03*
%TO.P,J5,4,Pin_4_4*%
%TO.N,/I2C_SCL*%
X128384575Y-69889575D03*
%TO.P,J5,5,Pin_5_5*%
%TO.N,/I2C_SDA*%
X128384575Y-67349575D03*
%TO.P,J5,6,Pin_6_6*%
%TO.N,/+3V3*%
X128384575Y-64809575D03*
%TO.P,J5,7,Pin_7_7*%
%TO.N,/GND*%
X128384575Y-62269575D03*
%TD*%
%TO.P,J6a1,1,Pin_1_1*%
%TO.N,unconnected-(J6a1-Pin_1-Pad1)*%
X81434575Y-41659575D03*
%TO.P,J6a1,2,Pin_2_2*%
%TO.N,/GND*%
X83974575Y-41659575D03*
%TO.P,J6a1,3,Pin_3_3*%
%TO.N,unconnected-(J6a1-Pin_3-Pad3)*%
X86514575Y-41659575D03*
%TD*%
D12*
%TO.P,J12_RA1,1,Pin_1_1*%
%TO.N,/ECG_RA*%
X107500000Y-84000000D03*
%TD*%
D10*
%TO.P,J6b1,1,Pin_1_1*%
%TO.N,/I2C_SDA*%
X81409575Y-33634575D03*
%TO.P,J6b1,2,Pin_2_2*%
%TO.N,/I2C_SCL*%
X83949575Y-33634575D03*
%TO.P,J6b1,3,Pin_3_3*%
%TO.N,unconnected-(J6b1-Pin_3-Pad3)*%
X86489575Y-33634575D03*
%TD*%
D13*
%TO.P,C2,1*%
%TO.N,/+BATT*%
X126409575Y-26909575D03*
D11*
%TO.P,C2,2*%
%TO.N,/GND*%
X126409575Y-24409575D03*
%TD*%
D10*
%TO.P,J7,1,Pin_1_1*%
%TO.N,/BLK_PWM*%
X118189575Y-34409575D03*
%TO.P,J7,2,Pin_2_2*%
%TO.N,/SPI_CS*%
X115649575Y-34409575D03*
%TO.P,J7,3,Pin_3_3*%
%TO.N,/SPI_DC*%
X113109575Y-34409575D03*
%TO.P,J7,4,Pin_4_4*%
%TO.N,/SPI_RES*%
X110569575Y-34409575D03*
%TO.P,J7,5,Pin_5_5*%
%TO.N,/SPI_MOSI*%
X108029575Y-34409575D03*
%TO.P,J7,6,Pin_6_6*%
%TO.N,/SPI_SCK*%
X105489575Y-34409575D03*
%TO.P,J7,7,Pin_7_7*%
%TO.N,/+3V3*%
X102949575Y-34409575D03*
%TO.P,J7,8,Pin_8_8*%
%TO.N,/GND*%
X100409575Y-34409575D03*
%TD*%
%TO.P,J15,1,Pin_1_1*%
%TO.N,/+BATT*%
X126884575Y-36449575D03*
%TO.P,J15,2,Pin_2_2*%
%TO.N,/GND*%
X126884575Y-33909575D03*
%TD*%
D11*
%TO.P,C3,1*%
%TO.N,/+3V3*%
X140409575Y-52909575D03*
%TO.P,C3,2*%
%TO.N,/GND*%
X140409575Y-57909575D03*
%TD*%
D12*
%TO.P,J12_LA1,1,Pin_1_1*%
%TO.N,/ECG_LA*%
X129909575Y-55909575D03*
%TD*%
%TO.P,J12_RL1,1,Pin_1_1*%
%TO.N,/ECG_RL*%
X76500000Y-56500000D03*
%TD*%
D14*
%TO.P,U1,1,GPIO1_A0_D0_1*%
%TO.N,/ECG_OUT*%
X147029575Y-32289575D03*
%TO.P,U1,2,GPIO2_A1_D1_2*%
%TO.N,/ECG_SDN*%
X144489575Y-32289575D03*
%TO.P,U1,3,GPIO3_A2_D2_3*%
%TO.N,/BLK_PWM*%
X141949575Y-32289575D03*
%TO.P,U1,4,GPIO4_A3_D3_4*%
%TO.N,/SPI_DC*%
X139409575Y-32289575D03*
%TO.P,U1,5,GPIO5_A4_D4_SDA_5*%
%TO.N,/I2C_SDA*%
X136869575Y-32289575D03*
%TO.P,U1,6,GPIO6_A5_D5_SCL_6*%
%TO.N,/I2C_SCL*%
X134329575Y-32289575D03*
%TO.P,U1,7,GPIO43_D6_TX_7*%
%TO.N,/BTN_NEXT*%
X131789575Y-32289575D03*
%TO.P,U1,8,GPIO44_D7_RX_8*%
%TO.N,/SPI_CS*%
X131789575Y-47529575D03*
%TO.P,U1,9,GPIO7_A8_D8_SCK_9*%
%TO.N,/SPI_SCK*%
X134329575Y-47529575D03*
%TO.P,U1,10,GPIO8_A9_D9_MISO_10*%
%TO.N,/BTN_SELECT*%
X136869575Y-47529575D03*
%TO.P,U1,11,GPIO9_A10_D10_MOSI_11*%
%TO.N,/SPI_MOSI*%
X139409575Y-47529575D03*
%TO.P,U1,12,3V3_12*%
%TO.N,/+3V3*%
X141949575Y-47529575D03*
%TO.P,U1,13,GND_13*%
%TO.N,/GND*%
X144489575Y-47529575D03*
%TO.P,U1,14,VBUS_14*%
%TO.N,unconnected-(U1-VBUS-Pad14)_1*%
X147029575Y-47529575D03*
%TD*%
D10*
%TO.P,J6c1,1,Pin_1_1*%
%TO.N,/+BATT*%
X79434575Y-36659575D03*
%TO.P,J6c1,2,Pin_2_2*%
%TO.N,/GND*%
X79434575Y-39199575D03*
%TD*%
D15*
%TO.P,J3,1,Pin_1_1*%
%TO.N,/GND*%
X101409575Y-58639575D03*
%TO.P,J3,2,Pin_2_2*%
%TO.N,unconnected-(J3-Pin_2-Pad2)*%
X101409575Y-56099575D03*
%TO.P,J3,3,Pin_3_3*%
%TO.N,unconnected-(J3-Pin_3-Pad3)*%
X101409575Y-53559575D03*
%TO.P,J3,4,Pin_4_4*%
%TO.N,unconnected-(J3-Pin_4-Pad4)*%
X101409575Y-51019575D03*
%TD*%
D16*
%TO.P,J4,1,Pin_1_1*%
%TO.N,/+3V3*%
X118299575Y-75909575D03*
%TO.P,J4,2,Pin_2_2*%
%TO.N,/GND*%
X115759575Y-75909575D03*
%TO.P,J4,3,Pin_3_3*%
%TO.N,/I2C_SDA*%
X113219575Y-75909575D03*
%TO.P,J4,4,Pin_4_4*%
%TO.N,/I2C_SCL*%
X110679575Y-75909575D03*
%TO.P,J4,5,Pin_5_5*%
%TO.N,unconnected-(J4-Pin_5-Pad5)*%
X108139575Y-75909575D03*
%TO.P,J4,6,Pin_6_6*%
%TO.N,/GND*%
X105599575Y-75909575D03*
%TO.P,J4,7,Pin_7_7*%
X103059575Y-75909575D03*
%TO.P,J4,8,Pin_8_8*%
X100519575Y-75909575D03*
%TD*%
D15*
%TO.P,J14,1,Pin_1_1*%
%TO.N,/+3V3*%
X116409575Y-58409575D03*
%TO.P,J14,2,Pin_2_2*%
%TO.N,/I2C_SDA*%
X116409575Y-55869575D03*
%TO.P,J14,3,Pin_3_3*%
%TO.N,/I2C_SCL*%
X116409575Y-53329575D03*
%TO.P,J14,4,Pin_4_4*%
%TO.N,/GND*%
X116409575Y-50789575D03*
%TD*%
D17*
%TO.N,/GND*%
X111800000Y-30200000D03*
X142000000Y-23300000D03*
%TO.N,/BTN_SELECT*%
X134909575Y-52909575D03*
%TO.N,/I2C_SDA*%
X113219575Y-70929575D03*
%TO.N,/SPI_CS*%
X122600000Y-42300000D03*
%TD*%
%TO.N,/GND*%
D18*
X103011275Y-74307875D02*
X103059575Y-74307875D01*
X100519575Y-75909575D02*
X100519575Y-75108675D01*
X116409575Y-50789575D02*
X114807875Y-50789575D01*
X102210475Y-58639575D02*
X101409575Y-58639575D01*
%TO.N,/+3V3*%
X102949575Y-34409575D02*
X102949575Y-32650425D01*
X102949575Y-34409575D02*
X102949575Y-36649575D01*
X140409575Y-52909575D02*
X128509575Y-64809575D01*
X91796175Y-67894575D02*
X91934575Y-67894575D01*
X148600000Y-31400000D02*
X148600000Y-40879150D01*
X118299575Y-77511275D02*
X128382875Y-77511275D01*
X102790425Y-34409575D02*
X102949575Y-34409575D01*
X148600000Y-40879150D02*
X141949575Y-47529575D01*
X128509575Y-64809575D02*
X128384575Y-64809575D01*
X143131370Y-30000000D02*
X147200000Y-30000000D01*
X118299575Y-75909575D02*
X118299575Y-77511275D01*
X118011275Y-74019575D02*
X118299575Y-74307875D01*
X130809575Y-64809575D02*
X131900000Y-65900000D01*
X147200000Y-30000000D02*
X148600000Y-31400000D01*
X128382875Y-77511275D02*
X128384575Y-77509575D01*
X128509575Y-64809575D02*
X130809575Y-64809575D01*
X131900000Y-75600000D02*
X129990425Y-77509575D01*
X135340945Y-22209575D02*
X143131370Y-30000000D01*
X131900000Y-65900000D02*
X131900000Y-75600000D01*
X114700000Y-43300000D02*
X116409575Y-41590425D01*
X102949575Y-36649575D02*
X109600000Y-43300000D01*
X109600000Y-43300000D02*
X114700000Y-43300000D01*
X129990425Y-77509575D02*
X128384575Y-77509575D01*
X118299575Y-75909575D02*
X118299575Y-74307875D01*
X118011275Y-58409575D02*
X118011275Y-74019575D01*
X116409575Y-41590425D02*
X116409575Y-39409575D01*
X116409575Y-58409575D02*
X118011275Y-58409575D01*
X102949575Y-32650425D02*
X113390425Y-22209575D01*
X113390425Y-22209575D02*
X135340945Y-22209575D01*
%TO.N,/SPI_RES*%
X110569575Y-37629575D02*
X108789575Y-39409575D01*
X102909575Y-39409575D02*
X102409575Y-39909575D01*
X110569575Y-34409575D02*
X110569575Y-37629575D01*
%TO.N,/ECG_RA*%
X77194575Y-79688990D02*
X77194575Y-79694575D01*
%TO.N,/BTN_SELECT*%
X136869575Y-47529575D02*
X136869575Y-50949575D01*
X136869575Y-50949575D02*
X134909575Y-52909575D01*
%TO.N,/I2C_SCL*%
X118009575Y-57209575D02*
X119732275Y-58932275D01*
X116409575Y-53329575D02*
X118011275Y-53329575D01*
X93500000Y-42964675D02*
X100464675Y-42964675D01*
X114409575Y-55329575D02*
X116409575Y-53329575D01*
X117995575Y-57195575D02*
X118009575Y-57209575D01*
X127680411Y-69049575D02*
X128384575Y-69049575D01*
X108670425Y-47670425D02*
X114329575Y-53329575D01*
X114409575Y-56509575D02*
X114409575Y-55329575D01*
X119732275Y-58932275D02*
X119732275Y-60505067D01*
X128384575Y-69049575D02*
X128384575Y-69889575D01*
X115109575Y-57209575D02*
X118009575Y-57209575D01*
X93279675Y-42964675D02*
X93500000Y-42964675D01*
X119732275Y-60505067D02*
X126684575Y-67457367D01*
X105170425Y-47670425D02*
X108670425Y-47670425D01*
X110679575Y-61909575D02*
X110679575Y-61597875D01*
X118011275Y-53329575D02*
X118011275Y-49254475D01*
X110679575Y-75909575D02*
X110679575Y-61909575D01*
X114329575Y-53329575D02*
X116409575Y-53329575D01*
X110679575Y-61909575D02*
X110679575Y-61639575D01*
X126684575Y-67457367D02*
X126684575Y-68053739D01*
X118009575Y-57209575D02*
X118059575Y-57259575D01*
X115109575Y-57209575D02*
X114409575Y-56509575D01*
X100464675Y-42964675D02*
X105170425Y-47670425D01*
X134329575Y-32936175D02*
X134329575Y-32289575D01*
X83949575Y-33634575D02*
X93279675Y-42964675D01*
X126684575Y-68053739D02*
X127680411Y-69049575D01*
X110679575Y-61639575D02*
X115109575Y-57209575D01*
X118011275Y-49254475D02*
X134329575Y-32936175D01*
%TO.N,/I2C_SDA*%
X78865425Y-33634575D02*
X81409575Y-33634575D01*
X76500000Y-36000000D02*
X78865425Y-33634575D01*
X86909575Y-53909575D02*
X76500000Y-43500000D01*
X113219575Y-75909575D02*
X110719575Y-78409575D01*
X117800945Y-55869575D02*
X120532275Y-58600905D01*
X135225075Y-33934075D02*
X136869575Y-32289575D01*
X118909575Y-53909575D02*
X118909575Y-49487545D01*
X110719575Y-78409575D02*
X95409575Y-78409575D01*
X116409575Y-55869575D02*
X117800945Y-55869575D01*
X116949575Y-55869575D02*
X118909575Y-53909575D01*
X134463045Y-33934075D02*
X135225075Y-33934075D01*
X127484575Y-67125997D02*
X127484575Y-67349575D01*
D19*
X127849575Y-67349575D02*
X128384575Y-67349575D01*
D18*
X95409575Y-78409575D02*
X86909575Y-69909575D01*
X86909575Y-69909575D02*
X86909575Y-53909575D01*
X118909575Y-49487545D02*
X134463045Y-33934075D01*
X113219575Y-75909575D02*
X113219575Y-70929575D01*
X76500000Y-43500000D02*
X76500000Y-36000000D01*
X120532275Y-58600905D02*
X120532275Y-60173697D01*
X116409575Y-55869575D02*
X116949575Y-55869575D01*
X136869575Y-32289575D02*
X136107545Y-32289575D01*
X120532275Y-60173697D02*
X127484575Y-67125997D01*
X127484575Y-67349575D02*
X128384575Y-67349575D01*
%TO.N,/+BATT*%
D19*
X125449575Y-36449575D02*
X126884575Y-36449575D01*
X125449575Y-36449575D02*
X123409575Y-34409575D01*
X123409575Y-34409575D02*
X123409575Y-29909575D01*
X123409575Y-29909575D02*
X126409575Y-26909575D01*
%TO.N,/BLK_PWM*%
X141949575Y-32289575D02*
X141949575Y-29949575D01*
X141949575Y-29949575D02*
X135009575Y-23009575D01*
X125829676Y-23009575D02*
X118189575Y-30649676D01*
X118189575Y-30649676D02*
X118189575Y-34409575D01*
X135009575Y-23009575D02*
X125829676Y-23009575D01*
%TO.N,/SPI_CS*%
D18*
X122600000Y-42300000D02*
X115649575Y-35349575D01*
X115649575Y-35349575D02*
X115649575Y-34409575D01*
%TD*%
%TA.AperFunction,Conductor*%
%TO.N,/GND*%
G36*
X113022708Y-21519685D02*
G01*
X113068463Y-21572489D01*
X113078407Y-21641647D01*
X113049382Y-21705203D01*
X113027512Y-21723260D01*
X113028160Y-21724105D01*
X113021707Y-21729056D01*
X102469056Y-32281707D01*
X102469055Y-32281709D01*
X102437898Y-32335675D01*
X102389998Y-32418640D01*
X102349074Y-32571368D01*
X102349074Y-32571370D01*
X102349074Y-32739471D01*
X102349075Y-32739484D01*
X102349075Y-32955506D01*
X102329390Y-33022545D01*
X102281371Y-33065990D01*
X102163143Y-33126230D01*
X102052367Y-33206715D01*
X101972065Y-33265058D01*
X101972063Y-33265060D01*
X101972061Y-33265061D01*
X101803968Y-33433154D01*
X101742645Y-33466639D01*
X101706558Y-33469091D01*
X101703825Y-33468875D01*
X100892537Y-34280164D01*
X100875500Y-34216582D01*
X100809674Y-34102568D01*
X100716582Y-34009476D01*
X100602568Y-33943650D01*
X100538983Y-33926612D01*
X101350273Y-33115323D01*
X101248158Y-33041132D01*
X101023759Y-32926794D01*
X100784244Y-32848972D01*
X100535503Y-32809575D01*
X100283647Y-32809575D01*
X100034905Y-32848972D01*
X99795390Y-32926794D01*
X99570988Y-33041134D01*
X99468876Y-33115322D01*
X99468875Y-33115323D01*
X100280165Y-33926612D01*
X100216582Y-33943650D01*
X100102568Y-34009476D01*
X100009476Y-34102568D01*
X99943650Y-34216582D01*
X99926612Y-34280165D01*
X99115323Y-33468875D01*
X99115322Y-33468876D01*
X99041134Y-33570988D01*
X98926794Y-33795390D01*
X98848972Y-34034905D01*
X98809575Y-34283646D01*
X98809575Y-34535503D01*
X98848972Y-34784244D01*
X98926794Y-35023759D01*
X99041132Y-35248158D01*
X99115323Y-35350272D01*
X99115323Y-35350273D01*
X99926612Y-34538984D01*
X99943650Y-34602568D01*
X100009476Y-34716582D01*
X100102568Y-34809674D01*
X100216582Y-34875500D01*
X100280165Y-34892537D01*
X99468875Y-35703825D01*
X99570991Y-35778017D01*
X99795390Y-35892355D01*
X100034905Y-35970177D01*
X100283647Y-36009575D01*
X100535503Y-36009575D01*
X100784244Y-35970177D01*
X101023759Y-35892355D01*
X101248150Y-35778021D01*
X101248156Y-35778017D01*
X101350272Y-35703825D01*
X101350273Y-35703825D01*
X100538984Y-34892537D01*
X100602568Y-34875500D01*
X100716582Y-34809674D01*
X100809674Y-34716582D01*
X100875500Y-34602568D01*
X100892537Y-34538985D01*
X101703823Y-35350271D01*
X101706555Y-35350057D01*
X101774933Y-35364420D01*
X101803967Y-35385994D01*
X101805058Y-35387085D01*
X101972065Y-35554092D01*
X102115372Y-35658211D01*
X102163143Y-35692919D01*
X102184548Y-35703825D01*
X102281369Y-35753157D01*
X102332165Y-35801131D01*
X102349075Y-35863642D01*
X102349075Y-36562905D01*
X102349074Y-36562923D01*
X102349074Y-36728629D01*
X102349073Y-36728629D01*
X102389999Y-36881362D01*
X102398517Y-36896115D01*
X102398518Y-36896117D01*
X102469052Y-37018287D01*
X102469056Y-37018292D01*
X102587924Y-37137160D01*
X102587930Y-37137165D01*
X109115139Y-43664374D01*
X109115149Y-43664385D01*
X109119479Y-43668715D01*
X109119480Y-43668716D01*
X109231284Y-43780520D01*
X109286124Y-43812181D01*
X109318095Y-43830639D01*
X109318097Y-43830641D01*
X109368213Y-43859576D01*
X109368215Y-43859577D01*
X109520942Y-43900500D01*
X109520943Y-43900500D01*
X114613331Y-43900500D01*
X114613347Y-43900501D01*
X114620943Y-43900501D01*
X114779054Y-43900501D01*
X114779057Y-43900501D01*
X114931785Y-43859577D01*
X114981904Y-43830639D01*
X115068716Y-43780520D01*
X115180520Y-43668716D01*
X115180520Y-43668714D01*
X115190728Y-43658507D01*
X115190730Y-43658504D01*
X116778288Y-42070946D01*
X116778291Y-42070945D01*
X116890095Y-41959141D01*
X116940214Y-41872329D01*
X116969152Y-41822210D01*
X117010075Y-41669482D01*
X117010075Y-41511368D01*
X117010075Y-40520366D01*
X117029760Y-40453327D01*
X117061187Y-40420050D01*
X117191648Y-40325265D01*
X117325265Y-40191648D01*
X117436335Y-40038774D01*
X117522122Y-39870407D01*
X117580515Y-39690693D01*
X117584505Y-39665500D01*
X117610075Y-39504061D01*
X117610075Y-39315088D01*
X117580515Y-39128456D01*
X117522120Y-38948738D01*
X117469783Y-38846021D01*
X117436335Y-38780376D01*
X117325265Y-38627502D01*
X117191648Y-38493885D01*
X117038774Y-38382815D01*
X116995936Y-38360988D01*
X116870411Y-38297029D01*
X116690693Y-38238634D01*
X116504061Y-38209075D01*
X116504056Y-38209075D01*
X116315094Y-38209075D01*
X116315089Y-38209075D01*
X116128456Y-38238634D01*
X115948738Y-38297029D01*
X115780375Y-38382815D01*
X115693154Y-38446185D01*
X115627502Y-38493885D01*
X115627500Y-38493887D01*
X115627499Y-38493887D01*
X115493887Y-38627499D01*
X115493887Y-38627500D01*
X115493885Y-38627502D01*
X115446185Y-38693154D01*
X115382815Y-38780375D01*
X115297029Y-38948738D01*
X115238634Y-39128456D01*
X115209075Y-39315088D01*
X115209075Y-39504061D01*
X115238634Y-39690693D01*
X115297029Y-39870411D01*
X115382501Y-40038158D01*
X115382815Y-40038774D01*
X115493885Y-40191648D01*
X115627502Y-40325265D01*
X115757961Y-40420049D01*
X115800626Y-40475378D01*
X115809075Y-40520366D01*
X115809075Y-41290328D01*
X115789390Y-41357367D01*
X115772756Y-41378009D01*
X114487584Y-42663181D01*
X114426261Y-42696666D01*
X114399903Y-42699500D01*
X109900097Y-42699500D01*
X109833058Y-42679815D01*
X109812416Y-42663181D01*
X103586394Y-36437159D01*
X103552909Y-36375836D01*
X103550075Y-36349478D01*
X103550075Y-35863642D01*
X103569760Y-35796603D01*
X103617780Y-35753157D01*
X103736008Y-35692918D01*
X103927085Y-35554092D01*
X104094092Y-35387085D01*
X104119257Y-35352447D01*
X104174586Y-35309782D01*
X104244200Y-35303803D01*
X104305995Y-35336408D01*
X104319890Y-35352445D01*
X104345058Y-35387085D01*
X104512065Y-35554092D01*
X104703142Y-35692918D01*
X104802566Y-35743577D01*
X104913578Y-35800141D01*
X104913580Y-35800141D01*
X104913583Y-35800143D01*
X105033987Y-35839264D01*
X105138206Y-35873128D01*
X105371478Y-35910075D01*
X105371483Y-35910075D01*
X105607672Y-35910075D01*
X105840943Y-35873128D01*
X105870138Y-35863642D01*
X106065567Y-35800143D01*
X106276008Y-35692918D01*
X106467085Y-35554092D01*
X106634092Y-35387085D01*
X106659257Y-35352447D01*
X106714586Y-35309782D01*
X106784200Y-35303803D01*
X106845995Y-35336408D01*
X106859890Y-35352445D01*
X106885058Y-35387085D01*
X107052065Y-35554092D01*
X107243142Y-35692918D01*
X107342566Y-35743577D01*
X107453578Y-35800141D01*
X107453580Y-35800141D01*
X107453583Y-35800143D01*
X107573987Y-35839264D01*
X107678206Y-35873128D01*
X107911478Y-35910075D01*
X107911483Y-35910075D01*
X108147672Y-35910075D01*
X108380943Y-35873128D01*
X108410138Y-35863642D01*
X108605567Y-35800143D01*
X108816008Y-35692918D01*
X109007085Y-35554092D01*
X109174092Y-35387085D01*
X109199257Y-35352447D01*
X109254586Y-35309782D01*
X109324200Y-35303803D01*
X109385995Y-35336408D01*
X109399890Y-35352445D01*
X109425058Y-35387085D01*
X109592065Y-35554092D01*
X109735372Y-35658211D01*
X109783143Y-35692919D01*
X109804548Y-35703825D01*
X109901369Y-35753157D01*
X109952165Y-35801131D01*
X109969075Y-35863642D01*
X109969075Y-37329477D01*
X109949390Y-37396516D01*
X109932756Y-37417158D01*
X109150405Y-38199508D01*
X109089082Y-38232993D01*
X109043326Y-38234300D01*
X108884061Y-38209075D01*
X108884056Y-38209075D01*
X108695094Y-38209075D01*
X108695089Y-38209075D01*
X108508456Y-38238634D01*
X108328738Y-38297029D01*
X108160375Y-38382815D01*
X108073154Y-38446185D01*
X108007502Y-38493885D01*
X108007500Y-38493887D01*
X108007499Y-38493887D01*
X107873887Y-38627499D01*
X107873887Y-38627500D01*
X107873885Y-38627502D01*
X107826185Y-38693154D01*
X107762815Y-38780375D01*
X107677029Y-38948738D01*
X107618634Y-39128456D01*
X107589075Y-39315088D01*
X107589075Y-39504061D01*
X107618634Y-39690693D01*
X107677029Y-39870411D01*
X107762501Y-40038158D01*
X107762815Y-40038774D01*
X107873885Y-40191648D01*
X108007502Y-40325265D01*
X108160376Y-40436335D01*
X108193725Y-40453327D01*
X108328738Y-40522120D01*
X108328740Y-40522120D01*
X108328743Y-40522122D01*
X108425072Y-40553421D01*
X108508456Y-40580515D01*
X108695089Y-40610075D01*
X108695094Y-40610075D01*
X108884061Y-40610075D01*
X109070693Y-40580515D01*
X109075196Y-40579052D01*
X109250407Y-40522122D01*
X109418774Y-40436335D01*
X109571648Y-40325265D01*
X109705265Y-40191648D01*
X109816335Y-40038774D01*
X109902122Y-39870407D01*
X109960515Y-39690693D01*
X109964505Y-39665500D01*
X109990075Y-39504061D01*
X109990075Y-39315088D01*
X109964849Y-39155821D01*
X109973803Y-39086528D01*
X109999638Y-39048745D01*
X110938288Y-38110096D01*
X110938291Y-38110095D01*
X111050095Y-37998291D01*
X111100214Y-37911479D01*
X111129152Y-37861360D01*
X111170075Y-37708632D01*
X111170075Y-37550518D01*
X111170075Y-35863642D01*
X111189760Y-35796603D01*
X111237780Y-35753157D01*
X111356008Y-35692918D01*
X111547085Y-35554092D01*
X111714092Y-35387085D01*
X111739257Y-35352447D01*
X111794586Y-35309782D01*
X111864200Y-35303803D01*
X111925995Y-35336408D01*
X111939890Y-35352445D01*
X111965058Y-35387085D01*
X112132065Y-35554092D01*
X112323142Y-35692918D01*
X112422566Y-35743577D01*
X112533578Y-35800141D01*
X112533580Y-35800141D01*
X112533583Y-35800143D01*
X112653987Y-35839264D01*
X112758206Y-35873128D01*
X112991478Y-35910075D01*
X112991483Y-35910075D01*
X113227672Y-35910075D01*
X113460943Y-35873128D01*
X113490138Y-35863642D01*
X113685567Y-35800143D01*
X113896008Y-35692918D01*
X114087085Y-35554092D01*
X114254092Y-35387085D01*
X114279257Y-35352447D01*
X114334586Y-35309782D01*
X114404200Y-35303803D01*
X114465995Y-35336408D01*
X114479890Y-35352445D01*
X114505058Y-35387085D01*
X114672065Y-35554092D01*
X114863142Y-35692918D01*
X114962566Y-35743577D01*
X115073578Y-35800141D01*
X115073580Y-35800141D01*
X115073583Y-35800143D01*
X115269012Y-35863642D01*
X115302842Y-35874634D01*
X115302523Y-35875612D01*
X115356737Y-35905972D01*
X121305922Y-41855157D01*
X121339407Y-41916480D01*
X121336173Y-41981155D01*
X121331522Y-41995468D01*
X121299500Y-42197648D01*
X121299500Y-42402351D01*
X121331522Y-42604534D01*
X121394781Y-42799223D01*
X121458691Y-42924653D01*
X121467998Y-42942918D01*
X121487715Y-42981613D01*
X121608028Y-43147213D01*
X121752786Y-43291971D01*
X121907749Y-43404556D01*
X121918390Y-43412287D01*
X122034607Y-43471503D01*
X122100776Y-43505218D01*
X122100778Y-43505218D01*
X122100781Y-43505220D01*
X122205137Y-43539127D01*
X122295465Y-43568477D01*
X122396557Y-43584488D01*
X122497648Y-43600500D01*
X122497649Y-43600500D01*
X122516652Y-43600500D01*
X122583691Y-43620185D01*
X122629446Y-43672989D01*
X122639390Y-43742147D01*
X122610365Y-43805703D01*
X122604333Y-43812181D01*
X117530756Y-48885757D01*
X117530754Y-48885759D01*
X117513626Y-48915427D01*
X117506386Y-48927968D01*
X117451698Y-49022690D01*
X117410774Y-49175418D01*
X117410774Y-49175420D01*
X117410774Y-49343521D01*
X117410775Y-49343534D01*
X117410775Y-49565575D01*
X117391090Y-49632614D01*
X117338286Y-49678369D01*
X117286775Y-49689575D01*
X116659575Y-49689575D01*
X116659575Y-51889575D01*
X117286775Y-51889575D01*
X117295460Y-51892125D01*
X117304422Y-51890837D01*
X117328462Y-51901815D01*
X117353814Y-51909260D01*
X117359741Y-51916100D01*
X117367978Y-51919862D01*
X117382267Y-51942096D01*
X117399569Y-51962064D01*
X117401856Y-51972578D01*
X117405752Y-51978640D01*
X117410775Y-52013575D01*
X117410775Y-52205075D01*
X117391090Y-52272114D01*
X117338286Y-52317869D01*
X117286775Y-52329075D01*
X115378057Y-52329075D01*
X115297094Y-52341898D01*
X115284271Y-52343929D01*
X115171233Y-52401525D01*
X115171232Y-52401526D01*
X115171227Y-52401529D01*
X115081529Y-52491227D01*
X115081526Y-52491232D01*
X115081525Y-52491233D01*
X115055747Y-52541825D01*
X115023929Y-52604271D01*
X115020730Y-52624471D01*
X114990801Y-52687607D01*
X114931490Y-52724538D01*
X114898256Y-52729075D01*
X114629673Y-52729075D01*
X114562634Y-52709390D01*
X114541992Y-52692756D01*
X113286655Y-51437419D01*
X114909575Y-51437419D01*
X114915976Y-51496947D01*
X114915978Y-51496954D01*
X114966220Y-51631661D01*
X114966224Y-51631668D01*
X115052384Y-51746762D01*
X115052387Y-51746765D01*
X115167481Y-51832925D01*
X115167488Y-51832929D01*
X115302195Y-51883171D01*
X115302202Y-51883173D01*
X115361730Y-51889574D01*
X115361747Y-51889575D01*
X116159575Y-51889575D01*
X116159575Y-51039575D01*
X114909575Y-51039575D01*
X114909575Y-51437419D01*
X113286655Y-51437419D01*
X112075343Y-50226107D01*
X111990966Y-50141730D01*
X114909575Y-50141730D01*
X114909575Y-50539575D01*
X116159575Y-50539575D01*
X116159575Y-49689575D01*
X115361730Y-49689575D01*
X115302202Y-49695976D01*
X115302195Y-49695978D01*
X115167488Y-49746220D01*
X115167481Y-49746224D01*
X115052387Y-49832384D01*
X115052384Y-49832387D01*
X114966224Y-49947481D01*
X114966220Y-49947488D01*
X114915978Y-50082195D01*
X114915976Y-50082202D01*
X114909575Y-50141730D01*
X111990966Y-50141730D01*
X109158015Y-47308780D01*
X109158013Y-47308777D01*
X109039142Y-47189906D01*
X109039141Y-47189905D01*
X108952329Y-47139785D01*
X108952329Y-47139784D01*
X108952325Y-47139783D01*
X108902210Y-47110848D01*
X108749482Y-47069924D01*
X108591368Y-47069924D01*
X108583772Y-47069924D01*
X108583756Y-47069925D01*
X105470522Y-47069925D01*
X105403483Y-47050240D01*
X105382841Y-47033606D01*
X100952265Y-42603030D01*
X100952263Y-42603027D01*
X100833392Y-42484156D01*
X100833391Y-42484155D01*
X100746579Y-42434035D01*
X100746579Y-42434034D01*
X100746575Y-42434033D01*
X100696460Y-42405098D01*
X100543732Y-42364174D01*
X100385618Y-42364174D01*
X100378022Y-42364174D01*
X100378006Y-42364175D01*
X93579772Y-42364175D01*
X93512733Y-42344490D01*
X93492091Y-42327856D01*
X90471492Y-39307257D01*
X96109575Y-39307257D01*
X96109575Y-39511892D01*
X96141584Y-39713992D01*
X96204819Y-39908606D01*
X96297716Y-40090925D01*
X96297722Y-40090934D01*
X96330098Y-40135496D01*
X96330099Y-40135497D01*
X97009575Y-39456021D01*
X97009575Y-39462236D01*
X97036834Y-39563969D01*
X97089495Y-39655181D01*
X97163969Y-39729655D01*
X97255181Y-39782316D01*
X97356914Y-39809575D01*
X97363128Y-39809575D01*
X96683651Y-40489049D01*
X96728225Y-40521434D01*
X96910543Y-40614330D01*
X97105157Y-40677565D01*
X97307258Y-40709575D01*
X97511892Y-40709575D01*
X97713992Y-40677565D01*
X97908606Y-40614330D01*
X98090924Y-40521434D01*
X98135496Y-40489049D01*
X97456022Y-39809575D01*
X97462236Y-39809575D01*
X97563969Y-39782316D01*
X97655181Y-39729655D01*
X97729655Y-39655181D01*
X97782316Y-39563969D01*
X97809575Y-39462236D01*
X97809575Y-39456023D01*
X98489049Y-40135497D01*
X98489049Y-40135496D01*
X98521434Y-40090924D01*
X98614330Y-39908606D01*
X98677565Y-39713992D01*
X98709575Y-39511892D01*
X98709575Y-39315088D01*
X101209075Y-39315088D01*
X101209075Y-39504061D01*
X101238634Y-39690693D01*
X101297029Y-39870411D01*
X101382501Y-40038158D01*
X101382815Y-40038774D01*
X101493885Y-40191648D01*
X101627502Y-40325265D01*
X101780376Y-40436335D01*
X101813725Y-40453327D01*
X101948738Y-40522120D01*
X101948740Y-40522120D01*
X101948743Y-40522122D01*
X102045072Y-40553421D01*
X102128456Y-40580515D01*
X102315089Y-40610075D01*
X102315094Y-40610075D01*
X102504061Y-40610075D01*
X102690693Y-40580515D01*
X102695196Y-40579052D01*
X102870407Y-40522122D01*
X103038774Y-40436335D01*
X103191648Y-40325265D01*
X103325265Y-40191648D01*
X103436335Y-40038774D01*
X103522122Y-39870407D01*
X103580515Y-39690693D01*
X103584505Y-39665500D01*
X103610075Y-39504061D01*
X103610075Y-39315088D01*
X103580515Y-39128456D01*
X103522120Y-38948738D01*
X103469783Y-38846021D01*
X103436335Y-38780376D01*
X103325265Y-38627502D01*
X103191648Y-38493885D01*
X103038774Y-38382815D01*
X102995936Y-38360988D01*
X102870411Y-38297029D01*
X102690693Y-38238634D01*
X102504061Y-38209075D01*
X102504056Y-38209075D01*
X102315094Y-38209075D01*
X102315089Y-38209075D01*
X102128456Y-38238634D01*
X101948738Y-38297029D01*
X101780375Y-38382815D01*
X101693154Y-38446185D01*
X101627502Y-38493885D01*
X101627500Y-38493887D01*
X101627499Y-38493887D01*
X101493887Y-38627499D01*
X101493887Y-38627500D01*
X101493885Y-38627502D01*
X101446185Y-38693154D01*
X101382815Y-38780375D01*
X101297029Y-38948738D01*
X101238634Y-39128456D01*
X101209075Y-39315088D01*
X98709575Y-39315088D01*
X98709575Y-39307257D01*
X98677565Y-39105157D01*
X98614330Y-38910543D01*
X98521434Y-38728225D01*
X98489049Y-38683652D01*
X98489049Y-38683651D01*
X97809575Y-39363126D01*
X97809575Y-39356914D01*
X97782316Y-39255181D01*
X97729655Y-39163969D01*
X97655181Y-39089495D01*
X97563969Y-39036834D01*
X97462236Y-39009575D01*
X97456021Y-39009575D01*
X98135497Y-38330099D01*
X98135496Y-38330098D01*
X98090934Y-38297722D01*
X98090925Y-38297716D01*
X97908606Y-38204819D01*
X97713992Y-38141584D01*
X97511892Y-38109575D01*
X97307258Y-38109575D01*
X97105157Y-38141584D01*
X96910543Y-38204819D01*
X96728219Y-38297718D01*
X96683652Y-38330098D01*
X96683652Y-38330099D01*
X97363129Y-39009575D01*
X97356914Y-39009575D01*
X97255181Y-39036834D01*
X97163969Y-39089495D01*
X97089495Y-39163969D01*
X97036834Y-39255181D01*
X97009575Y-39356914D01*
X97009575Y-39363128D01*
X96330099Y-38683652D01*
X96330098Y-38683652D01*
X96297718Y-38728219D01*
X96204819Y-38910543D01*
X96141584Y-39105157D01*
X96109575Y-39307257D01*
X90471492Y-39307257D01*
X86510991Y-35346756D01*
X86477506Y-35285433D01*
X86482490Y-35215741D01*
X86524362Y-35159808D01*
X86589826Y-35135391D01*
X86598672Y-35135075D01*
X86607672Y-35135075D01*
X86840943Y-35098128D01*
X86874043Y-35087373D01*
X87065567Y-35025143D01*
X87276008Y-34917918D01*
X87467085Y-34779092D01*
X87634092Y-34612085D01*
X87772918Y-34421008D01*
X87867656Y-34235075D01*
X87874071Y-34222485D01*
X87874071Y-34222484D01*
X87877078Y-34216582D01*
X87880143Y-34210567D01*
X87953128Y-33985943D01*
X87959827Y-33943650D01*
X87990075Y-33752672D01*
X87990075Y-33516477D01*
X87953128Y-33283206D01*
X87926385Y-33200902D01*
X87880143Y-33058583D01*
X87772918Y-32848142D01*
X87634092Y-32657065D01*
X87467085Y-32490058D01*
X87276008Y-32351232D01*
X87065571Y-32244008D01*
X86840943Y-32171021D01*
X86607672Y-32134075D01*
X86607667Y-32134075D01*
X86371483Y-32134075D01*
X86371478Y-32134075D01*
X86138206Y-32171021D01*
X85913578Y-32244008D01*
X85703141Y-32351232D01*
X85631478Y-32403299D01*
X85512065Y-32490058D01*
X85512063Y-32490060D01*
X85512062Y-32490060D01*
X85345059Y-32657063D01*
X85319893Y-32691702D01*
X85264562Y-32734367D01*
X85194949Y-32740346D01*
X85133154Y-32707740D01*
X85119257Y-32691702D01*
X85094092Y-32657065D01*
X84927085Y-32490058D01*
X84736008Y-32351232D01*
X84525571Y-32244008D01*
X84300943Y-32171021D01*
X84067672Y-32134075D01*
X84067667Y-32134075D01*
X83831483Y-32134075D01*
X83831478Y-32134075D01*
X83598206Y-32171021D01*
X83373578Y-32244008D01*
X83163141Y-32351232D01*
X83091478Y-32403299D01*
X82972065Y-32490058D01*
X82972063Y-32490060D01*
X82972062Y-32490060D01*
X82805059Y-32657063D01*
X82779893Y-32691702D01*
X82724562Y-32734367D01*
X82654949Y-32740346D01*
X82593154Y-32707740D01*
X82579257Y-32691702D01*
X82554092Y-32657065D01*
X82387085Y-32490058D01*
X82196008Y-32351232D01*
X81985571Y-32244008D01*
X81760943Y-32171021D01*
X81527672Y-32134075D01*
X81527667Y-32134075D01*
X81291483Y-32134075D01*
X81291478Y-32134075D01*
X81058206Y-32171021D01*
X80833578Y-32244008D01*
X80623141Y-32351232D01*
X80551478Y-32403299D01*
X80432065Y-32490058D01*
X80432063Y-32490060D01*
X80432062Y-32490060D01*
X80265060Y-32657062D01*
X80265060Y-32657063D01*
X80265058Y-32657065D01*
X80212444Y-32729482D01*
X80126232Y-32848141D01*
X80125809Y-32848972D01*
X80076360Y-32946022D01*
X80065992Y-32966370D01*
X80018017Y-33017166D01*
X79955507Y-33034075D01*
X78786368Y-33034075D01*
X78633639Y-33074998D01*
X78633638Y-33074998D01*
X78611832Y-33087587D01*
X78611833Y-33087588D01*
X78496712Y-33154052D01*
X78496707Y-33154056D01*
X76019479Y-35631284D01*
X76001088Y-35663141D01*
X75990162Y-35682065D01*
X75940423Y-35768215D01*
X75899499Y-35920943D01*
X75899499Y-35920945D01*
X75899499Y-36089046D01*
X75899500Y-36089059D01*
X75899500Y-43413330D01*
X75899499Y-43413348D01*
X75899499Y-43579054D01*
X75899498Y-43579054D01*
X75899499Y-43579057D01*
X75940423Y-43731785D01*
X75968560Y-43780519D01*
X75997498Y-43830641D01*
X76019479Y-43868714D01*
X76019481Y-43868717D01*
X76138349Y-43987585D01*
X76138355Y-43987590D01*
X86272756Y-54121991D01*
X86306241Y-54183314D01*
X86309075Y-54209672D01*
X86309075Y-69822905D01*
X86309074Y-69822923D01*
X86309074Y-69988629D01*
X86309073Y-69988629D01*
X86349998Y-70141360D01*
X86378933Y-70191475D01*
X86378934Y-70191479D01*
X86378935Y-70191479D01*
X86407861Y-70241582D01*
X86429054Y-70278289D01*
X86429056Y-70278292D01*
X86547924Y-70397160D01*
X86547930Y-70397165D01*
X94924714Y-78773949D01*
X94924724Y-78773960D01*
X94929054Y-78778290D01*
X94929055Y-78778291D01*
X95040859Y-78890095D01*
X95117037Y-78934075D01*
X95127670Y-78940214D01*
X95127672Y-78940216D01*
X95177788Y-78969151D01*
X95177790Y-78969152D01*
X95330517Y-79010075D01*
X95330518Y-79010075D01*
X110632906Y-79010075D01*
X110632922Y-79010076D01*
X110640518Y-79010076D01*
X110798629Y-79010076D01*
X110798632Y-79010076D01*
X110951360Y-78969152D01*
X111001479Y-78940214D01*
X111088291Y-78890095D01*
X111200095Y-78778291D01*
X111200095Y-78778289D01*
X111210303Y-78768082D01*
X111210305Y-78768079D01*
X112631991Y-77346393D01*
X112693314Y-77312908D01*
X112719672Y-77310074D01*
X113851092Y-77310074D01*
X113851093Y-77310074D01*
X113944879Y-77295221D01*
X114057917Y-77237625D01*
X114147625Y-77147917D01*
X114205221Y-77034879D01*
X114205221Y-77034877D01*
X114205222Y-77034876D01*
X114217490Y-76957419D01*
X114659575Y-76957419D01*
X114665976Y-77016947D01*
X114665978Y-77016954D01*
X114716220Y-77151661D01*
X114716224Y-77151668D01*
X114802384Y-77266762D01*
X114802387Y-77266765D01*
X114917481Y-77352925D01*
X114917488Y-77352929D01*
X115052195Y-77403171D01*
X115052202Y-77403173D01*
X115111730Y-77409574D01*
X115111747Y-77409575D01*
X115509575Y-77409575D01*
X116009575Y-77409575D01*
X116407403Y-77409575D01*
X116407419Y-77409574D01*
X116466947Y-77403173D01*
X116466954Y-77403171D01*
X116601661Y-77352929D01*
X116601668Y-77352925D01*
X116716762Y-77266765D01*
X116716765Y-77266762D01*
X116802925Y-77151668D01*
X116802929Y-77151661D01*
X116853171Y-77016954D01*
X116853173Y-77016947D01*
X116859574Y-76957419D01*
X116859575Y-76957402D01*
X116859575Y-76159575D01*
X116009575Y-76159575D01*
X116009575Y-77409575D01*
X115509575Y-77409575D01*
X115509575Y-76159575D01*
X114659575Y-76159575D01*
X114659575Y-76957419D01*
X114217490Y-76957419D01*
X114220075Y-76941099D01*
X114220075Y-76108213D01*
X114220074Y-74878052D01*
X114220038Y-74877827D01*
X114220037Y-74877823D01*
X114217488Y-74861730D01*
X114659575Y-74861730D01*
X114659575Y-75659575D01*
X115509575Y-75659575D01*
X116009575Y-75659575D01*
X116859575Y-75659575D01*
X116859575Y-74861747D01*
X116859574Y-74861730D01*
X116853173Y-74802202D01*
X116853171Y-74802195D01*
X116802929Y-74667488D01*
X116802925Y-74667481D01*
X116716765Y-74552387D01*
X116716762Y-74552384D01*
X116601668Y-74466224D01*
X116601661Y-74466220D01*
X116466954Y-74415978D01*
X116466947Y-74415976D01*
X116407419Y-74409575D01*
X116009575Y-74409575D01*
X116009575Y-75659575D01*
X115509575Y-75659575D01*
X115509575Y-74409575D01*
X115111730Y-74409575D01*
X115052202Y-74415976D01*
X115052195Y-74415978D01*
X114917488Y-74466220D01*
X114917481Y-74466224D01*
X114802387Y-74552384D01*
X114802384Y-74552387D01*
X114716224Y-74667481D01*
X114716220Y-74667488D01*
X114665978Y-74802195D01*
X114665976Y-74802202D01*
X114659575Y-74861730D01*
X114217488Y-74861730D01*
X114215864Y-74851477D01*
X114205221Y-74784271D01*
X114147625Y-74671233D01*
X114147621Y-74671229D01*
X114147620Y-74671227D01*
X114057922Y-74581529D01*
X114057919Y-74581527D01*
X114057917Y-74581525D01*
X113944879Y-74523929D01*
X113944877Y-74523928D01*
X113944876Y-74523928D01*
X113924675Y-74520728D01*
X113861540Y-74490797D01*
X113824610Y-74431485D01*
X113820075Y-74398255D01*
X113820075Y-72159176D01*
X113839760Y-72092137D01*
X113887781Y-72048691D01*
X113901185Y-72041862D01*
X114066794Y-71921541D01*
X114211541Y-71776794D01*
X114211543Y-71776790D01*
X114211546Y-71776788D01*
X114300040Y-71654984D01*
X114331862Y-71611185D01*
X114424795Y-71428794D01*
X114488052Y-71234109D01*
X114520075Y-71031927D01*
X114520075Y-70827223D01*
X114506511Y-70741582D01*
X114488052Y-70625040D01*
X114424793Y-70430351D01*
X114347314Y-70278292D01*
X114331862Y-70247965D01*
X114254410Y-70141360D01*
X114211546Y-70082361D01*
X114066788Y-69937603D01*
X113901188Y-69817290D01*
X113901187Y-69817289D01*
X113901185Y-69817288D01*
X113811288Y-69771483D01*
X113718798Y-69724356D01*
X113524109Y-69661097D01*
X113349570Y-69633453D01*
X113321927Y-69629075D01*
X113117223Y-69629075D01*
X113092904Y-69632926D01*
X112915040Y-69661097D01*
X112720351Y-69724356D01*
X112537961Y-69817290D01*
X112372361Y-69937603D01*
X112227603Y-70082361D01*
X112107290Y-70247961D01*
X112014356Y-70430351D01*
X111951097Y-70625040D01*
X111932639Y-70741582D01*
X111919075Y-70827223D01*
X111919075Y-71031927D01*
X111921741Y-71048759D01*
X111951097Y-71234109D01*
X112014356Y-71428798D01*
X112107290Y-71611188D01*
X112227603Y-71776788D01*
X112227609Y-71776794D01*
X112372356Y-71921541D01*
X112537965Y-72041862D01*
X112551368Y-72048691D01*
X112602164Y-72096663D01*
X112619075Y-72159176D01*
X112619075Y-74398256D01*
X112599390Y-74465295D01*
X112546586Y-74511050D01*
X112514472Y-74520729D01*
X112494275Y-74523927D01*
X112494274Y-74523927D01*
X112447859Y-74547577D01*
X112381233Y-74581525D01*
X112381232Y-74581526D01*
X112381227Y-74581529D01*
X112291529Y-74671227D01*
X112291526Y-74671232D01*
X112233927Y-74784273D01*
X112219075Y-74878050D01*
X112219075Y-76009477D01*
X112199390Y-76076516D01*
X112182756Y-76097158D01*
X111891755Y-76388159D01*
X111830432Y-76421644D01*
X111760740Y-76416660D01*
X111704807Y-76374788D01*
X111680390Y-76309324D01*
X111680074Y-76300478D01*
X111680074Y-74878057D01*
X111675864Y-74851477D01*
X111665221Y-74784271D01*
X111607625Y-74671233D01*
X111607621Y-74671229D01*
X111607620Y-74671227D01*
X111517922Y-74581529D01*
X111517919Y-74581527D01*
X111517917Y-74581525D01*
X111404879Y-74523929D01*
X111404877Y-74523928D01*
X111404876Y-74523928D01*
X111384675Y-74520728D01*
X111321540Y-74490797D01*
X111284610Y-74431485D01*
X111280075Y-74398255D01*
X111280075Y-61939671D01*
X111299760Y-61872632D01*
X111316389Y-61851995D01*
X114797396Y-58370987D01*
X114858717Y-58337504D01*
X114928409Y-58342488D01*
X114984342Y-58384360D01*
X115008759Y-58449824D01*
X115009075Y-58458670D01*
X115009075Y-59041092D01*
X115016579Y-59088472D01*
X115023929Y-59134879D01*
X115081525Y-59247917D01*
X115081527Y-59247919D01*
X115081529Y-59247922D01*
X115171227Y-59337620D01*
X115171229Y-59337621D01*
X115171233Y-59337625D01*
X115284271Y-59395221D01*
X115284273Y-59395222D01*
X115378050Y-59410074D01*
X115378056Y-59410075D01*
X117286775Y-59410074D01*
X117353814Y-59429759D01*
X117399569Y-59482562D01*
X117410775Y-59534074D01*
X117410775Y-73932905D01*
X117410774Y-73932923D01*
X117410774Y-74098629D01*
X117410773Y-74098629D01*
X117410774Y-74098632D01*
X117451698Y-74251360D01*
X117462524Y-74270111D01*
X117530755Y-74388291D01*
X117531435Y-74388971D01*
X117535947Y-74396753D01*
X117542420Y-74423229D01*
X117552244Y-74448655D01*
X117550597Y-74456672D01*
X117552542Y-74464623D01*
X117543674Y-74490394D01*
X117538192Y-74517097D01*
X117532471Y-74522952D01*
X117529809Y-74530691D01*
X117508415Y-74547577D01*
X117489367Y-74567077D01*
X117484968Y-74569431D01*
X117461234Y-74581524D01*
X117461227Y-74581529D01*
X117371529Y-74671227D01*
X117371526Y-74671232D01*
X117313927Y-74784273D01*
X117299075Y-74878050D01*
X117299075Y-76941092D01*
X117309867Y-77009232D01*
X117313929Y-77034879D01*
X117371525Y-77147917D01*
X117371527Y-77147919D01*
X117371529Y-77147922D01*
X117461227Y-77237620D01*
X117461229Y-77237621D01*
X117461233Y-77237625D01*
X117574271Y-77295221D01*
X117594472Y-77298420D01*
X117657607Y-77328349D01*
X117694538Y-77387660D01*
X117699075Y-77420894D01*
X117699075Y-77590331D01*
X117739998Y-77743058D01*
X117740001Y-77743065D01*
X117819050Y-77879984D01*
X117819054Y-77879989D01*
X117819055Y-77879991D01*
X117930859Y-77991795D01*
X117930861Y-77991796D01*
X117930865Y-77991799D01*
X118014724Y-78040214D01*
X118067791Y-78070852D01*
X118220518Y-78111775D01*
X118378632Y-78111775D01*
X126931373Y-78111775D01*
X126998412Y-78131460D01*
X127041858Y-78179480D01*
X127101232Y-78296008D01*
X127240058Y-78487085D01*
X127407065Y-78654092D01*
X127598142Y-78792918D01*
X127697566Y-78843577D01*
X127808578Y-78900141D01*
X127808580Y-78900141D01*
X127808583Y-78900143D01*
X127913015Y-78934075D01*
X128033206Y-78973128D01*
X128266478Y-79010075D01*
X128266483Y-79010075D01*
X128502672Y-79010075D01*
X128735943Y-78973128D01*
X128748183Y-78969151D01*
X128960567Y-78900143D01*
X129171008Y-78792918D01*
X129362085Y-78654092D01*
X129529092Y-78487085D01*
X129667918Y-78296008D01*
X129728158Y-78177779D01*
X129738607Y-78166715D01*
X129744930Y-78152872D01*
X129762110Y-78141830D01*
X129776133Y-78126984D01*
X129791812Y-78122742D01*
X129803708Y-78115098D01*
X129838643Y-78110075D01*
X129903756Y-78110075D01*
X129903772Y-78110076D01*
X129911368Y-78110076D01*
X130069479Y-78110076D01*
X130069482Y-78110076D01*
X130222210Y-78069152D01*
X130272329Y-78040214D01*
X130359141Y-77990095D01*
X130470945Y-77878291D01*
X130470945Y-77878289D01*
X130481153Y-77868082D01*
X130481155Y-77868079D01*
X132258506Y-76090728D01*
X132258511Y-76090724D01*
X132268714Y-76080520D01*
X132268716Y-76080520D01*
X132380520Y-75968716D01*
X132437470Y-75870075D01*
X132459577Y-75831785D01*
X132500501Y-75679057D01*
X132500501Y-75520943D01*
X132500501Y-75513348D01*
X132500500Y-75513330D01*
X132500500Y-65989059D01*
X132500501Y-65989046D01*
X132500501Y-65820945D01*
X132500501Y-65820943D01*
X132459577Y-65668215D01*
X132417888Y-65596008D01*
X132380520Y-65531284D01*
X132268716Y-65419480D01*
X132268715Y-65419479D01*
X132264385Y-65415149D01*
X132264374Y-65415139D01*
X131297165Y-64447930D01*
X131297163Y-64447927D01*
X131178292Y-64329056D01*
X131178291Y-64329055D01*
X131090082Y-64278128D01*
X131041360Y-64249998D01*
X130888632Y-64209074D01*
X130730518Y-64209074D01*
X130722922Y-64209074D01*
X130722906Y-64209075D01*
X130258672Y-64209075D01*
X130191633Y-64189390D01*
X130145878Y-64136586D01*
X130135934Y-64067428D01*
X130164959Y-64003872D01*
X130170991Y-63997394D01*
X132737397Y-61430988D01*
X136361127Y-57807257D01*
X139109575Y-57807257D01*
X139109575Y-58011892D01*
X139141584Y-58213992D01*
X139204819Y-58408606D01*
X139297716Y-58590925D01*
X139297722Y-58590934D01*
X139330098Y-58635496D01*
X139330099Y-58635497D01*
X140009575Y-57956021D01*
X140009575Y-57962236D01*
X140036834Y-58063969D01*
X140089495Y-58155181D01*
X140163969Y-58229655D01*
X140255181Y-58282316D01*
X140356914Y-58309575D01*
X140363128Y-58309575D01*
X139683651Y-58989049D01*
X139728225Y-59021434D01*
X139910543Y-59114330D01*
X140105157Y-59177565D01*
X140307258Y-59209575D01*
X140511892Y-59209575D01*
X140713992Y-59177565D01*
X140908606Y-59114330D01*
X141090924Y-59021434D01*
X141135496Y-58989049D01*
X140456022Y-58309575D01*
X140462236Y-58309575D01*
X140563969Y-58282316D01*
X140655181Y-58229655D01*
X140729655Y-58155181D01*
X140782316Y-58063969D01*
X140809575Y-57962236D01*
X140809575Y-57956023D01*
X141489049Y-58635497D01*
X141489049Y-58635496D01*
X141521434Y-58590924D01*
X141614330Y-58408606D01*
X141677565Y-58213992D01*
X141709575Y-58011892D01*
X141709575Y-57807257D01*
X141677565Y-57605157D01*
X141614330Y-57410543D01*
X141521434Y-57228225D01*
X141489049Y-57183652D01*
X141489049Y-57183651D01*
X140809575Y-57863126D01*
X140809575Y-57856914D01*
X140782316Y-57755181D01*
X140729655Y-57663969D01*
X140655181Y-57589495D01*
X140563969Y-57536834D01*
X140462236Y-57509575D01*
X140456021Y-57509575D01*
X141135497Y-56830099D01*
X141135496Y-56830098D01*
X141090934Y-56797722D01*
X141090925Y-56797716D01*
X140908606Y-56704819D01*
X140713992Y-56641584D01*
X140511892Y-56609575D01*
X140307258Y-56609575D01*
X140105157Y-56641584D01*
X139910543Y-56704819D01*
X139728219Y-56797718D01*
X139683652Y-56830098D01*
X139683652Y-56830099D01*
X140363129Y-57509575D01*
X140356914Y-57509575D01*
X140255181Y-57536834D01*
X140163969Y-57589495D01*
X140089495Y-57663969D01*
X140036834Y-57755181D01*
X140009575Y-57856914D01*
X140009575Y-57863128D01*
X139330099Y-57183652D01*
X139330098Y-57183652D01*
X139297718Y-57228219D01*
X139204819Y-57410543D01*
X139141584Y-57605157D01*
X139109575Y-57807257D01*
X136361127Y-57807257D01*
X140048744Y-54119639D01*
X140110065Y-54086156D01*
X140155821Y-54084849D01*
X140315089Y-54110075D01*
X140315094Y-54110075D01*
X140504061Y-54110075D01*
X140690693Y-54080515D01*
X140721328Y-54070561D01*
X140870407Y-54022122D01*
X141038774Y-53936335D01*
X141191648Y-53825265D01*
X141325265Y-53691648D01*
X141436335Y-53538774D01*
X141522122Y-53370407D01*
X141580515Y-53190693D01*
X141583006Y-53174968D01*
X141610075Y-53004061D01*
X141610075Y-52815088D01*
X141580515Y-52628456D01*
X141545563Y-52520887D01*
X141522122Y-52448743D01*
X141522120Y-52448740D01*
X141522120Y-52448738D01*
X141461148Y-52329075D01*
X141436335Y-52280376D01*
X141325265Y-52127502D01*
X141191648Y-51993885D01*
X141038774Y-51882815D01*
X140989909Y-51857917D01*
X140870411Y-51797029D01*
X140690693Y-51738634D01*
X140504061Y-51709075D01*
X140504056Y-51709075D01*
X140315094Y-51709075D01*
X140315089Y-51709075D01*
X140128456Y-51738634D01*
X139948738Y-51797029D01*
X139780375Y-51882815D01*
X139732486Y-51917609D01*
X139627502Y-51993885D01*
X139627500Y-51993887D01*
X139627499Y-51993887D01*
X139493887Y-52127499D01*
X139493887Y-52127500D01*
X139493885Y-52127502D01*
X139446185Y-52193154D01*
X139382815Y-52280375D01*
X139297029Y-52448738D01*
X139238634Y-52628456D01*
X139209075Y-52815088D01*
X139209075Y-53004061D01*
X139234300Y-53163326D01*
X139225345Y-53232620D01*
X139199508Y-53270405D01*
X130196256Y-62273657D01*
X130134933Y-62307142D01*
X130065241Y-62302158D01*
X130009308Y-62260286D01*
X129984891Y-62194822D01*
X129984575Y-62185976D01*
X129984575Y-62143646D01*
X129945177Y-61894905D01*
X129867355Y-61655390D01*
X129753017Y-61430991D01*
X129678825Y-61328876D01*
X129678825Y-61328875D01*
X128867537Y-62140165D01*
X128850500Y-62076582D01*
X128784674Y-61962568D01*
X128691582Y-61869476D01*
X128577568Y-61803650D01*
X128513983Y-61786612D01*
X129325273Y-60975323D01*
X129223158Y-60901132D01*
X128998759Y-60786794D01*
X128759244Y-60708972D01*
X128510503Y-60669575D01*
X128258647Y-60669575D01*
X128009905Y-60708972D01*
X127770390Y-60786794D01*
X127545988Y-60901134D01*
X127443876Y-60975322D01*
X127443875Y-60975323D01*
X128255165Y-61786612D01*
X128191582Y-61803650D01*
X128077568Y-61869476D01*
X127984476Y-61962568D01*
X127918650Y-62076582D01*
X127901612Y-62140165D01*
X127090323Y-61328875D01*
X127090322Y-61328876D01*
X127016134Y-61430988D01*
X126901794Y-61655390D01*
X126823972Y-61894905D01*
X126784575Y-62143646D01*
X126784575Y-62395503D01*
X126823972Y-62644244D01*
X126901794Y-62883759D01*
X127016132Y-63108158D01*
X127090323Y-63210272D01*
X127090323Y-63210273D01*
X127901612Y-62398984D01*
X127918650Y-62462568D01*
X127984476Y-62576582D01*
X128077568Y-62669674D01*
X128191582Y-62735500D01*
X128255165Y-62752537D01*
X127443875Y-63563825D01*
X127444091Y-63566558D01*
X127429727Y-63634936D01*
X127408154Y-63663968D01*
X127240061Y-63832061D01*
X127240060Y-63832063D01*
X127240058Y-63832065D01*
X127180437Y-63914125D01*
X127101232Y-64023141D01*
X126994008Y-64233578D01*
X126921021Y-64458206D01*
X126884075Y-64691477D01*
X126884075Y-64927672D01*
X126921021Y-65160943D01*
X126994008Y-65385571D01*
X127054763Y-65504808D01*
X127067659Y-65573478D01*
X127041383Y-65638218D01*
X126984276Y-65678475D01*
X126914470Y-65681467D01*
X126856597Y-65648784D01*
X121169094Y-59961281D01*
X121135609Y-59899958D01*
X121132775Y-59873600D01*
X121132775Y-58689964D01*
X121132776Y-58689951D01*
X121132776Y-58521850D01*
X121132776Y-58521848D01*
X121091852Y-58369120D01*
X121050815Y-58298043D01*
X121012795Y-58232189D01*
X120900991Y-58120385D01*
X120900990Y-58120384D01*
X120896660Y-58116054D01*
X120896649Y-58116044D01*
X118523127Y-55742522D01*
X126509075Y-55742522D01*
X126509075Y-56076627D01*
X126541822Y-56409123D01*
X126541825Y-56409140D01*
X126607000Y-56736805D01*
X126607003Y-56736816D01*
X126607005Y-56736825D01*
X126607006Y-56736826D01*
X126613145Y-56757063D01*
X126703993Y-57056552D01*
X126831853Y-57365231D01*
X126831855Y-57365236D01*
X126989344Y-57659878D01*
X126989355Y-57659896D01*
X127174968Y-57937684D01*
X127174978Y-57937698D01*
X127386936Y-58195970D01*
X127623179Y-58432213D01*
X127623184Y-58432217D01*
X127623185Y-58432218D01*
X127881457Y-58644176D01*
X128159260Y-58829799D01*
X128159269Y-58829804D01*
X128159271Y-58829805D01*
X128453913Y-58987294D01*
X128453915Y-58987294D01*
X128453921Y-58987298D01*
X128762599Y-59115157D01*
X129082324Y-59212144D01*
X129082330Y-59212145D01*
X129082333Y-59212146D01*
X129082344Y-59212149D01*
X129287818Y-59253019D01*
X129410016Y-59277326D01*
X129742519Y-59310075D01*
X129742522Y-59310075D01*
X130076628Y-59310075D01*
X130076631Y-59310075D01*
X130409134Y-59277326D01*
X130571332Y-59245062D01*
X130736805Y-59212149D01*
X130736816Y-59212146D01*
X130736816Y-59212145D01*
X130736826Y-59212144D01*
X131056551Y-59115157D01*
X131365229Y-58987298D01*
X131659890Y-58829799D01*
X131937693Y-58644176D01*
X132195965Y-58432218D01*
X132432218Y-58195965D01*
X132644176Y-57937693D01*
X132829799Y-57659890D01*
X132987298Y-57365229D01*
X133115157Y-57056551D01*
X133212144Y-56736826D01*
X133212146Y-56736816D01*
X133212149Y-56736805D01*
X133273073Y-56430514D01*
X133277326Y-56409134D01*
X133310075Y-56076631D01*
X133310075Y-55742519D01*
X133277326Y-55410016D01*
X133245600Y-55250518D01*
X133212149Y-55082344D01*
X133212146Y-55082333D01*
X133212145Y-55082330D01*
X133212144Y-55082324D01*
X133115157Y-54762599D01*
X132987298Y-54453921D01*
X132957363Y-54397917D01*
X132829805Y-54159271D01*
X132829804Y-54159269D01*
X132829799Y-54159260D01*
X132644176Y-53881457D01*
X132432218Y-53623185D01*
X132432217Y-53623184D01*
X132432213Y-53623179D01*
X132195970Y-53386936D01*
X131937698Y-53174978D01*
X131937697Y-53174977D01*
X131937693Y-53174974D01*
X131659890Y-52989351D01*
X131659885Y-52989348D01*
X131659878Y-52989344D01*
X131365236Y-52831855D01*
X131365231Y-52831853D01*
X131305769Y-52807223D01*
X131274822Y-52794404D01*
X131056552Y-52703993D01*
X130736816Y-52607003D01*
X130736805Y-52607000D01*
X130409140Y-52541825D01*
X130409123Y-52541822D01*
X130157683Y-52517058D01*
X130076631Y-52509075D01*
X129742519Y-52509075D01*
X129667557Y-52516458D01*
X129410026Y-52541822D01*
X129410009Y-52541825D01*
X129082344Y-52607000D01*
X129082333Y-52607003D01*
X128762597Y-52703993D01*
X128453918Y-52831853D01*
X128453913Y-52831855D01*
X128159271Y-52989344D01*
X128159253Y-52989355D01*
X127881465Y-53174968D01*
X127881451Y-53174978D01*
X127623179Y-53386936D01*
X127386936Y-53623179D01*
X127174978Y-53881451D01*
X127174968Y-53881465D01*
X126989355Y-54159253D01*
X126989344Y-54159271D01*
X126831855Y-54453913D01*
X126831853Y-54453918D01*
X126703993Y-54762597D01*
X126607003Y-55082333D01*
X126607000Y-55082344D01*
X126541825Y-55410009D01*
X126541822Y-55410026D01*
X126509075Y-55742522D01*
X118523127Y-55742522D01*
X118312175Y-55531570D01*
X118278690Y-55470247D01*
X118283674Y-55400555D01*
X118312172Y-55356211D01*
X119390095Y-54278291D01*
X119469152Y-54141359D01*
X119510076Y-53988632D01*
X119510076Y-53830517D01*
X119510076Y-53830516D01*
X119510076Y-53822922D01*
X119510075Y-53822904D01*
X119510075Y-49787642D01*
X119529760Y-49720603D01*
X119546394Y-49699961D01*
X134675461Y-34570894D01*
X134736784Y-34537409D01*
X134763142Y-34534575D01*
X135138406Y-34534575D01*
X135138422Y-34534576D01*
X135146018Y-34534576D01*
X135304129Y-34534576D01*
X135304132Y-34534576D01*
X135456860Y-34493652D01*
X135506979Y-34464714D01*
X135593791Y-34414595D01*
X135705595Y-34302791D01*
X135705595Y-34302789D01*
X135715803Y-34292582D01*
X135715805Y-34292579D01*
X136310057Y-33698326D01*
X136371378Y-33664843D01*
X136436053Y-33668077D01*
X136531203Y-33698994D01*
X136755851Y-33734575D01*
X136755852Y-33734575D01*
X136983298Y-33734575D01*
X136983299Y-33734575D01*
X137207947Y-33698994D01*
X137207950Y-33698993D01*
X137207951Y-33698993D01*
X137424259Y-33628710D01*
X137424259Y-33628709D01*
X137424262Y-33628709D01*
X137626920Y-33525450D01*
X137810929Y-33391759D01*
X137971759Y-33230929D01*
X138039257Y-33138025D01*
X138094587Y-33095360D01*
X138164200Y-33089381D01*
X138225995Y-33121987D01*
X138239891Y-33138023D01*
X138307391Y-33230929D01*
X138468221Y-33391759D01*
X138652230Y-33525450D01*
X138741604Y-33570988D01*
X138854890Y-33628710D01*
X139071199Y-33698993D01*
X139071200Y-33698993D01*
X139071203Y-33698994D01*
X139295851Y-33734575D01*
X139295852Y-33734575D01*
X139523298Y-33734575D01*
X139523299Y-33734575D01*
X139747947Y-33698994D01*
X139747950Y-33698993D01*
X139747951Y-33698993D01*
X139964259Y-33628710D01*
X139964259Y-33628709D01*
X139964262Y-33628709D01*
X140166920Y-33525450D01*
X140350929Y-33391759D01*
X140511759Y-33230929D01*
X140579257Y-33138025D01*
X140634587Y-33095360D01*
X140704200Y-33089381D01*
X140765995Y-33121987D01*
X140779891Y-33138023D01*
X140847391Y-33230929D01*
X141008221Y-33391759D01*
X141192230Y-33525450D01*
X141281604Y-33570988D01*
X141394890Y-33628710D01*
X141611199Y-33698993D01*
X141611200Y-33698993D01*
X141611203Y-33698994D01*
X141835851Y-33734575D01*
X141835852Y-33734575D01*
X142063298Y-33734575D01*
X142063299Y-33734575D01*
X142287947Y-33698994D01*
X142287950Y-33698993D01*
X142287951Y-33698993D01*
X142504259Y-33628710D01*
X142504259Y-33628709D01*
X142504262Y-33628709D01*
X142706920Y-33525450D01*
X142890929Y-33391759D01*
X143051759Y-33230929D01*
X143119257Y-33138025D01*
X143174587Y-33095360D01*
X143244200Y-33089381D01*
X143305995Y-33121987D01*
X143319891Y-33138023D01*
X143387391Y-33230929D01*
X143548221Y-33391759D01*
X143732230Y-33525450D01*
X143821604Y-33570988D01*
X143934890Y-33628710D01*
X144151199Y-33698993D01*
X144151200Y-33698993D01*
X144151203Y-33698994D01*
X144375851Y-33734575D01*
X144375852Y-33734575D01*
X144603298Y-33734575D01*
X144603299Y-33734575D01*
X144827947Y-33698994D01*
X144827950Y-33698993D01*
X144827951Y-33698993D01*
X145044259Y-33628710D01*
X145044259Y-33628709D01*
X145044262Y-33628709D01*
X145246920Y-33525450D01*
X145430929Y-33391759D01*
X145591759Y-33230929D01*
X145659257Y-33138025D01*
X145714587Y-33095360D01*
X145784200Y-33089381D01*
X145845995Y-33121987D01*
X145859891Y-33138023D01*
X145927391Y-33230929D01*
X146088221Y-33391759D01*
X146272230Y-33525450D01*
X146361604Y-33570988D01*
X146474890Y-33628710D01*
X146691199Y-33698993D01*
X146691200Y-33698993D01*
X146691203Y-33698994D01*
X146915851Y-33734575D01*
X146915852Y-33734575D01*
X147143298Y-33734575D01*
X147143299Y-33734575D01*
X147367947Y-33698994D01*
X147367950Y-33698993D01*
X147367951Y-33698993D01*
X147584259Y-33628710D01*
X147584259Y-33628709D01*
X147584262Y-33628709D01*
X147786920Y-33525450D01*
X147802613Y-33514047D01*
X147868418Y-33490567D01*
X147936473Y-33506391D01*
X147985169Y-33556496D01*
X147999500Y-33614365D01*
X147999500Y-40579052D01*
X147979815Y-40646091D01*
X147963181Y-40666733D01*
X142509093Y-46120820D01*
X142447770Y-46154305D01*
X142383095Y-46151070D01*
X142287949Y-46120156D01*
X142287950Y-46120156D01*
X142119461Y-46093470D01*
X142063299Y-46084575D01*
X141835851Y-46084575D01*
X141760968Y-46096435D01*
X141611201Y-46120156D01*
X141611198Y-46120156D01*
X141394890Y-46190439D01*
X141192229Y-46293700D01*
X141087245Y-46369976D01*
X141008221Y-46427391D01*
X141008219Y-46427393D01*
X141008218Y-46427393D01*
X140847393Y-46588218D01*
X140847393Y-46588219D01*
X140847391Y-46588221D01*
X140816633Y-46630556D01*
X140779893Y-46681124D01*
X140724563Y-46723789D01*
X140654949Y-46729768D01*
X140593154Y-46697162D01*
X140579257Y-46681124D01*
X140511759Y-46588221D01*
X140350929Y-46427391D01*
X140166920Y-46293700D01*
X140130331Y-46275057D01*
X139964259Y-46190439D01*
X139747950Y-46120156D01*
X139579461Y-46093470D01*
X139523299Y-46084575D01*
X139295851Y-46084575D01*
X139220968Y-46096435D01*
X139071201Y-46120156D01*
X139071198Y-46120156D01*
X138854890Y-46190439D01*
X138652229Y-46293700D01*
X138547245Y-46369976D01*
X138468221Y-46427391D01*
X138468219Y-46427393D01*
X138468218Y-46427393D01*
X138307393Y-46588218D01*
X138307393Y-46588219D01*
X138307391Y-46588221D01*
X138276633Y-46630556D01*
X138239893Y-46681124D01*
X138184563Y-46723789D01*
X138114949Y-46729768D01*
X138053154Y-46697162D01*
X138039257Y-46681124D01*
X137971759Y-46588221D01*
X137810929Y-46427391D01*
X137626920Y-46293700D01*
X137590331Y-46275057D01*
X137424259Y-46190439D01*
X137207950Y-46120156D01*
X137039461Y-46093470D01*
X136983299Y-46084575D01*
X136755851Y-46084575D01*
X136680968Y-46096435D01*
X136531201Y-46120156D01*
X136531198Y-46120156D01*
X136314890Y-46190439D01*
X136112229Y-46293700D01*
X136007245Y-46369976D01*
X135928221Y-46427391D01*
X135928219Y-46427393D01*
X135928218Y-46427393D01*
X135767393Y-46588218D01*
X135767393Y-46588219D01*
X135767391Y-46588221D01*
X135736633Y-46630556D01*
X135699893Y-46681124D01*
X135644563Y-46723789D01*
X135574949Y-46729768D01*
X135513154Y-46697162D01*
X135499257Y-46681124D01*
X135431759Y-46588221D01*
X135270929Y-46427391D01*
X135086920Y-46293700D01*
X135050331Y-46275057D01*
X134884259Y-46190439D01*
X134667950Y-46120156D01*
X134499461Y-46093470D01*
X134443299Y-46084575D01*
X134215851Y-46084575D01*
X134140968Y-46096435D01*
X133991201Y-46120156D01*
X133991198Y-46120156D01*
X133774890Y-46190439D01*
X133572229Y-46293700D01*
X133467245Y-46369976D01*
X133388221Y-46427391D01*
X133388219Y-46427393D01*
X133388218Y-46427393D01*
X133227393Y-46588218D01*
X133227393Y-46588219D01*
X133227391Y-46588221D01*
X133196633Y-46630556D01*
X133159893Y-46681124D01*
X133104563Y-46723789D01*
X133034949Y-46729768D01*
X132973154Y-46697162D01*
X132959257Y-46681124D01*
X132891759Y-46588221D01*
X132730929Y-46427391D01*
X132546920Y-46293700D01*
X132510331Y-46275057D01*
X132344259Y-46190439D01*
X132127950Y-46120156D01*
X131959461Y-46093470D01*
X131903299Y-46084575D01*
X131675851Y-46084575D01*
X131600968Y-46096435D01*
X131451201Y-46120156D01*
X131451198Y-46120156D01*
X131234890Y-46190439D01*
X131032229Y-46293700D01*
X130927245Y-46369976D01*
X130848221Y-46427391D01*
X130848219Y-46427393D01*
X130848218Y-46427393D01*
X130687393Y-46588218D01*
X130687393Y-46588219D01*
X130687391Y-46588221D01*
X130656633Y-46630556D01*
X130553700Y-46772229D01*
X130450439Y-46974890D01*
X130380156Y-47191198D01*
X130380156Y-47191201D01*
X130344575Y-47415851D01*
X130344575Y-47643298D01*
X130380156Y-47867948D01*
X130380156Y-47867951D01*
X130450439Y-48084259D01*
X130519575Y-48219945D01*
X130553700Y-48286920D01*
X130687391Y-48470929D01*
X130848221Y-48631759D01*
X131032230Y-48765450D01*
X131189075Y-48845366D01*
X131234890Y-48868710D01*
X131451199Y-48938993D01*
X131451200Y-48938993D01*
X131451203Y-48938994D01*
X131675851Y-48974575D01*
X131675852Y-48974575D01*
X131903298Y-48974575D01*
X131903299Y-48974575D01*
X132127947Y-48938994D01*
X132127950Y-48938993D01*
X132127951Y-48938993D01*
X132344259Y-48868710D01*
X132344259Y-48868709D01*
X132344262Y-48868709D01*
X132546920Y-48765450D01*
X132730929Y-48631759D01*
X132891759Y-48470929D01*
X132959257Y-48378025D01*
X133014587Y-48335360D01*
X133084200Y-48329381D01*
X133145995Y-48361987D01*
X133159893Y-48378026D01*
X133221387Y-48462666D01*
X133227391Y-48470929D01*
X133388221Y-48631759D01*
X133572230Y-48765450D01*
X133729075Y-48845366D01*
X133774890Y-48868710D01*
X133991199Y-48938993D01*
X133991200Y-48938993D01*
X133991203Y-48938994D01*
X134215851Y-48974575D01*
X134215852Y-48974575D01*
X134443298Y-48974575D01*
X134443299Y-48974575D01*
X134667947Y-48938994D01*
X134667950Y-48938993D01*
X134667951Y-48938993D01*
X134884259Y-48868710D01*
X134884259Y-48868709D01*
X134884262Y-48868709D01*
X135086920Y-48765450D01*
X135270929Y-48631759D01*
X135431759Y-48470929D01*
X135499257Y-48378025D01*
X135554587Y-48335360D01*
X135624200Y-48329381D01*
X135685995Y-48361987D01*
X135699893Y-48378026D01*
X135761387Y-48462666D01*
X135767391Y-48470929D01*
X135928221Y-48631759D01*
X136066227Y-48732027D01*
X136112231Y-48765451D01*
X136148815Y-48784091D01*
X136201369Y-48810868D01*
X136252165Y-48858842D01*
X136269075Y-48921353D01*
X136269075Y-50649477D01*
X136249390Y-50716516D01*
X136232756Y-50737158D01*
X135354417Y-51615496D01*
X135293094Y-51648981D01*
X135228423Y-51645748D01*
X135214109Y-51641097D01*
X135039570Y-51613453D01*
X135011927Y-51609075D01*
X134807223Y-51609075D01*
X134782904Y-51612926D01*
X134605040Y-51641097D01*
X134410351Y-51704356D01*
X134227961Y-51797290D01*
X134062361Y-51917603D01*
X133917603Y-52062361D01*
X133797290Y-52227961D01*
X133704356Y-52410351D01*
X133641097Y-52605040D01*
X133609075Y-52807223D01*
X133609075Y-53011926D01*
X133641097Y-53214109D01*
X133704356Y-53408798D01*
X133768266Y-53534228D01*
X133791471Y-53579769D01*
X133797290Y-53591188D01*
X133917603Y-53756788D01*
X134062361Y-53901546D01*
X134182227Y-53988632D01*
X134227965Y-54021862D01*
X134323542Y-54070561D01*
X134410351Y-54114793D01*
X134410353Y-54114793D01*
X134410356Y-54114795D01*
X134514712Y-54148702D01*
X134605040Y-54178052D01*
X134687415Y-54191099D01*
X134807223Y-54210075D01*
X134807224Y-54210075D01*
X135011926Y-54210075D01*
X135011927Y-54210075D01*
X135214109Y-54178052D01*
X135408794Y-54114795D01*
X135591185Y-54021862D01*
X135717520Y-53930075D01*
X135756788Y-53901546D01*
X135756790Y-53901543D01*
X135756794Y-53901541D01*
X135901541Y-53756794D01*
X135901543Y-53756790D01*
X135901546Y-53756788D01*
X135995356Y-53627667D01*
X136021862Y-53591185D01*
X136114795Y-53408794D01*
X136178052Y-53214109D01*
X136210075Y-53011927D01*
X136210075Y-52807223D01*
X136181761Y-52628456D01*
X136178053Y-52605047D01*
X136178052Y-52605046D01*
X136178052Y-52605041D01*
X136173400Y-52590726D01*
X136171407Y-52520887D01*
X136203650Y-52464733D01*
X137350095Y-51318291D01*
X137429152Y-51181359D01*
X137470076Y-51028632D01*
X137470076Y-50870517D01*
X137470076Y-50862922D01*
X137470075Y-50862904D01*
X137470075Y-48921353D01*
X137489760Y-48854314D01*
X137537780Y-48810868D01*
X137626920Y-48765450D01*
X137810929Y-48631759D01*
X137971759Y-48470929D01*
X138039257Y-48378025D01*
X138094587Y-48335360D01*
X138164200Y-48329381D01*
X138225995Y-48361987D01*
X138239893Y-48378026D01*
X138301387Y-48462666D01*
X138307391Y-48470929D01*
X138468221Y-48631759D01*
X138652230Y-48765450D01*
X138809075Y-48845366D01*
X138854890Y-48868710D01*
X139071199Y-48938993D01*
X139071200Y-48938993D01*
X139071203Y-48938994D01*
X139295851Y-48974575D01*
X139295852Y-48974575D01*
X139523298Y-48974575D01*
X139523299Y-48974575D01*
X139747947Y-48938994D01*
X139747950Y-48938993D01*
X139747951Y-48938993D01*
X139964259Y-48868710D01*
X139964259Y-48868709D01*
X139964262Y-48868709D01*
X140166920Y-48765450D01*
X140350929Y-48631759D01*
X140511759Y-48470929D01*
X140579257Y-48378025D01*
X140634587Y-48335360D01*
X140704200Y-48329381D01*
X140765995Y-48361987D01*
X140779893Y-48378026D01*
X140841387Y-48462666D01*
X140847391Y-48470929D01*
X141008221Y-48631759D01*
X141192230Y-48765450D01*
X141349075Y-48845366D01*
X141394890Y-48868710D01*
X141611199Y-48938993D01*
X141611200Y-48938993D01*
X141611203Y-48938994D01*
X141835851Y-48974575D01*
X141835852Y-48974575D01*
X142063298Y-48974575D01*
X142063299Y-48974575D01*
X142287947Y-48938994D01*
X142287950Y-48938993D01*
X142287951Y-48938993D01*
X142504259Y-48868710D01*
X142504259Y-48868709D01*
X142504262Y-48868709D01*
X142706920Y-48765450D01*
X142890929Y-48631759D01*
X143051759Y-48470929D01*
X143057759Y-48462670D01*
X143113083Y-48420003D01*
X143182696Y-48414019D01*
X143210320Y-48428592D01*
X143235057Y-48430539D01*
X144006612Y-47658983D01*
X144023650Y-47722568D01*
X144089476Y-47836582D01*
X144182568Y-47929674D01*
X144296582Y-47995500D01*
X144360165Y-48012537D01*
X143588609Y-48784091D01*
X143680080Y-48850549D01*
X143896688Y-48960917D01*
X144127903Y-49036043D01*
X144368021Y-49074075D01*
X144611129Y-49074075D01*
X144851246Y-49036043D01*
X145082461Y-48960917D01*
X145299061Y-48850553D01*
X145299067Y-48850549D01*
X145390538Y-48784091D01*
X145390539Y-48784091D01*
X144618984Y-48012537D01*
X144682568Y-47995500D01*
X144796582Y-47929674D01*
X144889674Y-47836582D01*
X144955500Y-47722568D01*
X144972537Y-47658985D01*
X145744091Y-48430539D01*
X145764494Y-48428933D01*
X145776080Y-48419999D01*
X145845693Y-48414019D01*
X145907488Y-48446625D01*
X145921385Y-48462662D01*
X145927391Y-48470929D01*
X146088221Y-48631759D01*
X146272230Y-48765450D01*
X146429075Y-48845366D01*
X146474890Y-48868710D01*
X146691199Y-48938993D01*
X146691200Y-48938993D01*
X146691203Y-48938994D01*
X146915851Y-48974575D01*
X146915852Y-48974575D01*
X147143298Y-48974575D01*
X147143299Y-48974575D01*
X147367947Y-48938994D01*
X147367950Y-48938993D01*
X147367951Y-48938993D01*
X147584259Y-48868710D01*
X147584259Y-48868709D01*
X147584262Y-48868709D01*
X147786920Y-48765450D01*
X147970929Y-48631759D01*
X148131759Y-48470929D01*
X148265450Y-48286920D01*
X148368709Y-48084262D01*
X148418938Y-47929674D01*
X148438993Y-47867951D01*
X148438993Y-47867950D01*
X148438994Y-47867947D01*
X148474575Y-47643299D01*
X148474575Y-47415851D01*
X148438994Y-47191203D01*
X148438993Y-47191199D01*
X148438993Y-47191198D01*
X148368710Y-46974890D01*
X148368709Y-46974888D01*
X148265450Y-46772230D01*
X148131759Y-46588221D01*
X147970929Y-46427391D01*
X147786920Y-46293700D01*
X147750331Y-46275057D01*
X147584259Y-46190439D01*
X147367950Y-46120156D01*
X147199461Y-46093470D01*
X147143299Y-46084575D01*
X146915851Y-46084575D01*
X146840968Y-46096435D01*
X146691201Y-46120156D01*
X146691198Y-46120156D01*
X146474890Y-46190439D01*
X146272229Y-46293700D01*
X146167245Y-46369976D01*
X146088221Y-46427391D01*
X146088219Y-46427393D01*
X146088218Y-46427393D01*
X145927393Y-46588218D01*
X145927388Y-46588224D01*
X145921385Y-46596487D01*
X145866054Y-46639151D01*
X145796440Y-46645129D01*
X145768824Y-46630556D01*
X145744091Y-46628609D01*
X144972537Y-47400164D01*
X144955500Y-47336582D01*
X144889674Y-47222568D01*
X144796582Y-47129476D01*
X144682568Y-47063650D01*
X144618983Y-47046612D01*
X145390539Y-46275057D01*
X145299069Y-46208600D01*
X145082461Y-46098232D01*
X144851246Y-46023105D01*
X144620293Y-45986526D01*
X144557158Y-45956597D01*
X144520227Y-45897285D01*
X144521225Y-45827423D01*
X144552006Y-45776377D01*
X148697396Y-41630988D01*
X148758717Y-41597505D01*
X148828409Y-41602489D01*
X148884342Y-41644361D01*
X148908759Y-41709825D01*
X148909075Y-41718671D01*
X148909075Y-87285075D01*
X148889390Y-87352114D01*
X148836586Y-87397869D01*
X148785075Y-87409075D01*
X108779090Y-87409075D01*
X108712051Y-87389390D01*
X108666296Y-87336586D01*
X108656352Y-87267428D01*
X108685377Y-87203872D01*
X108731637Y-87170514D01*
X108955654Y-87077723D01*
X109250315Y-86920224D01*
X109528118Y-86734601D01*
X109786390Y-86522643D01*
X110022643Y-86286390D01*
X110234601Y-86028118D01*
X110420224Y-85750315D01*
X110577723Y-85455654D01*
X110705582Y-85146976D01*
X110802569Y-84827251D01*
X110802571Y-84827241D01*
X110802574Y-84827230D01*
X110863725Y-84519797D01*
X110867751Y-84499559D01*
X110887470Y-84299353D01*
X144509075Y-84299353D01*
X144509075Y-84519796D01*
X144543560Y-84737527D01*
X144611678Y-84947178D01*
X144611679Y-84947181D01*
X144711762Y-85143600D01*
X144841327Y-85321933D01*
X144841331Y-85321938D01*
X144997211Y-85477818D01*
X144997216Y-85477822D01*
X145152767Y-85590835D01*
X145175553Y-85607390D01*
X145303950Y-85672812D01*
X145371968Y-85707470D01*
X145371971Y-85707471D01*
X145476796Y-85741530D01*
X145581624Y-85775590D01*
X145799353Y-85810075D01*
X145799354Y-85810075D01*
X146019796Y-85810075D01*
X146019797Y-85810075D01*
X146237526Y-85775590D01*
X146447181Y-85707470D01*
X146643597Y-85607390D01*
X146821940Y-85477817D01*
X146977817Y-85321940D01*
X147107390Y-85143597D01*
X147207470Y-84947181D01*
X147275590Y-84737526D01*
X147310075Y-84519797D01*
X147310075Y-84299353D01*
X147275590Y-84081624D01*
X147207470Y-83871969D01*
X147207470Y-83871968D01*
X147172812Y-83803950D01*
X147107390Y-83675553D01*
X146980172Y-83500451D01*
X146977822Y-83497216D01*
X146977818Y-83497211D01*
X146821938Y-83341331D01*
X146821933Y-83341327D01*
X146643600Y-83211762D01*
X146643599Y-83211761D01*
X146643597Y-83211760D01*
X146567052Y-83172758D01*
X146447181Y-83111679D01*
X146447178Y-83111678D01*
X146237527Y-83043560D01*
X146128661Y-83026317D01*
X146019797Y-83009075D01*
X145799353Y-83009075D01*
X145726776Y-83020570D01*
X145581622Y-83043560D01*
X145371971Y-83111678D01*
X145371968Y-83111679D01*
X145175549Y-83211762D01*
X144997216Y-83341327D01*
X144997211Y-83341331D01*
X144841331Y-83497211D01*
X144841327Y-83497216D01*
X144711762Y-83675549D01*
X144611679Y-83871968D01*
X144611678Y-83871971D01*
X144543560Y-84081622D01*
X144509075Y-84299353D01*
X110887470Y-84299353D01*
X110900500Y-84167056D01*
X110900500Y-83832944D01*
X110867751Y-83500441D01*
X110843444Y-83378243D01*
X110802574Y-83172769D01*
X110802571Y-83172758D01*
X110802570Y-83172755D01*
X110802569Y-83172749D01*
X110705582Y-82853024D01*
X110577723Y-82544346D01*
X110420224Y-82249685D01*
X110234601Y-81971882D01*
X110022643Y-81713610D01*
X110022642Y-81713609D01*
X110022638Y-81713604D01*
X109786395Y-81477361D01*
X109528123Y-81265403D01*
X109528122Y-81265402D01*
X109528118Y-81265399D01*
X109250315Y-81079776D01*
X109250310Y-81079773D01*
X109250303Y-81079769D01*
X108955661Y-80922280D01*
X108955656Y-80922278D01*
X108646977Y-80794418D01*
X108327241Y-80697428D01*
X108327230Y-80697425D01*
X107999565Y-80632250D01*
X107999548Y-80632247D01*
X107748108Y-80607483D01*
X107667056Y-80599500D01*
X107332944Y-80599500D01*
X107257982Y-80606883D01*
X107000451Y-80632247D01*
X107000434Y-80632250D01*
X106672769Y-80697425D01*
X106672758Y-80697428D01*
X106353022Y-80794418D01*
X106044343Y-80922278D01*
X106044338Y-80922280D01*
X105749696Y-81079769D01*
X105749678Y-81079780D01*
X105471890Y-81265393D01*
X105471876Y-81265403D01*
X105213604Y-81477361D01*
X104977361Y-81713604D01*
X104765403Y-81971876D01*
X104765393Y-81971890D01*
X104579780Y-82249678D01*
X104579769Y-82249696D01*
X104422280Y-82544338D01*
X104422278Y-82544343D01*
X104294418Y-82853022D01*
X104197428Y-83172758D01*
X104197425Y-83172769D01*
X104132250Y-83500434D01*
X104132247Y-83500451D01*
X104099500Y-83832947D01*
X104099500Y-84167052D01*
X104132247Y-84499548D01*
X104132250Y-84499565D01*
X104197425Y-84827230D01*
X104197428Y-84827241D01*
X104294418Y-85146977D01*
X104422278Y-85455656D01*
X104422280Y-85455661D01*
X104579769Y-85750303D01*
X104579780Y-85750321D01*
X104765393Y-86028109D01*
X104765403Y-86028123D01*
X104977361Y-86286395D01*
X105213604Y-86522638D01*
X105213609Y-86522642D01*
X105213610Y-86522643D01*
X105471882Y-86734601D01*
X105749685Y-86920224D01*
X105749694Y-86920229D01*
X105749696Y-86920230D01*
X106044338Y-87077719D01*
X106044340Y-87077719D01*
X106044346Y-87077723D01*
X106268363Y-87170514D01*
X106322766Y-87214355D01*
X106344831Y-87280649D01*
X106327552Y-87348349D01*
X106276414Y-87395959D01*
X106220910Y-87409075D01*
X65124000Y-87409075D01*
X65056961Y-87389390D01*
X65011206Y-87336586D01*
X65000000Y-87285075D01*
X65000000Y-84299353D01*
X66509075Y-84299353D01*
X66509075Y-84519796D01*
X66543560Y-84737527D01*
X66611678Y-84947178D01*
X66611679Y-84947181D01*
X66711762Y-85143600D01*
X66841327Y-85321933D01*
X66841331Y-85321938D01*
X66997211Y-85477818D01*
X66997216Y-85477822D01*
X67152767Y-85590835D01*
X67175553Y-85607390D01*
X67303950Y-85672812D01*
X67371968Y-85707470D01*
X67371971Y-85707471D01*
X67476796Y-85741530D01*
X67581624Y-85775590D01*
X67799353Y-85810075D01*
X67799354Y-85810075D01*
X68019796Y-85810075D01*
X68019797Y-85810075D01*
X68237526Y-85775590D01*
X68447181Y-85707470D01*
X68643597Y-85607390D01*
X68821940Y-85477817D01*
X68977817Y-85321940D01*
X69107390Y-85143597D01*
X69207470Y-84947181D01*
X69275590Y-84737526D01*
X69310075Y-84519797D01*
X69310075Y-84299353D01*
X69275590Y-84081624D01*
X69207470Y-83871969D01*
X69207470Y-83871968D01*
X69172812Y-83803950D01*
X69107390Y-83675553D01*
X68980172Y-83500451D01*
X68977822Y-83497216D01*
X68977818Y-83497211D01*
X68821938Y-83341331D01*
X68821933Y-83341327D01*
X68643600Y-83211762D01*
X68643599Y-83211761D01*
X68643597Y-83211760D01*
X68567052Y-83172758D01*
X68447181Y-83111679D01*
X68447178Y-83111678D01*
X68237527Y-83043560D01*
X68128661Y-83026317D01*
X68019797Y-83009075D01*
X67799353Y-83009075D01*
X67726776Y-83020570D01*
X67581622Y-83043560D01*
X67371971Y-83111678D01*
X67371968Y-83111679D01*
X67175549Y-83211762D01*
X66997216Y-83341327D01*
X66997211Y-83341331D01*
X66841331Y-83497211D01*
X66841327Y-83497216D01*
X66711762Y-83675549D01*
X66611679Y-83871968D01*
X66611678Y-83871971D01*
X66543560Y-84081622D01*
X66509075Y-84299353D01*
X65000000Y-84299353D01*
X65000000Y-80316477D01*
X71354075Y-80316477D01*
X71354075Y-80552672D01*
X71391021Y-80785943D01*
X71464008Y-81010571D01*
X71571232Y-81221008D01*
X71710058Y-81412085D01*
X71877065Y-81579092D01*
X72068142Y-81717918D01*
X72167566Y-81768577D01*
X72278578Y-81825141D01*
X72278580Y-81825141D01*
X72278583Y-81825143D01*
X72398987Y-81864264D01*
X72503206Y-81898128D01*
X72736478Y-81935075D01*
X72736483Y-81935075D01*
X72972672Y-81935075D01*
X73205943Y-81898128D01*
X73430567Y-81825143D01*
X73641008Y-81717918D01*
X73832085Y-81579092D01*
X73999092Y-81412085D01*
X74024257Y-81377447D01*
X74079586Y-81334782D01*
X74149200Y-81328803D01*
X74210995Y-81361408D01*
X74224890Y-81377445D01*
X74250058Y-81412085D01*
X74417065Y-81579092D01*
X74608142Y-81717918D01*
X74707566Y-81768577D01*
X74818578Y-81825141D01*
X74818580Y-81825141D01*
X74818583Y-81825143D01*
X74938987Y-81864264D01*
X75043206Y-81898128D01*
X75276478Y-81935075D01*
X75276483Y-81935075D01*
X75512672Y-81935075D01*
X75745943Y-81898128D01*
X75970567Y-81825143D01*
X76181008Y-81717918D01*
X76372085Y-81579092D01*
X76539092Y-81412085D01*
X76564257Y-81377447D01*
X76619586Y-81334782D01*
X76689200Y-81328803D01*
X76750995Y-81361408D01*
X76764890Y-81377445D01*
X76790058Y-81412085D01*
X76957065Y-81579092D01*
X77148142Y-81717918D01*
X77247566Y-81768577D01*
X77358578Y-81825141D01*
X77358580Y-81825141D01*
X77358583Y-81825143D01*
X77478987Y-81864264D01*
X77583206Y-81898128D01*
X77816478Y-81935075D01*
X77816483Y-81935075D01*
X78052672Y-81935075D01*
X78285943Y-81898128D01*
X78510567Y-81825143D01*
X78721008Y-81717918D01*
X78912085Y-81579092D01*
X79079092Y-81412085D01*
X79217918Y-81221008D01*
X79325143Y-81010567D01*
X79398128Y-80785943D01*
X79412147Y-80697431D01*
X79435075Y-80552672D01*
X79435075Y-80316477D01*
X79398128Y-80083206D01*
X79325141Y-79858578D01*
X79217917Y-79648141D01*
X79149185Y-79553540D01*
X79079092Y-79457065D01*
X78912085Y-79290058D01*
X78721008Y-79151232D01*
X78678186Y-79129413D01*
X78510571Y-79044008D01*
X78285943Y-78971021D01*
X78052672Y-78934075D01*
X78052667Y-78934075D01*
X77816483Y-78934075D01*
X77816478Y-78934075D01*
X77583206Y-78971021D01*
X77358578Y-79044008D01*
X77297805Y-79074975D01*
X77241510Y-79088490D01*
X77115518Y-79088490D01*
X76962791Y-79129413D01*
X76962784Y-79129416D01*
X76825865Y-79208465D01*
X76825857Y-79208471D01*
X76714056Y-79320272D01*
X76714050Y-79320280D01*
X76680743Y-79377969D01*
X76630176Y-79426184D01*
X76561569Y-79439406D01*
X76496704Y-79413438D01*
X76485676Y-79403649D01*
X76372087Y-79290060D01*
X76372085Y-79290058D01*
X76181008Y-79151232D01*
X76138186Y-79129413D01*
X75970571Y-79044008D01*
X75745943Y-78971021D01*
X75512672Y-78934075D01*
X75512667Y-78934075D01*
X75276483Y-78934075D01*
X75276478Y-78934075D01*
X75043206Y-78971021D01*
X74818578Y-79044008D01*
X74608141Y-79151232D01*
X74499125Y-79230437D01*
X74417065Y-79290058D01*
X74417063Y-79290060D01*
X74417062Y-79290060D01*
X74250059Y-79457063D01*
X74224893Y-79491702D01*
X74169562Y-79534367D01*
X74099949Y-79540346D01*
X74038154Y-79507740D01*
X74024257Y-79491702D01*
X73999194Y-79457206D01*
X73999092Y-79457065D01*
X73832085Y-79290058D01*
X73641008Y-79151232D01*
X73598186Y-79129413D01*
X73430571Y-79044008D01*
X73205943Y-78971021D01*
X72972672Y-78934075D01*
X72972667Y-78934075D01*
X72736483Y-78934075D01*
X72736478Y-78934075D01*
X72503206Y-78971021D01*
X72278578Y-79044008D01*
X72068141Y-79151232D01*
X71959125Y-79230437D01*
X71877065Y-79290058D01*
X71877063Y-79290060D01*
X71877062Y-79290060D01*
X71710060Y-79457062D01*
X71710060Y-79457063D01*
X71710058Y-79457065D01*
X71653895Y-79534367D01*
X71571232Y-79648141D01*
X71464008Y-79858578D01*
X71391021Y-80083206D01*
X71354075Y-80316477D01*
X65000000Y-80316477D01*
X65000000Y-56332944D01*
X73099500Y-56332944D01*
X73099500Y-56667056D01*
X73105807Y-56731092D01*
X73132247Y-56999548D01*
X73132250Y-56999565D01*
X73197425Y-57327230D01*
X73197428Y-57327241D01*
X73294418Y-57646977D01*
X73422278Y-57955656D01*
X73422280Y-57955661D01*
X73579769Y-58250303D01*
X73579773Y-58250310D01*
X73579776Y-58250315D01*
X73761209Y-58521848D01*
X73765393Y-58528109D01*
X73765403Y-58528123D01*
X73977361Y-58786395D01*
X74213604Y-59022638D01*
X74213609Y-59022642D01*
X74213610Y-59022643D01*
X74471882Y-59234601D01*
X74749685Y-59420224D01*
X74749694Y-59420229D01*
X74749696Y-59420230D01*
X75044338Y-59577719D01*
X75044340Y-59577719D01*
X75044346Y-59577723D01*
X75353024Y-59705582D01*
X75672749Y-59802569D01*
X75672755Y-59802570D01*
X75672758Y-59802571D01*
X75672769Y-59802574D01*
X75878243Y-59843444D01*
X76000441Y-59867751D01*
X76332944Y-59900500D01*
X76332947Y-59900500D01*
X76667053Y-59900500D01*
X76667056Y-59900500D01*
X76999559Y-59867751D01*
X77161757Y-59835487D01*
X77327230Y-59802574D01*
X77327241Y-59802571D01*
X77327241Y-59802570D01*
X77327251Y-59802569D01*
X77646976Y-59705582D01*
X77955654Y-59577723D01*
X78250315Y-59420224D01*
X78528118Y-59234601D01*
X78786390Y-59022643D01*
X79022643Y-58786390D01*
X79234601Y-58528118D01*
X79420224Y-58250315D01*
X79577723Y-57955654D01*
X79705582Y-57646976D01*
X79802569Y-57327251D01*
X79802571Y-57327241D01*
X79802574Y-57327230D01*
X79847757Y-57100074D01*
X79867751Y-56999559D01*
X79900500Y-56667056D01*
X79900500Y-56332944D01*
X79867751Y-56000441D01*
X79816448Y-55742522D01*
X79802574Y-55672769D01*
X79802571Y-55672758D01*
X79802570Y-55672755D01*
X79802569Y-55672749D01*
X79705582Y-55353024D01*
X79577723Y-55044346D01*
X79533098Y-54960859D01*
X79420230Y-54749696D01*
X79420229Y-54749694D01*
X79420224Y-54749685D01*
X79234601Y-54471882D01*
X79022643Y-54213610D01*
X79022642Y-54213609D01*
X79022638Y-54213604D01*
X78786395Y-53977361D01*
X78528123Y-53765403D01*
X78528122Y-53765402D01*
X78528118Y-53765399D01*
X78250315Y-53579776D01*
X78250310Y-53579773D01*
X78250303Y-53579769D01*
X77955661Y-53422280D01*
X77955656Y-53422278D01*
X77646977Y-53294418D01*
X77327241Y-53197428D01*
X77327230Y-53197425D01*
X76999565Y-53132250D01*
X76999548Y-53132247D01*
X76748108Y-53107483D01*
X76667056Y-53099500D01*
X76332944Y-53099500D01*
X76257982Y-53106883D01*
X76000451Y-53132247D01*
X76000434Y-53132250D01*
X75672769Y-53197425D01*
X75672758Y-53197428D01*
X75353022Y-53294418D01*
X75044343Y-53422278D01*
X75044338Y-53422280D01*
X74749696Y-53579769D01*
X74749678Y-53579780D01*
X74471890Y-53765393D01*
X74471876Y-53765403D01*
X74213604Y-53977361D01*
X73977361Y-54213604D01*
X73765403Y-54471876D01*
X73765393Y-54471890D01*
X73579780Y-54749678D01*
X73579769Y-54749696D01*
X73422280Y-55044338D01*
X73422278Y-55044343D01*
X73294418Y-55353022D01*
X73197428Y-55672758D01*
X73197425Y-55672769D01*
X73132250Y-56000434D01*
X73132247Y-56000451D01*
X73109238Y-56234075D01*
X73099500Y-56332944D01*
X65000000Y-56332944D01*
X65000000Y-24299353D01*
X66509075Y-24299353D01*
X66509075Y-24519796D01*
X66543560Y-24737527D01*
X66611678Y-24947178D01*
X66611679Y-24947181D01*
X66679697Y-25080671D01*
X66707632Y-25135496D01*
X66711762Y-25143600D01*
X66841327Y-25321933D01*
X66841331Y-25321938D01*
X66997211Y-25477818D01*
X66997216Y-25477822D01*
X67048037Y-25514745D01*
X67175553Y-25607390D01*
X67303950Y-25672812D01*
X67371968Y-25707470D01*
X67371971Y-25707471D01*
X67454043Y-25734137D01*
X67581624Y-25775590D01*
X67799353Y-25810075D01*
X67799354Y-25810075D01*
X68019796Y-25810075D01*
X68019797Y-25810075D01*
X68237526Y-25775590D01*
X68447181Y-25707470D01*
X68643597Y-25607390D01*
X68821940Y-25477817D01*
X68977817Y-25321940D01*
X69107390Y-25143597D01*
X69207470Y-24947181D01*
X69275590Y-24737526D01*
X69310075Y-24519797D01*
X69310075Y-24299353D01*
X69275590Y-24081624D01*
X69207470Y-23871969D01*
X69207470Y-23871968D01*
X69148869Y-23756960D01*
X69107390Y-23675553D01*
X69090835Y-23652767D01*
X68977822Y-23497216D01*
X68977818Y-23497211D01*
X68821938Y-23341331D01*
X68821933Y-23341327D01*
X68643600Y-23211762D01*
X68643599Y-23211761D01*
X68643597Y-23211760D01*
X68580671Y-23179697D01*
X68447181Y-23111679D01*
X68447178Y-23111678D01*
X68237527Y-23043560D01*
X68099861Y-23021756D01*
X68019797Y-23009075D01*
X67799353Y-23009075D01*
X67760189Y-23015278D01*
X67581622Y-23043560D01*
X67371971Y-23111678D01*
X67371968Y-23111679D01*
X67175549Y-23211762D01*
X66997216Y-23341327D01*
X66997211Y-23341331D01*
X66841331Y-23497211D01*
X66841327Y-23497216D01*
X66711762Y-23675549D01*
X66611679Y-23871968D01*
X66611678Y-23871971D01*
X66543560Y-24081622D01*
X66509075Y-24299353D01*
X65000000Y-24299353D01*
X65000000Y-21624000D01*
X65019685Y-21556961D01*
X65072489Y-21511206D01*
X65124000Y-21500000D01*
X112955669Y-21500000D01*
X113022708Y-21519685D01*
G37*
%TD.AperFunction*%
%TA.AperFunction,Conductor*%
G36*
X80022546Y-34254760D02*
G01*
X80065991Y-34302778D01*
X80126232Y-34421008D01*
X80265058Y-34612085D01*
X80432065Y-34779092D01*
X80623142Y-34917918D01*
X80684291Y-34949075D01*
X80833578Y-35025141D01*
X80833580Y-35025141D01*
X80833583Y-35025143D01*
X80925867Y-35055128D01*
X81058206Y-35098128D01*
X81291478Y-35135075D01*
X81291483Y-35135075D01*
X81527672Y-35135075D01*
X81760943Y-35098128D01*
X81794043Y-35087373D01*
X81985567Y-35025143D01*
X82196008Y-34917918D01*
X82387085Y-34779092D01*
X82554092Y-34612085D01*
X82579257Y-34577447D01*
X82634586Y-34534782D01*
X82704200Y-34528803D01*
X82765995Y-34561408D01*
X82779890Y-34577445D01*
X82805058Y-34612085D01*
X82972065Y-34779092D01*
X83163142Y-34917918D01*
X83224291Y-34949075D01*
X83373578Y-35025141D01*
X83373580Y-35025141D01*
X83373583Y-35025143D01*
X83465867Y-35055128D01*
X83598206Y-35098128D01*
X83831478Y-35135075D01*
X83831483Y-35135075D01*
X84067672Y-35135075D01*
X84173701Y-35118280D01*
X84300943Y-35098128D01*
X84427141Y-35057122D01*
X84496979Y-35055128D01*
X84553138Y-35087373D01*
X92794814Y-43329049D01*
X92794824Y-43329060D01*
X92799154Y-43333390D01*
X92799155Y-43333391D01*
X92910959Y-43445195D01*
X92997770Y-43495314D01*
X92997772Y-43495316D01*
X93035826Y-43517286D01*
X93047890Y-43524252D01*
X93200618Y-43565176D01*
X93200621Y-43565176D01*
X93366328Y-43565176D01*
X93366344Y-43565175D01*
X93420943Y-43565175D01*
X100164578Y-43565175D01*
X100231617Y-43584860D01*
X100252259Y-43601494D01*
X104685564Y-48034799D01*
X104685574Y-48034810D01*
X104689904Y-48039140D01*
X104689905Y-48039141D01*
X104801709Y-48150945D01*
X104801711Y-48150946D01*
X104801715Y-48150949D01*
X104938634Y-48229998D01*
X104938641Y-48230002D01*
X105050444Y-48259959D01*
X105091367Y-48270925D01*
X105091368Y-48270925D01*
X108370328Y-48270925D01*
X108437367Y-48290610D01*
X108458008Y-48307243D01*
X113960859Y-53810095D01*
X113960861Y-53810096D01*
X113960865Y-53810099D01*
X114097784Y-53889148D01*
X114097791Y-53889152D01*
X114250518Y-53930076D01*
X114250520Y-53930076D01*
X114416229Y-53930076D01*
X114416245Y-53930075D01*
X114660478Y-53930075D01*
X114727517Y-53949760D01*
X114773272Y-54002564D01*
X114783216Y-54071722D01*
X114754191Y-54135278D01*
X114748162Y-54141752D01*
X114354637Y-54535277D01*
X114040861Y-54849053D01*
X113929056Y-54960857D01*
X113929050Y-54960865D01*
X113893249Y-55022876D01*
X113893249Y-55022878D01*
X113849998Y-55097789D01*
X113849653Y-55099076D01*
X113809074Y-55250518D01*
X113809074Y-55250520D01*
X113809074Y-55418621D01*
X113809075Y-55418634D01*
X113809075Y-56422905D01*
X113809074Y-56422923D01*
X113809074Y-56588629D01*
X113809073Y-56588629D01*
X113849998Y-56741360D01*
X113878933Y-56791475D01*
X113878934Y-56791479D01*
X113878935Y-56791479D01*
X113929054Y-56878289D01*
X113929056Y-56878292D01*
X114047924Y-56997160D01*
X114047930Y-56997165D01*
X114172658Y-57121893D01*
X114206143Y-57183216D01*
X114201159Y-57252908D01*
X114172658Y-57297255D01*
X110421066Y-61048847D01*
X110395386Y-61068553D01*
X110310859Y-61117355D01*
X110310856Y-61117357D01*
X110199056Y-61229157D01*
X110199050Y-61229165D01*
X110120001Y-61366084D01*
X110119998Y-61366091D01*
X110079075Y-61518818D01*
X110079075Y-61560514D01*
X110079074Y-61560518D01*
X110079074Y-61718632D01*
X110079075Y-61718635D01*
X110079075Y-74398256D01*
X110059390Y-74465295D01*
X110006586Y-74511050D01*
X109974472Y-74520729D01*
X109954275Y-74523927D01*
X109954274Y-74523927D01*
X109907859Y-74547577D01*
X109841233Y-74581525D01*
X109841232Y-74581526D01*
X109841227Y-74581529D01*
X109751529Y-74671227D01*
X109751526Y-74671232D01*
X109693927Y-74784273D01*
X109679075Y-74878050D01*
X109679075Y-76941092D01*
X109689867Y-77009232D01*
X109693929Y-77034879D01*
X109751525Y-77147917D01*
X109751527Y-77147919D01*
X109751529Y-77147922D01*
X109841227Y-77237620D01*
X109841229Y-77237621D01*
X109841233Y-77237625D01*
X109954269Y-77295220D01*
X109954273Y-77295222D01*
X110048050Y-77310074D01*
X110048056Y-77310075D01*
X110670479Y-77310074D01*
X110737517Y-77329758D01*
X110783272Y-77382562D01*
X110793216Y-77451721D01*
X110764191Y-77515277D01*
X110758159Y-77521755D01*
X110507159Y-77772756D01*
X110445836Y-77806241D01*
X110419478Y-77809075D01*
X95709672Y-77809075D01*
X95642633Y-77789390D01*
X95621991Y-77772756D01*
X94806654Y-76957419D01*
X99419575Y-76957419D01*
X99425976Y-77016947D01*
X99425978Y-77016954D01*
X99476220Y-77151661D01*
X99476224Y-77151668D01*
X99562384Y-77266762D01*
X99562387Y-77266765D01*
X99677481Y-77352925D01*
X99677488Y-77352929D01*
X99812195Y-77403171D01*
X99812202Y-77403173D01*
X99871730Y-77409574D01*
X99871747Y-77409575D01*
X100269575Y-77409575D01*
X100769575Y-77409575D01*
X101167403Y-77409575D01*
X101167419Y-77409574D01*
X101226947Y-77403173D01*
X101226954Y-77403171D01*
X101361661Y-77352929D01*
X101361668Y-77352925D01*
X101476762Y-77266765D01*
X101476765Y-77266762D01*
X101562925Y-77151668D01*
X101562929Y-77151661D01*
X101613171Y-77016954D01*
X101613173Y-77016947D01*
X101619574Y-76957419D01*
X101959575Y-76957419D01*
X101965976Y-77016947D01*
X101965978Y-77016954D01*
X102016220Y-77151661D01*
X102016224Y-77151668D01*
X102102384Y-77266762D01*
X102102387Y-77266765D01*
X102217481Y-77352925D01*
X102217488Y-77352929D01*
X102352195Y-77403171D01*
X102352202Y-77403173D01*
X102411730Y-77409574D01*
X102411747Y-77409575D01*
X102809575Y-77409575D01*
X103309575Y-77409575D01*
X103707403Y-77409575D01*
X103707419Y-77409574D01*
X103766947Y-77403173D01*
X103766954Y-77403171D01*
X103901661Y-77352929D01*
X103901668Y-77352925D01*
X104016762Y-77266765D01*
X104016765Y-77266762D01*
X104102925Y-77151668D01*
X104102929Y-77151661D01*
X104153171Y-77016954D01*
X104153173Y-77016947D01*
X104159574Y-76957419D01*
X104499575Y-76957419D01*
X104505976Y-77016947D01*
X104505978Y-77016954D01*
X104556220Y-77151661D01*
X104556224Y-77151668D01*
X104642384Y-77266762D01*
X104642387Y-77266765D01*
X104757481Y-77352925D01*
X104757488Y-77352929D01*
X104892195Y-77403171D01*
X104892202Y-77403173D01*
X104951730Y-77409574D01*
X104951747Y-77409575D01*
X105349575Y-77409575D01*
X105849575Y-77409575D01*
X106247403Y-77409575D01*
X106247419Y-77409574D01*
X106306947Y-77403173D01*
X106306954Y-77403171D01*
X106441661Y-77352929D01*
X106441668Y-77352925D01*
X106556762Y-77266765D01*
X106556765Y-77266762D01*
X106642925Y-77151668D01*
X106642929Y-77151661D01*
X106693171Y-77016954D01*
X106693173Y-77016947D01*
X106699574Y-76957419D01*
X106699575Y-76957402D01*
X106699575Y-76159575D01*
X105849575Y-76159575D01*
X105849575Y-77409575D01*
X105349575Y-77409575D01*
X105349575Y-76159575D01*
X104499575Y-76159575D01*
X104499575Y-76957419D01*
X104159574Y-76957419D01*
X104159575Y-76957402D01*
X104159575Y-76159575D01*
X103309575Y-76159575D01*
X103309575Y-77409575D01*
X102809575Y-77409575D01*
X102809575Y-76159575D01*
X101959575Y-76159575D01*
X101959575Y-76957419D01*
X101619574Y-76957419D01*
X101619575Y-76957402D01*
X101619575Y-76159575D01*
X100769575Y-76159575D01*
X100769575Y-77409575D01*
X100269575Y-77409575D01*
X100269575Y-76159575D01*
X99419575Y-76159575D01*
X99419575Y-76957419D01*
X94806654Y-76957419D01*
X92710965Y-74861730D01*
X99419575Y-74861730D01*
X99419575Y-75659575D01*
X100269575Y-75659575D01*
X100769575Y-75659575D01*
X101619575Y-75659575D01*
X101619575Y-74861747D01*
X101619574Y-74861730D01*
X101959575Y-74861730D01*
X101959575Y-75659575D01*
X102809575Y-75659575D01*
X103309575Y-75659575D01*
X104159575Y-75659575D01*
X104159575Y-74861747D01*
X104159574Y-74861730D01*
X104499575Y-74861730D01*
X104499575Y-75659575D01*
X105349575Y-75659575D01*
X105849575Y-75659575D01*
X106699575Y-75659575D01*
X106699575Y-74878050D01*
X107139075Y-74878050D01*
X107139075Y-76941092D01*
X107149867Y-77009232D01*
X107153929Y-77034879D01*
X107211525Y-77147917D01*
X107211527Y-77147919D01*
X107211529Y-77147922D01*
X107301227Y-77237620D01*
X107301229Y-77237621D01*
X107301233Y-77237625D01*
X107414269Y-77295220D01*
X107414273Y-77295222D01*
X107508050Y-77310074D01*
X107508056Y-77310075D01*
X108771093Y-77310074D01*
X108864879Y-77295221D01*
X108977917Y-77237625D01*
X109067625Y-77147917D01*
X109125221Y-77034879D01*
X109125221Y-77034877D01*
X109125222Y-77034876D01*
X109140074Y-76941099D01*
X109140075Y-76941094D01*
X109140074Y-74878057D01*
X109125221Y-74784271D01*
X109067625Y-74671233D01*
X109067621Y-74671229D01*
X109067620Y-74671227D01*
X108977922Y-74581529D01*
X108977919Y-74581527D01*
X108977917Y-74581525D01*
X108901092Y-74542380D01*
X108864876Y-74523927D01*
X108771099Y-74509075D01*
X107508057Y-74509075D01*
X107427094Y-74521898D01*
X107414271Y-74523929D01*
X107301233Y-74581525D01*
X107301232Y-74581526D01*
X107301227Y-74581529D01*
X107211529Y-74671227D01*
X107211526Y-74671232D01*
X107153927Y-74784273D01*
X107139075Y-74878050D01*
X106699575Y-74878050D01*
X106699575Y-74861747D01*
X106699574Y-74861730D01*
X106693173Y-74802202D01*
X106693171Y-74802195D01*
X106642929Y-74667488D01*
X106642925Y-74667481D01*
X106556765Y-74552387D01*
X106556762Y-74552384D01*
X106441668Y-74466224D01*
X106441661Y-74466220D01*
X106306954Y-74415978D01*
X106306947Y-74415976D01*
X106247419Y-74409575D01*
X105849575Y-74409575D01*
X105849575Y-75659575D01*
X105349575Y-75659575D01*
X105349575Y-74409575D01*
X104951730Y-74409575D01*
X104892202Y-74415976D01*
X104892195Y-74415978D01*
X104757488Y-74466220D01*
X104757481Y-74466224D01*
X104642387Y-74552384D01*
X104642384Y-74552387D01*
X104556224Y-74667481D01*
X104556220Y-74667488D01*
X104505978Y-74802195D01*
X104505976Y-74802202D01*
X104499575Y-74861730D01*
X104159574Y-74861730D01*
X104153173Y-74802202D01*
X104153171Y-74802195D01*
X104102929Y-74667488D01*
X104102925Y-74667481D01*
X104016765Y-74552387D01*
X104016762Y-74552384D01*
X103901668Y-74466224D01*
X103901661Y-74466220D01*
X103766954Y-74415978D01*
X103766947Y-74415976D01*
X103707419Y-74409575D01*
X103309575Y-74409575D01*
X103309575Y-75659575D01*
X102809575Y-75659575D01*
X102809575Y-74409575D01*
X102411730Y-74409575D01*
X102352202Y-74415976D01*
X102352195Y-74415978D01*
X102217488Y-74466220D01*
X102217481Y-74466224D01*
X102102387Y-74552384D01*
X102102384Y-74552387D01*
X102016224Y-74667481D01*
X102016220Y-74667488D01*
X101965978Y-74802195D01*
X101965976Y-74802202D01*
X101959575Y-74861730D01*
X101619574Y-74861730D01*
X101613173Y-74802202D01*
X101613171Y-74802195D01*
X101562929Y-74667488D01*
X101562925Y-74667481D01*
X101476765Y-74552387D01*
X101476762Y-74552384D01*
X101361668Y-74466224D01*
X101361661Y-74466220D01*
X101226954Y-74415978D01*
X101226947Y-74415976D01*
X101167419Y-74409575D01*
X100769575Y-74409575D01*
X100769575Y-75659575D01*
X100269575Y-75659575D01*
X100269575Y-74409575D01*
X99871730Y-74409575D01*
X99812202Y-74415976D01*
X99812195Y-74415978D01*
X99677488Y-74466220D01*
X99677481Y-74466224D01*
X99562387Y-74552384D01*
X99562384Y-74552387D01*
X99476224Y-74667481D01*
X99476220Y-74667488D01*
X99425978Y-74802195D01*
X99425976Y-74802202D01*
X99419575Y-74861730D01*
X92710965Y-74861730D01*
X88033810Y-70184575D01*
X90354227Y-70184575D01*
X91501563Y-70184575D01*
X91468650Y-70241582D01*
X91434575Y-70368749D01*
X91434575Y-70500401D01*
X91468650Y-70627568D01*
X91501563Y-70684575D01*
X90354227Y-70684575D01*
X90373972Y-70809243D01*
X90373972Y-70809246D01*
X90451794Y-71048759D01*
X90566132Y-71273158D01*
X90714165Y-71476906D01*
X90714165Y-71476907D01*
X90892242Y-71654984D01*
X91095991Y-71803017D01*
X91320390Y-71917355D01*
X91559904Y-71995177D01*
X91684575Y-72014923D01*
X91684575Y-70867587D01*
X91741582Y-70900500D01*
X91868749Y-70934575D01*
X92000401Y-70934575D01*
X92127568Y-70900500D01*
X92184575Y-70867587D01*
X92184575Y-72014922D01*
X92309243Y-71995177D01*
X92309246Y-71995177D01*
X92548759Y-71917355D01*
X92773158Y-71803017D01*
X92976906Y-71654984D01*
X92976907Y-71654984D01*
X93154984Y-71476907D01*
X93154984Y-71476906D01*
X93303017Y-71273158D01*
X93417355Y-71048759D01*
X93495177Y-70809246D01*
X93495177Y-70809243D01*
X93514923Y-70684575D01*
X92367587Y-70684575D01*
X92400500Y-70627568D01*
X92434575Y-70500401D01*
X92434575Y-70368749D01*
X92400500Y-70241582D01*
X92367587Y-70184575D01*
X93514923Y-70184575D01*
X93495177Y-70059906D01*
X93495177Y-70059903D01*
X93417355Y-69820390D01*
X93303017Y-69595991D01*
X93154984Y-69392243D01*
X93154984Y-69392242D01*
X92976901Y-69214159D01*
X92955420Y-69198553D01*
X92912753Y-69143224D01*
X92906773Y-69073610D01*
X92939378Y-69011815D01*
X92940484Y-69010692D01*
X93079092Y-68872085D01*
X93217918Y-68681008D01*
X93325143Y-68470567D01*
X93398128Y-68245943D01*
X93416049Y-68132793D01*
X93435075Y-68012672D01*
X93435075Y-67776477D01*
X93398128Y-67543206D01*
X93325141Y-67318578D01*
X93217917Y-67108141D01*
X93079092Y-66917065D01*
X92912085Y-66750058D01*
X92877447Y-66724892D01*
X92834782Y-66669564D01*
X92828803Y-66599950D01*
X92861408Y-66538155D01*
X92877448Y-66524257D01*
X92912085Y-66499092D01*
X93079092Y-66332085D01*
X93217918Y-66141008D01*
X93325143Y-65930567D01*
X93398128Y-65705943D01*
X93402005Y-65681467D01*
X93435075Y-65472672D01*
X93435075Y-65236477D01*
X93398128Y-65003206D01*
X93325141Y-64778578D01*
X93217917Y-64568141D01*
X93079092Y-64377065D01*
X92912085Y-64210058D01*
X92877447Y-64184892D01*
X92834782Y-64129564D01*
X92828803Y-64059950D01*
X92861408Y-63998155D01*
X92877448Y-63984257D01*
X92912085Y-63959092D01*
X93079092Y-63792085D01*
X93217918Y-63601008D01*
X93325143Y-63390567D01*
X93398128Y-63165943D01*
X93407280Y-63108158D01*
X93435075Y-62932672D01*
X93435075Y-62696477D01*
X93398128Y-62463206D01*
X93335213Y-62269576D01*
X93325143Y-62238583D01*
X93325141Y-62238580D01*
X93325141Y-62238578D01*
X93217917Y-62028141D01*
X93079092Y-61837065D01*
X92912085Y-61670058D01*
X92877447Y-61644892D01*
X92834782Y-61589564D01*
X92828803Y-61519950D01*
X92861408Y-61458155D01*
X92877448Y-61444257D01*
X92895707Y-61430991D01*
X92912085Y-61419092D01*
X93079092Y-61252085D01*
X93217918Y-61061008D01*
X93325143Y-60850567D01*
X93398128Y-60625943D01*
X93435075Y-60392672D01*
X93435075Y-60156477D01*
X93398128Y-59923206D01*
X93327417Y-59705582D01*
X93325143Y-59698583D01*
X93325141Y-59698580D01*
X93325141Y-59698578D01*
X93263560Y-59577719D01*
X93217918Y-59488142D01*
X93079092Y-59297065D01*
X93069446Y-59287419D01*
X99909575Y-59287419D01*
X99915976Y-59346947D01*
X99915978Y-59346954D01*
X99966220Y-59481661D01*
X99966224Y-59481668D01*
X100052384Y-59596762D01*
X100052387Y-59596765D01*
X100167481Y-59682925D01*
X100167488Y-59682929D01*
X100302195Y-59733171D01*
X100302202Y-59733173D01*
X100361730Y-59739574D01*
X100361747Y-59739575D01*
X101159575Y-59739575D01*
X101659575Y-59739575D01*
X102457403Y-59739575D01*
X102457419Y-59739574D01*
X102516947Y-59733173D01*
X102516954Y-59733171D01*
X102651661Y-59682929D01*
X102651668Y-59682925D01*
X102766762Y-59596765D01*
X102766765Y-59596762D01*
X102852925Y-59481668D01*
X102852929Y-59481661D01*
X102903171Y-59346954D01*
X102903173Y-59346947D01*
X102909574Y-59287419D01*
X102909575Y-59287402D01*
X102909575Y-58889575D01*
X101659575Y-58889575D01*
X101659575Y-59739575D01*
X101159575Y-59739575D01*
X101159575Y-58889575D01*
X99909575Y-58889575D01*
X99909575Y-59287419D01*
X93069446Y-59287419D01*
X92912085Y-59130058D01*
X92877447Y-59104892D01*
X92864785Y-59088472D01*
X92848614Y-59075492D01*
X92843881Y-59061363D01*
X92834782Y-59049564D01*
X92833007Y-59028903D01*
X92826421Y-59009241D01*
X92830078Y-58994795D01*
X92828803Y-58979950D01*
X92838479Y-58961609D01*
X92843569Y-58941508D01*
X92856709Y-58927059D01*
X92861408Y-58918155D01*
X92865662Y-58913984D01*
X92871253Y-58908758D01*
X92912085Y-58879092D01*
X93079092Y-58712085D01*
X93217918Y-58521008D01*
X93325143Y-58310567D01*
X93398128Y-58085943D01*
X93401608Y-58063969D01*
X93413050Y-57991730D01*
X99909575Y-57991730D01*
X99909575Y-58389575D01*
X101159575Y-58389575D01*
X101659575Y-58389575D01*
X102909575Y-58389575D01*
X102909575Y-57991747D01*
X102909574Y-57991730D01*
X102903173Y-57932202D01*
X102903171Y-57932195D01*
X102852929Y-57797488D01*
X102852925Y-57797481D01*
X102766765Y-57682387D01*
X102766762Y-57682384D01*
X102651668Y-57596224D01*
X102651661Y-57596220D01*
X102516954Y-57545978D01*
X102516947Y-57545976D01*
X102457419Y-57539575D01*
X101659575Y-57539575D01*
X101659575Y-58389575D01*
X101159575Y-58389575D01*
X101159575Y-57539575D01*
X100361730Y-57539575D01*
X100302202Y-57545976D01*
X100302195Y-57545978D01*
X100167488Y-57596220D01*
X100167481Y-57596224D01*
X100052387Y-57682384D01*
X100052384Y-57682387D01*
X99966224Y-57797481D01*
X99966220Y-57797488D01*
X99915978Y-57932195D01*
X99915976Y-57932202D01*
X99909575Y-57991730D01*
X93413050Y-57991730D01*
X93416646Y-57969028D01*
X93435075Y-57852672D01*
X93435075Y-57616477D01*
X93398128Y-57383206D01*
X93333288Y-57183651D01*
X93325143Y-57158583D01*
X93325141Y-57158580D01*
X93325141Y-57158578D01*
X93268577Y-57047566D01*
X93217918Y-56948142D01*
X93079092Y-56757065D01*
X92912085Y-56590058D01*
X92721008Y-56451232D01*
X92510571Y-56344008D01*
X92285943Y-56271021D01*
X92052672Y-56234075D01*
X92052667Y-56234075D01*
X91816483Y-56234075D01*
X91816478Y-56234075D01*
X91583206Y-56271021D01*
X91358578Y-56344008D01*
X91148141Y-56451232D01*
X91039125Y-56530437D01*
X90957065Y-56590058D01*
X90957063Y-56590060D01*
X90957062Y-56590060D01*
X90790060Y-56757062D01*
X90790060Y-56757063D01*
X90790058Y-56757065D01*
X90760522Y-56797718D01*
X90651232Y-56948141D01*
X90544008Y-57158578D01*
X90471021Y-57383206D01*
X90434075Y-57616477D01*
X90434075Y-57852672D01*
X90471021Y-58085943D01*
X90544008Y-58310571D01*
X90605991Y-58432218D01*
X90651232Y-58521008D01*
X90790058Y-58712085D01*
X90957065Y-58879092D01*
X90991702Y-58904258D01*
X91034367Y-58959588D01*
X91040346Y-59029201D01*
X91007740Y-59090996D01*
X90991705Y-59104890D01*
X90978713Y-59114330D01*
X90957063Y-59130059D01*
X90790060Y-59297062D01*
X90790060Y-59297063D01*
X90790058Y-59297065D01*
X90730437Y-59379125D01*
X90651232Y-59488141D01*
X90544008Y-59698578D01*
X90471021Y-59923206D01*
X90434075Y-60156477D01*
X90434075Y-60392672D01*
X90471021Y-60625943D01*
X90544008Y-60850571D01*
X90616403Y-60992652D01*
X90651232Y-61061008D01*
X90790058Y-61252085D01*
X90957065Y-61419092D01*
X90991702Y-61444258D01*
X91034367Y-61499588D01*
X91040346Y-61569201D01*
X91007740Y-61630996D01*
X90991705Y-61644890D01*
X90977254Y-61655390D01*
X90957063Y-61670059D01*
X90790060Y-61837062D01*
X90790060Y-61837063D01*
X90790058Y-61837065D01*
X90766510Y-61869476D01*
X90651232Y-62028141D01*
X90544008Y-62238578D01*
X90471021Y-62463206D01*
X90434075Y-62696477D01*
X90434075Y-62932672D01*
X90471021Y-63165943D01*
X90544008Y-63390571D01*
X90632286Y-63563825D01*
X90651232Y-63601008D01*
X90790058Y-63792085D01*
X90957065Y-63959092D01*
X90991702Y-63984258D01*
X91034367Y-64039588D01*
X91040346Y-64109201D01*
X91007740Y-64170996D01*
X90991705Y-64184890D01*
X90985512Y-64189390D01*
X90957063Y-64210059D01*
X90790060Y-64377062D01*
X90790060Y-64377063D01*
X90790058Y-64377065D01*
X90743709Y-64440859D01*
X90651232Y-64568141D01*
X90544008Y-64778578D01*
X90471021Y-65003206D01*
X90434075Y-65236477D01*
X90434075Y-65472672D01*
X90471021Y-65705943D01*
X90544008Y-65930571D01*
X90607383Y-66054950D01*
X90651232Y-66141008D01*
X90790058Y-66332085D01*
X90957065Y-66499092D01*
X90991702Y-66524258D01*
X91034367Y-66579588D01*
X91040346Y-66649201D01*
X91007740Y-66710996D01*
X90991705Y-66724890D01*
X90973940Y-66737797D01*
X90957063Y-66750059D01*
X90790060Y-66917062D01*
X90790060Y-66917063D01*
X90790058Y-66917065D01*
X90731105Y-66998206D01*
X90651232Y-67108141D01*
X90544008Y-67318578D01*
X90471021Y-67543206D01*
X90434075Y-67776477D01*
X90434075Y-68012672D01*
X90471021Y-68245943D01*
X90544008Y-68470571D01*
X90607383Y-68594950D01*
X90651232Y-68681008D01*
X90790058Y-68872085D01*
X90790060Y-68872087D01*
X90928526Y-69010553D01*
X90962011Y-69071876D01*
X90957027Y-69141568D01*
X90915155Y-69197501D01*
X90913733Y-69198550D01*
X90892248Y-69214160D01*
X90892242Y-69214165D01*
X90714165Y-69392242D01*
X90714165Y-69392243D01*
X90566132Y-69595991D01*
X90451794Y-69820390D01*
X90373972Y-70059903D01*
X90373972Y-70059906D01*
X90354227Y-70184575D01*
X88033810Y-70184575D01*
X87546394Y-69697159D01*
X87512909Y-69635836D01*
X87510075Y-69609478D01*
X87510075Y-55468050D01*
X100009075Y-55468050D01*
X100009075Y-56731092D01*
X100013189Y-56757065D01*
X100023929Y-56824879D01*
X100081525Y-56937917D01*
X100081527Y-56937919D01*
X100081529Y-56937922D01*
X100171227Y-57027620D01*
X100171229Y-57027621D01*
X100171233Y-57027625D01*
X100284269Y-57085220D01*
X100284273Y-57085222D01*
X100378050Y-57100074D01*
X100378056Y-57100075D01*
X102441093Y-57100074D01*
X102534879Y-57085221D01*
X102647917Y-57027625D01*
X102737625Y-56937917D01*
X102795221Y-56824879D01*
X102795221Y-56824877D01*
X102795222Y-56824876D01*
X102810074Y-56731099D01*
X102810075Y-56731094D01*
X102810074Y-55468057D01*
X102795221Y-55374271D01*
X102737625Y-55261233D01*
X102737621Y-55261229D01*
X102737620Y-55261227D01*
X102647922Y-55171529D01*
X102647919Y-55171527D01*
X102647917Y-55171525D01*
X102571092Y-55132380D01*
X102534876Y-55113927D01*
X102441099Y-55099075D01*
X100378057Y-55099075D01*
X100297094Y-55111898D01*
X100284271Y-55113929D01*
X100171233Y-55171525D01*
X100171232Y-55171526D01*
X100171227Y-55171529D01*
X100081529Y-55261227D01*
X100081526Y-55261232D01*
X100023927Y-55374273D01*
X100009075Y-55468050D01*
X87510075Y-55468050D01*
X87510075Y-53830520D01*
X87510074Y-53830517D01*
X87495325Y-53775469D01*
X87469152Y-53677790D01*
X87440214Y-53627670D01*
X87390095Y-53540859D01*
X87278291Y-53429055D01*
X87278290Y-53429054D01*
X87273960Y-53424724D01*
X87273949Y-53424714D01*
X86777285Y-52928050D01*
X100009075Y-52928050D01*
X100009075Y-54191092D01*
X100019613Y-54257625D01*
X100023929Y-54284879D01*
X100081525Y-54397917D01*
X100081527Y-54397919D01*
X100081529Y-54397922D01*
X100171227Y-54487620D01*
X100171229Y-54487621D01*
X100171233Y-54487625D01*
X100264755Y-54535277D01*
X100284273Y-54545222D01*
X100378050Y-54560074D01*
X100378056Y-54560075D01*
X102441093Y-54560074D01*
X102534879Y-54545221D01*
X102647917Y-54487625D01*
X102737625Y-54397917D01*
X102795221Y-54284879D01*
X102795221Y-54284877D01*
X102795222Y-54284876D01*
X102807069Y-54210075D01*
X102810075Y-54191094D01*
X102810074Y-52928057D01*
X102795221Y-52834271D01*
X102737625Y-52721233D01*
X102737621Y-52721229D01*
X102737620Y-52721227D01*
X102647922Y-52631529D01*
X102647919Y-52631527D01*
X102647917Y-52631525D01*
X102567851Y-52590729D01*
X102534876Y-52573927D01*
X102441099Y-52559075D01*
X100378057Y-52559075D01*
X100297094Y-52571898D01*
X100284271Y-52573929D01*
X100171233Y-52631525D01*
X100171232Y-52631526D01*
X100171227Y-52631529D01*
X100081529Y-52721227D01*
X100081526Y-52721232D01*
X100081525Y-52721233D01*
X100062326Y-52758912D01*
X100023927Y-52834273D01*
X100009075Y-52928050D01*
X86777285Y-52928050D01*
X84237285Y-50388050D01*
X100009075Y-50388050D01*
X100009075Y-51651092D01*
X100017511Y-51704355D01*
X100023929Y-51744879D01*
X100081525Y-51857917D01*
X100081527Y-51857919D01*
X100081529Y-51857922D01*
X100171227Y-51947620D01*
X100171229Y-51947621D01*
X100171233Y-51947625D01*
X100262027Y-51993887D01*
X100284273Y-52005222D01*
X100378050Y-52020074D01*
X100378056Y-52020075D01*
X102441093Y-52020074D01*
X102534879Y-52005221D01*
X102647917Y-51947625D01*
X102737625Y-51857917D01*
X102795221Y-51744879D01*
X102795221Y-51744877D01*
X102795222Y-51744876D01*
X102810074Y-51651099D01*
X102810075Y-51651094D01*
X102810074Y-50388057D01*
X102795221Y-50294271D01*
X102737625Y-50181233D01*
X102737621Y-50181229D01*
X102737620Y-50181227D01*
X102647922Y-50091529D01*
X102647919Y-50091527D01*
X102647917Y-50091525D01*
X102571092Y-50052380D01*
X102534876Y-50033927D01*
X102441099Y-50019075D01*
X100378057Y-50019075D01*
X100297094Y-50031898D01*
X100284271Y-50033929D01*
X100171233Y-50091525D01*
X100171232Y-50091526D01*
X100171227Y-50091529D01*
X100081529Y-50181227D01*
X100081526Y-50181232D01*
X100023927Y-50294273D01*
X100009075Y-50388050D01*
X84237285Y-50388050D01*
X77136819Y-43287584D01*
X77103334Y-43226261D01*
X77100500Y-43199903D01*
X77100500Y-39073646D01*
X77834575Y-39073646D01*
X77834575Y-39325503D01*
X77873972Y-39574244D01*
X77951794Y-39813759D01*
X78066132Y-40038158D01*
X78140323Y-40140272D01*
X78140323Y-40140273D01*
X78951612Y-39328984D01*
X78968650Y-39392568D01*
X79034476Y-39506582D01*
X79127568Y-39599674D01*
X79241582Y-39665500D01*
X79305165Y-39682537D01*
X78493875Y-40493825D01*
X78595991Y-40568017D01*
X78820390Y-40682355D01*
X79059905Y-40760177D01*
X79308647Y-40799575D01*
X79560503Y-40799575D01*
X79809243Y-40760178D01*
X80003349Y-40697109D01*
X80073190Y-40695114D01*
X80133023Y-40731194D01*
X80163851Y-40793895D01*
X80155886Y-40863309D01*
X80152152Y-40871335D01*
X80044009Y-41083578D01*
X79971021Y-41308206D01*
X79934075Y-41541477D01*
X79934075Y-41777672D01*
X79971021Y-42010943D01*
X80044008Y-42235571D01*
X80128988Y-42402352D01*
X80151232Y-42446008D01*
X80290058Y-42637085D01*
X80457065Y-42804092D01*
X80648142Y-42942918D01*
X80724085Y-42981613D01*
X80858578Y-43050141D01*
X80858580Y-43050141D01*
X80858583Y-43050143D01*
X80978987Y-43089264D01*
X81083206Y-43123128D01*
X81316478Y-43160075D01*
X81316483Y-43160075D01*
X81552672Y-43160075D01*
X81785943Y-43123128D01*
X82010567Y-43050143D01*
X82221008Y-42942918D01*
X82412085Y-42804092D01*
X82579092Y-42637085D01*
X82579094Y-42637081D01*
X82580181Y-42635995D01*
X82641504Y-42602510D01*
X82677591Y-42600058D01*
X82680323Y-42600273D01*
X83491612Y-41788984D01*
X83508650Y-41852568D01*
X83574476Y-41966582D01*
X83667568Y-42059674D01*
X83781582Y-42125500D01*
X83845165Y-42142537D01*
X83033875Y-42953825D01*
X83135991Y-43028017D01*
X83360390Y-43142355D01*
X83599905Y-43220177D01*
X83848647Y-43259575D01*
X84100503Y-43259575D01*
X84349244Y-43220177D01*
X84588759Y-43142355D01*
X84813150Y-43028021D01*
X84813156Y-43028017D01*
X84915272Y-42953825D01*
X84915273Y-42953825D01*
X84103984Y-42142537D01*
X84167568Y-42125500D01*
X84281582Y-42059674D01*
X84374674Y-41966582D01*
X84440500Y-41852568D01*
X84457537Y-41788985D01*
X85268823Y-42600271D01*
X85271555Y-42600057D01*
X85339933Y-42614420D01*
X85368967Y-42635994D01*
X85370058Y-42637085D01*
X85537065Y-42804092D01*
X85728142Y-42942918D01*
X85804085Y-42981613D01*
X85938578Y-43050141D01*
X85938580Y-43050141D01*
X85938583Y-43050143D01*
X86058987Y-43089264D01*
X86163206Y-43123128D01*
X86396478Y-43160075D01*
X86396483Y-43160075D01*
X86632672Y-43160075D01*
X86865943Y-43123128D01*
X87090567Y-43050143D01*
X87301008Y-42942918D01*
X87492085Y-42804092D01*
X87659092Y-42637085D01*
X87797918Y-42446008D01*
X87905143Y-42235567D01*
X87978128Y-42010943D01*
X87980579Y-41995466D01*
X88015075Y-41777672D01*
X88015075Y-41541477D01*
X87978128Y-41308206D01*
X87905141Y-41083578D01*
X87797917Y-40873141D01*
X87744468Y-40799575D01*
X87659092Y-40682065D01*
X87492085Y-40515058D01*
X87301008Y-40376232D01*
X87200984Y-40325267D01*
X87090571Y-40269008D01*
X86865943Y-40196021D01*
X86632672Y-40159075D01*
X86632667Y-40159075D01*
X86396483Y-40159075D01*
X86396478Y-40159075D01*
X86163206Y-40196021D01*
X85938578Y-40269008D01*
X85728141Y-40376232D01*
X85625292Y-40450957D01*
X85537065Y-40515058D01*
X85537063Y-40515060D01*
X85537061Y-40515061D01*
X85368968Y-40683154D01*
X85307645Y-40716639D01*
X85271558Y-40719091D01*
X85268825Y-40718875D01*
X84457537Y-41530164D01*
X84440500Y-41466582D01*
X84374674Y-41352568D01*
X84281582Y-41259476D01*
X84167568Y-41193650D01*
X84103983Y-41176612D01*
X84915273Y-40365323D01*
X84813158Y-40291132D01*
X84588759Y-40176794D01*
X84349244Y-40098972D01*
X84100503Y-40059575D01*
X83848647Y-40059575D01*
X83599905Y-40098972D01*
X83360390Y-40176794D01*
X83135988Y-40291134D01*
X83033876Y-40365322D01*
X83033875Y-40365323D01*
X83845165Y-41176612D01*
X83781582Y-41193650D01*
X83667568Y-41259476D01*
X83574476Y-41352568D01*
X83508650Y-41466582D01*
X83491612Y-41530165D01*
X82680323Y-40718875D01*
X82677591Y-40719091D01*
X82609213Y-40704727D01*
X82580181Y-40683154D01*
X82412084Y-40515057D01*
X82411127Y-40514362D01*
X82221008Y-40376232D01*
X82120984Y-40325267D01*
X82010571Y-40269008D01*
X81785943Y-40196021D01*
X81552672Y-40159075D01*
X81552667Y-40159075D01*
X81316483Y-40159075D01*
X81316478Y-40159075D01*
X81083205Y-40196022D01*
X81083202Y-40196022D01*
X80929251Y-40246045D01*
X80859410Y-40248040D01*
X80799577Y-40211960D01*
X80768749Y-40149259D01*
X80776714Y-40079845D01*
X80790617Y-40055226D01*
X80803016Y-40038160D01*
X80917355Y-39813759D01*
X80995177Y-39574244D01*
X81034575Y-39325503D01*
X81034575Y-39073646D01*
X80995177Y-38824905D01*
X80917355Y-38585390D01*
X80803017Y-38360991D01*
X80728825Y-38258876D01*
X80728825Y-38258875D01*
X79917537Y-39070165D01*
X79900500Y-39006582D01*
X79834674Y-38892568D01*
X79741582Y-38799476D01*
X79627568Y-38733650D01*
X79563983Y-38716612D01*
X80375273Y-37905323D01*
X80375058Y-37902591D01*
X80389422Y-37834213D01*
X80410995Y-37805181D01*
X80412081Y-37804094D01*
X80412085Y-37804092D01*
X80579092Y-37637085D01*
X80717918Y-37446008D01*
X80825143Y-37235567D01*
X80898128Y-37010943D01*
X80916315Y-36896115D01*
X80935075Y-36777672D01*
X80935075Y-36541477D01*
X80898128Y-36308206D01*
X80864264Y-36203987D01*
X80825143Y-36083583D01*
X80825141Y-36083580D01*
X80825141Y-36083578D01*
X80736736Y-35910075D01*
X80717918Y-35873142D01*
X80579092Y-35682065D01*
X80412085Y-35515058D01*
X80221008Y-35376232D01*
X80197826Y-35364420D01*
X80010571Y-35269008D01*
X79785943Y-35196021D01*
X79552672Y-35159075D01*
X79552667Y-35159075D01*
X79316483Y-35159075D01*
X79316478Y-35159075D01*
X79083206Y-35196021D01*
X78858578Y-35269008D01*
X78648141Y-35376232D01*
X78633201Y-35387087D01*
X78457065Y-35515058D01*
X78457063Y-35515060D01*
X78457062Y-35515060D01*
X78290060Y-35682062D01*
X78290060Y-35682063D01*
X78290058Y-35682065D01*
X78230437Y-35764125D01*
X78151232Y-35873141D01*
X78044008Y-36083578D01*
X77971021Y-36308206D01*
X77934075Y-36541477D01*
X77934075Y-36777672D01*
X77971021Y-37010943D01*
X78044008Y-37235571D01*
X78136532Y-37417158D01*
X78151232Y-37446008D01*
X78290058Y-37637085D01*
X78290060Y-37637087D01*
X78458154Y-37805181D01*
X78491639Y-37866504D01*
X78494091Y-37902591D01*
X78493875Y-37905323D01*
X79305165Y-38716612D01*
X79241582Y-38733650D01*
X79127568Y-38799476D01*
X79034476Y-38892568D01*
X78968650Y-39006582D01*
X78951612Y-39070165D01*
X78140323Y-38258875D01*
X78140322Y-38258876D01*
X78066134Y-38360988D01*
X77951794Y-38585390D01*
X77873972Y-38824905D01*
X77834575Y-39073646D01*
X77100500Y-39073646D01*
X77100500Y-36300097D01*
X77120185Y-36233058D01*
X77136819Y-36212416D01*
X79077841Y-34271394D01*
X79139164Y-34237909D01*
X79165522Y-34235075D01*
X79955507Y-34235075D01*
X80022546Y-34254760D01*
G37*
%TD.AperFunction*%
%TA.AperFunction,Conductor*%
G36*
X118816978Y-58866659D02*
G01*
X118823456Y-58872691D01*
X119095456Y-59144691D01*
X119128941Y-59206014D01*
X119131775Y-59232372D01*
X119131775Y-60418397D01*
X119131774Y-60418415D01*
X119131774Y-60584121D01*
X119131773Y-60584121D01*
X119172698Y-60736852D01*
X119201633Y-60786967D01*
X119201634Y-60786971D01*
X119201635Y-60786971D01*
X119238351Y-60850567D01*
X119251754Y-60873781D01*
X119251756Y-60873784D01*
X119370624Y-60992652D01*
X119370630Y-60992657D01*
X126047756Y-67669783D01*
X126062459Y-67696710D01*
X126079052Y-67722529D01*
X126079943Y-67728729D01*
X126081241Y-67731106D01*
X126084075Y-67757464D01*
X126084075Y-67967069D01*
X126084074Y-67967087D01*
X126084074Y-68132793D01*
X126084073Y-68132793D01*
X126084934Y-68136008D01*
X126124998Y-68285524D01*
X126145551Y-68321122D01*
X126148995Y-68327087D01*
X126204054Y-68422453D01*
X126204056Y-68422456D01*
X126322924Y-68541324D01*
X126322930Y-68541329D01*
X126965087Y-69183486D01*
X126998572Y-69244809D01*
X126995337Y-69309485D01*
X126921022Y-69538202D01*
X126921022Y-69538205D01*
X126884075Y-69771477D01*
X126884075Y-70007672D01*
X126921021Y-70240943D01*
X126994008Y-70465571D01*
X127101232Y-70676008D01*
X127240058Y-70867085D01*
X127240060Y-70867087D01*
X127408154Y-71035181D01*
X127441639Y-71096504D01*
X127444091Y-71132591D01*
X127443875Y-71135323D01*
X128255165Y-71946612D01*
X128191582Y-71963650D01*
X128077568Y-72029476D01*
X127984476Y-72122568D01*
X127918650Y-72236582D01*
X127901612Y-72300165D01*
X127090323Y-71488875D01*
X127090322Y-71488876D01*
X127016134Y-71590988D01*
X126901794Y-71815390D01*
X126823972Y-72054905D01*
X126784575Y-72303646D01*
X126784575Y-72555503D01*
X126823972Y-72804244D01*
X126901794Y-73043759D01*
X127016132Y-73268158D01*
X127090323Y-73370272D01*
X127090323Y-73370273D01*
X127901612Y-72558984D01*
X127918650Y-72622568D01*
X127984476Y-72736582D01*
X128077568Y-72829674D01*
X128191582Y-72895500D01*
X128255165Y-72912537D01*
X127443875Y-73723825D01*
X127444091Y-73726558D01*
X127429727Y-73794936D01*
X127408154Y-73823968D01*
X127240061Y-73992061D01*
X127240060Y-73992063D01*
X127240058Y-73992065D01*
X127180437Y-74074125D01*
X127101232Y-74183141D01*
X126994008Y-74393578D01*
X126921021Y-74618206D01*
X126884075Y-74851477D01*
X126884075Y-75087672D01*
X126921021Y-75320943D01*
X126994008Y-75545571D01*
X127101232Y-75756008D01*
X127240058Y-75947085D01*
X127407065Y-76114092D01*
X127441702Y-76139258D01*
X127484367Y-76194588D01*
X127490346Y-76264201D01*
X127457740Y-76325996D01*
X127441705Y-76339890D01*
X127423940Y-76352797D01*
X127407063Y-76365059D01*
X127240060Y-76532062D01*
X127240060Y-76532063D01*
X127240058Y-76532065D01*
X127180437Y-76614125D01*
X127101232Y-76723141D01*
X127075063Y-76774502D01*
X127040124Y-76843071D01*
X126992152Y-76893866D01*
X126929641Y-76910775D01*
X119424075Y-76910775D01*
X119357036Y-76891090D01*
X119311281Y-76838286D01*
X119300075Y-76786775D01*
X119300074Y-74878057D01*
X119295864Y-74851477D01*
X119285221Y-74784271D01*
X119227625Y-74671233D01*
X119227621Y-74671229D01*
X119227620Y-74671227D01*
X119137922Y-74581529D01*
X119137919Y-74581527D01*
X119137917Y-74581525D01*
X119024879Y-74523929D01*
X119024877Y-74523928D01*
X119024876Y-74523928D01*
X119004675Y-74520728D01*
X118973887Y-74506132D01*
X118942872Y-74491968D01*
X118942373Y-74491192D01*
X118941540Y-74490797D01*
X118923514Y-74461847D01*
X118905098Y-74433190D01*
X118904925Y-74431992D01*
X118904610Y-74431485D01*
X118900075Y-74398255D01*
X118900075Y-74396935D01*
X118900076Y-74396922D01*
X118900076Y-74228819D01*
X118887837Y-74183142D01*
X118859152Y-74076091D01*
X118810639Y-73992063D01*
X118780099Y-73939165D01*
X118780093Y-73939157D01*
X118648094Y-73807158D01*
X118614609Y-73745835D01*
X118611775Y-73719477D01*
X118611775Y-58960372D01*
X118631460Y-58893333D01*
X118684264Y-58847578D01*
X118753422Y-58837634D01*
X118816978Y-58866659D01*
G37*
%TD.AperFunction*%
%TA.AperFunction,Conductor*%
G36*
X130576517Y-65429760D02*
G01*
X130597159Y-65446394D01*
X131263181Y-66112416D01*
X131296666Y-66173739D01*
X131299500Y-66200097D01*
X131299500Y-75299902D01*
X131279815Y-75366941D01*
X131263181Y-75387583D01*
X129876261Y-76774502D01*
X129814938Y-76807987D01*
X129745246Y-76803003D01*
X129689313Y-76761131D01*
X129678095Y-76743115D01*
X129667919Y-76723143D01*
X129647063Y-76694438D01*
X129529092Y-76532065D01*
X129362085Y-76365058D01*
X129327447Y-76339892D01*
X129284782Y-76284564D01*
X129278803Y-76214950D01*
X129311408Y-76153155D01*
X129327448Y-76139257D01*
X129362085Y-76114092D01*
X129529092Y-75947085D01*
X129667918Y-75756008D01*
X129775143Y-75545567D01*
X129848128Y-75320943D01*
X129851461Y-75299902D01*
X129885075Y-75087672D01*
X129885075Y-74851477D01*
X129848128Y-74618206D01*
X129812669Y-74509075D01*
X129775143Y-74393583D01*
X129775141Y-74393580D01*
X129775141Y-74393578D01*
X129702677Y-74251360D01*
X129667918Y-74183142D01*
X129529092Y-73992065D01*
X129362085Y-73825058D01*
X129360994Y-73823967D01*
X129327509Y-73762644D01*
X129325057Y-73726555D01*
X129325271Y-73723824D01*
X128513984Y-72912537D01*
X128577568Y-72895500D01*
X128691582Y-72829674D01*
X128784674Y-72736582D01*
X128850500Y-72622568D01*
X128867537Y-72558985D01*
X129678825Y-73370273D01*
X129678825Y-73370272D01*
X129753017Y-73268156D01*
X129753021Y-73268150D01*
X129867355Y-73043759D01*
X129945177Y-72804244D01*
X129984575Y-72555503D01*
X129984575Y-72303646D01*
X129945177Y-72054905D01*
X129867355Y-71815390D01*
X129753017Y-71590991D01*
X129678825Y-71488876D01*
X129678825Y-71488875D01*
X128867537Y-72300164D01*
X128850500Y-72236582D01*
X128784674Y-72122568D01*
X128691582Y-72029476D01*
X128577568Y-71963650D01*
X128513983Y-71946612D01*
X129325273Y-71135323D01*
X129325058Y-71132591D01*
X129339422Y-71064213D01*
X129360995Y-71035181D01*
X129362081Y-71034094D01*
X129362085Y-71034092D01*
X129529092Y-70867085D01*
X129667918Y-70676008D01*
X129775143Y-70465567D01*
X129848128Y-70240943D01*
X129857056Y-70184575D01*
X129885075Y-70007672D01*
X129885075Y-69771477D01*
X129848128Y-69538206D01*
X129800701Y-69392242D01*
X129775143Y-69313583D01*
X129775141Y-69313580D01*
X129775141Y-69313578D01*
X129706018Y-69177918D01*
X129667918Y-69103142D01*
X129529092Y-68912065D01*
X129362085Y-68745058D01*
X129327447Y-68719892D01*
X129284782Y-68664564D01*
X129278803Y-68594950D01*
X129311408Y-68533155D01*
X129327448Y-68519257D01*
X129362085Y-68494092D01*
X129529092Y-68327085D01*
X129667918Y-68136008D01*
X129775143Y-67925567D01*
X129848128Y-67700943D01*
X129873111Y-67543206D01*
X129885075Y-67467672D01*
X129885075Y-67231477D01*
X129848128Y-66998206D01*
X129775141Y-66773578D01*
X129711767Y-66649201D01*
X129667918Y-66563142D01*
X129529092Y-66372065D01*
X129362085Y-66205058D01*
X129327447Y-66179892D01*
X129284782Y-66124564D01*
X129278803Y-66054950D01*
X129311408Y-65993155D01*
X129327448Y-65979257D01*
X129362085Y-65954092D01*
X129529092Y-65787085D01*
X129667918Y-65596008D01*
X129728158Y-65477779D01*
X129776133Y-65426984D01*
X129838643Y-65410075D01*
X130509478Y-65410075D01*
X130576517Y-65429760D01*
G37*
%TD.AperFunction*%
%TA.AperFunction,Conductor*%
G36*
X134735095Y-23729760D02*
G01*
X134755737Y-23746394D01*
X141212756Y-30203413D01*
X141246241Y-30264736D01*
X141249075Y-30291094D01*
X141249075Y-30949421D01*
X141229390Y-31016460D01*
X141195385Y-31049753D01*
X141196172Y-31050836D01*
X141192230Y-31053699D01*
X141192230Y-31053700D01*
X141008221Y-31187391D01*
X141008219Y-31187393D01*
X141008218Y-31187393D01*
X140847393Y-31348218D01*
X140847393Y-31348219D01*
X140847391Y-31348221D01*
X140779893Y-31441124D01*
X140724563Y-31483789D01*
X140654949Y-31489768D01*
X140593154Y-31457162D01*
X140579257Y-31441124D01*
X140511759Y-31348221D01*
X140350929Y-31187391D01*
X140166920Y-31053700D01*
X140044243Y-30991193D01*
X139964259Y-30950439D01*
X139747950Y-30880156D01*
X139538439Y-30846973D01*
X139523299Y-30844575D01*
X139295851Y-30844575D01*
X139234021Y-30854368D01*
X139071201Y-30880156D01*
X139071198Y-30880156D01*
X138854890Y-30950439D01*
X138652229Y-31053700D01*
X138547245Y-31129976D01*
X138468221Y-31187391D01*
X138468219Y-31187393D01*
X138468218Y-31187393D01*
X138307393Y-31348218D01*
X138307393Y-31348219D01*
X138307391Y-31348221D01*
X138239893Y-31441124D01*
X138184563Y-31483789D01*
X138114949Y-31489768D01*
X138053154Y-31457162D01*
X138039257Y-31441124D01*
X137971759Y-31348221D01*
X137810929Y-31187391D01*
X137626920Y-31053700D01*
X137504243Y-30991193D01*
X137424259Y-30950439D01*
X137207950Y-30880156D01*
X136998439Y-30846973D01*
X136983299Y-30844575D01*
X136755851Y-30844575D01*
X136694021Y-30854368D01*
X136531201Y-30880156D01*
X136531198Y-30880156D01*
X136314890Y-30950439D01*
X136112229Y-31053700D01*
X136007245Y-31129976D01*
X135928221Y-31187391D01*
X135928219Y-31187393D01*
X135928218Y-31187393D01*
X135767393Y-31348218D01*
X135767393Y-31348219D01*
X135767391Y-31348221D01*
X135699893Y-31441124D01*
X135644563Y-31483789D01*
X135574949Y-31489768D01*
X135513154Y-31457162D01*
X135499257Y-31441124D01*
X135431759Y-31348221D01*
X135270929Y-31187391D01*
X135086920Y-31053700D01*
X134964243Y-30991193D01*
X134884259Y-30950439D01*
X134667950Y-30880156D01*
X134458439Y-30846973D01*
X134443299Y-30844575D01*
X134215851Y-30844575D01*
X134154021Y-30854368D01*
X133991201Y-30880156D01*
X133991198Y-30880156D01*
X133774890Y-30950439D01*
X133572229Y-31053700D01*
X133467245Y-31129976D01*
X133388221Y-31187391D01*
X133388219Y-31187393D01*
X133388218Y-31187393D01*
X133227393Y-31348218D01*
X133227393Y-31348219D01*
X133227391Y-31348221D01*
X133159893Y-31441124D01*
X133104563Y-31483789D01*
X133034949Y-31489768D01*
X132973154Y-31457162D01*
X132959257Y-31441124D01*
X132891759Y-31348221D01*
X132730929Y-31187391D01*
X132546920Y-31053700D01*
X132424243Y-30991193D01*
X132344259Y-30950439D01*
X132127950Y-30880156D01*
X131918439Y-30846973D01*
X131903299Y-30844575D01*
X131675851Y-30844575D01*
X131614021Y-30854368D01*
X131451201Y-30880156D01*
X131451198Y-30880156D01*
X131234890Y-30950439D01*
X131032229Y-31053700D01*
X130927245Y-31129976D01*
X130848221Y-31187391D01*
X130848219Y-31187393D01*
X130848218Y-31187393D01*
X130687393Y-31348218D01*
X130687393Y-31348219D01*
X130687391Y-31348221D01*
X130629976Y-31427245D01*
X130553700Y-31532229D01*
X130450439Y-31734890D01*
X130380156Y-31951198D01*
X130380156Y-31951201D01*
X130380156Y-31951203D01*
X130344575Y-32175851D01*
X130344575Y-32403299D01*
X130347005Y-32418640D01*
X130380156Y-32627948D01*
X130380156Y-32627951D01*
X130450439Y-32844259D01*
X130530983Y-33002336D01*
X130553700Y-33046920D01*
X130687391Y-33230929D01*
X130848221Y-33391759D01*
X131032230Y-33525450D01*
X131121604Y-33570988D01*
X131234890Y-33628710D01*
X131451199Y-33698993D01*
X131451200Y-33698993D01*
X131451203Y-33698994D01*
X131675851Y-33734575D01*
X131675852Y-33734575D01*
X131903298Y-33734575D01*
X131903299Y-33734575D01*
X132127947Y-33698994D01*
X132127950Y-33698993D01*
X132127951Y-33698993D01*
X132344259Y-33628710D01*
X132344259Y-33628709D01*
X132344262Y-33628709D01*
X132546920Y-33525450D01*
X132546925Y-33525446D01*
X132551002Y-33523369D01*
X132619671Y-33510473D01*
X132684411Y-33536749D01*
X132724669Y-33593855D01*
X132727661Y-33663661D01*
X132694978Y-33721535D01*
X124112181Y-42304333D01*
X124050858Y-42337818D01*
X123981166Y-42332834D01*
X123925233Y-42290962D01*
X123900816Y-42225498D01*
X123900500Y-42216652D01*
X123900500Y-42197648D01*
X123868477Y-41995465D01*
X123822888Y-41855157D01*
X123805220Y-41800781D01*
X123805218Y-41800778D01*
X123805218Y-41800776D01*
X123763383Y-41718671D01*
X123712287Y-41618390D01*
X123697113Y-41597505D01*
X123591971Y-41452786D01*
X123447213Y-41308028D01*
X123281613Y-41187715D01*
X123281612Y-41187714D01*
X123281610Y-41187713D01*
X123224653Y-41158691D01*
X123099223Y-41094781D01*
X122904534Y-41031522D01*
X122729995Y-41003878D01*
X122702352Y-40999500D01*
X122497648Y-40999500D01*
X122459599Y-41005526D01*
X122295468Y-41031522D01*
X122286717Y-41034365D01*
X122281154Y-41036173D01*
X122211313Y-41038167D01*
X122155157Y-41005922D01*
X116752887Y-35603652D01*
X116750608Y-35599479D01*
X116746616Y-35596897D01*
X116734023Y-35569105D01*
X116719402Y-35542329D01*
X116719741Y-35537586D01*
X116717779Y-35533256D01*
X116722209Y-35503072D01*
X116724386Y-35472637D01*
X116727426Y-35467529D01*
X116727926Y-35464127D01*
X116738435Y-35449038D01*
X116747095Y-35434493D01*
X116749886Y-35431290D01*
X116794092Y-35387085D01*
X116822489Y-35347999D01*
X116826102Y-35343855D01*
X116851097Y-35327894D01*
X116874586Y-35309782D01*
X116880222Y-35309297D01*
X116884991Y-35306253D01*
X116914656Y-35306340D01*
X116944200Y-35303803D01*
X116949202Y-35306442D01*
X116954860Y-35306459D01*
X116979762Y-35322567D01*
X117005995Y-35336408D01*
X117012159Y-35343522D01*
X117013527Y-35344407D01*
X117014186Y-35345861D01*
X117019890Y-35352445D01*
X117045058Y-35387085D01*
X117212065Y-35554092D01*
X117403142Y-35692918D01*
X117502566Y-35743577D01*
X117613578Y-35800141D01*
X117613580Y-35800141D01*
X117613583Y-35800143D01*
X117733987Y-35839264D01*
X117838206Y-35873128D01*
X118071478Y-35910075D01*
X118071483Y-35910075D01*
X118307672Y-35910075D01*
X118540943Y-35873128D01*
X118570138Y-35863642D01*
X118765567Y-35800143D01*
X118976008Y-35692918D01*
X119167085Y-35554092D01*
X119334092Y-35387085D01*
X119472918Y-35196008D01*
X119580143Y-34985567D01*
X119653128Y-34760943D01*
X119660154Y-34716582D01*
X119690075Y-34527672D01*
X119690075Y-34291477D01*
X119653128Y-34058206D01*
X119580141Y-33833578D01*
X119520528Y-33716582D01*
X119472918Y-33623142D01*
X119334092Y-33432065D01*
X119167085Y-33265058D01*
X118976008Y-33126232D01*
X118976007Y-33126231D01*
X118976005Y-33126230D01*
X118957776Y-33116941D01*
X118906982Y-33068965D01*
X118890075Y-33006458D01*
X118890075Y-30991193D01*
X118909760Y-30924154D01*
X118926389Y-30903517D01*
X124992211Y-24837695D01*
X125053530Y-24804213D01*
X125123222Y-24809197D01*
X125179155Y-24851069D01*
X125197819Y-24887060D01*
X125204819Y-24908606D01*
X125297716Y-25090925D01*
X125297722Y-25090934D01*
X125330098Y-25135496D01*
X125330099Y-25135497D01*
X126009575Y-24456021D01*
X126009575Y-24462236D01*
X126036834Y-24563969D01*
X126089495Y-24655181D01*
X126163969Y-24729655D01*
X126255181Y-24782316D01*
X126356914Y-24809575D01*
X126363128Y-24809575D01*
X125683651Y-25489049D01*
X125683652Y-25489051D01*
X125719016Y-25514745D01*
X125761682Y-25570075D01*
X125767660Y-25639688D01*
X125735054Y-25701483D01*
X125680725Y-25734138D01*
X125599181Y-25757828D01*
X125599178Y-25757830D01*
X125457712Y-25841492D01*
X125457704Y-25841498D01*
X125341498Y-25957704D01*
X125341492Y-25957712D01*
X125257830Y-26099178D01*
X125257829Y-26099181D01*
X125211977Y-26257001D01*
X125211976Y-26257007D01*
X125209075Y-26293873D01*
X125209075Y-27068055D01*
X125189390Y-27135094D01*
X125172756Y-27155736D01*
X122865463Y-29463028D01*
X122865462Y-29463029D01*
X122788797Y-29577767D01*
X122735996Y-29705242D01*
X122735993Y-29705252D01*
X122709075Y-29840579D01*
X122709075Y-29840582D01*
X122709075Y-34340581D01*
X122709075Y-34478569D01*
X122709075Y-34478571D01*
X122709074Y-34478571D01*
X122735993Y-34613897D01*
X122735996Y-34613907D01*
X122788797Y-34741382D01*
X122865462Y-34856120D01*
X125003029Y-36993687D01*
X125117767Y-37070352D01*
X125245242Y-37123153D01*
X125245247Y-37123155D01*
X125245251Y-37123155D01*
X125245252Y-37123156D01*
X125380578Y-37150075D01*
X125380581Y-37150075D01*
X125380582Y-37150075D01*
X125481459Y-37150075D01*
X125548498Y-37169760D01*
X125591943Y-37217778D01*
X125601232Y-37236008D01*
X125740058Y-37427085D01*
X125907065Y-37594092D01*
X126098142Y-37732918D01*
X126197566Y-37783577D01*
X126308578Y-37840141D01*
X126308580Y-37840141D01*
X126308583Y-37840143D01*
X126389714Y-37866504D01*
X126533206Y-37913128D01*
X126766478Y-37950075D01*
X126766483Y-37950075D01*
X127002672Y-37950075D01*
X127235943Y-37913128D01*
X127268372Y-37902591D01*
X127460567Y-37840143D01*
X127671008Y-37732918D01*
X127862085Y-37594092D01*
X128029092Y-37427085D01*
X128167918Y-37236008D01*
X128275143Y-37025567D01*
X128348128Y-36800943D01*
X128359581Y-36728632D01*
X128385075Y-36567672D01*
X128385075Y-36331477D01*
X128348128Y-36098206D01*
X128281242Y-35892355D01*
X128275143Y-35873583D01*
X128275141Y-35873580D01*
X128275141Y-35873578D01*
X128183090Y-35692919D01*
X128167918Y-35663142D01*
X128029092Y-35472065D01*
X127862085Y-35305058D01*
X127860994Y-35303967D01*
X127827509Y-35242644D01*
X127825057Y-35206555D01*
X127825271Y-35203824D01*
X127013984Y-34392537D01*
X127077568Y-34375500D01*
X127191582Y-34309674D01*
X127284674Y-34216582D01*
X127350500Y-34102568D01*
X127367537Y-34038985D01*
X128178825Y-34850273D01*
X128178825Y-34850272D01*
X128253017Y-34748156D01*
X128253021Y-34748150D01*
X128367355Y-34523759D01*
X128445177Y-34284244D01*
X128484575Y-34035503D01*
X128484575Y-33783646D01*
X128445177Y-33534905D01*
X128367355Y-33295390D01*
X128253017Y-33070991D01*
X128178825Y-32968876D01*
X128178825Y-32968875D01*
X127367537Y-33780164D01*
X127350500Y-33716582D01*
X127284674Y-33602568D01*
X127191582Y-33509476D01*
X127077568Y-33443650D01*
X127013983Y-33426612D01*
X127825273Y-32615323D01*
X127723158Y-32541132D01*
X127498759Y-32426794D01*
X127259244Y-32348972D01*
X127010503Y-32309575D01*
X126758647Y-32309575D01*
X126509905Y-32348972D01*
X126270390Y-32426794D01*
X126045988Y-32541134D01*
X125943876Y-32615322D01*
X125943875Y-32615323D01*
X126755165Y-33426612D01*
X126691582Y-33443650D01*
X126577568Y-33509476D01*
X126484476Y-33602568D01*
X126418650Y-33716582D01*
X126401612Y-33780165D01*
X125590323Y-32968875D01*
X125590322Y-32968876D01*
X125516134Y-33070988D01*
X125401794Y-33295390D01*
X125323972Y-33534905D01*
X125284575Y-33783646D01*
X125284575Y-34035503D01*
X125323972Y-34284244D01*
X125401794Y-34523759D01*
X125516132Y-34748158D01*
X125590323Y-34850272D01*
X125590323Y-34850273D01*
X126401612Y-34038984D01*
X126418650Y-34102568D01*
X126484476Y-34216582D01*
X126577568Y-34309674D01*
X126691582Y-34375500D01*
X126755165Y-34392537D01*
X125943875Y-35203825D01*
X125944091Y-35206558D01*
X125929727Y-35274936D01*
X125908154Y-35303968D01*
X125740057Y-35472065D01*
X125708689Y-35515240D01*
X125653359Y-35557905D01*
X125583745Y-35563883D01*
X125521951Y-35531276D01*
X125520691Y-35530034D01*
X124146394Y-34155737D01*
X124112909Y-34094414D01*
X124110075Y-34068056D01*
X124110075Y-30251094D01*
X124129760Y-30184055D01*
X124146394Y-30163413D01*
X126163413Y-28146394D01*
X126224736Y-28112909D01*
X126251094Y-28110075D01*
X127025261Y-28110075D01*
X127025269Y-28110075D01*
X127062144Y-28107173D01*
X127062146Y-28107172D01*
X127062148Y-28107172D01*
X127103766Y-28095080D01*
X127219973Y-28061319D01*
X127361440Y-27977656D01*
X127477656Y-27861440D01*
X127561319Y-27719973D01*
X127607173Y-27562144D01*
X127610075Y-27525269D01*
X127610075Y-26293881D01*
X127607173Y-26257006D01*
X127561319Y-26099177D01*
X127477656Y-25957710D01*
X127477654Y-25957708D01*
X127477651Y-25957704D01*
X127361445Y-25841498D01*
X127361437Y-25841492D01*
X127219971Y-25757830D01*
X127219969Y-25757829D01*
X127138422Y-25734137D01*
X127079537Y-25696530D01*
X127050331Y-25633057D01*
X127060077Y-25563871D01*
X127100132Y-25514743D01*
X127135496Y-25489048D01*
X126456022Y-24809575D01*
X126462236Y-24809575D01*
X126563969Y-24782316D01*
X126655181Y-24729655D01*
X126729655Y-24655181D01*
X126782316Y-24563969D01*
X126809575Y-24462236D01*
X126809575Y-24456022D01*
X127489049Y-25135496D01*
X127521434Y-25090924D01*
X127614330Y-24908606D01*
X127677565Y-24713992D01*
X127709575Y-24511892D01*
X127709575Y-24307257D01*
X127677565Y-24105157D01*
X127614330Y-23910543D01*
X127604051Y-23890370D01*
X127591155Y-23821700D01*
X127617432Y-23756960D01*
X127674538Y-23716703D01*
X127714536Y-23710075D01*
X134668056Y-23710075D01*
X134735095Y-23729760D01*
G37*
%TD.AperFunction*%
%TA.AperFunction,Conductor*%
G36*
X124806197Y-22829760D02*
G01*
X124851952Y-22882564D01*
X124861896Y-22951722D01*
X124832871Y-23015278D01*
X124826839Y-23021756D01*
X117645463Y-30203129D01*
X117645462Y-30203130D01*
X117568797Y-30317868D01*
X117515996Y-30445343D01*
X117515993Y-30445353D01*
X117489075Y-30580680D01*
X117489075Y-33006458D01*
X117469390Y-33073497D01*
X117421374Y-33116941D01*
X117403144Y-33126230D01*
X117307603Y-33195645D01*
X117212065Y-33265058D01*
X117212063Y-33265060D01*
X117212062Y-33265060D01*
X117045059Y-33432063D01*
X117036641Y-33443650D01*
X117019939Y-33466639D01*
X117019893Y-33466702D01*
X116964562Y-33509367D01*
X116894949Y-33515346D01*
X116833154Y-33482740D01*
X116819257Y-33466702D01*
X116794092Y-33432065D01*
X116627085Y-33265058D01*
X116436008Y-33126232D01*
X116427677Y-33121987D01*
X116225571Y-33019008D01*
X116000943Y-32946021D01*
X115767672Y-32909075D01*
X115767667Y-32909075D01*
X115531483Y-32909075D01*
X115531478Y-32909075D01*
X115298206Y-32946021D01*
X115073578Y-33019008D01*
X114863141Y-33126232D01*
X114760371Y-33200900D01*
X114672065Y-33265058D01*
X114672063Y-33265060D01*
X114672062Y-33265060D01*
X114505059Y-33432063D01*
X114496641Y-33443650D01*
X114479939Y-33466639D01*
X114479893Y-33466702D01*
X114424562Y-33509367D01*
X114354949Y-33515346D01*
X114293154Y-33482740D01*
X114279257Y-33466702D01*
X114254092Y-33432065D01*
X114087085Y-33265058D01*
X113896008Y-33126232D01*
X113887677Y-33121987D01*
X113685571Y-33019008D01*
X113460943Y-32946021D01*
X113227672Y-32909075D01*
X113227667Y-32909075D01*
X112991483Y-32909075D01*
X112991478Y-32909075D01*
X112758206Y-32946021D01*
X112533578Y-33019008D01*
X112323141Y-33126232D01*
X112220371Y-33200900D01*
X112132065Y-33265058D01*
X112132063Y-33265060D01*
X112132062Y-33265060D01*
X111965059Y-33432063D01*
X111956641Y-33443650D01*
X111939939Y-33466639D01*
X111939893Y-33466702D01*
X111884562Y-33509367D01*
X111814949Y-33515346D01*
X111753154Y-33482740D01*
X111739257Y-33466702D01*
X111714092Y-33432065D01*
X111547085Y-33265058D01*
X111356008Y-33126232D01*
X111347677Y-33121987D01*
X111145571Y-33019008D01*
X110920943Y-32946021D01*
X110687672Y-32909075D01*
X110687667Y-32909075D01*
X110451483Y-32909075D01*
X110451478Y-32909075D01*
X110218206Y-32946021D01*
X109993578Y-33019008D01*
X109783141Y-33126232D01*
X109680371Y-33200900D01*
X109592065Y-33265058D01*
X109592063Y-33265060D01*
X109592062Y-33265060D01*
X109425059Y-33432063D01*
X109416641Y-33443650D01*
X109399939Y-33466639D01*
X109399893Y-33466702D01*
X109344562Y-33509367D01*
X109274949Y-33515346D01*
X109213154Y-33482740D01*
X109199257Y-33466702D01*
X109174092Y-33432065D01*
X109007085Y-33265058D01*
X108816008Y-33126232D01*
X108807677Y-33121987D01*
X108605571Y-33019008D01*
X108380943Y-32946021D01*
X108147672Y-32909075D01*
X108147667Y-32909075D01*
X107911483Y-32909075D01*
X107911478Y-32909075D01*
X107678206Y-32946021D01*
X107453578Y-33019008D01*
X107243141Y-33126232D01*
X107140371Y-33200900D01*
X107052065Y-33265058D01*
X107052063Y-33265060D01*
X107052062Y-33265060D01*
X106885059Y-33432063D01*
X106876641Y-33443650D01*
X106859939Y-33466639D01*
X106859893Y-33466702D01*
X106804562Y-33509367D01*
X106734949Y-33515346D01*
X106673154Y-33482740D01*
X106659257Y-33466702D01*
X106634092Y-33432065D01*
X106467085Y-33265058D01*
X106276008Y-33126232D01*
X106267677Y-33121987D01*
X106065571Y-33019008D01*
X105840943Y-32946021D01*
X105607672Y-32909075D01*
X105607667Y-32909075D01*
X105371483Y-32909075D01*
X105371478Y-32909075D01*
X105138206Y-32946021D01*
X104913578Y-33019008D01*
X104703141Y-33126232D01*
X104600371Y-33200900D01*
X104512065Y-33265058D01*
X104512063Y-33265060D01*
X104512062Y-33265060D01*
X104345059Y-33432063D01*
X104336641Y-33443650D01*
X104319939Y-33466639D01*
X104319893Y-33466702D01*
X104264562Y-33509367D01*
X104194949Y-33515346D01*
X104133154Y-33482740D01*
X104119257Y-33466702D01*
X104094092Y-33432065D01*
X103927085Y-33265058D01*
X103831546Y-33195645D01*
X103736006Y-33126230D01*
X103617779Y-33065990D01*
X103606715Y-33055541D01*
X103592872Y-33049219D01*
X103581830Y-33032038D01*
X103566984Y-33018016D01*
X103562742Y-33002336D01*
X103555098Y-32990441D01*
X103550075Y-32955506D01*
X103550075Y-32950522D01*
X103569760Y-32883483D01*
X103586394Y-32862841D01*
X113602842Y-22846394D01*
X113664165Y-22812909D01*
X113690523Y-22810075D01*
X124739158Y-22810075D01*
X124806197Y-22829760D01*
G37*
%TD.AperFunction*%
%TA.AperFunction,Conductor*%
G36*
X148852114Y-21519685D02*
G01*
X148897869Y-21572489D01*
X148909075Y-21624000D01*
X148909075Y-30560478D01*
X148889390Y-30627517D01*
X148836586Y-30673272D01*
X148767428Y-30683216D01*
X148703872Y-30654191D01*
X148697394Y-30648159D01*
X147687590Y-29638355D01*
X147687588Y-29638352D01*
X147568717Y-29519481D01*
X147568716Y-29519480D01*
X147470946Y-29463033D01*
X147470945Y-29463032D01*
X147431783Y-29440422D01*
X147375881Y-29425443D01*
X147279057Y-29399499D01*
X147120943Y-29399499D01*
X147113347Y-29399499D01*
X147113331Y-29399500D01*
X143431468Y-29399500D01*
X143364429Y-29379815D01*
X143343787Y-29363181D01*
X141048661Y-27068055D01*
X138279958Y-24299353D01*
X144509075Y-24299353D01*
X144509075Y-24519796D01*
X144543560Y-24737527D01*
X144611678Y-24947178D01*
X144611679Y-24947181D01*
X144679697Y-25080671D01*
X144707632Y-25135496D01*
X144711762Y-25143600D01*
X144841327Y-25321933D01*
X144841331Y-25321938D01*
X144997211Y-25477818D01*
X144997216Y-25477822D01*
X145048037Y-25514745D01*
X145175553Y-25607390D01*
X145303950Y-25672812D01*
X145371968Y-25707470D01*
X145371971Y-25707471D01*
X145454043Y-25734137D01*
X145581624Y-25775590D01*
X145799353Y-25810075D01*
X145799354Y-25810075D01*
X146019796Y-25810075D01*
X146019797Y-25810075D01*
X146237526Y-25775590D01*
X146447181Y-25707470D01*
X146643597Y-25607390D01*
X146821940Y-25477817D01*
X146977817Y-25321940D01*
X147107390Y-25143597D01*
X147207470Y-24947181D01*
X147275590Y-24737526D01*
X147310075Y-24519797D01*
X147310075Y-24299353D01*
X147275590Y-24081624D01*
X147207470Y-23871969D01*
X147207470Y-23871968D01*
X147148869Y-23756960D01*
X147107390Y-23675553D01*
X147090835Y-23652767D01*
X146977822Y-23497216D01*
X146977818Y-23497211D01*
X146821938Y-23341331D01*
X146821933Y-23341327D01*
X146643600Y-23211762D01*
X146643599Y-23211761D01*
X146643597Y-23211760D01*
X146580671Y-23179697D01*
X146447181Y-23111679D01*
X146447178Y-23111678D01*
X146237527Y-23043560D01*
X146099861Y-23021756D01*
X146019797Y-23009075D01*
X145799353Y-23009075D01*
X145760189Y-23015278D01*
X145581622Y-23043560D01*
X145371971Y-23111678D01*
X145371968Y-23111679D01*
X145175549Y-23211762D01*
X144997216Y-23341327D01*
X144997211Y-23341331D01*
X144841331Y-23497211D01*
X144841327Y-23497216D01*
X144711762Y-23675549D01*
X144611679Y-23871968D01*
X144611678Y-23871971D01*
X144543560Y-24081622D01*
X144509075Y-24299353D01*
X138279958Y-24299353D01*
X135821466Y-21840861D01*
X135821465Y-21840859D01*
X135709661Y-21729055D01*
X135700407Y-21723712D01*
X135689382Y-21713022D01*
X135679427Y-21695441D01*
X135665484Y-21680817D01*
X135662562Y-21665657D01*
X135654955Y-21652222D01*
X135656085Y-21632047D01*
X135652263Y-21612210D01*
X135658000Y-21597878D01*
X135658865Y-21582462D01*
X135670722Y-21566102D01*
X135678232Y-21547346D01*
X135690807Y-21538391D01*
X135699869Y-21525890D01*
X135718690Y-21518537D01*
X135735148Y-21506819D01*
X135758923Y-21502821D01*
X135764950Y-21500467D01*
X135768577Y-21501197D01*
X135775701Y-21500000D01*
X148785075Y-21500000D01*
X148852114Y-21519685D01*
G37*
%TD.AperFunction*%
%TD*%
M02*
