M48
; DRILL file KiCad 10.0.3-2.fc44 date 2026-06-16T12:57:45
; FORMAT={-:-/ absolute / metric / decimal}
; #@! TF.CreationDate,2026-06-16T12:57:45-04:00
; #@! TF.GenerationSoftware,Kicad,Pcbnew,10.0.3-2.fc44
; #@! TF.FileFunction,Plated,1,2,PTH
FMAT,2
METRIC
; #@! TA.AperFunction,Plated,PTH,ComponentDrill
T1C0.800
; #@! TA.AperFunction,Plated,PTH,ViaDrill
T2C1.000
; #@! TA.AperFunction,Plated,PTH,ComponentDrill
T3C1.000
; #@! TA.AperFunction,Plated,PTH,ComponentDrill
T4C3.200
%
G90
G05
T1
X97.41Y-39.41
X102.41Y-39.41
X108.79Y-39.41
X116.41Y-39.41
X126.532Y-24.892
X129.032Y-24.892
X140.41Y-52.91
X140.41Y-57.91
T2
X109.728Y-30.836
X113.22Y-62.992
X122.58Y-51.816
X122.6Y-42.3
X134.91Y-52.91
X141.7Y-22.85
T3
X72.855Y-80.435
X75.395Y-80.435
X77.935Y-80.435
X79.435Y-36.66
X79.435Y-39.2
X81.41Y-33.635
X81.435Y-41.66
X83.95Y-33.635
X83.975Y-41.66
X86.49Y-33.635
X86.515Y-41.66
X91.935Y-57.735
X91.935Y-60.275
X91.935Y-62.815
X91.935Y-65.355
X91.935Y-67.895
X91.935Y-70.435
X100.41Y-34.41
X102.95Y-34.41
X105.49Y-34.41
X108.03Y-34.41
X110.57Y-34.41
X113.11Y-34.41
X115.65Y-34.41
X118.19Y-34.41
X126.885Y-33.91
X126.885Y-36.45
X128.385Y-62.27
X128.385Y-64.81
X128.385Y-67.35
X128.385Y-69.89
X128.385Y-72.43
X128.385Y-74.97
X128.385Y-77.51
X131.79Y-32.29
X131.79Y-47.53
X134.33Y-32.29
X134.33Y-47.53
X136.87Y-32.29
X136.87Y-47.53
X139.41Y-32.29
X139.41Y-47.53
X141.95Y-32.29
X141.95Y-47.53
X144.49Y-32.29
X144.49Y-47.53
X147.03Y-32.29
X147.03Y-47.53
T4
X76.5Y-56.5
X107.5Y-84.0
X129.91Y-55.91
M30
