%TF.GenerationSoftware,KiCad,Pcbnew,10.0.3-2.fc44*%
%TF.CreationDate,2026-06-16T19:32:12-04:00*%
%TF.ProjectId,SupaClock_Display_Adapter,53757061-436c-46f6-936b-5f446973706c,v1.0*%
%TF.SameCoordinates,Original*%
%TF.FileFunction,Drillmap*%
%TF.FilePolarity,Positive*%
%FSLAX45Y45*%
G04 Gerber Fmt 4.5, Leading zero omitted, Abs format (unit mm)*
G04 Created by KiCad (PCBNEW 10.0.3-2.fc44) date 2026-06-16 19:32:12*
%MOMM*%
%LPD*%
G01*
G04 APERTURE LIST*
%ADD10C,0.100000*%
%ADD11C,0.200000*%
G04 APERTURE END LIST*
D10*
X3600000Y-2400000D02*
X6400000Y-2400000D01*
X3600000Y-5900000D02*
X3600000Y-2400000D01*
X6400000Y-2400000D02*
X6400000Y-5900000D01*
X6400000Y-5900000D02*
X3600000Y-5900000D01*
D11*
X3855777Y-6216484D02*
X3855777Y-6016484D01*
X3855777Y-6016484D02*
X3903396Y-6016484D01*
X3903396Y-6016484D02*
X3931967Y-6026008D01*
X3931967Y-6026008D02*
X3951015Y-6045055D01*
X3951015Y-6045055D02*
X3960539Y-6064103D01*
X3960539Y-6064103D02*
X3970062Y-6102198D01*
X3970062Y-6102198D02*
X3970062Y-6130769D01*
X3970062Y-6130769D02*
X3960539Y-6168865D01*
X3960539Y-6168865D02*
X3951015Y-6187912D01*
X3951015Y-6187912D02*
X3931967Y-6206960D01*
X3931967Y-6206960D02*
X3903396Y-6216484D01*
X3903396Y-6216484D02*
X3855777Y-6216484D01*
X4055777Y-6216484D02*
X4055777Y-6083150D01*
X4055777Y-6121246D02*
X4065301Y-6102198D01*
X4065301Y-6102198D02*
X4074824Y-6092674D01*
X4074824Y-6092674D02*
X4093872Y-6083150D01*
X4093872Y-6083150D02*
X4112920Y-6083150D01*
X4179586Y-6216484D02*
X4179586Y-6083150D01*
X4179586Y-6016484D02*
X4170062Y-6026008D01*
X4170062Y-6026008D02*
X4179586Y-6035531D01*
X4179586Y-6035531D02*
X4189110Y-6026008D01*
X4189110Y-6026008D02*
X4179586Y-6016484D01*
X4179586Y-6016484D02*
X4179586Y-6035531D01*
X4303396Y-6216484D02*
X4284348Y-6206960D01*
X4284348Y-6206960D02*
X4274824Y-6187912D01*
X4274824Y-6187912D02*
X4274824Y-6016484D01*
X4408158Y-6216484D02*
X4389110Y-6206960D01*
X4389110Y-6206960D02*
X4379586Y-6187912D01*
X4379586Y-6187912D02*
X4379586Y-6016484D01*
X4636729Y-6216484D02*
X4636729Y-6016484D01*
X4636729Y-6016484D02*
X4703396Y-6159341D01*
X4703396Y-6159341D02*
X4770063Y-6016484D01*
X4770063Y-6016484D02*
X4770063Y-6216484D01*
X4951015Y-6216484D02*
X4951015Y-6111722D01*
X4951015Y-6111722D02*
X4941491Y-6092674D01*
X4941491Y-6092674D02*
X4922444Y-6083150D01*
X4922444Y-6083150D02*
X4884348Y-6083150D01*
X4884348Y-6083150D02*
X4865301Y-6092674D01*
X4951015Y-6206960D02*
X4931967Y-6216484D01*
X4931967Y-6216484D02*
X4884348Y-6216484D01*
X4884348Y-6216484D02*
X4865301Y-6206960D01*
X4865301Y-6206960D02*
X4855777Y-6187912D01*
X4855777Y-6187912D02*
X4855777Y-6168865D01*
X4855777Y-6168865D02*
X4865301Y-6149817D01*
X4865301Y-6149817D02*
X4884348Y-6140293D01*
X4884348Y-6140293D02*
X4931967Y-6140293D01*
X4931967Y-6140293D02*
X4951015Y-6130769D01*
X5046253Y-6083150D02*
X5046253Y-6283150D01*
X5046253Y-6092674D02*
X5065301Y-6083150D01*
X5065301Y-6083150D02*
X5103396Y-6083150D01*
X5103396Y-6083150D02*
X5122444Y-6092674D01*
X5122444Y-6092674D02*
X5131967Y-6102198D01*
X5131967Y-6102198D02*
X5141491Y-6121246D01*
X5141491Y-6121246D02*
X5141491Y-6178388D01*
X5141491Y-6178388D02*
X5131967Y-6197436D01*
X5131967Y-6197436D02*
X5122444Y-6206960D01*
X5122444Y-6206960D02*
X5103396Y-6216484D01*
X5103396Y-6216484D02*
X5065301Y-6216484D01*
X5065301Y-6216484D02*
X5046253Y-6206960D01*
X5227205Y-6197436D02*
X5236729Y-6206960D01*
X5236729Y-6206960D02*
X5227205Y-6216484D01*
X5227205Y-6216484D02*
X5217682Y-6206960D01*
X5217682Y-6206960D02*
X5227205Y-6197436D01*
X5227205Y-6197436D02*
X5227205Y-6216484D01*
X5227205Y-6092674D02*
X5236729Y-6102198D01*
X5236729Y-6102198D02*
X5227205Y-6111722D01*
X5227205Y-6111722D02*
X5217682Y-6102198D01*
X5217682Y-6102198D02*
X5227205Y-6092674D01*
X5227205Y-6092674D02*
X5227205Y-6111722D01*
M02*
