G04 #@! TF.GenerationSoftware,KiCad,Pcbnew,10.0.3-2.fc44*
G04 #@! TF.CreationDate,2026-06-16T19:32:12-04:00*
G04 #@! TF.ProjectId,SupaClock_Display_Adapter,53757061-436c-46f6-936b-5f446973706c,v1.0*
G04 #@! TF.SameCoordinates,Original*
G04 #@! TF.FileFunction,Legend,Top*
G04 #@! TF.FilePolarity,Positive*
%FSLAX46Y46*%
G04 Gerber Fmt 4.6, Leading zero omitted, Abs format (unit mm)*
G04 Created by KiCad (PCBNEW 10.0.3-2.fc44) date 2026-06-16 19:32:12*
%MOMM*%
%LPD*%
G01*
G04 APERTURE LIST*
%ADD10C,0.150000*%
%ADD11C,0.120000*%
%ADD12C,1.600000*%
%ADD13R,1.500000X1.050000*%
%ADD14O,1.500000X1.050000*%
%ADD15R,0.300000X1.300000*%
%ADD16R,1.800000X2.200000*%
%ADD17R,1.700000X1.700000*%
%ADD18C,1.700000*%
G04 APERTURE END LIST*
D10*
X46142856Y-28169104D02*
X46619046Y-28169104D01*
X46047618Y-28454819D02*
X46380951Y-27454819D01*
X46380951Y-27454819D02*
X46714284Y-28454819D01*
X47476189Y-28454819D02*
X47476189Y-27454819D01*
X47476189Y-28407200D02*
X47380951Y-28454819D01*
X47380951Y-28454819D02*
X47190475Y-28454819D01*
X47190475Y-28454819D02*
X47095237Y-28407200D01*
X47095237Y-28407200D02*
X47047618Y-28359580D01*
X47047618Y-28359580D02*
X46999999Y-28264342D01*
X46999999Y-28264342D02*
X46999999Y-27978628D01*
X46999999Y-27978628D02*
X47047618Y-27883390D01*
X47047618Y-27883390D02*
X47095237Y-27835771D01*
X47095237Y-27835771D02*
X47190475Y-27788152D01*
X47190475Y-27788152D02*
X47380951Y-27788152D01*
X47380951Y-27788152D02*
X47476189Y-27835771D01*
X48380951Y-28454819D02*
X48380951Y-27931009D01*
X48380951Y-27931009D02*
X48333332Y-27835771D01*
X48333332Y-27835771D02*
X48238094Y-27788152D01*
X48238094Y-27788152D02*
X48047618Y-27788152D01*
X48047618Y-27788152D02*
X47952380Y-27835771D01*
X48380951Y-28407200D02*
X48285713Y-28454819D01*
X48285713Y-28454819D02*
X48047618Y-28454819D01*
X48047618Y-28454819D02*
X47952380Y-28407200D01*
X47952380Y-28407200D02*
X47904761Y-28311961D01*
X47904761Y-28311961D02*
X47904761Y-28216723D01*
X47904761Y-28216723D02*
X47952380Y-28121485D01*
X47952380Y-28121485D02*
X48047618Y-28073866D01*
X48047618Y-28073866D02*
X48285713Y-28073866D01*
X48285713Y-28073866D02*
X48380951Y-28026247D01*
X48857142Y-27788152D02*
X48857142Y-28788152D01*
X48857142Y-27835771D02*
X48952380Y-27788152D01*
X48952380Y-27788152D02*
X49142856Y-27788152D01*
X49142856Y-27788152D02*
X49238094Y-27835771D01*
X49238094Y-27835771D02*
X49285713Y-27883390D01*
X49285713Y-27883390D02*
X49333332Y-27978628D01*
X49333332Y-27978628D02*
X49333332Y-28264342D01*
X49333332Y-28264342D02*
X49285713Y-28359580D01*
X49285713Y-28359580D02*
X49238094Y-28407200D01*
X49238094Y-28407200D02*
X49142856Y-28454819D01*
X49142856Y-28454819D02*
X48952380Y-28454819D01*
X48952380Y-28454819D02*
X48857142Y-28407200D01*
X49619047Y-27788152D02*
X49999999Y-27788152D01*
X49761904Y-27454819D02*
X49761904Y-28311961D01*
X49761904Y-28311961D02*
X49809523Y-28407200D01*
X49809523Y-28407200D02*
X49904761Y-28454819D01*
X49904761Y-28454819D02*
X49999999Y-28454819D01*
X50714285Y-28407200D02*
X50619047Y-28454819D01*
X50619047Y-28454819D02*
X50428571Y-28454819D01*
X50428571Y-28454819D02*
X50333333Y-28407200D01*
X50333333Y-28407200D02*
X50285714Y-28311961D01*
X50285714Y-28311961D02*
X50285714Y-27931009D01*
X50285714Y-27931009D02*
X50333333Y-27835771D01*
X50333333Y-27835771D02*
X50428571Y-27788152D01*
X50428571Y-27788152D02*
X50619047Y-27788152D01*
X50619047Y-27788152D02*
X50714285Y-27835771D01*
X50714285Y-27835771D02*
X50761904Y-27931009D01*
X50761904Y-27931009D02*
X50761904Y-28026247D01*
X50761904Y-28026247D02*
X50285714Y-28121485D01*
X51190476Y-28454819D02*
X51190476Y-27788152D01*
X51190476Y-27978628D02*
X51238095Y-27883390D01*
X51238095Y-27883390D02*
X51285714Y-27835771D01*
X51285714Y-27835771D02*
X51380952Y-27788152D01*
X51380952Y-27788152D02*
X51476190Y-27788152D01*
X52476191Y-27788152D02*
X52714286Y-28454819D01*
X52714286Y-28454819D02*
X52952381Y-27788152D01*
X53857143Y-28454819D02*
X53285715Y-28454819D01*
X53571429Y-28454819D02*
X53571429Y-27454819D01*
X53571429Y-27454819D02*
X53476191Y-27597676D01*
X53476191Y-27597676D02*
X53380953Y-27692914D01*
X53380953Y-27692914D02*
X53285715Y-27740533D01*
X56433333Y-38309580D02*
X56385714Y-38357200D01*
X56385714Y-38357200D02*
X56242857Y-38404819D01*
X56242857Y-38404819D02*
X56147619Y-38404819D01*
X56147619Y-38404819D02*
X56004762Y-38357200D01*
X56004762Y-38357200D02*
X55909524Y-38261961D01*
X55909524Y-38261961D02*
X55861905Y-38166723D01*
X55861905Y-38166723D02*
X55814286Y-37976247D01*
X55814286Y-37976247D02*
X55814286Y-37833390D01*
X55814286Y-37833390D02*
X55861905Y-37642914D01*
X55861905Y-37642914D02*
X55909524Y-37547676D01*
X55909524Y-37547676D02*
X56004762Y-37452438D01*
X56004762Y-37452438D02*
X56147619Y-37404819D01*
X56147619Y-37404819D02*
X56242857Y-37404819D01*
X56242857Y-37404819D02*
X56385714Y-37452438D01*
X56385714Y-37452438D02*
X56433333Y-37500057D01*
X56814286Y-37500057D02*
X56861905Y-37452438D01*
X56861905Y-37452438D02*
X56957143Y-37404819D01*
X56957143Y-37404819D02*
X57195238Y-37404819D01*
X57195238Y-37404819D02*
X57290476Y-37452438D01*
X57290476Y-37452438D02*
X57338095Y-37500057D01*
X57338095Y-37500057D02*
X57385714Y-37595295D01*
X57385714Y-37595295D02*
X57385714Y-37690533D01*
X57385714Y-37690533D02*
X57338095Y-37833390D01*
X57338095Y-37833390D02*
X56766667Y-38404819D01*
X56766667Y-38404819D02*
X57385714Y-38404819D01*
X46110057Y-45265238D02*
X46062438Y-45360476D01*
X46062438Y-45360476D02*
X45967200Y-45455714D01*
X45967200Y-45455714D02*
X45824342Y-45598571D01*
X45824342Y-45598571D02*
X45776723Y-45693809D01*
X45776723Y-45693809D02*
X45776723Y-45789047D01*
X46014819Y-45741428D02*
X45967200Y-45836666D01*
X45967200Y-45836666D02*
X45871961Y-45931904D01*
X45871961Y-45931904D02*
X45681485Y-45979523D01*
X45681485Y-45979523D02*
X45348152Y-45979523D01*
X45348152Y-45979523D02*
X45157676Y-45931904D01*
X45157676Y-45931904D02*
X45062438Y-45836666D01*
X45062438Y-45836666D02*
X45014819Y-45741428D01*
X45014819Y-45741428D02*
X45014819Y-45550952D01*
X45014819Y-45550952D02*
X45062438Y-45455714D01*
X45062438Y-45455714D02*
X45157676Y-45360476D01*
X45157676Y-45360476D02*
X45348152Y-45312857D01*
X45348152Y-45312857D02*
X45681485Y-45312857D01*
X45681485Y-45312857D02*
X45871961Y-45360476D01*
X45871961Y-45360476D02*
X45967200Y-45455714D01*
X45967200Y-45455714D02*
X46014819Y-45550952D01*
X46014819Y-45550952D02*
X46014819Y-45741428D01*
X46014819Y-44360476D02*
X46014819Y-44931904D01*
X46014819Y-44646190D02*
X45014819Y-44646190D01*
X45014819Y-44646190D02*
X45157676Y-44741428D01*
X45157676Y-44741428D02*
X45252914Y-44836666D01*
X45252914Y-44836666D02*
X45300533Y-44931904D01*
X55724819Y-40066666D02*
X55248628Y-40399999D01*
X55724819Y-40638094D02*
X54724819Y-40638094D01*
X54724819Y-40638094D02*
X54724819Y-40257142D01*
X54724819Y-40257142D02*
X54772438Y-40161904D01*
X54772438Y-40161904D02*
X54820057Y-40114285D01*
X54820057Y-40114285D02*
X54915295Y-40066666D01*
X54915295Y-40066666D02*
X55058152Y-40066666D01*
X55058152Y-40066666D02*
X55153390Y-40114285D01*
X55153390Y-40114285D02*
X55201009Y-40161904D01*
X55201009Y-40161904D02*
X55248628Y-40257142D01*
X55248628Y-40257142D02*
X55248628Y-40638094D01*
X54724819Y-39161904D02*
X54724819Y-39638094D01*
X54724819Y-39638094D02*
X55201009Y-39685713D01*
X55201009Y-39685713D02*
X55153390Y-39638094D01*
X55153390Y-39638094D02*
X55105771Y-39542856D01*
X55105771Y-39542856D02*
X55105771Y-39304761D01*
X55105771Y-39304761D02*
X55153390Y-39209523D01*
X55153390Y-39209523D02*
X55201009Y-39161904D01*
X55201009Y-39161904D02*
X55296247Y-39114285D01*
X55296247Y-39114285D02*
X55534342Y-39114285D01*
X55534342Y-39114285D02*
X55629580Y-39161904D01*
X55629580Y-39161904D02*
X55677200Y-39209523D01*
X55677200Y-39209523D02*
X55724819Y-39304761D01*
X55724819Y-39304761D02*
X55724819Y-39542856D01*
X55724819Y-39542856D02*
X55677200Y-39638094D01*
X55677200Y-39638094D02*
X55629580Y-39685713D01*
X49616666Y-48954819D02*
X49616666Y-49669104D01*
X49616666Y-49669104D02*
X49569047Y-49811961D01*
X49569047Y-49811961D02*
X49473809Y-49907200D01*
X49473809Y-49907200D02*
X49330952Y-49954819D01*
X49330952Y-49954819D02*
X49235714Y-49954819D01*
X50045238Y-49050057D02*
X50092857Y-49002438D01*
X50092857Y-49002438D02*
X50188095Y-48954819D01*
X50188095Y-48954819D02*
X50426190Y-48954819D01*
X50426190Y-48954819D02*
X50521428Y-49002438D01*
X50521428Y-49002438D02*
X50569047Y-49050057D01*
X50569047Y-49050057D02*
X50616666Y-49145295D01*
X50616666Y-49145295D02*
X50616666Y-49240533D01*
X50616666Y-49240533D02*
X50569047Y-49383390D01*
X50569047Y-49383390D02*
X49997619Y-49954819D01*
X49997619Y-49954819D02*
X50616666Y-49954819D01*
X44153333Y-33324819D02*
X43820000Y-32848628D01*
X43581905Y-33324819D02*
X43581905Y-32324819D01*
X43581905Y-32324819D02*
X43962857Y-32324819D01*
X43962857Y-32324819D02*
X44058095Y-32372438D01*
X44058095Y-32372438D02*
X44105714Y-32420057D01*
X44105714Y-32420057D02*
X44153333Y-32515295D01*
X44153333Y-32515295D02*
X44153333Y-32658152D01*
X44153333Y-32658152D02*
X44105714Y-32753390D01*
X44105714Y-32753390D02*
X44058095Y-32801009D01*
X44058095Y-32801009D02*
X43962857Y-32848628D01*
X43962857Y-32848628D02*
X43581905Y-32848628D01*
X44486667Y-32324819D02*
X45105714Y-32324819D01*
X45105714Y-32324819D02*
X44772381Y-32705771D01*
X44772381Y-32705771D02*
X44915238Y-32705771D01*
X44915238Y-32705771D02*
X45010476Y-32753390D01*
X45010476Y-32753390D02*
X45058095Y-32801009D01*
X45058095Y-32801009D02*
X45105714Y-32896247D01*
X45105714Y-32896247D02*
X45105714Y-33134342D01*
X45105714Y-33134342D02*
X45058095Y-33229580D01*
X45058095Y-33229580D02*
X45010476Y-33277200D01*
X45010476Y-33277200D02*
X44915238Y-33324819D01*
X44915238Y-33324819D02*
X44629524Y-33324819D01*
X44629524Y-33324819D02*
X44534286Y-33277200D01*
X44534286Y-33277200D02*
X44486667Y-33229580D01*
X59478221Y-37509580D02*
X59430602Y-37557200D01*
X59430602Y-37557200D02*
X59287745Y-37604819D01*
X59287745Y-37604819D02*
X59192507Y-37604819D01*
X59192507Y-37604819D02*
X59049650Y-37557200D01*
X59049650Y-37557200D02*
X58954412Y-37461961D01*
X58954412Y-37461961D02*
X58906793Y-37366723D01*
X58906793Y-37366723D02*
X58859174Y-37176247D01*
X58859174Y-37176247D02*
X58859174Y-37033390D01*
X58859174Y-37033390D02*
X58906793Y-36842914D01*
X58906793Y-36842914D02*
X58954412Y-36747676D01*
X58954412Y-36747676D02*
X59049650Y-36652438D01*
X59049650Y-36652438D02*
X59192507Y-36604819D01*
X59192507Y-36604819D02*
X59287745Y-36604819D01*
X59287745Y-36604819D02*
X59430602Y-36652438D01*
X59430602Y-36652438D02*
X59478221Y-36700057D01*
X60430602Y-37604819D02*
X59859174Y-37604819D01*
X60144888Y-37604819D02*
X60144888Y-36604819D01*
X60144888Y-36604819D02*
X60049650Y-36747676D01*
X60049650Y-36747676D02*
X59954412Y-36842914D01*
X59954412Y-36842914D02*
X59859174Y-36890533D01*
X52513333Y-50424819D02*
X52180000Y-49948628D01*
X51941905Y-50424819D02*
X51941905Y-49424819D01*
X51941905Y-49424819D02*
X52322857Y-49424819D01*
X52322857Y-49424819D02*
X52418095Y-49472438D01*
X52418095Y-49472438D02*
X52465714Y-49520057D01*
X52465714Y-49520057D02*
X52513333Y-49615295D01*
X52513333Y-49615295D02*
X52513333Y-49758152D01*
X52513333Y-49758152D02*
X52465714Y-49853390D01*
X52465714Y-49853390D02*
X52418095Y-49901009D01*
X52418095Y-49901009D02*
X52322857Y-49948628D01*
X52322857Y-49948628D02*
X51941905Y-49948628D01*
X53370476Y-49758152D02*
X53370476Y-50424819D01*
X53132381Y-49377200D02*
X52894286Y-50091485D01*
X52894286Y-50091485D02*
X53513333Y-50091485D01*
X41224819Y-44266666D02*
X40748628Y-44599999D01*
X41224819Y-44838094D02*
X40224819Y-44838094D01*
X40224819Y-44838094D02*
X40224819Y-44457142D01*
X40224819Y-44457142D02*
X40272438Y-44361904D01*
X40272438Y-44361904D02*
X40320057Y-44314285D01*
X40320057Y-44314285D02*
X40415295Y-44266666D01*
X40415295Y-44266666D02*
X40558152Y-44266666D01*
X40558152Y-44266666D02*
X40653390Y-44314285D01*
X40653390Y-44314285D02*
X40701009Y-44361904D01*
X40701009Y-44361904D02*
X40748628Y-44457142D01*
X40748628Y-44457142D02*
X40748628Y-44838094D01*
X40320057Y-43885713D02*
X40272438Y-43838094D01*
X40272438Y-43838094D02*
X40224819Y-43742856D01*
X40224819Y-43742856D02*
X40224819Y-43504761D01*
X40224819Y-43504761D02*
X40272438Y-43409523D01*
X40272438Y-43409523D02*
X40320057Y-43361904D01*
X40320057Y-43361904D02*
X40415295Y-43314285D01*
X40415295Y-43314285D02*
X40510533Y-43314285D01*
X40510533Y-43314285D02*
X40653390Y-43361904D01*
X40653390Y-43361904D02*
X41224819Y-43933332D01*
X41224819Y-43933332D02*
X41224819Y-43314285D01*
X36384819Y-31266666D02*
X35908628Y-31599999D01*
X36384819Y-31838094D02*
X35384819Y-31838094D01*
X35384819Y-31838094D02*
X35384819Y-31457142D01*
X35384819Y-31457142D02*
X35432438Y-31361904D01*
X35432438Y-31361904D02*
X35480057Y-31314285D01*
X35480057Y-31314285D02*
X35575295Y-31266666D01*
X35575295Y-31266666D02*
X35718152Y-31266666D01*
X35718152Y-31266666D02*
X35813390Y-31314285D01*
X35813390Y-31314285D02*
X35861009Y-31361904D01*
X35861009Y-31361904D02*
X35908628Y-31457142D01*
X35908628Y-31457142D02*
X35908628Y-31838094D01*
X36384819Y-30314285D02*
X36384819Y-30885713D01*
X36384819Y-30599999D02*
X35384819Y-30599999D01*
X35384819Y-30599999D02*
X35527676Y-30695237D01*
X35527676Y-30695237D02*
X35622914Y-30790475D01*
X35622914Y-30790475D02*
X35670533Y-30885713D01*
X61334819Y-26833333D02*
X62049104Y-26833333D01*
X62049104Y-26833333D02*
X62191961Y-26880952D01*
X62191961Y-26880952D02*
X62287200Y-26976190D01*
X62287200Y-26976190D02*
X62334819Y-27119047D01*
X62334819Y-27119047D02*
X62334819Y-27214285D01*
X62334819Y-25833333D02*
X62334819Y-26404761D01*
X62334819Y-26119047D02*
X61334819Y-26119047D01*
X61334819Y-26119047D02*
X61477676Y-26214285D01*
X61477676Y-26214285D02*
X61572914Y-26309523D01*
X61572914Y-26309523D02*
X61620533Y-26404761D01*
G04 #@! TO.C,C2*
D11*
X55835000Y-34980000D02*
X57365000Y-34980000D01*
X57365000Y-36820000D02*
X55835000Y-36820000D01*
G04 #@! TO.C,Q1*
X40150000Y-43370000D02*
X40150000Y-46970000D01*
X40161522Y-43331522D02*
G75*
G02*
X44600001Y-45170000I1838478J-1838478D01*
G01*
X44600000Y-45170000D02*
G75*
G02*
X40161522Y-47008478I-2600000J0D01*
G01*
G04 #@! TO.C,R5*
X52900000Y-35860000D02*
X52900000Y-36630000D01*
X52900000Y-43940000D02*
X52900000Y-43170000D01*
X51530000Y-36630000D02*
X54270000Y-36630000D01*
X54270000Y-43170000D01*
X51530000Y-43170000D01*
X51530000Y-36630000D01*
G04 #@! TO.C,J2*
X42300000Y-51900000D02*
X42300000Y-53240000D01*
X42300000Y-55960000D02*
X42300000Y-57700000D01*
X42300000Y-57700000D02*
X57600000Y-57700000D01*
X43790000Y-51900000D02*
X42300000Y-51900000D01*
X43790000Y-51900000D02*
X43790000Y-50700000D01*
X56110000Y-51900000D02*
X57600000Y-51900000D01*
X57600000Y-51900000D02*
X57600000Y-53240000D01*
X57600000Y-57700000D02*
X57600000Y-55960000D01*
G04 #@! TO.C,R3*
X40280000Y-30500000D02*
X41050000Y-30500000D01*
X48360000Y-30500000D02*
X47590000Y-30500000D01*
X41050000Y-29130000D02*
X47590000Y-29130000D01*
X47590000Y-31870000D01*
X41050000Y-31870000D01*
X41050000Y-29130000D01*
G04 #@! TO.C,C1*
X56840113Y-39425000D02*
X57340113Y-39425000D01*
X57090113Y-39175000D02*
X57090113Y-39675000D01*
X59644888Y-38320000D02*
X59644888Y-43480000D01*
X59684888Y-38320000D02*
X59684888Y-43480000D01*
X59724888Y-38321000D02*
X59724888Y-43479000D01*
X59764888Y-38323000D02*
X59764888Y-43477000D01*
X59804888Y-38325000D02*
X59804888Y-43475000D01*
X59844888Y-38328000D02*
X59844888Y-43472000D01*
X59884888Y-38331000D02*
X59884888Y-39860000D01*
X59884888Y-41940000D02*
X59884888Y-43469000D01*
X59924888Y-38335000D02*
X59924888Y-39860000D01*
X59924888Y-41940000D02*
X59924888Y-43465000D01*
X59964888Y-38340000D02*
X59964888Y-39860000D01*
X59964888Y-41940000D02*
X59964888Y-43460000D01*
X60004888Y-38345000D02*
X60004888Y-39860000D01*
X60004888Y-41940000D02*
X60004888Y-43455000D01*
X60044888Y-38351000D02*
X60044888Y-39860000D01*
X60044888Y-41940000D02*
X60044888Y-43449000D01*
X60084888Y-38357000D02*
X60084888Y-39860000D01*
X60084888Y-41940000D02*
X60084888Y-43443000D01*
X60124888Y-38364000D02*
X60124888Y-39860000D01*
X60124888Y-41940000D02*
X60124888Y-43436000D01*
X60164888Y-38372000D02*
X60164888Y-39860000D01*
X60164888Y-41940000D02*
X60164888Y-43428000D01*
X60204888Y-38381000D02*
X60204888Y-39860000D01*
X60204888Y-41940000D02*
X60204888Y-43419000D01*
X60244888Y-38390000D02*
X60244888Y-39860000D01*
X60244888Y-41940000D02*
X60244888Y-43410000D01*
X60284888Y-38399000D02*
X60284888Y-39860000D01*
X60284888Y-41940000D02*
X60284888Y-43401000D01*
X60324888Y-38410000D02*
X60324888Y-39860000D01*
X60324888Y-41940000D02*
X60324888Y-43390000D01*
X60364888Y-38421000D02*
X60364888Y-39860000D01*
X60364888Y-41940000D02*
X60364888Y-43379000D01*
X60404888Y-38433000D02*
X60404888Y-39860000D01*
X60404888Y-41940000D02*
X60404888Y-43367000D01*
X60444888Y-38445000D02*
X60444888Y-39860000D01*
X60444888Y-41940000D02*
X60444888Y-43355000D01*
X60484888Y-38458000D02*
X60484888Y-39860000D01*
X60484888Y-41940000D02*
X60484888Y-43342000D01*
X60524888Y-38472000D02*
X60524888Y-39860000D01*
X60524888Y-41940000D02*
X60524888Y-43328000D01*
X60564888Y-38487000D02*
X60564888Y-39860000D01*
X60564888Y-41940000D02*
X60564888Y-43313000D01*
X60604888Y-38502000D02*
X60604888Y-39860000D01*
X60604888Y-41940000D02*
X60604888Y-43298000D01*
X60644888Y-38518000D02*
X60644888Y-39860000D01*
X60644888Y-41940000D02*
X60644888Y-43282000D01*
X60684888Y-38535000D02*
X60684888Y-39860000D01*
X60684888Y-41940000D02*
X60684888Y-43265000D01*
X60724888Y-38553000D02*
X60724888Y-39860000D01*
X60724888Y-41940000D02*
X60724888Y-43247000D01*
X60764888Y-38571000D02*
X60764888Y-39860000D01*
X60764888Y-41940000D02*
X60764888Y-43229000D01*
X60804888Y-38591000D02*
X60804888Y-39860000D01*
X60804888Y-41940000D02*
X60804888Y-43209000D01*
X60844888Y-38611000D02*
X60844888Y-39860000D01*
X60844888Y-41940000D02*
X60844888Y-43189000D01*
X60884888Y-38632000D02*
X60884888Y-39860000D01*
X60884888Y-41940000D02*
X60884888Y-43168000D01*
X60924888Y-38654000D02*
X60924888Y-39860000D01*
X60924888Y-41940000D02*
X60924888Y-43146000D01*
X60964888Y-38677000D02*
X60964888Y-39860000D01*
X60964888Y-41940000D02*
X60964888Y-43123000D01*
X61004888Y-38701000D02*
X61004888Y-39860000D01*
X61004888Y-41940000D02*
X61004888Y-43099000D01*
X61044888Y-38725000D02*
X61044888Y-39860000D01*
X61044888Y-41940000D02*
X61044888Y-43075000D01*
X61084888Y-38751000D02*
X61084888Y-39860000D01*
X61084888Y-41940000D02*
X61084888Y-43049000D01*
X61124888Y-38778000D02*
X61124888Y-39860000D01*
X61124888Y-41940000D02*
X61124888Y-43022000D01*
X61164888Y-38806000D02*
X61164888Y-39860000D01*
X61164888Y-41940000D02*
X61164888Y-42994000D01*
X61204888Y-38835000D02*
X61204888Y-39860000D01*
X61204888Y-41940000D02*
X61204888Y-42965000D01*
X61244888Y-38865000D02*
X61244888Y-39860000D01*
X61244888Y-41940000D02*
X61244888Y-42935000D01*
X61284888Y-38897000D02*
X61284888Y-39860000D01*
X61284888Y-41940000D02*
X61284888Y-42903000D01*
X61324888Y-38930000D02*
X61324888Y-39860000D01*
X61324888Y-41940000D02*
X61324888Y-42870000D01*
X61364888Y-38964000D02*
X61364888Y-39860000D01*
X61364888Y-41940000D02*
X61364888Y-42836000D01*
X61404888Y-38999000D02*
X61404888Y-39860000D01*
X61404888Y-41940000D02*
X61404888Y-42801000D01*
X61444888Y-39036000D02*
X61444888Y-39860000D01*
X61444888Y-41940000D02*
X61444888Y-42764000D01*
X61484888Y-39075000D02*
X61484888Y-39860000D01*
X61484888Y-41940000D02*
X61484888Y-42725000D01*
X61524888Y-39115000D02*
X61524888Y-39860000D01*
X61524888Y-41940000D02*
X61524888Y-42685000D01*
X61564888Y-39157000D02*
X61564888Y-39860000D01*
X61564888Y-41940000D02*
X61564888Y-42643000D01*
X61604888Y-39201000D02*
X61604888Y-39860000D01*
X61604888Y-41940000D02*
X61604888Y-42599000D01*
X61644888Y-39248000D02*
X61644888Y-39860000D01*
X61644888Y-41940000D02*
X61644888Y-42552000D01*
X61684888Y-39296000D02*
X61684888Y-39860000D01*
X61684888Y-41940000D02*
X61684888Y-42504000D01*
X61724888Y-39347000D02*
X61724888Y-39860000D01*
X61724888Y-41940000D02*
X61724888Y-42453000D01*
X61764888Y-39401000D02*
X61764888Y-39860000D01*
X61764888Y-41940000D02*
X61764888Y-42399000D01*
X61804888Y-39457000D02*
X61804888Y-39860000D01*
X61804888Y-41940000D02*
X61804888Y-42343000D01*
X61844888Y-39517000D02*
X61844888Y-39860000D01*
X61844888Y-41940000D02*
X61844888Y-42283000D01*
X61884888Y-39581000D02*
X61884888Y-39860000D01*
X61884888Y-41940000D02*
X61884888Y-42219000D01*
X61924888Y-39649000D02*
X61924888Y-39860000D01*
X61924888Y-41940000D02*
X61924888Y-42151000D01*
X61964888Y-39723000D02*
X61964888Y-42077000D01*
X62004888Y-39802000D02*
X62004888Y-41998000D01*
X62044888Y-39889000D02*
X62044888Y-41911000D01*
X62084888Y-39986000D02*
X62084888Y-41814000D01*
X62124888Y-40095000D02*
X62124888Y-41705000D01*
X62164888Y-40223000D02*
X62164888Y-41577000D01*
X62204888Y-40383000D02*
X62204888Y-41417000D01*
X62244888Y-40617000D02*
X62244888Y-41183000D01*
X62264888Y-40900000D02*
G75*
G02*
X57024888Y-40900000I-2620000J0D01*
G01*
X57024888Y-40900000D02*
G75*
G02*
X62264888Y-40900000I2620000J0D01*
G01*
G04 #@! TO.C,R4*
X48640000Y-47600000D02*
X49410000Y-47600000D01*
X56720000Y-47600000D02*
X55950000Y-47600000D01*
X49410000Y-46230000D02*
X55950000Y-46230000D01*
X55950000Y-48970000D01*
X49410000Y-48970000D01*
X49410000Y-46230000D01*
G04 #@! TO.C,R2*
X38400000Y-40060000D02*
X38400000Y-40830000D01*
X38400000Y-48140000D02*
X38400000Y-47370000D01*
X37030000Y-40830000D02*
X39770000Y-40830000D01*
X39770000Y-47370000D01*
X37030000Y-47370000D01*
X37030000Y-40830000D01*
G04 #@! TO.C,R1*
X38300000Y-27060000D02*
X38300000Y-27830000D01*
X38300000Y-35140000D02*
X38300000Y-34370000D01*
X36930000Y-27830000D02*
X39670000Y-27830000D01*
X39670000Y-34370000D01*
X36930000Y-34370000D01*
X36930000Y-27830000D01*
G04 #@! TO.C,J1*
X40340000Y-25120000D02*
X40340000Y-27880000D01*
X58230000Y-25120000D02*
X40340000Y-25120000D01*
X58230000Y-25120000D02*
X58230000Y-27880000D01*
X58230000Y-27880000D02*
X40340000Y-27880000D01*
X59500000Y-25120000D02*
X60880000Y-25120000D01*
X60880000Y-25120000D02*
X60880000Y-26500000D01*
G04 #@! TD*
%LPC*%
D12*
G04 #@! TO.C,C2*
X57850000Y-35900000D03*
X55350000Y-35900000D03*
G04 #@! TD*
D13*
G04 #@! TO.C,Q1*
X42000000Y-43900000D03*
D14*
X42000000Y-45170000D03*
X42000000Y-46440000D03*
G04 #@! TD*
D12*
G04 #@! TO.C,R5*
X52900000Y-34820000D03*
X52900000Y-44980000D03*
G04 #@! TD*
D15*
G04 #@! TO.C,J2*
X44200000Y-51350000D03*
X44700000Y-51350000D03*
X45200000Y-51350000D03*
X45700000Y-51350000D03*
X46200000Y-51350000D03*
X46700000Y-51350000D03*
X47200000Y-51350000D03*
X47700000Y-51350000D03*
X48200000Y-51350000D03*
X48700000Y-51350000D03*
X49200000Y-51350000D03*
X49700000Y-51350000D03*
X50200000Y-51350000D03*
X50700000Y-51350000D03*
X51200000Y-51350000D03*
X51700000Y-51350000D03*
X52200000Y-51350000D03*
X52700000Y-51350000D03*
X53200000Y-51350000D03*
X53700000Y-51350000D03*
X54200000Y-51350000D03*
X54700000Y-51350000D03*
X55200000Y-51350000D03*
X55700000Y-51350000D03*
D16*
X42300000Y-54600000D03*
X57600000Y-54600000D03*
G04 #@! TD*
D12*
G04 #@! TO.C,R3*
X49400000Y-30500000D03*
X39240000Y-30500000D03*
G04 #@! TD*
G04 #@! TO.C,C1*
G36*
G01*
X57594888Y-41450000D02*
X57594888Y-40350000D01*
G75*
G02*
X57844888Y-40100000I250000J0D01*
G01*
X58944888Y-40100000D01*
G75*
G02*
X59194888Y-40350000I0J-250000D01*
G01*
X59194888Y-41450000D01*
G75*
G02*
X58944888Y-41700000I-250000J0D01*
G01*
X57844888Y-41700000D01*
G75*
G02*
X57594888Y-41450000I0J250000D01*
G01*
G37*
X60894888Y-40900000D03*
G04 #@! TD*
G04 #@! TO.C,R4*
X57760000Y-47600000D03*
X47600000Y-47600000D03*
G04 #@! TD*
G04 #@! TO.C,R2*
X38400000Y-39020000D03*
X38400000Y-49180000D03*
G04 #@! TD*
G04 #@! TO.C,R1*
X38300000Y-36180000D03*
X38300000Y-26020000D03*
G04 #@! TD*
D17*
G04 #@! TO.C,J1*
X59500000Y-26500000D03*
D18*
X56960000Y-26500000D03*
X54420000Y-26500000D03*
X51880000Y-26500000D03*
X49340000Y-26500000D03*
X46800000Y-26500000D03*
X44260000Y-26500000D03*
X41720000Y-26500000D03*
G04 #@! TD*
%LPD*%
M02*
