%TF.GenerationSoftware,KiCad,Pcbnew,10.0.3-2.fc44*%
%TF.CreationDate,2026-05-25T17:20:35-04:00*%
%TF.ProjectId,SupaClock_Display_Adapter,53757061-436c-46f6-936b-5f446973706c,v1.0*%
%TF.SameCoordinates,Original*%
%TF.FileFunction,Copper,L2,Bot*%
%TF.FilePolarity,Positive*%
%FSLAX46Y46*%
G04 Gerber Fmt 4.6, Leading zero omitted, Abs format (unit mm)*
G04 Created by KiCad (PCBNEW 10.0.3-2.fc44) date 2026-05-25 17:20:35*
%MOMM*%
%LPD*%
G01*
G04 APERTURE LIST*
G04 Aperture macros list*
%AMRoundRect*
0 Rectangle with rounded corners*
0 $1 Rounding radius*
0 $2 $3 $4 $5 $6 $7 $8 $9 X,Y pos of 4 corners*
0 Add a 4 corners polygon primitive as box body*
4,1,4,$2,$3,$4,$5,$6,$7,$8,$9,$2,$3,0*
0 Add four circle primitives for the rounded corners*
1,1,$1+$1,$2,$3*
1,1,$1+$1,$4,$5*
1,1,$1+$1,$6,$7*
1,1,$1+$1,$8,$9*
0 Add four rect primitives between the rounded corners*
20,1,$1+$1,$2,$3,$4,$5,0*
20,1,$1+$1,$4,$5,$6,$7,0*
20,1,$1+$1,$6,$7,$8,$9,0*
20,1,$1+$1,$8,$9,$2,$3,0*%
G04 Aperture macros list end*
%TA.AperFunction,ComponentPad*%
%ADD10C,1.600000*%
%TD*%
%TA.AperFunction,ComponentPad*%
%ADD11R,1.500000X1.050000*%
%TD*%
%TA.AperFunction,ComponentPad*%
%ADD12O,1.500000X1.050000*%
%TD*%
%TA.AperFunction,ComponentPad*%
%ADD13RoundRect,0.250000X-0.550000X-0.550000X0.550000X-0.550000X0.550000X0.550000X-0.550000X0.550000X0*%
%TD*%
%TA.AperFunction,ComponentPad*%
%ADD14R,1.700000X1.700000*%
%TD*%
%TA.AperFunction,ComponentPad*%
%ADD15C,1.700000*%
%TD*%
%TA.AperFunction,ViaPad*%
%ADD16C,1.800000*%
%TD*%
%TA.AperFunction,Conductor*%
%ADD17C,0.400000*%
%TD*%
G04 APERTURE END LIST*
D10*
%TO.P,C2,1*%
%TO.N,+3V3*%
X57850000Y-35900000D03*
%TO.P,C2,2*%
%TO.N,GND*%
X55350000Y-35900000D03*
%TD*%
D11*
%TO.P,Q1,1,S_1*%
%TO.N,GND*%
X42000000Y-43900000D03*
D12*
%TO.P,Q1,2,G_2*%
%TO.N,BLK_PWM*%
X42000000Y-45170000D03*
%TO.P,Q1,3,D_3*%
%TO.N,LED_K*%
X42000000Y-46440000D03*
%TD*%
D10*
%TO.P,R5,1*%
%TO.N,+3V3*%
X52900000Y-34820000D03*
%TO.P,R5,2*%
%TO.N,RD_HI*%
X52900000Y-44980000D03*
%TD*%
%TO.P,R3,1*%
%TO.N,+3V3*%
X49400000Y-30500000D03*
%TO.P,R3,2*%
%TO.N,IM_HI*%
X39240000Y-30500000D03*
%TD*%
D13*
%TO.P,C1,1*%
%TO.N,+3V3*%
X58394888Y-40900000D03*
D10*
%TO.P,C1,2*%
%TO.N,GND*%
X60894888Y-40900000D03*
%TD*%
%TO.P,R4,1*%
%TO.N,+3V3*%
X57760000Y-47600000D03*
%TO.P,R4,2*%
%TO.N,RST_HI*%
X47600000Y-47600000D03*
%TD*%
%TO.P,R2,1*%
%TO.N,+3V3*%
X38400000Y-39020000D03*
%TO.P,R2,2*%
%TO.N,LED_A*%
X38400000Y-49180000D03*
%TD*%
%TO.P,R1,1*%
%TO.N,BLK_PWM*%
X38300000Y-36180000D03*
%TO.P,R1,2*%
%TO.N,GND*%
X38300000Y-26020000D03*
%TD*%
D14*
%TO.P,J1,1,Pin_1_1*%
%TO.N,GND*%
X59500000Y-26500000D03*
D15*
%TO.P,J1,2,Pin_2_2*%
%TO.N,+3V3*%
X56960000Y-26500000D03*
%TO.P,J1,3,Pin_3_3*%
%TO.N,SPI_SCK*%
X54420000Y-26500000D03*
%TO.P,J1,4,Pin_4_4*%
%TO.N,SPI_MOSI*%
X51880000Y-26500000D03*
%TO.P,J1,5,Pin_5_5*%
%TO.N,+3V3*%
X49340000Y-26500000D03*
%TO.P,J1,6,Pin_6_6*%
%TO.N,SPI_DC*%
X46800000Y-26500000D03*
%TO.P,J1,7,Pin_7_7*%
%TO.N,SPI_CS*%
X44260000Y-26500000D03*
%TO.P,J1,8,Pin_8_8*%
%TO.N,BLK_PWM*%
X41720000Y-26500000D03*
%TD*%
D16*
%TO.N,SPI_DC*%
X50800000Y-46800000D03*
%TD*%
%TO.N,+3V3*%
D17*
X58394888Y-44505112D02*
X58394888Y-40900000D01*
X49400000Y-31320000D02*
X49400000Y-30500000D01*
X49340000Y-26500000D02*
X49340000Y-30440000D01*
X38400000Y-39020000D02*
X37500000Y-39920000D01*
X37500000Y-44900000D02*
X43300000Y-50700000D01*
X54800000Y-40900000D02*
X58394888Y-40900000D01*
X52900000Y-34820000D02*
X49400000Y-31320000D01*
X43300000Y-50700000D02*
X54660000Y-50700000D01*
X57760000Y-47600000D02*
X57760000Y-45140000D01*
X52900000Y-39000000D02*
X54800000Y-40900000D01*
X52900000Y-34820000D02*
X56960000Y-30760000D01*
X58394888Y-36444888D02*
X57850000Y-35900000D01*
X37500000Y-39920000D02*
X37500000Y-44900000D01*
X52900000Y-34820000D02*
X52900000Y-39000000D01*
X54660000Y-50700000D02*
X57760000Y-47600000D01*
X49340000Y-30440000D02*
X49400000Y-30500000D01*
X56960000Y-30760000D02*
X56960000Y-26500000D01*
X58394888Y-40900000D02*
X58394888Y-36444888D01*
X57760000Y-45140000D02*
X58394888Y-44505112D01*
%TO.N,BLK_PWM*%
X40517919Y-26500000D02*
X37700000Y-29317919D01*
X41720000Y-26500000D02*
X41720000Y-39080000D01*
X38900000Y-43900000D02*
X40200000Y-45200000D01*
X41720000Y-39080000D02*
X38900000Y-41900000D01*
X38900000Y-41900000D02*
X38900000Y-43900000D01*
X37700000Y-33200000D02*
X38300000Y-33800000D01*
X40230000Y-45170000D02*
X42000000Y-45170000D01*
X41720000Y-26500000D02*
X40517919Y-26500000D01*
X37700000Y-29317919D02*
X37700000Y-33200000D01*
X40200000Y-45200000D02*
X40230000Y-45170000D01*
X38300000Y-33800000D02*
X38300000Y-36180000D01*
%TO.N,SPI_DC*%
X50800000Y-46800000D02*
X46800000Y-42800000D01*
X46800000Y-42800000D02*
X46800000Y-26500000D01*
%TD*%
%TA.AperFunction,Conductor*%
%TO.N,GND*%
G36*
X63458691Y-24519407D02*
G01*
X63494655Y-24568907D01*
X63499500Y-24599500D01*
X63499500Y-58400500D01*
X63480593Y-58458691D01*
X63431093Y-58494655D01*
X63400500Y-58499500D01*
X36599500Y-58499500D01*
X36541309Y-58480593D01*
X36505345Y-58431093D01*
X36500500Y-58400500D01*
X36500500Y-49081456D01*
X37399500Y-49081456D01*
X37399500Y-49278543D01*
X37437949Y-49471834D01*
X37437949Y-49471836D01*
X37513367Y-49653913D01*
X37513368Y-49653914D01*
X37622861Y-49817782D01*
X37762218Y-49957139D01*
X37926086Y-50066632D01*
X38108165Y-50142051D01*
X38301459Y-50180500D01*
X38301460Y-50180500D01*
X38498540Y-50180500D01*
X38498541Y-50180500D01*
X38691835Y-50142051D01*
X38873914Y-50066632D01*
X39037782Y-49957139D01*
X39177139Y-49817782D01*
X39286632Y-49653914D01*
X39362051Y-49471835D01*
X39400500Y-49278541D01*
X39400500Y-49081459D01*
X39362051Y-48888165D01*
X39286632Y-48706086D01*
X39177139Y-48542218D01*
X39037782Y-48402861D01*
X38873914Y-48293368D01*
X38873915Y-48293368D01*
X38873913Y-48293367D01*
X38691835Y-48217949D01*
X38498543Y-48179500D01*
X38498541Y-48179500D01*
X38301459Y-48179500D01*
X38301456Y-48179500D01*
X38108165Y-48217949D01*
X38108163Y-48217949D01*
X37926086Y-48293367D01*
X37762218Y-48402861D01*
X37762214Y-48402864D01*
X37622864Y-48542214D01*
X37622861Y-48542218D01*
X37513367Y-48706086D01*
X37437949Y-48888163D01*
X37437949Y-48888165D01*
X37399500Y-49081456D01*
X36500500Y-49081456D01*
X36500500Y-39867273D01*
X37099500Y-39867273D01*
X37099500Y-44847273D01*
X37099500Y-44952727D01*
X37108258Y-44985412D01*
X37126794Y-45054592D01*
X37179516Y-45145908D01*
X37179518Y-45145910D01*
X37179520Y-45145913D01*
X42979518Y-50945910D01*
X42979520Y-50945913D01*
X43054087Y-51020480D01*
X43054089Y-51020481D01*
X43145409Y-51073205D01*
X43145413Y-51073207D01*
X43247270Y-51100500D01*
X43247272Y-51100501D01*
X43247273Y-51100501D01*
X43358790Y-51100501D01*
X43358806Y-51100500D01*
X54712725Y-51100500D01*
X54712727Y-51100500D01*
X54814588Y-51073207D01*
X54814590Y-51073205D01*
X54814592Y-51073205D01*
X54905908Y-51020483D01*
X54905908Y-51020482D01*
X54905913Y-51020480D01*
X57347977Y-48578414D01*
X57402492Y-48550639D01*
X57455861Y-48556954D01*
X57468165Y-48562051D01*
X57661459Y-48600500D01*
X57661460Y-48600500D01*
X57858540Y-48600500D01*
X57858541Y-48600500D01*
X58051835Y-48562051D01*
X58233914Y-48486632D01*
X58397782Y-48377139D01*
X58537139Y-48237782D01*
X58646632Y-48073914D01*
X58722051Y-47891835D01*
X58760500Y-47698541D01*
X58760500Y-47501459D01*
X58722051Y-47308165D01*
X58646632Y-47126086D01*
X58537139Y-46962218D01*
X58397782Y-46822861D01*
X58339096Y-46783648D01*
X58233921Y-46713371D01*
X58233912Y-46713367D01*
X58221614Y-46708273D01*
X58175088Y-46668536D01*
X58160500Y-46616809D01*
X58160500Y-45346900D01*
X58179407Y-45288709D01*
X58189490Y-45276902D01*
X58715368Y-44751025D01*
X58715371Y-44751020D01*
X58768093Y-44659704D01*
X58768093Y-44659702D01*
X58768095Y-44659700D01*
X58795388Y-44557839D01*
X58795388Y-44452385D01*
X58795388Y-41999500D01*
X58814295Y-41941309D01*
X58863795Y-41905345D01*
X58894388Y-41900500D01*
X58999161Y-41900500D01*
X58999161Y-41900499D01*
X59029587Y-41897646D01*
X59157770Y-41852793D01*
X59267038Y-41772150D01*
X59347681Y-41662882D01*
X59392534Y-41534699D01*
X59395387Y-41504273D01*
X59395388Y-41504273D01*
X59395388Y-40797684D01*
X59594888Y-40797684D01*
X59594888Y-41002315D01*
X59626896Y-41204412D01*
X59690131Y-41399027D01*
X59783027Y-41581348D01*
X59783031Y-41581353D01*
X59815411Y-41625920D01*
X59815412Y-41625920D01*
X60494888Y-40946444D01*
X60494888Y-40952661D01*
X60522147Y-41054394D01*
X60574808Y-41145606D01*
X60649282Y-41220080D01*
X60740494Y-41272741D01*
X60842227Y-41300000D01*
X60848441Y-41300000D01*
X60168966Y-41979475D01*
X60213535Y-42011858D01*
X60395860Y-42104756D01*
X60590475Y-42167991D01*
X60792573Y-42200000D01*
X60997203Y-42200000D01*
X61199300Y-42167991D01*
X61393915Y-42104756D01*
X61576230Y-42011863D01*
X61576238Y-42011858D01*
X61620808Y-41979475D01*
X60941333Y-41300000D01*
X60947549Y-41300000D01*
X61049282Y-41272741D01*
X61140494Y-41220080D01*
X61214968Y-41145606D01*
X61267629Y-41054394D01*
X61294888Y-40952661D01*
X61294888Y-40946445D01*
X61974363Y-41625920D01*
X62006746Y-41581350D01*
X62006751Y-41581342D01*
X62099644Y-41399027D01*
X62162879Y-41204412D01*
X62194888Y-41002315D01*
X62194888Y-40797684D01*
X62162879Y-40595587D01*
X62099644Y-40400972D01*
X62006746Y-40218647D01*
X61974363Y-40174078D01*
X61294888Y-40853553D01*
X61294888Y-40847339D01*
X61267629Y-40745606D01*
X61214968Y-40654394D01*
X61140494Y-40579920D01*
X61049282Y-40527259D01*
X60947549Y-40500000D01*
X60941333Y-40500000D01*
X61620808Y-39820524D01*
X61620808Y-39820523D01*
X61576241Y-39788143D01*
X61576236Y-39788139D01*
X61393915Y-39695243D01*
X61199300Y-39632008D01*
X60997203Y-39600000D01*
X60792573Y-39600000D01*
X60590475Y-39632008D01*
X60395860Y-39695243D01*
X60213539Y-39788139D01*
X60213535Y-39788141D01*
X60168966Y-39820523D01*
X60848443Y-40500000D01*
X60842227Y-40500000D01*
X60740494Y-40527259D01*
X60649282Y-40579920D01*
X60574808Y-40654394D01*
X60522147Y-40745606D01*
X60494888Y-40847339D01*
X60494888Y-40853555D01*
X59815411Y-40174078D01*
X59783029Y-40218647D01*
X59783027Y-40218651D01*
X59690131Y-40400972D01*
X59626896Y-40595587D01*
X59594888Y-40797684D01*
X59395388Y-40797684D01*
X59395388Y-40295727D01*
X59395387Y-40295725D01*
X59392534Y-40265305D01*
X59392534Y-40265301D01*
X59347681Y-40137118D01*
X59340139Y-40126899D01*
X59267042Y-40027855D01*
X59267040Y-40027853D01*
X59267038Y-40027850D01*
X59267034Y-40027847D01*
X59267032Y-40027845D01*
X59157774Y-39947209D01*
X59157768Y-39947206D01*
X59029591Y-39902355D01*
X59029582Y-39902353D01*
X58999162Y-39899500D01*
X58999154Y-39899500D01*
X58894388Y-39899500D01*
X58836197Y-39880593D01*
X58800233Y-39831093D01*
X58795388Y-39800500D01*
X58795388Y-36392162D01*
X58795388Y-36392161D01*
X58778037Y-36327406D01*
X58781240Y-36266307D01*
X58782174Y-36263961D01*
X58812051Y-36191835D01*
X58850500Y-35998541D01*
X58850500Y-35801459D01*
X58812051Y-35608165D01*
X58736632Y-35426086D01*
X58627139Y-35262218D01*
X58487782Y-35122861D01*
X58323914Y-35013368D01*
X58323915Y-35013368D01*
X58323913Y-35013367D01*
X58141835Y-34937949D01*
X57948543Y-34899500D01*
X57948541Y-34899500D01*
X57751459Y-34899500D01*
X57751456Y-34899500D01*
X57558165Y-34937949D01*
X57558163Y-34937949D01*
X57376086Y-35013367D01*
X57212218Y-35122861D01*
X57212214Y-35122864D01*
X57072864Y-35262214D01*
X57072861Y-35262218D01*
X56963367Y-35426086D01*
X56887949Y-35608163D01*
X56887949Y-35608165D01*
X56849500Y-35801456D01*
X56849500Y-35998543D01*
X56887949Y-36191834D01*
X56887949Y-36191836D01*
X56963367Y-36373913D01*
X56963368Y-36373914D01*
X57072861Y-36537782D01*
X57212218Y-36677139D01*
X57376086Y-36786632D01*
X57558165Y-36862051D01*
X57751459Y-36900500D01*
X57751460Y-36900500D01*
X57895388Y-36900500D01*
X57953579Y-36919407D01*
X57989543Y-36968907D01*
X57994388Y-36999500D01*
X57994388Y-39800500D01*
X57975481Y-39858691D01*
X57925981Y-39894655D01*
X57895388Y-39899500D01*
X57790613Y-39899500D01*
X57760193Y-39902353D01*
X57760184Y-39902355D01*
X57632004Y-39947207D01*
X57522743Y-40027845D01*
X57522733Y-40027855D01*
X57442095Y-40137116D01*
X57397243Y-40265296D01*
X57397241Y-40265305D01*
X57394388Y-40295725D01*
X57394388Y-40400500D01*
X57375481Y-40458691D01*
X57325981Y-40494655D01*
X57295388Y-40499500D01*
X55006900Y-40499500D01*
X54948709Y-40480593D01*
X54936896Y-40470504D01*
X53329496Y-38863103D01*
X53301719Y-38808586D01*
X53300500Y-38793099D01*
X53300500Y-35803190D01*
X53302289Y-35797684D01*
X54050000Y-35797684D01*
X54050000Y-36002315D01*
X54082008Y-36204412D01*
X54145243Y-36399027D01*
X54238139Y-36581348D01*
X54238143Y-36581353D01*
X54270523Y-36625920D01*
X54270524Y-36625920D01*
X54950000Y-35946444D01*
X54950000Y-35952661D01*
X54977259Y-36054394D01*
X55029920Y-36145606D01*
X55104394Y-36220080D01*
X55195606Y-36272741D01*
X55297339Y-36300000D01*
X55303553Y-36300000D01*
X54624078Y-36979475D01*
X54668647Y-37011858D01*
X54850972Y-37104756D01*
X55045587Y-37167991D01*
X55247685Y-37200000D01*
X55452315Y-37200000D01*
X55654412Y-37167991D01*
X55849027Y-37104756D01*
X56031342Y-37011863D01*
X56031350Y-37011858D01*
X56075920Y-36979475D01*
X55396445Y-36300000D01*
X55402661Y-36300000D01*
X55504394Y-36272741D01*
X55595606Y-36220080D01*
X55670080Y-36145606D01*
X55722741Y-36054394D01*
X55750000Y-35952661D01*
X55750000Y-35946445D01*
X56429475Y-36625920D01*
X56461858Y-36581350D01*
X56461863Y-36581342D01*
X56554756Y-36399027D01*
X56617991Y-36204412D01*
X56650000Y-36002315D01*
X56650000Y-35797684D01*
X56617991Y-35595587D01*
X56554756Y-35400972D01*
X56461858Y-35218647D01*
X56429475Y-35174078D01*
X55750000Y-35853553D01*
X55750000Y-35847339D01*
X55722741Y-35745606D01*
X55670080Y-35654394D01*
X55595606Y-35579920D01*
X55504394Y-35527259D01*
X55402661Y-35500000D01*
X55396445Y-35500000D01*
X56075920Y-34820524D01*
X56075920Y-34820523D01*
X56031353Y-34788143D01*
X56031348Y-34788139D01*
X55849027Y-34695243D01*
X55654412Y-34632008D01*
X55452315Y-34600000D01*
X55247685Y-34600000D01*
X55045587Y-34632008D01*
X54850972Y-34695243D01*
X54668651Y-34788139D01*
X54668647Y-34788141D01*
X54624078Y-34820523D01*
X55303555Y-35500000D01*
X55297339Y-35500000D01*
X55195606Y-35527259D01*
X55104394Y-35579920D01*
X55029920Y-35654394D01*
X54977259Y-35745606D01*
X54950000Y-35847339D01*
X54950000Y-35853555D01*
X54270523Y-35174078D01*
X54238141Y-35218647D01*
X54238139Y-35218651D01*
X54145243Y-35400972D01*
X54082008Y-35595587D01*
X54050000Y-35797684D01*
X53302289Y-35797684D01*
X53308494Y-35778585D01*
X53313986Y-35753306D01*
X53317785Y-35749988D01*
X53319407Y-35744999D01*
X53359639Y-35712569D01*
X53360584Y-35712152D01*
X53373914Y-35706632D01*
X53537782Y-35597139D01*
X53677139Y-35457782D01*
X53786632Y-35293914D01*
X53862051Y-35111835D01*
X53900500Y-34918541D01*
X53900500Y-34721459D01*
X53862051Y-34528165D01*
X53856954Y-34515861D01*
X53852156Y-34454866D01*
X53878414Y-34407977D01*
X57280480Y-31005913D01*
X57298955Y-30973914D01*
X57333205Y-30914592D01*
X57333205Y-30914590D01*
X57333207Y-30914588D01*
X57360500Y-30812727D01*
X57360500Y-30707273D01*
X57360500Y-27537309D01*
X57379407Y-27479118D01*
X57421615Y-27445845D01*
X57457598Y-27430941D01*
X57629655Y-27315977D01*
X57775977Y-27169655D01*
X57890941Y-26997598D01*
X57959536Y-26831994D01*
X57999273Y-26785470D01*
X58058767Y-26771186D01*
X58115295Y-26794601D01*
X58147265Y-26846770D01*
X58150000Y-26869881D01*
X58150000Y-27397824D01*
X58149999Y-27397824D01*
X58156401Y-27457370D01*
X58156403Y-27457381D01*
X58206646Y-27592088D01*
X58206647Y-27592090D01*
X58292807Y-27707184D01*
X58292815Y-27707192D01*
X58407909Y-27793352D01*
X58407911Y-27793353D01*
X58542618Y-27843596D01*
X58542629Y-27843598D01*
X58602176Y-27850000D01*
X59249999Y-27850000D01*
X59250000Y-27849999D01*
X59250000Y-26933012D01*
X59307007Y-26965925D01*
X59434174Y-27000000D01*
X59565826Y-27000000D01*
X59692993Y-26965925D01*
X59750000Y-26933012D01*
X59750000Y-27849999D01*
X59750001Y-27850000D01*
X60397824Y-27850000D01*
X60457370Y-27843598D01*
X60457381Y-27843596D01*
X60592088Y-27793353D01*
X60592090Y-27793352D01*
X60707184Y-27707192D01*
X60707192Y-27707184D01*
X60793352Y-27592090D01*
X60793353Y-27592088D01*
X60843596Y-27457381D01*
X60843598Y-27457370D01*
X60850000Y-27397824D01*
X60850000Y-26750001D01*
X60849999Y-26750000D01*
X59933012Y-26750000D01*
X59965925Y-26692993D01*
X60000000Y-26565826D01*
X60000000Y-26434174D01*
X59965925Y-26307007D01*
X59933012Y-26250000D01*
X60849999Y-26250000D01*
X60850000Y-26249999D01*
X60850000Y-25602175D01*
X60843598Y-25542629D01*
X60843596Y-25542618D01*
X60793353Y-25407911D01*
X60793352Y-25407909D01*
X60707192Y-25292815D01*
X60707184Y-25292807D01*
X60592090Y-25206647D01*
X60592088Y-25206646D01*
X60457381Y-25156403D01*
X60457370Y-25156401D01*
X60397824Y-25150000D01*
X59750001Y-25150000D01*
X59750000Y-25150001D01*
X59750000Y-26066988D01*
X59692993Y-26034075D01*
X59565826Y-26000000D01*
X59434174Y-26000000D01*
X59307007Y-26034075D01*
X59250000Y-26066988D01*
X59250000Y-25150001D01*
X59249999Y-25150000D01*
X58602176Y-25150000D01*
X58542629Y-25156401D01*
X58542618Y-25156403D01*
X58407911Y-25206646D01*
X58407909Y-25206647D01*
X58292815Y-25292807D01*
X58292807Y-25292815D01*
X58206647Y-25407909D01*
X58206646Y-25407911D01*
X58156403Y-25542618D01*
X58156401Y-25542629D01*
X58150000Y-25602175D01*
X58150000Y-26130118D01*
X58131093Y-26188309D01*
X58081593Y-26224273D01*
X58020407Y-26224273D01*
X57970907Y-26188309D01*
X57959536Y-26168004D01*
X57890941Y-26002402D01*
X57775979Y-25830348D01*
X57775977Y-25830345D01*
X57629655Y-25684023D01*
X57629651Y-25684020D01*
X57457597Y-25569058D01*
X57266418Y-25489869D01*
X57063467Y-25449500D01*
X57063465Y-25449500D01*
X56856535Y-25449500D01*
X56856532Y-25449500D01*
X56653581Y-25489869D01*
X56462402Y-25569058D01*
X56290348Y-25684020D01*
X56144020Y-25830348D01*
X56029058Y-26002402D01*
X55949869Y-26193581D01*
X55909500Y-26396532D01*
X55909500Y-26603467D01*
X55949869Y-26806418D01*
X56029058Y-26997597D01*
X56118768Y-27131858D01*
X56144023Y-27169655D01*
X56290345Y-27315977D01*
X56462402Y-27430941D01*
X56498384Y-27445845D01*
X56544910Y-27485580D01*
X56559500Y-27537309D01*
X56559500Y-30553098D01*
X56540593Y-30611289D01*
X56530504Y-30623102D01*
X53312023Y-33841582D01*
X53257506Y-33869359D01*
X53204137Y-33863044D01*
X53191835Y-33857949D01*
X53191836Y-33857949D01*
X52998543Y-33819500D01*
X52998541Y-33819500D01*
X52801459Y-33819500D01*
X52801456Y-33819500D01*
X52608163Y-33857949D01*
X52608156Y-33857951D01*
X52595857Y-33863045D01*
X52534860Y-33867841D01*
X52487975Y-33841582D01*
X50050660Y-31404267D01*
X50022883Y-31349750D01*
X50032454Y-31289318D01*
X50050658Y-31264262D01*
X50177139Y-31137782D01*
X50286632Y-30973914D01*
X50362051Y-30791835D01*
X50400500Y-30598541D01*
X50400500Y-30401459D01*
X50362051Y-30208165D01*
X50286632Y-30026086D01*
X50177139Y-29862218D01*
X50037782Y-29722861D01*
X49991099Y-29691668D01*
X49873921Y-29613371D01*
X49873912Y-29613367D01*
X49801614Y-29583420D01*
X49755088Y-29543683D01*
X49740500Y-29491956D01*
X49740500Y-27537309D01*
X49759407Y-27479118D01*
X49801615Y-27445845D01*
X49837598Y-27430941D01*
X50009655Y-27315977D01*
X50155977Y-27169655D01*
X50270941Y-26997598D01*
X50350130Y-26806420D01*
X50390500Y-26603465D01*
X50390500Y-26396535D01*
X50390499Y-26396532D01*
X50829500Y-26396532D01*
X50829500Y-26603467D01*
X50869869Y-26806418D01*
X50949058Y-26997597D01*
X51038768Y-27131858D01*
X51064023Y-27169655D01*
X51210345Y-27315977D01*
X51382402Y-27430941D01*
X51573580Y-27510130D01*
X51776535Y-27550500D01*
X51776536Y-27550500D01*
X51983464Y-27550500D01*
X51983465Y-27550500D01*
X52186420Y-27510130D01*
X52377598Y-27430941D01*
X52549655Y-27315977D01*
X52695977Y-27169655D01*
X52810941Y-26997598D01*
X52890130Y-26806420D01*
X52930500Y-26603465D01*
X52930500Y-26396535D01*
X52930499Y-26396532D01*
X53369500Y-26396532D01*
X53369500Y-26603467D01*
X53409869Y-26806418D01*
X53489058Y-26997597D01*
X53578768Y-27131858D01*
X53604023Y-27169655D01*
X53750345Y-27315977D01*
X53922402Y-27430941D01*
X54113580Y-27510130D01*
X54316535Y-27550500D01*
X54316536Y-27550500D01*
X54523464Y-27550500D01*
X54523465Y-27550500D01*
X54726420Y-27510130D01*
X54917598Y-27430941D01*
X55089655Y-27315977D01*
X55235977Y-27169655D01*
X55350941Y-26997598D01*
X55430130Y-26806420D01*
X55470500Y-26603465D01*
X55470500Y-26396535D01*
X55430130Y-26193580D01*
X55350941Y-26002402D01*
X55235977Y-25830345D01*
X55089655Y-25684023D01*
X55089651Y-25684020D01*
X54917597Y-25569058D01*
X54726418Y-25489869D01*
X54523467Y-25449500D01*
X54523465Y-25449500D01*
X54316535Y-25449500D01*
X54316532Y-25449500D01*
X54113581Y-25489869D01*
X53922402Y-25569058D01*
X53750348Y-25684020D01*
X53604020Y-25830348D01*
X53489058Y-26002402D01*
X53409869Y-26193581D01*
X53369500Y-26396532D01*
X52930499Y-26396532D01*
X52890130Y-26193580D01*
X52810941Y-26002402D01*
X52695977Y-25830345D01*
X52549655Y-25684023D01*
X52549651Y-25684020D01*
X52377597Y-25569058D01*
X52186418Y-25489869D01*
X51983467Y-25449500D01*
X51983465Y-25449500D01*
X51776535Y-25449500D01*
X51776532Y-25449500D01*
X51573581Y-25489869D01*
X51382402Y-25569058D01*
X51210348Y-25684020D01*
X51064020Y-25830348D01*
X50949058Y-26002402D01*
X50869869Y-26193581D01*
X50829500Y-26396532D01*
X50390499Y-26396532D01*
X50350130Y-26193580D01*
X50270941Y-26002402D01*
X50155977Y-25830345D01*
X50009655Y-25684023D01*
X50009651Y-25684020D01*
X49837597Y-25569058D01*
X49646418Y-25489869D01*
X49443467Y-25449500D01*
X49443465Y-25449500D01*
X49236535Y-25449500D01*
X49236532Y-25449500D01*
X49033581Y-25489869D01*
X48842402Y-25569058D01*
X48670348Y-25684020D01*
X48524020Y-25830348D01*
X48409058Y-26002402D01*
X48329869Y-26193581D01*
X48289500Y-26396532D01*
X48289500Y-26603467D01*
X48329869Y-26806418D01*
X48409058Y-26997597D01*
X48498768Y-27131858D01*
X48524023Y-27169655D01*
X48670345Y-27315977D01*
X48842402Y-27430941D01*
X48878384Y-27445845D01*
X48924910Y-27485580D01*
X48939500Y-27537309D01*
X48939500Y-29551488D01*
X48920593Y-29609679D01*
X48895502Y-29633803D01*
X48762218Y-29722861D01*
X48762214Y-29722864D01*
X48622864Y-29862214D01*
X48622861Y-29862218D01*
X48513367Y-30026086D01*
X48437949Y-30208163D01*
X48437949Y-30208165D01*
X48399500Y-30401456D01*
X48399500Y-30598543D01*
X48437949Y-30791834D01*
X48437949Y-30791836D01*
X48513367Y-30973913D01*
X48513368Y-30973914D01*
X48622861Y-31137782D01*
X48762218Y-31277139D01*
X48830706Y-31322901D01*
X48926079Y-31386628D01*
X48926083Y-31386630D01*
X48926086Y-31386632D01*
X48926091Y-31386634D01*
X48967749Y-31403889D01*
X49014275Y-31443625D01*
X49025489Y-31469724D01*
X49026792Y-31474587D01*
X49026794Y-31474591D01*
X49079516Y-31565908D01*
X49079517Y-31565909D01*
X49079518Y-31565910D01*
X49079520Y-31565913D01*
X50506706Y-32993099D01*
X51921582Y-34407975D01*
X51949359Y-34462492D01*
X51943045Y-34515857D01*
X51937951Y-34528156D01*
X51937949Y-34528163D01*
X51899500Y-34721456D01*
X51899500Y-34918543D01*
X51937949Y-35111834D01*
X51937949Y-35111836D01*
X52013367Y-35293913D01*
X52013368Y-35293914D01*
X52122861Y-35457782D01*
X52262218Y-35597139D01*
X52347906Y-35654394D01*
X52426079Y-35706628D01*
X52426083Y-35706630D01*
X52426086Y-35706632D01*
X52438383Y-35711725D01*
X52484910Y-35751461D01*
X52499500Y-35803190D01*
X52499500Y-38947273D01*
X52499500Y-39052727D01*
X52523570Y-39142559D01*
X52526794Y-39154592D01*
X52579516Y-39245908D01*
X52579518Y-39245910D01*
X52579520Y-39245913D01*
X54479518Y-41145910D01*
X54479520Y-41145913D01*
X54554087Y-41220480D01*
X54599750Y-41246843D01*
X54645412Y-41273207D01*
X54747273Y-41300500D01*
X54852727Y-41300500D01*
X57295388Y-41300500D01*
X57353579Y-41319407D01*
X57389543Y-41368907D01*
X57394388Y-41399500D01*
X57394388Y-41504274D01*
X57397241Y-41534694D01*
X57397243Y-41534703D01*
X57442095Y-41662883D01*
X57522733Y-41772144D01*
X57522735Y-41772146D01*
X57522738Y-41772150D01*
X57522741Y-41772152D01*
X57522743Y-41772154D01*
X57632004Y-41852792D01*
X57632005Y-41852792D01*
X57632006Y-41852793D01*
X57760189Y-41897646D01*
X57790613Y-41900499D01*
X57790615Y-41900500D01*
X57790622Y-41900500D01*
X57895388Y-41900500D01*
X57953579Y-41919407D01*
X57989543Y-41968907D01*
X57994388Y-41999500D01*
X57994388Y-44298211D01*
X57975481Y-44356402D01*
X57965392Y-44368215D01*
X57439516Y-44894091D01*
X57386794Y-44985407D01*
X57386793Y-44985412D01*
X57370716Y-45045412D01*
X57370716Y-45045413D01*
X57370715Y-45045412D01*
X57359500Y-45087271D01*
X57359500Y-46616809D01*
X57340593Y-46675000D01*
X57298386Y-46708273D01*
X57286087Y-46713367D01*
X57286078Y-46713371D01*
X57122218Y-46822861D01*
X57122214Y-46822864D01*
X56982864Y-46962214D01*
X56982861Y-46962218D01*
X56873367Y-47126086D01*
X56797949Y-47308163D01*
X56797949Y-47308165D01*
X56759500Y-47501456D01*
X56759500Y-47698543D01*
X56797949Y-47891835D01*
X56803044Y-47904137D01*
X56807842Y-47965134D01*
X56781582Y-48012023D01*
X54523103Y-50270504D01*
X54468586Y-50298281D01*
X54453099Y-50299500D01*
X43506900Y-50299500D01*
X43448709Y-50280593D01*
X43436896Y-50270504D01*
X40732991Y-47566599D01*
X40667852Y-47501460D01*
X40667848Y-47501456D01*
X46599500Y-47501456D01*
X46599500Y-47501459D01*
X46599500Y-47698541D01*
X46634282Y-47873402D01*
X46637949Y-47891834D01*
X46637949Y-47891836D01*
X46713367Y-48073913D01*
X46713368Y-48073914D01*
X46822861Y-48237782D01*
X46962218Y-48377139D01*
X47126086Y-48486632D01*
X47308165Y-48562051D01*
X47501459Y-48600500D01*
X47501460Y-48600500D01*
X47698540Y-48600500D01*
X47698541Y-48600500D01*
X47891835Y-48562051D01*
X48073914Y-48486632D01*
X48237782Y-48377139D01*
X48377139Y-48237782D01*
X48486632Y-48073914D01*
X48562051Y-47891835D01*
X48600500Y-47698541D01*
X48600500Y-47501459D01*
X48562051Y-47308165D01*
X48486632Y-47126086D01*
X48377139Y-46962218D01*
X48237782Y-46822861D01*
X48128288Y-46749699D01*
X48073913Y-46713367D01*
X47891835Y-46637949D01*
X47698543Y-46599500D01*
X47698541Y-46599500D01*
X47501459Y-46599500D01*
X47501456Y-46599500D01*
X47308165Y-46637949D01*
X47308163Y-46637949D01*
X47126086Y-46713367D01*
X46962218Y-46822861D01*
X46962214Y-46822864D01*
X46822864Y-46962214D01*
X46822861Y-46962218D01*
X46713367Y-47126086D01*
X46637949Y-47308163D01*
X46637949Y-47308165D01*
X46599500Y-47501456D01*
X40667848Y-47501456D01*
X37929496Y-44763103D01*
X37901719Y-44708586D01*
X37900500Y-44693099D01*
X37900500Y-40126899D01*
X37902968Y-40119301D01*
X37901719Y-40111413D01*
X37912242Y-40090759D01*
X37919407Y-40068708D01*
X37929491Y-40056901D01*
X37987977Y-39998414D01*
X38042491Y-39970638D01*
X38095862Y-39976955D01*
X38108165Y-39982051D01*
X38301459Y-40020500D01*
X38301460Y-40020500D01*
X38498540Y-40020500D01*
X38498541Y-40020500D01*
X38691835Y-39982051D01*
X38873914Y-39906632D01*
X39037782Y-39797139D01*
X39177139Y-39657782D01*
X39286632Y-39493914D01*
X39362051Y-39311835D01*
X39400500Y-39118541D01*
X39400500Y-38921459D01*
X39362051Y-38728165D01*
X39286632Y-38546086D01*
X39177139Y-38382218D01*
X39037782Y-38242861D01*
X38873914Y-38133368D01*
X38873915Y-38133368D01*
X38873913Y-38133367D01*
X38691835Y-38057949D01*
X38498543Y-38019500D01*
X38498541Y-38019500D01*
X38301459Y-38019500D01*
X38301456Y-38019500D01*
X38108165Y-38057949D01*
X38108163Y-38057949D01*
X37926086Y-38133367D01*
X37762218Y-38242861D01*
X37762214Y-38242864D01*
X37622864Y-38382214D01*
X37622861Y-38382218D01*
X37513367Y-38546086D01*
X37437949Y-38728163D01*
X37437949Y-38728165D01*
X37399500Y-38921456D01*
X37399500Y-39118543D01*
X37437949Y-39311835D01*
X37443044Y-39324136D01*
X37447843Y-39385133D01*
X37421583Y-39432023D01*
X37179520Y-39674086D01*
X37179516Y-39674091D01*
X37126793Y-39765411D01*
X37126792Y-39765411D01*
X37126793Y-39765412D01*
X37099500Y-39867273D01*
X36500500Y-39867273D01*
X36500500Y-29265192D01*
X37299500Y-29265192D01*
X37299500Y-33147273D01*
X37299500Y-33252727D01*
X37323570Y-33342559D01*
X37326794Y-33354592D01*
X37379516Y-33445908D01*
X37379518Y-33445910D01*
X37379520Y-33445913D01*
X37870505Y-33936898D01*
X37898281Y-33991413D01*
X37899500Y-34006900D01*
X37899500Y-35196809D01*
X37880593Y-35255000D01*
X37838386Y-35288273D01*
X37826087Y-35293367D01*
X37826078Y-35293371D01*
X37662218Y-35402861D01*
X37662214Y-35402864D01*
X37522864Y-35542214D01*
X37522861Y-35542218D01*
X37413367Y-35706086D01*
X37337949Y-35888163D01*
X37337949Y-35888165D01*
X37299500Y-36081456D01*
X37299500Y-36278543D01*
X37337949Y-36471834D01*
X37337949Y-36471836D01*
X37413367Y-36653913D01*
X37413368Y-36653914D01*
X37522861Y-36817782D01*
X37662218Y-36957139D01*
X37826086Y-37066632D01*
X38008165Y-37142051D01*
X38201459Y-37180500D01*
X38201460Y-37180500D01*
X38398540Y-37180500D01*
X38398541Y-37180500D01*
X38591835Y-37142051D01*
X38773914Y-37066632D01*
X38937782Y-36957139D01*
X39077139Y-36817782D01*
X39186632Y-36653914D01*
X39262051Y-36471835D01*
X39300500Y-36278541D01*
X39300500Y-36081459D01*
X39262051Y-35888165D01*
X39186632Y-35706086D01*
X39077139Y-35542218D01*
X38937782Y-35402861D01*
X38891099Y-35371668D01*
X38773921Y-35293371D01*
X38773912Y-35293367D01*
X38761614Y-35288273D01*
X38715088Y-35248536D01*
X38700500Y-35196809D01*
X38700500Y-33747274D01*
X38700500Y-33747273D01*
X38673207Y-33645413D01*
X38673207Y-33645412D01*
X38673207Y-33645411D01*
X38620483Y-33554091D01*
X38620482Y-33554090D01*
X38620481Y-33554089D01*
X38620480Y-33554087D01*
X38129496Y-33063103D01*
X38101719Y-33008586D01*
X38100500Y-32993099D01*
X38100500Y-30861141D01*
X38119407Y-30802950D01*
X38168907Y-30766986D01*
X38230093Y-30766986D01*
X38279593Y-30802950D01*
X38290964Y-30823256D01*
X38353367Y-30973913D01*
X38353368Y-30973914D01*
X38462861Y-31137782D01*
X38602218Y-31277139D01*
X38766086Y-31386632D01*
X38948165Y-31462051D01*
X39141459Y-31500500D01*
X39141460Y-31500500D01*
X39338540Y-31500500D01*
X39338541Y-31500500D01*
X39531835Y-31462051D01*
X39713914Y-31386632D01*
X39877782Y-31277139D01*
X40017139Y-31137782D01*
X40126632Y-30973914D01*
X40202051Y-30791835D01*
X40240500Y-30598541D01*
X40240500Y-30401459D01*
X40202051Y-30208165D01*
X40126632Y-30026086D01*
X40017139Y-29862218D01*
X39877782Y-29722861D01*
X39744497Y-29633803D01*
X39713913Y-29613367D01*
X39531835Y-29537949D01*
X39338543Y-29499500D01*
X39338541Y-29499500D01*
X39141459Y-29499500D01*
X39141456Y-29499500D01*
X38948165Y-29537949D01*
X38948163Y-29537949D01*
X38766086Y-29613367D01*
X38602218Y-29722861D01*
X38602214Y-29722864D01*
X38462864Y-29862214D01*
X38462861Y-29862218D01*
X38353367Y-30026087D01*
X38290964Y-30176743D01*
X38251228Y-30223269D01*
X38191733Y-30237553D01*
X38135205Y-30214138D01*
X38103235Y-30161969D01*
X38100500Y-30138858D01*
X38100500Y-29524820D01*
X38119407Y-29466629D01*
X38129496Y-29454816D01*
X38512306Y-29072006D01*
X40625027Y-26959284D01*
X40679542Y-26931509D01*
X40739974Y-26941080D01*
X40783239Y-26984345D01*
X40786492Y-26991402D01*
X40789057Y-26997596D01*
X40878768Y-27131858D01*
X40904023Y-27169655D01*
X41050345Y-27315977D01*
X41222402Y-27430941D01*
X41258384Y-27445845D01*
X41304910Y-27485580D01*
X41319500Y-27537309D01*
X41319500Y-38873099D01*
X41300593Y-38931290D01*
X41290504Y-38943103D01*
X38579516Y-41654091D01*
X38526793Y-41745411D01*
X38526792Y-41745411D01*
X38526793Y-41745412D01*
X38519629Y-41772150D01*
X38499500Y-41847273D01*
X38499500Y-43847273D01*
X38499500Y-43952727D01*
X38506674Y-43979500D01*
X38526794Y-44054592D01*
X38579516Y-44145908D01*
X38579518Y-44145910D01*
X38579520Y-44145913D01*
X39879518Y-45445910D01*
X39879520Y-45445913D01*
X39954087Y-45520480D01*
X39954089Y-45520481D01*
X39954091Y-45520483D01*
X40032544Y-45565777D01*
X40045412Y-45573207D01*
X40045416Y-45573208D01*
X40066940Y-45578975D01*
X40066942Y-45578975D01*
X40147273Y-45600501D01*
X40252728Y-45600501D01*
X40252728Y-45600500D01*
X40352099Y-45573874D01*
X40377723Y-45570500D01*
X41117139Y-45570500D01*
X41175330Y-45589407D01*
X41189414Y-45601844D01*
X41194949Y-45607757D01*
X41211468Y-45632479D01*
X41312521Y-45733532D01*
X41312965Y-45733829D01*
X41316256Y-45737344D01*
X41328578Y-45763637D01*
X41341762Y-45789513D01*
X41341494Y-45791199D01*
X41342220Y-45792747D01*
X41336733Y-45821261D01*
X41332191Y-45849945D01*
X41330863Y-45851772D01*
X41330660Y-45852830D01*
X41328893Y-45854483D01*
X41313985Y-45875004D01*
X41211471Y-45977517D01*
X41211468Y-45977521D01*
X41132074Y-46096340D01*
X41132068Y-46096351D01*
X41077381Y-46228378D01*
X41077381Y-46228380D01*
X41049500Y-46368542D01*
X41049500Y-46511457D01*
X41077381Y-46651619D01*
X41077381Y-46651621D01*
X41132068Y-46783648D01*
X41132074Y-46783659D01*
X41179839Y-46855143D01*
X41211468Y-46902479D01*
X41312521Y-47003532D01*
X41383362Y-47050866D01*
X41431340Y-47082925D01*
X41431351Y-47082931D01*
X41480121Y-47103132D01*
X41563380Y-47137619D01*
X41703545Y-47165500D01*
X41703546Y-47165500D01*
X42296454Y-47165500D01*
X42296455Y-47165500D01*
X42436620Y-47137619D01*
X42568653Y-47082929D01*
X42687479Y-47003532D01*
X42788532Y-46902479D01*
X42867929Y-46783653D01*
X42922619Y-46651620D01*
X42950500Y-46511455D01*
X42950500Y-46368545D01*
X42922619Y-46228380D01*
X42867929Y-46096347D01*
X42867928Y-46096345D01*
X42867925Y-46096340D01*
X42835866Y-46048362D01*
X42788532Y-45977521D01*
X42788527Y-45977516D01*
X42788524Y-45977512D01*
X42686015Y-45875004D01*
X42658237Y-45820487D01*
X42667808Y-45760055D01*
X42686015Y-45734996D01*
X42788524Y-45632487D01*
X42788532Y-45632479D01*
X42867929Y-45513653D01*
X42922619Y-45381620D01*
X42950500Y-45241455D01*
X42950500Y-45098545D01*
X42927182Y-44981320D01*
X42934373Y-44920561D01*
X42975906Y-44875631D01*
X42989690Y-44869247D01*
X42992091Y-44868351D01*
X43107184Y-44782192D01*
X43107192Y-44782184D01*
X43193352Y-44667090D01*
X43193353Y-44667088D01*
X43243596Y-44532381D01*
X43243598Y-44532370D01*
X43250000Y-44472824D01*
X43250000Y-44150001D01*
X43249999Y-44150000D01*
X42280330Y-44150000D01*
X42300075Y-44130255D01*
X42349444Y-44044745D01*
X42375000Y-43949370D01*
X42375000Y-43850630D01*
X42349444Y-43755255D01*
X42300075Y-43669745D01*
X42280330Y-43650000D01*
X43249999Y-43650000D01*
X43250000Y-43649999D01*
X43250000Y-43327175D01*
X43243598Y-43267629D01*
X43243596Y-43267618D01*
X43193353Y-43132911D01*
X43193352Y-43132909D01*
X43107192Y-43017815D01*
X43107184Y-43017807D01*
X42992090Y-42931647D01*
X42992088Y-42931646D01*
X42857381Y-42881403D01*
X42857370Y-42881401D01*
X42797824Y-42875000D01*
X42250001Y-42875000D01*
X42250000Y-42875001D01*
X42250000Y-43619670D01*
X42230255Y-43599925D01*
X42144745Y-43550556D01*
X42049370Y-43525000D01*
X41950630Y-43525000D01*
X41855255Y-43550556D01*
X41769745Y-43599925D01*
X41750000Y-43619670D01*
X41750000Y-42875001D01*
X41749999Y-42875000D01*
X41202176Y-42875000D01*
X41142629Y-42881401D01*
X41142618Y-42881403D01*
X41007911Y-42931646D01*
X41007909Y-42931647D01*
X40892815Y-43017807D01*
X40892807Y-43017815D01*
X40806647Y-43132909D01*
X40806646Y-43132911D01*
X40756403Y-43267618D01*
X40756401Y-43267629D01*
X40750000Y-43327175D01*
X40750000Y-43649999D01*
X40750001Y-43650000D01*
X41719670Y-43650000D01*
X41699925Y-43669745D01*
X41650556Y-43755255D01*
X41625000Y-43850630D01*
X41625000Y-43949370D01*
X41650556Y-44044745D01*
X41699925Y-44130255D01*
X41719670Y-44150000D01*
X40750001Y-44150000D01*
X40750000Y-44150001D01*
X40750000Y-44472824D01*
X40749999Y-44472824D01*
X40756401Y-44532370D01*
X40756403Y-44532381D01*
X40795015Y-44635904D01*
X40797635Y-44697033D01*
X40763824Y-44748028D01*
X40706496Y-44769409D01*
X40702257Y-44769500D01*
X40376900Y-44769500D01*
X40318709Y-44750593D01*
X40306896Y-44740504D01*
X39329496Y-43763103D01*
X39301719Y-43708586D01*
X39300500Y-43693099D01*
X39300500Y-42106900D01*
X39319407Y-42048709D01*
X39329490Y-42036902D01*
X42040480Y-39325913D01*
X42041506Y-39324136D01*
X42093205Y-39234592D01*
X42093205Y-39234590D01*
X42093207Y-39234588D01*
X42120500Y-39132727D01*
X42120500Y-39027273D01*
X42120500Y-27537309D01*
X42139407Y-27479118D01*
X42181615Y-27445845D01*
X42217598Y-27430941D01*
X42389655Y-27315977D01*
X42535977Y-27169655D01*
X42650941Y-26997598D01*
X42730130Y-26806420D01*
X42770500Y-26603465D01*
X42770500Y-26396535D01*
X42770499Y-26396532D01*
X43209500Y-26396532D01*
X43209500Y-26603467D01*
X43249869Y-26806418D01*
X43329058Y-26997597D01*
X43418768Y-27131858D01*
X43444023Y-27169655D01*
X43590345Y-27315977D01*
X43762402Y-27430941D01*
X43953580Y-27510130D01*
X44156535Y-27550500D01*
X44156536Y-27550500D01*
X44363464Y-27550500D01*
X44363465Y-27550500D01*
X44566420Y-27510130D01*
X44757598Y-27430941D01*
X44929655Y-27315977D01*
X45075977Y-27169655D01*
X45190941Y-26997598D01*
X45270130Y-26806420D01*
X45310500Y-26603465D01*
X45310500Y-26396535D01*
X45310499Y-26396532D01*
X45749500Y-26396532D01*
X45749500Y-26603467D01*
X45789869Y-26806418D01*
X45869058Y-26997597D01*
X45958768Y-27131858D01*
X45984023Y-27169655D01*
X46130345Y-27315977D01*
X46302402Y-27430941D01*
X46338384Y-27445845D01*
X46384910Y-27485580D01*
X46399500Y-27537309D01*
X46399500Y-42747273D01*
X46399500Y-42852727D01*
X46407183Y-42881401D01*
X46426794Y-42954592D01*
X46479516Y-43045908D01*
X46479517Y-43045909D01*
X46479518Y-43045910D01*
X46479520Y-43045913D01*
X48121770Y-44688163D01*
X49744839Y-46311232D01*
X49772616Y-46365749D01*
X49768990Y-46411829D01*
X49726597Y-46542301D01*
X49699500Y-46713385D01*
X49699500Y-46886614D01*
X49726597Y-47057702D01*
X49726598Y-47057706D01*
X49780123Y-47222438D01*
X49780125Y-47222441D01*
X49780126Y-47222444D01*
X49780127Y-47222445D01*
X49858768Y-47376788D01*
X49960586Y-47516928D01*
X50083072Y-47639414D01*
X50223212Y-47741232D01*
X50377555Y-47819873D01*
X50377557Y-47819873D01*
X50377558Y-47819874D01*
X50377561Y-47819876D01*
X50542293Y-47873401D01*
X50542297Y-47873402D01*
X50713386Y-47900500D01*
X50713389Y-47900500D01*
X50886614Y-47900500D01*
X51057702Y-47873402D01*
X51057706Y-47873401D01*
X51222438Y-47819876D01*
X51222440Y-47819874D01*
X51222445Y-47819873D01*
X51376788Y-47741232D01*
X51516928Y-47639414D01*
X51639414Y-47516928D01*
X51741232Y-47376788D01*
X51819873Y-47222445D01*
X51819874Y-47222440D01*
X51819876Y-47222438D01*
X51873401Y-47057706D01*
X51873402Y-47057702D01*
X51900500Y-46886614D01*
X51900500Y-46713385D01*
X51873402Y-46542297D01*
X51873401Y-46542293D01*
X51819876Y-46377561D01*
X51819874Y-46377558D01*
X51819873Y-46377557D01*
X51819873Y-46377555D01*
X51741232Y-46223212D01*
X51639414Y-46083072D01*
X51516928Y-45960586D01*
X51376788Y-45858768D01*
X51376787Y-45858767D01*
X51376785Y-45858766D01*
X51222441Y-45780125D01*
X51222438Y-45780123D01*
X51057706Y-45726598D01*
X51057702Y-45726597D01*
X50886614Y-45699500D01*
X50886611Y-45699500D01*
X50713389Y-45699500D01*
X50713386Y-45699500D01*
X50542301Y-45726597D01*
X50411829Y-45768990D01*
X50350643Y-45768990D01*
X50311232Y-45744839D01*
X49447849Y-44881456D01*
X51899500Y-44881456D01*
X51899500Y-45078543D01*
X51937949Y-45271834D01*
X51937949Y-45271836D01*
X52013367Y-45453913D01*
X52013368Y-45453914D01*
X52122861Y-45617782D01*
X52262218Y-45757139D01*
X52426086Y-45866632D01*
X52608165Y-45942051D01*
X52801459Y-45980500D01*
X52801460Y-45980500D01*
X52998540Y-45980500D01*
X52998541Y-45980500D01*
X53191835Y-45942051D01*
X53373914Y-45866632D01*
X53537782Y-45757139D01*
X53677139Y-45617782D01*
X53786632Y-45453914D01*
X53862051Y-45271835D01*
X53900500Y-45078541D01*
X53900500Y-44881459D01*
X53862051Y-44688165D01*
X53786632Y-44506086D01*
X53677139Y-44342218D01*
X53537782Y-44202861D01*
X53373914Y-44093368D01*
X53373915Y-44093368D01*
X53373913Y-44093367D01*
X53191835Y-44017949D01*
X52998543Y-43979500D01*
X52998541Y-43979500D01*
X52801459Y-43979500D01*
X52801456Y-43979500D01*
X52608165Y-44017949D01*
X52608163Y-44017949D01*
X52426086Y-44093367D01*
X52262218Y-44202861D01*
X52262214Y-44202864D01*
X52122864Y-44342214D01*
X52122861Y-44342218D01*
X52013367Y-44506086D01*
X51937949Y-44688163D01*
X51937949Y-44688165D01*
X51899500Y-44881456D01*
X49447849Y-44881456D01*
X47229496Y-42663103D01*
X47201719Y-42608586D01*
X47200500Y-42593099D01*
X47200500Y-27537309D01*
X47219407Y-27479118D01*
X47261615Y-27445845D01*
X47297598Y-27430941D01*
X47469655Y-27315977D01*
X47615977Y-27169655D01*
X47730941Y-26997598D01*
X47810130Y-26806420D01*
X47850500Y-26603465D01*
X47850500Y-26396535D01*
X47810130Y-26193580D01*
X47730941Y-26002402D01*
X47615977Y-25830345D01*
X47469655Y-25684023D01*
X47469651Y-25684020D01*
X47297597Y-25569058D01*
X47106418Y-25489869D01*
X46903467Y-25449500D01*
X46903465Y-25449500D01*
X46696535Y-25449500D01*
X46696532Y-25449500D01*
X46493581Y-25489869D01*
X46302402Y-25569058D01*
X46130348Y-25684020D01*
X45984020Y-25830348D01*
X45869058Y-26002402D01*
X45789869Y-26193581D01*
X45749500Y-26396532D01*
X45310499Y-26396532D01*
X45270130Y-26193580D01*
X45190941Y-26002402D01*
X45075977Y-25830345D01*
X44929655Y-25684023D01*
X44929651Y-25684020D01*
X44757597Y-25569058D01*
X44566418Y-25489869D01*
X44363467Y-25449500D01*
X44363465Y-25449500D01*
X44156535Y-25449500D01*
X44156532Y-25449500D01*
X43953581Y-25489869D01*
X43762402Y-25569058D01*
X43590348Y-25684020D01*
X43444020Y-25830348D01*
X43329058Y-26002402D01*
X43249869Y-26193581D01*
X43209500Y-26396532D01*
X42770499Y-26396532D01*
X42730130Y-26193580D01*
X42650941Y-26002402D01*
X42535977Y-25830345D01*
X42389655Y-25684023D01*
X42389651Y-25684020D01*
X42217597Y-25569058D01*
X42026418Y-25489869D01*
X41823467Y-25449500D01*
X41823465Y-25449500D01*
X41616535Y-25449500D01*
X41616532Y-25449500D01*
X41413581Y-25489869D01*
X41222402Y-25569058D01*
X41050348Y-25684020D01*
X40904020Y-25830348D01*
X40789057Y-26002404D01*
X40774154Y-26038385D01*
X40734418Y-26084911D01*
X40682690Y-26099500D01*
X40570646Y-26099500D01*
X40465192Y-26099500D01*
X40402848Y-26116204D01*
X40363326Y-26126794D01*
X40272010Y-26179516D01*
X37379516Y-29072010D01*
X37326793Y-29163330D01*
X37326792Y-29163330D01*
X37326793Y-29163331D01*
X37326793Y-29163332D01*
X37299500Y-29265192D01*
X36500500Y-29265192D01*
X36500500Y-25917684D01*
X37000000Y-25917684D01*
X37000000Y-26122315D01*
X37032008Y-26324412D01*
X37095243Y-26519027D01*
X37188139Y-26701348D01*
X37188143Y-26701353D01*
X37220523Y-26745920D01*
X37220524Y-26745920D01*
X37900000Y-26066444D01*
X37900000Y-26072661D01*
X37927259Y-26174394D01*
X37979920Y-26265606D01*
X38054394Y-26340080D01*
X38145606Y-26392741D01*
X38247339Y-26420000D01*
X38253553Y-26420000D01*
X37574078Y-27099475D01*
X37618647Y-27131858D01*
X37800972Y-27224756D01*
X37995587Y-27287991D01*
X38197685Y-27320000D01*
X38402315Y-27320000D01*
X38604412Y-27287991D01*
X38799027Y-27224756D01*
X38981342Y-27131863D01*
X38981350Y-27131858D01*
X39025920Y-27099475D01*
X38346445Y-26420000D01*
X38352661Y-26420000D01*
X38454394Y-26392741D01*
X38545606Y-26340080D01*
X38620080Y-26265606D01*
X38672741Y-26174394D01*
X38700000Y-26072661D01*
X38700000Y-26066445D01*
X39379475Y-26745920D01*
X39411858Y-26701350D01*
X39411863Y-26701342D01*
X39504756Y-26519027D01*
X39567991Y-26324412D01*
X39600000Y-26122315D01*
X39600000Y-25917684D01*
X39567991Y-25715587D01*
X39504756Y-25520972D01*
X39411858Y-25338647D01*
X39379475Y-25294078D01*
X38700000Y-25973553D01*
X38700000Y-25967339D01*
X38672741Y-25865606D01*
X38620080Y-25774394D01*
X38545606Y-25699920D01*
X38454394Y-25647259D01*
X38352661Y-25620000D01*
X38346445Y-25620000D01*
X39025920Y-24940524D01*
X39025920Y-24940523D01*
X38981353Y-24908143D01*
X38981348Y-24908139D01*
X38799027Y-24815243D01*
X38604412Y-24752008D01*
X38402315Y-24720000D01*
X38197685Y-24720000D01*
X37995587Y-24752008D01*
X37800972Y-24815243D01*
X37618651Y-24908139D01*
X37618647Y-24908141D01*
X37574078Y-24940523D01*
X38253555Y-25620000D01*
X38247339Y-25620000D01*
X38145606Y-25647259D01*
X38054394Y-25699920D01*
X37979920Y-25774394D01*
X37927259Y-25865606D01*
X37900000Y-25967339D01*
X37900000Y-25973555D01*
X37220523Y-25294078D01*
X37188141Y-25338647D01*
X37188139Y-25338651D01*
X37095243Y-25520972D01*
X37032008Y-25715587D01*
X37000000Y-25917684D01*
X36500500Y-25917684D01*
X36500500Y-24599500D01*
X36519407Y-24541309D01*
X36568907Y-24505345D01*
X36599500Y-24500500D01*
X63400500Y-24500500D01*
X63458691Y-24519407D01*
G37*
%TD.AperFunction*%
%TD*%
M02*
