%TF.GenerationSoftware,KiCad,Pcbnew,10.0.3-2.fc44*%
%TF.CreationDate,2026-05-25T14:44:46-04:00*%
%TF.ProjectId,SupaClock_Carrier,53757061-436c-46f6-936b-5f4361727269,v1.0*%
%TF.SameCoordinates,Original*%
%TF.FileFunction,Copper,L1,Top*%
%TF.FilePolarity,Positive*%
%FSLAX46Y46*%
G04 Gerber Fmt 4.6, Leading zero omitted, Abs format (unit mm)*
G04 Created by KiCad (PCBNEW 10.0.3-2.fc44) date 2026-05-25 14:44:46*
%MOMM*%
%LPD*%
G01*
G04 APERTURE LIST*
G04 Aperture macros list*
%AMRoundRect*
0 Rectangle with rounded corners*
0 $1 Rounding radius*
0 $2 $3 $4 $5 $6 $7 $8 $9 X,Y pos of 4 corners*
0 Add a 4 corners polygon primitive as box body*
4,1,4,$2,$3,$4,$5,$6,$7,$8,$9,$2,$3,0*
0 Add four circle primitives for the rounded corners*
1,1,$1+$1,$2,$3*
1,1,$1+$1,$4,$5*
1,1,$1+$1,$6,$7*
1,1,$1+$1,$8,$9*
0 Add four rect primitives between the rounded corners*
20,1,$1+$1,$2,$3,$4,$5,0*
20,1,$1+$1,$4,$5,$6,$7,0*
20,1,$1+$1,$6,$7,$8,$9,0*
20,1,$1+$1,$8,$9,$2,$3,0*%
G04 Aperture macros list end*
%TA.AperFunction,ComponentPad*%
%ADD10C,2.200000*%
%TD*%
%TA.AperFunction,ComponentPad*%
%ADD11C,1.600000*%
%TD*%
%TA.AperFunction,SMDPad,CuDef*%
%ADD12R,1.300000X1.450000*%
%TD*%
%TA.AperFunction,ComponentPad*%
%ADD13C,6.000000*%
%TD*%
%TA.AperFunction,ComponentPad*%
%ADD14RoundRect,0.250000X0.550000X-0.550000X0.550000X0.550000X-0.550000X0.550000X-0.550000X-0.550000X0*%
%TD*%
%TA.AperFunction,SMDPad,CuDef*%
%ADD15RoundRect,0.152400X0.609600X-1.063600X0.609600X1.063600X-0.609600X1.063600X-0.609600X-1.063600X0*%
%TD*%
%TA.AperFunction,ComponentPad*%
%ADD16C,2.089000*%
%TD*%
%TA.AperFunction,SMDPad,CuDef*%
%ADD17RoundRect,0.152400X-0.609600X1.063600X-0.609600X-1.063600X0.609600X-1.063600X0.609600X1.063600X0*%
%TD*%
%TA.AperFunction,ViaPad*%
%ADD18C,1.800000*%
%TD*%
%TA.AperFunction,Conductor*%
%ADD19C,0.400000*%
%TD*%
G04 APERTURE END LIST*
D10*
%TO.P,J11,1,Pin_1_1*%
%TO.N,/GND*%
X91934575Y-70434575D03*
%TO.P,J11,2,Pin_2_2*%
%TO.N,/+3V3*%
X91934575Y-67894575D03*
%TO.P,J11,3,Pin_3_3*%
%TO.N,/ECG_OUT*%
X91934575Y-65354575D03*
%TO.P,J11,4,Pin_4_4*%
%TO.N,unconnected-(J11-Pin_4-Pad4)*%
X91934575Y-62814575D03*
%TO.P,J11,5,Pin_5_5*%
%TO.N,unconnected-(J11-Pin_5-Pad5)*%
X91934575Y-60274575D03*
%TO.P,J11,6,Pin_6_6*%
%TO.N,/ECG_SDN*%
X91934575Y-57734575D03*
%TD*%
D11*
%TO.P,C6,1*%
%TO.N,/SPI_RES*%
X102409575Y-39409575D03*
%TO.P,C6,2*%
%TO.N,/GND*%
X97409575Y-39409575D03*
%TD*%
%TO.P,R5,1*%
%TO.N,/+3V3*%
X116409575Y-39409575D03*
%TO.P,R5,2*%
%TO.N,/SPI_RES*%
X108789575Y-39409575D03*
%TD*%
D10*
%TO.P,J13,1,Pin_1_1*%
%TO.N,/ECG_RA*%
X77934575Y-80434575D03*
%TO.P,J13,2,Pin_2_2*%
%TO.N,/ECG_LA*%
X75394575Y-80434575D03*
%TO.P,J13,3,Pin_3_3*%
%TO.N,/ECG_RL*%
X72854575Y-80434575D03*
%TD*%
D12*
%TO.P,SW1,1,1_1*%
%TO.N,/BTN_SELECT*%
X144909575Y-75909575D03*
X144909575Y-69159575D03*
%TO.P,SW1,2,2_2*%
%TO.N,/GND*%
X148009575Y-75909575D03*
X148009575Y-69159575D03*
%TD*%
D10*
%TO.P,J5,1,Pin_1_1*%
%TO.N,/+3V3*%
X128384575Y-77509575D03*
%TO.P,J5,2,Pin_2_2*%
%TO.N,unconnected-(J5-Pin_2-Pad2)*%
X128384575Y-74969575D03*
%TO.P,J5,3,Pin_3_3*%
%TO.N,/GND*%
X128384575Y-72429575D03*
%TO.P,J5,4,Pin_4_4*%
%TO.N,/I2C_SCL*%
X128384575Y-69889575D03*
%TO.P,J5,5,Pin_5_5*%
%TO.N,/I2C_SDA*%
X128384575Y-67349575D03*
%TO.P,J5,6,Pin_6_6*%
%TO.N,/+3V3*%
X128384575Y-64809575D03*
%TO.P,J5,7,Pin_7_7*%
%TO.N,/GND*%
X128384575Y-62269575D03*
%TD*%
%TO.P,J6a1,1,Pin_1_1*%
%TO.N,unconnected-(J6a1-Pin_1-Pad1)*%
X81434575Y-41659575D03*
%TO.P,J6a1,2,Pin_2_2*%
%TO.N,/GND*%
X83974575Y-41659575D03*
%TO.P,J6a1,3,Pin_3_3*%
%TO.N,unconnected-(J6a1-Pin_3-Pad3)*%
X86514575Y-41659575D03*
%TD*%
D13*
%TO.P,J12_RA1,1,Pin_1_1*%
%TO.N,/ECG_RA*%
X107500000Y-84000000D03*
%TD*%
D10*
%TO.P,J6b1,1,Pin_1_1*%
%TO.N,/I2C_SDA*%
X81409575Y-33634575D03*
%TO.P,J6b1,2,Pin_2_2*%
%TO.N,/I2C_SCL*%
X83949575Y-33634575D03*
%TO.P,J6b1,3,Pin_3_3*%
%TO.N,unconnected-(J6b1-Pin_3-Pad3)*%
X86489575Y-33634575D03*
%TD*%
D14*
%TO.P,C2,1*%
%TO.N,/+BATT*%
X126409575Y-26909575D03*
D11*
%TO.P,C2,2*%
%TO.N,/GND*%
X126409575Y-24409575D03*
%TD*%
D10*
%TO.P,J7,1,Pin_1_1*%
%TO.N,/BLK_PWM*%
X118189575Y-34409575D03*
%TO.P,J7,2,Pin_2_2*%
%TO.N,/SPI_CS*%
X115649575Y-34409575D03*
%TO.P,J7,3,Pin_3_3*%
%TO.N,/SPI_DC*%
X113109575Y-34409575D03*
%TO.P,J7,4,Pin_4_4*%
%TO.N,/SPI_RES*%
X110569575Y-34409575D03*
%TO.P,J7,5,Pin_5_5*%
%TO.N,/SPI_MOSI*%
X108029575Y-34409575D03*
%TO.P,J7,6,Pin_6_6*%
%TO.N,/SPI_SCK*%
X105489575Y-34409575D03*
%TO.P,J7,7,Pin_7_7*%
%TO.N,/+3V3*%
X102949575Y-34409575D03*
%TO.P,J7,8,Pin_8_8*%
%TO.N,/GND*%
X100409575Y-34409575D03*
%TD*%
%TO.P,J15,1,Pin_1_1*%
%TO.N,/+BATT*%
X126884575Y-36449575D03*
%TO.P,J15,2,Pin_2_2*%
%TO.N,/GND*%
X126884575Y-33909575D03*
%TD*%
D11*
%TO.P,C3,1*%
%TO.N,/+3V3*%
X140409575Y-52909575D03*
%TO.P,C3,2*%
%TO.N,/GND*%
X140409575Y-57909575D03*
%TD*%
D13*
%TO.P,J12_LA1,1,Pin_1_1*%
%TO.N,/ECG_LA*%
X129909575Y-55909575D03*
%TD*%
%TO.P,J12_RL1,1,Pin_1_1*%
%TO.N,/ECG_RL*%
X76500000Y-56500000D03*
%TD*%
D12*
%TO.P,SW2,1,1_1*%
%TO.N,/BTN_NEXT*%
X144809575Y-63409575D03*
X144809575Y-56659575D03*
%TO.P,SW2,2,2_2*%
%TO.N,/GND*%
X147909575Y-63409575D03*
X147909575Y-56659575D03*
%TD*%
D15*
%TO.P,U1,1,GPIO1_A0_D0_1*%
%TO.N,/ECG_OUT*%
X147029575Y-31454575D03*
D16*
X147029575Y-32289575D03*
D15*
%TO.P,U1,2,GPIO2_A1_D1_2*%
%TO.N,/ECG_SDN*%
X144489575Y-31454575D03*
D16*
X144489575Y-32289575D03*
D15*
%TO.P,U1,3,GPIO3_A2_D2_3*%
%TO.N,/BLK_PWM*%
X141949575Y-31454575D03*
D16*
X141949575Y-32289575D03*
D15*
%TO.P,U1,4,GPIO4_A3_D3_4*%
%TO.N,/SPI_DC*%
X139409575Y-31454575D03*
D16*
X139409575Y-32289575D03*
D15*
%TO.P,U1,5,GPIO5_A4_D4_SDA_5*%
%TO.N,/I2C_SDA*%
X136869575Y-31454575D03*
D16*
X136869575Y-32289575D03*
D15*
%TO.P,U1,6,GPIO6_A5_D5_SCL_6*%
%TO.N,/I2C_SCL*%
X134329575Y-31454575D03*
D16*
X134329575Y-32289575D03*
D15*
%TO.P,U1,7,GPIO43_D6_TX_7*%
%TO.N,/BTN_NEXT*%
X131789575Y-31454575D03*
D16*
X131789575Y-32289575D03*
%TO.P,U1,8,GPIO44_D7_RX_8*%
%TO.N,/SPI_CS*%
X131789575Y-47529575D03*
D17*
X131789575Y-48364575D03*
D16*
%TO.P,U1,9,GPIO7_A8_D8_SCK_9*%
%TO.N,/SPI_SCK*%
X134329575Y-47529575D03*
D17*
X134329575Y-48364575D03*
D16*
%TO.P,U1,10,GPIO8_A9_D9_MISO_10*%
%TO.N,/BTN_SELECT*%
X136869575Y-47529575D03*
D17*
X136869575Y-48364575D03*
D16*
%TO.P,U1,11,GPIO9_A10_D10_MOSI_11*%
%TO.N,/SPI_MOSI*%
X139409575Y-47529575D03*
D17*
X139409575Y-48364575D03*
D16*
%TO.P,U1,12,3V3_12*%
%TO.N,/+3V3*%
X141949575Y-47529575D03*
D17*
X141949575Y-48364575D03*
D16*
%TO.P,U1,13,GND_13*%
%TO.N,/GND*%
X144489575Y-47529575D03*
D17*
X144489575Y-48364575D03*
D16*
%TO.P,U1,14,VBUS_14*%
%TO.N,unconnected-(U1-VBUS-Pad14)_1*%
X147029575Y-47529575D03*
D17*
%TO.N,unconnected-(U1-VBUS-Pad14)*%
X147029575Y-48364575D03*
%TD*%
D10*
%TO.P,J6c1,1,Pin_1_1*%
%TO.N,/+BATT*%
X79434575Y-36659575D03*
%TO.P,J6c1,2,Pin_2_2*%
%TO.N,/GND*%
X79434575Y-39199575D03*
%TD*%
D18*
%TO.N,/GND*%
X111800000Y-30200000D03*
X142000000Y-23300000D03*
%TO.N,/BTN_SELECT*%
X134909575Y-52909575D03*
%TO.N,/I2C_SDA*%
X113219575Y-70929575D03*
%TO.N,/SPI_CS*%
X122600000Y-42300000D03*
%TD*%
%TO.N,/GND*%
D19*
X128384575Y-72429575D02*
X126904575Y-73909575D01*
X144489575Y-48364575D02*
X144489575Y-47529575D01*
X140486275Y-57986275D02*
X140409575Y-57909575D01*
X95409575Y-73909575D02*
X91934575Y-70434575D01*
X148009575Y-63509575D02*
X147909575Y-63409575D01*
X126904575Y-73909575D02*
X95409575Y-73909575D01*
%TO.N,/+3V3*%
X107409575Y-66909575D02*
X92925160Y-66909575D01*
X140409575Y-52909575D02*
X141949575Y-51369575D01*
X141949575Y-51369575D02*
X141949575Y-48364575D01*
X141949575Y-48364575D02*
X141949575Y-47529575D01*
X126784575Y-66409575D02*
X107909575Y-66409575D01*
X128384575Y-64809575D02*
X126784575Y-66409575D01*
X92674575Y-67154575D02*
X91934575Y-67894575D01*
X107909575Y-66409575D02*
X107409575Y-66909575D01*
X141949575Y-46949575D02*
X141949575Y-47529575D01*
X92680160Y-67154575D02*
X92674575Y-67154575D01*
X92925160Y-66909575D02*
X92680160Y-67154575D01*
%TO.N,/ECG_OUT*%
X88183875Y-61697975D02*
X91840475Y-65354575D01*
X147029575Y-32289575D02*
X147029575Y-31454575D01*
X147029575Y-31454575D02*
X147029575Y-31063275D01*
X76409575Y-46093975D02*
X88183875Y-57868275D01*
X147029575Y-31063275D02*
X138375875Y-22409575D01*
X89991975Y-22409575D02*
X76409575Y-35991975D01*
X76409575Y-35991975D02*
X76409575Y-46093975D01*
X91840475Y-65354575D02*
X91934575Y-65354575D01*
X138375875Y-22409575D02*
X89991975Y-22409575D01*
X88183875Y-57868275D02*
X88183875Y-61697975D01*
%TO.N,/ECG_SDN*%
X142045775Y-28659875D02*
X103546275Y-28659875D01*
X91934575Y-40271575D02*
X91934575Y-57734575D01*
X144489575Y-32289575D02*
X144489575Y-31454575D01*
X144489575Y-31454575D02*
X144489575Y-31103675D01*
X103546275Y-28659875D02*
X91934575Y-40271575D01*
X144489575Y-31103675D02*
X142045775Y-28659875D01*
%TO.N,/SPI_RES*%
X102409575Y-39409575D02*
X108789575Y-39409575D01*
%TO.N,/ECG_RA*%
X81500000Y-84000000D02*
X107500000Y-84000000D01*
X77934575Y-80434575D02*
X81500000Y-84000000D01*
%TO.N,/ECG_LA*%
X75394575Y-80434575D02*
X75394575Y-80322075D01*
X131909575Y-56909575D02*
X129909575Y-54909575D01*
X129409575Y-81909575D02*
X131909575Y-79409575D01*
X126409575Y-81909575D02*
X129409575Y-81909575D01*
X123132175Y-78632175D02*
X126409575Y-81909575D01*
X77084475Y-78632175D02*
X123132175Y-78632175D01*
X131909575Y-79409575D02*
X131909575Y-56909575D01*
X75394575Y-80322075D02*
X77084475Y-78632175D01*
%TO.N,/ECG_RL*%
X72854575Y-80532975D02*
X72854575Y-80434575D01*
X72854575Y-80434575D02*
X72854575Y-60145425D01*
X72854575Y-60145425D02*
X76500000Y-56500000D01*
%TO.N,/BTN_SELECT*%
X144909575Y-69159575D02*
X144909575Y-75909575D01*
X136869575Y-48364575D02*
X136869575Y-47529575D01*
X143657875Y-69159575D02*
X144909575Y-69159575D01*
X135409575Y-60911275D02*
X143657875Y-69159575D01*
X134909575Y-52909575D02*
X134909575Y-53869575D01*
X135409575Y-54369575D02*
X135409575Y-60911275D01*
X134909575Y-53869575D02*
X135409575Y-54369575D01*
%TO.N,/I2C_SCL*%
X134329575Y-32289575D02*
X134329575Y-31454575D01*
%TO.N,/I2C_SDA*%
X114497075Y-69652075D02*
X126082075Y-69652075D01*
X136869575Y-32289575D02*
X136869575Y-31454575D01*
X126082075Y-69652075D02*
X128384575Y-67349575D01*
X113219575Y-70929575D02*
X114497075Y-69652075D01*
%TO.N,/+BATT*%
X126409575Y-26909575D02*
X102450475Y-26909575D01*
X102450475Y-26909575D02*
X92700475Y-36659575D01*
X92700475Y-36659575D02*
X79434575Y-36659575D01*
%TO.N,/BLK_PWM*%
X141949575Y-32289575D02*
X141949575Y-31454575D01*
%TO.N,/SPI_CS*%
X131789575Y-47529575D02*
X129860000Y-45600000D01*
X124100000Y-42300000D02*
X122600000Y-42300000D01*
X129860000Y-45600000D02*
X127400000Y-45600000D01*
X131789575Y-48364575D02*
X131789575Y-47529575D01*
X127400000Y-45600000D02*
X124100000Y-42300000D01*
%TO.N,/SPI_DC*%
X139409575Y-32289575D02*
X139409575Y-31454575D01*
X139409575Y-31227475D02*
X139409575Y-31454575D01*
X117884575Y-29634575D02*
X113109575Y-34409575D01*
X137816675Y-29634575D02*
X139409575Y-31227475D01*
X137816675Y-29634575D02*
X117884575Y-29634575D01*
%TO.N,/SPI_MOSI*%
X139409575Y-47529575D02*
X139409575Y-47109575D01*
X110420000Y-36800000D02*
X108029575Y-34409575D01*
X139409575Y-48364575D02*
X139409575Y-47529575D01*
X132589949Y-44100000D02*
X127989950Y-44100000D01*
X120689949Y-36800000D02*
X110420000Y-36800000D01*
X137500000Y-45200000D02*
X133689950Y-45200000D01*
X139409575Y-47109575D02*
X137500000Y-45200000D01*
X133689950Y-45200000D02*
X132589949Y-44100000D01*
X127989950Y-44100000D02*
X120689949Y-36800000D01*
%TO.N,/SPI_SCK*%
X120400000Y-37500000D02*
X108840000Y-37500000D01*
X132300000Y-44800000D02*
X127700000Y-44800000D01*
X108840000Y-37500000D02*
X105749575Y-34409575D01*
X134329575Y-47529575D02*
X134329575Y-46829575D01*
X134329575Y-46829575D02*
X132300000Y-44800000D01*
X127700000Y-44800000D02*
X120400000Y-37500000D01*
X134329575Y-47529575D02*
X134129575Y-47529575D01*
X105749575Y-34409575D02*
X105489575Y-34409575D01*
%TO.N,/BTN_NEXT*%
X137409575Y-57409575D02*
X137409575Y-58909575D01*
X131789575Y-32289575D02*
X133909575Y-34409575D01*
X139409575Y-55409575D02*
X137409575Y-57409575D01*
X142307875Y-55409575D02*
X139409575Y-55409575D01*
X137409575Y-58909575D02*
X141909575Y-63409575D01*
X148674075Y-52795075D02*
X144809575Y-56659575D01*
X133909575Y-34409575D02*
X146409575Y-34409575D01*
X148709575Y-36709575D02*
X148709575Y-52759575D01*
X148674075Y-52795075D02*
X148484575Y-52984575D01*
X148709575Y-52759575D02*
X148674075Y-52795075D01*
X131789575Y-32289575D02*
X131789575Y-31454575D01*
X146409575Y-34409575D02*
X148709575Y-36709575D01*
X143557875Y-56659575D02*
X142307875Y-55409575D01*
X141909575Y-63409575D02*
X144809575Y-63409575D01*
X144809575Y-56659575D02*
X143557875Y-56659575D01*
%TD*%
%TA.AperFunction,Conductor*%
%TO.N,/GND*%
G36*
X148852114Y-21429760D02*
G01*
X148897869Y-21482564D01*
X148909075Y-21534075D01*
X148909075Y-35760478D01*
X148889390Y-35827517D01*
X148836586Y-35873272D01*
X148767428Y-35883216D01*
X148703872Y-35854191D01*
X148697394Y-35848159D01*
X146897165Y-34047930D01*
X146890096Y-34040861D01*
X146890095Y-34040859D01*
X146791175Y-33941939D01*
X146757693Y-33880619D01*
X146762677Y-33810927D01*
X146804549Y-33754994D01*
X146870013Y-33730577D01*
X146870014Y-33730577D01*
X146898253Y-33731787D01*
X146915851Y-33734575D01*
X146915853Y-33734575D01*
X147143298Y-33734575D01*
X147143299Y-33734575D01*
X147367947Y-33698994D01*
X147367950Y-33698993D01*
X147367951Y-33698993D01*
X147584259Y-33628710D01*
X147584259Y-33628709D01*
X147584262Y-33628709D01*
X147786920Y-33525450D01*
X147970929Y-33391759D01*
X148131759Y-33230929D01*
X148265450Y-33046920D01*
X148368709Y-32844262D01*
X148400219Y-32747284D01*
X148438993Y-32627951D01*
X148438993Y-32627950D01*
X148438994Y-32627947D01*
X148474575Y-32403299D01*
X148474575Y-32175851D01*
X148438994Y-31951203D01*
X148438993Y-31951199D01*
X148438993Y-31951198D01*
X148368710Y-31734890D01*
X148368709Y-31734888D01*
X148265450Y-31532230D01*
X148261101Y-31526245D01*
X148215756Y-31463831D01*
X148192276Y-31398025D01*
X148192074Y-31390946D01*
X148192074Y-30347696D01*
X148192074Y-30347691D01*
X148181405Y-30258837D01*
X148125647Y-30117445D01*
X148125646Y-30117444D01*
X148125646Y-30117443D01*
X148033810Y-29996339D01*
X147912706Y-29904503D01*
X147771311Y-29848744D01*
X147725702Y-29843267D01*
X147682460Y-29838075D01*
X147682454Y-29838075D01*
X146704972Y-29838075D01*
X146637933Y-29818390D01*
X146617291Y-29801756D01*
X141114888Y-24299353D01*
X144509075Y-24299353D01*
X144509075Y-24519796D01*
X144543560Y-24737527D01*
X144611678Y-24947178D01*
X144611679Y-24947181D01*
X144679697Y-25080671D01*
X144707632Y-25135496D01*
X144711762Y-25143600D01*
X144841327Y-25321933D01*
X144841331Y-25321938D01*
X144997211Y-25477818D01*
X144997216Y-25477822D01*
X145048037Y-25514745D01*
X145175553Y-25607390D01*
X145303950Y-25672812D01*
X145371968Y-25707470D01*
X145371971Y-25707471D01*
X145454043Y-25734137D01*
X145581624Y-25775590D01*
X145799353Y-25810075D01*
X145799354Y-25810075D01*
X146019796Y-25810075D01*
X146019797Y-25810075D01*
X146237526Y-25775590D01*
X146447181Y-25707470D01*
X146643597Y-25607390D01*
X146821940Y-25477817D01*
X146977817Y-25321940D01*
X147107390Y-25143597D01*
X147207470Y-24947181D01*
X147275590Y-24737526D01*
X147310075Y-24519797D01*
X147310075Y-24299353D01*
X147275590Y-24081624D01*
X147207470Y-23871969D01*
X147207470Y-23871968D01*
X147172812Y-23803950D01*
X147107390Y-23675553D01*
X147090835Y-23652767D01*
X146977822Y-23497216D01*
X146977818Y-23497211D01*
X146821938Y-23341331D01*
X146821933Y-23341327D01*
X146643600Y-23211762D01*
X146643599Y-23211761D01*
X146643597Y-23211760D01*
X146580671Y-23179697D01*
X146447181Y-23111679D01*
X146447178Y-23111678D01*
X146237527Y-23043560D01*
X146128661Y-23026317D01*
X146019797Y-23009075D01*
X145799353Y-23009075D01*
X145726776Y-23020570D01*
X145581622Y-23043560D01*
X145371971Y-23111678D01*
X145371968Y-23111679D01*
X145175549Y-23211762D01*
X144997216Y-23341327D01*
X144997211Y-23341331D01*
X144841331Y-23497211D01*
X144841327Y-23497216D01*
X144711762Y-23675549D01*
X144611679Y-23871968D01*
X144611678Y-23871971D01*
X144543560Y-24081622D01*
X144509075Y-24299353D01*
X141114888Y-24299353D01*
X138863465Y-22047930D01*
X138863463Y-22047927D01*
X138744592Y-21929056D01*
X138744591Y-21929055D01*
X138657779Y-21878935D01*
X138657779Y-21878934D01*
X138657775Y-21878933D01*
X138607660Y-21849998D01*
X138454932Y-21809074D01*
X138296818Y-21809074D01*
X138289222Y-21809074D01*
X138289206Y-21809075D01*
X90071032Y-21809075D01*
X89912917Y-21809075D01*
X89760190Y-21849998D01*
X89760189Y-21849998D01*
X89760187Y-21849999D01*
X89760184Y-21850000D01*
X89710071Y-21878934D01*
X89710070Y-21878935D01*
X89666664Y-21903995D01*
X89623260Y-21929054D01*
X89623257Y-21929056D01*
X75929054Y-35623259D01*
X75912870Y-35651292D01*
X75906029Y-35663142D01*
X75849998Y-35760190D01*
X75809074Y-35912918D01*
X75809074Y-35912920D01*
X75809074Y-36081021D01*
X75809075Y-36081034D01*
X75809075Y-46007305D01*
X75809074Y-46007323D01*
X75809074Y-46173029D01*
X75809073Y-46173029D01*
X75826166Y-46236819D01*
X75849998Y-46325760D01*
X75863448Y-46349055D01*
X75896980Y-46407134D01*
X75929054Y-46462690D01*
X76047924Y-46581560D01*
X76047930Y-46581565D01*
X87547056Y-58080691D01*
X87580541Y-58142014D01*
X87583375Y-58168372D01*
X87583375Y-61611305D01*
X87583374Y-61611323D01*
X87583374Y-61777029D01*
X87583373Y-61777029D01*
X87624298Y-61929760D01*
X87653233Y-61979875D01*
X87653234Y-61979879D01*
X87653235Y-61979879D01*
X87703354Y-62066689D01*
X87703356Y-62066692D01*
X87822224Y-62185560D01*
X87822230Y-62185565D01*
X90458698Y-64822033D01*
X90492183Y-64883356D01*
X90488949Y-64948030D01*
X90471021Y-65003207D01*
X90434075Y-65236477D01*
X90434075Y-65472672D01*
X90471021Y-65705943D01*
X90544008Y-65930571D01*
X90651232Y-66141008D01*
X90790058Y-66332085D01*
X90957065Y-66499092D01*
X90991702Y-66524258D01*
X91034367Y-66579588D01*
X91040346Y-66649201D01*
X91007740Y-66710996D01*
X90991705Y-66724890D01*
X90973940Y-66737797D01*
X90957063Y-66750059D01*
X90790060Y-66917062D01*
X90790060Y-66917063D01*
X90790058Y-66917065D01*
X90733898Y-66994363D01*
X90651232Y-67108141D01*
X90544008Y-67318578D01*
X90471021Y-67543206D01*
X90434075Y-67776477D01*
X90434075Y-68012672D01*
X90471021Y-68245943D01*
X90544008Y-68470571D01*
X90607383Y-68594950D01*
X90651232Y-68681008D01*
X90790058Y-68872085D01*
X90790060Y-68872087D01*
X90928526Y-69010553D01*
X90962011Y-69071876D01*
X90957027Y-69141568D01*
X90915155Y-69197501D01*
X90913733Y-69198550D01*
X90892248Y-69214160D01*
X90892242Y-69214165D01*
X90714165Y-69392242D01*
X90714165Y-69392243D01*
X90566132Y-69595991D01*
X90451794Y-69820390D01*
X90373972Y-70059903D01*
X90373972Y-70059906D01*
X90354227Y-70184575D01*
X91501563Y-70184575D01*
X91468650Y-70241582D01*
X91434575Y-70368749D01*
X91434575Y-70500401D01*
X91468650Y-70627568D01*
X91501563Y-70684575D01*
X90354227Y-70684575D01*
X90373972Y-70809243D01*
X90373972Y-70809246D01*
X90451794Y-71048759D01*
X90566132Y-71273158D01*
X90714165Y-71476906D01*
X90714165Y-71476907D01*
X90892242Y-71654984D01*
X91095991Y-71803017D01*
X91320390Y-71917355D01*
X91559904Y-71995177D01*
X91684575Y-72014923D01*
X91684575Y-70867587D01*
X91741582Y-70900500D01*
X91868749Y-70934575D01*
X92000401Y-70934575D01*
X92127568Y-70900500D01*
X92184575Y-70867587D01*
X92184575Y-72014922D01*
X92309243Y-71995177D01*
X92309246Y-71995177D01*
X92548759Y-71917355D01*
X92773158Y-71803017D01*
X92976906Y-71654984D01*
X92976907Y-71654984D01*
X93154984Y-71476907D01*
X93154984Y-71476906D01*
X93303017Y-71273158D01*
X93417355Y-71048759D01*
X93495177Y-70809246D01*
X93495177Y-70809243D01*
X93514923Y-70684575D01*
X92367587Y-70684575D01*
X92400500Y-70627568D01*
X92434575Y-70500401D01*
X92434575Y-70368749D01*
X92400500Y-70241582D01*
X92367587Y-70184575D01*
X93514923Y-70184575D01*
X93495177Y-70059906D01*
X93495177Y-70059903D01*
X93417355Y-69820390D01*
X93303017Y-69595991D01*
X93154984Y-69392243D01*
X93154984Y-69392242D01*
X92976901Y-69214159D01*
X92955420Y-69198553D01*
X92912753Y-69143224D01*
X92906773Y-69073610D01*
X92939378Y-69011815D01*
X92940484Y-69010692D01*
X93079092Y-68872085D01*
X93217918Y-68681008D01*
X93325143Y-68470567D01*
X93398128Y-68245943D01*
X93406001Y-68196233D01*
X93435075Y-68012672D01*
X93435075Y-67776477D01*
X93415593Y-67653473D01*
X93424548Y-67584179D01*
X93469544Y-67530727D01*
X93536295Y-67510088D01*
X93538066Y-67510075D01*
X107322906Y-67510075D01*
X107322922Y-67510076D01*
X107330518Y-67510076D01*
X107488629Y-67510076D01*
X107488632Y-67510076D01*
X107641360Y-67469152D01*
X107711542Y-67428632D01*
X107778291Y-67390095D01*
X107890095Y-67278291D01*
X107890096Y-67278289D01*
X108121993Y-67046391D01*
X108183315Y-67012909D01*
X108209673Y-67010075D01*
X126697908Y-67010075D01*
X126705514Y-67010075D01*
X126705518Y-67010076D01*
X126773959Y-67010076D01*
X126840998Y-67029761D01*
X126886752Y-67082566D01*
X126891026Y-67112294D01*
X126896695Y-67151723D01*
X126896430Y-67153475D01*
X126884075Y-67231478D01*
X126884075Y-67467672D01*
X126921022Y-67700944D01*
X126921022Y-67700947D01*
X126962025Y-67827139D01*
X126964020Y-67896980D01*
X126931775Y-67953138D01*
X125869659Y-69015256D01*
X125808336Y-69048741D01*
X125781978Y-69051575D01*
X114583744Y-69051575D01*
X114583728Y-69051574D01*
X114576132Y-69051574D01*
X114418018Y-69051574D01*
X114310662Y-69080340D01*
X114265285Y-69092499D01*
X114265284Y-69092500D01*
X114215171Y-69121434D01*
X114215170Y-69121435D01*
X114177430Y-69143224D01*
X114128360Y-69171554D01*
X114128357Y-69171556D01*
X114016553Y-69283361D01*
X113664417Y-69635496D01*
X113603094Y-69668981D01*
X113538423Y-69665748D01*
X113524109Y-69661097D01*
X113349570Y-69633453D01*
X113321927Y-69629075D01*
X113117223Y-69629075D01*
X113092904Y-69632926D01*
X112915040Y-69661097D01*
X112720351Y-69724356D01*
X112537961Y-69817290D01*
X112372361Y-69937603D01*
X112227603Y-70082361D01*
X112107290Y-70247961D01*
X112014356Y-70430351D01*
X111951097Y-70625040D01*
X111932639Y-70741582D01*
X111919075Y-70827223D01*
X111919075Y-71031927D01*
X111921741Y-71048759D01*
X111951097Y-71234109D01*
X112014356Y-71428798D01*
X112107290Y-71611188D01*
X112227603Y-71776788D01*
X112372361Y-71921546D01*
X112500885Y-72014922D01*
X112537965Y-72041862D01*
X112654182Y-72101078D01*
X112720351Y-72134793D01*
X112720353Y-72134793D01*
X112720356Y-72134795D01*
X112824712Y-72168702D01*
X112915040Y-72198052D01*
X113016132Y-72214063D01*
X113117223Y-72230075D01*
X113117224Y-72230075D01*
X113321926Y-72230075D01*
X113321927Y-72230075D01*
X113524109Y-72198052D01*
X113524112Y-72198051D01*
X113524113Y-72198051D01*
X113577054Y-72180849D01*
X113577055Y-72180849D01*
X113608623Y-72170591D01*
X113718794Y-72134795D01*
X113901185Y-72041862D01*
X113994165Y-71974307D01*
X114066788Y-71921546D01*
X114066790Y-71921543D01*
X114066794Y-71921541D01*
X114211541Y-71776794D01*
X114211543Y-71776790D01*
X114211546Y-71776788D01*
X114300040Y-71654984D01*
X114331862Y-71611185D01*
X114424795Y-71428794D01*
X114488052Y-71234109D01*
X114520075Y-71031927D01*
X114520075Y-70827223D01*
X114488052Y-70625041D01*
X114483401Y-70610729D01*
X114481407Y-70540890D01*
X114513652Y-70484732D01*
X114608332Y-70390053D01*
X114709491Y-70288894D01*
X114770814Y-70255409D01*
X114797172Y-70252575D01*
X125995406Y-70252575D01*
X125995422Y-70252576D01*
X126003018Y-70252576D01*
X126161129Y-70252576D01*
X126161132Y-70252576D01*
X126313860Y-70211652D01*
X126363979Y-70182714D01*
X126450791Y-70132595D01*
X126562595Y-70020791D01*
X126562596Y-70020788D01*
X126672396Y-69910987D01*
X126733718Y-69877505D01*
X126803409Y-69882489D01*
X126859342Y-69924361D01*
X126883759Y-69989826D01*
X126884075Y-69998671D01*
X126884075Y-70007672D01*
X126921021Y-70240943D01*
X126994008Y-70465571D01*
X127101232Y-70676008D01*
X127240058Y-70867085D01*
X127240060Y-70867087D01*
X127408154Y-71035181D01*
X127441639Y-71096504D01*
X127444091Y-71132591D01*
X127443875Y-71135323D01*
X128255165Y-71946612D01*
X128191582Y-71963650D01*
X128077568Y-72029476D01*
X127984476Y-72122568D01*
X127918650Y-72236582D01*
X127901612Y-72300165D01*
X127090323Y-71488875D01*
X127090322Y-71488876D01*
X127016134Y-71590988D01*
X126901794Y-71815390D01*
X126823972Y-72054905D01*
X126784575Y-72303646D01*
X126784575Y-72555503D01*
X126823972Y-72804244D01*
X126901794Y-73043759D01*
X127016132Y-73268158D01*
X127090323Y-73370272D01*
X127090323Y-73370273D01*
X127901612Y-72558984D01*
X127918650Y-72622568D01*
X127984476Y-72736582D01*
X128077568Y-72829674D01*
X128191582Y-72895500D01*
X128255165Y-72912537D01*
X127443875Y-73723825D01*
X127444091Y-73726558D01*
X127429727Y-73794936D01*
X127408154Y-73823968D01*
X127240061Y-73992061D01*
X127240060Y-73992063D01*
X127240058Y-73992065D01*
X127180437Y-74074125D01*
X127101232Y-74183141D01*
X126994008Y-74393578D01*
X126921021Y-74618206D01*
X126884075Y-74851477D01*
X126884075Y-75087672D01*
X126921021Y-75320943D01*
X126994008Y-75545571D01*
X127101232Y-75756008D01*
X127240058Y-75947085D01*
X127407065Y-76114092D01*
X127441702Y-76139258D01*
X127484367Y-76194588D01*
X127490346Y-76264201D01*
X127457740Y-76325996D01*
X127441705Y-76339890D01*
X127423940Y-76352797D01*
X127407063Y-76365059D01*
X127240060Y-76532062D01*
X127240060Y-76532063D01*
X127240058Y-76532065D01*
X127180437Y-76614125D01*
X127101232Y-76723141D01*
X126994008Y-76933578D01*
X126921021Y-77158206D01*
X126884075Y-77391477D01*
X126884075Y-77627672D01*
X126921021Y-77860943D01*
X126994008Y-78085571D01*
X127084647Y-78263459D01*
X127101232Y-78296008D01*
X127240058Y-78487085D01*
X127407065Y-78654092D01*
X127598142Y-78792918D01*
X127697566Y-78843577D01*
X127808578Y-78900141D01*
X127808580Y-78900141D01*
X127808583Y-78900143D01*
X127913015Y-78934075D01*
X128033206Y-78973128D01*
X128266478Y-79010075D01*
X128266483Y-79010075D01*
X128502672Y-79010075D01*
X128735943Y-78973128D01*
X128794240Y-78954186D01*
X128960567Y-78900143D01*
X129171008Y-78792918D01*
X129362085Y-78654092D01*
X129529092Y-78487085D01*
X129667918Y-78296008D01*
X129775143Y-78085567D01*
X129848128Y-77860943D01*
X129885075Y-77627672D01*
X129885075Y-77391477D01*
X129848128Y-77158206D01*
X129808120Y-77035075D01*
X129775143Y-76933583D01*
X129775141Y-76933580D01*
X129775141Y-76933578D01*
X129677503Y-76741954D01*
X129667918Y-76723142D01*
X129529092Y-76532065D01*
X129362085Y-76365058D01*
X129327447Y-76339892D01*
X129284782Y-76284564D01*
X129278803Y-76214950D01*
X129311408Y-76153155D01*
X129327448Y-76139257D01*
X129362085Y-76114092D01*
X129529092Y-75947085D01*
X129667918Y-75756008D01*
X129775143Y-75545567D01*
X129848128Y-75320943D01*
X129885075Y-75087672D01*
X129885075Y-74851477D01*
X129848128Y-74618206D01*
X129775141Y-74393578D01*
X129667917Y-74183141D01*
X129529092Y-73992065D01*
X129362085Y-73825058D01*
X129360994Y-73823967D01*
X129327509Y-73762644D01*
X129325057Y-73726555D01*
X129325271Y-73723824D01*
X128513984Y-72912537D01*
X128577568Y-72895500D01*
X128691582Y-72829674D01*
X128784674Y-72736582D01*
X128850500Y-72622568D01*
X128867537Y-72558985D01*
X129678825Y-73370273D01*
X129678825Y-73370272D01*
X129753017Y-73268156D01*
X129753021Y-73268150D01*
X129867355Y-73043759D01*
X129945177Y-72804244D01*
X129984575Y-72555503D01*
X129984575Y-72303646D01*
X129945177Y-72054905D01*
X129867355Y-71815390D01*
X129753017Y-71590991D01*
X129678825Y-71488876D01*
X129678825Y-71488875D01*
X128867537Y-72300164D01*
X128850500Y-72236582D01*
X128784674Y-72122568D01*
X128691582Y-72029476D01*
X128577568Y-71963650D01*
X128513983Y-71946612D01*
X129325273Y-71135323D01*
X129325058Y-71132591D01*
X129339422Y-71064213D01*
X129360995Y-71035181D01*
X129362081Y-71034094D01*
X129362085Y-71034092D01*
X129529092Y-70867085D01*
X129667918Y-70676008D01*
X129775143Y-70465567D01*
X129848128Y-70240943D01*
X129852613Y-70212625D01*
X129885075Y-70007672D01*
X129885075Y-69771477D01*
X129848128Y-69538206D01*
X129789644Y-69358213D01*
X129775143Y-69313583D01*
X129775141Y-69313580D01*
X129775141Y-69313578D01*
X129702776Y-69171555D01*
X129667918Y-69103142D01*
X129529092Y-68912065D01*
X129362085Y-68745058D01*
X129327447Y-68719892D01*
X129284782Y-68664564D01*
X129278803Y-68594950D01*
X129311408Y-68533155D01*
X129327448Y-68519257D01*
X129338071Y-68511539D01*
X129362085Y-68494092D01*
X129529092Y-68327085D01*
X129667918Y-68136008D01*
X129775143Y-67925567D01*
X129848128Y-67700943D01*
X129885075Y-67467672D01*
X129885075Y-67231477D01*
X129848128Y-66998206D01*
X129775141Y-66773578D01*
X129711767Y-66649201D01*
X129667918Y-66563142D01*
X129529092Y-66372065D01*
X129362085Y-66205058D01*
X129327447Y-66179892D01*
X129284782Y-66124564D01*
X129278803Y-66054950D01*
X129311408Y-65993155D01*
X129327448Y-65979257D01*
X129362085Y-65954092D01*
X129529092Y-65787085D01*
X129667918Y-65596008D01*
X129775143Y-65385567D01*
X129848128Y-65160943D01*
X129873111Y-65003206D01*
X129885075Y-64927672D01*
X129885075Y-64691477D01*
X129848128Y-64458206D01*
X129777863Y-64241954D01*
X129775143Y-64233583D01*
X129775141Y-64233580D01*
X129775141Y-64233578D01*
X129718577Y-64122566D01*
X129667918Y-64023142D01*
X129529092Y-63832065D01*
X129362085Y-63665058D01*
X129360994Y-63663967D01*
X129327509Y-63602644D01*
X129325057Y-63566555D01*
X129325271Y-63563824D01*
X128513984Y-62752537D01*
X128577568Y-62735500D01*
X128691582Y-62669674D01*
X128784674Y-62576582D01*
X128850500Y-62462568D01*
X128867537Y-62398985D01*
X129678825Y-63210273D01*
X129678825Y-63210272D01*
X129753017Y-63108156D01*
X129753021Y-63108150D01*
X129867355Y-62883759D01*
X129945177Y-62644244D01*
X129984575Y-62395503D01*
X129984575Y-62143646D01*
X129945177Y-61894905D01*
X129867355Y-61655390D01*
X129753017Y-61430991D01*
X129678825Y-61328876D01*
X129678825Y-61328875D01*
X128867537Y-62140164D01*
X128850500Y-62076582D01*
X128784674Y-61962568D01*
X128691582Y-61869476D01*
X128577568Y-61803650D01*
X128513983Y-61786612D01*
X129325273Y-60975323D01*
X129223158Y-60901132D01*
X128998759Y-60786794D01*
X128759244Y-60708972D01*
X128510503Y-60669575D01*
X128258647Y-60669575D01*
X128009905Y-60708972D01*
X127770390Y-60786794D01*
X127545988Y-60901134D01*
X127443876Y-60975322D01*
X127443875Y-60975323D01*
X128255165Y-61786612D01*
X128191582Y-61803650D01*
X128077568Y-61869476D01*
X127984476Y-61962568D01*
X127918650Y-62076582D01*
X127901612Y-62140165D01*
X127090323Y-61328875D01*
X127090322Y-61328876D01*
X127016134Y-61430988D01*
X126901794Y-61655390D01*
X126823972Y-61894905D01*
X126784575Y-62143646D01*
X126784575Y-62395503D01*
X126823972Y-62644244D01*
X126901794Y-62883759D01*
X127016132Y-63108158D01*
X127090323Y-63210272D01*
X127090323Y-63210273D01*
X127901612Y-62398984D01*
X127918650Y-62462568D01*
X127984476Y-62576582D01*
X128077568Y-62669674D01*
X128191582Y-62735500D01*
X128255165Y-62752537D01*
X127443875Y-63563825D01*
X127444091Y-63566558D01*
X127429727Y-63634936D01*
X127408154Y-63663968D01*
X127240061Y-63832061D01*
X127240060Y-63832063D01*
X127240058Y-63832065D01*
X127197897Y-63890095D01*
X127101232Y-64023141D01*
X126994008Y-64233578D01*
X126921021Y-64458206D01*
X126884075Y-64691477D01*
X126884075Y-64927672D01*
X126921022Y-65160944D01*
X126921022Y-65160947D01*
X126962025Y-65287139D01*
X126964020Y-65356980D01*
X126931775Y-65413138D01*
X126572159Y-65772756D01*
X126510836Y-65806241D01*
X126484478Y-65809075D01*
X107996245Y-65809075D01*
X107996229Y-65809074D01*
X107988633Y-65809074D01*
X107830518Y-65809074D01*
X107754154Y-65829536D01*
X107677789Y-65849998D01*
X107677784Y-65850001D01*
X107540865Y-65929050D01*
X107540857Y-65929056D01*
X107197159Y-66272756D01*
X107135836Y-66306241D01*
X107109478Y-66309075D01*
X93334633Y-66309075D01*
X93267594Y-66289390D01*
X93221839Y-66236586D01*
X93211895Y-66167428D01*
X93224148Y-66128780D01*
X93226297Y-66124564D01*
X93325143Y-65930567D01*
X93398128Y-65705943D01*
X93415540Y-65596008D01*
X93435075Y-65472672D01*
X93435075Y-65236477D01*
X93398128Y-65003206D01*
X93325141Y-64778578D01*
X93231752Y-64595293D01*
X93217918Y-64568142D01*
X93079092Y-64377065D01*
X92912085Y-64210058D01*
X92877447Y-64184892D01*
X92834782Y-64129564D01*
X92828803Y-64059950D01*
X92861408Y-63998155D01*
X92877448Y-63984257D01*
X92912085Y-63959092D01*
X93079092Y-63792085D01*
X93217918Y-63601008D01*
X93325143Y-63390567D01*
X93398128Y-63165943D01*
X93407280Y-63108158D01*
X93435075Y-62932672D01*
X93435075Y-62696477D01*
X93398128Y-62463206D01*
X93353996Y-62327384D01*
X93325143Y-62238583D01*
X93325141Y-62238580D01*
X93325140Y-62238575D01*
X93302976Y-62195076D01*
X93302975Y-62195075D01*
X93237560Y-62066692D01*
X93217918Y-62028142D01*
X93079092Y-61837065D01*
X92912085Y-61670058D01*
X92877447Y-61644892D01*
X92834782Y-61589564D01*
X92828803Y-61519950D01*
X92861408Y-61458155D01*
X92877448Y-61444257D01*
X92895707Y-61430991D01*
X92912085Y-61419092D01*
X93079092Y-61252085D01*
X93217918Y-61061008D01*
X93325143Y-60850567D01*
X93398128Y-60625943D01*
X93434839Y-60394160D01*
X93435075Y-60392672D01*
X93435075Y-60156477D01*
X93398128Y-59923206D01*
X93327417Y-59705582D01*
X93325143Y-59698583D01*
X93325141Y-59698580D01*
X93325141Y-59698578D01*
X93217917Y-59488141D01*
X93079092Y-59297065D01*
X92912085Y-59130058D01*
X92877447Y-59104892D01*
X92834782Y-59049564D01*
X92828803Y-58979950D01*
X92861408Y-58918155D01*
X92877448Y-58904257D01*
X92912085Y-58879092D01*
X93079092Y-58712085D01*
X93217918Y-58521008D01*
X93325143Y-58310567D01*
X93398128Y-58085943D01*
X93401608Y-58063969D01*
X93435075Y-57852672D01*
X93435075Y-57616477D01*
X93398128Y-57383206D01*
X93331384Y-57177791D01*
X93325143Y-57158583D01*
X93325141Y-57158580D01*
X93325141Y-57158578D01*
X93256549Y-57023960D01*
X93217918Y-56948142D01*
X93079092Y-56757065D01*
X92912085Y-56590058D01*
X92801442Y-56509671D01*
X92721006Y-56451230D01*
X92602779Y-56390990D01*
X92551984Y-56343016D01*
X92535075Y-56280506D01*
X92535075Y-40571672D01*
X92543719Y-40542231D01*
X92550243Y-40512245D01*
X92553997Y-40507229D01*
X92554760Y-40504633D01*
X92571394Y-40483991D01*
X93748128Y-39307257D01*
X96109575Y-39307257D01*
X96109575Y-39511892D01*
X96141584Y-39713992D01*
X96204819Y-39908606D01*
X96297716Y-40090925D01*
X96297722Y-40090934D01*
X96330098Y-40135496D01*
X96330099Y-40135497D01*
X97009575Y-39456021D01*
X97009575Y-39462236D01*
X97036834Y-39563969D01*
X97089495Y-39655181D01*
X97163969Y-39729655D01*
X97255181Y-39782316D01*
X97356914Y-39809575D01*
X97363128Y-39809575D01*
X96683651Y-40489049D01*
X96728225Y-40521434D01*
X96910543Y-40614330D01*
X97105157Y-40677565D01*
X97307258Y-40709575D01*
X97511892Y-40709575D01*
X97713992Y-40677565D01*
X97908606Y-40614330D01*
X98090924Y-40521434D01*
X98135496Y-40489049D01*
X97456022Y-39809575D01*
X97462236Y-39809575D01*
X97563969Y-39782316D01*
X97655181Y-39729655D01*
X97729655Y-39655181D01*
X97782316Y-39563969D01*
X97809575Y-39462236D01*
X97809575Y-39456023D01*
X98489049Y-40135497D01*
X98489049Y-40135496D01*
X98521434Y-40090924D01*
X98614330Y-39908606D01*
X98677565Y-39713992D01*
X98709575Y-39511892D01*
X98709575Y-39307257D01*
X98677565Y-39105157D01*
X98614330Y-38910543D01*
X98521434Y-38728225D01*
X98489049Y-38683652D01*
X98489049Y-38683651D01*
X97809575Y-39363126D01*
X97809575Y-39356914D01*
X97782316Y-39255181D01*
X97729655Y-39163969D01*
X97655181Y-39089495D01*
X97563969Y-39036834D01*
X97462236Y-39009575D01*
X97456021Y-39009575D01*
X98135497Y-38330099D01*
X98135496Y-38330098D01*
X98090934Y-38297722D01*
X98090925Y-38297716D01*
X97908606Y-38204819D01*
X97713992Y-38141584D01*
X97511892Y-38109575D01*
X97307258Y-38109575D01*
X97105157Y-38141584D01*
X96910543Y-38204819D01*
X96728219Y-38297718D01*
X96683652Y-38330098D01*
X96683652Y-38330099D01*
X97363129Y-39009575D01*
X97356914Y-39009575D01*
X97255181Y-39036834D01*
X97163969Y-39089495D01*
X97089495Y-39163969D01*
X97036834Y-39255181D01*
X97009575Y-39356914D01*
X97009575Y-39363128D01*
X96330099Y-38683652D01*
X96330098Y-38683652D01*
X96297718Y-38728219D01*
X96204819Y-38910543D01*
X96141584Y-39105157D01*
X96109575Y-39307257D01*
X93748128Y-39307257D01*
X94765708Y-38289677D01*
X96097075Y-36958310D01*
X98598247Y-34457138D01*
X98659567Y-34423655D01*
X98729259Y-34428639D01*
X98785192Y-34470511D01*
X98807932Y-34530825D01*
X98808812Y-34530686D01*
X98809487Y-34534948D01*
X98809543Y-34535097D01*
X98809574Y-34535502D01*
X98848972Y-34784244D01*
X98926794Y-35023759D01*
X99041132Y-35248158D01*
X99115323Y-35350272D01*
X99115323Y-35350273D01*
X99926612Y-34538983D01*
X99943650Y-34602568D01*
X100009476Y-34716582D01*
X100102568Y-34809674D01*
X100216582Y-34875500D01*
X100280165Y-34892537D01*
X99468875Y-35703825D01*
X99570991Y-35778017D01*
X99795390Y-35892355D01*
X100034905Y-35970177D01*
X100283647Y-36009575D01*
X100535503Y-36009575D01*
X100784244Y-35970177D01*
X101023759Y-35892355D01*
X101248150Y-35778021D01*
X101248156Y-35778017D01*
X101350272Y-35703825D01*
X101350273Y-35703825D01*
X100538984Y-34892537D01*
X100602568Y-34875500D01*
X100716582Y-34809674D01*
X100809674Y-34716582D01*
X100875500Y-34602568D01*
X100892537Y-34538985D01*
X101703823Y-35350271D01*
X101706555Y-35350057D01*
X101774933Y-35364420D01*
X101803967Y-35385994D01*
X101805058Y-35387085D01*
X101972065Y-35554092D01*
X102163142Y-35692918D01*
X102224303Y-35724081D01*
X102373578Y-35800141D01*
X102373580Y-35800141D01*
X102373583Y-35800143D01*
X102465867Y-35830128D01*
X102598206Y-35873128D01*
X102831478Y-35910075D01*
X102831483Y-35910075D01*
X103067672Y-35910075D01*
X103300943Y-35873128D01*
X103334043Y-35862373D01*
X103525567Y-35800143D01*
X103736008Y-35692918D01*
X103927085Y-35554092D01*
X104094092Y-35387085D01*
X104119257Y-35352447D01*
X104174586Y-35309782D01*
X104244200Y-35303803D01*
X104305995Y-35336408D01*
X104319890Y-35352445D01*
X104345058Y-35387085D01*
X104512065Y-35554092D01*
X104703142Y-35692918D01*
X104764303Y-35724081D01*
X104913578Y-35800141D01*
X104913580Y-35800141D01*
X104913583Y-35800143D01*
X105005867Y-35830128D01*
X105138206Y-35873128D01*
X105371478Y-35910075D01*
X105371483Y-35910075D01*
X105607672Y-35910075D01*
X105840943Y-35873128D01*
X105874043Y-35862373D01*
X106065567Y-35800143D01*
X106134574Y-35764981D01*
X106203242Y-35752085D01*
X106267982Y-35778360D01*
X106278550Y-35787785D01*
X108355139Y-37864374D01*
X108355149Y-37864385D01*
X108359479Y-37868715D01*
X108359480Y-37868716D01*
X108471284Y-37980520D01*
X108529547Y-38014157D01*
X108577763Y-38064723D01*
X108590987Y-38133330D01*
X108565020Y-38198195D01*
X108508106Y-38238725D01*
X108505867Y-38239476D01*
X108328738Y-38297029D01*
X108160375Y-38382815D01*
X108073154Y-38446185D01*
X108007502Y-38493885D01*
X108007500Y-38493887D01*
X108007499Y-38493887D01*
X107873887Y-38627499D01*
X107873887Y-38627500D01*
X107873885Y-38627502D01*
X107796764Y-38733650D01*
X107779101Y-38757961D01*
X107723771Y-38800626D01*
X107678783Y-38809075D01*
X103520367Y-38809075D01*
X103453328Y-38789390D01*
X103420049Y-38757961D01*
X103402386Y-38733650D01*
X103325265Y-38627502D01*
X103191648Y-38493885D01*
X103038774Y-38382815D01*
X102995936Y-38360988D01*
X102870411Y-38297029D01*
X102690693Y-38238634D01*
X102504061Y-38209075D01*
X102504056Y-38209075D01*
X102315094Y-38209075D01*
X102315089Y-38209075D01*
X102128456Y-38238634D01*
X101948738Y-38297029D01*
X101780375Y-38382815D01*
X101693154Y-38446185D01*
X101627502Y-38493885D01*
X101627500Y-38493887D01*
X101627499Y-38493887D01*
X101493887Y-38627499D01*
X101493887Y-38627500D01*
X101493885Y-38627502D01*
X101446185Y-38693154D01*
X101382815Y-38780375D01*
X101297029Y-38948738D01*
X101238634Y-39128456D01*
X101209075Y-39315088D01*
X101209075Y-39504061D01*
X101238634Y-39690693D01*
X101297029Y-39870411D01*
X101347340Y-39969151D01*
X101382815Y-40038774D01*
X101493885Y-40191648D01*
X101627502Y-40325265D01*
X101780376Y-40436335D01*
X101859922Y-40476865D01*
X101948738Y-40522120D01*
X101948740Y-40522120D01*
X101948743Y-40522122D01*
X102010632Y-40542231D01*
X102128456Y-40580515D01*
X102315089Y-40610075D01*
X102315094Y-40610075D01*
X102504061Y-40610075D01*
X102690693Y-40580515D01*
X102870407Y-40522122D01*
X103038774Y-40436335D01*
X103191648Y-40325265D01*
X103325265Y-40191648D01*
X103420050Y-40061188D01*
X103475379Y-40018524D01*
X103520367Y-40010075D01*
X107678783Y-40010075D01*
X107745822Y-40029760D01*
X107779099Y-40061187D01*
X107873885Y-40191648D01*
X108007502Y-40325265D01*
X108160376Y-40436335D01*
X108239922Y-40476865D01*
X108328738Y-40522120D01*
X108328740Y-40522120D01*
X108328743Y-40522122D01*
X108390632Y-40542231D01*
X108508456Y-40580515D01*
X108695089Y-40610075D01*
X108695094Y-40610075D01*
X108884061Y-40610075D01*
X109070693Y-40580515D01*
X109250407Y-40522122D01*
X109418774Y-40436335D01*
X109571648Y-40325265D01*
X109705265Y-40191648D01*
X109816335Y-40038774D01*
X109902122Y-39870407D01*
X109960515Y-39690693D01*
X109964505Y-39665500D01*
X109990075Y-39504061D01*
X109990075Y-39315088D01*
X109960515Y-39128456D01*
X109902120Y-38948738D01*
X109849783Y-38846021D01*
X109816335Y-38780376D01*
X109705265Y-38627502D01*
X109571648Y-38493885D01*
X109418774Y-38382815D01*
X109324901Y-38334984D01*
X109274106Y-38287010D01*
X109257311Y-38219190D01*
X109279848Y-38153055D01*
X109334563Y-38109603D01*
X109381197Y-38100500D01*
X115817953Y-38100500D01*
X115884992Y-38120185D01*
X115930747Y-38172989D01*
X115940691Y-38242147D01*
X115911666Y-38305703D01*
X115874248Y-38334985D01*
X115780375Y-38382815D01*
X115693154Y-38446185D01*
X115627502Y-38493885D01*
X115627500Y-38493887D01*
X115627499Y-38493887D01*
X115493887Y-38627499D01*
X115493887Y-38627500D01*
X115493885Y-38627502D01*
X115446185Y-38693154D01*
X115382815Y-38780375D01*
X115297029Y-38948738D01*
X115238634Y-39128456D01*
X115209075Y-39315088D01*
X115209075Y-39504061D01*
X115238634Y-39690693D01*
X115297029Y-39870411D01*
X115347340Y-39969151D01*
X115382815Y-40038774D01*
X115493885Y-40191648D01*
X115627502Y-40325265D01*
X115780376Y-40436335D01*
X115859922Y-40476865D01*
X115948738Y-40522120D01*
X115948740Y-40522120D01*
X115948743Y-40522122D01*
X116010632Y-40542231D01*
X116128456Y-40580515D01*
X116315089Y-40610075D01*
X116315094Y-40610075D01*
X116504061Y-40610075D01*
X116690693Y-40580515D01*
X116870407Y-40522122D01*
X117038774Y-40436335D01*
X117191648Y-40325265D01*
X117325265Y-40191648D01*
X117436335Y-40038774D01*
X117522122Y-39870407D01*
X117580515Y-39690693D01*
X117584505Y-39665500D01*
X117610075Y-39504061D01*
X117610075Y-39315088D01*
X117580515Y-39128456D01*
X117522120Y-38948738D01*
X117469783Y-38846021D01*
X117436335Y-38780376D01*
X117325265Y-38627502D01*
X117191648Y-38493885D01*
X117038774Y-38382815D01*
X116944901Y-38334984D01*
X116894106Y-38287010D01*
X116877311Y-38219190D01*
X116899848Y-38153055D01*
X116954563Y-38109603D01*
X117001197Y-38100500D01*
X120099903Y-38100500D01*
X120166942Y-38120185D01*
X120187584Y-38136819D01*
X122845884Y-40795119D01*
X122879369Y-40856442D01*
X122874385Y-40926134D01*
X122832513Y-40982067D01*
X122767049Y-41006484D01*
X122738807Y-41005274D01*
X122702352Y-40999500D01*
X122497648Y-40999500D01*
X122473329Y-41003351D01*
X122295465Y-41031522D01*
X122100776Y-41094781D01*
X121918386Y-41187715D01*
X121752786Y-41308028D01*
X121608028Y-41452786D01*
X121487715Y-41618386D01*
X121394781Y-41800776D01*
X121331522Y-41995465D01*
X121299500Y-42197648D01*
X121299500Y-42402351D01*
X121331522Y-42604534D01*
X121394781Y-42799223D01*
X121446385Y-42900500D01*
X121485775Y-42977807D01*
X121487715Y-42981613D01*
X121608028Y-43147213D01*
X121752786Y-43291971D01*
X121907749Y-43404556D01*
X121918390Y-43412287D01*
X122018275Y-43463181D01*
X122100776Y-43505218D01*
X122100778Y-43505218D01*
X122100781Y-43505220D01*
X122205137Y-43539127D01*
X122295465Y-43568477D01*
X122396557Y-43584488D01*
X122497648Y-43600500D01*
X122497649Y-43600500D01*
X122702351Y-43600500D01*
X122702352Y-43600500D01*
X122904534Y-43568477D01*
X123099219Y-43505220D01*
X123281610Y-43412287D01*
X123374590Y-43344732D01*
X123447213Y-43291971D01*
X123447215Y-43291968D01*
X123447219Y-43291966D01*
X123591966Y-43147219D01*
X123591968Y-43147215D01*
X123591971Y-43147213D01*
X123712281Y-42981618D01*
X123712287Y-42981610D01*
X123712292Y-42981599D01*
X123713714Y-42979280D01*
X123714492Y-42978575D01*
X123715151Y-42977669D01*
X123715341Y-42977807D01*
X123765517Y-42932395D01*
X123834444Y-42920960D01*
X123898612Y-42948605D01*
X123907133Y-42956368D01*
X127031284Y-46080520D01*
X127031286Y-46080521D01*
X127031290Y-46080524D01*
X127153483Y-46151071D01*
X127168216Y-46159577D01*
X127320943Y-46200501D01*
X127320945Y-46200501D01*
X127486654Y-46200501D01*
X127486670Y-46200500D01*
X129559903Y-46200500D01*
X129626942Y-46220185D01*
X129647584Y-46236819D01*
X130380820Y-46970055D01*
X130414305Y-47031378D01*
X130411071Y-47096053D01*
X130380155Y-47191205D01*
X130344575Y-47415851D01*
X130344575Y-47643298D01*
X130380156Y-47867948D01*
X130380156Y-47867951D01*
X130450439Y-48084259D01*
X130553702Y-48286924D01*
X130603392Y-48355315D01*
X130626873Y-48421121D01*
X130627075Y-48428201D01*
X130627075Y-49471453D01*
X130637744Y-49560311D01*
X130693503Y-49701706D01*
X130785339Y-49822810D01*
X130906443Y-49914646D01*
X130906444Y-49914646D01*
X130906445Y-49914647D01*
X131047837Y-49970405D01*
X131136690Y-49981075D01*
X132442459Y-49981074D01*
X132531313Y-49970405D01*
X132672705Y-49914647D01*
X132793810Y-49822810D01*
X132885647Y-49701705D01*
X132941405Y-49560313D01*
X132941405Y-49560310D01*
X132944220Y-49553173D01*
X132987126Y-49498029D01*
X133053034Y-49474836D01*
X133121018Y-49490956D01*
X133169495Y-49541273D01*
X133174930Y-49553173D01*
X133177744Y-49560310D01*
X133177745Y-49560313D01*
X133211642Y-49646270D01*
X133233503Y-49701706D01*
X133325339Y-49822810D01*
X133446443Y-49914646D01*
X133446444Y-49914646D01*
X133446445Y-49914647D01*
X133587837Y-49970405D01*
X133676690Y-49981075D01*
X134982459Y-49981074D01*
X135071313Y-49970405D01*
X135212705Y-49914647D01*
X135333810Y-49822810D01*
X135425647Y-49701705D01*
X135481405Y-49560313D01*
X135481405Y-49560310D01*
X135484220Y-49553173D01*
X135527126Y-49498029D01*
X135593034Y-49474836D01*
X135661018Y-49490956D01*
X135709495Y-49541273D01*
X135714930Y-49553173D01*
X135717744Y-49560310D01*
X135717745Y-49560313D01*
X135751642Y-49646270D01*
X135773503Y-49701706D01*
X135865339Y-49822810D01*
X135986443Y-49914646D01*
X135986444Y-49914646D01*
X135986445Y-49914647D01*
X136127837Y-49970405D01*
X136216690Y-49981075D01*
X137522459Y-49981074D01*
X137611313Y-49970405D01*
X137752705Y-49914647D01*
X137873810Y-49822810D01*
X137965647Y-49701705D01*
X138021405Y-49560313D01*
X138021405Y-49560310D01*
X138024220Y-49553173D01*
X138067126Y-49498029D01*
X138133034Y-49474836D01*
X138201018Y-49490956D01*
X138249495Y-49541273D01*
X138254930Y-49553173D01*
X138257744Y-49560310D01*
X138257745Y-49560313D01*
X138291642Y-49646270D01*
X138313503Y-49701706D01*
X138405339Y-49822810D01*
X138526443Y-49914646D01*
X138526444Y-49914646D01*
X138526445Y-49914647D01*
X138667837Y-49970405D01*
X138756690Y-49981075D01*
X140062459Y-49981074D01*
X140151313Y-49970405D01*
X140292705Y-49914647D01*
X140413810Y-49822810D01*
X140505647Y-49701705D01*
X140561405Y-49560313D01*
X140561405Y-49560310D01*
X140564220Y-49553173D01*
X140607126Y-49498029D01*
X140673034Y-49474836D01*
X140741018Y-49490956D01*
X140789495Y-49541273D01*
X140794930Y-49553173D01*
X140797744Y-49560310D01*
X140797745Y-49560313D01*
X140831642Y-49646270D01*
X140853503Y-49701706D01*
X140945339Y-49822810D01*
X141066443Y-49914646D01*
X141066444Y-49914646D01*
X141066445Y-49914647D01*
X141207837Y-49970405D01*
X141239858Y-49974250D01*
X141304073Y-50001787D01*
X141343206Y-50059669D01*
X141349075Y-50097366D01*
X141349075Y-51069477D01*
X141329390Y-51136516D01*
X141312756Y-51157158D01*
X140770405Y-51699508D01*
X140709082Y-51732993D01*
X140663326Y-51734300D01*
X140504061Y-51709075D01*
X140504056Y-51709075D01*
X140315094Y-51709075D01*
X140315089Y-51709075D01*
X140128456Y-51738634D01*
X139948738Y-51797029D01*
X139780375Y-51882815D01*
X139732486Y-51917609D01*
X139627502Y-51993885D01*
X139627500Y-51993887D01*
X139627499Y-51993887D01*
X139493887Y-52127499D01*
X139493887Y-52127500D01*
X139493885Y-52127502D01*
X139446185Y-52193154D01*
X139382815Y-52280375D01*
X139297029Y-52448738D01*
X139238634Y-52628456D01*
X139209075Y-52815088D01*
X139209075Y-53004061D01*
X139238634Y-53190693D01*
X139297029Y-53370411D01*
X139382815Y-53538774D01*
X139493885Y-53691648D01*
X139627502Y-53825265D01*
X139780376Y-53936335D01*
X139850824Y-53972230D01*
X139948738Y-54022120D01*
X139948740Y-54022120D01*
X139948743Y-54022122D01*
X140045072Y-54053421D01*
X140128456Y-54080515D01*
X140315089Y-54110075D01*
X140315094Y-54110075D01*
X140504061Y-54110075D01*
X140690693Y-54080515D01*
X140870407Y-54022122D01*
X141038774Y-53936335D01*
X141191648Y-53825265D01*
X141325265Y-53691648D01*
X141436335Y-53538774D01*
X141522122Y-53370407D01*
X141580515Y-53190693D01*
X141583006Y-53174968D01*
X141610075Y-53004061D01*
X141610075Y-52815088D01*
X141584849Y-52655821D01*
X141593803Y-52586528D01*
X141619638Y-52548745D01*
X142308081Y-51860303D01*
X142308086Y-51860299D01*
X142318289Y-51850095D01*
X142318291Y-51850095D01*
X142430095Y-51738291D01*
X142486209Y-51641098D01*
X142509152Y-51601360D01*
X142550076Y-51448632D01*
X142550076Y-51290518D01*
X142550076Y-51282923D01*
X142550075Y-51282905D01*
X142550075Y-50097365D01*
X142569760Y-50030326D01*
X142622564Y-49984571D01*
X142659290Y-49974250D01*
X142691313Y-49970405D01*
X142832705Y-49914647D01*
X142932110Y-49839266D01*
X143368435Y-49839266D01*
X143476935Y-49947767D01*
X143476940Y-49947771D01*
X143618818Y-50031677D01*
X143618821Y-50031678D01*
X143777101Y-50077663D01*
X143777107Y-50077664D01*
X143814093Y-50080574D01*
X145165044Y-50080574D01*
X145165066Y-50080573D01*
X145202041Y-50077664D01*
X145360332Y-50031677D01*
X145502207Y-49947772D01*
X145502211Y-49947769D01*
X145610714Y-49839266D01*
X144489575Y-48718128D01*
X143368435Y-49839266D01*
X142932110Y-49839266D01*
X142953810Y-49822810D01*
X143045647Y-49701705D01*
X143101405Y-49560313D01*
X143112075Y-49471460D01*
X143112075Y-49410755D01*
X143131758Y-49343720D01*
X143184561Y-49297964D01*
X143205666Y-49294929D01*
X144401893Y-48098703D01*
X144463216Y-48065218D01*
X144532908Y-48070202D01*
X144577255Y-48098703D01*
X145769473Y-49290921D01*
X145827568Y-49319999D01*
X145863222Y-49380087D01*
X145867075Y-49410755D01*
X145867075Y-49471453D01*
X145877744Y-49560311D01*
X145933503Y-49701706D01*
X146025339Y-49822810D01*
X146146443Y-49914646D01*
X146146444Y-49914646D01*
X146146445Y-49914647D01*
X146287837Y-49970405D01*
X146376690Y-49981075D01*
X147682459Y-49981074D01*
X147771313Y-49970405D01*
X147912705Y-49914647D01*
X147912708Y-49914645D01*
X147920097Y-49910491D01*
X147921169Y-49912398D01*
X147975447Y-49891762D01*
X148043812Y-49906182D01*
X148093529Y-49955274D01*
X148109075Y-50015388D01*
X148109075Y-52459477D01*
X148089390Y-52526516D01*
X148072756Y-52547158D01*
X145122157Y-55497756D01*
X145060834Y-55531241D01*
X145034476Y-55534075D01*
X144128057Y-55534075D01*
X144047094Y-55546898D01*
X144034271Y-55548929D01*
X143921233Y-55606525D01*
X143921232Y-55606526D01*
X143921227Y-55606529D01*
X143831529Y-55696227D01*
X143831524Y-55696234D01*
X143778123Y-55801038D01*
X143730148Y-55851833D01*
X143662327Y-55868628D01*
X143596193Y-55846090D01*
X143579958Y-55832423D01*
X142795465Y-55047930D01*
X142795463Y-55047927D01*
X142676592Y-54929056D01*
X142676591Y-54929055D01*
X142589779Y-54878935D01*
X142589779Y-54878934D01*
X142589775Y-54878933D01*
X142539660Y-54849998D01*
X142386932Y-54809074D01*
X142228818Y-54809074D01*
X142221222Y-54809074D01*
X142221206Y-54809075D01*
X139488632Y-54809075D01*
X139330518Y-54809075D01*
X139177790Y-54849998D01*
X139177789Y-54849998D01*
X139177787Y-54849999D01*
X139177784Y-54850000D01*
X139127671Y-54878934D01*
X139127670Y-54878935D01*
X139084264Y-54903995D01*
X139040860Y-54929054D01*
X139040857Y-54929056D01*
X136929056Y-57040857D01*
X136929054Y-57040860D01*
X136878936Y-57127669D01*
X136878934Y-57127671D01*
X136850000Y-57177784D01*
X136849999Y-57177785D01*
X136848427Y-57183652D01*
X136809074Y-57330518D01*
X136809074Y-57330520D01*
X136809074Y-57498621D01*
X136809075Y-57498634D01*
X136809075Y-58822905D01*
X136809074Y-58822923D01*
X136809074Y-58988629D01*
X136809073Y-58988629D01*
X136849998Y-59141360D01*
X136878933Y-59191475D01*
X136878934Y-59191479D01*
X136878935Y-59191479D01*
X136928498Y-59277327D01*
X136929054Y-59278289D01*
X136929056Y-59278292D01*
X137047924Y-59397160D01*
X137047930Y-59397165D01*
X141424714Y-63773949D01*
X141424724Y-63773960D01*
X141429054Y-63778290D01*
X141429055Y-63778291D01*
X141540859Y-63890095D01*
X141627670Y-63940214D01*
X141627672Y-63940216D01*
X141660361Y-63959089D01*
X141677790Y-63969152D01*
X141830518Y-64010076D01*
X141830521Y-64010076D01*
X141996228Y-64010076D01*
X141996244Y-64010075D01*
X143635076Y-64010075D01*
X143702115Y-64029760D01*
X143747870Y-64082564D01*
X143759076Y-64134075D01*
X143759076Y-64166093D01*
X143773929Y-64259879D01*
X143831525Y-64372917D01*
X143831527Y-64372919D01*
X143831529Y-64372922D01*
X143921227Y-64462620D01*
X143921229Y-64462621D01*
X143921233Y-64462625D01*
X144034269Y-64520220D01*
X144034273Y-64520222D01*
X144128050Y-64535074D01*
X144128056Y-64535075D01*
X145491093Y-64535074D01*
X145584879Y-64520221D01*
X145697917Y-64462625D01*
X145787625Y-64372917D01*
X145845221Y-64259879D01*
X145845221Y-64259877D01*
X145845222Y-64259876D01*
X145857490Y-64182419D01*
X146759575Y-64182419D01*
X146765976Y-64241947D01*
X146765978Y-64241954D01*
X146816220Y-64376661D01*
X146816224Y-64376668D01*
X146902384Y-64491762D01*
X146902387Y-64491765D01*
X147017481Y-64577925D01*
X147017488Y-64577929D01*
X147152195Y-64628171D01*
X147152202Y-64628173D01*
X147211730Y-64634574D01*
X147211747Y-64634575D01*
X147659575Y-64634575D01*
X147659575Y-63659575D01*
X146759575Y-63659575D01*
X146759575Y-64182419D01*
X145857490Y-64182419D01*
X145860075Y-64166099D01*
X145860075Y-63608213D01*
X145860074Y-62653052D01*
X145860038Y-62652827D01*
X145860037Y-62652823D01*
X145857488Y-62636730D01*
X146759575Y-62636730D01*
X146759575Y-63159575D01*
X147659575Y-63159575D01*
X147659575Y-62184575D01*
X147211730Y-62184575D01*
X147152202Y-62190976D01*
X147152195Y-62190978D01*
X147017488Y-62241220D01*
X147017481Y-62241224D01*
X146902387Y-62327384D01*
X146902384Y-62327387D01*
X146816224Y-62442481D01*
X146816220Y-62442488D01*
X146765978Y-62577195D01*
X146765976Y-62577202D01*
X146759575Y-62636730D01*
X145857488Y-62636730D01*
X145855334Y-62623128D01*
X145845221Y-62559271D01*
X145787625Y-62446233D01*
X145787621Y-62446229D01*
X145787620Y-62446227D01*
X145697922Y-62356529D01*
X145697919Y-62356527D01*
X145697917Y-62356525D01*
X145621092Y-62317380D01*
X145584876Y-62298927D01*
X145491099Y-62284075D01*
X144128057Y-62284075D01*
X144047094Y-62296898D01*
X144034271Y-62298929D01*
X143921233Y-62356525D01*
X143921232Y-62356526D01*
X143921227Y-62356529D01*
X143831529Y-62446227D01*
X143831526Y-62446232D01*
X143831525Y-62446233D01*
X143812326Y-62483912D01*
X143773927Y-62559273D01*
X143759075Y-62653050D01*
X143759075Y-62685075D01*
X143739390Y-62752114D01*
X143686586Y-62797869D01*
X143635075Y-62809075D01*
X142209672Y-62809075D01*
X142142633Y-62789390D01*
X142121991Y-62772756D01*
X138046394Y-58697159D01*
X138012909Y-58635836D01*
X138010075Y-58609478D01*
X138010075Y-57807257D01*
X139109575Y-57807257D01*
X139109575Y-58011892D01*
X139141584Y-58213992D01*
X139204819Y-58408606D01*
X139297716Y-58590925D01*
X139297722Y-58590934D01*
X139330098Y-58635496D01*
X139330099Y-58635497D01*
X140009575Y-57956021D01*
X140009575Y-57962236D01*
X140036834Y-58063969D01*
X140089495Y-58155181D01*
X140163969Y-58229655D01*
X140255181Y-58282316D01*
X140356914Y-58309575D01*
X140363128Y-58309575D01*
X139683651Y-58989049D01*
X139728225Y-59021434D01*
X139910543Y-59114330D01*
X140105157Y-59177565D01*
X140307258Y-59209575D01*
X140511892Y-59209575D01*
X140713992Y-59177565D01*
X140908606Y-59114330D01*
X141090924Y-59021434D01*
X141135496Y-58989049D01*
X140456022Y-58309575D01*
X140462236Y-58309575D01*
X140563969Y-58282316D01*
X140655181Y-58229655D01*
X140729655Y-58155181D01*
X140782316Y-58063969D01*
X140809575Y-57962236D01*
X140809575Y-57956023D01*
X141489049Y-58635497D01*
X141489049Y-58635496D01*
X141521434Y-58590924D01*
X141614330Y-58408606D01*
X141677565Y-58213992D01*
X141709575Y-58011892D01*
X141709575Y-57807257D01*
X141677565Y-57605157D01*
X141614330Y-57410543D01*
X141521434Y-57228225D01*
X141489049Y-57183652D01*
X141489049Y-57183651D01*
X140809575Y-57863126D01*
X140809575Y-57856914D01*
X140782316Y-57755181D01*
X140729655Y-57663969D01*
X140655181Y-57589495D01*
X140563969Y-57536834D01*
X140462236Y-57509575D01*
X140456021Y-57509575D01*
X141135497Y-56830099D01*
X141135496Y-56830098D01*
X141090934Y-56797722D01*
X141090925Y-56797716D01*
X140908606Y-56704819D01*
X140713992Y-56641584D01*
X140511892Y-56609575D01*
X140307258Y-56609575D01*
X140105157Y-56641584D01*
X139910543Y-56704819D01*
X139728219Y-56797718D01*
X139683652Y-56830098D01*
X139683652Y-56830099D01*
X140363129Y-57509575D01*
X140356914Y-57509575D01*
X140255181Y-57536834D01*
X140163969Y-57589495D01*
X140089495Y-57663969D01*
X140036834Y-57755181D01*
X140009575Y-57856914D01*
X140009575Y-57863128D01*
X139330099Y-57183652D01*
X139330098Y-57183652D01*
X139297718Y-57228219D01*
X139204819Y-57410543D01*
X139141584Y-57605157D01*
X139109575Y-57807257D01*
X138010075Y-57807257D01*
X138010075Y-57709672D01*
X138029760Y-57642633D01*
X138046394Y-57621991D01*
X139621991Y-56046394D01*
X139683314Y-56012909D01*
X139709672Y-56010075D01*
X142007778Y-56010075D01*
X142074817Y-56029760D01*
X142095459Y-56046394D01*
X143073014Y-57023949D01*
X143073024Y-57023960D01*
X143077354Y-57028290D01*
X143077355Y-57028291D01*
X143189159Y-57140095D01*
X143254451Y-57177791D01*
X143326090Y-57219152D01*
X143478818Y-57260076D01*
X143478821Y-57260076D01*
X143635076Y-57260076D01*
X143702115Y-57279761D01*
X143747870Y-57332565D01*
X143759076Y-57384076D01*
X143759076Y-57416093D01*
X143773929Y-57509879D01*
X143831525Y-57622917D01*
X143831527Y-57622919D01*
X143831529Y-57622922D01*
X143921227Y-57712620D01*
X143921229Y-57712621D01*
X143921233Y-57712625D01*
X144034269Y-57770220D01*
X144034273Y-57770222D01*
X144128050Y-57785074D01*
X144128056Y-57785075D01*
X145491093Y-57785074D01*
X145584879Y-57770221D01*
X145697917Y-57712625D01*
X145787625Y-57622917D01*
X145845221Y-57509879D01*
X145845221Y-57509877D01*
X145845222Y-57509876D01*
X145857489Y-57432419D01*
X146759575Y-57432419D01*
X146765976Y-57491947D01*
X146765978Y-57491954D01*
X146816220Y-57626661D01*
X146816224Y-57626668D01*
X146902384Y-57741762D01*
X146902387Y-57741765D01*
X147017481Y-57827925D01*
X147017488Y-57827929D01*
X147152195Y-57878171D01*
X147152202Y-57878173D01*
X147211730Y-57884574D01*
X147211747Y-57884575D01*
X147659575Y-57884575D01*
X147659575Y-56909575D01*
X146759575Y-56909575D01*
X146759575Y-57432419D01*
X145857489Y-57432419D01*
X145860074Y-57416099D01*
X145860075Y-57416094D01*
X145860074Y-56509670D01*
X145879759Y-56442632D01*
X145896388Y-56421995D01*
X146550537Y-55767846D01*
X146611858Y-55734363D01*
X146681550Y-55739347D01*
X146737483Y-55781219D01*
X146761900Y-55846683D01*
X146761506Y-55868783D01*
X146759575Y-55886744D01*
X146759575Y-56409575D01*
X147659575Y-56409575D01*
X147659575Y-55434575D01*
X147211744Y-55434575D01*
X147193784Y-55436506D01*
X147125025Y-55424100D01*
X147073888Y-55376489D01*
X147056609Y-55308789D01*
X147078674Y-55242495D01*
X147092849Y-55225535D01*
X147277525Y-55040859D01*
X148697396Y-53620988D01*
X148758717Y-53587505D01*
X148828409Y-53592489D01*
X148884342Y-53634361D01*
X148908759Y-53699825D01*
X148909075Y-53708671D01*
X148909075Y-55352690D01*
X148889390Y-55419729D01*
X148836586Y-55465484D01*
X148767428Y-55475428D01*
X148741742Y-55468872D01*
X148666954Y-55440978D01*
X148666947Y-55440976D01*
X148607419Y-55434575D01*
X148159575Y-55434575D01*
X148159575Y-57884575D01*
X148607403Y-57884575D01*
X148607419Y-57884574D01*
X148666947Y-57878173D01*
X148666958Y-57878170D01*
X148741741Y-57850278D01*
X148811432Y-57845293D01*
X148872756Y-57878777D01*
X148906241Y-57940100D01*
X148909075Y-57966459D01*
X148909075Y-62102690D01*
X148889390Y-62169729D01*
X148836586Y-62215484D01*
X148767428Y-62225428D01*
X148741742Y-62218872D01*
X148666954Y-62190978D01*
X148666947Y-62190976D01*
X148607419Y-62184575D01*
X148159575Y-62184575D01*
X148159575Y-64634575D01*
X148607403Y-64634575D01*
X148607419Y-64634574D01*
X148666947Y-64628173D01*
X148666958Y-64628170D01*
X148741741Y-64600278D01*
X148811432Y-64595293D01*
X148872756Y-64628777D01*
X148906241Y-64690100D01*
X148909075Y-64716459D01*
X148909075Y-67818211D01*
X148889390Y-67885250D01*
X148836586Y-67931005D01*
X148771819Y-67941500D01*
X148707419Y-67934575D01*
X148259575Y-67934575D01*
X148259575Y-70384575D01*
X148707403Y-70384575D01*
X148707414Y-70384574D01*
X148771817Y-70377649D01*
X148840577Y-70390053D01*
X148891715Y-70437662D01*
X148909075Y-70500938D01*
X148909075Y-74568211D01*
X148889390Y-74635250D01*
X148836586Y-74681005D01*
X148771819Y-74691500D01*
X148707419Y-74684575D01*
X148259575Y-74684575D01*
X148259575Y-77134575D01*
X148707403Y-77134575D01*
X148707414Y-77134574D01*
X148771817Y-77127649D01*
X148840577Y-77140053D01*
X148891715Y-77187662D01*
X148909075Y-77250938D01*
X148909075Y-87285075D01*
X148889390Y-87352114D01*
X148836586Y-87397869D01*
X148785075Y-87409075D01*
X108779090Y-87409075D01*
X108712051Y-87389390D01*
X108666296Y-87336586D01*
X108656352Y-87267428D01*
X108685377Y-87203872D01*
X108731637Y-87170514D01*
X108955654Y-87077723D01*
X109250315Y-86920224D01*
X109528118Y-86734601D01*
X109786390Y-86522643D01*
X110022643Y-86286390D01*
X110234601Y-86028118D01*
X110420224Y-85750315D01*
X110577723Y-85455654D01*
X110705582Y-85146976D01*
X110802569Y-84827251D01*
X110802571Y-84827241D01*
X110802574Y-84827230D01*
X110843757Y-84620185D01*
X110867751Y-84499559D01*
X110887470Y-84299353D01*
X144509075Y-84299353D01*
X144509075Y-84519796D01*
X144543560Y-84737527D01*
X144611678Y-84947178D01*
X144611679Y-84947181D01*
X144711762Y-85143600D01*
X144841327Y-85321933D01*
X144841331Y-85321938D01*
X144997211Y-85477818D01*
X144997216Y-85477822D01*
X145152767Y-85590835D01*
X145175553Y-85607390D01*
X145303950Y-85672812D01*
X145371968Y-85707470D01*
X145371971Y-85707471D01*
X145476796Y-85741530D01*
X145581624Y-85775590D01*
X145799353Y-85810075D01*
X145799354Y-85810075D01*
X146019796Y-85810075D01*
X146019797Y-85810075D01*
X146237526Y-85775590D01*
X146447181Y-85707470D01*
X146643597Y-85607390D01*
X146821940Y-85477817D01*
X146977817Y-85321940D01*
X147107390Y-85143597D01*
X147207470Y-84947181D01*
X147275590Y-84737526D01*
X147310075Y-84519797D01*
X147310075Y-84299353D01*
X147275590Y-84081624D01*
X147207470Y-83871969D01*
X147207470Y-83871968D01*
X147172812Y-83803950D01*
X147107390Y-83675553D01*
X146980172Y-83500451D01*
X146977822Y-83497216D01*
X146977818Y-83497211D01*
X146821938Y-83341331D01*
X146821933Y-83341327D01*
X146643600Y-83211762D01*
X146643599Y-83211761D01*
X146643597Y-83211760D01*
X146567040Y-83172752D01*
X146447181Y-83111679D01*
X146447178Y-83111678D01*
X146237527Y-83043560D01*
X146128661Y-83026317D01*
X146019797Y-83009075D01*
X145799353Y-83009075D01*
X145726776Y-83020570D01*
X145581622Y-83043560D01*
X145371971Y-83111678D01*
X145371968Y-83111679D01*
X145175549Y-83211762D01*
X144997216Y-83341327D01*
X144997211Y-83341331D01*
X144841331Y-83497211D01*
X144841327Y-83497216D01*
X144711762Y-83675549D01*
X144611679Y-83871968D01*
X144611678Y-83871971D01*
X144543560Y-84081622D01*
X144509075Y-84299353D01*
X110887470Y-84299353D01*
X110900500Y-84167056D01*
X110900500Y-83832944D01*
X110867751Y-83500441D01*
X110840134Y-83361603D01*
X110802574Y-83172769D01*
X110802571Y-83172758D01*
X110802570Y-83172755D01*
X110802569Y-83172749D01*
X110705582Y-82853024D01*
X110577723Y-82544346D01*
X110559405Y-82510076D01*
X110420230Y-82249696D01*
X110420229Y-82249694D01*
X110420224Y-82249685D01*
X110234601Y-81971882D01*
X110022643Y-81713610D01*
X110022642Y-81713609D01*
X110022638Y-81713604D01*
X109786395Y-81477361D01*
X109528123Y-81265403D01*
X109528122Y-81265402D01*
X109528118Y-81265399D01*
X109250315Y-81079776D01*
X109250310Y-81079773D01*
X109250303Y-81079769D01*
X108955661Y-80922280D01*
X108955656Y-80922278D01*
X108646977Y-80794418D01*
X108327241Y-80697428D01*
X108327230Y-80697425D01*
X107999565Y-80632250D01*
X107999548Y-80632247D01*
X107748108Y-80607483D01*
X107667056Y-80599500D01*
X107332944Y-80599500D01*
X107257982Y-80606883D01*
X107000451Y-80632247D01*
X107000434Y-80632250D01*
X106672769Y-80697425D01*
X106672758Y-80697428D01*
X106353022Y-80794418D01*
X106044343Y-80922278D01*
X106044338Y-80922280D01*
X105749696Y-81079769D01*
X105749678Y-81079780D01*
X105471890Y-81265393D01*
X105471876Y-81265403D01*
X105213604Y-81477361D01*
X104977361Y-81713604D01*
X104765403Y-81971876D01*
X104765393Y-81971890D01*
X104579780Y-82249678D01*
X104579769Y-82249696D01*
X104422280Y-82544338D01*
X104422278Y-82544343D01*
X104294418Y-82853022D01*
X104197430Y-83172752D01*
X104172180Y-83299692D01*
X104139795Y-83361603D01*
X104079079Y-83396177D01*
X104050563Y-83399500D01*
X81800097Y-83399500D01*
X81733058Y-83379815D01*
X81712416Y-83363181D01*
X79387373Y-81038138D01*
X79353888Y-80976815D01*
X79357122Y-80912141D01*
X79398128Y-80785943D01*
X79418280Y-80658701D01*
X79435075Y-80552672D01*
X79435075Y-80316477D01*
X79398128Y-80083206D01*
X79325141Y-79858578D01*
X79217917Y-79648141D01*
X79217907Y-79648127D01*
X79079092Y-79457065D01*
X79066383Y-79444356D01*
X79032898Y-79383033D01*
X79037882Y-79313341D01*
X79079754Y-79257408D01*
X79145218Y-79232991D01*
X79154064Y-79232675D01*
X122832078Y-79232675D01*
X122899117Y-79252360D01*
X122919758Y-79268993D01*
X126040859Y-82390095D01*
X126040861Y-82390096D01*
X126040865Y-82390099D01*
X126177784Y-82469148D01*
X126177791Y-82469152D01*
X126330518Y-82510076D01*
X126330520Y-82510076D01*
X126496229Y-82510076D01*
X126496245Y-82510075D01*
X129322906Y-82510075D01*
X129322922Y-82510076D01*
X129330518Y-82510076D01*
X129488629Y-82510076D01*
X129488632Y-82510076D01*
X129641360Y-82469152D01*
X129691479Y-82440214D01*
X129778291Y-82390095D01*
X129890095Y-82278291D01*
X129890095Y-82278289D01*
X129900303Y-82268082D01*
X129900305Y-82268079D01*
X132268081Y-79900303D01*
X132268086Y-79900299D01*
X132278289Y-79890095D01*
X132278291Y-79890095D01*
X132390095Y-79778291D01*
X132465236Y-79648142D01*
X132469152Y-79641360D01*
X132510076Y-79488632D01*
X132510076Y-79330518D01*
X132510076Y-79322923D01*
X132510075Y-79322905D01*
X132510075Y-58145462D01*
X132529760Y-58078423D01*
X132538216Y-58066804D01*
X132644176Y-57937693D01*
X132829799Y-57659890D01*
X132987298Y-57365229D01*
X133115157Y-57056551D01*
X133212144Y-56736826D01*
X133212146Y-56736816D01*
X133212149Y-56736805D01*
X133268952Y-56451232D01*
X133277326Y-56409134D01*
X133310075Y-56076631D01*
X133310075Y-55742519D01*
X133277326Y-55410016D01*
X133244004Y-55242495D01*
X133212149Y-55082344D01*
X133212146Y-55082333D01*
X133212145Y-55082330D01*
X133212144Y-55082324D01*
X133115157Y-54762599D01*
X132987298Y-54453921D01*
X132858846Y-54213604D01*
X132829805Y-54159271D01*
X132829804Y-54159269D01*
X132829799Y-54159260D01*
X132644176Y-53881457D01*
X132432218Y-53623185D01*
X132432217Y-53623184D01*
X132432213Y-53623179D01*
X132195970Y-53386936D01*
X131937698Y-53174978D01*
X131937697Y-53174977D01*
X131937693Y-53174974D01*
X131659890Y-52989351D01*
X131659885Y-52989348D01*
X131659878Y-52989344D01*
X131514632Y-52911709D01*
X131365236Y-52831855D01*
X131365231Y-52831853D01*
X131305769Y-52807223D01*
X133609075Y-52807223D01*
X133609075Y-53011926D01*
X133641097Y-53214109D01*
X133704356Y-53408798D01*
X133711225Y-53422278D01*
X133791471Y-53579769D01*
X133797290Y-53591188D01*
X133917603Y-53756788D01*
X134062361Y-53901546D01*
X134227960Y-54021859D01*
X134227962Y-54021860D01*
X134227965Y-54021862D01*
X134303104Y-54060147D01*
X134316264Y-54072576D01*
X134332352Y-54080864D01*
X134353514Y-54107757D01*
X134353900Y-54108121D01*
X134354178Y-54108600D01*
X134355014Y-54110047D01*
X134355032Y-54110079D01*
X134429052Y-54238287D01*
X134429054Y-54238290D01*
X134429055Y-54238291D01*
X134540859Y-54350095D01*
X134540860Y-54350096D01*
X134662654Y-54471890D01*
X134772756Y-54581991D01*
X134806241Y-54643314D01*
X134809075Y-54669672D01*
X134809075Y-60824605D01*
X134809074Y-60824623D01*
X134809074Y-60990329D01*
X134809073Y-60990329D01*
X134849999Y-61143062D01*
X134868481Y-61175073D01*
X134868482Y-61175075D01*
X134929052Y-61279987D01*
X134929056Y-61279992D01*
X135047924Y-61398860D01*
X135047929Y-61398864D01*
X143289159Y-69640095D01*
X143289161Y-69640096D01*
X143289165Y-69640099D01*
X143426084Y-69719148D01*
X143426091Y-69719152D01*
X143578818Y-69760076D01*
X143578820Y-69760076D01*
X143735076Y-69760076D01*
X143802115Y-69779761D01*
X143847870Y-69832565D01*
X143859076Y-69884076D01*
X143859076Y-69916093D01*
X143873929Y-70009879D01*
X143931525Y-70122917D01*
X143931527Y-70122919D01*
X143931529Y-70122922D01*
X144021227Y-70212620D01*
X144021229Y-70212621D01*
X144021233Y-70212625D01*
X144134271Y-70270221D01*
X144134272Y-70270221D01*
X144134274Y-70270222D01*
X144204472Y-70281340D01*
X144267607Y-70311269D01*
X144304539Y-70370580D01*
X144309075Y-70403813D01*
X144309075Y-74665337D01*
X144289390Y-74732376D01*
X144236586Y-74778131D01*
X144204472Y-74787810D01*
X144134275Y-74798927D01*
X144134274Y-74798927D01*
X144078872Y-74827155D01*
X144021233Y-74856525D01*
X144021232Y-74856526D01*
X144021227Y-74856529D01*
X143931529Y-74946227D01*
X143931526Y-74946232D01*
X143873927Y-75059273D01*
X143859075Y-75153050D01*
X143859075Y-76666092D01*
X143868111Y-76723141D01*
X143873929Y-76759879D01*
X143931525Y-76872917D01*
X143931527Y-76872919D01*
X143931529Y-76872922D01*
X144021227Y-76962620D01*
X144021229Y-76962621D01*
X144021233Y-76962625D01*
X144134269Y-77020220D01*
X144134273Y-77020222D01*
X144228050Y-77035074D01*
X144228056Y-77035075D01*
X145591093Y-77035074D01*
X145684879Y-77020221D01*
X145797917Y-76962625D01*
X145887625Y-76872917D01*
X145945221Y-76759879D01*
X145945221Y-76759877D01*
X145945222Y-76759876D01*
X145957490Y-76682419D01*
X146859575Y-76682419D01*
X146865976Y-76741947D01*
X146865978Y-76741954D01*
X146916220Y-76876661D01*
X146916224Y-76876668D01*
X147002384Y-76991762D01*
X147002387Y-76991765D01*
X147117481Y-77077925D01*
X147117488Y-77077929D01*
X147252195Y-77128171D01*
X147252202Y-77128173D01*
X147311730Y-77134574D01*
X147311747Y-77134575D01*
X147759575Y-77134575D01*
X147759575Y-76159575D01*
X146859575Y-76159575D01*
X146859575Y-76682419D01*
X145957490Y-76682419D01*
X145960075Y-76666099D01*
X145960075Y-76108213D01*
X145960074Y-75153052D01*
X145960038Y-75152827D01*
X145960037Y-75152823D01*
X145957488Y-75136730D01*
X146859575Y-75136730D01*
X146859575Y-75659575D01*
X147759575Y-75659575D01*
X147759575Y-74684575D01*
X147311730Y-74684575D01*
X147252202Y-74690976D01*
X147252195Y-74690978D01*
X147117488Y-74741220D01*
X147117481Y-74741224D01*
X147002387Y-74827384D01*
X147002384Y-74827387D01*
X146916224Y-74942481D01*
X146916220Y-74942488D01*
X146865978Y-75077195D01*
X146865976Y-75077202D01*
X146859575Y-75136730D01*
X145957488Y-75136730D01*
X145945221Y-75059271D01*
X145887625Y-74946233D01*
X145887621Y-74946229D01*
X145887620Y-74946227D01*
X145797922Y-74856529D01*
X145797919Y-74856527D01*
X145797917Y-74856525D01*
X145684879Y-74798929D01*
X145684877Y-74798928D01*
X145684876Y-74798928D01*
X145614676Y-74787809D01*
X145551542Y-74757879D01*
X145514611Y-74698568D01*
X145510075Y-74665336D01*
X145510075Y-70403812D01*
X145529760Y-70336773D01*
X145582564Y-70291018D01*
X145614674Y-70281339D01*
X145684879Y-70270221D01*
X145797917Y-70212625D01*
X145887625Y-70122917D01*
X145945221Y-70009879D01*
X145945221Y-70009877D01*
X145945222Y-70009876D01*
X145957490Y-69932419D01*
X146859575Y-69932419D01*
X146865976Y-69991947D01*
X146865978Y-69991954D01*
X146916220Y-70126661D01*
X146916224Y-70126668D01*
X147002384Y-70241762D01*
X147002387Y-70241765D01*
X147117481Y-70327925D01*
X147117488Y-70327929D01*
X147252195Y-70378171D01*
X147252202Y-70378173D01*
X147311730Y-70384574D01*
X147311747Y-70384575D01*
X147759575Y-70384575D01*
X147759575Y-69409575D01*
X146859575Y-69409575D01*
X146859575Y-69932419D01*
X145957490Y-69932419D01*
X145960075Y-69916099D01*
X145960075Y-69358213D01*
X145960074Y-68403052D01*
X145960038Y-68402827D01*
X145960037Y-68402823D01*
X145957488Y-68386730D01*
X146859575Y-68386730D01*
X146859575Y-68909575D01*
X147759575Y-68909575D01*
X147759575Y-67934575D01*
X147311730Y-67934575D01*
X147252202Y-67940976D01*
X147252195Y-67940978D01*
X147117488Y-67991220D01*
X147117481Y-67991224D01*
X147002387Y-68077384D01*
X147002384Y-68077387D01*
X146916224Y-68192481D01*
X146916220Y-68192488D01*
X146865978Y-68327195D01*
X146865976Y-68327202D01*
X146859575Y-68386730D01*
X145957488Y-68386730D01*
X145954621Y-68368627D01*
X145945221Y-68309271D01*
X145887625Y-68196233D01*
X145887621Y-68196229D01*
X145887620Y-68196227D01*
X145797922Y-68106529D01*
X145797919Y-68106527D01*
X145797917Y-68106525D01*
X145721092Y-68067380D01*
X145684876Y-68048927D01*
X145591099Y-68034075D01*
X144228057Y-68034075D01*
X144147094Y-68046898D01*
X144134271Y-68048929D01*
X144021233Y-68106525D01*
X144021232Y-68106526D01*
X144021227Y-68106529D01*
X143931529Y-68196227D01*
X143931524Y-68196234D01*
X143878123Y-68301037D01*
X143830148Y-68351833D01*
X143762327Y-68368627D01*
X143696192Y-68346089D01*
X143679958Y-68332422D01*
X136046394Y-60698858D01*
X136012909Y-60637535D01*
X136010075Y-60611177D01*
X136010075Y-54458635D01*
X136010076Y-54458622D01*
X136010076Y-54290519D01*
X136010076Y-54290518D01*
X135969152Y-54137791D01*
X135948119Y-54101360D01*
X135890099Y-54000865D01*
X135890093Y-54000857D01*
X135861466Y-53972230D01*
X135827981Y-53910907D01*
X135832965Y-53841215D01*
X135861465Y-53796868D01*
X135901541Y-53756794D01*
X135901543Y-53756790D01*
X135901546Y-53756788D01*
X135990493Y-53634361D01*
X136021862Y-53591185D01*
X136114795Y-53408794D01*
X136178052Y-53214109D01*
X136210075Y-53011927D01*
X136210075Y-52807223D01*
X136178052Y-52605041D01*
X136114795Y-52410356D01*
X136114793Y-52410353D01*
X136114793Y-52410351D01*
X136081078Y-52344182D01*
X136021862Y-52227965D01*
X136014131Y-52217324D01*
X135901546Y-52062361D01*
X135756788Y-51917603D01*
X135591188Y-51797290D01*
X135591187Y-51797289D01*
X135591185Y-51797288D01*
X135534228Y-51768266D01*
X135408798Y-51704356D01*
X135214109Y-51641097D01*
X135039570Y-51613453D01*
X135011927Y-51609075D01*
X134807223Y-51609075D01*
X134782904Y-51612926D01*
X134605040Y-51641097D01*
X134410351Y-51704356D01*
X134227961Y-51797290D01*
X134062361Y-51917603D01*
X133917603Y-52062361D01*
X133797290Y-52227961D01*
X133704356Y-52410351D01*
X133641097Y-52605040D01*
X133609075Y-52807223D01*
X131305769Y-52807223D01*
X131274822Y-52794404D01*
X131056552Y-52703993D01*
X130736816Y-52607003D01*
X130736805Y-52607000D01*
X130409140Y-52541825D01*
X130409123Y-52541822D01*
X130157683Y-52517058D01*
X130076631Y-52509075D01*
X129742519Y-52509075D01*
X129667557Y-52516458D01*
X129410026Y-52541822D01*
X129410009Y-52541825D01*
X129082344Y-52607000D01*
X129082333Y-52607003D01*
X128762597Y-52703993D01*
X128453918Y-52831853D01*
X128453913Y-52831855D01*
X128159271Y-52989344D01*
X128159253Y-52989355D01*
X127881465Y-53174968D01*
X127881451Y-53174978D01*
X127623179Y-53386936D01*
X127386936Y-53623179D01*
X127174978Y-53881451D01*
X127174968Y-53881465D01*
X126989355Y-54159253D01*
X126989344Y-54159271D01*
X126831855Y-54453913D01*
X126831853Y-54453918D01*
X126703993Y-54762597D01*
X126607003Y-55082333D01*
X126607000Y-55082344D01*
X126541825Y-55410009D01*
X126541822Y-55410026D01*
X126535381Y-55475428D01*
X126509388Y-55739347D01*
X126509075Y-55742522D01*
X126509075Y-56076627D01*
X126541822Y-56409123D01*
X126541825Y-56409140D01*
X126607000Y-56736805D01*
X126607003Y-56736816D01*
X126607005Y-56736825D01*
X126607006Y-56736826D01*
X126613145Y-56757063D01*
X126703993Y-57056552D01*
X126831853Y-57365231D01*
X126831855Y-57365236D01*
X126989344Y-57659878D01*
X126989355Y-57659896D01*
X127174968Y-57937684D01*
X127174978Y-57937698D01*
X127386936Y-58195970D01*
X127623179Y-58432213D01*
X127623184Y-58432217D01*
X127623185Y-58432218D01*
X127881457Y-58644176D01*
X128159260Y-58829799D01*
X128159269Y-58829804D01*
X128159271Y-58829805D01*
X128453913Y-58987294D01*
X128453915Y-58987294D01*
X128453921Y-58987298D01*
X128762599Y-59115157D01*
X129082324Y-59212144D01*
X129082330Y-59212145D01*
X129082333Y-59212146D01*
X129082344Y-59212149D01*
X129287818Y-59253019D01*
X129410016Y-59277326D01*
X129742519Y-59310075D01*
X129742522Y-59310075D01*
X130076628Y-59310075D01*
X130076631Y-59310075D01*
X130409134Y-59277326D01*
X130571332Y-59245062D01*
X130736805Y-59212149D01*
X130736816Y-59212146D01*
X130736816Y-59212145D01*
X130736826Y-59212144D01*
X131056551Y-59115157D01*
X131137622Y-59081576D01*
X131207091Y-59074107D01*
X131269570Y-59105382D01*
X131305223Y-59165470D01*
X131309075Y-59196137D01*
X131309075Y-79109478D01*
X131289390Y-79176517D01*
X131272756Y-79197159D01*
X129197159Y-81272756D01*
X129135836Y-81306241D01*
X129109478Y-81309075D01*
X126709673Y-81309075D01*
X126642634Y-81289390D01*
X126621992Y-81272756D01*
X123619765Y-78270530D01*
X123619763Y-78270527D01*
X123500892Y-78151656D01*
X123500891Y-78151655D01*
X123414079Y-78101535D01*
X123414079Y-78101534D01*
X123414075Y-78101533D01*
X123363960Y-78072598D01*
X123211232Y-78031674D01*
X123053118Y-78031674D01*
X123045522Y-78031674D01*
X123045506Y-78031675D01*
X77005415Y-78031675D01*
X76964494Y-78042639D01*
X76964494Y-78042640D01*
X76927226Y-78052626D01*
X76852689Y-78072598D01*
X76852684Y-78072601D01*
X76715765Y-78151650D01*
X76715757Y-78151656D01*
X76603953Y-78263461D01*
X75913227Y-78954186D01*
X75851904Y-78987671D01*
X75787229Y-78984437D01*
X75745943Y-78971022D01*
X75745941Y-78971021D01*
X75745936Y-78971020D01*
X75512672Y-78934075D01*
X75512667Y-78934075D01*
X75276483Y-78934075D01*
X75276478Y-78934075D01*
X75043206Y-78971021D01*
X74818578Y-79044008D01*
X74608141Y-79151232D01*
X74573340Y-79176517D01*
X74417065Y-79290058D01*
X74417063Y-79290060D01*
X74417062Y-79290060D01*
X74250059Y-79457063D01*
X74250058Y-79457065D01*
X74227126Y-79488629D01*
X74224893Y-79491702D01*
X74169562Y-79534367D01*
X74099949Y-79540346D01*
X74038154Y-79507740D01*
X74024257Y-79491702D01*
X73999092Y-79457065D01*
X73832085Y-79290058D01*
X73675810Y-79176517D01*
X73641006Y-79151230D01*
X73522779Y-79090990D01*
X73471984Y-79043016D01*
X73455075Y-78980506D01*
X73455075Y-60445521D01*
X73474760Y-60378482D01*
X73491389Y-60357844D01*
X74485498Y-59363735D01*
X74546819Y-59330252D01*
X74616510Y-59335236D01*
X74642067Y-59348315D01*
X74749685Y-59420224D01*
X74749694Y-59420229D01*
X74749696Y-59420230D01*
X75044338Y-59577719D01*
X75044340Y-59577719D01*
X75044346Y-59577723D01*
X75353024Y-59705582D01*
X75672749Y-59802569D01*
X75672755Y-59802570D01*
X75672758Y-59802571D01*
X75672769Y-59802574D01*
X75878243Y-59843444D01*
X76000441Y-59867751D01*
X76332944Y-59900500D01*
X76332947Y-59900500D01*
X76667053Y-59900500D01*
X76667056Y-59900500D01*
X76999559Y-59867751D01*
X77161757Y-59835487D01*
X77327230Y-59802574D01*
X77327241Y-59802571D01*
X77327241Y-59802570D01*
X77327251Y-59802569D01*
X77646976Y-59705582D01*
X77955654Y-59577723D01*
X78250315Y-59420224D01*
X78528118Y-59234601D01*
X78786390Y-59022643D01*
X79022643Y-58786390D01*
X79234601Y-58528118D01*
X79420224Y-58250315D01*
X79577723Y-57955654D01*
X79705582Y-57646976D01*
X79802569Y-57327251D01*
X79802571Y-57327241D01*
X79802574Y-57327230D01*
X79856414Y-57056552D01*
X79867751Y-56999559D01*
X79900500Y-56667056D01*
X79900500Y-56332944D01*
X79867751Y-56000441D01*
X79829725Y-55809271D01*
X79802574Y-55672769D01*
X79802571Y-55672758D01*
X79802570Y-55672755D01*
X79802569Y-55672749D01*
X79705582Y-55353024D01*
X79577723Y-55044346D01*
X79575860Y-55040861D01*
X79420230Y-54749696D01*
X79420229Y-54749694D01*
X79420224Y-54749685D01*
X79234601Y-54471882D01*
X79022643Y-54213610D01*
X79022642Y-54213609D01*
X79022638Y-54213604D01*
X78786395Y-53977361D01*
X78528123Y-53765403D01*
X78528122Y-53765402D01*
X78528118Y-53765399D01*
X78250315Y-53579776D01*
X78250310Y-53579773D01*
X78250303Y-53579769D01*
X77955661Y-53422280D01*
X77955656Y-53422278D01*
X77646977Y-53294418D01*
X77327241Y-53197428D01*
X77327230Y-53197425D01*
X76999565Y-53132250D01*
X76999548Y-53132247D01*
X76748108Y-53107483D01*
X76667056Y-53099500D01*
X76332944Y-53099500D01*
X76257982Y-53106883D01*
X76000451Y-53132247D01*
X76000434Y-53132250D01*
X75672769Y-53197425D01*
X75672758Y-53197428D01*
X75353022Y-53294418D01*
X75044343Y-53422278D01*
X75044338Y-53422280D01*
X74749696Y-53579769D01*
X74749678Y-53579780D01*
X74471890Y-53765393D01*
X74471876Y-53765403D01*
X74213604Y-53977361D01*
X73977361Y-54213604D01*
X73765403Y-54471876D01*
X73765393Y-54471890D01*
X73579780Y-54749678D01*
X73579769Y-54749696D01*
X73422280Y-55044338D01*
X73422278Y-55044343D01*
X73294418Y-55353022D01*
X73197428Y-55672758D01*
X73197425Y-55672769D01*
X73132250Y-56000434D01*
X73132247Y-56000451D01*
X73106883Y-56257982D01*
X73099500Y-56332944D01*
X73099500Y-56667056D01*
X73106370Y-56736805D01*
X73132247Y-56999548D01*
X73132250Y-56999565D01*
X73197425Y-57327230D01*
X73197428Y-57327241D01*
X73294418Y-57646977D01*
X73422278Y-57955656D01*
X73422280Y-57955661D01*
X73579769Y-58250303D01*
X73579780Y-58250321D01*
X73651682Y-58357930D01*
X73672560Y-58424608D01*
X73654075Y-58491988D01*
X73636261Y-58514502D01*
X72485861Y-59664903D01*
X72374056Y-59776707D01*
X72374054Y-59776710D01*
X72323936Y-59863519D01*
X72323934Y-59863521D01*
X72295000Y-59913634D01*
X72294999Y-59913635D01*
X72292434Y-59923207D01*
X72254074Y-60066368D01*
X72254074Y-60066370D01*
X72254074Y-60234471D01*
X72254075Y-60234484D01*
X72254075Y-78980506D01*
X72234390Y-79047545D01*
X72186371Y-79090990D01*
X72068143Y-79151230D01*
X71934471Y-79248349D01*
X71877065Y-79290058D01*
X71877063Y-79290060D01*
X71877062Y-79290060D01*
X71710060Y-79457062D01*
X71710060Y-79457063D01*
X71710058Y-79457065D01*
X71653895Y-79534367D01*
X71571232Y-79648141D01*
X71464008Y-79858578D01*
X71391021Y-80083206D01*
X71354075Y-80316477D01*
X71354075Y-80552672D01*
X71391021Y-80785943D01*
X71464008Y-81010571D01*
X71571232Y-81221008D01*
X71710058Y-81412085D01*
X71877065Y-81579092D01*
X72068142Y-81717918D01*
X72167566Y-81768577D01*
X72278578Y-81825141D01*
X72278580Y-81825141D01*
X72278583Y-81825143D01*
X72370867Y-81855128D01*
X72503206Y-81898128D01*
X72736478Y-81935075D01*
X72736483Y-81935075D01*
X72972672Y-81935075D01*
X73205943Y-81898128D01*
X73239043Y-81887373D01*
X73430567Y-81825143D01*
X73641008Y-81717918D01*
X73832085Y-81579092D01*
X73999092Y-81412085D01*
X74024257Y-81377447D01*
X74079586Y-81334782D01*
X74149200Y-81328803D01*
X74210995Y-81361408D01*
X74224890Y-81377445D01*
X74250058Y-81412085D01*
X74417065Y-81579092D01*
X74608142Y-81717918D01*
X74707566Y-81768577D01*
X74818578Y-81825141D01*
X74818580Y-81825141D01*
X74818583Y-81825143D01*
X74910867Y-81855128D01*
X75043206Y-81898128D01*
X75276478Y-81935075D01*
X75276483Y-81935075D01*
X75512672Y-81935075D01*
X75745943Y-81898128D01*
X75779043Y-81887373D01*
X75970567Y-81825143D01*
X76181008Y-81717918D01*
X76372085Y-81579092D01*
X76539092Y-81412085D01*
X76564257Y-81377447D01*
X76619586Y-81334782D01*
X76689200Y-81328803D01*
X76750995Y-81361408D01*
X76764890Y-81377445D01*
X76790058Y-81412085D01*
X76957065Y-81579092D01*
X77148142Y-81717918D01*
X77247566Y-81768577D01*
X77358578Y-81825141D01*
X77358580Y-81825141D01*
X77358583Y-81825143D01*
X77450867Y-81855128D01*
X77583206Y-81898128D01*
X77816478Y-81935075D01*
X77816483Y-81935075D01*
X78052672Y-81935075D01*
X78158701Y-81918280D01*
X78285943Y-81898128D01*
X78412141Y-81857122D01*
X78481979Y-81855128D01*
X78538138Y-81887373D01*
X81015139Y-84364374D01*
X81015149Y-84364385D01*
X81019479Y-84368715D01*
X81019480Y-84368716D01*
X81131284Y-84480520D01*
X81131286Y-84480521D01*
X81131290Y-84480524D01*
X81199314Y-84519797D01*
X81268216Y-84559577D01*
X81380019Y-84589534D01*
X81420942Y-84600500D01*
X81420943Y-84600500D01*
X104050563Y-84600500D01*
X104117602Y-84620185D01*
X104163357Y-84672989D01*
X104172180Y-84700308D01*
X104197430Y-84827247D01*
X104294418Y-85146977D01*
X104422278Y-85455656D01*
X104422280Y-85455661D01*
X104579769Y-85750303D01*
X104579780Y-85750321D01*
X104765393Y-86028109D01*
X104765403Y-86028123D01*
X104977361Y-86286395D01*
X105213604Y-86522638D01*
X105213609Y-86522642D01*
X105213610Y-86522643D01*
X105471882Y-86734601D01*
X105749685Y-86920224D01*
X105749694Y-86920229D01*
X105749696Y-86920230D01*
X106044338Y-87077719D01*
X106044340Y-87077719D01*
X106044346Y-87077723D01*
X106268363Y-87170514D01*
X106322766Y-87214355D01*
X106344831Y-87280649D01*
X106327552Y-87348349D01*
X106276414Y-87395959D01*
X106220910Y-87409075D01*
X65034075Y-87409075D01*
X64967036Y-87389390D01*
X64921281Y-87336586D01*
X64910075Y-87285075D01*
X64910075Y-84299353D01*
X66509075Y-84299353D01*
X66509075Y-84519796D01*
X66543560Y-84737527D01*
X66611678Y-84947178D01*
X66611679Y-84947181D01*
X66711762Y-85143600D01*
X66841327Y-85321933D01*
X66841331Y-85321938D01*
X66997211Y-85477818D01*
X66997216Y-85477822D01*
X67152767Y-85590835D01*
X67175553Y-85607390D01*
X67303950Y-85672812D01*
X67371968Y-85707470D01*
X67371971Y-85707471D01*
X67476796Y-85741530D01*
X67581624Y-85775590D01*
X67799353Y-85810075D01*
X67799354Y-85810075D01*
X68019796Y-85810075D01*
X68019797Y-85810075D01*
X68237526Y-85775590D01*
X68447181Y-85707470D01*
X68643597Y-85607390D01*
X68821940Y-85477817D01*
X68977817Y-85321940D01*
X69107390Y-85143597D01*
X69207470Y-84947181D01*
X69275590Y-84737526D01*
X69310075Y-84519797D01*
X69310075Y-84299353D01*
X69275590Y-84081624D01*
X69207470Y-83871969D01*
X69207470Y-83871968D01*
X69172812Y-83803950D01*
X69107390Y-83675553D01*
X68980172Y-83500451D01*
X68977822Y-83497216D01*
X68977818Y-83497211D01*
X68821938Y-83341331D01*
X68821933Y-83341327D01*
X68643600Y-83211762D01*
X68643599Y-83211761D01*
X68643597Y-83211760D01*
X68567040Y-83172752D01*
X68447181Y-83111679D01*
X68447178Y-83111678D01*
X68237527Y-83043560D01*
X68128661Y-83026317D01*
X68019797Y-83009075D01*
X67799353Y-83009075D01*
X67726776Y-83020570D01*
X67581622Y-83043560D01*
X67371971Y-83111678D01*
X67371968Y-83111679D01*
X67175549Y-83211762D01*
X66997216Y-83341327D01*
X66997211Y-83341331D01*
X66841331Y-83497211D01*
X66841327Y-83497216D01*
X66711762Y-83675549D01*
X66611679Y-83871968D01*
X66611678Y-83871971D01*
X66543560Y-84081622D01*
X66509075Y-84299353D01*
X64910075Y-84299353D01*
X64910075Y-24299353D01*
X66509075Y-24299353D01*
X66509075Y-24519796D01*
X66543560Y-24737527D01*
X66611678Y-24947178D01*
X66611679Y-24947181D01*
X66679697Y-25080671D01*
X66707632Y-25135496D01*
X66711762Y-25143600D01*
X66841327Y-25321933D01*
X66841331Y-25321938D01*
X66997211Y-25477818D01*
X66997216Y-25477822D01*
X67048037Y-25514745D01*
X67175553Y-25607390D01*
X67303950Y-25672812D01*
X67371968Y-25707470D01*
X67371971Y-25707471D01*
X67454043Y-25734137D01*
X67581624Y-25775590D01*
X67799353Y-25810075D01*
X67799354Y-25810075D01*
X68019796Y-25810075D01*
X68019797Y-25810075D01*
X68237526Y-25775590D01*
X68447181Y-25707470D01*
X68643597Y-25607390D01*
X68821940Y-25477817D01*
X68977817Y-25321940D01*
X69107390Y-25143597D01*
X69207470Y-24947181D01*
X69275590Y-24737526D01*
X69310075Y-24519797D01*
X69310075Y-24299353D01*
X69275590Y-24081624D01*
X69207470Y-23871969D01*
X69207470Y-23871968D01*
X69172812Y-23803950D01*
X69107390Y-23675553D01*
X69090835Y-23652767D01*
X68977822Y-23497216D01*
X68977818Y-23497211D01*
X68821938Y-23341331D01*
X68821933Y-23341327D01*
X68643600Y-23211762D01*
X68643599Y-23211761D01*
X68643597Y-23211760D01*
X68580671Y-23179697D01*
X68447181Y-23111679D01*
X68447178Y-23111678D01*
X68237527Y-23043560D01*
X68128661Y-23026317D01*
X68019797Y-23009075D01*
X67799353Y-23009075D01*
X67726776Y-23020570D01*
X67581622Y-23043560D01*
X67371971Y-23111678D01*
X67371968Y-23111679D01*
X67175549Y-23211762D01*
X66997216Y-23341327D01*
X66997211Y-23341331D01*
X66841331Y-23497211D01*
X66841327Y-23497216D01*
X66711762Y-23675549D01*
X66611679Y-23871968D01*
X66611678Y-23871971D01*
X66543560Y-24081622D01*
X66509075Y-24299353D01*
X64910075Y-24299353D01*
X64910075Y-21534075D01*
X64929760Y-21467036D01*
X64982564Y-21421281D01*
X65034075Y-21410075D01*
X148785075Y-21410075D01*
X148852114Y-21429760D01*
G37*
%TD.AperFunction*%
%TA.AperFunction,Conductor*%
G36*
X125843294Y-23029760D02*
G01*
X125889049Y-23082564D01*
X125898993Y-23151722D01*
X125869968Y-23215278D01*
X125832550Y-23244560D01*
X125728219Y-23297718D01*
X125683652Y-23330098D01*
X125683652Y-23330099D01*
X126363129Y-24009575D01*
X126356914Y-24009575D01*
X126255181Y-24036834D01*
X126163969Y-24089495D01*
X126089495Y-24163969D01*
X126036834Y-24255181D01*
X126009575Y-24356914D01*
X126009575Y-24363128D01*
X125330099Y-23683652D01*
X125330098Y-23683652D01*
X125297718Y-23728219D01*
X125204819Y-23910543D01*
X125141584Y-24105157D01*
X125109575Y-24307257D01*
X125109575Y-24511892D01*
X125141584Y-24713992D01*
X125204819Y-24908606D01*
X125297716Y-25090925D01*
X125297722Y-25090934D01*
X125330098Y-25135496D01*
X125330099Y-25135497D01*
X126009575Y-24456021D01*
X126009575Y-24462236D01*
X126036834Y-24563969D01*
X126089495Y-24655181D01*
X126163969Y-24729655D01*
X126255181Y-24782316D01*
X126356914Y-24809575D01*
X126363128Y-24809575D01*
X125683651Y-25489049D01*
X125683652Y-25489051D01*
X125719016Y-25514745D01*
X125761682Y-25570075D01*
X125767660Y-25639688D01*
X125735054Y-25701483D01*
X125680725Y-25734138D01*
X125599181Y-25757828D01*
X125599178Y-25757830D01*
X125457712Y-25841492D01*
X125457704Y-25841498D01*
X125341498Y-25957704D01*
X125341492Y-25957712D01*
X125257830Y-26099178D01*
X125257829Y-26099181D01*
X125222824Y-26219670D01*
X125185218Y-26278556D01*
X125121746Y-26307762D01*
X125103748Y-26309075D01*
X102529532Y-26309075D01*
X102371417Y-26309075D01*
X102218690Y-26349998D01*
X102218689Y-26349998D01*
X102218687Y-26349999D01*
X102218684Y-26350000D01*
X102168571Y-26378934D01*
X102168570Y-26378935D01*
X102125164Y-26403995D01*
X102081760Y-26429054D01*
X102081757Y-26429056D01*
X101969953Y-26540861D01*
X92488059Y-36022756D01*
X92426736Y-36056241D01*
X92400378Y-36059075D01*
X80888643Y-36059075D01*
X80821604Y-36039390D01*
X80778158Y-35991370D01*
X80767360Y-35970177D01*
X80717918Y-35873142D01*
X80579092Y-35682065D01*
X80412085Y-35515058D01*
X80221008Y-35376232D01*
X80197826Y-35364420D01*
X80010571Y-35269008D01*
X79785943Y-35196021D01*
X79552672Y-35159075D01*
X79552667Y-35159075D01*
X79316483Y-35159075D01*
X79316478Y-35159075D01*
X79083206Y-35196021D01*
X78858578Y-35269008D01*
X78648141Y-35376232D01*
X78633201Y-35387087D01*
X78457065Y-35515058D01*
X78457063Y-35515060D01*
X78457062Y-35515060D01*
X78290060Y-35682062D01*
X78290060Y-35682063D01*
X78290058Y-35682065D01*
X78239185Y-35752085D01*
X78151232Y-35873141D01*
X78044008Y-36083578D01*
X77971021Y-36308206D01*
X77934075Y-36541477D01*
X77934075Y-36777672D01*
X77971021Y-37010943D01*
X78044008Y-37235571D01*
X78141590Y-37427085D01*
X78151232Y-37446008D01*
X78290058Y-37637085D01*
X78290060Y-37637087D01*
X78458154Y-37805181D01*
X78491639Y-37866504D01*
X78494091Y-37902591D01*
X78493875Y-37905323D01*
X79305165Y-38716612D01*
X79241582Y-38733650D01*
X79127568Y-38799476D01*
X79034476Y-38892568D01*
X78968650Y-39006582D01*
X78951612Y-39070165D01*
X78140323Y-38258875D01*
X78140322Y-38258876D01*
X78066134Y-38360988D01*
X77951794Y-38585390D01*
X77873972Y-38824905D01*
X77834575Y-39073646D01*
X77834575Y-39325503D01*
X77873972Y-39574244D01*
X77951794Y-39813759D01*
X78066132Y-40038158D01*
X78140323Y-40140272D01*
X78140323Y-40140273D01*
X78951612Y-39328984D01*
X78968650Y-39392568D01*
X79034476Y-39506582D01*
X79127568Y-39599674D01*
X79241582Y-39665500D01*
X79305165Y-39682537D01*
X78493875Y-40493825D01*
X78595991Y-40568017D01*
X78820390Y-40682355D01*
X79059905Y-40760177D01*
X79308647Y-40799575D01*
X79560503Y-40799575D01*
X79809243Y-40760178D01*
X80003349Y-40697109D01*
X80073190Y-40695114D01*
X80133023Y-40731194D01*
X80163851Y-40793895D01*
X80155886Y-40863309D01*
X80152152Y-40871335D01*
X80044009Y-41083578D01*
X79971021Y-41308206D01*
X79934075Y-41541477D01*
X79934075Y-41777672D01*
X79971021Y-42010943D01*
X80044008Y-42235571D01*
X80128988Y-42402352D01*
X80151232Y-42446008D01*
X80290058Y-42637085D01*
X80457065Y-42804092D01*
X80648142Y-42942918D01*
X80724085Y-42981613D01*
X80858578Y-43050141D01*
X80858580Y-43050141D01*
X80858583Y-43050143D01*
X80978987Y-43089264D01*
X81083206Y-43123128D01*
X81316478Y-43160075D01*
X81316483Y-43160075D01*
X81552672Y-43160075D01*
X81785943Y-43123128D01*
X82010567Y-43050143D01*
X82221008Y-42942918D01*
X82412085Y-42804092D01*
X82579092Y-42637085D01*
X82579094Y-42637081D01*
X82580181Y-42635995D01*
X82641504Y-42602510D01*
X82677591Y-42600058D01*
X82680323Y-42600273D01*
X83491612Y-41788984D01*
X83508650Y-41852568D01*
X83574476Y-41966582D01*
X83667568Y-42059674D01*
X83781582Y-42125500D01*
X83845165Y-42142537D01*
X83033875Y-42953825D01*
X83135991Y-43028017D01*
X83360390Y-43142355D01*
X83599905Y-43220177D01*
X83848647Y-43259575D01*
X84100503Y-43259575D01*
X84349244Y-43220177D01*
X84588759Y-43142355D01*
X84813150Y-43028021D01*
X84813156Y-43028017D01*
X84915272Y-42953825D01*
X84915273Y-42953825D01*
X84103984Y-42142537D01*
X84167568Y-42125500D01*
X84281582Y-42059674D01*
X84374674Y-41966582D01*
X84440500Y-41852568D01*
X84457537Y-41788985D01*
X85268823Y-42600271D01*
X85271555Y-42600057D01*
X85339933Y-42614420D01*
X85368967Y-42635994D01*
X85370058Y-42637085D01*
X85537065Y-42804092D01*
X85728142Y-42942918D01*
X85804085Y-42981613D01*
X85938578Y-43050141D01*
X85938580Y-43050141D01*
X85938583Y-43050143D01*
X86058987Y-43089264D01*
X86163206Y-43123128D01*
X86396478Y-43160075D01*
X86396483Y-43160075D01*
X86632672Y-43160075D01*
X86865943Y-43123128D01*
X87090567Y-43050143D01*
X87301008Y-42942918D01*
X87492085Y-42804092D01*
X87659092Y-42637085D01*
X87797918Y-42446008D01*
X87905143Y-42235567D01*
X87978128Y-42010943D01*
X87980579Y-41995466D01*
X88015075Y-41777672D01*
X88015075Y-41541477D01*
X87978128Y-41308206D01*
X87905141Y-41083578D01*
X87797917Y-40873141D01*
X87790774Y-40863309D01*
X87659092Y-40682065D01*
X87492085Y-40515058D01*
X87301008Y-40376232D01*
X87270370Y-40360621D01*
X87090571Y-40269008D01*
X86865943Y-40196021D01*
X86632672Y-40159075D01*
X86632667Y-40159075D01*
X86396483Y-40159075D01*
X86396478Y-40159075D01*
X86163206Y-40196021D01*
X85938578Y-40269008D01*
X85728141Y-40376232D01*
X85619125Y-40455437D01*
X85537065Y-40515058D01*
X85537063Y-40515060D01*
X85537061Y-40515061D01*
X85368968Y-40683154D01*
X85307645Y-40716639D01*
X85271558Y-40719091D01*
X85268825Y-40718875D01*
X84457537Y-41530164D01*
X84440500Y-41466582D01*
X84374674Y-41352568D01*
X84281582Y-41259476D01*
X84167568Y-41193650D01*
X84103983Y-41176612D01*
X84915273Y-40365323D01*
X84813158Y-40291132D01*
X84588759Y-40176794D01*
X84349244Y-40098972D01*
X84100503Y-40059575D01*
X83848647Y-40059575D01*
X83599905Y-40098972D01*
X83360390Y-40176794D01*
X83135988Y-40291134D01*
X83033876Y-40365322D01*
X83033875Y-40365323D01*
X83845165Y-41176612D01*
X83781582Y-41193650D01*
X83667568Y-41259476D01*
X83574476Y-41352568D01*
X83508650Y-41466582D01*
X83491612Y-41530165D01*
X82680323Y-40718875D01*
X82677591Y-40719091D01*
X82609213Y-40704727D01*
X82580181Y-40683154D01*
X82412084Y-40515057D01*
X82411127Y-40514362D01*
X82221008Y-40376232D01*
X82190370Y-40360621D01*
X82010571Y-40269008D01*
X81785943Y-40196021D01*
X81552672Y-40159075D01*
X81552667Y-40159075D01*
X81316483Y-40159075D01*
X81316478Y-40159075D01*
X81083205Y-40196022D01*
X81083202Y-40196022D01*
X80929251Y-40246045D01*
X80859410Y-40248040D01*
X80799577Y-40211960D01*
X80768749Y-40149259D01*
X80776714Y-40079845D01*
X80790617Y-40055226D01*
X80803016Y-40038160D01*
X80917355Y-39813759D01*
X80995177Y-39574244D01*
X81034575Y-39325503D01*
X81034575Y-39073646D01*
X80995177Y-38824905D01*
X80917355Y-38585390D01*
X80803017Y-38360991D01*
X80728825Y-38258876D01*
X80728825Y-38258875D01*
X79917537Y-39070165D01*
X79900500Y-39006582D01*
X79834674Y-38892568D01*
X79741582Y-38799476D01*
X79627568Y-38733650D01*
X79563983Y-38716612D01*
X80375273Y-37905323D01*
X80375058Y-37902591D01*
X80389422Y-37834213D01*
X80410995Y-37805181D01*
X80412081Y-37804094D01*
X80412085Y-37804092D01*
X80579092Y-37637085D01*
X80717918Y-37446008D01*
X80778158Y-37327779D01*
X80826133Y-37276984D01*
X80888643Y-37260075D01*
X92613806Y-37260075D01*
X92613822Y-37260076D01*
X92621418Y-37260076D01*
X92779529Y-37260076D01*
X92779532Y-37260076D01*
X92932260Y-37219152D01*
X92945895Y-37211279D01*
X92982566Y-37190108D01*
X92982577Y-37190100D01*
X92982589Y-37190094D01*
X93069191Y-37140095D01*
X93180995Y-37028291D01*
X93180995Y-37028289D01*
X93191199Y-37018086D01*
X93191202Y-37018081D01*
X102662891Y-27546394D01*
X102724214Y-27512909D01*
X102750572Y-27510075D01*
X125103748Y-27510075D01*
X125170787Y-27529760D01*
X125216542Y-27582564D01*
X125222824Y-27599480D01*
X125257829Y-27719968D01*
X125257830Y-27719971D01*
X125345465Y-27868155D01*
X125343740Y-27869174D01*
X125365427Y-27924420D01*
X125351742Y-27992937D01*
X125303187Y-28043178D01*
X125241912Y-28059375D01*
X103632945Y-28059375D01*
X103632929Y-28059374D01*
X103625333Y-28059374D01*
X103467218Y-28059374D01*
X103390854Y-28079836D01*
X103314489Y-28100298D01*
X103314484Y-28100301D01*
X103177565Y-28179350D01*
X103177557Y-28179356D01*
X91454056Y-39902857D01*
X91454055Y-39902859D01*
X91415781Y-39969152D01*
X91392154Y-40010075D01*
X91375585Y-40038774D01*
X91374998Y-40039790D01*
X91334074Y-40192518D01*
X91334074Y-40192520D01*
X91334074Y-40360621D01*
X91334075Y-40360634D01*
X91334075Y-56280506D01*
X91314390Y-56347545D01*
X91266371Y-56390990D01*
X91148143Y-56451230D01*
X91014471Y-56548349D01*
X90957065Y-56590058D01*
X90957063Y-56590060D01*
X90957062Y-56590060D01*
X90790060Y-56757062D01*
X90790060Y-56757063D01*
X90790058Y-56757065D01*
X90760522Y-56797718D01*
X90651232Y-56948141D01*
X90544008Y-57158578D01*
X90471021Y-57383206D01*
X90434075Y-57616477D01*
X90434075Y-57852672D01*
X90471021Y-58085943D01*
X90544008Y-58310571D01*
X90647917Y-58514502D01*
X90651232Y-58521008D01*
X90790058Y-58712085D01*
X90957065Y-58879092D01*
X90991702Y-58904258D01*
X91034367Y-58959588D01*
X91040346Y-59029201D01*
X91007740Y-59090996D01*
X90991705Y-59104890D01*
X90978713Y-59114330D01*
X90957063Y-59130059D01*
X90790060Y-59297062D01*
X90790060Y-59297063D01*
X90790058Y-59297065D01*
X90780606Y-59310075D01*
X90651232Y-59488141D01*
X90544008Y-59698578D01*
X90471021Y-59923206D01*
X90434075Y-60156477D01*
X90434075Y-60392672D01*
X90471021Y-60625943D01*
X90544008Y-60850571D01*
X90651232Y-61061008D01*
X90790058Y-61252085D01*
X90957065Y-61419092D01*
X90991702Y-61444258D01*
X91034367Y-61499588D01*
X91040346Y-61569201D01*
X91007740Y-61630996D01*
X90991705Y-61644890D01*
X90977254Y-61655390D01*
X90957063Y-61670059D01*
X90790060Y-61837062D01*
X90790060Y-61837063D01*
X90790058Y-61837065D01*
X90766510Y-61869476D01*
X90651232Y-62028141D01*
X90544008Y-62238578D01*
X90471021Y-62463206D01*
X90434075Y-62696477D01*
X90434075Y-62799578D01*
X90414390Y-62866617D01*
X90361586Y-62912372D01*
X90292428Y-62922316D01*
X90228872Y-62893291D01*
X90222394Y-62887259D01*
X88820694Y-61485559D01*
X88787209Y-61424236D01*
X88784375Y-61397878D01*
X88784375Y-57957335D01*
X88784376Y-57957322D01*
X88784376Y-57789219D01*
X88783266Y-57785075D01*
X88743452Y-57636491D01*
X88735615Y-57622917D01*
X88664399Y-57499565D01*
X88664393Y-57499557D01*
X77046394Y-45881558D01*
X77012909Y-45820235D01*
X77010075Y-45793877D01*
X77010075Y-36292071D01*
X77029760Y-36225032D01*
X77046389Y-36204395D01*
X79697394Y-33553389D01*
X79758717Y-33519905D01*
X79828409Y-33524889D01*
X79884342Y-33566761D01*
X79908759Y-33632225D01*
X79909075Y-33641071D01*
X79909075Y-33752672D01*
X79946021Y-33985943D01*
X80019008Y-34210571D01*
X80120406Y-34409574D01*
X80126232Y-34421008D01*
X80265058Y-34612085D01*
X80432065Y-34779092D01*
X80623142Y-34917918D01*
X80684291Y-34949075D01*
X80833578Y-35025141D01*
X80833580Y-35025141D01*
X80833583Y-35025143D01*
X80898987Y-35046394D01*
X81058206Y-35098128D01*
X81291478Y-35135075D01*
X81291483Y-35135075D01*
X81527672Y-35135075D01*
X81760943Y-35098128D01*
X81985567Y-35025143D01*
X82196008Y-34917918D01*
X82387085Y-34779092D01*
X82554092Y-34612085D01*
X82579257Y-34577447D01*
X82634586Y-34534782D01*
X82704200Y-34528803D01*
X82765995Y-34561408D01*
X82779890Y-34577445D01*
X82805058Y-34612085D01*
X82972065Y-34779092D01*
X83163142Y-34917918D01*
X83224291Y-34949075D01*
X83373578Y-35025141D01*
X83373580Y-35025141D01*
X83373583Y-35025143D01*
X83438987Y-35046394D01*
X83598206Y-35098128D01*
X83831478Y-35135075D01*
X83831483Y-35135075D01*
X84067672Y-35135075D01*
X84300943Y-35098128D01*
X84525567Y-35025143D01*
X84736008Y-34917918D01*
X84927085Y-34779092D01*
X85094092Y-34612085D01*
X85119257Y-34577447D01*
X85174586Y-34534782D01*
X85244200Y-34528803D01*
X85305995Y-34561408D01*
X85319890Y-34577445D01*
X85345058Y-34612085D01*
X85512065Y-34779092D01*
X85703142Y-34917918D01*
X85764291Y-34949075D01*
X85913578Y-35025141D01*
X85913580Y-35025141D01*
X85913583Y-35025143D01*
X85978987Y-35046394D01*
X86138206Y-35098128D01*
X86371478Y-35135075D01*
X86371483Y-35135075D01*
X86607672Y-35135075D01*
X86840943Y-35098128D01*
X87065567Y-35025143D01*
X87276008Y-34917918D01*
X87467085Y-34779092D01*
X87634092Y-34612085D01*
X87772918Y-34421008D01*
X87880143Y-34210567D01*
X87953128Y-33985943D01*
X87962138Y-33929055D01*
X87990075Y-33752672D01*
X87990075Y-33516477D01*
X87953128Y-33283206D01*
X87905956Y-33138026D01*
X87880143Y-33058583D01*
X87880141Y-33058580D01*
X87880141Y-33058578D01*
X87793935Y-32889390D01*
X87772918Y-32848142D01*
X87634092Y-32657065D01*
X87467085Y-32490058D01*
X87276008Y-32351232D01*
X87065571Y-32244008D01*
X86840943Y-32171021D01*
X86607672Y-32134075D01*
X86607667Y-32134075D01*
X86371483Y-32134075D01*
X86371478Y-32134075D01*
X86138206Y-32171021D01*
X85913578Y-32244008D01*
X85703141Y-32351232D01*
X85631478Y-32403299D01*
X85512065Y-32490058D01*
X85512063Y-32490060D01*
X85512062Y-32490060D01*
X85345059Y-32657063D01*
X85319893Y-32691702D01*
X85264562Y-32734367D01*
X85194949Y-32740346D01*
X85133154Y-32707740D01*
X85119257Y-32691702D01*
X85094092Y-32657065D01*
X84927085Y-32490058D01*
X84736008Y-32351232D01*
X84525571Y-32244008D01*
X84300943Y-32171021D01*
X84067672Y-32134075D01*
X84067667Y-32134075D01*
X83831483Y-32134075D01*
X83831478Y-32134075D01*
X83598206Y-32171021D01*
X83373578Y-32244008D01*
X83163141Y-32351232D01*
X83091478Y-32403299D01*
X82972065Y-32490058D01*
X82972063Y-32490060D01*
X82972062Y-32490060D01*
X82805059Y-32657063D01*
X82779893Y-32691702D01*
X82724562Y-32734367D01*
X82654949Y-32740346D01*
X82593154Y-32707740D01*
X82579257Y-32691702D01*
X82554092Y-32657065D01*
X82387085Y-32490058D01*
X82196008Y-32351232D01*
X81985571Y-32244008D01*
X81760943Y-32171021D01*
X81527672Y-32134075D01*
X81527667Y-32134075D01*
X81416071Y-32134075D01*
X81349032Y-32114390D01*
X81303277Y-32061586D01*
X81293333Y-31992428D01*
X81322358Y-31928872D01*
X81328390Y-31922394D01*
X89036075Y-24214710D01*
X90204391Y-23046394D01*
X90265714Y-23012909D01*
X90292072Y-23010075D01*
X125776255Y-23010075D01*
X125843294Y-23029760D01*
G37*
%TD.AperFunction*%
%TA.AperFunction,Conductor*%
G36*
X130570114Y-30254760D02*
G01*
X130615869Y-30307564D01*
X130627075Y-30359075D01*
X130627075Y-31390947D01*
X130607390Y-31457986D01*
X130603394Y-31463831D01*
X130553700Y-31532229D01*
X130553699Y-31532231D01*
X130450439Y-31734890D01*
X130380156Y-31951198D01*
X130380156Y-31951201D01*
X130344575Y-32175851D01*
X130344575Y-32403298D01*
X130380156Y-32627948D01*
X130380156Y-32627951D01*
X130450439Y-32844259D01*
X130502290Y-32946022D01*
X130553700Y-33046920D01*
X130687391Y-33230929D01*
X130848221Y-33391759D01*
X131032230Y-33525450D01*
X131187917Y-33604776D01*
X131234890Y-33628710D01*
X131451199Y-33698993D01*
X131451200Y-33698993D01*
X131451203Y-33698994D01*
X131675851Y-33734575D01*
X131675852Y-33734575D01*
X131903298Y-33734575D01*
X131903299Y-33734575D01*
X132127947Y-33698994D01*
X132223095Y-33668077D01*
X132292935Y-33666083D01*
X132349092Y-33698327D01*
X133540859Y-34890095D01*
X133540861Y-34890096D01*
X133540865Y-34890099D01*
X133589050Y-34917918D01*
X133677791Y-34969152D01*
X133830518Y-35010076D01*
X133830520Y-35010076D01*
X133996229Y-35010076D01*
X133996245Y-35010075D01*
X146109478Y-35010075D01*
X146176517Y-35029760D01*
X146197159Y-35046394D01*
X148072756Y-36921991D01*
X148106241Y-36983314D01*
X148109075Y-37009672D01*
X148109075Y-46284396D01*
X148089390Y-46351435D01*
X148036586Y-46397190D01*
X147967428Y-46407134D01*
X147912189Y-46384714D01*
X147863106Y-46349053D01*
X147786920Y-46293700D01*
X147750329Y-46275056D01*
X147584259Y-46190439D01*
X147367950Y-46120156D01*
X147171818Y-46089092D01*
X147143299Y-46084575D01*
X146915851Y-46084575D01*
X146862298Y-46093057D01*
X146691201Y-46120156D01*
X146691198Y-46120156D01*
X146474890Y-46190439D01*
X146272229Y-46293700D01*
X146196038Y-46349057D01*
X146088221Y-46427391D01*
X146088219Y-46427393D01*
X146088218Y-46427393D01*
X145927393Y-46588218D01*
X145927388Y-46588224D01*
X145921385Y-46596487D01*
X145866054Y-46639151D01*
X145796440Y-46645129D01*
X145768824Y-46630556D01*
X145744091Y-46628609D01*
X144972537Y-47400164D01*
X144955500Y-47336582D01*
X144889674Y-47222568D01*
X144796582Y-47129476D01*
X144682568Y-47063650D01*
X144618983Y-47046612D01*
X145390539Y-46275057D01*
X145299069Y-46208600D01*
X145082461Y-46098232D01*
X144851246Y-46023106D01*
X144611129Y-45985075D01*
X144368021Y-45985075D01*
X144127903Y-46023106D01*
X143896688Y-46098232D01*
X143680076Y-46208602D01*
X143588610Y-46275056D01*
X143588609Y-46275057D01*
X144360165Y-47046612D01*
X144296582Y-47063650D01*
X144182568Y-47129476D01*
X144089476Y-47222568D01*
X144023650Y-47336582D01*
X144006612Y-47400165D01*
X143235057Y-46628609D01*
X143214649Y-46630216D01*
X143203061Y-46639151D01*
X143133447Y-46645126D01*
X143071654Y-46612516D01*
X143057761Y-46596482D01*
X143051761Y-46588224D01*
X143051756Y-46588218D01*
X142890931Y-46427393D01*
X142890929Y-46427391D01*
X142706920Y-46293700D01*
X142670329Y-46275056D01*
X142504259Y-46190439D01*
X142287950Y-46120156D01*
X142091818Y-46089092D01*
X142063299Y-46084575D01*
X141835851Y-46084575D01*
X141782298Y-46093057D01*
X141611201Y-46120156D01*
X141611198Y-46120156D01*
X141394890Y-46190439D01*
X141192229Y-46293700D01*
X141116038Y-46349057D01*
X141008221Y-46427391D01*
X141008219Y-46427393D01*
X141008218Y-46427393D01*
X140847393Y-46588218D01*
X140847393Y-46588219D01*
X140847391Y-46588221D01*
X140816880Y-46630216D01*
X140779893Y-46681124D01*
X140724563Y-46723789D01*
X140654949Y-46729768D01*
X140593154Y-46697162D01*
X140579257Y-46681124D01*
X140511759Y-46588221D01*
X140350929Y-46427391D01*
X140166920Y-46293700D01*
X140130329Y-46275056D01*
X139964259Y-46190439D01*
X139747950Y-46120156D01*
X139551818Y-46089092D01*
X139523299Y-46084575D01*
X139295851Y-46084575D01*
X139295840Y-46084575D01*
X139295305Y-46084617D01*
X139295105Y-46084575D01*
X139290980Y-46084575D01*
X139290980Y-46083707D01*
X139226930Y-46070243D01*
X139197914Y-46048679D01*
X137987590Y-44838355D01*
X137987588Y-44838352D01*
X137868717Y-44719481D01*
X137868716Y-44719480D01*
X137764960Y-44659577D01*
X137764959Y-44659576D01*
X137731783Y-44640422D01*
X137675881Y-44625443D01*
X137579057Y-44599499D01*
X137420943Y-44599499D01*
X137413347Y-44599499D01*
X137413331Y-44599500D01*
X133990047Y-44599500D01*
X133923008Y-44579815D01*
X133902366Y-44563181D01*
X132958666Y-43619481D01*
X132958658Y-43619475D01*
X132821739Y-43540426D01*
X132821734Y-43540423D01*
X132783551Y-43530192D01*
X132669006Y-43499499D01*
X132669003Y-43499499D01*
X132510891Y-43499500D01*
X128290048Y-43499500D01*
X128223009Y-43479815D01*
X128202367Y-43463181D01*
X121177539Y-36438355D01*
X121177537Y-36438353D01*
X121170469Y-36431285D01*
X121170469Y-36431284D01*
X121058665Y-36319480D01*
X120971853Y-36269360D01*
X120971853Y-36269359D01*
X120971849Y-36269358D01*
X120921734Y-36240423D01*
X120769006Y-36199499D01*
X120610892Y-36199499D01*
X120603296Y-36199499D01*
X120603280Y-36199500D01*
X110720097Y-36199500D01*
X110690656Y-36190855D01*
X110660670Y-36184332D01*
X110655654Y-36180577D01*
X110653058Y-36179815D01*
X110632416Y-36163181D01*
X110590991Y-36121756D01*
X110557506Y-36060433D01*
X110562490Y-35990741D01*
X110604362Y-35934808D01*
X110669826Y-35910391D01*
X110678672Y-35910075D01*
X110687672Y-35910075D01*
X110920943Y-35873128D01*
X110954043Y-35862373D01*
X111145567Y-35800143D01*
X111356008Y-35692918D01*
X111547085Y-35554092D01*
X111714092Y-35387085D01*
X111739257Y-35352447D01*
X111794586Y-35309782D01*
X111864200Y-35303803D01*
X111925995Y-35336408D01*
X111939890Y-35352445D01*
X111965058Y-35387085D01*
X112132065Y-35554092D01*
X112323142Y-35692918D01*
X112384303Y-35724081D01*
X112533578Y-35800141D01*
X112533580Y-35800141D01*
X112533583Y-35800143D01*
X112625867Y-35830128D01*
X112758206Y-35873128D01*
X112991478Y-35910075D01*
X112991483Y-35910075D01*
X113227672Y-35910075D01*
X113460943Y-35873128D01*
X113494043Y-35862373D01*
X113685567Y-35800143D01*
X113896008Y-35692918D01*
X114087085Y-35554092D01*
X114254092Y-35387085D01*
X114279257Y-35352447D01*
X114334586Y-35309782D01*
X114404200Y-35303803D01*
X114465995Y-35336408D01*
X114479890Y-35352445D01*
X114505058Y-35387085D01*
X114672065Y-35554092D01*
X114863142Y-35692918D01*
X114924303Y-35724081D01*
X115073578Y-35800141D01*
X115073580Y-35800141D01*
X115073583Y-35800143D01*
X115165867Y-35830128D01*
X115298206Y-35873128D01*
X115531478Y-35910075D01*
X115531483Y-35910075D01*
X115767672Y-35910075D01*
X116000943Y-35873128D01*
X116034043Y-35862373D01*
X116225567Y-35800143D01*
X116436008Y-35692918D01*
X116627085Y-35554092D01*
X116794092Y-35387085D01*
X116819257Y-35352447D01*
X116874586Y-35309782D01*
X116944200Y-35303803D01*
X117005995Y-35336408D01*
X117019890Y-35352445D01*
X117045058Y-35387085D01*
X117212065Y-35554092D01*
X117403142Y-35692918D01*
X117464303Y-35724081D01*
X117613578Y-35800141D01*
X117613580Y-35800141D01*
X117613583Y-35800143D01*
X117705867Y-35830128D01*
X117838206Y-35873128D01*
X118071478Y-35910075D01*
X118071483Y-35910075D01*
X118307672Y-35910075D01*
X118540943Y-35873128D01*
X118574043Y-35862373D01*
X118765567Y-35800143D01*
X118976008Y-35692918D01*
X119167085Y-35554092D01*
X119334092Y-35387085D01*
X119472918Y-35196008D01*
X119580143Y-34985567D01*
X119653128Y-34760943D01*
X119660154Y-34716582D01*
X119690075Y-34527672D01*
X119690075Y-34291477D01*
X119653128Y-34058206D01*
X119629648Y-33985943D01*
X119580143Y-33833583D01*
X119554699Y-33783646D01*
X125284575Y-33783646D01*
X125284575Y-34035503D01*
X125323972Y-34284244D01*
X125401794Y-34523759D01*
X125516132Y-34748158D01*
X125590323Y-34850272D01*
X125590323Y-34850273D01*
X126401612Y-34038984D01*
X126418650Y-34102568D01*
X126484476Y-34216582D01*
X126577568Y-34309674D01*
X126691582Y-34375500D01*
X126755165Y-34392537D01*
X125943875Y-35203825D01*
X125944091Y-35206558D01*
X125929727Y-35274936D01*
X125908154Y-35303968D01*
X125740061Y-35472061D01*
X125740060Y-35472063D01*
X125740058Y-35472065D01*
X125708822Y-35515058D01*
X125601232Y-35663141D01*
X125494008Y-35873578D01*
X125421021Y-36098206D01*
X125384075Y-36331477D01*
X125384075Y-36567672D01*
X125421021Y-36800943D01*
X125494008Y-37025571D01*
X125577845Y-37190108D01*
X125601232Y-37236008D01*
X125740058Y-37427085D01*
X125907065Y-37594092D01*
X126098142Y-37732918D01*
X126197566Y-37783577D01*
X126308578Y-37840141D01*
X126308580Y-37840141D01*
X126308583Y-37840143D01*
X126428987Y-37879264D01*
X126533206Y-37913128D01*
X126766478Y-37950075D01*
X126766483Y-37950075D01*
X127002672Y-37950075D01*
X127235943Y-37913128D01*
X127268372Y-37902591D01*
X127460567Y-37840143D01*
X127671008Y-37732918D01*
X127862085Y-37594092D01*
X128029092Y-37427085D01*
X128167918Y-37236008D01*
X128275143Y-37025567D01*
X128348128Y-36800943D01*
X128352834Y-36771228D01*
X128385075Y-36567672D01*
X128385075Y-36331477D01*
X128348128Y-36098206D01*
X128287924Y-35912918D01*
X128275143Y-35873583D01*
X128275141Y-35873580D01*
X128275141Y-35873578D01*
X128188647Y-35703825D01*
X128167918Y-35663142D01*
X128029092Y-35472065D01*
X127862085Y-35305058D01*
X127860994Y-35303967D01*
X127827509Y-35242644D01*
X127825057Y-35206555D01*
X127825271Y-35203824D01*
X127013984Y-34392537D01*
X127077568Y-34375500D01*
X127191582Y-34309674D01*
X127284674Y-34216582D01*
X127350500Y-34102568D01*
X127367537Y-34038985D01*
X128178825Y-34850273D01*
X128178825Y-34850272D01*
X128253017Y-34748156D01*
X128253021Y-34748150D01*
X128367355Y-34523759D01*
X128445177Y-34284244D01*
X128484575Y-34035503D01*
X128484575Y-33783646D01*
X128445177Y-33534905D01*
X128367355Y-33295390D01*
X128253017Y-33070991D01*
X128178825Y-32968876D01*
X128178825Y-32968875D01*
X127367537Y-33780164D01*
X127350500Y-33716582D01*
X127284674Y-33602568D01*
X127191582Y-33509476D01*
X127077568Y-33443650D01*
X127013983Y-33426612D01*
X127825273Y-32615323D01*
X127723158Y-32541132D01*
X127498759Y-32426794D01*
X127259244Y-32348972D01*
X127010503Y-32309575D01*
X126758647Y-32309575D01*
X126509905Y-32348972D01*
X126270390Y-32426794D01*
X126045988Y-32541134D01*
X125943876Y-32615322D01*
X125943875Y-32615323D01*
X126755165Y-33426612D01*
X126691582Y-33443650D01*
X126577568Y-33509476D01*
X126484476Y-33602568D01*
X126418650Y-33716582D01*
X126401612Y-33780165D01*
X125590323Y-32968875D01*
X125590322Y-32968876D01*
X125516134Y-33070988D01*
X125401794Y-33295390D01*
X125323972Y-33534905D01*
X125284575Y-33783646D01*
X119554699Y-33783646D01*
X119472918Y-33623142D01*
X119334092Y-33432065D01*
X119167085Y-33265058D01*
X118976008Y-33126232D01*
X118954598Y-33115323D01*
X118765571Y-33019008D01*
X118540943Y-32946021D01*
X118307672Y-32909075D01*
X118307667Y-32909075D01*
X118071483Y-32909075D01*
X118071478Y-32909075D01*
X117838206Y-32946021D01*
X117613578Y-33019008D01*
X117403141Y-33126232D01*
X117294125Y-33205437D01*
X117212065Y-33265058D01*
X117212063Y-33265060D01*
X117212062Y-33265060D01*
X117045059Y-33432063D01*
X117036641Y-33443650D01*
X117019939Y-33466639D01*
X117019893Y-33466702D01*
X116964562Y-33509367D01*
X116894949Y-33515346D01*
X116833154Y-33482740D01*
X116819257Y-33466702D01*
X116794092Y-33432065D01*
X116627085Y-33265058D01*
X116436008Y-33126232D01*
X116414598Y-33115323D01*
X116225571Y-33019008D01*
X116000943Y-32946021D01*
X115767672Y-32909075D01*
X115767667Y-32909075D01*
X115758672Y-32909075D01*
X115737426Y-32902836D01*
X115715338Y-32901257D01*
X115704554Y-32893184D01*
X115691633Y-32889390D01*
X115677133Y-32872656D01*
X115659405Y-32859385D01*
X115654697Y-32846764D01*
X115645878Y-32836586D01*
X115642726Y-32814668D01*
X115634988Y-32793921D01*
X115637850Y-32780760D01*
X115635934Y-32767428D01*
X115645133Y-32747284D01*
X115649840Y-32725648D01*
X115663108Y-32707922D01*
X115664959Y-32703872D01*
X115670991Y-32697394D01*
X115793483Y-32574902D01*
X116836155Y-31532231D01*
X118096992Y-30271394D01*
X118158315Y-30237909D01*
X118184673Y-30235075D01*
X130503075Y-30235075D01*
X130570114Y-30254760D01*
G37*
%TD.AperFunction*%
%TA.AperFunction,Conductor*%
G36*
X117177216Y-29280060D02*
G01*
X117222971Y-29332864D01*
X117232915Y-29402022D01*
X117203890Y-29465578D01*
X117197858Y-29472056D01*
X113713138Y-32956775D01*
X113651815Y-32990260D01*
X113587139Y-32987025D01*
X113460945Y-32946022D01*
X113227672Y-32909075D01*
X113227667Y-32909075D01*
X112991483Y-32909075D01*
X112991478Y-32909075D01*
X112758206Y-32946021D01*
X112533578Y-33019008D01*
X112323141Y-33126232D01*
X112214125Y-33205437D01*
X112132065Y-33265058D01*
X112132063Y-33265060D01*
X112132062Y-33265060D01*
X111965059Y-33432063D01*
X111956641Y-33443650D01*
X111939939Y-33466639D01*
X111939893Y-33466702D01*
X111884562Y-33509367D01*
X111814949Y-33515346D01*
X111753154Y-33482740D01*
X111739257Y-33466702D01*
X111714092Y-33432065D01*
X111547085Y-33265058D01*
X111356008Y-33126232D01*
X111334598Y-33115323D01*
X111145571Y-33019008D01*
X110920943Y-32946021D01*
X110687672Y-32909075D01*
X110687667Y-32909075D01*
X110451483Y-32909075D01*
X110451478Y-32909075D01*
X110218206Y-32946021D01*
X109993578Y-33019008D01*
X109783141Y-33126232D01*
X109674125Y-33205437D01*
X109592065Y-33265058D01*
X109592063Y-33265060D01*
X109592062Y-33265060D01*
X109425059Y-33432063D01*
X109416641Y-33443650D01*
X109399939Y-33466639D01*
X109399893Y-33466702D01*
X109344562Y-33509367D01*
X109274949Y-33515346D01*
X109213154Y-33482740D01*
X109199257Y-33466702D01*
X109174092Y-33432065D01*
X109007085Y-33265058D01*
X108816008Y-33126232D01*
X108794598Y-33115323D01*
X108605571Y-33019008D01*
X108380943Y-32946021D01*
X108147672Y-32909075D01*
X108147667Y-32909075D01*
X107911483Y-32909075D01*
X107911478Y-32909075D01*
X107678206Y-32946021D01*
X107453578Y-33019008D01*
X107243141Y-33126232D01*
X107134125Y-33205437D01*
X107052065Y-33265058D01*
X107052063Y-33265060D01*
X107052062Y-33265060D01*
X106885059Y-33432063D01*
X106876641Y-33443650D01*
X106859939Y-33466639D01*
X106859893Y-33466702D01*
X106804562Y-33509367D01*
X106734949Y-33515346D01*
X106673154Y-33482740D01*
X106659257Y-33466702D01*
X106634092Y-33432065D01*
X106467085Y-33265058D01*
X106276008Y-33126232D01*
X106254598Y-33115323D01*
X106065571Y-33019008D01*
X105840943Y-32946021D01*
X105607672Y-32909075D01*
X105607667Y-32909075D01*
X105371483Y-32909075D01*
X105371478Y-32909075D01*
X105138206Y-32946021D01*
X104913578Y-33019008D01*
X104703141Y-33126232D01*
X104594125Y-33205437D01*
X104512065Y-33265058D01*
X104512063Y-33265060D01*
X104512062Y-33265060D01*
X104345059Y-33432063D01*
X104336641Y-33443650D01*
X104319939Y-33466639D01*
X104319893Y-33466702D01*
X104264562Y-33509367D01*
X104194949Y-33515346D01*
X104133154Y-33482740D01*
X104119257Y-33466702D01*
X104094092Y-33432065D01*
X103927085Y-33265058D01*
X103736008Y-33126232D01*
X103714598Y-33115323D01*
X103525571Y-33019008D01*
X103300943Y-32946021D01*
X103067672Y-32909075D01*
X103067667Y-32909075D01*
X102831483Y-32909075D01*
X102831478Y-32909075D01*
X102598206Y-32946021D01*
X102373578Y-33019008D01*
X102163141Y-33126232D01*
X102054125Y-33205437D01*
X101972065Y-33265058D01*
X101972063Y-33265060D01*
X101972061Y-33265061D01*
X101803968Y-33433154D01*
X101742645Y-33466639D01*
X101706558Y-33469091D01*
X101703825Y-33468875D01*
X100892537Y-34280164D01*
X100875500Y-34216582D01*
X100809674Y-34102568D01*
X100716582Y-34009476D01*
X100602568Y-33943650D01*
X100538983Y-33926612D01*
X101350273Y-33115323D01*
X101248158Y-33041132D01*
X101023759Y-32926794D01*
X100784244Y-32848972D01*
X100535502Y-32809574D01*
X100535097Y-32809543D01*
X100534951Y-32809487D01*
X100530686Y-32808812D01*
X100530827Y-32807916D01*
X100469808Y-32784662D01*
X100428334Y-32728432D01*
X100423845Y-32658707D01*
X100457137Y-32598247D01*
X103758692Y-29296694D01*
X103820015Y-29263209D01*
X103846373Y-29260375D01*
X117110177Y-29260375D01*
X117177216Y-29280060D01*
G37*
%TD.AperFunction*%
%TA.AperFunction,Conductor*%
G36*
X138142817Y-23029760D02*
G01*
X138163459Y-23046394D01*
X144743459Y-29626394D01*
X144776944Y-29687717D01*
X144771960Y-29757409D01*
X144730088Y-29813342D01*
X144664624Y-29837759D01*
X144655778Y-29838075D01*
X144124572Y-29838075D01*
X144057533Y-29818390D01*
X144036891Y-29801756D01*
X142533365Y-28298230D01*
X142533363Y-28298227D01*
X142414492Y-28179356D01*
X142414491Y-28179355D01*
X142327679Y-28129235D01*
X142327679Y-28129234D01*
X142327675Y-28129233D01*
X142277560Y-28100298D01*
X142124832Y-28059374D01*
X141966718Y-28059374D01*
X141959122Y-28059374D01*
X141959106Y-28059375D01*
X127577238Y-28059375D01*
X127510199Y-28039690D01*
X127464444Y-27986886D01*
X127454500Y-27917728D01*
X127475160Y-27869027D01*
X127473685Y-27868155D01*
X127487601Y-27844623D01*
X127561319Y-27719973D01*
X127607173Y-27562144D01*
X127610075Y-27525269D01*
X127610075Y-26293881D01*
X127607173Y-26257006D01*
X127561319Y-26099177D01*
X127477656Y-25957710D01*
X127477654Y-25957708D01*
X127477651Y-25957704D01*
X127361445Y-25841498D01*
X127361437Y-25841492D01*
X127219971Y-25757830D01*
X127219969Y-25757829D01*
X127138422Y-25734137D01*
X127079537Y-25696530D01*
X127050331Y-25633057D01*
X127060077Y-25563871D01*
X127100132Y-25514743D01*
X127135496Y-25489048D01*
X126456022Y-24809575D01*
X126462236Y-24809575D01*
X126563969Y-24782316D01*
X126655181Y-24729655D01*
X126729655Y-24655181D01*
X126782316Y-24563969D01*
X126809575Y-24462236D01*
X126809575Y-24456022D01*
X127489049Y-25135496D01*
X127521434Y-25090924D01*
X127614330Y-24908606D01*
X127677565Y-24713992D01*
X127709575Y-24511892D01*
X127709575Y-24307257D01*
X127677565Y-24105157D01*
X127614330Y-23910543D01*
X127521434Y-23728225D01*
X127489049Y-23683652D01*
X127489049Y-23683651D01*
X126809575Y-24363126D01*
X126809575Y-24356914D01*
X126782316Y-24255181D01*
X126729655Y-24163969D01*
X126655181Y-24089495D01*
X126563969Y-24036834D01*
X126462236Y-24009575D01*
X126456021Y-24009575D01*
X127135497Y-23330099D01*
X127135496Y-23330098D01*
X127090934Y-23297722D01*
X127090925Y-23297716D01*
X126986600Y-23244560D01*
X126935804Y-23196586D01*
X126919009Y-23128765D01*
X126941546Y-23062630D01*
X126996261Y-23019178D01*
X127042895Y-23010075D01*
X138075778Y-23010075D01*
X138142817Y-23029760D01*
G37*
%TD.AperFunction*%
%TD*%
M02*
