%TF.GenerationSoftware,KiCad,Pcbnew,10.0.3-2.fc44*%
%TF.CreationDate,2026-06-16T12:57:39-04:00*%
%TF.ProjectId,SupaClock_Carrier,53757061-436c-46f6-936b-5f4361727269,v1.0*%
%TF.SameCoordinates,Original*%
%TF.FileFunction,Copper,L1,Top*%
%TF.FilePolarity,Positive*%
%FSLAX46Y46*%
G04 Gerber Fmt 4.6, Leading zero omitted, Abs format (unit mm)*
G04 Created by KiCad (PCBNEW 10.0.3-2.fc44) date 2026-06-16 12:57:39*
%MOMM*%
%LPD*%
G01*
G04 APERTURE LIST*
G04 Aperture macros list*
%AMRoundRect*
0 Rectangle with rounded corners*
0 $1 Rounding radius*
0 $2 $3 $4 $5 $6 $7 $8 $9 X,Y pos of 4 corners*
0 Add a 4 corners polygon primitive as box body*
4,1,4,$2,$3,$4,$5,$6,$7,$8,$9,$2,$3,0*
0 Add four circle primitives for the rounded corners*
1,1,$1+$1,$2,$3*
1,1,$1+$1,$4,$5*
1,1,$1+$1,$6,$7*
1,1,$1+$1,$8,$9*
0 Add four rect primitives between the rounded corners*
20,1,$1+$1,$2,$3,$4,$5,0*
20,1,$1+$1,$4,$5,$6,$7,0*
20,1,$1+$1,$6,$7,$8,$9,0*
20,1,$1+$1,$8,$9,$2,$3,0*%
G04 Aperture macros list end*
%TA.AperFunction,ComponentPad*%
%ADD10C,2.200000*%
%TD*%
%TA.AperFunction,ComponentPad*%
%ADD11C,1.600000*%
%TD*%
%TA.AperFunction,SMDPad,CuDef*%
%ADD12R,1.300000X1.450000*%
%TD*%
%TA.AperFunction,ComponentPad*%
%ADD13C,6.000000*%
%TD*%
%TA.AperFunction,ComponentPad*%
%ADD14RoundRect,0.250000X-0.550000X-0.550000X0.550000X-0.550000X0.550000X0.550000X-0.550000X0.550000X0*%
%TD*%
%TA.AperFunction,SMDPad,CuDef*%
%ADD15RoundRect,0.152400X0.609600X-1.063600X0.609600X1.063600X-0.609600X1.063600X-0.609600X-1.063600X0*%
%TD*%
%TA.AperFunction,ComponentPad*%
%ADD16C,2.089000*%
%TD*%
%TA.AperFunction,SMDPad,CuDef*%
%ADD17RoundRect,0.152400X-0.609600X1.063600X-0.609600X-1.063600X0.609600X-1.063600X0.609600X1.063600X0*%
%TD*%
%TA.AperFunction,ViaPad*%
%ADD18C,1.800000*%
%TD*%
%TA.AperFunction,Conductor*%
%ADD19C,0.600000*%
%TD*%
%TA.AperFunction,Conductor*%
%ADD20C,0.400000*%
%TD*%
G04 APERTURE END LIST*
D10*
%TO.P,J11,1,Pin_1_1*%
%TO.N,/GND*%
X91934575Y-70434575D03*
%TO.P,J11,2,Pin_2_2*%
%TO.N,/+3V3*%
X91934575Y-67894575D03*
%TO.P,J11,3,Pin_3_3*%
%TO.N,/ECG_OUT*%
X91934575Y-65354575D03*
%TO.P,J11,4,Pin_4_4*%
%TO.N,unconnected-(J11-Pin_4-Pad4)*%
X91934575Y-62814575D03*
%TO.P,J11,5,Pin_5_5*%
%TO.N,unconnected-(J11-Pin_5-Pad5)*%
X91934575Y-60274575D03*
%TO.P,J11,6,Pin_6_6*%
%TO.N,/ECG_SDN*%
X91934575Y-57734575D03*
%TD*%
D11*
%TO.P,C6,1*%
%TO.N,/SPI_RES*%
X102409575Y-39409575D03*
%TO.P,C6,2*%
%TO.N,/GND*%
X97409575Y-39409575D03*
%TD*%
%TO.P,R5,1*%
%TO.N,/+3V3*%
X116409575Y-39409575D03*
%TO.P,R5,2*%
%TO.N,/SPI_RES*%
X108789575Y-39409575D03*
%TD*%
D10*
%TO.P,J13,1,Pin_1_1*%
%TO.N,/ECG_RA*%
X77934575Y-80434575D03*
%TO.P,J13,2,Pin_2_2*%
%TO.N,/ECG_LA*%
X75394575Y-80434575D03*
%TO.P,J13,3,Pin_3_3*%
%TO.N,/ECG_RL*%
X72854575Y-80434575D03*
%TD*%
D12*
%TO.P,SW1,1,1_1*%
%TO.N,/BTN_SELECT*%
X144909575Y-75909575D03*
X144909575Y-69159575D03*
%TO.P,SW1,2,2_2*%
%TO.N,/GND*%
X148009575Y-75909575D03*
X148009575Y-69159575D03*
%TD*%
D10*
%TO.P,J5,1,Pin_1_1*%
%TO.N,/+3V3*%
X128384575Y-77509575D03*
%TO.P,J5,2,Pin_2_2*%
%TO.N,unconnected-(J5-Pin_2-Pad2)*%
X128384575Y-74969575D03*
%TO.P,J5,3,Pin_3_3*%
%TO.N,/GND*%
X128384575Y-72429575D03*
%TO.P,J5,4,Pin_4_4*%
%TO.N,/I2C_SCL*%
X128384575Y-69889575D03*
%TO.P,J5,5,Pin_5_5*%
%TO.N,/I2C_SDA*%
X128384575Y-67349575D03*
%TO.P,J5,6,Pin_6_6*%
%TO.N,/+3V3*%
X128384575Y-64809575D03*
%TO.P,J5,7,Pin_7_7*%
%TO.N,/GND*%
X128384575Y-62269575D03*
%TD*%
%TO.P,J6a1,1,Pin_1_1*%
%TO.N,unconnected-(J6a1-Pin_1-Pad1)*%
X81434575Y-41659575D03*
%TO.P,J6a1,2,Pin_2_2*%
%TO.N,/GND*%
X83974575Y-41659575D03*
%TO.P,J6a1,3,Pin_3_3*%
%TO.N,unconnected-(J6a1-Pin_3-Pad3)*%
X86514575Y-41659575D03*
%TD*%
D13*
%TO.P,J12_RA1,1,Pin_1_1*%
%TO.N,/ECG_RA*%
X107500000Y-84000000D03*
%TD*%
D10*
%TO.P,J6b1,1,Pin_1_1*%
%TO.N,/I2C_SDA*%
X81409575Y-33634575D03*
%TO.P,J6b1,2,Pin_2_2*%
%TO.N,/I2C_SCL*%
X83949575Y-33634575D03*
%TO.P,J6b1,3,Pin_3_3*%
%TO.N,unconnected-(J6b1-Pin_3-Pad3)*%
X86489575Y-33634575D03*
%TD*%
D14*
%TO.P,C2,1*%
%TO.N,/+BATT*%
X126532000Y-24892000D03*
D11*
%TO.P,C2,2*%
%TO.N,/GND*%
X129032000Y-24892000D03*
%TD*%
D10*
%TO.P,J7,1,Pin_1_1*%
%TO.N,/BLK_PWM*%
X118189575Y-34409575D03*
%TO.P,J7,2,Pin_2_2*%
%TO.N,/SPI_CS*%
X115649575Y-34409575D03*
%TO.P,J7,3,Pin_3_3*%
%TO.N,/SPI_DC*%
X113109575Y-34409575D03*
%TO.P,J7,4,Pin_4_4*%
%TO.N,/SPI_RES*%
X110569575Y-34409575D03*
%TO.P,J7,5,Pin_5_5*%
%TO.N,/SPI_MOSI*%
X108029575Y-34409575D03*
%TO.P,J7,6,Pin_6_6*%
%TO.N,/SPI_SCK*%
X105489575Y-34409575D03*
%TO.P,J7,7,Pin_7_7*%
%TO.N,/+3V3*%
X102949575Y-34409575D03*
%TO.P,J7,8,Pin_8_8*%
%TO.N,/GND*%
X100409575Y-34409575D03*
%TD*%
%TO.P,J15,1,Pin_1_1*%
%TO.N,/+BATT*%
X126884575Y-36449575D03*
%TO.P,J15,2,Pin_2_2*%
%TO.N,/GND*%
X126884575Y-33909575D03*
%TD*%
D11*
%TO.P,C3,1*%
%TO.N,/+3V3*%
X140409575Y-52909575D03*
%TO.P,C3,2*%
%TO.N,/GND*%
X140409575Y-57909575D03*
%TD*%
D13*
%TO.P,J12_LA1,1,Pin_1_1*%
%TO.N,/ECG_LA*%
X129909575Y-55909575D03*
%TD*%
%TO.P,J12_RL1,1,Pin_1_1*%
%TO.N,/ECG_RL*%
X76500000Y-56500000D03*
%TD*%
D12*
%TO.P,SW2,1,1_1*%
%TO.N,/BTN_NEXT*%
X144809575Y-63409575D03*
X144809575Y-56659575D03*
%TO.P,SW2,2,2_2*%
%TO.N,/GND*%
X147909575Y-63409575D03*
X147909575Y-56659575D03*
%TD*%
D15*
%TO.P,U1,1,GPIO1_A0_D0_1*%
%TO.N,/ECG_OUT*%
X147029575Y-31454575D03*
D16*
X147029575Y-32289575D03*
D15*
%TO.P,U1,2,GPIO2_A1_D1_2*%
%TO.N,/ECG_SDN*%
X144489575Y-31454575D03*
D16*
X144489575Y-32289575D03*
D15*
%TO.P,U1,3,GPIO3_A2_D2_3*%
%TO.N,/BLK_PWM*%
X141949575Y-31454575D03*
D16*
X141949575Y-32289575D03*
D15*
%TO.P,U1,4,GPIO4_A3_D3_4*%
%TO.N,/SPI_DC*%
X139409575Y-31454575D03*
D16*
X139409575Y-32289575D03*
D15*
%TO.P,U1,5,GPIO5_A4_D4_SDA_5*%
%TO.N,/I2C_SDA*%
X136869575Y-31454575D03*
D16*
X136869575Y-32289575D03*
D15*
%TO.P,U1,6,GPIO6_A5_D5_SCL_6*%
%TO.N,/I2C_SCL*%
X134329575Y-31454575D03*
D16*
X134329575Y-32289575D03*
D15*
%TO.P,U1,7,GPIO43_D6_TX_7*%
%TO.N,/BTN_NEXT*%
X131789575Y-31454575D03*
D16*
X131789575Y-32289575D03*
%TO.P,U1,8,GPIO44_D7_RX_8*%
%TO.N,/SPI_CS*%
X131789575Y-47529575D03*
D17*
X131789575Y-48364575D03*
D16*
%TO.P,U1,9,GPIO7_A8_D8_SCK_9*%
%TO.N,/SPI_SCK*%
X134329575Y-47529575D03*
D17*
X134329575Y-48364575D03*
D16*
%TO.P,U1,10,GPIO8_A9_D9_MISO_10*%
%TO.N,/BTN_SELECT*%
X136869575Y-47529575D03*
D17*
X136869575Y-48364575D03*
D16*
%TO.P,U1,11,GPIO9_A10_D10_MOSI_11*%
%TO.N,/SPI_MOSI*%
X139409575Y-47529575D03*
D17*
X139409575Y-48364575D03*
D16*
%TO.P,U1,12,3V3_12*%
%TO.N,/+3V3*%
X141949575Y-47529575D03*
D17*
X141949575Y-48364575D03*
D16*
%TO.P,U1,13,GND_13*%
%TO.N,/GND*%
X144489575Y-47529575D03*
D17*
X144489575Y-48364575D03*
D16*
%TO.P,U1,14,VBUS_14*%
%TO.N,unconnected-(U1-VBUS-Pad14)_1*%
X147029575Y-47529575D03*
D17*
%TO.N,unconnected-(U1-VBUS-Pad14)*%
X147029575Y-48364575D03*
%TD*%
D10*
%TO.P,J6c1,1,Pin_1_1*%
%TO.N,/+BATT*%
X79434575Y-36659575D03*
%TO.P,J6c1,2,Pin_2_2*%
%TO.N,/GND*%
X79434575Y-39199575D03*
%TD*%
D18*
%TO.N,/I2C_SDA*%
X113219575Y-62992000D03*
%TO.N,/GND*%
X122580400Y-51816000D03*
X109728000Y-30835600D03*
X141700000Y-22850000D03*
%TO.N,/BTN_SELECT*%
X134909575Y-52909575D03*
%TO.N,/SPI_CS*%
X122600000Y-42300000D03*
%TD*%
%TO.N,/+3V3*%
D19*
X91934575Y-67894575D02*
X97205425Y-67894575D01*
X97205425Y-67894575D02*
X105156000Y-59944000D01*
X105156000Y-59944000D02*
X116840000Y-59944000D01*
X122936000Y-61976000D02*
X125769575Y-64809575D01*
X116840000Y-59944000D02*
X118872000Y-61976000D01*
X118872000Y-61976000D02*
X122936000Y-61976000D01*
X125769575Y-64809575D02*
X128384575Y-64809575D01*
%TO.N,/I2C_SDA*%
D20*
X113219575Y-62992000D02*
X117577150Y-67349575D01*
X117577150Y-67349575D02*
X128384575Y-67349575D01*
%TO.N,/GND*%
X144489575Y-48364575D02*
X144489575Y-47529575D01*
X140486275Y-57986275D02*
X140409575Y-57909575D01*
X128384575Y-72429575D02*
X128214150Y-72600000D01*
X148009575Y-63509575D02*
X147909575Y-63409575D01*
%TO.N,/+3V3*%
D19*
X140409575Y-52909575D02*
X141949575Y-51369575D01*
X102949575Y-35734425D02*
X102438200Y-36245800D01*
X141949575Y-51369575D02*
X141949575Y-48364575D01*
D20*
X141949575Y-48364575D02*
X141949575Y-47529575D01*
D19*
X99822000Y-38862000D02*
X99822000Y-60007150D01*
D20*
X141949575Y-46949575D02*
X141949575Y-47529575D01*
D19*
X102438200Y-36245800D02*
X99822000Y-38862000D01*
X102949575Y-34409575D02*
X102949575Y-35734425D01*
X99822000Y-60007150D02*
X91934575Y-67894575D01*
%TO.N,/ECG_OUT*%
D20*
X88183875Y-57868275D02*
X88183875Y-63703875D01*
X88183875Y-63703875D02*
X89834575Y-65354575D01*
X76409575Y-46093975D02*
X88183875Y-57868275D01*
X147029575Y-30439474D02*
X140100000Y-23509899D01*
X138409575Y-22409575D02*
X89991975Y-22409575D01*
X89834575Y-65354575D02*
X91934575Y-65354575D01*
X76409575Y-35991975D02*
X76409575Y-46093975D01*
X147029575Y-32289575D02*
X147029575Y-31454575D01*
X140100000Y-23509899D02*
X139509899Y-23509899D01*
X147029575Y-31454575D02*
X147029575Y-30439474D01*
X89991975Y-22409575D02*
X76409575Y-35991975D01*
X139509899Y-23509899D02*
X138409575Y-22409575D01*
%TO.N,/ECG_SDN*%
X102868000Y-27432000D02*
X91934575Y-38365425D01*
X144489575Y-31454575D02*
X144489575Y-30129575D01*
X144489575Y-32289575D02*
X144489575Y-31454575D01*
X91934575Y-38365425D02*
X91934575Y-57734575D01*
X141792000Y-27432000D02*
X102868000Y-27432000D01*
X144489575Y-30129575D02*
X141792000Y-27432000D01*
%TO.N,/SPI_RES*%
X102409575Y-39409575D02*
X108789575Y-39409575D01*
%TO.N,/ECG_RA*%
X81500000Y-84000000D02*
X107500000Y-84000000D01*
X77934575Y-80434575D02*
X81500000Y-84000000D01*
%TO.N,/ECG_LA*%
X126409575Y-81909575D02*
X129409575Y-81909575D01*
X75394575Y-80434575D02*
X75394575Y-79435425D01*
X77180000Y-77650000D02*
X122150000Y-77650000D01*
X129409575Y-81909575D02*
X131909575Y-79409575D01*
X75394575Y-79435425D02*
X77180000Y-77650000D01*
X131909575Y-79409575D02*
X131909575Y-56909575D01*
X131909575Y-56909575D02*
X129909575Y-54909575D01*
X122150000Y-77650000D02*
X126409575Y-81909575D01*
%TO.N,/ECG_RL*%
X72854575Y-80532975D02*
X72854575Y-80434575D01*
X72854575Y-80434575D02*
X72854575Y-60145425D01*
X72854575Y-60145425D02*
X76500000Y-56500000D01*
%TO.N,/BTN_SELECT*%
X144909575Y-69159575D02*
X144909575Y-75909575D01*
X136869575Y-48364575D02*
X136869575Y-47529575D01*
X143657875Y-69159575D02*
X144909575Y-69159575D01*
X135409575Y-60911275D02*
X143657875Y-69159575D01*
X134909575Y-52909575D02*
X134909575Y-53869575D01*
X135409575Y-54369575D02*
X135409575Y-60911275D01*
X134909575Y-53869575D02*
X135409575Y-54369575D01*
%TO.N,/I2C_SCL*%
X134329575Y-32289575D02*
X134329575Y-31454575D01*
%TO.N,/I2C_SDA*%
X136869575Y-32289575D02*
X136869575Y-31454575D01*
%TO.N,/+BATT*%
D19*
X101092000Y-24892000D02*
X126532000Y-24892000D01*
X89324425Y-36659575D02*
X101092000Y-24892000D01*
X79434575Y-36659575D02*
X89324425Y-36659575D01*
%TO.N,/BLK_PWM*%
D20*
X141949575Y-32289575D02*
X141949575Y-31454575D01*
%TO.N,/SPI_CS*%
X131758000Y-47498000D02*
X127278000Y-47498000D01*
X131789575Y-47529575D02*
X131758000Y-47498000D01*
X131789575Y-48364575D02*
X131789575Y-47529575D01*
X127278000Y-47498000D02*
X122600000Y-42820000D01*
X122600000Y-42820000D02*
X122600000Y-42300000D01*
%TO.N,/SPI_DC*%
X138734000Y-29464000D02*
X139409575Y-30139575D01*
X113109575Y-34409575D02*
X113109575Y-32305425D01*
X113109575Y-32305425D02*
X115951000Y-29464000D01*
X139409575Y-32289575D02*
X139409575Y-31454575D01*
X139409575Y-30139575D02*
X139409575Y-31454575D01*
X115951000Y-29464000D02*
X138734000Y-29464000D01*
%TO.N,/SPI_MOSI*%
X108029575Y-35791975D02*
X108029575Y-34409575D01*
X133589149Y-43597600D02*
X129754400Y-43597600D01*
X139409575Y-46648775D02*
X137515600Y-44754800D01*
X129754400Y-43597600D02*
X122766800Y-36610000D01*
X134746349Y-44754800D02*
X133589149Y-43597600D01*
X139409575Y-47529575D02*
X139409575Y-46648775D01*
X108847600Y-36610000D02*
X108029575Y-35791975D01*
X139409575Y-48364575D02*
X139409575Y-47529575D01*
X137515600Y-44754800D02*
X134746349Y-44754800D01*
X122766800Y-36610000D02*
X108847600Y-36610000D01*
%TO.N,/SPI_SCK*%
X134329575Y-45327975D02*
X133299200Y-44297600D01*
X105489575Y-35259575D02*
X105489575Y-34409575D01*
X134329575Y-47529575D02*
X134329575Y-45327975D01*
X107730000Y-37500000D02*
X105489575Y-35259575D01*
X122285200Y-37500000D02*
X107730000Y-37500000D01*
X133299200Y-44297600D02*
X129082800Y-44297600D01*
X134329575Y-47529575D02*
X134129575Y-47529575D01*
X129082800Y-44297600D02*
X122285200Y-37500000D01*
%TO.N,/BTN_NEXT*%
X137409575Y-57409575D02*
X137409575Y-58909575D01*
X139409575Y-55409575D02*
X137409575Y-57409575D01*
X142307875Y-55409575D02*
X139409575Y-55409575D01*
X137409575Y-58909575D02*
X141909575Y-63409575D01*
X131789575Y-34558375D02*
X134975600Y-37744400D01*
X131789575Y-32289575D02*
X131789575Y-34558375D01*
X148674075Y-52795075D02*
X144809575Y-56659575D01*
X148674075Y-52795075D02*
X148484575Y-52984575D01*
X143789400Y-37744400D02*
X148709575Y-42664575D01*
X148709575Y-52759575D02*
X148674075Y-52795075D01*
X131789575Y-32289575D02*
X131789575Y-31454575D01*
X134975600Y-37744400D02*
X143789400Y-37744400D01*
X143557875Y-56659575D02*
X142307875Y-55409575D01*
X148709575Y-42664575D02*
X148709575Y-52759575D01*
X141909575Y-63409575D02*
X144809575Y-63409575D01*
X144809575Y-56659575D02*
X143557875Y-56659575D01*
%TD*%
%TA.AperFunction,Conductor*%
%TO.N,/GND*%
G36*
X148852114Y-21429760D02*
G01*
X148897869Y-21482564D01*
X148909075Y-21534075D01*
X148909075Y-41715478D01*
X148889390Y-41782517D01*
X148836586Y-41828272D01*
X148767428Y-41838216D01*
X148703872Y-41809191D01*
X148697394Y-41803159D01*
X144276990Y-37382755D01*
X144276988Y-37382752D01*
X144158117Y-37263881D01*
X144158116Y-37263880D01*
X144065658Y-37210500D01*
X144065657Y-37210499D01*
X144021183Y-37184822D01*
X143965281Y-37169843D01*
X143868457Y-37143899D01*
X143710343Y-37143899D01*
X143702747Y-37143899D01*
X143702731Y-37143900D01*
X135275698Y-37143900D01*
X135208659Y-37124215D01*
X135188017Y-37107581D01*
X132426394Y-34345958D01*
X132392909Y-34284635D01*
X132390075Y-34258277D01*
X132390075Y-33681353D01*
X132409760Y-33614314D01*
X132457780Y-33570868D01*
X132546920Y-33525450D01*
X132730929Y-33391759D01*
X132891759Y-33230929D01*
X132959257Y-33138025D01*
X133014587Y-33095360D01*
X133084200Y-33089381D01*
X133145995Y-33121987D01*
X133159891Y-33138023D01*
X133227391Y-33230929D01*
X133388221Y-33391759D01*
X133572230Y-33525450D01*
X133661604Y-33570988D01*
X133774890Y-33628710D01*
X133991199Y-33698993D01*
X133991200Y-33698993D01*
X133991203Y-33698994D01*
X134215851Y-33734575D01*
X134215852Y-33734575D01*
X134443298Y-33734575D01*
X134443299Y-33734575D01*
X134667947Y-33698994D01*
X134667950Y-33698993D01*
X134667951Y-33698993D01*
X134884259Y-33628710D01*
X134884259Y-33628709D01*
X134884262Y-33628709D01*
X135086920Y-33525450D01*
X135270929Y-33391759D01*
X135431759Y-33230929D01*
X135499257Y-33138025D01*
X135554587Y-33095360D01*
X135624200Y-33089381D01*
X135685995Y-33121987D01*
X135699891Y-33138023D01*
X135767391Y-33230929D01*
X135928221Y-33391759D01*
X136112230Y-33525450D01*
X136201604Y-33570988D01*
X136314890Y-33628710D01*
X136531199Y-33698993D01*
X136531200Y-33698993D01*
X136531203Y-33698994D01*
X136755851Y-33734575D01*
X136755852Y-33734575D01*
X136983298Y-33734575D01*
X136983299Y-33734575D01*
X137207947Y-33698994D01*
X137207950Y-33698993D01*
X137207951Y-33698993D01*
X137424259Y-33628710D01*
X137424259Y-33628709D01*
X137424262Y-33628709D01*
X137626920Y-33525450D01*
X137810929Y-33391759D01*
X137971759Y-33230929D01*
X138039257Y-33138025D01*
X138094587Y-33095360D01*
X138164200Y-33089381D01*
X138225995Y-33121987D01*
X138239891Y-33138023D01*
X138307391Y-33230929D01*
X138468221Y-33391759D01*
X138652230Y-33525450D01*
X138741604Y-33570988D01*
X138854890Y-33628710D01*
X139071199Y-33698993D01*
X139071200Y-33698993D01*
X139071203Y-33698994D01*
X139295851Y-33734575D01*
X139295852Y-33734575D01*
X139523298Y-33734575D01*
X139523299Y-33734575D01*
X139747947Y-33698994D01*
X139747950Y-33698993D01*
X139747951Y-33698993D01*
X139964259Y-33628710D01*
X139964259Y-33628709D01*
X139964262Y-33628709D01*
X140166920Y-33525450D01*
X140350929Y-33391759D01*
X140511759Y-33230929D01*
X140579257Y-33138025D01*
X140634587Y-33095360D01*
X140704200Y-33089381D01*
X140765995Y-33121987D01*
X140779891Y-33138023D01*
X140847391Y-33230929D01*
X141008221Y-33391759D01*
X141192230Y-33525450D01*
X141281604Y-33570988D01*
X141394890Y-33628710D01*
X141611199Y-33698993D01*
X141611200Y-33698993D01*
X141611203Y-33698994D01*
X141835851Y-33734575D01*
X141835852Y-33734575D01*
X142063298Y-33734575D01*
X142063299Y-33734575D01*
X142287947Y-33698994D01*
X142287950Y-33698993D01*
X142287951Y-33698993D01*
X142504259Y-33628710D01*
X142504259Y-33628709D01*
X142504262Y-33628709D01*
X142706920Y-33525450D01*
X142890929Y-33391759D01*
X143051759Y-33230929D01*
X143119257Y-33138025D01*
X143174587Y-33095360D01*
X143244200Y-33089381D01*
X143305995Y-33121987D01*
X143319891Y-33138023D01*
X143387391Y-33230929D01*
X143548221Y-33391759D01*
X143732230Y-33525450D01*
X143821604Y-33570988D01*
X143934890Y-33628710D01*
X144151199Y-33698993D01*
X144151200Y-33698993D01*
X144151203Y-33698994D01*
X144375851Y-33734575D01*
X144375852Y-33734575D01*
X144603298Y-33734575D01*
X144603299Y-33734575D01*
X144827947Y-33698994D01*
X144827950Y-33698993D01*
X144827951Y-33698993D01*
X145044259Y-33628710D01*
X145044259Y-33628709D01*
X145044262Y-33628709D01*
X145246920Y-33525450D01*
X145430929Y-33391759D01*
X145591759Y-33230929D01*
X145659257Y-33138025D01*
X145714587Y-33095360D01*
X145784200Y-33089381D01*
X145845995Y-33121987D01*
X145859891Y-33138023D01*
X145927391Y-33230929D01*
X146088221Y-33391759D01*
X146272230Y-33525450D01*
X146361604Y-33570988D01*
X146474890Y-33628710D01*
X146691199Y-33698993D01*
X146691200Y-33698993D01*
X146691203Y-33698994D01*
X146915851Y-33734575D01*
X146915852Y-33734575D01*
X147143298Y-33734575D01*
X147143299Y-33734575D01*
X147367947Y-33698994D01*
X147367950Y-33698993D01*
X147367951Y-33698993D01*
X147584259Y-33628710D01*
X147584259Y-33628709D01*
X147584262Y-33628709D01*
X147786920Y-33525450D01*
X147970929Y-33391759D01*
X148131759Y-33230929D01*
X148265450Y-33046920D01*
X148368709Y-32844262D01*
X148373416Y-32829776D01*
X148438993Y-32627951D01*
X148438993Y-32627950D01*
X148438994Y-32627947D01*
X148474575Y-32403299D01*
X148474575Y-32175851D01*
X148438994Y-31951203D01*
X148438993Y-31951199D01*
X148438993Y-31951198D01*
X148368710Y-31734890D01*
X148368709Y-31734888D01*
X148265450Y-31532230D01*
X148261101Y-31526245D01*
X148215756Y-31463831D01*
X148192276Y-31398025D01*
X148192074Y-31390946D01*
X148192074Y-30347696D01*
X148192074Y-30347691D01*
X148181405Y-30258837D01*
X148125647Y-30117445D01*
X148125646Y-30117444D01*
X148125646Y-30117443D01*
X148033810Y-29996339D01*
X147912706Y-29904503D01*
X147771311Y-29848744D01*
X147725702Y-29843267D01*
X147682460Y-29838075D01*
X147682454Y-29838075D01*
X147328773Y-29838075D01*
X147261734Y-29818390D01*
X147241092Y-29801756D01*
X141724352Y-24285016D01*
X144009075Y-24285016D01*
X144009075Y-24534133D01*
X144009076Y-24534150D01*
X144041592Y-24781136D01*
X144106073Y-25021782D01*
X144201405Y-25251936D01*
X144201412Y-25251951D01*
X144325975Y-25467701D01*
X144477635Y-25665349D01*
X144477641Y-25665356D01*
X144653793Y-25841508D01*
X144653800Y-25841514D01*
X144851448Y-25993174D01*
X145067198Y-26117737D01*
X145067213Y-26117744D01*
X145166400Y-26158828D01*
X145297368Y-26213077D01*
X145538010Y-26277557D01*
X145785010Y-26310075D01*
X145785017Y-26310075D01*
X146034133Y-26310075D01*
X146034140Y-26310075D01*
X146281140Y-26277557D01*
X146521782Y-26213077D01*
X146751948Y-26117739D01*
X146967702Y-25993174D01*
X147165351Y-25841513D01*
X147341513Y-25665351D01*
X147493174Y-25467702D01*
X147617739Y-25251948D01*
X147713077Y-25021782D01*
X147777557Y-24781140D01*
X147810075Y-24534140D01*
X147810075Y-24285010D01*
X147777557Y-24038010D01*
X147713077Y-23797368D01*
X147617739Y-23567202D01*
X147493174Y-23351448D01*
X147341513Y-23153799D01*
X147341508Y-23153793D01*
X147165356Y-22977641D01*
X147165349Y-22977635D01*
X146967701Y-22825975D01*
X146751951Y-22701412D01*
X146751936Y-22701405D01*
X146521782Y-22606073D01*
X146281136Y-22541592D01*
X146034150Y-22509076D01*
X146034145Y-22509075D01*
X146034140Y-22509075D01*
X145785010Y-22509075D01*
X145785004Y-22509075D01*
X145784999Y-22509076D01*
X145538013Y-22541592D01*
X145297367Y-22606073D01*
X145067213Y-22701405D01*
X145067198Y-22701412D01*
X144851448Y-22825975D01*
X144653800Y-22977635D01*
X144653793Y-22977641D01*
X144477641Y-23153793D01*
X144477635Y-23153800D01*
X144325975Y-23351448D01*
X144201412Y-23567198D01*
X144201405Y-23567213D01*
X144106073Y-23797367D01*
X144041592Y-24038013D01*
X144009076Y-24284999D01*
X144009075Y-24285016D01*
X141724352Y-24285016D01*
X140587590Y-23148254D01*
X140587588Y-23148251D01*
X140468717Y-23029380D01*
X140468716Y-23029379D01*
X140364399Y-22969152D01*
X140331785Y-22950322D01*
X140179057Y-22909398D01*
X140020943Y-22909398D01*
X140013347Y-22909398D01*
X140013331Y-22909399D01*
X139809996Y-22909399D01*
X139742957Y-22889714D01*
X139722315Y-22873080D01*
X138897165Y-22047930D01*
X138897163Y-22047927D01*
X138778292Y-21929056D01*
X138778291Y-21929055D01*
X138691479Y-21878935D01*
X138691479Y-21878934D01*
X138691475Y-21878933D01*
X138641360Y-21849998D01*
X138488632Y-21809074D01*
X138330518Y-21809074D01*
X138322922Y-21809074D01*
X138322906Y-21809075D01*
X90071032Y-21809075D01*
X89912917Y-21809075D01*
X89760190Y-21849998D01*
X89760189Y-21849998D01*
X89760187Y-21849999D01*
X89760184Y-21850000D01*
X89710071Y-21878934D01*
X89710070Y-21878935D01*
X89666664Y-21903995D01*
X89623260Y-21929054D01*
X89623257Y-21929056D01*
X75929054Y-35623259D01*
X75912870Y-35651292D01*
X75906029Y-35663142D01*
X75882541Y-35703825D01*
X75854059Y-35753157D01*
X75849998Y-35760190D01*
X75809074Y-35912918D01*
X75809074Y-35912920D01*
X75809074Y-36081021D01*
X75809075Y-36081034D01*
X75809075Y-46007305D01*
X75809074Y-46007323D01*
X75809074Y-46173029D01*
X75809073Y-46173029D01*
X75809074Y-46173032D01*
X75841407Y-46293700D01*
X75849999Y-46325762D01*
X75863458Y-46349073D01*
X75863459Y-46349075D01*
X75929052Y-46462687D01*
X75929056Y-46462692D01*
X76047924Y-46581560D01*
X76047930Y-46581565D01*
X87547056Y-58080691D01*
X87580541Y-58142014D01*
X87583375Y-58168372D01*
X87583375Y-63617205D01*
X87583374Y-63617223D01*
X87583374Y-63782929D01*
X87583373Y-63782929D01*
X87612088Y-63890095D01*
X87624298Y-63935660D01*
X87643635Y-63969152D01*
X87674806Y-64023142D01*
X87703354Y-64072589D01*
X87703356Y-64072592D01*
X87822224Y-64191460D01*
X87822230Y-64191465D01*
X89349714Y-65718949D01*
X89349724Y-65718960D01*
X89354054Y-65723290D01*
X89354055Y-65723291D01*
X89465859Y-65835095D01*
X89465861Y-65835096D01*
X89465865Y-65835099D01*
X89602784Y-65914148D01*
X89602791Y-65914152D01*
X89714594Y-65944109D01*
X89755517Y-65955075D01*
X89755518Y-65955075D01*
X90480507Y-65955075D01*
X90547546Y-65974760D01*
X90590991Y-66022778D01*
X90651232Y-66141008D01*
X90790058Y-66332085D01*
X90957065Y-66499092D01*
X90991702Y-66524258D01*
X91034367Y-66579588D01*
X91040346Y-66649201D01*
X91007740Y-66710996D01*
X90991705Y-66724890D01*
X90985512Y-66729390D01*
X90957063Y-66750059D01*
X90790060Y-66917062D01*
X90790060Y-66917063D01*
X90790058Y-66917065D01*
X90742594Y-66982394D01*
X90651232Y-67108141D01*
X90544008Y-67318578D01*
X90471021Y-67543206D01*
X90434075Y-67776477D01*
X90434075Y-68012672D01*
X90471021Y-68245943D01*
X90544008Y-68470571D01*
X90593731Y-68568156D01*
X90651232Y-68681008D01*
X90790058Y-68872085D01*
X90790060Y-68872087D01*
X90928526Y-69010553D01*
X90962011Y-69071876D01*
X90957027Y-69141568D01*
X90915155Y-69197501D01*
X90913733Y-69198550D01*
X90892248Y-69214160D01*
X90892242Y-69214165D01*
X90714165Y-69392242D01*
X90714165Y-69392243D01*
X90566132Y-69595991D01*
X90451794Y-69820390D01*
X90373972Y-70059903D01*
X90373972Y-70059906D01*
X90354227Y-70184575D01*
X91501563Y-70184575D01*
X91468650Y-70241582D01*
X91434575Y-70368749D01*
X91434575Y-70500401D01*
X91468650Y-70627568D01*
X91501563Y-70684575D01*
X90354227Y-70684575D01*
X90373972Y-70809243D01*
X90373972Y-70809246D01*
X90451794Y-71048759D01*
X90566132Y-71273158D01*
X90714165Y-71476906D01*
X90714165Y-71476907D01*
X90892242Y-71654984D01*
X91095991Y-71803017D01*
X91320390Y-71917355D01*
X91559904Y-71995177D01*
X91684575Y-72014923D01*
X91684575Y-70867587D01*
X91741582Y-70900500D01*
X91868749Y-70934575D01*
X92000401Y-70934575D01*
X92127568Y-70900500D01*
X92184575Y-70867587D01*
X92184575Y-72014922D01*
X92309243Y-71995177D01*
X92309246Y-71995177D01*
X92548759Y-71917355D01*
X92773158Y-71803017D01*
X92976906Y-71654984D01*
X92976907Y-71654984D01*
X93154984Y-71476907D01*
X93154984Y-71476906D01*
X93303017Y-71273158D01*
X93417355Y-71048759D01*
X93495177Y-70809246D01*
X93495177Y-70809243D01*
X93514923Y-70684575D01*
X92367587Y-70684575D01*
X92400500Y-70627568D01*
X92434575Y-70500401D01*
X92434575Y-70368749D01*
X92400500Y-70241582D01*
X92367587Y-70184575D01*
X93514923Y-70184575D01*
X93495177Y-70059906D01*
X93495177Y-70059903D01*
X93417355Y-69820390D01*
X93303017Y-69595991D01*
X93154984Y-69392243D01*
X93154984Y-69392242D01*
X92976901Y-69214159D01*
X92955420Y-69198553D01*
X92912753Y-69143224D01*
X92906773Y-69073610D01*
X92939378Y-69011815D01*
X92940484Y-69010692D01*
X93079092Y-68872085D01*
X93217918Y-68681008D01*
X93227207Y-68662778D01*
X93275183Y-68611983D01*
X93337691Y-68595075D01*
X97274421Y-68595075D01*
X97365465Y-68576964D01*
X97409753Y-68568155D01*
X97527804Y-68519257D01*
X97537232Y-68515352D01*
X97537233Y-68515351D01*
X97537236Y-68515350D01*
X97651968Y-68438689D01*
X105409838Y-60680819D01*
X105471161Y-60647334D01*
X105497519Y-60644500D01*
X116498481Y-60644500D01*
X116565520Y-60664185D01*
X116586162Y-60680819D01*
X118425453Y-62520111D01*
X118425454Y-62520112D01*
X118540192Y-62596777D01*
X118667667Y-62649578D01*
X118667672Y-62649580D01*
X118667676Y-62649580D01*
X118667677Y-62649581D01*
X118803003Y-62676500D01*
X118803006Y-62676500D01*
X118803007Y-62676500D01*
X122594481Y-62676500D01*
X122661520Y-62696185D01*
X122682162Y-62712819D01*
X125323028Y-65353686D01*
X125323029Y-65353687D01*
X125437765Y-65430351D01*
X125536365Y-65471192D01*
X125565246Y-65483155D01*
X125565247Y-65483155D01*
X125565252Y-65483157D01*
X125592120Y-65488500D01*
X125592126Y-65488501D01*
X125592166Y-65488509D01*
X125682512Y-65506480D01*
X125700581Y-65510075D01*
X125700582Y-65510075D01*
X126981459Y-65510075D01*
X127048498Y-65529760D01*
X127091943Y-65577778D01*
X127101232Y-65596008D01*
X127240058Y-65787085D01*
X127407065Y-65954092D01*
X127441702Y-65979258D01*
X127484367Y-66034588D01*
X127490346Y-66104201D01*
X127457740Y-66165996D01*
X127441705Y-66179890D01*
X127423940Y-66192797D01*
X127407063Y-66205059D01*
X127240060Y-66372062D01*
X127240060Y-66372063D01*
X127240058Y-66372065D01*
X127180437Y-66454125D01*
X127101232Y-66563141D01*
X127040992Y-66681370D01*
X126993017Y-66732166D01*
X126930507Y-66749075D01*
X117877248Y-66749075D01*
X117810209Y-66729390D01*
X117789567Y-66712756D01*
X114513652Y-63436842D01*
X114480167Y-63375519D01*
X114483403Y-63310841D01*
X114483977Y-63309075D01*
X114488052Y-63296534D01*
X114520075Y-63094352D01*
X114520075Y-62889648D01*
X114505538Y-62797869D01*
X114488052Y-62687465D01*
X114452024Y-62576582D01*
X114424795Y-62492781D01*
X114424793Y-62492778D01*
X114424793Y-62492776D01*
X114375229Y-62395503D01*
X114331862Y-62310390D01*
X114302208Y-62269574D01*
X114211546Y-62144786D01*
X114066788Y-62000028D01*
X113901188Y-61879715D01*
X113901187Y-61879714D01*
X113901185Y-61879713D01*
X113817478Y-61837062D01*
X113718798Y-61786781D01*
X113524109Y-61723522D01*
X113349570Y-61695878D01*
X113321927Y-61691500D01*
X113117223Y-61691500D01*
X113092904Y-61695351D01*
X112915040Y-61723522D01*
X112720351Y-61786781D01*
X112537961Y-61879715D01*
X112372361Y-62000028D01*
X112227603Y-62144786D01*
X112107290Y-62310386D01*
X112014356Y-62492776D01*
X111951097Y-62687465D01*
X111920008Y-62883759D01*
X111919075Y-62889648D01*
X111919075Y-63094352D01*
X111921261Y-63108156D01*
X111951097Y-63296534D01*
X112014356Y-63491223D01*
X112078266Y-63616653D01*
X112102375Y-63663968D01*
X112107290Y-63673613D01*
X112227603Y-63839213D01*
X112372361Y-63983971D01*
X112517461Y-64089390D01*
X112537965Y-64104287D01*
X112654182Y-64163503D01*
X112720351Y-64197218D01*
X112720353Y-64197218D01*
X112720356Y-64197220D01*
X112824712Y-64231127D01*
X112915040Y-64260477D01*
X113016132Y-64276488D01*
X113117223Y-64292500D01*
X113117224Y-64292500D01*
X113321926Y-64292500D01*
X113321927Y-64292500D01*
X113524109Y-64260477D01*
X113538417Y-64255827D01*
X113608257Y-64253831D01*
X113664416Y-64286076D01*
X117208434Y-67830095D01*
X117208436Y-67830096D01*
X117208440Y-67830099D01*
X117303966Y-67885250D01*
X117345366Y-67909152D01*
X117498093Y-67950076D01*
X117498095Y-67950076D01*
X117663804Y-67950076D01*
X117663820Y-67950075D01*
X126930507Y-67950075D01*
X126997546Y-67969760D01*
X127040991Y-68017778D01*
X127101232Y-68136008D01*
X127240058Y-68327085D01*
X127407065Y-68494092D01*
X127441702Y-68519258D01*
X127484367Y-68574588D01*
X127490346Y-68644201D01*
X127457740Y-68705996D01*
X127441705Y-68719890D01*
X127423940Y-68732797D01*
X127407063Y-68745059D01*
X127240060Y-68912062D01*
X127240060Y-68912063D01*
X127240058Y-68912065D01*
X127180437Y-68994125D01*
X127101232Y-69103141D01*
X126994008Y-69313578D01*
X126921021Y-69538206D01*
X126884075Y-69771477D01*
X126884075Y-70007672D01*
X126921021Y-70240943D01*
X126994008Y-70465571D01*
X127101232Y-70676008D01*
X127240058Y-70867085D01*
X127240060Y-70867087D01*
X127408154Y-71035181D01*
X127441639Y-71096504D01*
X127444091Y-71132591D01*
X127443875Y-71135323D01*
X128255165Y-71946612D01*
X128191582Y-71963650D01*
X128077568Y-72029476D01*
X127984476Y-72122568D01*
X127918650Y-72236582D01*
X127901612Y-72300165D01*
X127090323Y-71488875D01*
X127090322Y-71488876D01*
X127016134Y-71590988D01*
X126901794Y-71815390D01*
X126823972Y-72054905D01*
X126784575Y-72303646D01*
X126784575Y-72555503D01*
X126823972Y-72804244D01*
X126901794Y-73043759D01*
X127016132Y-73268158D01*
X127090323Y-73370272D01*
X127090323Y-73370273D01*
X127901612Y-72558984D01*
X127918650Y-72622568D01*
X127984476Y-72736582D01*
X128077568Y-72829674D01*
X128191582Y-72895500D01*
X128255165Y-72912537D01*
X127443875Y-73723825D01*
X127444091Y-73726558D01*
X127429727Y-73794936D01*
X127408154Y-73823968D01*
X127240061Y-73992061D01*
X127240060Y-73992063D01*
X127240058Y-73992065D01*
X127180437Y-74074125D01*
X127101232Y-74183141D01*
X126994008Y-74393578D01*
X126921021Y-74618206D01*
X126884075Y-74851477D01*
X126884075Y-75087672D01*
X126921021Y-75320943D01*
X126994008Y-75545571D01*
X127101232Y-75756008D01*
X127240058Y-75947085D01*
X127407065Y-76114092D01*
X127441702Y-76139258D01*
X127484367Y-76194588D01*
X127490346Y-76264201D01*
X127457740Y-76325996D01*
X127441705Y-76339890D01*
X127423940Y-76352797D01*
X127407063Y-76365059D01*
X127240060Y-76532062D01*
X127240060Y-76532063D01*
X127240058Y-76532065D01*
X127180437Y-76614125D01*
X127101232Y-76723141D01*
X126994008Y-76933578D01*
X126921021Y-77158206D01*
X126884075Y-77391477D01*
X126884075Y-77627672D01*
X126921021Y-77860943D01*
X126994008Y-78085571D01*
X127096550Y-78286819D01*
X127101232Y-78296008D01*
X127240058Y-78487085D01*
X127407065Y-78654092D01*
X127598142Y-78792918D01*
X127697566Y-78843577D01*
X127808578Y-78900141D01*
X127808580Y-78900141D01*
X127808583Y-78900143D01*
X127913015Y-78934075D01*
X128033206Y-78973128D01*
X128266478Y-79010075D01*
X128266483Y-79010075D01*
X128502672Y-79010075D01*
X128735943Y-78973128D01*
X128757619Y-78966085D01*
X128960567Y-78900143D01*
X129171008Y-78792918D01*
X129362085Y-78654092D01*
X129529092Y-78487085D01*
X129667918Y-78296008D01*
X129775143Y-78085567D01*
X129848128Y-77860943D01*
X129885075Y-77627672D01*
X129885075Y-77391477D01*
X129848128Y-77158206D01*
X129808120Y-77035075D01*
X129775143Y-76933583D01*
X129775141Y-76933580D01*
X129775141Y-76933578D01*
X129677503Y-76741954D01*
X129667918Y-76723142D01*
X129529092Y-76532065D01*
X129362085Y-76365058D01*
X129327447Y-76339892D01*
X129284782Y-76284564D01*
X129278803Y-76214950D01*
X129311408Y-76153155D01*
X129327448Y-76139257D01*
X129362085Y-76114092D01*
X129529092Y-75947085D01*
X129667918Y-75756008D01*
X129775143Y-75545567D01*
X129848128Y-75320943D01*
X129885075Y-75087672D01*
X129885075Y-74851477D01*
X129848128Y-74618206D01*
X129775141Y-74393578D01*
X129667917Y-74183141D01*
X129529092Y-73992065D01*
X129362085Y-73825058D01*
X129360994Y-73823967D01*
X129327509Y-73762644D01*
X129325057Y-73726555D01*
X129325271Y-73723824D01*
X128513984Y-72912537D01*
X128577568Y-72895500D01*
X128691582Y-72829674D01*
X128784674Y-72736582D01*
X128850500Y-72622568D01*
X128867537Y-72558985D01*
X129678825Y-73370273D01*
X129678825Y-73370272D01*
X129753017Y-73268156D01*
X129753021Y-73268150D01*
X129867355Y-73043759D01*
X129945177Y-72804244D01*
X129984575Y-72555503D01*
X129984575Y-72303646D01*
X129945177Y-72054905D01*
X129867355Y-71815390D01*
X129753017Y-71590991D01*
X129678825Y-71488876D01*
X129678825Y-71488875D01*
X128867537Y-72300164D01*
X128850500Y-72236582D01*
X128784674Y-72122568D01*
X128691582Y-72029476D01*
X128577568Y-71963650D01*
X128513983Y-71946612D01*
X129325273Y-71135323D01*
X129325058Y-71132591D01*
X129339422Y-71064213D01*
X129360995Y-71035181D01*
X129362081Y-71034094D01*
X129362085Y-71034092D01*
X129529092Y-70867085D01*
X129667918Y-70676008D01*
X129775143Y-70465567D01*
X129848128Y-70240943D01*
X129852613Y-70212625D01*
X129885075Y-70007672D01*
X129885075Y-69771477D01*
X129848128Y-69538206D01*
X129789644Y-69358213D01*
X129775143Y-69313583D01*
X129775141Y-69313580D01*
X129775141Y-69313578D01*
X129706018Y-69177918D01*
X129667918Y-69103142D01*
X129529092Y-68912065D01*
X129362085Y-68745058D01*
X129327447Y-68719892D01*
X129284782Y-68664564D01*
X129278803Y-68594950D01*
X129311408Y-68533155D01*
X129327448Y-68519257D01*
X129332823Y-68515352D01*
X129362085Y-68494092D01*
X129529092Y-68327085D01*
X129667918Y-68136008D01*
X129775143Y-67925567D01*
X129848128Y-67700943D01*
X129873111Y-67543206D01*
X129885075Y-67467672D01*
X129885075Y-67231477D01*
X129848128Y-66998206D01*
X129775141Y-66773578D01*
X129711767Y-66649201D01*
X129667918Y-66563142D01*
X129529092Y-66372065D01*
X129362085Y-66205058D01*
X129327447Y-66179892D01*
X129284782Y-66124564D01*
X129278803Y-66054950D01*
X129311408Y-65993155D01*
X129327448Y-65979257D01*
X129362085Y-65954092D01*
X129529092Y-65787085D01*
X129667918Y-65596008D01*
X129775143Y-65385567D01*
X129848128Y-65160943D01*
X129873111Y-65003206D01*
X129885075Y-64927672D01*
X129885075Y-64691477D01*
X129848128Y-64458206D01*
X129777863Y-64241954D01*
X129775143Y-64233583D01*
X129775141Y-64233580D01*
X129775141Y-64233578D01*
X129701673Y-64089390D01*
X129667918Y-64023142D01*
X129529092Y-63832065D01*
X129362085Y-63665058D01*
X129360994Y-63663967D01*
X129327509Y-63602644D01*
X129325057Y-63566555D01*
X129325271Y-63563824D01*
X128513984Y-62752537D01*
X128577568Y-62735500D01*
X128691582Y-62669674D01*
X128784674Y-62576582D01*
X128850500Y-62462568D01*
X128867537Y-62398985D01*
X129678825Y-63210273D01*
X129678825Y-63210272D01*
X129753017Y-63108156D01*
X129753021Y-63108150D01*
X129867355Y-62883759D01*
X129945177Y-62644244D01*
X129984575Y-62395503D01*
X129984575Y-62143646D01*
X129945177Y-61894905D01*
X129867355Y-61655390D01*
X129753017Y-61430991D01*
X129678825Y-61328876D01*
X129678825Y-61328875D01*
X128867537Y-62140164D01*
X128850500Y-62076582D01*
X128784674Y-61962568D01*
X128691582Y-61869476D01*
X128577568Y-61803650D01*
X128513983Y-61786612D01*
X129325273Y-60975323D01*
X129223158Y-60901132D01*
X128998759Y-60786794D01*
X128759244Y-60708972D01*
X128510503Y-60669575D01*
X128258647Y-60669575D01*
X128009905Y-60708972D01*
X127770390Y-60786794D01*
X127545988Y-60901134D01*
X127443876Y-60975322D01*
X127443875Y-60975323D01*
X128255165Y-61786612D01*
X128191582Y-61803650D01*
X128077568Y-61869476D01*
X127984476Y-61962568D01*
X127918650Y-62076582D01*
X127901612Y-62140165D01*
X127090323Y-61328875D01*
X127090322Y-61328876D01*
X127016134Y-61430988D01*
X126901794Y-61655390D01*
X126823972Y-61894905D01*
X126784575Y-62143646D01*
X126784575Y-62395503D01*
X126823972Y-62644244D01*
X126901794Y-62883759D01*
X127016132Y-63108158D01*
X127090323Y-63210272D01*
X127090323Y-63210273D01*
X127901612Y-62398984D01*
X127918650Y-62462568D01*
X127984476Y-62576582D01*
X128077568Y-62669674D01*
X128191582Y-62735500D01*
X128255165Y-62752537D01*
X127443875Y-63563825D01*
X127444091Y-63566558D01*
X127429727Y-63634936D01*
X127408154Y-63663968D01*
X127240061Y-63832061D01*
X127240060Y-63832063D01*
X127240058Y-63832065D01*
X127197897Y-63890095D01*
X127101232Y-64023141D01*
X127091943Y-64041372D01*
X127043967Y-64092167D01*
X126981459Y-64109075D01*
X126111094Y-64109075D01*
X126044055Y-64089390D01*
X126023413Y-64072756D01*
X124177119Y-62226461D01*
X123382545Y-61431887D01*
X123267807Y-61355222D01*
X123140332Y-61302421D01*
X123140322Y-61302418D01*
X123004996Y-61275500D01*
X123004994Y-61275500D01*
X123004993Y-61275500D01*
X119213519Y-61275500D01*
X119184078Y-61266855D01*
X119154092Y-61260332D01*
X119149076Y-61256577D01*
X119146480Y-61255815D01*
X119125838Y-61239181D01*
X118996921Y-61110264D01*
X117286546Y-59399888D01*
X117286545Y-59399887D01*
X117171807Y-59323222D01*
X117044332Y-59270421D01*
X117044322Y-59270418D01*
X116908996Y-59243500D01*
X116908994Y-59243500D01*
X116908993Y-59243500D01*
X105224994Y-59243500D01*
X105087006Y-59243500D01*
X105087004Y-59243500D01*
X104951677Y-59270418D01*
X104951667Y-59270421D01*
X104824192Y-59323222D01*
X104709454Y-59399887D01*
X104709453Y-59399888D01*
X96951587Y-67157756D01*
X96890264Y-67191241D01*
X96863906Y-67194075D01*
X93925094Y-67194075D01*
X93858055Y-67174390D01*
X93812300Y-67121586D01*
X93802356Y-67052428D01*
X93831381Y-66988872D01*
X93837413Y-66982394D01*
X100366107Y-60453700D01*
X100366108Y-60453697D01*
X100366113Y-60453693D01*
X100400125Y-60402790D01*
X100406891Y-60392666D01*
X100424832Y-60365814D01*
X100442775Y-60338961D01*
X100495580Y-60211478D01*
X100506519Y-60156483D01*
X100522500Y-60076145D01*
X100522500Y-39203519D01*
X100542185Y-39136480D01*
X100558819Y-39115838D01*
X101772066Y-37902591D01*
X102982314Y-36692343D01*
X102982314Y-36692342D01*
X103493688Y-36180968D01*
X103528092Y-36129480D01*
X103563549Y-36076414D01*
X103570349Y-36066238D01*
X103570350Y-36066236D01*
X103603587Y-35985995D01*
X103623155Y-35938754D01*
X103636206Y-35873142D01*
X103650075Y-35803418D01*
X103650075Y-35803407D01*
X103650341Y-35800710D01*
X103650879Y-35799376D01*
X103651264Y-35797443D01*
X103651630Y-35797515D01*
X103676499Y-35735922D01*
X103717453Y-35702372D01*
X103736008Y-35692918D01*
X103927085Y-35554092D01*
X104094092Y-35387085D01*
X104119257Y-35352447D01*
X104174586Y-35309782D01*
X104244200Y-35303803D01*
X104305995Y-35336408D01*
X104319890Y-35352445D01*
X104345058Y-35387085D01*
X104512065Y-35554092D01*
X104703142Y-35692918D01*
X104766823Y-35725365D01*
X104913578Y-35800141D01*
X104913580Y-35800141D01*
X104913583Y-35800143D01*
X105138207Y-35873128D01*
X105235872Y-35888596D01*
X105299003Y-35918523D01*
X105304152Y-35923387D01*
X107245139Y-37864374D01*
X107245149Y-37864385D01*
X107249479Y-37868715D01*
X107249480Y-37868716D01*
X107361284Y-37980520D01*
X107361286Y-37980521D01*
X107361290Y-37980524D01*
X107481876Y-38050143D01*
X107498216Y-38059577D01*
X107610019Y-38089534D01*
X107650942Y-38100500D01*
X107650943Y-38100500D01*
X108197953Y-38100500D01*
X108264992Y-38120185D01*
X108310747Y-38172989D01*
X108320691Y-38242147D01*
X108291666Y-38305703D01*
X108254248Y-38334985D01*
X108160375Y-38382815D01*
X108115452Y-38415454D01*
X108007502Y-38493885D01*
X108007500Y-38493887D01*
X108007499Y-38493887D01*
X107873887Y-38627499D01*
X107873887Y-38627500D01*
X107873885Y-38627502D01*
X107796764Y-38733650D01*
X107779101Y-38757961D01*
X107723771Y-38800626D01*
X107678783Y-38809075D01*
X103520367Y-38809075D01*
X103453328Y-38789390D01*
X103420049Y-38757961D01*
X103402386Y-38733650D01*
X103325265Y-38627502D01*
X103191648Y-38493885D01*
X103038774Y-38382815D01*
X103035642Y-38381219D01*
X102870411Y-38297029D01*
X102690693Y-38238634D01*
X102504061Y-38209075D01*
X102504056Y-38209075D01*
X102315094Y-38209075D01*
X102315089Y-38209075D01*
X102128456Y-38238634D01*
X101948738Y-38297029D01*
X101780375Y-38382815D01*
X101735452Y-38415454D01*
X101627502Y-38493885D01*
X101627500Y-38493887D01*
X101627499Y-38493887D01*
X101493887Y-38627499D01*
X101493887Y-38627500D01*
X101493885Y-38627502D01*
X101446185Y-38693154D01*
X101382815Y-38780375D01*
X101297029Y-38948738D01*
X101238634Y-39128456D01*
X101209075Y-39315088D01*
X101209075Y-39504061D01*
X101238634Y-39690693D01*
X101297029Y-39870411D01*
X101368192Y-40010075D01*
X101382815Y-40038774D01*
X101493885Y-40191648D01*
X101627502Y-40325265D01*
X101780376Y-40436335D01*
X101859922Y-40476865D01*
X101948738Y-40522120D01*
X101948740Y-40522120D01*
X101948743Y-40522122D01*
X102045072Y-40553421D01*
X102128456Y-40580515D01*
X102315089Y-40610075D01*
X102315094Y-40610075D01*
X102504061Y-40610075D01*
X102690693Y-40580515D01*
X102870407Y-40522122D01*
X103038774Y-40436335D01*
X103191648Y-40325265D01*
X103325265Y-40191648D01*
X103420050Y-40061188D01*
X103475379Y-40018524D01*
X103520367Y-40010075D01*
X107678783Y-40010075D01*
X107745822Y-40029760D01*
X107779099Y-40061187D01*
X107873885Y-40191648D01*
X108007502Y-40325265D01*
X108160376Y-40436335D01*
X108239922Y-40476865D01*
X108328738Y-40522120D01*
X108328740Y-40522120D01*
X108328743Y-40522122D01*
X108425072Y-40553421D01*
X108508456Y-40580515D01*
X108695089Y-40610075D01*
X108695094Y-40610075D01*
X108884061Y-40610075D01*
X109070693Y-40580515D01*
X109250407Y-40522122D01*
X109418774Y-40436335D01*
X109571648Y-40325265D01*
X109705265Y-40191648D01*
X109816335Y-40038774D01*
X109902122Y-39870407D01*
X109960515Y-39690693D01*
X109964505Y-39665500D01*
X109990075Y-39504061D01*
X109990075Y-39315088D01*
X109960515Y-39128456D01*
X109902120Y-38948738D01*
X109849783Y-38846021D01*
X109816335Y-38780376D01*
X109705265Y-38627502D01*
X109571648Y-38493885D01*
X109418774Y-38382815D01*
X109324901Y-38334984D01*
X109274106Y-38287010D01*
X109257311Y-38219190D01*
X109279848Y-38153055D01*
X109334563Y-38109603D01*
X109381197Y-38100500D01*
X115817953Y-38100500D01*
X115884992Y-38120185D01*
X115930747Y-38172989D01*
X115940691Y-38242147D01*
X115911666Y-38305703D01*
X115874248Y-38334985D01*
X115780375Y-38382815D01*
X115735452Y-38415454D01*
X115627502Y-38493885D01*
X115627500Y-38493887D01*
X115627499Y-38493887D01*
X115493887Y-38627499D01*
X115493887Y-38627500D01*
X115493885Y-38627502D01*
X115446185Y-38693154D01*
X115382815Y-38780375D01*
X115297029Y-38948738D01*
X115238634Y-39128456D01*
X115209075Y-39315088D01*
X115209075Y-39504061D01*
X115238634Y-39690693D01*
X115297029Y-39870411D01*
X115368192Y-40010075D01*
X115382815Y-40038774D01*
X115493885Y-40191648D01*
X115627502Y-40325265D01*
X115780376Y-40436335D01*
X115859922Y-40476865D01*
X115948738Y-40522120D01*
X115948740Y-40522120D01*
X115948743Y-40522122D01*
X116045072Y-40553421D01*
X116128456Y-40580515D01*
X116315089Y-40610075D01*
X116315094Y-40610075D01*
X116504061Y-40610075D01*
X116690693Y-40580515D01*
X116870407Y-40522122D01*
X117038774Y-40436335D01*
X117191648Y-40325265D01*
X117325265Y-40191648D01*
X117436335Y-40038774D01*
X117522122Y-39870407D01*
X117580515Y-39690693D01*
X117584505Y-39665500D01*
X117610075Y-39504061D01*
X117610075Y-39315088D01*
X117580515Y-39128456D01*
X117522120Y-38948738D01*
X117469783Y-38846021D01*
X117436335Y-38780376D01*
X117325265Y-38627502D01*
X117191648Y-38493885D01*
X117038774Y-38382815D01*
X116944901Y-38334984D01*
X116894106Y-38287010D01*
X116877311Y-38219190D01*
X116899848Y-38153055D01*
X116954563Y-38109603D01*
X117001197Y-38100500D01*
X121985103Y-38100500D01*
X122052142Y-38120185D01*
X122072784Y-38136819D01*
X128597939Y-44661974D01*
X128597949Y-44661985D01*
X128602279Y-44666315D01*
X128602280Y-44666316D01*
X128714084Y-44778120D01*
X128800895Y-44828239D01*
X128800897Y-44828241D01*
X128838951Y-44850211D01*
X128851015Y-44857177D01*
X129003743Y-44898100D01*
X129161857Y-44898100D01*
X132999103Y-44898100D01*
X133066142Y-44917785D01*
X133086784Y-44934419D01*
X133692756Y-45540391D01*
X133726241Y-45601714D01*
X133729075Y-45628072D01*
X133729075Y-46137795D01*
X133709390Y-46204834D01*
X133661371Y-46248279D01*
X133572232Y-46293698D01*
X133496016Y-46349073D01*
X133388221Y-46427391D01*
X133388219Y-46427393D01*
X133388218Y-46427393D01*
X133227393Y-46588218D01*
X133227393Y-46588219D01*
X133227391Y-46588221D01*
X133196880Y-46630216D01*
X133159893Y-46681124D01*
X133104563Y-46723789D01*
X133034949Y-46729768D01*
X132973154Y-46697162D01*
X132959257Y-46681124D01*
X132891759Y-46588221D01*
X132730929Y-46427391D01*
X132546920Y-46293700D01*
X132457776Y-46248279D01*
X132344259Y-46190439D01*
X132127950Y-46120156D01*
X131941080Y-46090559D01*
X131903299Y-46084575D01*
X131675851Y-46084575D01*
X131638070Y-46090559D01*
X131451201Y-46120156D01*
X131451198Y-46120156D01*
X131234890Y-46190439D01*
X131032229Y-46293700D01*
X130956016Y-46349073D01*
X130848221Y-46427391D01*
X130848219Y-46427393D01*
X130848218Y-46427393D01*
X130687393Y-46588218D01*
X130687393Y-46588219D01*
X130687391Y-46588221D01*
X130656880Y-46630216D01*
X130553700Y-46772229D01*
X130524369Y-46829795D01*
X130476394Y-46880591D01*
X130413884Y-46897500D01*
X127578097Y-46897500D01*
X127511058Y-46877815D01*
X127490416Y-46861181D01*
X123741750Y-43112515D01*
X123708265Y-43051192D01*
X123713249Y-42981500D01*
X123718947Y-42968539D01*
X123805216Y-42799228D01*
X123805218Y-42799223D01*
X123805220Y-42799219D01*
X123868477Y-42604534D01*
X123900500Y-42402352D01*
X123900500Y-42197648D01*
X123871546Y-42014840D01*
X123868477Y-41995465D01*
X123839127Y-41905137D01*
X123805220Y-41800781D01*
X123805218Y-41800778D01*
X123805218Y-41800776D01*
X123733271Y-41659574D01*
X123712287Y-41618390D01*
X123704556Y-41607749D01*
X123591971Y-41452786D01*
X123447213Y-41308028D01*
X123281613Y-41187715D01*
X123281612Y-41187714D01*
X123281610Y-41187713D01*
X123224653Y-41158691D01*
X123099223Y-41094781D01*
X122904534Y-41031522D01*
X122729995Y-41003878D01*
X122702352Y-40999500D01*
X122497648Y-40999500D01*
X122473329Y-41003351D01*
X122295465Y-41031522D01*
X122100776Y-41094781D01*
X121918386Y-41187715D01*
X121752786Y-41308028D01*
X121608028Y-41452786D01*
X121487715Y-41618386D01*
X121394781Y-41800776D01*
X121331522Y-41995465D01*
X121299500Y-42197648D01*
X121299500Y-42402351D01*
X121331522Y-42604534D01*
X121394781Y-42799223D01*
X121452912Y-42913310D01*
X121467998Y-42942918D01*
X121487715Y-42981613D01*
X121608028Y-43147213D01*
X121752786Y-43291971D01*
X121907749Y-43404556D01*
X121918390Y-43412287D01*
X122034607Y-43471503D01*
X122100776Y-43505218D01*
X122100778Y-43505218D01*
X122100781Y-43505220D01*
X122295466Y-43568477D01*
X122497648Y-43600500D01*
X122497652Y-43600500D01*
X122497797Y-43600523D01*
X122560932Y-43630452D01*
X122566080Y-43635315D01*
X126793139Y-47862374D01*
X126793149Y-47862385D01*
X126797479Y-47866715D01*
X126797480Y-47866716D01*
X126909284Y-47978520D01*
X126996095Y-48028639D01*
X126996097Y-48028641D01*
X127034151Y-48050611D01*
X127046215Y-48057577D01*
X127198943Y-48098501D01*
X127198946Y-48098501D01*
X127364653Y-48098501D01*
X127364669Y-48098500D01*
X130381709Y-48098500D01*
X130392667Y-48101717D01*
X130404025Y-48100525D01*
X130425585Y-48111383D01*
X130448748Y-48118185D01*
X130457835Y-48127626D01*
X130466427Y-48131953D01*
X130482259Y-48152999D01*
X130488506Y-48159489D01*
X130490449Y-48162783D01*
X130553700Y-48286920D01*
X130606870Y-48360103D01*
X130609872Y-48365190D01*
X130617039Y-48393562D01*
X130626873Y-48421121D01*
X130627075Y-48428201D01*
X130627075Y-49471453D01*
X130637744Y-49560311D01*
X130693503Y-49701706D01*
X130785339Y-49822810D01*
X130906443Y-49914646D01*
X130906444Y-49914646D01*
X130906445Y-49914647D01*
X131047837Y-49970405D01*
X131136690Y-49981075D01*
X132442459Y-49981074D01*
X132531313Y-49970405D01*
X132672705Y-49914647D01*
X132793810Y-49822810D01*
X132885647Y-49701705D01*
X132941405Y-49560313D01*
X132941405Y-49560310D01*
X132944220Y-49553173D01*
X132987126Y-49498029D01*
X133053034Y-49474836D01*
X133121018Y-49490956D01*
X133169495Y-49541273D01*
X133174930Y-49553173D01*
X133177744Y-49560310D01*
X133177745Y-49560313D01*
X133211642Y-49646270D01*
X133233503Y-49701706D01*
X133325339Y-49822810D01*
X133446443Y-49914646D01*
X133446444Y-49914646D01*
X133446445Y-49914647D01*
X133587837Y-49970405D01*
X133676690Y-49981075D01*
X134982459Y-49981074D01*
X135071313Y-49970405D01*
X135212705Y-49914647D01*
X135333810Y-49822810D01*
X135425647Y-49701705D01*
X135481405Y-49560313D01*
X135481405Y-49560310D01*
X135484220Y-49553173D01*
X135527126Y-49498029D01*
X135593034Y-49474836D01*
X135661018Y-49490956D01*
X135709495Y-49541273D01*
X135714930Y-49553173D01*
X135717744Y-49560310D01*
X135717745Y-49560313D01*
X135751642Y-49646270D01*
X135773503Y-49701706D01*
X135865339Y-49822810D01*
X135986443Y-49914646D01*
X135986444Y-49914646D01*
X135986445Y-49914647D01*
X136127837Y-49970405D01*
X136216690Y-49981075D01*
X137522459Y-49981074D01*
X137611313Y-49970405D01*
X137752705Y-49914647D01*
X137873810Y-49822810D01*
X137965647Y-49701705D01*
X138021405Y-49560313D01*
X138021405Y-49560310D01*
X138024220Y-49553173D01*
X138067126Y-49498029D01*
X138133034Y-49474836D01*
X138201018Y-49490956D01*
X138249495Y-49541273D01*
X138254930Y-49553173D01*
X138257744Y-49560310D01*
X138257745Y-49560313D01*
X138291642Y-49646270D01*
X138313503Y-49701706D01*
X138405339Y-49822810D01*
X138526443Y-49914646D01*
X138526444Y-49914646D01*
X138526445Y-49914647D01*
X138667837Y-49970405D01*
X138756690Y-49981075D01*
X140062459Y-49981074D01*
X140151313Y-49970405D01*
X140292705Y-49914647D01*
X140413810Y-49822810D01*
X140505647Y-49701705D01*
X140561405Y-49560313D01*
X140561405Y-49560310D01*
X140564220Y-49553173D01*
X140607126Y-49498029D01*
X140673034Y-49474836D01*
X140741018Y-49490956D01*
X140789495Y-49541273D01*
X140794930Y-49553173D01*
X140797744Y-49560310D01*
X140797745Y-49560313D01*
X140831642Y-49646270D01*
X140853503Y-49701706D01*
X140945339Y-49822810D01*
X141066443Y-49914646D01*
X141066444Y-49914646D01*
X141066445Y-49914647D01*
X141170567Y-49955707D01*
X141225709Y-49998612D01*
X141248902Y-50064520D01*
X141249075Y-50071061D01*
X141249075Y-51028055D01*
X141229390Y-51095094D01*
X141212756Y-51115736D01*
X140648320Y-51680171D01*
X140586997Y-51713656D01*
X140541243Y-51714964D01*
X140504058Y-51709075D01*
X140504056Y-51709075D01*
X140315094Y-51709075D01*
X140315089Y-51709075D01*
X140128456Y-51738634D01*
X139948738Y-51797029D01*
X139780375Y-51882815D01*
X139732486Y-51917609D01*
X139627502Y-51993885D01*
X139627500Y-51993887D01*
X139627499Y-51993887D01*
X139493887Y-52127499D01*
X139493887Y-52127500D01*
X139493885Y-52127502D01*
X139446185Y-52193154D01*
X139382815Y-52280375D01*
X139297029Y-52448738D01*
X139238634Y-52628456D01*
X139209075Y-52815088D01*
X139209075Y-53004061D01*
X139238634Y-53190693D01*
X139297029Y-53370411D01*
X139382815Y-53538774D01*
X139493885Y-53691648D01*
X139627502Y-53825265D01*
X139780376Y-53936335D01*
X139850824Y-53972230D01*
X139948738Y-54022120D01*
X139948740Y-54022120D01*
X139948743Y-54022122D01*
X140045072Y-54053421D01*
X140128456Y-54080515D01*
X140315089Y-54110075D01*
X140315094Y-54110075D01*
X140504061Y-54110075D01*
X140690693Y-54080515D01*
X140870407Y-54022122D01*
X141038774Y-53936335D01*
X141191648Y-53825265D01*
X141325265Y-53691648D01*
X141436335Y-53538774D01*
X141522122Y-53370407D01*
X141580515Y-53190693D01*
X141583006Y-53174968D01*
X141610075Y-53004061D01*
X141610075Y-52815095D01*
X141604185Y-52777908D01*
X141613139Y-52708615D01*
X141638977Y-52670829D01*
X142493686Y-51816121D01*
X142493687Y-51816120D01*
X142493687Y-51816119D01*
X142493689Y-51816118D01*
X142570350Y-51701386D01*
X142623155Y-51573903D01*
X142650075Y-51438569D01*
X142650075Y-51300581D01*
X142650075Y-50071060D01*
X142669760Y-50004021D01*
X142722564Y-49958266D01*
X142728541Y-49955723D01*
X142832705Y-49914647D01*
X142932110Y-49839266D01*
X143368435Y-49839266D01*
X143476935Y-49947767D01*
X143476940Y-49947771D01*
X143618818Y-50031677D01*
X143618821Y-50031678D01*
X143777101Y-50077663D01*
X143777107Y-50077664D01*
X143814093Y-50080574D01*
X145165044Y-50080574D01*
X145165066Y-50080573D01*
X145202041Y-50077664D01*
X145360332Y-50031677D01*
X145502207Y-49947772D01*
X145502211Y-49947769D01*
X145610714Y-49839266D01*
X144489575Y-48718128D01*
X143368435Y-49839266D01*
X142932110Y-49839266D01*
X142953810Y-49822810D01*
X143045647Y-49701705D01*
X143101405Y-49560313D01*
X143112075Y-49471460D01*
X143112075Y-49410755D01*
X143131758Y-49343720D01*
X143184561Y-49297964D01*
X143205666Y-49294929D01*
X144401893Y-48098703D01*
X144463216Y-48065218D01*
X144532908Y-48070202D01*
X144577255Y-48098703D01*
X145769473Y-49290921D01*
X145827568Y-49319999D01*
X145863222Y-49380087D01*
X145867075Y-49410755D01*
X145867075Y-49471453D01*
X145877744Y-49560311D01*
X145933503Y-49701706D01*
X146025339Y-49822810D01*
X146146443Y-49914646D01*
X146146444Y-49914646D01*
X146146445Y-49914647D01*
X146287837Y-49970405D01*
X146376690Y-49981075D01*
X147682459Y-49981074D01*
X147771313Y-49970405D01*
X147912705Y-49914647D01*
X147912708Y-49914645D01*
X147920097Y-49910491D01*
X147921169Y-49912398D01*
X147975447Y-49891762D01*
X148043812Y-49906182D01*
X148093529Y-49955274D01*
X148109075Y-50015388D01*
X148109075Y-52459477D01*
X148089390Y-52526516D01*
X148072756Y-52547158D01*
X145122157Y-55497756D01*
X145060834Y-55531241D01*
X145034476Y-55534075D01*
X144128057Y-55534075D01*
X144047094Y-55546898D01*
X144034271Y-55548929D01*
X143921233Y-55606525D01*
X143921232Y-55606526D01*
X143921227Y-55606529D01*
X143831529Y-55696227D01*
X143831524Y-55696234D01*
X143778123Y-55801038D01*
X143730148Y-55851833D01*
X143662327Y-55868628D01*
X143596193Y-55846090D01*
X143579958Y-55832423D01*
X142795465Y-55047930D01*
X142795463Y-55047927D01*
X142676592Y-54929056D01*
X142676591Y-54929055D01*
X142589779Y-54878935D01*
X142589779Y-54878934D01*
X142589775Y-54878933D01*
X142539660Y-54849998D01*
X142386932Y-54809074D01*
X142228818Y-54809074D01*
X142221222Y-54809074D01*
X142221206Y-54809075D01*
X139488632Y-54809075D01*
X139330518Y-54809075D01*
X139177790Y-54849998D01*
X139177789Y-54849998D01*
X139177787Y-54849999D01*
X139177784Y-54850000D01*
X139127671Y-54878934D01*
X139127670Y-54878935D01*
X139084264Y-54903995D01*
X139040860Y-54929054D01*
X139040857Y-54929056D01*
X136929056Y-57040857D01*
X136929054Y-57040860D01*
X136878936Y-57127669D01*
X136878934Y-57127671D01*
X136850000Y-57177784D01*
X136849999Y-57177785D01*
X136848427Y-57183652D01*
X136809074Y-57330518D01*
X136809074Y-57330520D01*
X136809074Y-57498621D01*
X136809075Y-57498634D01*
X136809075Y-58822905D01*
X136809074Y-58822923D01*
X136809074Y-58988629D01*
X136809073Y-58988629D01*
X136849998Y-59141360D01*
X136878933Y-59191475D01*
X136878934Y-59191479D01*
X136878935Y-59191479D01*
X136928498Y-59277327D01*
X136929054Y-59278289D01*
X136929056Y-59278292D01*
X137047924Y-59397160D01*
X137047930Y-59397165D01*
X141424714Y-63773949D01*
X141424724Y-63773960D01*
X141429054Y-63778290D01*
X141429055Y-63778291D01*
X141540859Y-63890095D01*
X141619779Y-63935659D01*
X141619780Y-63935660D01*
X141677784Y-63969149D01*
X141677785Y-63969150D01*
X141677787Y-63969150D01*
X141677790Y-63969152D01*
X141830518Y-64010076D01*
X141830521Y-64010076D01*
X141996228Y-64010076D01*
X141996244Y-64010075D01*
X143635076Y-64010075D01*
X143702115Y-64029760D01*
X143747870Y-64082564D01*
X143759076Y-64134075D01*
X143759076Y-64166093D01*
X143773929Y-64259879D01*
X143831525Y-64372917D01*
X143831527Y-64372919D01*
X143831529Y-64372922D01*
X143921227Y-64462620D01*
X143921229Y-64462621D01*
X143921233Y-64462625D01*
X144034269Y-64520220D01*
X144034273Y-64520222D01*
X144128050Y-64535074D01*
X144128056Y-64535075D01*
X145491093Y-64535074D01*
X145584879Y-64520221D01*
X145697917Y-64462625D01*
X145787625Y-64372917D01*
X145845221Y-64259879D01*
X145845221Y-64259877D01*
X145845222Y-64259876D01*
X145857490Y-64182419D01*
X146759575Y-64182419D01*
X146765976Y-64241947D01*
X146765978Y-64241954D01*
X146816220Y-64376661D01*
X146816224Y-64376668D01*
X146902384Y-64491762D01*
X146902387Y-64491765D01*
X147017481Y-64577925D01*
X147017488Y-64577929D01*
X147152195Y-64628171D01*
X147152202Y-64628173D01*
X147211730Y-64634574D01*
X147211747Y-64634575D01*
X147659575Y-64634575D01*
X147659575Y-63659575D01*
X146759575Y-63659575D01*
X146759575Y-64182419D01*
X145857490Y-64182419D01*
X145860075Y-64166099D01*
X145860075Y-63608213D01*
X145860074Y-62653052D01*
X145860038Y-62652827D01*
X145860037Y-62652823D01*
X145857488Y-62636730D01*
X146759575Y-62636730D01*
X146759575Y-63159575D01*
X147659575Y-63159575D01*
X147659575Y-62184575D01*
X147211730Y-62184575D01*
X147152202Y-62190976D01*
X147152195Y-62190978D01*
X147017488Y-62241220D01*
X147017481Y-62241224D01*
X146902387Y-62327384D01*
X146902384Y-62327387D01*
X146816224Y-62442481D01*
X146816220Y-62442488D01*
X146765978Y-62577195D01*
X146765976Y-62577202D01*
X146759575Y-62636730D01*
X145857488Y-62636730D01*
X145855334Y-62623128D01*
X145845221Y-62559271D01*
X145787625Y-62446233D01*
X145787621Y-62446229D01*
X145787620Y-62446227D01*
X145697922Y-62356529D01*
X145697919Y-62356527D01*
X145697917Y-62356525D01*
X145621092Y-62317380D01*
X145584876Y-62298927D01*
X145491099Y-62284075D01*
X144128057Y-62284075D01*
X144047094Y-62296898D01*
X144034271Y-62298929D01*
X143921233Y-62356525D01*
X143921232Y-62356526D01*
X143921227Y-62356529D01*
X143831529Y-62446227D01*
X143831526Y-62446232D01*
X143831525Y-62446233D01*
X143812326Y-62483912D01*
X143773927Y-62559273D01*
X143759075Y-62653050D01*
X143759075Y-62685075D01*
X143739390Y-62752114D01*
X143686586Y-62797869D01*
X143635075Y-62809075D01*
X142209672Y-62809075D01*
X142142633Y-62789390D01*
X142121991Y-62772756D01*
X138046394Y-58697159D01*
X138012909Y-58635836D01*
X138010075Y-58609478D01*
X138010075Y-57807257D01*
X139109575Y-57807257D01*
X139109575Y-58011892D01*
X139141584Y-58213992D01*
X139204819Y-58408606D01*
X139297716Y-58590925D01*
X139297722Y-58590934D01*
X139330098Y-58635496D01*
X139330099Y-58635497D01*
X140009575Y-57956021D01*
X140009575Y-57962236D01*
X140036834Y-58063969D01*
X140089495Y-58155181D01*
X140163969Y-58229655D01*
X140255181Y-58282316D01*
X140356914Y-58309575D01*
X140363128Y-58309575D01*
X139683651Y-58989049D01*
X139728225Y-59021434D01*
X139910543Y-59114330D01*
X140105157Y-59177565D01*
X140307258Y-59209575D01*
X140511892Y-59209575D01*
X140713992Y-59177565D01*
X140908606Y-59114330D01*
X141090924Y-59021434D01*
X141135496Y-58989049D01*
X140456022Y-58309575D01*
X140462236Y-58309575D01*
X140563969Y-58282316D01*
X140655181Y-58229655D01*
X140729655Y-58155181D01*
X140782316Y-58063969D01*
X140809575Y-57962236D01*
X140809575Y-57956023D01*
X141489049Y-58635497D01*
X141489049Y-58635496D01*
X141521434Y-58590924D01*
X141614330Y-58408606D01*
X141677565Y-58213992D01*
X141709575Y-58011892D01*
X141709575Y-57807257D01*
X141677565Y-57605157D01*
X141614330Y-57410543D01*
X141521434Y-57228225D01*
X141489049Y-57183652D01*
X141489049Y-57183651D01*
X140809575Y-57863126D01*
X140809575Y-57856914D01*
X140782316Y-57755181D01*
X140729655Y-57663969D01*
X140655181Y-57589495D01*
X140563969Y-57536834D01*
X140462236Y-57509575D01*
X140456021Y-57509575D01*
X141135497Y-56830099D01*
X141135496Y-56830098D01*
X141090934Y-56797722D01*
X141090925Y-56797716D01*
X140908606Y-56704819D01*
X140713992Y-56641584D01*
X140511892Y-56609575D01*
X140307258Y-56609575D01*
X140105157Y-56641584D01*
X139910543Y-56704819D01*
X139728219Y-56797718D01*
X139683652Y-56830098D01*
X139683652Y-56830099D01*
X140363129Y-57509575D01*
X140356914Y-57509575D01*
X140255181Y-57536834D01*
X140163969Y-57589495D01*
X140089495Y-57663969D01*
X140036834Y-57755181D01*
X140009575Y-57856914D01*
X140009575Y-57863128D01*
X139330099Y-57183652D01*
X139330098Y-57183652D01*
X139297718Y-57228219D01*
X139204819Y-57410543D01*
X139141584Y-57605157D01*
X139109575Y-57807257D01*
X138010075Y-57807257D01*
X138010075Y-57709672D01*
X138029760Y-57642633D01*
X138046394Y-57621991D01*
X139621991Y-56046394D01*
X139683314Y-56012909D01*
X139709672Y-56010075D01*
X142007778Y-56010075D01*
X142074817Y-56029760D01*
X142095459Y-56046394D01*
X143073014Y-57023949D01*
X143073024Y-57023960D01*
X143077354Y-57028290D01*
X143077355Y-57028291D01*
X143189159Y-57140095D01*
X143254451Y-57177791D01*
X143326090Y-57219152D01*
X143478818Y-57260076D01*
X143478821Y-57260076D01*
X143635076Y-57260076D01*
X143702115Y-57279761D01*
X143747870Y-57332565D01*
X143759076Y-57384076D01*
X143759076Y-57416093D01*
X143773929Y-57509879D01*
X143831525Y-57622917D01*
X143831527Y-57622919D01*
X143831529Y-57622922D01*
X143921227Y-57712620D01*
X143921229Y-57712621D01*
X143921233Y-57712625D01*
X144034269Y-57770220D01*
X144034273Y-57770222D01*
X144128050Y-57785074D01*
X144128056Y-57785075D01*
X145491093Y-57785074D01*
X145584879Y-57770221D01*
X145697917Y-57712625D01*
X145787625Y-57622917D01*
X145845221Y-57509879D01*
X145845221Y-57509877D01*
X145845222Y-57509876D01*
X145857489Y-57432419D01*
X146759575Y-57432419D01*
X146765976Y-57491947D01*
X146765978Y-57491954D01*
X146816220Y-57626661D01*
X146816224Y-57626668D01*
X146902384Y-57741762D01*
X146902387Y-57741765D01*
X147017481Y-57827925D01*
X147017488Y-57827929D01*
X147152195Y-57878171D01*
X147152202Y-57878173D01*
X147211730Y-57884574D01*
X147211747Y-57884575D01*
X147659575Y-57884575D01*
X147659575Y-56909575D01*
X146759575Y-56909575D01*
X146759575Y-57432419D01*
X145857489Y-57432419D01*
X145860074Y-57416099D01*
X145860075Y-57416094D01*
X145860074Y-56509670D01*
X145879759Y-56442632D01*
X145896388Y-56421995D01*
X146550537Y-55767846D01*
X146611858Y-55734363D01*
X146681550Y-55739347D01*
X146737483Y-55781219D01*
X146761900Y-55846683D01*
X146761506Y-55868783D01*
X146759575Y-55886744D01*
X146759575Y-56409575D01*
X147659575Y-56409575D01*
X147659575Y-55434575D01*
X147211744Y-55434575D01*
X147193784Y-55436506D01*
X147125025Y-55424100D01*
X147073888Y-55376489D01*
X147056609Y-55308789D01*
X147078674Y-55242495D01*
X147092849Y-55225535D01*
X147277525Y-55040859D01*
X148697396Y-53620988D01*
X148758717Y-53587505D01*
X148828409Y-53592489D01*
X148884342Y-53634361D01*
X148908759Y-53699825D01*
X148909075Y-53708671D01*
X148909075Y-55352690D01*
X148889390Y-55419729D01*
X148836586Y-55465484D01*
X148767428Y-55475428D01*
X148741742Y-55468872D01*
X148666954Y-55440978D01*
X148666947Y-55440976D01*
X148607419Y-55434575D01*
X148159575Y-55434575D01*
X148159575Y-57884575D01*
X148607403Y-57884575D01*
X148607419Y-57884574D01*
X148666947Y-57878173D01*
X148666958Y-57878170D01*
X148741741Y-57850278D01*
X148811432Y-57845293D01*
X148872756Y-57878777D01*
X148906241Y-57940100D01*
X148909075Y-57966459D01*
X148909075Y-62102690D01*
X148889390Y-62169729D01*
X148836586Y-62215484D01*
X148767428Y-62225428D01*
X148741742Y-62218872D01*
X148666954Y-62190978D01*
X148666947Y-62190976D01*
X148607419Y-62184575D01*
X148159575Y-62184575D01*
X148159575Y-64634575D01*
X148607403Y-64634575D01*
X148607419Y-64634574D01*
X148666947Y-64628173D01*
X148666958Y-64628170D01*
X148741741Y-64600278D01*
X148811432Y-64595293D01*
X148872756Y-64628777D01*
X148906241Y-64690100D01*
X148909075Y-64716459D01*
X148909075Y-67818211D01*
X148889390Y-67885250D01*
X148836586Y-67931005D01*
X148771819Y-67941500D01*
X148707419Y-67934575D01*
X148259575Y-67934575D01*
X148259575Y-70384575D01*
X148707403Y-70384575D01*
X148707414Y-70384574D01*
X148771817Y-70377649D01*
X148840577Y-70390053D01*
X148891715Y-70437662D01*
X148909075Y-70500938D01*
X148909075Y-74568211D01*
X148889390Y-74635250D01*
X148836586Y-74681005D01*
X148771819Y-74691500D01*
X148707419Y-74684575D01*
X148259575Y-74684575D01*
X148259575Y-77134575D01*
X148707403Y-77134575D01*
X148707414Y-77134574D01*
X148771817Y-77127649D01*
X148840577Y-77140053D01*
X148891715Y-77187662D01*
X148909075Y-77250938D01*
X148909075Y-87285075D01*
X148889390Y-87352114D01*
X148836586Y-87397869D01*
X148785075Y-87409075D01*
X108779090Y-87409075D01*
X108712051Y-87389390D01*
X108666296Y-87336586D01*
X108656352Y-87267428D01*
X108685377Y-87203872D01*
X108731637Y-87170514D01*
X108955654Y-87077723D01*
X109250315Y-86920224D01*
X109528118Y-86734601D01*
X109786390Y-86522643D01*
X110022643Y-86286390D01*
X110234601Y-86028118D01*
X110420224Y-85750315D01*
X110577723Y-85455654D01*
X110705582Y-85146976D01*
X110802569Y-84827251D01*
X110802571Y-84827241D01*
X110802574Y-84827230D01*
X110843757Y-84620185D01*
X110867751Y-84499559D01*
X110888882Y-84285016D01*
X144009075Y-84285016D01*
X144009075Y-84534133D01*
X144009076Y-84534150D01*
X144041592Y-84781136D01*
X144106073Y-85021782D01*
X144201405Y-85251936D01*
X144201412Y-85251951D01*
X144325975Y-85467701D01*
X144477635Y-85665349D01*
X144477641Y-85665356D01*
X144653793Y-85841508D01*
X144653800Y-85841514D01*
X144851448Y-85993174D01*
X145067198Y-86117737D01*
X145067213Y-86117744D01*
X145166400Y-86158828D01*
X145297368Y-86213077D01*
X145538010Y-86277557D01*
X145785010Y-86310075D01*
X145785017Y-86310075D01*
X146034133Y-86310075D01*
X146034140Y-86310075D01*
X146281140Y-86277557D01*
X146521782Y-86213077D01*
X146751948Y-86117739D01*
X146967702Y-85993174D01*
X147165351Y-85841513D01*
X147341513Y-85665351D01*
X147493174Y-85467702D01*
X147617739Y-85251948D01*
X147713077Y-85021782D01*
X147777557Y-84781140D01*
X147810075Y-84534140D01*
X147810075Y-84285010D01*
X147777557Y-84038010D01*
X147713077Y-83797368D01*
X147617739Y-83567202D01*
X147579200Y-83500451D01*
X147493174Y-83351448D01*
X147341514Y-83153800D01*
X147341508Y-83153793D01*
X147165356Y-82977641D01*
X147165349Y-82977635D01*
X146967701Y-82825975D01*
X146751951Y-82701412D01*
X146751936Y-82701405D01*
X146521782Y-82606073D01*
X146281136Y-82541592D01*
X146034150Y-82509076D01*
X146034145Y-82509075D01*
X146034140Y-82509075D01*
X145785010Y-82509075D01*
X145785004Y-82509075D01*
X145784999Y-82509076D01*
X145538013Y-82541592D01*
X145297367Y-82606073D01*
X145067213Y-82701405D01*
X145067198Y-82701412D01*
X144851448Y-82825975D01*
X144653800Y-82977635D01*
X144653793Y-82977641D01*
X144477641Y-83153793D01*
X144477635Y-83153800D01*
X144325975Y-83351448D01*
X144201412Y-83567198D01*
X144201405Y-83567213D01*
X144106073Y-83797367D01*
X144041592Y-84038013D01*
X144009076Y-84284999D01*
X144009075Y-84285016D01*
X110888882Y-84285016D01*
X110900500Y-84167056D01*
X110900500Y-83832944D01*
X110867751Y-83500441D01*
X110840134Y-83361603D01*
X110802574Y-83172769D01*
X110802571Y-83172758D01*
X110802570Y-83172755D01*
X110802569Y-83172749D01*
X110705582Y-82853024D01*
X110577723Y-82544346D01*
X110576251Y-82541593D01*
X110420230Y-82249696D01*
X110420229Y-82249694D01*
X110420224Y-82249685D01*
X110234601Y-81971882D01*
X110022643Y-81713610D01*
X110022642Y-81713609D01*
X110022638Y-81713604D01*
X109786395Y-81477361D01*
X109528123Y-81265403D01*
X109528122Y-81265402D01*
X109528118Y-81265399D01*
X109250315Y-81079776D01*
X109250310Y-81079773D01*
X109250303Y-81079769D01*
X108955661Y-80922280D01*
X108955656Y-80922278D01*
X108646977Y-80794418D01*
X108327241Y-80697428D01*
X108327230Y-80697425D01*
X107999565Y-80632250D01*
X107999548Y-80632247D01*
X107748108Y-80607483D01*
X107667056Y-80599500D01*
X107332944Y-80599500D01*
X107257982Y-80606883D01*
X107000451Y-80632247D01*
X107000434Y-80632250D01*
X106672769Y-80697425D01*
X106672758Y-80697428D01*
X106353022Y-80794418D01*
X106044343Y-80922278D01*
X106044338Y-80922280D01*
X105749696Y-81079769D01*
X105749678Y-81079780D01*
X105471890Y-81265393D01*
X105471876Y-81265403D01*
X105213604Y-81477361D01*
X104977361Y-81713604D01*
X104765403Y-81971876D01*
X104765393Y-81971890D01*
X104579780Y-82249678D01*
X104579769Y-82249696D01*
X104422280Y-82544338D01*
X104422278Y-82544343D01*
X104294418Y-82853022D01*
X104197430Y-83172752D01*
X104172180Y-83299692D01*
X104139795Y-83361603D01*
X104079079Y-83396177D01*
X104050563Y-83399500D01*
X81800097Y-83399500D01*
X81733058Y-83379815D01*
X81712416Y-83363181D01*
X79387373Y-81038138D01*
X79353888Y-80976815D01*
X79357122Y-80912141D01*
X79398128Y-80785943D01*
X79418280Y-80658701D01*
X79435075Y-80552672D01*
X79435075Y-80316477D01*
X79398128Y-80083206D01*
X79325141Y-79858578D01*
X79217917Y-79648141D01*
X79217907Y-79648127D01*
X79079092Y-79457065D01*
X78912085Y-79290058D01*
X78721008Y-79151232D01*
X78721004Y-79151230D01*
X78510571Y-79044008D01*
X78285943Y-78971021D01*
X78052672Y-78934075D01*
X78052667Y-78934075D01*
X77816483Y-78934075D01*
X77816478Y-78934075D01*
X77583206Y-78971021D01*
X77358578Y-79044008D01*
X77148141Y-79151232D01*
X77039125Y-79230437D01*
X76957065Y-79290058D01*
X76957063Y-79290060D01*
X76957062Y-79290060D01*
X76790059Y-79457063D01*
X76790058Y-79457065D01*
X76767126Y-79488629D01*
X76764893Y-79491702D01*
X76747659Y-79504990D01*
X76733750Y-79521728D01*
X76720534Y-79525906D01*
X76709562Y-79534367D01*
X76687883Y-79536228D01*
X76667131Y-79542790D01*
X76653755Y-79539160D01*
X76639949Y-79540346D01*
X76620702Y-79530190D01*
X76599700Y-79524491D01*
X76586158Y-79511963D01*
X76578154Y-79507740D01*
X76572556Y-79501933D01*
X76568133Y-79497036D01*
X76539092Y-79457065D01*
X76466084Y-79384057D01*
X76463974Y-79381721D01*
X76450120Y-79352970D01*
X76434827Y-79324962D01*
X76435059Y-79321712D01*
X76433645Y-79318777D01*
X76437534Y-79287104D01*
X76439811Y-79255270D01*
X76441829Y-79252129D01*
X76442161Y-79249428D01*
X76448357Y-79241971D01*
X76468312Y-79210923D01*
X77392416Y-78286819D01*
X77453739Y-78253334D01*
X77480097Y-78250500D01*
X121849903Y-78250500D01*
X121916942Y-78270185D01*
X121937583Y-78286818D01*
X126040859Y-82390095D01*
X126040861Y-82390096D01*
X126040865Y-82390099D01*
X126177784Y-82469148D01*
X126177791Y-82469152D01*
X126330518Y-82510076D01*
X126330520Y-82510076D01*
X126496229Y-82510076D01*
X126496245Y-82510075D01*
X129322906Y-82510075D01*
X129322922Y-82510076D01*
X129330518Y-82510076D01*
X129488629Y-82510076D01*
X129488632Y-82510076D01*
X129641360Y-82469152D01*
X129691479Y-82440214D01*
X129778291Y-82390095D01*
X129890095Y-82278291D01*
X129890095Y-82278289D01*
X129900303Y-82268082D01*
X129900305Y-82268079D01*
X132268081Y-79900303D01*
X132268086Y-79900299D01*
X132278289Y-79890095D01*
X132278291Y-79890095D01*
X132390095Y-79778291D01*
X132465236Y-79648142D01*
X132469152Y-79641360D01*
X132510076Y-79488632D01*
X132510076Y-79330518D01*
X132510076Y-79322923D01*
X132510075Y-79322905D01*
X132510075Y-58145462D01*
X132529760Y-58078423D01*
X132538216Y-58066804D01*
X132644176Y-57937693D01*
X132829799Y-57659890D01*
X132987298Y-57365229D01*
X133115157Y-57056551D01*
X133212144Y-56736826D01*
X133212146Y-56736816D01*
X133212149Y-56736805D01*
X133268952Y-56451232D01*
X133277326Y-56409134D01*
X133310075Y-56076631D01*
X133310075Y-55742519D01*
X133277326Y-55410016D01*
X133244004Y-55242495D01*
X133212149Y-55082344D01*
X133212146Y-55082333D01*
X133212145Y-55082330D01*
X133212144Y-55082324D01*
X133115157Y-54762599D01*
X132987298Y-54453921D01*
X132858846Y-54213604D01*
X132829805Y-54159271D01*
X132829804Y-54159269D01*
X132829799Y-54159260D01*
X132644176Y-53881457D01*
X132432218Y-53623185D01*
X132432217Y-53623184D01*
X132432213Y-53623179D01*
X132195970Y-53386936D01*
X131937698Y-53174978D01*
X131937697Y-53174977D01*
X131937693Y-53174974D01*
X131659890Y-52989351D01*
X131659885Y-52989348D01*
X131659878Y-52989344D01*
X131514632Y-52911709D01*
X131365236Y-52831855D01*
X131365231Y-52831853D01*
X131305769Y-52807223D01*
X133609075Y-52807223D01*
X133609075Y-53011926D01*
X133641097Y-53214109D01*
X133704356Y-53408798D01*
X133711225Y-53422278D01*
X133791471Y-53579769D01*
X133797290Y-53591188D01*
X133917603Y-53756788D01*
X134062361Y-53901546D01*
X134227960Y-54021859D01*
X134227962Y-54021860D01*
X134227965Y-54021862D01*
X134303104Y-54060147D01*
X134316264Y-54072576D01*
X134332352Y-54080864D01*
X134353514Y-54107757D01*
X134353900Y-54108121D01*
X134354178Y-54108600D01*
X134355014Y-54110047D01*
X134355032Y-54110079D01*
X134429052Y-54238287D01*
X134429054Y-54238290D01*
X134429055Y-54238291D01*
X134540859Y-54350095D01*
X134540860Y-54350096D01*
X134662654Y-54471890D01*
X134772756Y-54581991D01*
X134806241Y-54643314D01*
X134809075Y-54669672D01*
X134809075Y-60824605D01*
X134809074Y-60824623D01*
X134809074Y-60990329D01*
X134809073Y-60990329D01*
X134809074Y-60990332D01*
X134841210Y-61110264D01*
X134849999Y-61143062D01*
X134868481Y-61175073D01*
X134868482Y-61175075D01*
X134929052Y-61279987D01*
X134929056Y-61279992D01*
X135047924Y-61398860D01*
X135047929Y-61398864D01*
X143289159Y-69640095D01*
X143289161Y-69640096D01*
X143289165Y-69640099D01*
X143426084Y-69719148D01*
X143426091Y-69719152D01*
X143578818Y-69760076D01*
X143578820Y-69760076D01*
X143735076Y-69760076D01*
X143802115Y-69779761D01*
X143847870Y-69832565D01*
X143859076Y-69884076D01*
X143859076Y-69916093D01*
X143873929Y-70009879D01*
X143931525Y-70122917D01*
X143931527Y-70122919D01*
X143931529Y-70122922D01*
X144021227Y-70212620D01*
X144021229Y-70212621D01*
X144021233Y-70212625D01*
X144134271Y-70270221D01*
X144134272Y-70270221D01*
X144134274Y-70270222D01*
X144204472Y-70281340D01*
X144267607Y-70311269D01*
X144304539Y-70370580D01*
X144309075Y-70403813D01*
X144309075Y-74665337D01*
X144289390Y-74732376D01*
X144236586Y-74778131D01*
X144204472Y-74787810D01*
X144134275Y-74798927D01*
X144134274Y-74798927D01*
X144078872Y-74827155D01*
X144021233Y-74856525D01*
X144021232Y-74856526D01*
X144021227Y-74856529D01*
X143931529Y-74946227D01*
X143931526Y-74946232D01*
X143873927Y-75059273D01*
X143859075Y-75153050D01*
X143859075Y-76666092D01*
X143868111Y-76723141D01*
X143873929Y-76759879D01*
X143931525Y-76872917D01*
X143931527Y-76872919D01*
X143931529Y-76872922D01*
X144021227Y-76962620D01*
X144021229Y-76962621D01*
X144021233Y-76962625D01*
X144134269Y-77020220D01*
X144134273Y-77020222D01*
X144228050Y-77035074D01*
X144228056Y-77035075D01*
X145591093Y-77035074D01*
X145684879Y-77020221D01*
X145797917Y-76962625D01*
X145887625Y-76872917D01*
X145945221Y-76759879D01*
X145945221Y-76759877D01*
X145945222Y-76759876D01*
X145957490Y-76682419D01*
X146859575Y-76682419D01*
X146865976Y-76741947D01*
X146865978Y-76741954D01*
X146916220Y-76876661D01*
X146916224Y-76876668D01*
X147002384Y-76991762D01*
X147002387Y-76991765D01*
X147117481Y-77077925D01*
X147117488Y-77077929D01*
X147252195Y-77128171D01*
X147252202Y-77128173D01*
X147311730Y-77134574D01*
X147311747Y-77134575D01*
X147759575Y-77134575D01*
X147759575Y-76159575D01*
X146859575Y-76159575D01*
X146859575Y-76682419D01*
X145957490Y-76682419D01*
X145960075Y-76666099D01*
X145960075Y-76108213D01*
X145960074Y-75153052D01*
X145960038Y-75152827D01*
X145960037Y-75152823D01*
X145957488Y-75136730D01*
X146859575Y-75136730D01*
X146859575Y-75659575D01*
X147759575Y-75659575D01*
X147759575Y-74684575D01*
X147311730Y-74684575D01*
X147252202Y-74690976D01*
X147252195Y-74690978D01*
X147117488Y-74741220D01*
X147117481Y-74741224D01*
X147002387Y-74827384D01*
X147002384Y-74827387D01*
X146916224Y-74942481D01*
X146916220Y-74942488D01*
X146865978Y-75077195D01*
X146865976Y-75077202D01*
X146859575Y-75136730D01*
X145957488Y-75136730D01*
X145945221Y-75059271D01*
X145887625Y-74946233D01*
X145887621Y-74946229D01*
X145887620Y-74946227D01*
X145797922Y-74856529D01*
X145797919Y-74856527D01*
X145797917Y-74856525D01*
X145684879Y-74798929D01*
X145684877Y-74798928D01*
X145684876Y-74798928D01*
X145614676Y-74787809D01*
X145551542Y-74757879D01*
X145514611Y-74698568D01*
X145510075Y-74665336D01*
X145510075Y-70403812D01*
X145529760Y-70336773D01*
X145582564Y-70291018D01*
X145614674Y-70281339D01*
X145684879Y-70270221D01*
X145797917Y-70212625D01*
X145887625Y-70122917D01*
X145945221Y-70009879D01*
X145945221Y-70009877D01*
X145945222Y-70009876D01*
X145957490Y-69932419D01*
X146859575Y-69932419D01*
X146865976Y-69991947D01*
X146865978Y-69991954D01*
X146916220Y-70126661D01*
X146916224Y-70126668D01*
X147002384Y-70241762D01*
X147002387Y-70241765D01*
X147117481Y-70327925D01*
X147117488Y-70327929D01*
X147252195Y-70378171D01*
X147252202Y-70378173D01*
X147311730Y-70384574D01*
X147311747Y-70384575D01*
X147759575Y-70384575D01*
X147759575Y-69409575D01*
X146859575Y-69409575D01*
X146859575Y-69932419D01*
X145957490Y-69932419D01*
X145960075Y-69916099D01*
X145960075Y-69358213D01*
X145960074Y-68403052D01*
X145960038Y-68402827D01*
X145960037Y-68402823D01*
X145957488Y-68386730D01*
X146859575Y-68386730D01*
X146859575Y-68909575D01*
X147759575Y-68909575D01*
X147759575Y-67934575D01*
X147311730Y-67934575D01*
X147252202Y-67940976D01*
X147252195Y-67940978D01*
X147117488Y-67991220D01*
X147117481Y-67991224D01*
X147002387Y-68077384D01*
X147002384Y-68077387D01*
X146916224Y-68192481D01*
X146916220Y-68192488D01*
X146865978Y-68327195D01*
X146865976Y-68327202D01*
X146859575Y-68386730D01*
X145957488Y-68386730D01*
X145954621Y-68368627D01*
X145945221Y-68309271D01*
X145887625Y-68196233D01*
X145887621Y-68196229D01*
X145887620Y-68196227D01*
X145797922Y-68106529D01*
X145797919Y-68106527D01*
X145797917Y-68106525D01*
X145721092Y-68067380D01*
X145684876Y-68048927D01*
X145591099Y-68034075D01*
X144228057Y-68034075D01*
X144147094Y-68046898D01*
X144134271Y-68048929D01*
X144021233Y-68106525D01*
X144021232Y-68106526D01*
X144021227Y-68106529D01*
X143931529Y-68196227D01*
X143931524Y-68196234D01*
X143878123Y-68301037D01*
X143830148Y-68351833D01*
X143762327Y-68368627D01*
X143696192Y-68346089D01*
X143679958Y-68332422D01*
X136046394Y-60698858D01*
X136012909Y-60637535D01*
X136010075Y-60611177D01*
X136010075Y-54458635D01*
X136010076Y-54458622D01*
X136010076Y-54290519D01*
X136010076Y-54290518D01*
X135969152Y-54137791D01*
X135948119Y-54101360D01*
X135890099Y-54000865D01*
X135890093Y-54000857D01*
X135861466Y-53972230D01*
X135827981Y-53910907D01*
X135832965Y-53841215D01*
X135861465Y-53796868D01*
X135901541Y-53756794D01*
X135901543Y-53756790D01*
X135901546Y-53756788D01*
X135990493Y-53634361D01*
X136021862Y-53591185D01*
X136114795Y-53408794D01*
X136178052Y-53214109D01*
X136210075Y-53011927D01*
X136210075Y-52807223D01*
X136178052Y-52605041D01*
X136114795Y-52410356D01*
X136114793Y-52410353D01*
X136114793Y-52410351D01*
X136081078Y-52344182D01*
X136021862Y-52227965D01*
X136014131Y-52217324D01*
X135901546Y-52062361D01*
X135756788Y-51917603D01*
X135591188Y-51797290D01*
X135591187Y-51797289D01*
X135591185Y-51797288D01*
X135534228Y-51768266D01*
X135408798Y-51704356D01*
X135214109Y-51641097D01*
X135039570Y-51613453D01*
X135011927Y-51609075D01*
X134807223Y-51609075D01*
X134782904Y-51612926D01*
X134605040Y-51641097D01*
X134410351Y-51704356D01*
X134227961Y-51797290D01*
X134062361Y-51917603D01*
X133917603Y-52062361D01*
X133797290Y-52227961D01*
X133704356Y-52410351D01*
X133641097Y-52605040D01*
X133609075Y-52807223D01*
X131305769Y-52807223D01*
X131234997Y-52777908D01*
X131056552Y-52703993D01*
X130736816Y-52607003D01*
X130736805Y-52607000D01*
X130409140Y-52541825D01*
X130409123Y-52541822D01*
X130157683Y-52517058D01*
X130076631Y-52509075D01*
X129742519Y-52509075D01*
X129667557Y-52516458D01*
X129410026Y-52541822D01*
X129410009Y-52541825D01*
X129082344Y-52607000D01*
X129082333Y-52607003D01*
X128762597Y-52703993D01*
X128453918Y-52831853D01*
X128453913Y-52831855D01*
X128159271Y-52989344D01*
X128159253Y-52989355D01*
X127881465Y-53174968D01*
X127881451Y-53174978D01*
X127623179Y-53386936D01*
X127386936Y-53623179D01*
X127174978Y-53881451D01*
X127174968Y-53881465D01*
X126989355Y-54159253D01*
X126989344Y-54159271D01*
X126831855Y-54453913D01*
X126831853Y-54453918D01*
X126703993Y-54762597D01*
X126607003Y-55082333D01*
X126607000Y-55082344D01*
X126541825Y-55410009D01*
X126541822Y-55410026D01*
X126535381Y-55475428D01*
X126509388Y-55739347D01*
X126509075Y-55742522D01*
X126509075Y-56076627D01*
X126541822Y-56409123D01*
X126541825Y-56409140D01*
X126607000Y-56736805D01*
X126607003Y-56736816D01*
X126607005Y-56736825D01*
X126607006Y-56736826D01*
X126613145Y-56757063D01*
X126703993Y-57056552D01*
X126831853Y-57365231D01*
X126831855Y-57365236D01*
X126989344Y-57659878D01*
X126989355Y-57659896D01*
X127174968Y-57937684D01*
X127174978Y-57937698D01*
X127386936Y-58195970D01*
X127623179Y-58432213D01*
X127623184Y-58432217D01*
X127623185Y-58432218D01*
X127881457Y-58644176D01*
X128159260Y-58829799D01*
X128159269Y-58829804D01*
X128159271Y-58829805D01*
X128453913Y-58987294D01*
X128453915Y-58987294D01*
X128453921Y-58987298D01*
X128762599Y-59115157D01*
X129082324Y-59212144D01*
X129082330Y-59212145D01*
X129082333Y-59212146D01*
X129082344Y-59212149D01*
X129287818Y-59253019D01*
X129410016Y-59277326D01*
X129742519Y-59310075D01*
X129742522Y-59310075D01*
X130076628Y-59310075D01*
X130076631Y-59310075D01*
X130409134Y-59277326D01*
X130579189Y-59243500D01*
X130736805Y-59212149D01*
X130736816Y-59212146D01*
X130736816Y-59212145D01*
X130736826Y-59212144D01*
X131056551Y-59115157D01*
X131137622Y-59081576D01*
X131207091Y-59074107D01*
X131269570Y-59105382D01*
X131305223Y-59165470D01*
X131309075Y-59196137D01*
X131309075Y-79109478D01*
X131289390Y-79176517D01*
X131272756Y-79197159D01*
X129197159Y-81272756D01*
X129135836Y-81306241D01*
X129109478Y-81309075D01*
X126709673Y-81309075D01*
X126642634Y-81289390D01*
X126621992Y-81272756D01*
X122637590Y-77288355D01*
X122637588Y-77288352D01*
X122518717Y-77169481D01*
X122518716Y-77169480D01*
X122431904Y-77119360D01*
X122431904Y-77119359D01*
X122431900Y-77119358D01*
X122381785Y-77090423D01*
X122229057Y-77049499D01*
X122070943Y-77049499D01*
X122063347Y-77049499D01*
X122063331Y-77049500D01*
X77259057Y-77049500D01*
X77100942Y-77049500D01*
X76948215Y-77090423D01*
X76948214Y-77090423D01*
X76948212Y-77090424D01*
X76948209Y-77090425D01*
X76898096Y-77119359D01*
X76898095Y-77119360D01*
X76854689Y-77144420D01*
X76811285Y-77169479D01*
X76811282Y-77169481D01*
X75025861Y-78954903D01*
X75025853Y-78954911D01*
X75014677Y-78966085D01*
X75014653Y-78966097D01*
X74965323Y-78996327D01*
X74818579Y-79044008D01*
X74608141Y-79151232D01*
X74499125Y-79230437D01*
X74417065Y-79290058D01*
X74417063Y-79290060D01*
X74417062Y-79290060D01*
X74250059Y-79457063D01*
X74250058Y-79457065D01*
X74227126Y-79488629D01*
X74224893Y-79491702D01*
X74169562Y-79534367D01*
X74099949Y-79540346D01*
X74038154Y-79507740D01*
X74024257Y-79491702D01*
X73999092Y-79457065D01*
X73832085Y-79290058D01*
X73675810Y-79176517D01*
X73641006Y-79151230D01*
X73522779Y-79090990D01*
X73471984Y-79043016D01*
X73455075Y-78980506D01*
X73455075Y-60445521D01*
X73474760Y-60378482D01*
X73491389Y-60357844D01*
X74485498Y-59363735D01*
X74546819Y-59330252D01*
X74616510Y-59335236D01*
X74642067Y-59348315D01*
X74749685Y-59420224D01*
X74749694Y-59420229D01*
X74749696Y-59420230D01*
X75044338Y-59577719D01*
X75044340Y-59577719D01*
X75044346Y-59577723D01*
X75353024Y-59705582D01*
X75672749Y-59802569D01*
X75672755Y-59802570D01*
X75672758Y-59802571D01*
X75672769Y-59802574D01*
X75878243Y-59843444D01*
X76000441Y-59867751D01*
X76332944Y-59900500D01*
X76332947Y-59900500D01*
X76667053Y-59900500D01*
X76667056Y-59900500D01*
X76999559Y-59867751D01*
X77161757Y-59835487D01*
X77327230Y-59802574D01*
X77327241Y-59802571D01*
X77327241Y-59802570D01*
X77327251Y-59802569D01*
X77646976Y-59705582D01*
X77955654Y-59577723D01*
X78250315Y-59420224D01*
X78528118Y-59234601D01*
X78786390Y-59022643D01*
X79022643Y-58786390D01*
X79234601Y-58528118D01*
X79420224Y-58250315D01*
X79577723Y-57955654D01*
X79705582Y-57646976D01*
X79802569Y-57327251D01*
X79802571Y-57327241D01*
X79802574Y-57327230D01*
X79856414Y-57056552D01*
X79867751Y-56999559D01*
X79900500Y-56667056D01*
X79900500Y-56332944D01*
X79867751Y-56000441D01*
X79829725Y-55809271D01*
X79802574Y-55672769D01*
X79802571Y-55672758D01*
X79802570Y-55672755D01*
X79802569Y-55672749D01*
X79705582Y-55353024D01*
X79577723Y-55044346D01*
X79575860Y-55040861D01*
X79420230Y-54749696D01*
X79420229Y-54749694D01*
X79420224Y-54749685D01*
X79234601Y-54471882D01*
X79022643Y-54213610D01*
X79022642Y-54213609D01*
X79022638Y-54213604D01*
X78786395Y-53977361D01*
X78528123Y-53765403D01*
X78528122Y-53765402D01*
X78528118Y-53765399D01*
X78250315Y-53579776D01*
X78250310Y-53579773D01*
X78250303Y-53579769D01*
X77955661Y-53422280D01*
X77955656Y-53422278D01*
X77646977Y-53294418D01*
X77327241Y-53197428D01*
X77327230Y-53197425D01*
X76999565Y-53132250D01*
X76999548Y-53132247D01*
X76748108Y-53107483D01*
X76667056Y-53099500D01*
X76332944Y-53099500D01*
X76257982Y-53106883D01*
X76000451Y-53132247D01*
X76000434Y-53132250D01*
X75672769Y-53197425D01*
X75672758Y-53197428D01*
X75353022Y-53294418D01*
X75044343Y-53422278D01*
X75044338Y-53422280D01*
X74749696Y-53579769D01*
X74749678Y-53579780D01*
X74471890Y-53765393D01*
X74471876Y-53765403D01*
X74213604Y-53977361D01*
X73977361Y-54213604D01*
X73765403Y-54471876D01*
X73765393Y-54471890D01*
X73579780Y-54749678D01*
X73579769Y-54749696D01*
X73422280Y-55044338D01*
X73422278Y-55044343D01*
X73294418Y-55353022D01*
X73197428Y-55672758D01*
X73197425Y-55672769D01*
X73132250Y-56000434D01*
X73132247Y-56000451D01*
X73106883Y-56257982D01*
X73099500Y-56332944D01*
X73099500Y-56667056D01*
X73106370Y-56736805D01*
X73132247Y-56999548D01*
X73132250Y-56999565D01*
X73197425Y-57327230D01*
X73197428Y-57327241D01*
X73294418Y-57646977D01*
X73422278Y-57955656D01*
X73422280Y-57955661D01*
X73579769Y-58250303D01*
X73579780Y-58250321D01*
X73651682Y-58357930D01*
X73672560Y-58424608D01*
X73654075Y-58491988D01*
X73636261Y-58514502D01*
X72485861Y-59664903D01*
X72374056Y-59776707D01*
X72374054Y-59776710D01*
X72323936Y-59863519D01*
X72323934Y-59863521D01*
X72295000Y-59913634D01*
X72294999Y-59913635D01*
X72292434Y-59923207D01*
X72254074Y-60066368D01*
X72254074Y-60066370D01*
X72254074Y-60234471D01*
X72254075Y-60234484D01*
X72254075Y-78980506D01*
X72234390Y-79047545D01*
X72186371Y-79090990D01*
X72068143Y-79151230D01*
X71943251Y-79241971D01*
X71877065Y-79290058D01*
X71877063Y-79290060D01*
X71877062Y-79290060D01*
X71710060Y-79457062D01*
X71710060Y-79457063D01*
X71710058Y-79457065D01*
X71661070Y-79524491D01*
X71571232Y-79648141D01*
X71464008Y-79858578D01*
X71391021Y-80083206D01*
X71354075Y-80316477D01*
X71354075Y-80552672D01*
X71391021Y-80785943D01*
X71464008Y-81010571D01*
X71571232Y-81221008D01*
X71710058Y-81412085D01*
X71877065Y-81579092D01*
X72068142Y-81717918D01*
X72167566Y-81768577D01*
X72278578Y-81825141D01*
X72278580Y-81825141D01*
X72278583Y-81825143D01*
X72370867Y-81855128D01*
X72503206Y-81898128D01*
X72736478Y-81935075D01*
X72736483Y-81935075D01*
X72972672Y-81935075D01*
X73205943Y-81898128D01*
X73239043Y-81887373D01*
X73430567Y-81825143D01*
X73641008Y-81717918D01*
X73832085Y-81579092D01*
X73999092Y-81412085D01*
X74024257Y-81377447D01*
X74079586Y-81334782D01*
X74149200Y-81328803D01*
X74210995Y-81361408D01*
X74224890Y-81377445D01*
X74250058Y-81412085D01*
X74417065Y-81579092D01*
X74608142Y-81717918D01*
X74707566Y-81768577D01*
X74818578Y-81825141D01*
X74818580Y-81825141D01*
X74818583Y-81825143D01*
X74910867Y-81855128D01*
X75043206Y-81898128D01*
X75276478Y-81935075D01*
X75276483Y-81935075D01*
X75512672Y-81935075D01*
X75745943Y-81898128D01*
X75779043Y-81887373D01*
X75970567Y-81825143D01*
X76181008Y-81717918D01*
X76372085Y-81579092D01*
X76539092Y-81412085D01*
X76564257Y-81377447D01*
X76619586Y-81334782D01*
X76689200Y-81328803D01*
X76750995Y-81361408D01*
X76764890Y-81377445D01*
X76790058Y-81412085D01*
X76957065Y-81579092D01*
X77148142Y-81717918D01*
X77247566Y-81768577D01*
X77358578Y-81825141D01*
X77358580Y-81825141D01*
X77358583Y-81825143D01*
X77450867Y-81855128D01*
X77583206Y-81898128D01*
X77816478Y-81935075D01*
X77816483Y-81935075D01*
X78052672Y-81935075D01*
X78158701Y-81918280D01*
X78285943Y-81898128D01*
X78412141Y-81857122D01*
X78481979Y-81855128D01*
X78538138Y-81887373D01*
X81015139Y-84364374D01*
X81015149Y-84364385D01*
X81019479Y-84368715D01*
X81019480Y-84368716D01*
X81131284Y-84480520D01*
X81131286Y-84480521D01*
X81131290Y-84480524D01*
X81268209Y-84559573D01*
X81268216Y-84559577D01*
X81380019Y-84589534D01*
X81420942Y-84600500D01*
X81420943Y-84600500D01*
X104050563Y-84600500D01*
X104117602Y-84620185D01*
X104163357Y-84672989D01*
X104172180Y-84700308D01*
X104197430Y-84827247D01*
X104294418Y-85146977D01*
X104422278Y-85455656D01*
X104422280Y-85455661D01*
X104579769Y-85750303D01*
X104579780Y-85750321D01*
X104765393Y-86028109D01*
X104765403Y-86028123D01*
X104977361Y-86286395D01*
X105213604Y-86522638D01*
X105213609Y-86522642D01*
X105213610Y-86522643D01*
X105471882Y-86734601D01*
X105749685Y-86920224D01*
X105749694Y-86920229D01*
X105749696Y-86920230D01*
X106044338Y-87077719D01*
X106044340Y-87077719D01*
X106044346Y-87077723D01*
X106268363Y-87170514D01*
X106322766Y-87214355D01*
X106344831Y-87280649D01*
X106327552Y-87348349D01*
X106276414Y-87395959D01*
X106220910Y-87409075D01*
X65034075Y-87409075D01*
X64967036Y-87389390D01*
X64921281Y-87336586D01*
X64910075Y-87285075D01*
X64910075Y-84285016D01*
X66009075Y-84285016D01*
X66009075Y-84534133D01*
X66009076Y-84534150D01*
X66041592Y-84781136D01*
X66106073Y-85021782D01*
X66201405Y-85251936D01*
X66201412Y-85251951D01*
X66325975Y-85467701D01*
X66477635Y-85665349D01*
X66477641Y-85665356D01*
X66653793Y-85841508D01*
X66653800Y-85841514D01*
X66851448Y-85993174D01*
X67067198Y-86117737D01*
X67067213Y-86117744D01*
X67166400Y-86158828D01*
X67297368Y-86213077D01*
X67538010Y-86277557D01*
X67785010Y-86310075D01*
X67785017Y-86310075D01*
X68034133Y-86310075D01*
X68034140Y-86310075D01*
X68281140Y-86277557D01*
X68521782Y-86213077D01*
X68751948Y-86117739D01*
X68967702Y-85993174D01*
X69165351Y-85841513D01*
X69341513Y-85665351D01*
X69493174Y-85467702D01*
X69617739Y-85251948D01*
X69713077Y-85021782D01*
X69777557Y-84781140D01*
X69810075Y-84534140D01*
X69810075Y-84285010D01*
X69777557Y-84038010D01*
X69713077Y-83797368D01*
X69617739Y-83567202D01*
X69579200Y-83500451D01*
X69493174Y-83351448D01*
X69341514Y-83153800D01*
X69341508Y-83153793D01*
X69165356Y-82977641D01*
X69165349Y-82977635D01*
X68967701Y-82825975D01*
X68751951Y-82701412D01*
X68751936Y-82701405D01*
X68521782Y-82606073D01*
X68281136Y-82541592D01*
X68034150Y-82509076D01*
X68034145Y-82509075D01*
X68034140Y-82509075D01*
X67785010Y-82509075D01*
X67785004Y-82509075D01*
X67784999Y-82509076D01*
X67538013Y-82541592D01*
X67297367Y-82606073D01*
X67067213Y-82701405D01*
X67067198Y-82701412D01*
X66851448Y-82825975D01*
X66653800Y-82977635D01*
X66653793Y-82977641D01*
X66477641Y-83153793D01*
X66477635Y-83153800D01*
X66325975Y-83351448D01*
X66201412Y-83567198D01*
X66201405Y-83567213D01*
X66106073Y-83797367D01*
X66041592Y-84038013D01*
X66009076Y-84284999D01*
X66009075Y-84285016D01*
X64910075Y-84285016D01*
X64910075Y-24285016D01*
X66009075Y-24285016D01*
X66009075Y-24534133D01*
X66009076Y-24534150D01*
X66041592Y-24781136D01*
X66106073Y-25021782D01*
X66201405Y-25251936D01*
X66201412Y-25251951D01*
X66325975Y-25467701D01*
X66477635Y-25665349D01*
X66477641Y-25665356D01*
X66653793Y-25841508D01*
X66653800Y-25841514D01*
X66851448Y-25993174D01*
X67067198Y-26117737D01*
X67067213Y-26117744D01*
X67166400Y-26158828D01*
X67297368Y-26213077D01*
X67538010Y-26277557D01*
X67785010Y-26310075D01*
X67785017Y-26310075D01*
X68034133Y-26310075D01*
X68034140Y-26310075D01*
X68281140Y-26277557D01*
X68521782Y-26213077D01*
X68751948Y-26117739D01*
X68967702Y-25993174D01*
X69165351Y-25841513D01*
X69341513Y-25665351D01*
X69493174Y-25467702D01*
X69617739Y-25251948D01*
X69713077Y-25021782D01*
X69777557Y-24781140D01*
X69810075Y-24534140D01*
X69810075Y-24285010D01*
X69777557Y-24038010D01*
X69713077Y-23797368D01*
X69617739Y-23567202D01*
X69493174Y-23351448D01*
X69341513Y-23153799D01*
X69341508Y-23153793D01*
X69165356Y-22977641D01*
X69165349Y-22977635D01*
X68967701Y-22825975D01*
X68751951Y-22701412D01*
X68751936Y-22701405D01*
X68521782Y-22606073D01*
X68281136Y-22541592D01*
X68034150Y-22509076D01*
X68034145Y-22509075D01*
X68034140Y-22509075D01*
X67785010Y-22509075D01*
X67785004Y-22509075D01*
X67784999Y-22509076D01*
X67538013Y-22541592D01*
X67297367Y-22606073D01*
X67067213Y-22701405D01*
X67067198Y-22701412D01*
X66851448Y-22825975D01*
X66653800Y-22977635D01*
X66653793Y-22977641D01*
X66477641Y-23153793D01*
X66477635Y-23153800D01*
X66325975Y-23351448D01*
X66201412Y-23567198D01*
X66201405Y-23567213D01*
X66106073Y-23797367D01*
X66041592Y-24038013D01*
X66009076Y-24284999D01*
X66009075Y-24285016D01*
X64910075Y-24285016D01*
X64910075Y-21534075D01*
X64929760Y-21467036D01*
X64982564Y-21421281D01*
X65034075Y-21410075D01*
X148785075Y-21410075D01*
X148852114Y-21429760D01*
G37*
%TD.AperFunction*%
%TA.AperFunction,Conductor*%
G36*
X141558942Y-28052185D02*
G01*
X141579584Y-28068819D01*
X143418272Y-29907507D01*
X143451757Y-29968830D01*
X143446773Y-30038522D01*
X143429395Y-30070112D01*
X143393504Y-30117441D01*
X143393501Y-30117447D01*
X143334929Y-30265976D01*
X143292024Y-30321120D01*
X143226116Y-30344313D01*
X143158131Y-30328192D01*
X143109655Y-30277875D01*
X143104221Y-30265976D01*
X143045648Y-30117447D01*
X143045647Y-30117445D01*
X142953810Y-29996339D01*
X142832706Y-29904503D01*
X142691311Y-29848744D01*
X142649124Y-29843678D01*
X142602460Y-29838075D01*
X142602453Y-29838075D01*
X141296696Y-29838075D01*
X141207838Y-29848744D01*
X141066443Y-29904503D01*
X140945339Y-29996339D01*
X140853502Y-30117445D01*
X140853501Y-30117447D01*
X140794929Y-30265976D01*
X140752024Y-30321120D01*
X140686116Y-30344313D01*
X140618131Y-30328192D01*
X140569655Y-30277875D01*
X140564221Y-30265976D01*
X140505648Y-30117447D01*
X140505647Y-30117445D01*
X140413810Y-29996339D01*
X140292706Y-29904503D01*
X140151311Y-29848744D01*
X140105702Y-29843267D01*
X140062460Y-29838075D01*
X140062454Y-29838075D01*
X140000494Y-29838075D01*
X139933455Y-29818390D01*
X139910342Y-29799213D01*
X139900366Y-29788649D01*
X139890095Y-29770859D01*
X139778291Y-29659055D01*
X139778288Y-29659053D01*
X139221590Y-29102355D01*
X139221588Y-29102352D01*
X139102717Y-28983481D01*
X139102716Y-28983480D01*
X139015904Y-28933360D01*
X139015904Y-28933359D01*
X139015900Y-28933358D01*
X138965785Y-28904423D01*
X138813057Y-28863499D01*
X138654943Y-28863499D01*
X138647347Y-28863499D01*
X138647331Y-28863500D01*
X116037670Y-28863500D01*
X116037654Y-28863499D01*
X116030058Y-28863499D01*
X115871943Y-28863499D01*
X115795579Y-28883961D01*
X115719214Y-28904423D01*
X115719209Y-28904426D01*
X115582290Y-28983475D01*
X115582282Y-28983481D01*
X112629056Y-31936707D01*
X112629050Y-31936715D01*
X112584344Y-32014150D01*
X112584344Y-32014151D01*
X112549998Y-32073639D01*
X112549998Y-32073640D01*
X112509074Y-32226368D01*
X112509074Y-32226370D01*
X112509074Y-32394471D01*
X112509075Y-32394484D01*
X112509075Y-32955506D01*
X112489390Y-33022545D01*
X112441371Y-33065990D01*
X112323143Y-33126230D01*
X112189471Y-33223349D01*
X112132065Y-33265058D01*
X112132063Y-33265060D01*
X112132062Y-33265060D01*
X111965059Y-33432063D01*
X111956641Y-33443650D01*
X111939939Y-33466639D01*
X111939893Y-33466702D01*
X111884562Y-33509367D01*
X111814949Y-33515346D01*
X111753154Y-33482740D01*
X111739257Y-33466702D01*
X111714092Y-33432065D01*
X111547085Y-33265058D01*
X111356008Y-33126232D01*
X111334596Y-33115322D01*
X111145571Y-33019008D01*
X110920943Y-32946021D01*
X110687672Y-32909075D01*
X110687667Y-32909075D01*
X110451483Y-32909075D01*
X110451478Y-32909075D01*
X110218206Y-32946021D01*
X109993578Y-33019008D01*
X109783141Y-33126232D01*
X109674125Y-33205437D01*
X109592065Y-33265058D01*
X109592063Y-33265060D01*
X109592062Y-33265060D01*
X109425059Y-33432063D01*
X109416641Y-33443650D01*
X109399939Y-33466639D01*
X109399893Y-33466702D01*
X109344562Y-33509367D01*
X109274949Y-33515346D01*
X109213154Y-33482740D01*
X109199257Y-33466702D01*
X109174092Y-33432065D01*
X109007085Y-33265058D01*
X108816008Y-33126232D01*
X108794596Y-33115322D01*
X108605571Y-33019008D01*
X108380943Y-32946021D01*
X108147672Y-32909075D01*
X108147667Y-32909075D01*
X107911483Y-32909075D01*
X107911478Y-32909075D01*
X107678206Y-32946021D01*
X107453578Y-33019008D01*
X107243141Y-33126232D01*
X107134125Y-33205437D01*
X107052065Y-33265058D01*
X107052063Y-33265060D01*
X107052062Y-33265060D01*
X106885059Y-33432063D01*
X106876641Y-33443650D01*
X106859939Y-33466639D01*
X106859893Y-33466702D01*
X106804562Y-33509367D01*
X106734949Y-33515346D01*
X106673154Y-33482740D01*
X106659257Y-33466702D01*
X106634092Y-33432065D01*
X106467085Y-33265058D01*
X106276008Y-33126232D01*
X106254596Y-33115322D01*
X106065571Y-33019008D01*
X105840943Y-32946021D01*
X105607672Y-32909075D01*
X105607667Y-32909075D01*
X105371483Y-32909075D01*
X105371478Y-32909075D01*
X105138206Y-32946021D01*
X104913578Y-33019008D01*
X104703141Y-33126232D01*
X104594125Y-33205437D01*
X104512065Y-33265058D01*
X104512063Y-33265060D01*
X104512062Y-33265060D01*
X104345059Y-33432063D01*
X104336641Y-33443650D01*
X104319939Y-33466639D01*
X104319893Y-33466702D01*
X104264562Y-33509367D01*
X104194949Y-33515346D01*
X104133154Y-33482740D01*
X104119257Y-33466702D01*
X104094092Y-33432065D01*
X103927085Y-33265058D01*
X103736008Y-33126232D01*
X103714596Y-33115322D01*
X103525571Y-33019008D01*
X103300943Y-32946021D01*
X103067672Y-32909075D01*
X103067667Y-32909075D01*
X102831483Y-32909075D01*
X102831478Y-32909075D01*
X102598206Y-32946021D01*
X102373578Y-33019008D01*
X102163141Y-33126232D01*
X102054125Y-33205437D01*
X101972065Y-33265058D01*
X101972063Y-33265060D01*
X101972061Y-33265061D01*
X101803968Y-33433154D01*
X101742645Y-33466639D01*
X101706558Y-33469091D01*
X101703825Y-33468875D01*
X100892537Y-34280164D01*
X100875500Y-34216582D01*
X100809674Y-34102568D01*
X100716582Y-34009476D01*
X100602568Y-33943650D01*
X100538983Y-33926612D01*
X101350273Y-33115323D01*
X101248158Y-33041132D01*
X101023759Y-32926794D01*
X100784244Y-32848972D01*
X100535503Y-32809575D01*
X100283647Y-32809575D01*
X100034905Y-32848972D01*
X99795390Y-32926794D01*
X99570988Y-33041134D01*
X99468876Y-33115322D01*
X99468875Y-33115323D01*
X100280165Y-33926612D01*
X100216582Y-33943650D01*
X100102568Y-34009476D01*
X100009476Y-34102568D01*
X99943650Y-34216582D01*
X99926612Y-34280165D01*
X99115323Y-33468875D01*
X99115322Y-33468876D01*
X99041134Y-33570988D01*
X98926794Y-33795390D01*
X98848972Y-34034905D01*
X98809575Y-34283646D01*
X98809575Y-34535503D01*
X98848972Y-34784244D01*
X98926794Y-35023759D01*
X99041132Y-35248158D01*
X99115323Y-35350272D01*
X99115323Y-35350273D01*
X99926612Y-34538984D01*
X99943650Y-34602568D01*
X100009476Y-34716582D01*
X100102568Y-34809674D01*
X100216582Y-34875500D01*
X100280165Y-34892537D01*
X99468875Y-35703825D01*
X99570991Y-35778017D01*
X99795390Y-35892355D01*
X100034905Y-35970177D01*
X100283647Y-36009575D01*
X100535503Y-36009575D01*
X100784244Y-35970177D01*
X101023759Y-35892355D01*
X101248150Y-35778021D01*
X101248156Y-35778017D01*
X101350272Y-35703825D01*
X101350273Y-35703825D01*
X100538984Y-34892537D01*
X100602568Y-34875500D01*
X100716582Y-34809674D01*
X100809674Y-34716582D01*
X100875500Y-34602568D01*
X100892537Y-34538985D01*
X101703823Y-35350271D01*
X101706555Y-35350057D01*
X101774933Y-35364420D01*
X101803967Y-35385994D01*
X101967976Y-35550003D01*
X102001461Y-35611326D01*
X101996477Y-35681018D01*
X101967976Y-35725365D01*
X99277887Y-38415454D01*
X99201222Y-38530192D01*
X99148421Y-38657667D01*
X99148418Y-38657679D01*
X99122541Y-38787775D01*
X99122538Y-38787792D01*
X99121500Y-38793004D01*
X99121500Y-59665631D01*
X99101815Y-59732670D01*
X99085181Y-59753312D01*
X93629984Y-65208508D01*
X93568661Y-65241993D01*
X93498969Y-65237009D01*
X93443036Y-65195137D01*
X93419830Y-65140225D01*
X93398128Y-65003206D01*
X93325141Y-64778578D01*
X93231752Y-64595293D01*
X93217918Y-64568142D01*
X93079092Y-64377065D01*
X92912085Y-64210058D01*
X92877447Y-64184892D01*
X92834782Y-64129564D01*
X92828803Y-64059950D01*
X92861408Y-63998155D01*
X92877448Y-63984257D01*
X92877849Y-63983966D01*
X92912085Y-63959092D01*
X93079092Y-63792085D01*
X93217918Y-63601008D01*
X93325143Y-63390567D01*
X93398128Y-63165943D01*
X93407280Y-63108158D01*
X93435075Y-62932672D01*
X93435075Y-62696477D01*
X93398128Y-62463206D01*
X93353996Y-62327384D01*
X93325143Y-62238583D01*
X93325141Y-62238580D01*
X93325141Y-62238578D01*
X93217917Y-62028141D01*
X93197496Y-62000034D01*
X93079092Y-61837065D01*
X92912085Y-61670058D01*
X92877447Y-61644892D01*
X92834782Y-61589564D01*
X92828803Y-61519950D01*
X92861408Y-61458155D01*
X92877448Y-61444257D01*
X92912085Y-61419092D01*
X93079092Y-61252085D01*
X93217918Y-61061008D01*
X93325143Y-60850567D01*
X93398128Y-60625943D01*
X93400467Y-60611177D01*
X93435075Y-60392670D01*
X93435075Y-60156477D01*
X93398128Y-59923206D01*
X93350527Y-59776707D01*
X93325143Y-59698583D01*
X93325141Y-59698580D01*
X93325141Y-59698578D01*
X93217917Y-59488141D01*
X93079092Y-59297065D01*
X92912085Y-59130058D01*
X92877447Y-59104892D01*
X92834782Y-59049564D01*
X92828803Y-58979950D01*
X92861408Y-58918155D01*
X92877448Y-58904257D01*
X92912085Y-58879092D01*
X93079092Y-58712085D01*
X93217918Y-58521008D01*
X93325143Y-58310567D01*
X93398128Y-58085943D01*
X93401608Y-58063969D01*
X93435075Y-57852672D01*
X93435075Y-57616477D01*
X93398128Y-57383206D01*
X93331384Y-57177791D01*
X93325143Y-57158583D01*
X93325141Y-57158580D01*
X93325141Y-57158578D01*
X93256549Y-57023960D01*
X93217918Y-56948142D01*
X93079092Y-56757065D01*
X92912085Y-56590058D01*
X92801442Y-56509671D01*
X92721006Y-56451230D01*
X92602779Y-56390990D01*
X92551984Y-56343016D01*
X92535075Y-56280506D01*
X92535075Y-39307257D01*
X96109575Y-39307257D01*
X96109575Y-39511892D01*
X96141584Y-39713992D01*
X96204819Y-39908606D01*
X96297716Y-40090925D01*
X96297722Y-40090934D01*
X96330098Y-40135496D01*
X96330099Y-40135497D01*
X97009575Y-39456021D01*
X97009575Y-39462236D01*
X97036834Y-39563969D01*
X97089495Y-39655181D01*
X97163969Y-39729655D01*
X97255181Y-39782316D01*
X97356914Y-39809575D01*
X97363128Y-39809575D01*
X96683651Y-40489049D01*
X96728225Y-40521434D01*
X96910543Y-40614330D01*
X97105157Y-40677565D01*
X97307258Y-40709575D01*
X97511892Y-40709575D01*
X97713992Y-40677565D01*
X97908606Y-40614330D01*
X98090924Y-40521434D01*
X98135496Y-40489049D01*
X97456022Y-39809575D01*
X97462236Y-39809575D01*
X97563969Y-39782316D01*
X97655181Y-39729655D01*
X97729655Y-39655181D01*
X97782316Y-39563969D01*
X97809575Y-39462236D01*
X97809575Y-39456023D01*
X98489049Y-40135497D01*
X98489049Y-40135496D01*
X98521434Y-40090924D01*
X98614330Y-39908606D01*
X98677565Y-39713992D01*
X98709575Y-39511892D01*
X98709575Y-39307257D01*
X98677565Y-39105157D01*
X98614330Y-38910543D01*
X98521434Y-38728225D01*
X98489049Y-38683652D01*
X98489049Y-38683651D01*
X97809575Y-39363126D01*
X97809575Y-39356914D01*
X97782316Y-39255181D01*
X97729655Y-39163969D01*
X97655181Y-39089495D01*
X97563969Y-39036834D01*
X97462236Y-39009575D01*
X97456021Y-39009575D01*
X98135497Y-38330099D01*
X98135496Y-38330098D01*
X98090934Y-38297722D01*
X98090925Y-38297716D01*
X97908606Y-38204819D01*
X97713992Y-38141584D01*
X97511892Y-38109575D01*
X97307258Y-38109575D01*
X97105157Y-38141584D01*
X96910543Y-38204819D01*
X96728219Y-38297718D01*
X96683652Y-38330098D01*
X96683652Y-38330099D01*
X97363129Y-39009575D01*
X97356914Y-39009575D01*
X97255181Y-39036834D01*
X97163969Y-39089495D01*
X97089495Y-39163969D01*
X97036834Y-39255181D01*
X97009575Y-39356914D01*
X97009575Y-39363128D01*
X96330099Y-38683652D01*
X96330098Y-38683652D01*
X96297718Y-38728219D01*
X96204819Y-38910543D01*
X96141584Y-39105157D01*
X96109575Y-39307257D01*
X92535075Y-39307257D01*
X92535075Y-38665522D01*
X92554760Y-38598483D01*
X92571394Y-38577841D01*
X103080416Y-28068819D01*
X103141739Y-28035334D01*
X103168097Y-28032500D01*
X141491903Y-28032500D01*
X141558942Y-28052185D01*
G37*
%TD.AperFunction*%
%TA.AperFunction,Conductor*%
G36*
X138176517Y-23029760D02*
G01*
X138197159Y-23046394D01*
X139025038Y-23874273D01*
X139025048Y-23874284D01*
X139029378Y-23878614D01*
X139029379Y-23878615D01*
X139141183Y-23990419D01*
X139223614Y-24038010D01*
X139278114Y-24069476D01*
X139430842Y-24110399D01*
X139588956Y-24110399D01*
X139799903Y-24110399D01*
X139866942Y-24130084D01*
X139887584Y-24146718D01*
X145400959Y-29660093D01*
X145434444Y-29721416D01*
X145429460Y-29791108D01*
X145387588Y-29847041D01*
X145322124Y-29871458D01*
X145295070Y-29870430D01*
X145281009Y-29868342D01*
X145231313Y-29848745D01*
X145142460Y-29838075D01*
X145077112Y-29838075D01*
X145068058Y-29836731D01*
X145044316Y-29825757D01*
X145019227Y-29818390D01*
X145012016Y-29810827D01*
X145004636Y-29807416D01*
X144996356Y-29794403D01*
X144978875Y-29776068D01*
X144975866Y-29770856D01*
X144970095Y-29760859D01*
X144858291Y-29649055D01*
X144858290Y-29649054D01*
X144853960Y-29644724D01*
X144853949Y-29644714D01*
X142279590Y-27070355D01*
X142279588Y-27070352D01*
X142160717Y-26951481D01*
X142160716Y-26951480D01*
X142073904Y-26901360D01*
X142073904Y-26901359D01*
X142073900Y-26901358D01*
X142023785Y-26872423D01*
X141871057Y-26831499D01*
X141712943Y-26831499D01*
X141705347Y-26831499D01*
X141705331Y-26831500D01*
X102954669Y-26831500D01*
X102954653Y-26831499D01*
X102947057Y-26831499D01*
X102788943Y-26831499D01*
X102681587Y-26860265D01*
X102636210Y-26872424D01*
X102636209Y-26872425D01*
X102586096Y-26901359D01*
X102586095Y-26901360D01*
X102542689Y-26926420D01*
X102499285Y-26951479D01*
X102499282Y-26951481D01*
X91454056Y-37996707D01*
X91454055Y-37996709D01*
X91417759Y-38059577D01*
X91403936Y-38083519D01*
X91403934Y-38083521D01*
X91375000Y-38133634D01*
X91374999Y-38133635D01*
X91364454Y-38172989D01*
X91334074Y-38286368D01*
X91334074Y-38286370D01*
X91334074Y-38454471D01*
X91334075Y-38454484D01*
X91334075Y-56280506D01*
X91314390Y-56347545D01*
X91266371Y-56390990D01*
X91148143Y-56451230D01*
X91014471Y-56548349D01*
X90957065Y-56590058D01*
X90957063Y-56590060D01*
X90957062Y-56590060D01*
X90790060Y-56757062D01*
X90790060Y-56757063D01*
X90790058Y-56757065D01*
X90760522Y-56797718D01*
X90651232Y-56948141D01*
X90544008Y-57158578D01*
X90471021Y-57383206D01*
X90434075Y-57616477D01*
X90434075Y-57852672D01*
X90471021Y-58085943D01*
X90544008Y-58310571D01*
X90647917Y-58514502D01*
X90651232Y-58521008D01*
X90790058Y-58712085D01*
X90957065Y-58879092D01*
X90991702Y-58904258D01*
X91034367Y-58959588D01*
X91040346Y-59029201D01*
X91007740Y-59090996D01*
X90991705Y-59104890D01*
X90978713Y-59114330D01*
X90957063Y-59130059D01*
X90790060Y-59297062D01*
X90790060Y-59297063D01*
X90790058Y-59297065D01*
X90780606Y-59310075D01*
X90651232Y-59488141D01*
X90544008Y-59698578D01*
X90471021Y-59923206D01*
X90434075Y-60156477D01*
X90434075Y-60392668D01*
X90434074Y-60392670D01*
X90471021Y-60625943D01*
X90544008Y-60850571D01*
X90651232Y-61061008D01*
X90790058Y-61252085D01*
X90957065Y-61419092D01*
X90991702Y-61444258D01*
X91034367Y-61499588D01*
X91040346Y-61569201D01*
X91007740Y-61630996D01*
X90991705Y-61644890D01*
X90977254Y-61655390D01*
X90957063Y-61670059D01*
X90790060Y-61837062D01*
X90790060Y-61837063D01*
X90790058Y-61837065D01*
X90759071Y-61879715D01*
X90651232Y-62028141D01*
X90544008Y-62238578D01*
X90471021Y-62463206D01*
X90434075Y-62696477D01*
X90434075Y-62932672D01*
X90471021Y-63165943D01*
X90544008Y-63390571D01*
X90632286Y-63563824D01*
X90651232Y-63601008D01*
X90790058Y-63792085D01*
X90957065Y-63959092D01*
X90991702Y-63984258D01*
X91034367Y-64039588D01*
X91040346Y-64109201D01*
X91007740Y-64170996D01*
X90991705Y-64184890D01*
X90982663Y-64191460D01*
X90957063Y-64210059D01*
X90790060Y-64377062D01*
X90790060Y-64377063D01*
X90790058Y-64377065D01*
X90731105Y-64458206D01*
X90651232Y-64568141D01*
X90590992Y-64686370D01*
X90543017Y-64737166D01*
X90480507Y-64754075D01*
X90134672Y-64754075D01*
X90067633Y-64734390D01*
X90046991Y-64717756D01*
X88820694Y-63491459D01*
X88787209Y-63430136D01*
X88784375Y-63403778D01*
X88784375Y-57957335D01*
X88784376Y-57957322D01*
X88784376Y-57789219D01*
X88783266Y-57785075D01*
X88743452Y-57636491D01*
X88735615Y-57622917D01*
X88664399Y-57499565D01*
X88664393Y-57499557D01*
X77046394Y-45881558D01*
X77012909Y-45820235D01*
X77010075Y-45793877D01*
X77010075Y-39073646D01*
X77834575Y-39073646D01*
X77834575Y-39325503D01*
X77873972Y-39574244D01*
X77951794Y-39813759D01*
X78066132Y-40038158D01*
X78140323Y-40140272D01*
X78140323Y-40140273D01*
X78951612Y-39328984D01*
X78968650Y-39392568D01*
X79034476Y-39506582D01*
X79127568Y-39599674D01*
X79241582Y-39665500D01*
X79305165Y-39682537D01*
X78493875Y-40493825D01*
X78595991Y-40568017D01*
X78820390Y-40682355D01*
X79059905Y-40760177D01*
X79308647Y-40799575D01*
X79560503Y-40799575D01*
X79809243Y-40760178D01*
X80003349Y-40697109D01*
X80073190Y-40695114D01*
X80133023Y-40731194D01*
X80163851Y-40793895D01*
X80155886Y-40863309D01*
X80152152Y-40871335D01*
X80044009Y-41083578D01*
X79971021Y-41308206D01*
X79934075Y-41541477D01*
X79934075Y-41777672D01*
X79971021Y-42010943D01*
X80044008Y-42235571D01*
X80128988Y-42402352D01*
X80151232Y-42446008D01*
X80290058Y-42637085D01*
X80457065Y-42804092D01*
X80648142Y-42942918D01*
X80724085Y-42981613D01*
X80858578Y-43050141D01*
X80858580Y-43050141D01*
X80858583Y-43050143D01*
X80978987Y-43089264D01*
X81083206Y-43123128D01*
X81316478Y-43160075D01*
X81316483Y-43160075D01*
X81552672Y-43160075D01*
X81785943Y-43123128D01*
X81818606Y-43112515D01*
X82010567Y-43050143D01*
X82221008Y-42942918D01*
X82412085Y-42804092D01*
X82579092Y-42637085D01*
X82579094Y-42637081D01*
X82580181Y-42635995D01*
X82641504Y-42602510D01*
X82677591Y-42600058D01*
X82680323Y-42600273D01*
X83491612Y-41788984D01*
X83508650Y-41852568D01*
X83574476Y-41966582D01*
X83667568Y-42059674D01*
X83781582Y-42125500D01*
X83845165Y-42142537D01*
X83033875Y-42953825D01*
X83135991Y-43028017D01*
X83360390Y-43142355D01*
X83599905Y-43220177D01*
X83848647Y-43259575D01*
X84100503Y-43259575D01*
X84349244Y-43220177D01*
X84588759Y-43142355D01*
X84813150Y-43028021D01*
X84813156Y-43028017D01*
X84915272Y-42953825D01*
X84915273Y-42953825D01*
X84103984Y-42142537D01*
X84167568Y-42125500D01*
X84281582Y-42059674D01*
X84374674Y-41966582D01*
X84440500Y-41852568D01*
X84457537Y-41788985D01*
X85268823Y-42600271D01*
X85271555Y-42600057D01*
X85339933Y-42614420D01*
X85368967Y-42635994D01*
X85370058Y-42637085D01*
X85537065Y-42804092D01*
X85728142Y-42942918D01*
X85804085Y-42981613D01*
X85938578Y-43050141D01*
X85938580Y-43050141D01*
X85938583Y-43050143D01*
X86058987Y-43089264D01*
X86163206Y-43123128D01*
X86396478Y-43160075D01*
X86396483Y-43160075D01*
X86632672Y-43160075D01*
X86865943Y-43123128D01*
X86898606Y-43112515D01*
X87090567Y-43050143D01*
X87301008Y-42942918D01*
X87492085Y-42804092D01*
X87659092Y-42637085D01*
X87797918Y-42446008D01*
X87905143Y-42235567D01*
X87978128Y-42010943D01*
X87980579Y-41995466D01*
X88015075Y-41777672D01*
X88015075Y-41541477D01*
X87978128Y-41308206D01*
X87905141Y-41083578D01*
X87797917Y-40873141D01*
X87744468Y-40799575D01*
X87659092Y-40682065D01*
X87492085Y-40515058D01*
X87301008Y-40376232D01*
X87279596Y-40365322D01*
X87090571Y-40269008D01*
X86865943Y-40196021D01*
X86632672Y-40159075D01*
X86632667Y-40159075D01*
X86396483Y-40159075D01*
X86396478Y-40159075D01*
X86163206Y-40196021D01*
X85938578Y-40269008D01*
X85728141Y-40376232D01*
X85619125Y-40455437D01*
X85537065Y-40515058D01*
X85537063Y-40515060D01*
X85537061Y-40515061D01*
X85368968Y-40683154D01*
X85307645Y-40716639D01*
X85271558Y-40719091D01*
X85268825Y-40718875D01*
X84457537Y-41530164D01*
X84440500Y-41466582D01*
X84374674Y-41352568D01*
X84281582Y-41259476D01*
X84167568Y-41193650D01*
X84103983Y-41176612D01*
X84915273Y-40365323D01*
X84813158Y-40291132D01*
X84588759Y-40176794D01*
X84349244Y-40098972D01*
X84100503Y-40059575D01*
X83848647Y-40059575D01*
X83599905Y-40098972D01*
X83360390Y-40176794D01*
X83135988Y-40291134D01*
X83033876Y-40365322D01*
X83033875Y-40365323D01*
X83845165Y-41176612D01*
X83781582Y-41193650D01*
X83667568Y-41259476D01*
X83574476Y-41352568D01*
X83508650Y-41466582D01*
X83491612Y-41530165D01*
X82680323Y-40718875D01*
X82677591Y-40719091D01*
X82609213Y-40704727D01*
X82580181Y-40683154D01*
X82412084Y-40515057D01*
X82411127Y-40514362D01*
X82221008Y-40376232D01*
X82199596Y-40365322D01*
X82010571Y-40269008D01*
X81785943Y-40196021D01*
X81552672Y-40159075D01*
X81552667Y-40159075D01*
X81316483Y-40159075D01*
X81316478Y-40159075D01*
X81083205Y-40196022D01*
X81083202Y-40196022D01*
X80929251Y-40246045D01*
X80859410Y-40248040D01*
X80799577Y-40211960D01*
X80768749Y-40149259D01*
X80776714Y-40079845D01*
X80790617Y-40055226D01*
X80803016Y-40038160D01*
X80917355Y-39813759D01*
X80995177Y-39574244D01*
X81034575Y-39325503D01*
X81034575Y-39073646D01*
X80995177Y-38824905D01*
X80917355Y-38585390D01*
X80803017Y-38360991D01*
X80728825Y-38258876D01*
X80728825Y-38258875D01*
X79917537Y-39070165D01*
X79900500Y-39006582D01*
X79834674Y-38892568D01*
X79741582Y-38799476D01*
X79627568Y-38733650D01*
X79563983Y-38716612D01*
X80375273Y-37905323D01*
X80375058Y-37902591D01*
X80389422Y-37834213D01*
X80410995Y-37805181D01*
X80412081Y-37804094D01*
X80412085Y-37804092D01*
X80579092Y-37637085D01*
X80717918Y-37446008D01*
X80727207Y-37427778D01*
X80775183Y-37376983D01*
X80837691Y-37360075D01*
X89393421Y-37360075D01*
X89484465Y-37341964D01*
X89528753Y-37333155D01*
X89592494Y-37306752D01*
X89656232Y-37280352D01*
X89656233Y-37280351D01*
X89656236Y-37280350D01*
X89770968Y-37203689D01*
X101345838Y-25628819D01*
X101407161Y-25595334D01*
X101433519Y-25592500D01*
X125255226Y-25592500D01*
X125322265Y-25612185D01*
X125368020Y-25664989D01*
X125374303Y-25681907D01*
X125380255Y-25702396D01*
X125463917Y-25843862D01*
X125463923Y-25843870D01*
X125580129Y-25960076D01*
X125580133Y-25960079D01*
X125580135Y-25960081D01*
X125721602Y-26043744D01*
X125763224Y-26055836D01*
X125879426Y-26089597D01*
X125879429Y-26089597D01*
X125879431Y-26089598D01*
X125916306Y-26092500D01*
X125916314Y-26092500D01*
X127147686Y-26092500D01*
X127147694Y-26092500D01*
X127184569Y-26089598D01*
X127184571Y-26089597D01*
X127184573Y-26089597D01*
X127226191Y-26077505D01*
X127342398Y-26043744D01*
X127483865Y-25960081D01*
X127600081Y-25843865D01*
X127683744Y-25702398D01*
X127707437Y-25620846D01*
X127745041Y-25561964D01*
X127808513Y-25532757D01*
X127877700Y-25542503D01*
X127926830Y-25582559D01*
X127952522Y-25617921D01*
X127952524Y-25617922D01*
X128632000Y-24938446D01*
X128632000Y-24944661D01*
X128659259Y-25046394D01*
X128711920Y-25137606D01*
X128786394Y-25212080D01*
X128877606Y-25264741D01*
X128979339Y-25292000D01*
X128985553Y-25292000D01*
X128306076Y-25971474D01*
X128350650Y-26003859D01*
X128532968Y-26096755D01*
X128727582Y-26159990D01*
X128929683Y-26192000D01*
X129134317Y-26192000D01*
X129336417Y-26159990D01*
X129531031Y-26096755D01*
X129713349Y-26003859D01*
X129757921Y-25971474D01*
X129078447Y-25292000D01*
X129084661Y-25292000D01*
X129186394Y-25264741D01*
X129277606Y-25212080D01*
X129352080Y-25137606D01*
X129404741Y-25046394D01*
X129432000Y-24944661D01*
X129432000Y-24938447D01*
X130111474Y-25617921D01*
X130143859Y-25573349D01*
X130236755Y-25391031D01*
X130299990Y-25196417D01*
X130332000Y-24994317D01*
X130332000Y-24789682D01*
X130299990Y-24587582D01*
X130236755Y-24392968D01*
X130143859Y-24210650D01*
X130111474Y-24166077D01*
X130111474Y-24166076D01*
X129432000Y-24845551D01*
X129432000Y-24839339D01*
X129404741Y-24737606D01*
X129352080Y-24646394D01*
X129277606Y-24571920D01*
X129186394Y-24519259D01*
X129084661Y-24492000D01*
X129078446Y-24492000D01*
X129757922Y-23812524D01*
X129757921Y-23812523D01*
X129713359Y-23780147D01*
X129713350Y-23780141D01*
X129531031Y-23687244D01*
X129336417Y-23624009D01*
X129134317Y-23592000D01*
X128929683Y-23592000D01*
X128727582Y-23624009D01*
X128532968Y-23687244D01*
X128350644Y-23780143D01*
X128306077Y-23812523D01*
X128306077Y-23812524D01*
X128985554Y-24492000D01*
X128979339Y-24492000D01*
X128877606Y-24519259D01*
X128786394Y-24571920D01*
X128711920Y-24646394D01*
X128659259Y-24737606D01*
X128632000Y-24839339D01*
X128632000Y-24845553D01*
X127952524Y-24166077D01*
X127952522Y-24166077D01*
X127926830Y-24201440D01*
X127871500Y-24244106D01*
X127801887Y-24250085D01*
X127740092Y-24217479D01*
X127707436Y-24163151D01*
X127683744Y-24081602D01*
X127600081Y-23940135D01*
X127600080Y-23940133D01*
X127483870Y-23823923D01*
X127483862Y-23823917D01*
X127342396Y-23740255D01*
X127342393Y-23740254D01*
X127184573Y-23694402D01*
X127184567Y-23694401D01*
X127147701Y-23691500D01*
X127147694Y-23691500D01*
X125916306Y-23691500D01*
X125916298Y-23691500D01*
X125879432Y-23694401D01*
X125879426Y-23694402D01*
X125721606Y-23740254D01*
X125721603Y-23740255D01*
X125580137Y-23823917D01*
X125580129Y-23823923D01*
X125463923Y-23940129D01*
X125463917Y-23940137D01*
X125380255Y-24081603D01*
X125374303Y-24102093D01*
X125336697Y-24160980D01*
X125273225Y-24190187D01*
X125255226Y-24191500D01*
X101023003Y-24191500D01*
X100914590Y-24213065D01*
X100914589Y-24213065D01*
X100887671Y-24218420D01*
X100760190Y-24271224D01*
X100645454Y-24347887D01*
X100645453Y-24347888D01*
X89070587Y-35922756D01*
X89009264Y-35956241D01*
X88982906Y-35959075D01*
X80837691Y-35959075D01*
X80770652Y-35939390D01*
X80727207Y-35891372D01*
X80723263Y-35883633D01*
X80717918Y-35873142D01*
X80579092Y-35682065D01*
X80412085Y-35515058D01*
X80221008Y-35376232D01*
X80197826Y-35364420D01*
X80010571Y-35269008D01*
X79785943Y-35196021D01*
X79552672Y-35159075D01*
X79552667Y-35159075D01*
X79316483Y-35159075D01*
X79316478Y-35159075D01*
X79083206Y-35196021D01*
X78858578Y-35269008D01*
X78648141Y-35376232D01*
X78539125Y-35455437D01*
X78457065Y-35515058D01*
X78457063Y-35515060D01*
X78457062Y-35515060D01*
X78290060Y-35682062D01*
X78290060Y-35682063D01*
X78290058Y-35682065D01*
X78233298Y-35760188D01*
X78151232Y-35873141D01*
X78044008Y-36083578D01*
X77971021Y-36308206D01*
X77934075Y-36541477D01*
X77934075Y-36777672D01*
X77971021Y-37010943D01*
X78044008Y-37235571D01*
X78093731Y-37333156D01*
X78151232Y-37446008D01*
X78290058Y-37637085D01*
X78290060Y-37637087D01*
X78458154Y-37805181D01*
X78491639Y-37866504D01*
X78494091Y-37902591D01*
X78493875Y-37905323D01*
X79305165Y-38716612D01*
X79241582Y-38733650D01*
X79127568Y-38799476D01*
X79034476Y-38892568D01*
X78968650Y-39006582D01*
X78951612Y-39070165D01*
X78140323Y-38258875D01*
X78140322Y-38258876D01*
X78066134Y-38360988D01*
X77951794Y-38585390D01*
X77873972Y-38824905D01*
X77834575Y-39073646D01*
X77010075Y-39073646D01*
X77010075Y-36292071D01*
X77029760Y-36225032D01*
X77046389Y-36204395D01*
X79697394Y-33553389D01*
X79758717Y-33519905D01*
X79828409Y-33524889D01*
X79884342Y-33566761D01*
X79908759Y-33632225D01*
X79909075Y-33641071D01*
X79909075Y-33752672D01*
X79946021Y-33985943D01*
X80019008Y-34210571D01*
X80120406Y-34409574D01*
X80126232Y-34421008D01*
X80265058Y-34612085D01*
X80432065Y-34779092D01*
X80623142Y-34917918D01*
X80684291Y-34949075D01*
X80833578Y-35025141D01*
X80833580Y-35025141D01*
X80833583Y-35025143D01*
X80937805Y-35059007D01*
X81058206Y-35098128D01*
X81291478Y-35135075D01*
X81291483Y-35135075D01*
X81527672Y-35135075D01*
X81760943Y-35098128D01*
X81985567Y-35025143D01*
X82196008Y-34917918D01*
X82387085Y-34779092D01*
X82554092Y-34612085D01*
X82579257Y-34577447D01*
X82634586Y-34534782D01*
X82704200Y-34528803D01*
X82765995Y-34561408D01*
X82779890Y-34577445D01*
X82805058Y-34612085D01*
X82972065Y-34779092D01*
X83163142Y-34917918D01*
X83224291Y-34949075D01*
X83373578Y-35025141D01*
X83373580Y-35025141D01*
X83373583Y-35025143D01*
X83477805Y-35059007D01*
X83598206Y-35098128D01*
X83831478Y-35135075D01*
X83831483Y-35135075D01*
X84067672Y-35135075D01*
X84300943Y-35098128D01*
X84525567Y-35025143D01*
X84736008Y-34917918D01*
X84927085Y-34779092D01*
X85094092Y-34612085D01*
X85119257Y-34577447D01*
X85174586Y-34534782D01*
X85244200Y-34528803D01*
X85305995Y-34561408D01*
X85319890Y-34577445D01*
X85345058Y-34612085D01*
X85512065Y-34779092D01*
X85703142Y-34917918D01*
X85764291Y-34949075D01*
X85913578Y-35025141D01*
X85913580Y-35025141D01*
X85913583Y-35025143D01*
X86017805Y-35059007D01*
X86138206Y-35098128D01*
X86371478Y-35135075D01*
X86371483Y-35135075D01*
X86607672Y-35135075D01*
X86840943Y-35098128D01*
X87065567Y-35025143D01*
X87276008Y-34917918D01*
X87467085Y-34779092D01*
X87634092Y-34612085D01*
X87772918Y-34421008D01*
X87880143Y-34210567D01*
X87953128Y-33985943D01*
X87959827Y-33943650D01*
X87990075Y-33752672D01*
X87990075Y-33516477D01*
X87953128Y-33283206D01*
X87905956Y-33138026D01*
X87880143Y-33058583D01*
X87880141Y-33058580D01*
X87880141Y-33058578D01*
X87803965Y-32909075D01*
X87772918Y-32848142D01*
X87634092Y-32657065D01*
X87467085Y-32490058D01*
X87276008Y-32351232D01*
X87065571Y-32244008D01*
X86840943Y-32171021D01*
X86607672Y-32134075D01*
X86607667Y-32134075D01*
X86371483Y-32134075D01*
X86371478Y-32134075D01*
X86138206Y-32171021D01*
X85913578Y-32244008D01*
X85703141Y-32351232D01*
X85631478Y-32403299D01*
X85512065Y-32490058D01*
X85512063Y-32490060D01*
X85512062Y-32490060D01*
X85345059Y-32657063D01*
X85319893Y-32691702D01*
X85264562Y-32734367D01*
X85194949Y-32740346D01*
X85133154Y-32707740D01*
X85119257Y-32691702D01*
X85094092Y-32657065D01*
X84927085Y-32490058D01*
X84736008Y-32351232D01*
X84525571Y-32244008D01*
X84300943Y-32171021D01*
X84067672Y-32134075D01*
X84067667Y-32134075D01*
X83831483Y-32134075D01*
X83831478Y-32134075D01*
X83598206Y-32171021D01*
X83373578Y-32244008D01*
X83163141Y-32351232D01*
X83091478Y-32403299D01*
X82972065Y-32490058D01*
X82972063Y-32490060D01*
X82972062Y-32490060D01*
X82805059Y-32657063D01*
X82779893Y-32691702D01*
X82724562Y-32734367D01*
X82654949Y-32740346D01*
X82593154Y-32707740D01*
X82579257Y-32691702D01*
X82554092Y-32657065D01*
X82387085Y-32490058D01*
X82196008Y-32351232D01*
X81985571Y-32244008D01*
X81760943Y-32171021D01*
X81527672Y-32134075D01*
X81527667Y-32134075D01*
X81416071Y-32134075D01*
X81349032Y-32114390D01*
X81303277Y-32061586D01*
X81293333Y-31992428D01*
X81322358Y-31928872D01*
X81328390Y-31922394D01*
X90204391Y-23046394D01*
X90265714Y-23012909D01*
X90292072Y-23010075D01*
X138109478Y-23010075D01*
X138176517Y-23029760D01*
G37*
%TD.AperFunction*%
%TA.AperFunction,Conductor*%
G36*
X130599228Y-30084185D02*
G01*
X130644983Y-30136989D01*
X130654927Y-30206147D01*
X130647545Y-30233985D01*
X130642774Y-30246082D01*
X130637744Y-30258838D01*
X130631878Y-30307691D01*
X130627075Y-30347690D01*
X130627075Y-30347696D01*
X130627075Y-31390947D01*
X130607390Y-31457986D01*
X130603394Y-31463831D01*
X130553700Y-31532229D01*
X130553699Y-31532231D01*
X130450439Y-31734890D01*
X130380156Y-31951198D01*
X130380156Y-31951201D01*
X130344575Y-32175851D01*
X130344575Y-32403298D01*
X130380156Y-32627948D01*
X130380156Y-32627951D01*
X130450439Y-32844259D01*
X130502290Y-32946022D01*
X130553700Y-33046920D01*
X130687391Y-33230929D01*
X130848221Y-33391759D01*
X130951284Y-33466639D01*
X131032231Y-33525451D01*
X131087066Y-33553390D01*
X131121369Y-33570868D01*
X131172165Y-33618842D01*
X131189075Y-33681353D01*
X131189075Y-34471705D01*
X131189074Y-34471723D01*
X131189074Y-34637429D01*
X131189073Y-34637429D01*
X131229998Y-34790160D01*
X131258933Y-34840275D01*
X131258934Y-34840279D01*
X131258935Y-34840279D01*
X131303758Y-34917917D01*
X131309054Y-34927089D01*
X131309056Y-34927092D01*
X131427924Y-35045960D01*
X131427929Y-35045964D01*
X134606884Y-38224920D01*
X134606886Y-38224921D01*
X134606890Y-38224924D01*
X134732975Y-38297718D01*
X134743816Y-38303977D01*
X134896543Y-38344901D01*
X134896545Y-38344901D01*
X135062254Y-38344901D01*
X135062270Y-38344900D01*
X143489303Y-38344900D01*
X143556342Y-38364585D01*
X143576984Y-38381219D01*
X148072756Y-42876991D01*
X148106241Y-42938314D01*
X148109075Y-42964672D01*
X148109075Y-46284396D01*
X148089390Y-46351435D01*
X148036586Y-46397190D01*
X147967428Y-46407134D01*
X147912189Y-46384714D01*
X147831046Y-46325760D01*
X147786920Y-46293700D01*
X147697776Y-46248279D01*
X147584259Y-46190439D01*
X147367950Y-46120156D01*
X147181080Y-46090559D01*
X147143299Y-46084575D01*
X146915851Y-46084575D01*
X146878070Y-46090559D01*
X146691201Y-46120156D01*
X146691198Y-46120156D01*
X146474890Y-46190439D01*
X146272229Y-46293700D01*
X146196016Y-46349073D01*
X146088221Y-46427391D01*
X146088219Y-46427393D01*
X146088218Y-46427393D01*
X145927393Y-46588218D01*
X145927388Y-46588224D01*
X145921385Y-46596487D01*
X145866054Y-46639151D01*
X145796440Y-46645129D01*
X145768824Y-46630556D01*
X145744091Y-46628609D01*
X144972537Y-47400164D01*
X144955500Y-47336582D01*
X144889674Y-47222568D01*
X144796582Y-47129476D01*
X144682568Y-47063650D01*
X144618983Y-47046612D01*
X145390539Y-46275057D01*
X145299069Y-46208600D01*
X145082461Y-46098232D01*
X144851246Y-46023106D01*
X144611129Y-45985075D01*
X144368021Y-45985075D01*
X144127903Y-46023106D01*
X143896688Y-46098232D01*
X143680076Y-46208602D01*
X143588610Y-46275056D01*
X143588609Y-46275057D01*
X144360165Y-47046612D01*
X144296582Y-47063650D01*
X144182568Y-47129476D01*
X144089476Y-47222568D01*
X144023650Y-47336582D01*
X144006612Y-47400165D01*
X143235057Y-46628609D01*
X143214649Y-46630216D01*
X143203061Y-46639151D01*
X143133447Y-46645126D01*
X143071654Y-46612516D01*
X143057761Y-46596482D01*
X143051761Y-46588224D01*
X143051756Y-46588218D01*
X142890931Y-46427393D01*
X142890929Y-46427391D01*
X142706920Y-46293700D01*
X142617776Y-46248279D01*
X142504259Y-46190439D01*
X142287950Y-46120156D01*
X142101080Y-46090559D01*
X142063299Y-46084575D01*
X141835851Y-46084575D01*
X141798070Y-46090559D01*
X141611201Y-46120156D01*
X141611198Y-46120156D01*
X141394890Y-46190439D01*
X141192229Y-46293700D01*
X141116016Y-46349073D01*
X141008221Y-46427391D01*
X141008219Y-46427393D01*
X141008218Y-46427393D01*
X140847393Y-46588218D01*
X140847393Y-46588219D01*
X140847391Y-46588221D01*
X140816880Y-46630216D01*
X140779893Y-46681124D01*
X140724563Y-46723789D01*
X140654949Y-46729768D01*
X140593154Y-46697162D01*
X140579257Y-46681124D01*
X140511759Y-46588221D01*
X140350929Y-46427391D01*
X140166920Y-46293700D01*
X140077776Y-46248279D01*
X139964259Y-46190439D01*
X139749957Y-46120809D01*
X139700594Y-46090559D01*
X138003190Y-44393155D01*
X138003188Y-44393152D01*
X137884317Y-44274281D01*
X137884316Y-44274280D01*
X137787776Y-44218543D01*
X137787775Y-44218542D01*
X137747390Y-44195225D01*
X137747387Y-44195223D01*
X137686293Y-44178853D01*
X137594657Y-44154299D01*
X137436543Y-44154299D01*
X137428947Y-44154299D01*
X137428931Y-44154300D01*
X135046446Y-44154300D01*
X134979407Y-44134615D01*
X134958765Y-44117981D01*
X134076739Y-43235955D01*
X134076737Y-43235952D01*
X133957866Y-43117081D01*
X133957858Y-43117075D01*
X133841927Y-43050143D01*
X133841926Y-43050142D01*
X133827171Y-43041624D01*
X133820934Y-43038023D01*
X133668206Y-42997099D01*
X133510092Y-42997099D01*
X133502496Y-42997099D01*
X133502480Y-42997100D01*
X130054498Y-42997100D01*
X129987459Y-42977415D01*
X129966817Y-42960781D01*
X126696729Y-39690693D01*
X123254389Y-36248354D01*
X123254388Y-36248352D01*
X123135517Y-36129481D01*
X123135516Y-36129480D01*
X123025975Y-36066237D01*
X123025974Y-36066236D01*
X123005923Y-36054660D01*
X122998585Y-36050423D01*
X122998584Y-36050422D01*
X122998583Y-36050422D01*
X122942681Y-36035443D01*
X122845857Y-36009499D01*
X122687743Y-36009499D01*
X122680147Y-36009499D01*
X122680131Y-36009500D01*
X118871179Y-36009500D01*
X118804140Y-35989815D01*
X118758385Y-35937011D01*
X118748441Y-35867853D01*
X118777466Y-35804297D01*
X118814884Y-35775015D01*
X118864936Y-35749512D01*
X118976008Y-35692918D01*
X119167085Y-35554092D01*
X119334092Y-35387085D01*
X119472918Y-35196008D01*
X119580143Y-34985567D01*
X119653128Y-34760943D01*
X119672691Y-34637429D01*
X119690075Y-34527672D01*
X119690075Y-34291477D01*
X119653128Y-34058206D01*
X119629648Y-33985943D01*
X119580143Y-33833583D01*
X119554699Y-33783646D01*
X125284575Y-33783646D01*
X125284575Y-34035503D01*
X125323972Y-34284244D01*
X125401794Y-34523759D01*
X125516132Y-34748158D01*
X125590323Y-34850272D01*
X125590323Y-34850273D01*
X126401612Y-34038984D01*
X126418650Y-34102568D01*
X126484476Y-34216582D01*
X126577568Y-34309674D01*
X126691582Y-34375500D01*
X126755165Y-34392537D01*
X125943875Y-35203825D01*
X125944091Y-35206558D01*
X125929727Y-35274936D01*
X125908154Y-35303968D01*
X125740061Y-35472061D01*
X125740060Y-35472063D01*
X125740058Y-35472065D01*
X125708822Y-35515058D01*
X125601232Y-35663141D01*
X125494008Y-35873578D01*
X125421021Y-36098206D01*
X125384075Y-36331477D01*
X125384075Y-36567672D01*
X125421021Y-36800943D01*
X125494008Y-37025571D01*
X125601007Y-37235567D01*
X125601232Y-37236008D01*
X125740058Y-37427085D01*
X125907065Y-37594092D01*
X126098142Y-37732918D01*
X126197566Y-37783577D01*
X126308578Y-37840141D01*
X126308580Y-37840141D01*
X126308583Y-37840143D01*
X126428987Y-37879264D01*
X126533206Y-37913128D01*
X126766478Y-37950075D01*
X126766483Y-37950075D01*
X127002672Y-37950075D01*
X127235943Y-37913128D01*
X127268372Y-37902591D01*
X127460567Y-37840143D01*
X127671008Y-37732918D01*
X127862085Y-37594092D01*
X128029092Y-37427085D01*
X128167918Y-37236008D01*
X128275143Y-37025567D01*
X128348128Y-36800943D01*
X128351815Y-36777667D01*
X128385075Y-36567672D01*
X128385075Y-36331477D01*
X128348128Y-36098206D01*
X128287000Y-35910075D01*
X128275143Y-35873583D01*
X128275141Y-35873580D01*
X128275141Y-35873578D01*
X128199622Y-35725365D01*
X128167918Y-35663142D01*
X128029092Y-35472065D01*
X127862085Y-35305058D01*
X127860994Y-35303967D01*
X127827509Y-35242644D01*
X127825057Y-35206555D01*
X127825271Y-35203824D01*
X127013984Y-34392537D01*
X127077568Y-34375500D01*
X127191582Y-34309674D01*
X127284674Y-34216582D01*
X127350500Y-34102568D01*
X127367537Y-34038985D01*
X128178825Y-34850273D01*
X128178825Y-34850272D01*
X128253017Y-34748156D01*
X128253021Y-34748150D01*
X128367355Y-34523759D01*
X128445177Y-34284244D01*
X128484575Y-34035503D01*
X128484575Y-33783646D01*
X128445177Y-33534905D01*
X128367355Y-33295390D01*
X128253017Y-33070991D01*
X128178825Y-32968876D01*
X128178825Y-32968875D01*
X127367537Y-33780164D01*
X127350500Y-33716582D01*
X127284674Y-33602568D01*
X127191582Y-33509476D01*
X127077568Y-33443650D01*
X127013983Y-33426612D01*
X127825273Y-32615323D01*
X127723158Y-32541132D01*
X127498759Y-32426794D01*
X127259244Y-32348972D01*
X127010503Y-32309575D01*
X126758647Y-32309575D01*
X126509905Y-32348972D01*
X126270390Y-32426794D01*
X126045988Y-32541134D01*
X125943876Y-32615322D01*
X125943875Y-32615323D01*
X126755165Y-33426612D01*
X126691582Y-33443650D01*
X126577568Y-33509476D01*
X126484476Y-33602568D01*
X126418650Y-33716582D01*
X126401612Y-33780165D01*
X125590323Y-32968875D01*
X125590322Y-32968876D01*
X125516134Y-33070988D01*
X125401794Y-33295390D01*
X125323972Y-33534905D01*
X125284575Y-33783646D01*
X119554699Y-33783646D01*
X119472918Y-33623142D01*
X119334092Y-33432065D01*
X119167085Y-33265058D01*
X118976008Y-33126232D01*
X118954596Y-33115322D01*
X118765571Y-33019008D01*
X118540943Y-32946021D01*
X118307672Y-32909075D01*
X118307667Y-32909075D01*
X118071483Y-32909075D01*
X118071478Y-32909075D01*
X117838206Y-32946021D01*
X117613578Y-33019008D01*
X117403141Y-33126232D01*
X117294125Y-33205437D01*
X117212065Y-33265058D01*
X117212063Y-33265060D01*
X117212062Y-33265060D01*
X117045059Y-33432063D01*
X117036641Y-33443650D01*
X117019939Y-33466639D01*
X117019893Y-33466702D01*
X116964562Y-33509367D01*
X116894949Y-33515346D01*
X116833154Y-33482740D01*
X116819257Y-33466702D01*
X116794092Y-33432065D01*
X116627085Y-33265058D01*
X116436008Y-33126232D01*
X116414596Y-33115322D01*
X116225571Y-33019008D01*
X116000943Y-32946021D01*
X115767672Y-32909075D01*
X115767667Y-32909075D01*
X115531483Y-32909075D01*
X115531478Y-32909075D01*
X115298206Y-32946021D01*
X115073578Y-33019008D01*
X114863141Y-33126232D01*
X114754125Y-33205437D01*
X114672065Y-33265058D01*
X114672063Y-33265060D01*
X114672062Y-33265060D01*
X114505059Y-33432063D01*
X114496641Y-33443650D01*
X114479939Y-33466639D01*
X114479893Y-33466702D01*
X114424562Y-33509367D01*
X114354949Y-33515346D01*
X114293154Y-33482740D01*
X114279257Y-33466702D01*
X114254092Y-33432065D01*
X114087085Y-33265058D01*
X113991546Y-33195645D01*
X113896006Y-33126230D01*
X113777779Y-33065990D01*
X113726984Y-33018016D01*
X113710075Y-32955506D01*
X113710075Y-32605522D01*
X113729760Y-32538483D01*
X113746394Y-32517841D01*
X116163417Y-30100819D01*
X116224740Y-30067334D01*
X116251098Y-30064500D01*
X130532189Y-30064500D01*
X130599228Y-30084185D01*
G37*
%TD.AperFunction*%
%TD*%
M02*
