%TF.GenerationSoftware,KiCad,Pcbnew,10.0.3-2.fc44*%
%TF.CreationDate,2026-06-16T15:59:11-04:00*%
%TF.ProjectId,SupaClock_Carrier,53757061-436c-46f6-936b-5f4361727269,v1.0*%
%TF.SameCoordinates,Original*%
%TF.FileFunction,Soldermask,Top*%
%TF.FilePolarity,Negative*%
%FSLAX46Y46*%
G04 Gerber Fmt 4.6, Leading zero omitted, Abs format (unit mm)*
G04 Created by KiCad (PCBNEW 10.0.3-2.fc44) date 2026-06-16 15:59:11*
%MOMM*%
%LPD*%
G01*
G04 APERTURE LIST*
G04 Aperture macros list*
%AMRoundRect*
0 Rectangle with rounded corners*
0 $1 Rounding radius*
0 $2 $3 $4 $5 $6 $7 $8 $9 X,Y pos of 4 corners*
0 Add a 4 corners polygon primitive as box body*
4,1,4,$2,$3,$4,$5,$6,$7,$8,$9,$2,$3,0*
0 Add four circle primitives for the rounded corners*
1,1,$1+$1,$2,$3*
1,1,$1+$1,$4,$5*
1,1,$1+$1,$6,$7*
1,1,$1+$1,$8,$9*
0 Add four rect primitives between the rounded corners*
20,1,$1+$1,$2,$3,$4,$5,0*
20,1,$1+$1,$4,$5,$6,$7,0*
20,1,$1+$1,$6,$7,$8,$9,0*
20,1,$1+$1,$8,$9,$2,$3,0*%
G04 Aperture macros list end*
%ADD10C,2.200000*%
%ADD11C,1.600000*%
%ADD12R,1.300000X1.450000*%
%ADD13C,6.000000*%
%ADD14RoundRect,0.250000X-0.550000X-0.550000X0.550000X-0.550000X0.550000X0.550000X-0.550000X0.550000X0*%
%ADD15RoundRect,0.525400X-0.525400X0.900400X-0.525400X-0.900400X0.525400X-0.900400X0.525400X0.900400X0*%
%ADD16C,1.700000*%
%ADD17RoundRect,0.625000X-0.625000X0.750000X-0.625000X-0.750000X0.625000X-0.750000X0.625000X0.750000X0*%
%ADD18RoundRect,0.275000X0.275000X-0.975000X0.275000X0.975000X-0.275000X0.975000X-0.275000X-0.975000X0*%
G04 APERTURE END LIST*
D10*
%TO.C,J11*%
X91934575Y-70434575D03*
X91934575Y-67894575D03*
X91934575Y-65354575D03*
X91934575Y-62814575D03*
X91934575Y-60274575D03*
X91934575Y-57734575D03*
%TD*%
D11*
%TO.C,C6*%
X102409575Y-39409575D03*
X97409575Y-39409575D03*
%TD*%
%TO.C,R5*%
X116409575Y-39409575D03*
X108789575Y-39409575D03*
%TD*%
D10*
%TO.C,J13*%
X77934575Y-80434575D03*
X75394575Y-80434575D03*
X72854575Y-80434575D03*
%TD*%
D12*
%TO.C,SW1*%
X144909575Y-75909575D03*
X144909575Y-69159575D03*
X148009575Y-75909575D03*
X148009575Y-69159575D03*
%TD*%
D10*
%TO.C,J5*%
X128384575Y-77509575D03*
X128384575Y-74969575D03*
X128384575Y-72429575D03*
X128384575Y-69889575D03*
X128384575Y-67349575D03*
X128384575Y-64809575D03*
X128384575Y-62269575D03*
%TD*%
%TO.C,J6a1*%
X81434575Y-41659575D03*
X83974575Y-41659575D03*
X86514575Y-41659575D03*
%TD*%
D13*
%TO.C,J12_RA1*%
X107500000Y-84000000D03*
%TD*%
D10*
%TO.C,J6b1*%
X81409575Y-33634575D03*
X83949575Y-33634575D03*
X86489575Y-33634575D03*
%TD*%
D14*
%TO.C,C2*%
X126532000Y-24892000D03*
D11*
X129032000Y-24892000D03*
%TD*%
D10*
%TO.C,J7*%
X118189575Y-34409575D03*
X115649575Y-34409575D03*
X113109575Y-34409575D03*
X110569575Y-34409575D03*
X108029575Y-34409575D03*
X105489575Y-34409575D03*
X102949575Y-34409575D03*
X100409575Y-34409575D03*
%TD*%
D11*
%TO.C,C3*%
X140409575Y-52909575D03*
X140409575Y-57909575D03*
%TD*%
D13*
%TO.C,J12_LA1*%
X129909575Y-55909575D03*
%TD*%
%TO.C,J12_RL1*%
X76500000Y-56500000D03*
%TD*%
D12*
%TO.C,SW2*%
X144809575Y-63409575D03*
X144809575Y-56659575D03*
X147909575Y-63409575D03*
X147909575Y-56659575D03*
%TD*%
D15*
%TO.C,U1*%
X146812000Y-31496000D03*
X144272000Y-31496000D03*
X141732000Y-31496000D03*
X139192000Y-31496000D03*
X136652000Y-31496000D03*
X134112000Y-31496000D03*
X131572000Y-31496000D03*
X131572000Y-47661000D03*
X134112000Y-47661000D03*
X136652000Y-47661000D03*
X139192000Y-47661000D03*
X141732000Y-47661000D03*
X144272000Y-47661000D03*
X146812000Y-47661000D03*
D16*
X147824000Y-38281000D03*
X147824000Y-40821000D03*
X145284000Y-38281000D03*
X145284000Y-40821000D03*
X142744000Y-38281000D03*
X142744000Y-40821000D03*
X140204000Y-38281000D03*
X140204000Y-40821000D03*
D17*
X137192000Y-40671000D03*
D18*
X139574000Y-35106000D03*
X141479000Y-35106000D03*
%TD*%
D10*
%TO.C,J6c1*%
X79434575Y-36659575D03*
X79434575Y-39199575D03*
%TD*%
M02*
