%TF.GenerationSoftware,KiCad,Pcbnew,10.0.3-2.fc44*%
%TF.CreationDate,2026-06-16T15:59:11-04:00*%
%TF.ProjectId,SupaClock_Carrier,53757061-436c-46f6-936b-5f4361727269,v1.0*%
%TF.SameCoordinates,Original*%
%TF.FileFunction,Legend,Top*%
%TF.FilePolarity,Positive*%
%FSLAX46Y46*%
G04 Gerber Fmt 4.6, Leading zero omitted, Abs format (unit mm)*
G04 Created by KiCad (PCBNEW 10.0.3-2.fc44) date 2026-06-16 15:59:11*
%MOMM*%
%LPD*%
G01*
G04 APERTURE LIST*
%ADD10C,0.150000*%
%ADD11C,0.250000*%
%ADD12C,0.120000*%
%ADD13C,0.100000*%
%ADD14C,0.127000*%
%ADD15C,0.504000*%
G04 APERTURE END LIST*
D10*
X64934575Y-46434575D02*
X92934575Y-46434575D01*
X92934575Y-81764575D01*
X64934575Y-81764575D01*
X64934575Y-46434575D01*
X66959575Y-32659575D02*
X90959575Y-32659575D01*
X90959575Y-42659575D01*
X66959575Y-42659575D01*
X66959575Y-32659575D01*
X93909575Y-32409575D02*
X124909575Y-32409575D01*
X124909575Y-80409575D01*
X93909575Y-80409575D01*
X93909575Y-32409575D01*
X99909575Y-48099575D02*
X117909575Y-48099575D01*
X117909575Y-61099575D01*
X99909575Y-61099575D01*
X99909575Y-48099575D01*
X126884575Y-60969575D02*
X139884575Y-60969575D01*
X139884575Y-78969575D01*
X126884575Y-78969575D01*
X126884575Y-60969575D01*
D11*
X151800075Y-35088148D02*
X151728646Y-35302434D01*
X151728646Y-35302434D02*
X151728646Y-35659576D01*
X151728646Y-35659576D02*
X151800075Y-35802434D01*
X151800075Y-35802434D02*
X151871503Y-35873862D01*
X151871503Y-35873862D02*
X152014360Y-35945291D01*
X152014360Y-35945291D02*
X152157217Y-35945291D01*
X152157217Y-35945291D02*
X152300075Y-35873862D01*
X152300075Y-35873862D02*
X152371503Y-35802434D01*
X152371503Y-35802434D02*
X152442932Y-35659576D01*
X152442932Y-35659576D02*
X152514360Y-35373862D01*
X152514360Y-35373862D02*
X152585789Y-35231005D01*
X152585789Y-35231005D02*
X152657217Y-35159576D01*
X152657217Y-35159576D02*
X152800075Y-35088148D01*
X152800075Y-35088148D02*
X152942932Y-35088148D01*
X152942932Y-35088148D02*
X153085789Y-35159576D01*
X153085789Y-35159576D02*
X153157217Y-35231005D01*
X153157217Y-35231005D02*
X153228646Y-35373862D01*
X153228646Y-35373862D02*
X153228646Y-35731005D01*
X153228646Y-35731005D02*
X153157217Y-35945291D01*
X152728646Y-37231005D02*
X151728646Y-37231005D01*
X152728646Y-36588147D02*
X151942932Y-36588147D01*
X151942932Y-36588147D02*
X151800075Y-36659576D01*
X151800075Y-36659576D02*
X151728646Y-36802433D01*
X151728646Y-36802433D02*
X151728646Y-37016719D01*
X151728646Y-37016719D02*
X151800075Y-37159576D01*
X151800075Y-37159576D02*
X151871503Y-37231005D01*
X152728646Y-37945290D02*
X151228646Y-37945290D01*
X152657217Y-37945290D02*
X152728646Y-38088148D01*
X152728646Y-38088148D02*
X152728646Y-38373862D01*
X152728646Y-38373862D02*
X152657217Y-38516719D01*
X152657217Y-38516719D02*
X152585789Y-38588148D01*
X152585789Y-38588148D02*
X152442932Y-38659576D01*
X152442932Y-38659576D02*
X152014360Y-38659576D01*
X152014360Y-38659576D02*
X151871503Y-38588148D01*
X151871503Y-38588148D02*
X151800075Y-38516719D01*
X151800075Y-38516719D02*
X151728646Y-38373862D01*
X151728646Y-38373862D02*
X151728646Y-38088148D01*
X151728646Y-38088148D02*
X151800075Y-37945290D01*
X151728646Y-39945291D02*
X152514360Y-39945291D01*
X152514360Y-39945291D02*
X152657217Y-39873862D01*
X152657217Y-39873862D02*
X152728646Y-39731005D01*
X152728646Y-39731005D02*
X152728646Y-39445291D01*
X152728646Y-39445291D02*
X152657217Y-39302433D01*
X151800075Y-39945291D02*
X151728646Y-39802433D01*
X151728646Y-39802433D02*
X151728646Y-39445291D01*
X151728646Y-39445291D02*
X151800075Y-39302433D01*
X151800075Y-39302433D02*
X151942932Y-39231005D01*
X151942932Y-39231005D02*
X152085789Y-39231005D01*
X152085789Y-39231005D02*
X152228646Y-39302433D01*
X152228646Y-39302433D02*
X152300075Y-39445291D01*
X152300075Y-39445291D02*
X152300075Y-39802433D01*
X152300075Y-39802433D02*
X152371503Y-39945291D01*
X151871503Y-41516719D02*
X151800075Y-41445291D01*
X151800075Y-41445291D02*
X151728646Y-41231005D01*
X151728646Y-41231005D02*
X151728646Y-41088148D01*
X151728646Y-41088148D02*
X151800075Y-40873862D01*
X151800075Y-40873862D02*
X151942932Y-40731005D01*
X151942932Y-40731005D02*
X152085789Y-40659576D01*
X152085789Y-40659576D02*
X152371503Y-40588148D01*
X152371503Y-40588148D02*
X152585789Y-40588148D01*
X152585789Y-40588148D02*
X152871503Y-40659576D01*
X152871503Y-40659576D02*
X153014360Y-40731005D01*
X153014360Y-40731005D02*
X153157217Y-40873862D01*
X153157217Y-40873862D02*
X153228646Y-41088148D01*
X153228646Y-41088148D02*
X153228646Y-41231005D01*
X153228646Y-41231005D02*
X153157217Y-41445291D01*
X153157217Y-41445291D02*
X153085789Y-41516719D01*
X151728646Y-42373862D02*
X151800075Y-42231005D01*
X151800075Y-42231005D02*
X151942932Y-42159576D01*
X151942932Y-42159576D02*
X153228646Y-42159576D01*
X151728646Y-43159576D02*
X151800075Y-43016719D01*
X151800075Y-43016719D02*
X151871503Y-42945290D01*
X151871503Y-42945290D02*
X152014360Y-42873862D01*
X152014360Y-42873862D02*
X152442932Y-42873862D01*
X152442932Y-42873862D02*
X152585789Y-42945290D01*
X152585789Y-42945290D02*
X152657217Y-43016719D01*
X152657217Y-43016719D02*
X152728646Y-43159576D01*
X152728646Y-43159576D02*
X152728646Y-43373862D01*
X152728646Y-43373862D02*
X152657217Y-43516719D01*
X152657217Y-43516719D02*
X152585789Y-43588148D01*
X152585789Y-43588148D02*
X152442932Y-43659576D01*
X152442932Y-43659576D02*
X152014360Y-43659576D01*
X152014360Y-43659576D02*
X151871503Y-43588148D01*
X151871503Y-43588148D02*
X151800075Y-43516719D01*
X151800075Y-43516719D02*
X151728646Y-43373862D01*
X151728646Y-43373862D02*
X151728646Y-43159576D01*
X151800075Y-44945291D02*
X151728646Y-44802433D01*
X151728646Y-44802433D02*
X151728646Y-44516719D01*
X151728646Y-44516719D02*
X151800075Y-44373862D01*
X151800075Y-44373862D02*
X151871503Y-44302433D01*
X151871503Y-44302433D02*
X152014360Y-44231005D01*
X152014360Y-44231005D02*
X152442932Y-44231005D01*
X152442932Y-44231005D02*
X152585789Y-44302433D01*
X152585789Y-44302433D02*
X152657217Y-44373862D01*
X152657217Y-44373862D02*
X152728646Y-44516719D01*
X152728646Y-44516719D02*
X152728646Y-44802433D01*
X152728646Y-44802433D02*
X152657217Y-44945291D01*
X151728646Y-45588147D02*
X153228646Y-45588147D01*
X152300075Y-45731005D02*
X151728646Y-46159576D01*
X152728646Y-46159576D02*
X152157217Y-45588147D01*
X152728646Y-47802433D02*
X151728646Y-48159576D01*
X151728646Y-48159576D02*
X152728646Y-48516719D01*
X151728646Y-49873862D02*
X151728646Y-49016719D01*
X151728646Y-49445290D02*
X153228646Y-49445290D01*
X153228646Y-49445290D02*
X153014360Y-49302433D01*
X153014360Y-49302433D02*
X152871503Y-49159576D01*
X152871503Y-49159576D02*
X152800075Y-49016719D01*
X152300075Y-51659575D02*
X152300075Y-52802433D01*
X151871503Y-55516718D02*
X151800075Y-55445290D01*
X151800075Y-55445290D02*
X151728646Y-55231004D01*
X151728646Y-55231004D02*
X151728646Y-55088147D01*
X151728646Y-55088147D02*
X151800075Y-54873861D01*
X151800075Y-54873861D02*
X151942932Y-54731004D01*
X151942932Y-54731004D02*
X152085789Y-54659575D01*
X152085789Y-54659575D02*
X152371503Y-54588147D01*
X152371503Y-54588147D02*
X152585789Y-54588147D01*
X152585789Y-54588147D02*
X152871503Y-54659575D01*
X152871503Y-54659575D02*
X153014360Y-54731004D01*
X153014360Y-54731004D02*
X153157217Y-54873861D01*
X153157217Y-54873861D02*
X153228646Y-55088147D01*
X153228646Y-55088147D02*
X153228646Y-55231004D01*
X153228646Y-55231004D02*
X153157217Y-55445290D01*
X153157217Y-55445290D02*
X153085789Y-55516718D01*
X151728646Y-56802433D02*
X152514360Y-56802433D01*
X152514360Y-56802433D02*
X152657217Y-56731004D01*
X152657217Y-56731004D02*
X152728646Y-56588147D01*
X152728646Y-56588147D02*
X152728646Y-56302433D01*
X152728646Y-56302433D02*
X152657217Y-56159575D01*
X151800075Y-56802433D02*
X151728646Y-56659575D01*
X151728646Y-56659575D02*
X151728646Y-56302433D01*
X151728646Y-56302433D02*
X151800075Y-56159575D01*
X151800075Y-56159575D02*
X151942932Y-56088147D01*
X151942932Y-56088147D02*
X152085789Y-56088147D01*
X152085789Y-56088147D02*
X152228646Y-56159575D01*
X152228646Y-56159575D02*
X152300075Y-56302433D01*
X152300075Y-56302433D02*
X152300075Y-56659575D01*
X152300075Y-56659575D02*
X152371503Y-56802433D01*
X151728646Y-57516718D02*
X152728646Y-57516718D01*
X152442932Y-57516718D02*
X152585789Y-57588147D01*
X152585789Y-57588147D02*
X152657217Y-57659576D01*
X152657217Y-57659576D02*
X152728646Y-57802433D01*
X152728646Y-57802433D02*
X152728646Y-57945290D01*
X151728646Y-58445289D02*
X152728646Y-58445289D01*
X152442932Y-58445289D02*
X152585789Y-58516718D01*
X152585789Y-58516718D02*
X152657217Y-58588147D01*
X152657217Y-58588147D02*
X152728646Y-58731004D01*
X152728646Y-58731004D02*
X152728646Y-58873861D01*
X151728646Y-59373860D02*
X152728646Y-59373860D01*
X153228646Y-59373860D02*
X153157217Y-59302432D01*
X153157217Y-59302432D02*
X153085789Y-59373860D01*
X153085789Y-59373860D02*
X153157217Y-59445289D01*
X153157217Y-59445289D02*
X153228646Y-59373860D01*
X153228646Y-59373860D02*
X153085789Y-59373860D01*
X151800075Y-60659575D02*
X151728646Y-60516718D01*
X151728646Y-60516718D02*
X151728646Y-60231004D01*
X151728646Y-60231004D02*
X151800075Y-60088146D01*
X151800075Y-60088146D02*
X151942932Y-60016718D01*
X151942932Y-60016718D02*
X152514360Y-60016718D01*
X152514360Y-60016718D02*
X152657217Y-60088146D01*
X152657217Y-60088146D02*
X152728646Y-60231004D01*
X152728646Y-60231004D02*
X152728646Y-60516718D01*
X152728646Y-60516718D02*
X152657217Y-60659575D01*
X152657217Y-60659575D02*
X152514360Y-60731004D01*
X152514360Y-60731004D02*
X152371503Y-60731004D01*
X152371503Y-60731004D02*
X152228646Y-60016718D01*
X151728646Y-61373860D02*
X152728646Y-61373860D01*
X152442932Y-61373860D02*
X152585789Y-61445289D01*
X152585789Y-61445289D02*
X152657217Y-61516718D01*
X152657217Y-61516718D02*
X152728646Y-61659575D01*
X152728646Y-61659575D02*
X152728646Y-61802432D01*
X153228646Y-64088146D02*
X153228646Y-63802431D01*
X153228646Y-63802431D02*
X153157217Y-63659574D01*
X153157217Y-63659574D02*
X153085789Y-63588146D01*
X153085789Y-63588146D02*
X152871503Y-63445288D01*
X152871503Y-63445288D02*
X152585789Y-63373860D01*
X152585789Y-63373860D02*
X152014360Y-63373860D01*
X152014360Y-63373860D02*
X151871503Y-63445288D01*
X151871503Y-63445288D02*
X151800075Y-63516717D01*
X151800075Y-63516717D02*
X151728646Y-63659574D01*
X151728646Y-63659574D02*
X151728646Y-63945288D01*
X151728646Y-63945288D02*
X151800075Y-64088146D01*
X151800075Y-64088146D02*
X151871503Y-64159574D01*
X151871503Y-64159574D02*
X152014360Y-64231003D01*
X152014360Y-64231003D02*
X152371503Y-64231003D01*
X152371503Y-64231003D02*
X152514360Y-64159574D01*
X152514360Y-64159574D02*
X152585789Y-64088146D01*
X152585789Y-64088146D02*
X152657217Y-63945288D01*
X152657217Y-63945288D02*
X152657217Y-63659574D01*
X152657217Y-63659574D02*
X152585789Y-63516717D01*
X152585789Y-63516717D02*
X152514360Y-63445288D01*
X152514360Y-63445288D02*
X152371503Y-63373860D01*
X153228646Y-64731002D02*
X153228646Y-65731002D01*
X153228646Y-65731002D02*
X151728646Y-65088145D01*
X151728646Y-66159573D02*
X152728646Y-66945288D01*
X152728646Y-66159573D02*
X151728646Y-66945288D01*
X152585789Y-67731002D02*
X152657217Y-67588145D01*
X152657217Y-67588145D02*
X152728646Y-67516716D01*
X152728646Y-67516716D02*
X152871503Y-67445288D01*
X152871503Y-67445288D02*
X152942932Y-67445288D01*
X152942932Y-67445288D02*
X153085789Y-67516716D01*
X153085789Y-67516716D02*
X153157217Y-67588145D01*
X153157217Y-67588145D02*
X153228646Y-67731002D01*
X153228646Y-67731002D02*
X153228646Y-68016716D01*
X153228646Y-68016716D02*
X153157217Y-68159574D01*
X153157217Y-68159574D02*
X153085789Y-68231002D01*
X153085789Y-68231002D02*
X152942932Y-68302431D01*
X152942932Y-68302431D02*
X152871503Y-68302431D01*
X152871503Y-68302431D02*
X152728646Y-68231002D01*
X152728646Y-68231002D02*
X152657217Y-68159574D01*
X152657217Y-68159574D02*
X152585789Y-68016716D01*
X152585789Y-68016716D02*
X152585789Y-67731002D01*
X152585789Y-67731002D02*
X152514360Y-67588145D01*
X152514360Y-67588145D02*
X152442932Y-67516716D01*
X152442932Y-67516716D02*
X152300075Y-67445288D01*
X152300075Y-67445288D02*
X152014360Y-67445288D01*
X152014360Y-67445288D02*
X151871503Y-67516716D01*
X151871503Y-67516716D02*
X151800075Y-67588145D01*
X151800075Y-67588145D02*
X151728646Y-67731002D01*
X151728646Y-67731002D02*
X151728646Y-68016716D01*
X151728646Y-68016716D02*
X151800075Y-68159574D01*
X151800075Y-68159574D02*
X151871503Y-68231002D01*
X151871503Y-68231002D02*
X152014360Y-68302431D01*
X152014360Y-68302431D02*
X152300075Y-68302431D01*
X152300075Y-68302431D02*
X152442932Y-68231002D01*
X152442932Y-68231002D02*
X152514360Y-68159574D01*
X152514360Y-68159574D02*
X152585789Y-68016716D01*
X153228646Y-69659573D02*
X153228646Y-68945287D01*
X153228646Y-68945287D02*
X152514360Y-68873859D01*
X152514360Y-68873859D02*
X152585789Y-68945287D01*
X152585789Y-68945287D02*
X152657217Y-69088145D01*
X152657217Y-69088145D02*
X152657217Y-69445287D01*
X152657217Y-69445287D02*
X152585789Y-69588145D01*
X152585789Y-69588145D02*
X152514360Y-69659573D01*
X152514360Y-69659573D02*
X152371503Y-69731002D01*
X152371503Y-69731002D02*
X152014360Y-69731002D01*
X152014360Y-69731002D02*
X151871503Y-69659573D01*
X151871503Y-69659573D02*
X151800075Y-69588145D01*
X151800075Y-69588145D02*
X151728646Y-69445287D01*
X151728646Y-69445287D02*
X151728646Y-69088145D01*
X151728646Y-69088145D02*
X151800075Y-68945287D01*
X151800075Y-68945287D02*
X151871503Y-68873859D01*
X151728646Y-70373858D02*
X152728646Y-70373858D01*
X152585789Y-70373858D02*
X152657217Y-70445287D01*
X152657217Y-70445287D02*
X152728646Y-70588144D01*
X152728646Y-70588144D02*
X152728646Y-70802430D01*
X152728646Y-70802430D02*
X152657217Y-70945287D01*
X152657217Y-70945287D02*
X152514360Y-71016716D01*
X152514360Y-71016716D02*
X151728646Y-71016716D01*
X152514360Y-71016716D02*
X152657217Y-71088144D01*
X152657217Y-71088144D02*
X152728646Y-71231001D01*
X152728646Y-71231001D02*
X152728646Y-71445287D01*
X152728646Y-71445287D02*
X152657217Y-71588144D01*
X152657217Y-71588144D02*
X152514360Y-71659573D01*
X152514360Y-71659573D02*
X151728646Y-71659573D01*
X151728646Y-72373858D02*
X152728646Y-72373858D01*
X152585789Y-72373858D02*
X152657217Y-72445287D01*
X152657217Y-72445287D02*
X152728646Y-72588144D01*
X152728646Y-72588144D02*
X152728646Y-72802430D01*
X152728646Y-72802430D02*
X152657217Y-72945287D01*
X152657217Y-72945287D02*
X152514360Y-73016716D01*
X152514360Y-73016716D02*
X151728646Y-73016716D01*
X152514360Y-73016716D02*
X152657217Y-73088144D01*
X152657217Y-73088144D02*
X152728646Y-73231001D01*
X152728646Y-73231001D02*
X152728646Y-73445287D01*
X152728646Y-73445287D02*
X152657217Y-73588144D01*
X152657217Y-73588144D02*
X152514360Y-73659573D01*
X152514360Y-73659573D02*
X151728646Y-73659573D01*
D10*
X91125051Y-72659394D02*
X91125051Y-73373679D01*
X91125051Y-73373679D02*
X91077432Y-73516536D01*
X91077432Y-73516536D02*
X90982194Y-73611775D01*
X90982194Y-73611775D02*
X90839337Y-73659394D01*
X90839337Y-73659394D02*
X90744099Y-73659394D01*
X92125051Y-73659394D02*
X91553623Y-73659394D01*
X91839337Y-73659394D02*
X91839337Y-72659394D01*
X91839337Y-72659394D02*
X91744099Y-72802251D01*
X91744099Y-72802251D02*
X91648861Y-72897489D01*
X91648861Y-72897489D02*
X91553623Y-72945108D01*
X93077432Y-73659394D02*
X92506004Y-73659394D01*
X92791718Y-73659394D02*
X92791718Y-72659394D01*
X92791718Y-72659394D02*
X92696480Y-72802251D01*
X92696480Y-72802251D02*
X92601242Y-72897489D01*
X92601242Y-72897489D02*
X92506004Y-72945108D01*
X99742908Y-42269155D02*
X99695289Y-42316775D01*
X99695289Y-42316775D02*
X99552432Y-42364394D01*
X99552432Y-42364394D02*
X99457194Y-42364394D01*
X99457194Y-42364394D02*
X99314337Y-42316775D01*
X99314337Y-42316775D02*
X99219099Y-42221536D01*
X99219099Y-42221536D02*
X99171480Y-42126298D01*
X99171480Y-42126298D02*
X99123861Y-41935822D01*
X99123861Y-41935822D02*
X99123861Y-41792965D01*
X99123861Y-41792965D02*
X99171480Y-41602489D01*
X99171480Y-41602489D02*
X99219099Y-41507251D01*
X99219099Y-41507251D02*
X99314337Y-41412013D01*
X99314337Y-41412013D02*
X99457194Y-41364394D01*
X99457194Y-41364394D02*
X99552432Y-41364394D01*
X99552432Y-41364394D02*
X99695289Y-41412013D01*
X99695289Y-41412013D02*
X99742908Y-41459632D01*
X100600051Y-41364394D02*
X100409575Y-41364394D01*
X100409575Y-41364394D02*
X100314337Y-41412013D01*
X100314337Y-41412013D02*
X100266718Y-41459632D01*
X100266718Y-41459632D02*
X100171480Y-41602489D01*
X100171480Y-41602489D02*
X100123861Y-41792965D01*
X100123861Y-41792965D02*
X100123861Y-42173917D01*
X100123861Y-42173917D02*
X100171480Y-42269155D01*
X100171480Y-42269155D02*
X100219099Y-42316775D01*
X100219099Y-42316775D02*
X100314337Y-42364394D01*
X100314337Y-42364394D02*
X100504813Y-42364394D01*
X100504813Y-42364394D02*
X100600051Y-42316775D01*
X100600051Y-42316775D02*
X100647670Y-42269155D01*
X100647670Y-42269155D02*
X100695289Y-42173917D01*
X100695289Y-42173917D02*
X100695289Y-41935822D01*
X100695289Y-41935822D02*
X100647670Y-41840584D01*
X100647670Y-41840584D02*
X100600051Y-41792965D01*
X100600051Y-41792965D02*
X100504813Y-41745346D01*
X100504813Y-41745346D02*
X100314337Y-41745346D01*
X100314337Y-41745346D02*
X100219099Y-41792965D01*
X100219099Y-41792965D02*
X100171480Y-41840584D01*
X100171480Y-41840584D02*
X100123861Y-41935822D01*
X112432908Y-42234394D02*
X112099575Y-41758203D01*
X111861480Y-42234394D02*
X111861480Y-41234394D01*
X111861480Y-41234394D02*
X112242432Y-41234394D01*
X112242432Y-41234394D02*
X112337670Y-41282013D01*
X112337670Y-41282013D02*
X112385289Y-41329632D01*
X112385289Y-41329632D02*
X112432908Y-41424870D01*
X112432908Y-41424870D02*
X112432908Y-41567727D01*
X112432908Y-41567727D02*
X112385289Y-41662965D01*
X112385289Y-41662965D02*
X112337670Y-41710584D01*
X112337670Y-41710584D02*
X112242432Y-41758203D01*
X112242432Y-41758203D02*
X111861480Y-41758203D01*
X113337670Y-41234394D02*
X112861480Y-41234394D01*
X112861480Y-41234394D02*
X112813861Y-41710584D01*
X112813861Y-41710584D02*
X112861480Y-41662965D01*
X112861480Y-41662965D02*
X112956718Y-41615346D01*
X112956718Y-41615346D02*
X113194813Y-41615346D01*
X113194813Y-41615346D02*
X113290051Y-41662965D01*
X113290051Y-41662965D02*
X113337670Y-41710584D01*
X113337670Y-41710584D02*
X113385289Y-41805822D01*
X113385289Y-41805822D02*
X113385289Y-42043917D01*
X113385289Y-42043917D02*
X113337670Y-42139155D01*
X113337670Y-42139155D02*
X113290051Y-42186775D01*
X113290051Y-42186775D02*
X113194813Y-42234394D01*
X113194813Y-42234394D02*
X112956718Y-42234394D01*
X112956718Y-42234394D02*
X112861480Y-42186775D01*
X112861480Y-42186775D02*
X112813861Y-42139155D01*
X80159394Y-81244098D02*
X80873679Y-81244098D01*
X80873679Y-81244098D02*
X81016536Y-81291717D01*
X81016536Y-81291717D02*
X81111775Y-81386955D01*
X81111775Y-81386955D02*
X81159394Y-81529812D01*
X81159394Y-81529812D02*
X81159394Y-81625050D01*
X81159394Y-80244098D02*
X81159394Y-80815526D01*
X81159394Y-80529812D02*
X80159394Y-80529812D01*
X80159394Y-80529812D02*
X80302251Y-80625050D01*
X80302251Y-80625050D02*
X80397489Y-80720288D01*
X80397489Y-80720288D02*
X80445108Y-80815526D01*
X80159394Y-79910764D02*
X80159394Y-79291717D01*
X80159394Y-79291717D02*
X80540346Y-79625050D01*
X80540346Y-79625050D02*
X80540346Y-79482193D01*
X80540346Y-79482193D02*
X80587965Y-79386955D01*
X80587965Y-79386955D02*
X80635584Y-79339336D01*
X80635584Y-79339336D02*
X80730822Y-79291717D01*
X80730822Y-79291717D02*
X80968917Y-79291717D01*
X80968917Y-79291717D02*
X81064155Y-79339336D01*
X81064155Y-79339336D02*
X81111775Y-79386955D01*
X81111775Y-79386955D02*
X81159394Y-79482193D01*
X81159394Y-79482193D02*
X81159394Y-79767907D01*
X81159394Y-79767907D02*
X81111775Y-79863145D01*
X81111775Y-79863145D02*
X81064155Y-79910764D01*
X143366775Y-73867907D02*
X143414394Y-73725050D01*
X143414394Y-73725050D02*
X143414394Y-73486955D01*
X143414394Y-73486955D02*
X143366775Y-73391717D01*
X143366775Y-73391717D02*
X143319155Y-73344098D01*
X143319155Y-73344098D02*
X143223917Y-73296479D01*
X143223917Y-73296479D02*
X143128679Y-73296479D01*
X143128679Y-73296479D02*
X143033441Y-73344098D01*
X143033441Y-73344098D02*
X142985822Y-73391717D01*
X142985822Y-73391717D02*
X142938203Y-73486955D01*
X142938203Y-73486955D02*
X142890584Y-73677431D01*
X142890584Y-73677431D02*
X142842965Y-73772669D01*
X142842965Y-73772669D02*
X142795346Y-73820288D01*
X142795346Y-73820288D02*
X142700108Y-73867907D01*
X142700108Y-73867907D02*
X142604870Y-73867907D01*
X142604870Y-73867907D02*
X142509632Y-73820288D01*
X142509632Y-73820288D02*
X142462013Y-73772669D01*
X142462013Y-73772669D02*
X142414394Y-73677431D01*
X142414394Y-73677431D02*
X142414394Y-73439336D01*
X142414394Y-73439336D02*
X142462013Y-73296479D01*
X142414394Y-72963145D02*
X143414394Y-72725050D01*
X143414394Y-72725050D02*
X142700108Y-72534574D01*
X142700108Y-72534574D02*
X143414394Y-72344098D01*
X143414394Y-72344098D02*
X142414394Y-72106003D01*
X143414394Y-71201241D02*
X143414394Y-71772669D01*
X143414394Y-71486955D02*
X142414394Y-71486955D01*
X142414394Y-71486955D02*
X142557251Y-71582193D01*
X142557251Y-71582193D02*
X142652489Y-71677431D01*
X142652489Y-71677431D02*
X142700108Y-71772669D01*
X127839394Y-80612908D02*
X128553679Y-80612908D01*
X128553679Y-80612908D02*
X128696536Y-80660527D01*
X128696536Y-80660527D02*
X128791775Y-80755765D01*
X128791775Y-80755765D02*
X128839394Y-80898622D01*
X128839394Y-80898622D02*
X128839394Y-80993860D01*
X127839394Y-79660527D02*
X127839394Y-80136717D01*
X127839394Y-80136717D02*
X128315584Y-80184336D01*
X128315584Y-80184336D02*
X128267965Y-80136717D01*
X128267965Y-80136717D02*
X128220346Y-80041479D01*
X128220346Y-80041479D02*
X128220346Y-79803384D01*
X128220346Y-79803384D02*
X128267965Y-79708146D01*
X128267965Y-79708146D02*
X128315584Y-79660527D01*
X128315584Y-79660527D02*
X128410822Y-79612908D01*
X128410822Y-79612908D02*
X128648917Y-79612908D01*
X128648917Y-79612908D02*
X128744155Y-79660527D01*
X128744155Y-79660527D02*
X128791775Y-79708146D01*
X128791775Y-79708146D02*
X128839394Y-79803384D01*
X128839394Y-79803384D02*
X128839394Y-80041479D01*
X128839394Y-80041479D02*
X128791775Y-80136717D01*
X128791775Y-80136717D02*
X128744155Y-80184336D01*
X78119394Y-42921479D02*
X78833679Y-42921479D01*
X78833679Y-42921479D02*
X78976536Y-42969098D01*
X78976536Y-42969098D02*
X79071775Y-43064336D01*
X79071775Y-43064336D02*
X79119394Y-43207193D01*
X79119394Y-43207193D02*
X79119394Y-43302431D01*
X78119394Y-42016717D02*
X78119394Y-42207193D01*
X78119394Y-42207193D02*
X78167013Y-42302431D01*
X78167013Y-42302431D02*
X78214632Y-42350050D01*
X78214632Y-42350050D02*
X78357489Y-42445288D01*
X78357489Y-42445288D02*
X78547965Y-42492907D01*
X78547965Y-42492907D02*
X78928917Y-42492907D01*
X78928917Y-42492907D02*
X79024155Y-42445288D01*
X79024155Y-42445288D02*
X79071775Y-42397669D01*
X79071775Y-42397669D02*
X79119394Y-42302431D01*
X79119394Y-42302431D02*
X79119394Y-42111955D01*
X79119394Y-42111955D02*
X79071775Y-42016717D01*
X79071775Y-42016717D02*
X79024155Y-41969098D01*
X79024155Y-41969098D02*
X78928917Y-41921479D01*
X78928917Y-41921479D02*
X78690822Y-41921479D01*
X78690822Y-41921479D02*
X78595584Y-41969098D01*
X78595584Y-41969098D02*
X78547965Y-42016717D01*
X78547965Y-42016717D02*
X78500346Y-42111955D01*
X78500346Y-42111955D02*
X78500346Y-42302431D01*
X78500346Y-42302431D02*
X78547965Y-42397669D01*
X78547965Y-42397669D02*
X78595584Y-42445288D01*
X78595584Y-42445288D02*
X78690822Y-42492907D01*
X79119394Y-41064336D02*
X78595584Y-41064336D01*
X78595584Y-41064336D02*
X78500346Y-41111955D01*
X78500346Y-41111955D02*
X78452727Y-41207193D01*
X78452727Y-41207193D02*
X78452727Y-41397669D01*
X78452727Y-41397669D02*
X78500346Y-41492907D01*
X79071775Y-41064336D02*
X79119394Y-41159574D01*
X79119394Y-41159574D02*
X79119394Y-41397669D01*
X79119394Y-41397669D02*
X79071775Y-41492907D01*
X79071775Y-41492907D02*
X78976536Y-41540526D01*
X78976536Y-41540526D02*
X78881298Y-41540526D01*
X78881298Y-41540526D02*
X78786060Y-41492907D01*
X78786060Y-41492907D02*
X78738441Y-41397669D01*
X78738441Y-41397669D02*
X78738441Y-41159574D01*
X78738441Y-41159574D02*
X78690822Y-41064336D01*
X79119394Y-40064336D02*
X79119394Y-40635764D01*
X79119394Y-40350050D02*
X78119394Y-40350050D01*
X78119394Y-40350050D02*
X78262251Y-40445288D01*
X78262251Y-40445288D02*
X78357489Y-40540526D01*
X78357489Y-40540526D02*
X78405108Y-40635764D01*
X111454819Y-86415238D02*
X112169104Y-86415238D01*
X112169104Y-86415238D02*
X112311961Y-86462857D01*
X112311961Y-86462857D02*
X112407200Y-86558095D01*
X112407200Y-86558095D02*
X112454819Y-86700952D01*
X112454819Y-86700952D02*
X112454819Y-86796190D01*
X112454819Y-85415238D02*
X112454819Y-85986666D01*
X112454819Y-85700952D02*
X111454819Y-85700952D01*
X111454819Y-85700952D02*
X111597676Y-85796190D01*
X111597676Y-85796190D02*
X111692914Y-85891428D01*
X111692914Y-85891428D02*
X111740533Y-85986666D01*
X111550057Y-85034285D02*
X111502438Y-84986666D01*
X111502438Y-84986666D02*
X111454819Y-84891428D01*
X111454819Y-84891428D02*
X111454819Y-84653333D01*
X111454819Y-84653333D02*
X111502438Y-84558095D01*
X111502438Y-84558095D02*
X111550057Y-84510476D01*
X111550057Y-84510476D02*
X111645295Y-84462857D01*
X111645295Y-84462857D02*
X111740533Y-84462857D01*
X111740533Y-84462857D02*
X111883390Y-84510476D01*
X111883390Y-84510476D02*
X112454819Y-85081904D01*
X112454819Y-85081904D02*
X112454819Y-84462857D01*
X112550057Y-84272381D02*
X112550057Y-83510476D01*
X112454819Y-82700952D02*
X111978628Y-83034285D01*
X112454819Y-83272380D02*
X111454819Y-83272380D01*
X111454819Y-83272380D02*
X111454819Y-82891428D01*
X111454819Y-82891428D02*
X111502438Y-82796190D01*
X111502438Y-82796190D02*
X111550057Y-82748571D01*
X111550057Y-82748571D02*
X111645295Y-82700952D01*
X111645295Y-82700952D02*
X111788152Y-82700952D01*
X111788152Y-82700952D02*
X111883390Y-82748571D01*
X111883390Y-82748571D02*
X111931009Y-82796190D01*
X111931009Y-82796190D02*
X111978628Y-82891428D01*
X111978628Y-82891428D02*
X111978628Y-83272380D01*
X112169104Y-82319999D02*
X112169104Y-81843809D01*
X112454819Y-82415237D02*
X111454819Y-82081904D01*
X111454819Y-82081904D02*
X112454819Y-81748571D01*
X112454819Y-80891428D02*
X112454819Y-81462856D01*
X112454819Y-81177142D02*
X111454819Y-81177142D01*
X111454819Y-81177142D02*
X111597676Y-81272380D01*
X111597676Y-81272380D02*
X111692914Y-81367618D01*
X111692914Y-81367618D02*
X111740533Y-81462856D01*
X78094394Y-34896479D02*
X78808679Y-34896479D01*
X78808679Y-34896479D02*
X78951536Y-34944098D01*
X78951536Y-34944098D02*
X79046775Y-35039336D01*
X79046775Y-35039336D02*
X79094394Y-35182193D01*
X79094394Y-35182193D02*
X79094394Y-35277431D01*
X78094394Y-33991717D02*
X78094394Y-34182193D01*
X78094394Y-34182193D02*
X78142013Y-34277431D01*
X78142013Y-34277431D02*
X78189632Y-34325050D01*
X78189632Y-34325050D02*
X78332489Y-34420288D01*
X78332489Y-34420288D02*
X78522965Y-34467907D01*
X78522965Y-34467907D02*
X78903917Y-34467907D01*
X78903917Y-34467907D02*
X78999155Y-34420288D01*
X78999155Y-34420288D02*
X79046775Y-34372669D01*
X79046775Y-34372669D02*
X79094394Y-34277431D01*
X79094394Y-34277431D02*
X79094394Y-34086955D01*
X79094394Y-34086955D02*
X79046775Y-33991717D01*
X79046775Y-33991717D02*
X78999155Y-33944098D01*
X78999155Y-33944098D02*
X78903917Y-33896479D01*
X78903917Y-33896479D02*
X78665822Y-33896479D01*
X78665822Y-33896479D02*
X78570584Y-33944098D01*
X78570584Y-33944098D02*
X78522965Y-33991717D01*
X78522965Y-33991717D02*
X78475346Y-34086955D01*
X78475346Y-34086955D02*
X78475346Y-34277431D01*
X78475346Y-34277431D02*
X78522965Y-34372669D01*
X78522965Y-34372669D02*
X78570584Y-34420288D01*
X78570584Y-34420288D02*
X78665822Y-34467907D01*
X79094394Y-33467907D02*
X78094394Y-33467907D01*
X78475346Y-33467907D02*
X78427727Y-33372669D01*
X78427727Y-33372669D02*
X78427727Y-33182193D01*
X78427727Y-33182193D02*
X78475346Y-33086955D01*
X78475346Y-33086955D02*
X78522965Y-33039336D01*
X78522965Y-33039336D02*
X78618203Y-32991717D01*
X78618203Y-32991717D02*
X78903917Y-32991717D01*
X78903917Y-32991717D02*
X78999155Y-33039336D01*
X78999155Y-33039336D02*
X79046775Y-33086955D01*
X79046775Y-33086955D02*
X79094394Y-33182193D01*
X79094394Y-33182193D02*
X79094394Y-33372669D01*
X79094394Y-33372669D02*
X79046775Y-33467907D01*
X79094394Y-32039336D02*
X79094394Y-32610764D01*
X79094394Y-32325050D02*
X78094394Y-32325050D01*
X78094394Y-32325050D02*
X78237251Y-32420288D01*
X78237251Y-32420288D02*
X78332489Y-32515526D01*
X78332489Y-32515526D02*
X78380108Y-32610764D01*
X127615333Y-21501580D02*
X127567714Y-21549200D01*
X127567714Y-21549200D02*
X127424857Y-21596819D01*
X127424857Y-21596819D02*
X127329619Y-21596819D01*
X127329619Y-21596819D02*
X127186762Y-21549200D01*
X127186762Y-21549200D02*
X127091524Y-21453961D01*
X127091524Y-21453961D02*
X127043905Y-21358723D01*
X127043905Y-21358723D02*
X126996286Y-21168247D01*
X126996286Y-21168247D02*
X126996286Y-21025390D01*
X126996286Y-21025390D02*
X127043905Y-20834914D01*
X127043905Y-20834914D02*
X127091524Y-20739676D01*
X127091524Y-20739676D02*
X127186762Y-20644438D01*
X127186762Y-20644438D02*
X127329619Y-20596819D01*
X127329619Y-20596819D02*
X127424857Y-20596819D01*
X127424857Y-20596819D02*
X127567714Y-20644438D01*
X127567714Y-20644438D02*
X127615333Y-20692057D01*
X127996286Y-20692057D02*
X128043905Y-20644438D01*
X128043905Y-20644438D02*
X128139143Y-20596819D01*
X128139143Y-20596819D02*
X128377238Y-20596819D01*
X128377238Y-20596819D02*
X128472476Y-20644438D01*
X128472476Y-20644438D02*
X128520095Y-20692057D01*
X128520095Y-20692057D02*
X128567714Y-20787295D01*
X128567714Y-20787295D02*
X128567714Y-20882533D01*
X128567714Y-20882533D02*
X128520095Y-21025390D01*
X128520095Y-21025390D02*
X127948667Y-21596819D01*
X127948667Y-21596819D02*
X128567714Y-21596819D01*
X120414394Y-34742908D02*
X121128679Y-34742908D01*
X121128679Y-34742908D02*
X121271536Y-34790527D01*
X121271536Y-34790527D02*
X121366775Y-34885765D01*
X121366775Y-34885765D02*
X121414394Y-35028622D01*
X121414394Y-35028622D02*
X121414394Y-35123860D01*
X120414394Y-34361955D02*
X120414394Y-33695289D01*
X120414394Y-33695289D02*
X121414394Y-34123860D01*
X143269155Y-55576241D02*
X143316775Y-55623860D01*
X143316775Y-55623860D02*
X143364394Y-55766717D01*
X143364394Y-55766717D02*
X143364394Y-55861955D01*
X143364394Y-55861955D02*
X143316775Y-56004812D01*
X143316775Y-56004812D02*
X143221536Y-56100050D01*
X143221536Y-56100050D02*
X143126298Y-56147669D01*
X143126298Y-56147669D02*
X142935822Y-56195288D01*
X142935822Y-56195288D02*
X142792965Y-56195288D01*
X142792965Y-56195288D02*
X142602489Y-56147669D01*
X142602489Y-56147669D02*
X142507251Y-56100050D01*
X142507251Y-56100050D02*
X142412013Y-56004812D01*
X142412013Y-56004812D02*
X142364394Y-55861955D01*
X142364394Y-55861955D02*
X142364394Y-55766717D01*
X142364394Y-55766717D02*
X142412013Y-55623860D01*
X142412013Y-55623860D02*
X142459632Y-55576241D01*
X142364394Y-55242907D02*
X142364394Y-54623860D01*
X142364394Y-54623860D02*
X142745346Y-54957193D01*
X142745346Y-54957193D02*
X142745346Y-54814336D01*
X142745346Y-54814336D02*
X142792965Y-54719098D01*
X142792965Y-54719098D02*
X142840584Y-54671479D01*
X142840584Y-54671479D02*
X142935822Y-54623860D01*
X142935822Y-54623860D02*
X143173917Y-54623860D01*
X143173917Y-54623860D02*
X143269155Y-54671479D01*
X143269155Y-54671479D02*
X143316775Y-54719098D01*
X143316775Y-54719098D02*
X143364394Y-54814336D01*
X143364394Y-54814336D02*
X143364394Y-55100050D01*
X143364394Y-55100050D02*
X143316775Y-55195288D01*
X143316775Y-55195288D02*
X143269155Y-55242907D01*
X133864394Y-58409575D02*
X134578679Y-58409575D01*
X134578679Y-58409575D02*
X134721536Y-58457194D01*
X134721536Y-58457194D02*
X134816775Y-58552432D01*
X134816775Y-58552432D02*
X134864394Y-58695289D01*
X134864394Y-58695289D02*
X134864394Y-58790527D01*
X134864394Y-57409575D02*
X134864394Y-57981003D01*
X134864394Y-57695289D02*
X133864394Y-57695289D01*
X133864394Y-57695289D02*
X134007251Y-57790527D01*
X134007251Y-57790527D02*
X134102489Y-57885765D01*
X134102489Y-57885765D02*
X134150108Y-57981003D01*
X133959632Y-57028622D02*
X133912013Y-56981003D01*
X133912013Y-56981003D02*
X133864394Y-56885765D01*
X133864394Y-56885765D02*
X133864394Y-56647670D01*
X133864394Y-56647670D02*
X133912013Y-56552432D01*
X133912013Y-56552432D02*
X133959632Y-56504813D01*
X133959632Y-56504813D02*
X134054870Y-56457194D01*
X134054870Y-56457194D02*
X134150108Y-56457194D01*
X134150108Y-56457194D02*
X134292965Y-56504813D01*
X134292965Y-56504813D02*
X134864394Y-57076241D01*
X134864394Y-57076241D02*
X134864394Y-56457194D01*
X134959632Y-56266718D02*
X134959632Y-55504813D01*
X134864394Y-54790527D02*
X134864394Y-55266717D01*
X134864394Y-55266717D02*
X133864394Y-55266717D01*
X134578679Y-54504812D02*
X134578679Y-54028622D01*
X134864394Y-54600050D02*
X133864394Y-54266717D01*
X133864394Y-54266717D02*
X134864394Y-53933384D01*
X134864394Y-53076241D02*
X134864394Y-53647669D01*
X134864394Y-53361955D02*
X133864394Y-53361955D01*
X133864394Y-53361955D02*
X134007251Y-53457193D01*
X134007251Y-53457193D02*
X134102489Y-53552431D01*
X134102489Y-53552431D02*
X134150108Y-53647669D01*
X80454819Y-59071428D02*
X81169104Y-59071428D01*
X81169104Y-59071428D02*
X81311961Y-59119047D01*
X81311961Y-59119047D02*
X81407200Y-59214285D01*
X81407200Y-59214285D02*
X81454819Y-59357142D01*
X81454819Y-59357142D02*
X81454819Y-59452380D01*
X81454819Y-58071428D02*
X81454819Y-58642856D01*
X81454819Y-58357142D02*
X80454819Y-58357142D01*
X80454819Y-58357142D02*
X80597676Y-58452380D01*
X80597676Y-58452380D02*
X80692914Y-58547618D01*
X80692914Y-58547618D02*
X80740533Y-58642856D01*
X80550057Y-57690475D02*
X80502438Y-57642856D01*
X80502438Y-57642856D02*
X80454819Y-57547618D01*
X80454819Y-57547618D02*
X80454819Y-57309523D01*
X80454819Y-57309523D02*
X80502438Y-57214285D01*
X80502438Y-57214285D02*
X80550057Y-57166666D01*
X80550057Y-57166666D02*
X80645295Y-57119047D01*
X80645295Y-57119047D02*
X80740533Y-57119047D01*
X80740533Y-57119047D02*
X80883390Y-57166666D01*
X80883390Y-57166666D02*
X81454819Y-57738094D01*
X81454819Y-57738094D02*
X81454819Y-57119047D01*
X81550057Y-56928571D02*
X81550057Y-56166666D01*
X81454819Y-55357142D02*
X80978628Y-55690475D01*
X81454819Y-55928570D02*
X80454819Y-55928570D01*
X80454819Y-55928570D02*
X80454819Y-55547618D01*
X80454819Y-55547618D02*
X80502438Y-55452380D01*
X80502438Y-55452380D02*
X80550057Y-55404761D01*
X80550057Y-55404761D02*
X80645295Y-55357142D01*
X80645295Y-55357142D02*
X80788152Y-55357142D01*
X80788152Y-55357142D02*
X80883390Y-55404761D01*
X80883390Y-55404761D02*
X80931009Y-55452380D01*
X80931009Y-55452380D02*
X80978628Y-55547618D01*
X80978628Y-55547618D02*
X80978628Y-55928570D01*
X81454819Y-54452380D02*
X81454819Y-54928570D01*
X81454819Y-54928570D02*
X80454819Y-54928570D01*
X81454819Y-53595237D02*
X81454819Y-54166665D01*
X81454819Y-53880951D02*
X80454819Y-53880951D01*
X80454819Y-53880951D02*
X80597676Y-53976189D01*
X80597676Y-53976189D02*
X80692914Y-54071427D01*
X80692914Y-54071427D02*
X80740533Y-54166665D01*
X143266775Y-61367907D02*
X143314394Y-61225050D01*
X143314394Y-61225050D02*
X143314394Y-60986955D01*
X143314394Y-60986955D02*
X143266775Y-60891717D01*
X143266775Y-60891717D02*
X143219155Y-60844098D01*
X143219155Y-60844098D02*
X143123917Y-60796479D01*
X143123917Y-60796479D02*
X143028679Y-60796479D01*
X143028679Y-60796479D02*
X142933441Y-60844098D01*
X142933441Y-60844098D02*
X142885822Y-60891717D01*
X142885822Y-60891717D02*
X142838203Y-60986955D01*
X142838203Y-60986955D02*
X142790584Y-61177431D01*
X142790584Y-61177431D02*
X142742965Y-61272669D01*
X142742965Y-61272669D02*
X142695346Y-61320288D01*
X142695346Y-61320288D02*
X142600108Y-61367907D01*
X142600108Y-61367907D02*
X142504870Y-61367907D01*
X142504870Y-61367907D02*
X142409632Y-61320288D01*
X142409632Y-61320288D02*
X142362013Y-61272669D01*
X142362013Y-61272669D02*
X142314394Y-61177431D01*
X142314394Y-61177431D02*
X142314394Y-60939336D01*
X142314394Y-60939336D02*
X142362013Y-60796479D01*
X142314394Y-60463145D02*
X143314394Y-60225050D01*
X143314394Y-60225050D02*
X142600108Y-60034574D01*
X142600108Y-60034574D02*
X143314394Y-59844098D01*
X143314394Y-59844098D02*
X142314394Y-59606003D01*
X142409632Y-59272669D02*
X142362013Y-59225050D01*
X142362013Y-59225050D02*
X142314394Y-59129812D01*
X142314394Y-59129812D02*
X142314394Y-58891717D01*
X142314394Y-58891717D02*
X142362013Y-58796479D01*
X142362013Y-58796479D02*
X142409632Y-58748860D01*
X142409632Y-58748860D02*
X142504870Y-58701241D01*
X142504870Y-58701241D02*
X142600108Y-58701241D01*
X142600108Y-58701241D02*
X142742965Y-58748860D01*
X142742965Y-58748860D02*
X143314394Y-59320288D01*
X143314394Y-59320288D02*
X143314394Y-58701241D01*
X150067819Y-39633588D02*
X150877342Y-39633588D01*
X150877342Y-39633588D02*
X150972580Y-39585969D01*
X150972580Y-39585969D02*
X151020200Y-39538350D01*
X151020200Y-39538350D02*
X151067819Y-39443112D01*
X151067819Y-39443112D02*
X151067819Y-39252636D01*
X151067819Y-39252636D02*
X151020200Y-39157398D01*
X151020200Y-39157398D02*
X150972580Y-39109779D01*
X150972580Y-39109779D02*
X150877342Y-39062160D01*
X150877342Y-39062160D02*
X150067819Y-39062160D01*
X151067819Y-38062160D02*
X151067819Y-38633588D01*
X151067819Y-38347874D02*
X150067819Y-38347874D01*
X150067819Y-38347874D02*
X150210676Y-38443112D01*
X150210676Y-38443112D02*
X150305914Y-38538350D01*
X150305914Y-38538350D02*
X150353533Y-38633588D01*
X78889394Y-35127670D02*
X79603679Y-35127670D01*
X79603679Y-35127670D02*
X79746536Y-35175289D01*
X79746536Y-35175289D02*
X79841775Y-35270527D01*
X79841775Y-35270527D02*
X79889394Y-35413384D01*
X79889394Y-35413384D02*
X79889394Y-35508622D01*
X78889394Y-34222908D02*
X78889394Y-34413384D01*
X78889394Y-34413384D02*
X78937013Y-34508622D01*
X78937013Y-34508622D02*
X78984632Y-34556241D01*
X78984632Y-34556241D02*
X79127489Y-34651479D01*
X79127489Y-34651479D02*
X79317965Y-34699098D01*
X79317965Y-34699098D02*
X79698917Y-34699098D01*
X79698917Y-34699098D02*
X79794155Y-34651479D01*
X79794155Y-34651479D02*
X79841775Y-34603860D01*
X79841775Y-34603860D02*
X79889394Y-34508622D01*
X79889394Y-34508622D02*
X79889394Y-34318146D01*
X79889394Y-34318146D02*
X79841775Y-34222908D01*
X79841775Y-34222908D02*
X79794155Y-34175289D01*
X79794155Y-34175289D02*
X79698917Y-34127670D01*
X79698917Y-34127670D02*
X79460822Y-34127670D01*
X79460822Y-34127670D02*
X79365584Y-34175289D01*
X79365584Y-34175289D02*
X79317965Y-34222908D01*
X79317965Y-34222908D02*
X79270346Y-34318146D01*
X79270346Y-34318146D02*
X79270346Y-34508622D01*
X79270346Y-34508622D02*
X79317965Y-34603860D01*
X79317965Y-34603860D02*
X79365584Y-34651479D01*
X79365584Y-34651479D02*
X79460822Y-34699098D01*
X79841775Y-33270527D02*
X79889394Y-33365765D01*
X79889394Y-33365765D02*
X79889394Y-33556241D01*
X79889394Y-33556241D02*
X79841775Y-33651479D01*
X79841775Y-33651479D02*
X79794155Y-33699098D01*
X79794155Y-33699098D02*
X79698917Y-33746717D01*
X79698917Y-33746717D02*
X79413203Y-33746717D01*
X79413203Y-33746717D02*
X79317965Y-33699098D01*
X79317965Y-33699098D02*
X79270346Y-33651479D01*
X79270346Y-33651479D02*
X79222727Y-33556241D01*
X79222727Y-33556241D02*
X79222727Y-33365765D01*
X79222727Y-33365765D02*
X79270346Y-33270527D01*
X79889394Y-32318146D02*
X79889394Y-32889574D01*
X79889394Y-32603860D02*
X78889394Y-32603860D01*
X78889394Y-32603860D02*
X79032251Y-32699098D01*
X79032251Y-32699098D02*
X79127489Y-32794336D01*
X79127489Y-32794336D02*
X79175108Y-32889574D01*
%TO.C,J11*%
D12*
X90604575Y-69164575D02*
X90604575Y-56404575D01*
X90604575Y-71764575D02*
X90604575Y-70434575D01*
X91934575Y-71764575D02*
X90604575Y-71764575D01*
X93264575Y-56404575D02*
X90604575Y-56404575D01*
X93264575Y-69164575D02*
X90604575Y-69164575D01*
X93264575Y-69164575D02*
X93264575Y-56404575D01*
%TO.C,C6*%
X97289575Y-38039575D02*
X102529575Y-38039575D01*
X97289575Y-38376575D02*
X97289575Y-38039575D01*
X97289575Y-40779575D02*
X97289575Y-40442575D01*
X102529575Y-38039575D02*
X102529575Y-38376575D01*
X102529575Y-40442575D02*
X102529575Y-40779575D01*
X102529575Y-40779575D02*
X97289575Y-40779575D01*
%TO.C,R5*%
X109329575Y-38039575D02*
X109329575Y-38369575D01*
X109329575Y-40779575D02*
X109329575Y-40449575D01*
X115869575Y-38039575D02*
X109329575Y-38039575D01*
X115869575Y-38369575D02*
X115869575Y-38039575D01*
X115869575Y-40449575D02*
X115869575Y-40779575D01*
X115869575Y-40779575D02*
X109329575Y-40779575D01*
%TO.C,J13*%
X71524575Y-79104575D02*
X71524575Y-81764575D01*
X76664575Y-79104575D02*
X71524575Y-79104575D01*
X76664575Y-79104575D02*
X76664575Y-81764575D01*
X76664575Y-81764575D02*
X71524575Y-81764575D01*
X79264575Y-80434575D02*
X79264575Y-81764575D01*
X79264575Y-81764575D02*
X77934575Y-81764575D01*
%TO.C,J5*%
X127054575Y-76239575D02*
X127054575Y-60939575D01*
X127054575Y-78839575D02*
X127054575Y-77509575D01*
X128384575Y-78839575D02*
X127054575Y-78839575D01*
X129714575Y-60939575D02*
X127054575Y-60939575D01*
X129714575Y-76239575D02*
X127054575Y-76239575D01*
X129714575Y-76239575D02*
X129714575Y-60939575D01*
%TO.C,J6a1*%
X80104575Y-40329575D02*
X81434575Y-40329575D01*
X80104575Y-41659575D02*
X80104575Y-40329575D01*
X82704575Y-40329575D02*
X87844575Y-40329575D01*
X82704575Y-42989575D02*
X82704575Y-40329575D01*
X82704575Y-42989575D02*
X87844575Y-42989575D01*
X87844575Y-42989575D02*
X87844575Y-40329575D01*
%TO.C,J6b1*%
X80079575Y-32304575D02*
X81409575Y-32304575D01*
X80079575Y-33634575D02*
X80079575Y-32304575D01*
X82679575Y-32304575D02*
X87819575Y-32304575D01*
X82679575Y-34964575D02*
X82679575Y-32304575D01*
X82679575Y-34964575D02*
X87819575Y-34964575D01*
X87819575Y-34964575D02*
X87819575Y-32304575D01*
%TO.C,C2*%
X124977225Y-23417000D02*
X125477225Y-23417000D01*
X125227225Y-23167000D02*
X125227225Y-23667000D01*
X127782000Y-22312000D02*
X127782000Y-27472000D01*
X127822000Y-22312000D02*
X127822000Y-27472000D01*
X127862000Y-22313000D02*
X127862000Y-27471000D01*
X127902000Y-22315000D02*
X127902000Y-27469000D01*
X127942000Y-22317000D02*
X127942000Y-27467000D01*
X127982000Y-22320000D02*
X127982000Y-27464000D01*
X128022000Y-22323000D02*
X128022000Y-23852000D01*
X128022000Y-25932000D02*
X128022000Y-27461000D01*
X128062000Y-22327000D02*
X128062000Y-23852000D01*
X128062000Y-25932000D02*
X128062000Y-27457000D01*
X128102000Y-22332000D02*
X128102000Y-23852000D01*
X128102000Y-25932000D02*
X128102000Y-27452000D01*
X128142000Y-22337000D02*
X128142000Y-23852000D01*
X128142000Y-25932000D02*
X128142000Y-27447000D01*
X128182000Y-22343000D02*
X128182000Y-23852000D01*
X128182000Y-25932000D02*
X128182000Y-27441000D01*
X128222000Y-22349000D02*
X128222000Y-23852000D01*
X128222000Y-25932000D02*
X128222000Y-27435000D01*
X128262000Y-22356000D02*
X128262000Y-23852000D01*
X128262000Y-25932000D02*
X128262000Y-27428000D01*
X128302000Y-22364000D02*
X128302000Y-23852000D01*
X128302000Y-25932000D02*
X128302000Y-27420000D01*
X128342000Y-22373000D02*
X128342000Y-23852000D01*
X128342000Y-25932000D02*
X128342000Y-27411000D01*
X128382000Y-22382000D02*
X128382000Y-23852000D01*
X128382000Y-25932000D02*
X128382000Y-27402000D01*
X128422000Y-22391000D02*
X128422000Y-23852000D01*
X128422000Y-25932000D02*
X128422000Y-27393000D01*
X128462000Y-22402000D02*
X128462000Y-23852000D01*
X128462000Y-25932000D02*
X128462000Y-27382000D01*
X128502000Y-22413000D02*
X128502000Y-23852000D01*
X128502000Y-25932000D02*
X128502000Y-27371000D01*
X128542000Y-22425000D02*
X128542000Y-23852000D01*
X128542000Y-25932000D02*
X128542000Y-27359000D01*
X128582000Y-22437000D02*
X128582000Y-23852000D01*
X128582000Y-25932000D02*
X128582000Y-27347000D01*
X128622000Y-22450000D02*
X128622000Y-23852000D01*
X128622000Y-25932000D02*
X128622000Y-27334000D01*
X128662000Y-22464000D02*
X128662000Y-23852000D01*
X128662000Y-25932000D02*
X128662000Y-27320000D01*
X128702000Y-22479000D02*
X128702000Y-23852000D01*
X128702000Y-25932000D02*
X128702000Y-27305000D01*
X128742000Y-22494000D02*
X128742000Y-23852000D01*
X128742000Y-25932000D02*
X128742000Y-27290000D01*
X128782000Y-22510000D02*
X128782000Y-23852000D01*
X128782000Y-25932000D02*
X128782000Y-27274000D01*
X128822000Y-22527000D02*
X128822000Y-23852000D01*
X128822000Y-25932000D02*
X128822000Y-27257000D01*
X128862000Y-22545000D02*
X128862000Y-23852000D01*
X128862000Y-25932000D02*
X128862000Y-27239000D01*
X128902000Y-22563000D02*
X128902000Y-23852000D01*
X128902000Y-25932000D02*
X128902000Y-27221000D01*
X128942000Y-22583000D02*
X128942000Y-23852000D01*
X128942000Y-25932000D02*
X128942000Y-27201000D01*
X128982000Y-22603000D02*
X128982000Y-23852000D01*
X128982000Y-25932000D02*
X128982000Y-27181000D01*
X129022000Y-22624000D02*
X129022000Y-23852000D01*
X129022000Y-25932000D02*
X129022000Y-27160000D01*
X129062000Y-22646000D02*
X129062000Y-23852000D01*
X129062000Y-25932000D02*
X129062000Y-27138000D01*
X129102000Y-22669000D02*
X129102000Y-23852000D01*
X129102000Y-25932000D02*
X129102000Y-27115000D01*
X129142000Y-22693000D02*
X129142000Y-23852000D01*
X129142000Y-25932000D02*
X129142000Y-27091000D01*
X129182000Y-22717000D02*
X129182000Y-23852000D01*
X129182000Y-25932000D02*
X129182000Y-27067000D01*
X129222000Y-22743000D02*
X129222000Y-23852000D01*
X129222000Y-25932000D02*
X129222000Y-27041000D01*
X129262000Y-22770000D02*
X129262000Y-23852000D01*
X129262000Y-25932000D02*
X129262000Y-27014000D01*
X129302000Y-22798000D02*
X129302000Y-23852000D01*
X129302000Y-25932000D02*
X129302000Y-26986000D01*
X129342000Y-22827000D02*
X129342000Y-23852000D01*
X129342000Y-25932000D02*
X129342000Y-26957000D01*
X129382000Y-22857000D02*
X129382000Y-23852000D01*
X129382000Y-25932000D02*
X129382000Y-26927000D01*
X129422000Y-22889000D02*
X129422000Y-23852000D01*
X129422000Y-25932000D02*
X129422000Y-26895000D01*
X129462000Y-22922000D02*
X129462000Y-23852000D01*
X129462000Y-25932000D02*
X129462000Y-26862000D01*
X129502000Y-22956000D02*
X129502000Y-23852000D01*
X129502000Y-25932000D02*
X129502000Y-26828000D01*
X129542000Y-22991000D02*
X129542000Y-23852000D01*
X129542000Y-25932000D02*
X129542000Y-26793000D01*
X129582000Y-23028000D02*
X129582000Y-23852000D01*
X129582000Y-25932000D02*
X129582000Y-26756000D01*
X129622000Y-23067000D02*
X129622000Y-23852000D01*
X129622000Y-25932000D02*
X129622000Y-26717000D01*
X129662000Y-23107000D02*
X129662000Y-23852000D01*
X129662000Y-25932000D02*
X129662000Y-26677000D01*
X129702000Y-23149000D02*
X129702000Y-23852000D01*
X129702000Y-25932000D02*
X129702000Y-26635000D01*
X129742000Y-23193000D02*
X129742000Y-23852000D01*
X129742000Y-25932000D02*
X129742000Y-26591000D01*
X129782000Y-23240000D02*
X129782000Y-23852000D01*
X129782000Y-25932000D02*
X129782000Y-26544000D01*
X129822000Y-23288000D02*
X129822000Y-23852000D01*
X129822000Y-25932000D02*
X129822000Y-26496000D01*
X129862000Y-23339000D02*
X129862000Y-23852000D01*
X129862000Y-25932000D02*
X129862000Y-26445000D01*
X129902000Y-23393000D02*
X129902000Y-23852000D01*
X129902000Y-25932000D02*
X129902000Y-26391000D01*
X129942000Y-23449000D02*
X129942000Y-23852000D01*
X129942000Y-25932000D02*
X129942000Y-26335000D01*
X129982000Y-23509000D02*
X129982000Y-23852000D01*
X129982000Y-25932000D02*
X129982000Y-26275000D01*
X130022000Y-23573000D02*
X130022000Y-23852000D01*
X130022000Y-25932000D02*
X130022000Y-26211000D01*
X130062000Y-23641000D02*
X130062000Y-23852000D01*
X130062000Y-25932000D02*
X130062000Y-26143000D01*
X130102000Y-23715000D02*
X130102000Y-26069000D01*
X130142000Y-23794000D02*
X130142000Y-25990000D01*
X130182000Y-23881000D02*
X130182000Y-25903000D01*
X130222000Y-23978000D02*
X130222000Y-25806000D01*
X130262000Y-24087000D02*
X130262000Y-25697000D01*
X130302000Y-24215000D02*
X130302000Y-25569000D01*
X130342000Y-24375000D02*
X130342000Y-25409000D01*
X130382000Y-24609000D02*
X130382000Y-25175000D01*
X130402000Y-24892000D02*
G75*
G02*
X125162000Y-24892000I-2620000J0D01*
G01*
X125162000Y-24892000D02*
G75*
G02*
X130402000Y-24892000I2620000J0D01*
G01*
%TO.C,J7*%
X99079575Y-33079575D02*
X99079575Y-35739575D01*
X116919575Y-33079575D02*
X99079575Y-33079575D01*
X116919575Y-33079575D02*
X116919575Y-35739575D01*
X116919575Y-35739575D02*
X99079575Y-35739575D01*
X119519575Y-34409575D02*
X119519575Y-35739575D01*
X119519575Y-35739575D02*
X118189575Y-35739575D01*
%TO.C,C3*%
X139039575Y-52789575D02*
X139376575Y-52789575D01*
X139039575Y-58029575D02*
X139039575Y-52789575D01*
X139376575Y-58029575D02*
X139039575Y-58029575D01*
X141442575Y-52789575D02*
X141779575Y-52789575D01*
X141779575Y-52789575D02*
X141779575Y-58029575D01*
X141779575Y-58029575D02*
X141442575Y-58029575D01*
%TO.C,U1*%
D13*
X128774000Y-32566000D02*
X128774000Y-46536000D01*
X130679000Y-30661000D02*
X147824000Y-30661000D01*
X130679000Y-48441000D02*
X147824000Y-48441000D01*
D14*
X149729000Y-35056000D02*
X150739272Y-35059728D01*
D13*
X149729000Y-46536000D02*
X149729000Y-32566000D01*
D14*
X150739000Y-44055000D02*
X149729000Y-44055000D01*
X151239000Y-35559728D02*
X151239000Y-43555000D01*
D13*
X128774000Y-32566000D02*
G75*
G02*
X130679000Y-30661000I1905000J0D01*
G01*
X130679000Y-48441000D02*
G75*
G02*
X128774000Y-46536000I0J1905000D01*
G01*
X147828000Y-30661000D02*
G75*
G02*
X149733000Y-32566000I-1J-1905001D01*
G01*
X149729000Y-46536000D02*
G75*
G02*
X147824000Y-48441000I-1905000J0D01*
G01*
D14*
X150739272Y-35059728D02*
G75*
G02*
X151239002Y-35559728I-292J-500022D01*
G01*
X151239000Y-43555000D02*
G75*
G02*
X150739000Y-44055000I-500000J0D01*
G01*
D15*
X148842000Y-31668000D02*
G75*
G02*
X148338000Y-31668000I-252000J0D01*
G01*
X148338000Y-31668000D02*
G75*
G02*
X148842000Y-31668000I252000J0D01*
G01*
X149565000Y-30451000D02*
G75*
G02*
X149061000Y-30451000I-252000J0D01*
G01*
X149061000Y-30451000D02*
G75*
G02*
X149565000Y-30451000I252000J0D01*
G01*
%TO.C,J6c1*%
D12*
X78104575Y-37929575D02*
X78104575Y-40529575D01*
X78104575Y-37929575D02*
X80764575Y-37929575D01*
X78104575Y-40529575D02*
X80764575Y-40529575D01*
X79434575Y-35329575D02*
X80764575Y-35329575D01*
X80764575Y-35329575D02*
X80764575Y-36659575D01*
X80764575Y-37929575D02*
X80764575Y-40529575D01*
%TD*%
M02*
