%TF.GenerationSoftware,KiCad,Pcbnew,10.0.3-2.fc44*%
%TF.CreationDate,2026-06-16T15:59:11-04:00*%
%TF.ProjectId,SupaClock_Carrier,53757061-436c-46f6-936b-5f4361727269,v1.0*%
%TF.SameCoordinates,Original*%
%TF.FileFunction,Copper,L2,Bot*%
%TF.FilePolarity,Positive*%
%FSLAX46Y46*%
G04 Gerber Fmt 4.6, Leading zero omitted, Abs format (unit mm)*
G04 Created by KiCad (PCBNEW 10.0.3-2.fc44) date 2026-06-16 15:59:11*
%MOMM*%
%LPD*%
G01*
G04 APERTURE LIST*
G04 Aperture macros list*
%AMRoundRect*
0 Rectangle with rounded corners*
0 $1 Rounding radius*
0 $2 $3 $4 $5 $6 $7 $8 $9 X,Y pos of 4 corners*
0 Add a 4 corners polygon primitive as box body*
4,1,4,$2,$3,$4,$5,$6,$7,$8,$9,$2,$3,0*
0 Add four circle primitives for the rounded corners*
1,1,$1+$1,$2,$3*
1,1,$1+$1,$4,$5*
1,1,$1+$1,$6,$7*
1,1,$1+$1,$8,$9*
0 Add four rect primitives between the rounded corners*
20,1,$1+$1,$2,$3,$4,$5,0*
20,1,$1+$1,$4,$5,$6,$7,0*
20,1,$1+$1,$6,$7,$8,$9,0*
20,1,$1+$1,$8,$9,$2,$3,0*%
G04 Aperture macros list end*
%TA.AperFunction,ComponentPad*%
%ADD10C,2.200000*%
%TD*%
%TA.AperFunction,ComponentPad*%
%ADD11C,1.600000*%
%TD*%
%TA.AperFunction,ComponentPad*%
%ADD12C,6.000000*%
%TD*%
%TA.AperFunction,ComponentPad*%
%ADD13RoundRect,0.250000X-0.550000X-0.550000X0.550000X-0.550000X0.550000X0.550000X-0.550000X0.550000X0*%
%TD*%
%TA.AperFunction,SMDPad,CuDef*%
%ADD14R,2.000000X1.200000*%
%TD*%
%TA.AperFunction,SMDPad,CuDef*%
%ADD15R,1.200000X2.000000*%
%TD*%
%TA.AperFunction,ViaPad*%
%ADD16C,0.600000*%
%TD*%
%TA.AperFunction,ViaPad*%
%ADD17C,0.800000*%
%TD*%
%TA.AperFunction,Conductor*%
%ADD18C,0.400000*%
%TD*%
%TA.AperFunction,Conductor*%
%ADD19C,0.600000*%
%TD*%
G04 APERTURE END LIST*
D10*
%TO.P,J11,1,Pin_1_1*%
%TO.N,/GND*%
X91934575Y-70434575D03*
%TO.P,J11,2,Pin_2_2*%
%TO.N,/+3V3*%
X91934575Y-67894575D03*
%TO.P,J11,3,Pin_3_3*%
%TO.N,/ECG_OUT*%
X91934575Y-65354575D03*
%TO.P,J11,4,Pin_4_4*%
%TO.N,unconnected-(J11-Pin_4-Pad4)*%
X91934575Y-62814575D03*
%TO.P,J11,5,Pin_5_5*%
%TO.N,unconnected-(J11-Pin_5-Pad5)*%
X91934575Y-60274575D03*
%TO.P,J11,6,Pin_6_6*%
%TO.N,/ECG_SDN*%
X91934575Y-57734575D03*
%TD*%
D11*
%TO.P,C6,1*%
%TO.N,/SPI_RES*%
X102409575Y-39409575D03*
%TO.P,C6,2*%
%TO.N,/GND*%
X97409575Y-39409575D03*
%TD*%
%TO.P,R5,1*%
%TO.N,/+3V3*%
X116409575Y-39409575D03*
%TO.P,R5,2*%
%TO.N,/SPI_RES*%
X108789575Y-39409575D03*
%TD*%
D10*
%TO.P,J13,1,Pin_1_1*%
%TO.N,/ECG_RA*%
X77934575Y-80434575D03*
%TO.P,J13,2,Pin_2_2*%
%TO.N,/ECG_LA*%
X75394575Y-80434575D03*
%TO.P,J13,3,Pin_3_3*%
%TO.N,/ECG_RL*%
X72854575Y-80434575D03*
%TD*%
%TO.P,J5,1,Pin_1_1*%
%TO.N,/+3V3*%
X128384575Y-77509575D03*
%TO.P,J5,2,Pin_2_2*%
%TO.N,unconnected-(J5-Pin_2-Pad2)*%
X128384575Y-74969575D03*
%TO.P,J5,3,Pin_3_3*%
%TO.N,/GND*%
X128384575Y-72429575D03*
%TO.P,J5,4,Pin_4_4*%
%TO.N,/I2C_SCL*%
X128384575Y-69889575D03*
%TO.P,J5,5,Pin_5_5*%
%TO.N,/I2C_SDA*%
X128384575Y-67349575D03*
%TO.P,J5,6,Pin_6_6*%
%TO.N,/+3V3*%
X128384575Y-64809575D03*
%TO.P,J5,7,Pin_7_7*%
%TO.N,/GND*%
X128384575Y-62269575D03*
%TD*%
%TO.P,J6a1,1,Pin_1_1*%
%TO.N,unconnected-(J6a1-Pin_1-Pad1)*%
X81434575Y-41659575D03*
%TO.P,J6a1,2,Pin_2_2*%
%TO.N,/GND*%
X83974575Y-41659575D03*
%TO.P,J6a1,3,Pin_3_3*%
%TO.N,unconnected-(J6a1-Pin_3-Pad3)*%
X86514575Y-41659575D03*
%TD*%
D12*
%TO.P,J12_RA1,1,Pin_1_1*%
%TO.N,/ECG_RA*%
X107500000Y-84000000D03*
%TD*%
D10*
%TO.P,J6b1,1,Pin_1_1*%
%TO.N,/I2C_SDA*%
X81409575Y-33634575D03*
%TO.P,J6b1,2,Pin_2_2*%
%TO.N,/I2C_SCL*%
X83949575Y-33634575D03*
%TO.P,J6b1,3,Pin_3_3*%
%TO.N,unconnected-(J6b1-Pin_3-Pad3)*%
X86489575Y-33634575D03*
%TD*%
D13*
%TO.P,C2,1*%
%TO.N,/+BATT*%
X126532000Y-24892000D03*
D11*
%TO.P,C2,2*%
%TO.N,/GND*%
X129032000Y-24892000D03*
%TD*%
D10*
%TO.P,J7,1,Pin_1_1*%
%TO.N,/BLK_PWM*%
X118189575Y-34409575D03*
%TO.P,J7,2,Pin_2_2*%
%TO.N,/SPI_CS*%
X115649575Y-34409575D03*
%TO.P,J7,3,Pin_3_3*%
%TO.N,/SPI_DC*%
X113109575Y-34409575D03*
%TO.P,J7,4,Pin_4_4*%
%TO.N,/SPI_RES*%
X110569575Y-34409575D03*
%TO.P,J7,5,Pin_5_5*%
%TO.N,/SPI_MOSI*%
X108029575Y-34409575D03*
%TO.P,J7,6,Pin_6_6*%
%TO.N,/SPI_SCK*%
X105489575Y-34409575D03*
%TO.P,J7,7,Pin_7_7*%
%TO.N,/+3V3*%
X102949575Y-34409575D03*
%TO.P,J7,8,Pin_8_8*%
%TO.N,/GND*%
X100409575Y-34409575D03*
%TD*%
D11*
%TO.P,C3,1*%
%TO.N,/+3V3*%
X140409575Y-52909575D03*
%TO.P,C3,2*%
%TO.N,/GND*%
X140409575Y-57909575D03*
%TD*%
D12*
%TO.P,J12_LA1,1,Pin_1_1*%
%TO.N,/ECG_LA*%
X129909575Y-55909575D03*
%TD*%
%TO.P,J12_RL1,1,Pin_1_1*%
%TO.N,/ECG_RL*%
X76500000Y-56500000D03*
%TD*%
D10*
%TO.P,J6c1,1,Pin_1_1*%
%TO.N,/+BATT*%
X79434575Y-36659575D03*
%TO.P,J6c1,2,Pin_2_2*%
%TO.N,/GND*%
X79434575Y-39199575D03*
%TD*%
D14*
%TO.P,J3,1,Pin_1_1*%
%TO.N,/GND*%
X101409575Y-58639575D03*
%TO.P,J3,2,Pin_2_2*%
%TO.N,unconnected-(J3-Pin_2-Pad2)*%
X101409575Y-56099575D03*
%TO.P,J3,3,Pin_3_3*%
%TO.N,unconnected-(J3-Pin_3-Pad3)*%
X101409575Y-53559575D03*
%TO.P,J3,4,Pin_4_4*%
%TO.N,unconnected-(J3-Pin_4-Pad4)*%
X101409575Y-51019575D03*
%TD*%
D15*
%TO.P,J4,1,Pin_1_1*%
%TO.N,/+3V3*%
X118299575Y-75909575D03*
%TO.P,J4,2,Pin_2_2*%
%TO.N,/GND*%
X115759575Y-75909575D03*
%TO.P,J4,3,Pin_3_3*%
%TO.N,/I2C_SDA*%
X113219575Y-75909575D03*
%TO.P,J4,4,Pin_4_4*%
%TO.N,/I2C_SCL*%
X110679575Y-75909575D03*
%TO.P,J4,5,Pin_5_5*%
%TO.N,unconnected-(J4-Pin_5-Pad5)*%
X108139575Y-75909575D03*
%TO.P,J4,6,Pin_6_6*%
%TO.N,/GND*%
X105599575Y-75909575D03*
%TO.P,J4,7,Pin_7_7*%
X103059575Y-75909575D03*
%TO.P,J4,8,Pin_8_8*%
X100519575Y-75909575D03*
%TD*%
D14*
%TO.P,J14,1,Pin_1_1*%
%TO.N,/+3V3*%
X116409575Y-58409575D03*
%TO.P,J14,2,Pin_2_2*%
%TO.N,/I2C_SDA*%
X116409575Y-55869575D03*
%TO.P,J14,3,Pin_3_3*%
%TO.N,/I2C_SCL*%
X116409575Y-53329575D03*
%TO.P,J14,4,Pin_4_4*%
%TO.N,/GND*%
X116409575Y-50789575D03*
%TD*%
D16*
%TO.N,/GND*%
X122580400Y-51816000D03*
X109728000Y-30835600D03*
X126619000Y-32639000D03*
X145415000Y-24511000D03*
%TO.N,/I2C_SCL*%
X134251700Y-34810700D03*
%TO.N,/I2C_SDA*%
X113219575Y-62992000D03*
X136869575Y-35306000D03*
D17*
%TO.N,/+BATT*%
X131064000Y-35560000D03*
D16*
%TO.N,/BLK_PWM*%
X141224000Y-28956000D03*
%TO.N,/SPI_CS*%
X122600000Y-42300000D03*
%TO.N,/BTN_NEXT*%
X141097000Y-43307000D03*
X145034000Y-53848000D03*
%TD*%
%TO.N,/GND*%
D18*
X103011275Y-74307875D02*
X103059575Y-74307875D01*
X100519575Y-75909575D02*
X100519575Y-75108675D01*
X116409575Y-50789575D02*
X114807875Y-50789575D01*
X102210475Y-58639575D02*
X101409575Y-58639575D01*
%TO.N,/+3V3*%
D19*
X102949575Y-34409575D02*
X102949575Y-36649575D01*
X124460000Y-78740000D02*
X125690425Y-77509575D01*
D18*
X91796175Y-67894575D02*
X91934575Y-67894575D01*
D19*
X128586025Y-64809575D02*
X128509575Y-64809575D01*
D18*
X102790425Y-34409575D02*
X102949575Y-34409575D01*
D19*
X118299575Y-59117575D02*
X118299575Y-75909575D01*
D18*
X128509575Y-64809575D02*
X128384575Y-64809575D01*
D19*
X119380000Y-78740000D02*
X124460000Y-78740000D01*
X130809575Y-64809575D02*
X131900000Y-65900000D01*
X128509575Y-64809575D02*
X130809575Y-64809575D01*
X131900000Y-75600000D02*
X129990425Y-77509575D01*
X117591575Y-58409575D02*
X118299575Y-59117575D01*
X140409575Y-52986025D02*
X128586025Y-64809575D01*
X118299575Y-77659575D02*
X119380000Y-78740000D01*
X118299575Y-75909575D02*
X118299575Y-77659575D01*
X131900000Y-65900000D02*
X131900000Y-75600000D01*
X114700000Y-43300000D02*
X116409575Y-41590425D01*
X102949575Y-36649575D02*
X109600000Y-43300000D01*
X109600000Y-43300000D02*
X114700000Y-43300000D01*
X129990425Y-77509575D02*
X128384575Y-77509575D01*
X116409575Y-58409575D02*
X117591575Y-58409575D01*
X116409575Y-41590425D02*
X116409575Y-39409575D01*
X140409575Y-52909575D02*
X140409575Y-52986025D01*
X125690425Y-77509575D02*
X128384575Y-77509575D01*
%TO.N,/SPI_RES*%
D18*
X110569575Y-37629575D02*
X108789575Y-39409575D01*
X102909575Y-39409575D02*
X102409575Y-39909575D01*
X110569575Y-34409575D02*
X110569575Y-37629575D01*
%TO.N,/ECG_RA*%
X77194575Y-79688990D02*
X77194575Y-79694575D01*
%TO.N,/I2C_SCL*%
X105170425Y-47670425D02*
X100464675Y-42964675D01*
X116409575Y-53329575D02*
X118011275Y-53329575D01*
X110679575Y-56979575D02*
X110679575Y-49679575D01*
X114329575Y-53329575D02*
X116409575Y-53329575D01*
X124550375Y-69889575D02*
X121158000Y-66497200D01*
X134251700Y-34810700D02*
X134329575Y-34732825D01*
X121158000Y-66497200D02*
X121158000Y-56533750D01*
X121158000Y-56533750D02*
X118011275Y-53387025D01*
X110679575Y-56979575D02*
X114329575Y-53329575D01*
X110679575Y-75909575D02*
X110679575Y-56979575D01*
X108670425Y-47670425D02*
X105170425Y-47670425D01*
X128019575Y-69889575D02*
X128384575Y-69889575D01*
X91605675Y-42964675D02*
X83949575Y-35308575D01*
X83949575Y-35308575D02*
X83949575Y-33634575D01*
X110679575Y-49679575D02*
X108670425Y-47670425D01*
X128384575Y-69889575D02*
X124550375Y-69889575D01*
X119227600Y-52113250D02*
X119227600Y-49834800D01*
X118011275Y-53329575D02*
X119227600Y-52113250D01*
X100464675Y-42964675D02*
X91605675Y-42964675D01*
X119227600Y-49834800D02*
X134251700Y-34810700D01*
X118011275Y-53387025D02*
X118011275Y-53329575D01*
%TO.N,/I2C_SDA*%
X136869575Y-35306000D02*
X136869575Y-37933225D01*
X126175975Y-67349575D02*
X128384575Y-67349575D01*
X113219575Y-77915425D02*
X112725425Y-78409575D01*
X114869225Y-55869575D02*
X113219575Y-57519225D01*
X113219575Y-57519225D02*
X113219575Y-62992000D01*
X127484575Y-67125997D02*
X127484575Y-67349575D01*
D19*
X127849575Y-67349575D02*
X128384575Y-67349575D01*
D18*
X136869575Y-37933225D02*
X125171200Y-49631600D01*
X78277825Y-33634575D02*
X81409575Y-33634575D01*
X125171200Y-66344800D02*
X126175975Y-67349575D01*
X76500000Y-35412400D02*
X78277825Y-33634575D01*
X116409575Y-55869575D02*
X114869225Y-55869575D01*
X113219575Y-62992000D02*
X113219575Y-70929575D01*
X113219575Y-75909575D02*
X113219575Y-70929575D01*
X113219575Y-75909575D02*
X113219575Y-77915425D01*
X84531200Y-51531200D02*
X76500000Y-43500000D01*
X125171200Y-49631600D02*
X125171200Y-66344800D01*
X76500000Y-43500000D02*
X76500000Y-35412400D01*
X95409575Y-78409575D02*
X84531200Y-67531200D01*
X116799625Y-55869575D02*
X116409575Y-55869575D01*
X127484575Y-67349575D02*
X128384575Y-67349575D01*
X112725425Y-78409575D02*
X95409575Y-78409575D01*
X84531200Y-67531200D02*
X84531200Y-51531200D01*
%TO.N,/+BATT*%
D19*
X123409575Y-34409575D02*
X125449575Y-36449575D01*
X123409575Y-29909575D02*
X123409575Y-34409575D01*
X126532000Y-24892000D02*
X126532000Y-26787150D01*
X126532000Y-26787150D02*
X123409575Y-29909575D01*
X130174425Y-36449575D02*
X131064000Y-35560000D01*
X125449575Y-36449575D02*
X130174425Y-36449575D01*
%TO.N,/BLK_PWM*%
X118189575Y-26742825D02*
X121922825Y-23009575D01*
X135277575Y-23009575D02*
X141224000Y-28956000D01*
X118189575Y-34409575D02*
X118189575Y-26742825D01*
X121922825Y-23009575D02*
X135277575Y-23009575D01*
%TO.N,/SPI_CS*%
D18*
X122600000Y-42300000D02*
X115649575Y-35349575D01*
X115649575Y-35349575D02*
X115649575Y-34409575D01*
%TO.N,/BTN_NEXT*%
X145034000Y-47244000D02*
X145034000Y-53848000D01*
X141097000Y-43307000D02*
X145034000Y-47244000D01*
%TD*%
%TA.AperFunction,Conductor*%
%TO.N,/GND*%
G36*
X130535095Y-65529760D02*
G01*
X130555737Y-65546394D01*
X131163181Y-66153838D01*
X131196666Y-66215161D01*
X131199500Y-66241519D01*
X131199500Y-75258480D01*
X131179815Y-75325519D01*
X131163181Y-75346161D01*
X129820353Y-76688988D01*
X129759030Y-76722473D01*
X129689338Y-76717489D01*
X129633405Y-76675617D01*
X129632354Y-76674193D01*
X129529092Y-76532065D01*
X129362085Y-76365058D01*
X129327447Y-76339892D01*
X129284782Y-76284564D01*
X129278803Y-76214950D01*
X129311408Y-76153155D01*
X129327448Y-76139257D01*
X129362085Y-76114092D01*
X129529092Y-75947085D01*
X129667918Y-75756008D01*
X129775143Y-75545567D01*
X129848128Y-75320943D01*
X129858021Y-75258480D01*
X129885075Y-75087672D01*
X129885075Y-74851477D01*
X129848128Y-74618206D01*
X129806730Y-74490797D01*
X129775143Y-74393583D01*
X129775141Y-74393580D01*
X129775141Y-74393578D01*
X129667917Y-74183141D01*
X129529092Y-73992065D01*
X129362085Y-73825058D01*
X129360994Y-73823967D01*
X129327509Y-73762644D01*
X129325057Y-73726555D01*
X129325271Y-73723824D01*
X128513984Y-72912537D01*
X128577568Y-72895500D01*
X128691582Y-72829674D01*
X128784674Y-72736582D01*
X128850500Y-72622568D01*
X128867537Y-72558985D01*
X129678825Y-73370273D01*
X129678825Y-73370272D01*
X129753017Y-73268156D01*
X129753021Y-73268150D01*
X129867355Y-73043759D01*
X129945177Y-72804244D01*
X129984575Y-72555503D01*
X129984575Y-72303646D01*
X129945177Y-72054905D01*
X129867355Y-71815390D01*
X129753017Y-71590991D01*
X129678825Y-71488876D01*
X129678825Y-71488875D01*
X128867537Y-72300164D01*
X128850500Y-72236582D01*
X128784674Y-72122568D01*
X128691582Y-72029476D01*
X128577568Y-71963650D01*
X128513983Y-71946612D01*
X129325273Y-71135323D01*
X129325058Y-71132591D01*
X129339422Y-71064213D01*
X129360995Y-71035181D01*
X129362081Y-71034094D01*
X129362085Y-71034092D01*
X129529092Y-70867085D01*
X129667918Y-70676008D01*
X129775143Y-70465567D01*
X129848128Y-70240943D01*
X129866085Y-70127568D01*
X129885075Y-70007672D01*
X129885075Y-69771477D01*
X129848128Y-69538206D01*
X129800701Y-69392242D01*
X129775143Y-69313583D01*
X129775141Y-69313580D01*
X129775141Y-69313578D01*
X129706018Y-69177918D01*
X129667918Y-69103142D01*
X129529092Y-68912065D01*
X129362085Y-68745058D01*
X129327447Y-68719892D01*
X129284782Y-68664564D01*
X129278803Y-68594950D01*
X129311408Y-68533155D01*
X129327448Y-68519257D01*
X129362085Y-68494092D01*
X129529092Y-68327085D01*
X129667918Y-68136008D01*
X129775143Y-67925567D01*
X129848128Y-67700943D01*
X129873111Y-67543206D01*
X129885075Y-67467672D01*
X129885075Y-67231477D01*
X129848128Y-66998206D01*
X129805143Y-66865912D01*
X129775143Y-66773583D01*
X129775141Y-66773580D01*
X129775141Y-66773578D01*
X129711767Y-66649201D01*
X129667918Y-66563142D01*
X129529092Y-66372065D01*
X129362085Y-66205058D01*
X129327447Y-66179892D01*
X129284782Y-66124564D01*
X129278803Y-66054950D01*
X129311408Y-65993155D01*
X129327448Y-65979257D01*
X129362085Y-65954092D01*
X129529092Y-65787085D01*
X129667918Y-65596008D01*
X129677207Y-65577778D01*
X129725183Y-65526983D01*
X129787691Y-65510075D01*
X130468056Y-65510075D01*
X130535095Y-65529760D01*
G37*
%TD.AperFunction*%
%TA.AperFunction,Conductor*%
G36*
X128247036Y-23729760D02*
G01*
X128292791Y-23782564D01*
X128296370Y-23802817D01*
X128985554Y-24492000D01*
X128979339Y-24492000D01*
X128877606Y-24519259D01*
X128786394Y-24571920D01*
X128711920Y-24646394D01*
X128659259Y-24737606D01*
X128632000Y-24839339D01*
X128632000Y-24845553D01*
X127952524Y-24166077D01*
X127952522Y-24166077D01*
X127926830Y-24201440D01*
X127871500Y-24244106D01*
X127801887Y-24250085D01*
X127740092Y-24217479D01*
X127707436Y-24163151D01*
X127683744Y-24081602D01*
X127600081Y-23940135D01*
X127600079Y-23940133D01*
X127600076Y-23940129D01*
X127581703Y-23921756D01*
X127548218Y-23860433D01*
X127553202Y-23790741D01*
X127595074Y-23734808D01*
X127660538Y-23710391D01*
X127669384Y-23710075D01*
X128179997Y-23710075D01*
X128247036Y-23729760D01*
G37*
%TD.AperFunction*%
%TA.AperFunction,Conductor*%
G36*
X148943039Y-21519685D02*
G01*
X148988794Y-21572489D01*
X149000000Y-21624000D01*
X149000000Y-87376000D01*
X148980315Y-87443039D01*
X148927511Y-87488794D01*
X148876000Y-87500000D01*
X108512348Y-87500000D01*
X108445309Y-87480315D01*
X108399554Y-87427511D01*
X108389610Y-87358353D01*
X108418635Y-87294797D01*
X108476351Y-87257340D01*
X108646976Y-87205582D01*
X108955654Y-87077723D01*
X109250315Y-86920224D01*
X109528118Y-86734601D01*
X109786390Y-86522643D01*
X110022643Y-86286390D01*
X110234601Y-86028118D01*
X110420224Y-85750315D01*
X110577723Y-85455654D01*
X110705582Y-85146976D01*
X110802569Y-84827251D01*
X110802571Y-84827241D01*
X110802574Y-84827230D01*
X110835487Y-84661757D01*
X110867751Y-84499559D01*
X110900500Y-84167056D01*
X110900500Y-83832944D01*
X110867751Y-83500441D01*
X110843444Y-83378243D01*
X110802574Y-83172769D01*
X110802571Y-83172758D01*
X110802570Y-83172755D01*
X110802569Y-83172749D01*
X110705582Y-82853024D01*
X110577723Y-82544346D01*
X110420224Y-82249685D01*
X110234601Y-81971882D01*
X110022643Y-81713610D01*
X110022642Y-81713609D01*
X110022638Y-81713604D01*
X109786395Y-81477361D01*
X109528123Y-81265403D01*
X109528122Y-81265402D01*
X109528118Y-81265399D01*
X109250315Y-81079776D01*
X109250310Y-81079773D01*
X109250303Y-81079769D01*
X108955661Y-80922280D01*
X108955656Y-80922278D01*
X108646977Y-80794418D01*
X108327241Y-80697428D01*
X108327230Y-80697425D01*
X107999565Y-80632250D01*
X107999548Y-80632247D01*
X107748108Y-80607483D01*
X107667056Y-80599500D01*
X107332944Y-80599500D01*
X107257982Y-80606883D01*
X107000451Y-80632247D01*
X107000434Y-80632250D01*
X106672769Y-80697425D01*
X106672758Y-80697428D01*
X106353022Y-80794418D01*
X106044343Y-80922278D01*
X106044338Y-80922280D01*
X105749696Y-81079769D01*
X105749678Y-81079780D01*
X105471890Y-81265393D01*
X105471876Y-81265403D01*
X105213604Y-81477361D01*
X104977361Y-81713604D01*
X104765403Y-81971876D01*
X104765393Y-81971890D01*
X104579780Y-82249678D01*
X104579769Y-82249696D01*
X104422280Y-82544338D01*
X104422278Y-82544343D01*
X104294418Y-82853022D01*
X104197428Y-83172758D01*
X104197425Y-83172769D01*
X104132250Y-83500434D01*
X104132247Y-83500451D01*
X104099500Y-83832947D01*
X104099500Y-84167052D01*
X104132247Y-84499548D01*
X104132250Y-84499565D01*
X104197425Y-84827230D01*
X104197428Y-84827241D01*
X104294418Y-85146977D01*
X104422278Y-85455656D01*
X104422280Y-85455661D01*
X104579769Y-85750303D01*
X104579780Y-85750321D01*
X104765393Y-86028109D01*
X104765403Y-86028123D01*
X104977361Y-86286395D01*
X105213604Y-86522638D01*
X105213609Y-86522642D01*
X105213610Y-86522643D01*
X105471882Y-86734601D01*
X105749685Y-86920224D01*
X105749694Y-86920229D01*
X105749696Y-86920230D01*
X106044338Y-87077719D01*
X106044340Y-87077719D01*
X106044346Y-87077723D01*
X106353024Y-87205582D01*
X106523648Y-87257340D01*
X106582086Y-87295637D01*
X106610542Y-87359449D01*
X106599982Y-87428516D01*
X106553758Y-87480909D01*
X106487652Y-87500000D01*
X65124000Y-87500000D01*
X65056961Y-87480315D01*
X65011206Y-87427511D01*
X65000000Y-87376000D01*
X65000000Y-80316477D01*
X71354075Y-80316477D01*
X71354075Y-80552672D01*
X71391021Y-80785943D01*
X71464008Y-81010571D01*
X71571232Y-81221008D01*
X71710058Y-81412085D01*
X71877065Y-81579092D01*
X72068142Y-81717918D01*
X72167566Y-81768577D01*
X72278578Y-81825141D01*
X72278580Y-81825141D01*
X72278583Y-81825143D01*
X72398987Y-81864264D01*
X72503206Y-81898128D01*
X72736478Y-81935075D01*
X72736483Y-81935075D01*
X72972672Y-81935075D01*
X73205943Y-81898128D01*
X73430567Y-81825143D01*
X73641008Y-81717918D01*
X73832085Y-81579092D01*
X73999092Y-81412085D01*
X74024257Y-81377447D01*
X74079586Y-81334782D01*
X74149200Y-81328803D01*
X74210995Y-81361408D01*
X74224890Y-81377445D01*
X74250058Y-81412085D01*
X74417065Y-81579092D01*
X74608142Y-81717918D01*
X74707566Y-81768577D01*
X74818578Y-81825141D01*
X74818580Y-81825141D01*
X74818583Y-81825143D01*
X74938987Y-81864264D01*
X75043206Y-81898128D01*
X75276478Y-81935075D01*
X75276483Y-81935075D01*
X75512672Y-81935075D01*
X75745943Y-81898128D01*
X75970567Y-81825143D01*
X76181008Y-81717918D01*
X76372085Y-81579092D01*
X76539092Y-81412085D01*
X76564257Y-81377447D01*
X76619586Y-81334782D01*
X76689200Y-81328803D01*
X76750995Y-81361408D01*
X76764890Y-81377445D01*
X76790058Y-81412085D01*
X76957065Y-81579092D01*
X77148142Y-81717918D01*
X77247566Y-81768577D01*
X77358578Y-81825141D01*
X77358580Y-81825141D01*
X77358583Y-81825143D01*
X77478987Y-81864264D01*
X77583206Y-81898128D01*
X77816478Y-81935075D01*
X77816483Y-81935075D01*
X78052672Y-81935075D01*
X78285943Y-81898128D01*
X78510567Y-81825143D01*
X78721008Y-81717918D01*
X78912085Y-81579092D01*
X79079092Y-81412085D01*
X79217918Y-81221008D01*
X79325143Y-81010567D01*
X79398128Y-80785943D01*
X79412147Y-80697431D01*
X79435075Y-80552672D01*
X79435075Y-80316477D01*
X79398128Y-80083206D01*
X79325141Y-79858578D01*
X79217917Y-79648141D01*
X79149185Y-79553540D01*
X79079092Y-79457065D01*
X78912085Y-79290058D01*
X78721008Y-79151232D01*
X78678186Y-79129413D01*
X78510571Y-79044008D01*
X78285943Y-78971021D01*
X78052672Y-78934075D01*
X78052667Y-78934075D01*
X77816483Y-78934075D01*
X77816478Y-78934075D01*
X77583206Y-78971021D01*
X77358578Y-79044008D01*
X77297805Y-79074975D01*
X77241510Y-79088490D01*
X77115518Y-79088490D01*
X76962791Y-79129413D01*
X76962784Y-79129416D01*
X76825865Y-79208465D01*
X76825857Y-79208471D01*
X76714056Y-79320272D01*
X76714050Y-79320280D01*
X76680743Y-79377969D01*
X76630176Y-79426184D01*
X76561569Y-79439406D01*
X76496704Y-79413438D01*
X76485676Y-79403649D01*
X76372087Y-79290060D01*
X76372085Y-79290058D01*
X76181008Y-79151232D01*
X76138186Y-79129413D01*
X75970571Y-79044008D01*
X75745943Y-78971021D01*
X75512672Y-78934075D01*
X75512667Y-78934075D01*
X75276483Y-78934075D01*
X75276478Y-78934075D01*
X75043206Y-78971021D01*
X74818578Y-79044008D01*
X74608141Y-79151232D01*
X74499125Y-79230437D01*
X74417065Y-79290058D01*
X74417063Y-79290060D01*
X74417062Y-79290060D01*
X74250059Y-79457063D01*
X74224893Y-79491702D01*
X74169562Y-79534367D01*
X74099949Y-79540346D01*
X74038154Y-79507740D01*
X74024257Y-79491702D01*
X73999194Y-79457206D01*
X73999092Y-79457065D01*
X73832085Y-79290058D01*
X73641008Y-79151232D01*
X73598186Y-79129413D01*
X73430571Y-79044008D01*
X73205943Y-78971021D01*
X72972672Y-78934075D01*
X72972667Y-78934075D01*
X72736483Y-78934075D01*
X72736478Y-78934075D01*
X72503206Y-78971021D01*
X72278578Y-79044008D01*
X72068141Y-79151232D01*
X71959125Y-79230437D01*
X71877065Y-79290058D01*
X71877063Y-79290060D01*
X71877062Y-79290060D01*
X71710060Y-79457062D01*
X71710060Y-79457063D01*
X71710058Y-79457065D01*
X71653895Y-79534367D01*
X71571232Y-79648141D01*
X71464008Y-79858578D01*
X71391021Y-80083206D01*
X71354075Y-80316477D01*
X65000000Y-80316477D01*
X65000000Y-56332944D01*
X73099500Y-56332944D01*
X73099500Y-56667056D01*
X73103525Y-56707922D01*
X73132247Y-56999548D01*
X73132250Y-56999565D01*
X73197425Y-57327230D01*
X73197428Y-57327241D01*
X73294418Y-57646977D01*
X73422278Y-57955656D01*
X73422280Y-57955661D01*
X73579769Y-58250303D01*
X73579780Y-58250321D01*
X73765393Y-58528109D01*
X73765403Y-58528123D01*
X73977361Y-58786395D01*
X74213604Y-59022638D01*
X74213609Y-59022642D01*
X74213610Y-59022643D01*
X74471882Y-59234601D01*
X74749685Y-59420224D01*
X74749694Y-59420229D01*
X74749696Y-59420230D01*
X75044338Y-59577719D01*
X75044340Y-59577719D01*
X75044346Y-59577723D01*
X75353024Y-59705582D01*
X75672749Y-59802569D01*
X75672755Y-59802570D01*
X75672758Y-59802571D01*
X75672769Y-59802574D01*
X75878243Y-59843444D01*
X76000441Y-59867751D01*
X76332944Y-59900500D01*
X76332947Y-59900500D01*
X76667053Y-59900500D01*
X76667056Y-59900500D01*
X76999559Y-59867751D01*
X77161757Y-59835487D01*
X77327230Y-59802574D01*
X77327241Y-59802571D01*
X77327241Y-59802570D01*
X77327251Y-59802569D01*
X77646976Y-59705582D01*
X77955654Y-59577723D01*
X78250315Y-59420224D01*
X78528118Y-59234601D01*
X78786390Y-59022643D01*
X79022643Y-58786390D01*
X79234601Y-58528118D01*
X79420224Y-58250315D01*
X79577723Y-57955654D01*
X79705582Y-57646976D01*
X79802569Y-57327251D01*
X79802571Y-57327241D01*
X79802574Y-57327230D01*
X79847757Y-57100074D01*
X79867751Y-56999559D01*
X79900500Y-56667056D01*
X79900500Y-56332944D01*
X79867751Y-56000441D01*
X79816448Y-55742522D01*
X79802574Y-55672769D01*
X79802571Y-55672758D01*
X79802570Y-55672755D01*
X79802569Y-55672749D01*
X79705582Y-55353024D01*
X79577723Y-55044346D01*
X79570713Y-55031232D01*
X79420230Y-54749696D01*
X79420229Y-54749694D01*
X79420224Y-54749685D01*
X79234601Y-54471882D01*
X79022643Y-54213610D01*
X79022642Y-54213609D01*
X79022638Y-54213604D01*
X78786395Y-53977361D01*
X78528123Y-53765403D01*
X78528122Y-53765402D01*
X78528118Y-53765399D01*
X78250315Y-53579776D01*
X78250310Y-53579773D01*
X78250303Y-53579769D01*
X77955661Y-53422280D01*
X77955656Y-53422278D01*
X77646977Y-53294418D01*
X77327241Y-53197428D01*
X77327230Y-53197425D01*
X76999565Y-53132250D01*
X76999548Y-53132247D01*
X76745631Y-53107239D01*
X76667056Y-53099500D01*
X76332944Y-53099500D01*
X76257982Y-53106883D01*
X76000451Y-53132247D01*
X76000434Y-53132250D01*
X75672769Y-53197425D01*
X75672758Y-53197428D01*
X75353022Y-53294418D01*
X75044343Y-53422278D01*
X75044338Y-53422280D01*
X74749696Y-53579769D01*
X74749678Y-53579780D01*
X74471890Y-53765393D01*
X74471876Y-53765403D01*
X74213604Y-53977361D01*
X73977361Y-54213604D01*
X73765403Y-54471876D01*
X73765393Y-54471890D01*
X73579780Y-54749678D01*
X73579769Y-54749696D01*
X73422280Y-55044338D01*
X73422278Y-55044343D01*
X73294418Y-55353022D01*
X73197428Y-55672758D01*
X73197425Y-55672769D01*
X73132250Y-56000434D01*
X73132247Y-56000451D01*
X73109238Y-56234075D01*
X73099500Y-56332944D01*
X65000000Y-56332944D01*
X65000000Y-43579054D01*
X75899498Y-43579054D01*
X75899499Y-43579057D01*
X75940423Y-43731785D01*
X75952985Y-43753542D01*
X75997315Y-43830324D01*
X76019479Y-43868715D01*
X76138349Y-43987585D01*
X76138355Y-43987590D01*
X83894381Y-51743616D01*
X83927866Y-51804939D01*
X83930700Y-51831297D01*
X83930700Y-67444530D01*
X83930699Y-67444548D01*
X83930699Y-67610254D01*
X83930698Y-67610254D01*
X83971623Y-67762985D01*
X83990752Y-67796117D01*
X83990751Y-67796117D01*
X83990752Y-67796118D01*
X84050675Y-67899909D01*
X84050681Y-67899917D01*
X84169549Y-68018785D01*
X84169555Y-68018790D01*
X94924714Y-78773949D01*
X94924724Y-78773960D01*
X94929054Y-78778290D01*
X94929055Y-78778291D01*
X95040859Y-78890095D01*
X95040861Y-78890096D01*
X95040865Y-78890099D01*
X95177784Y-78969148D01*
X95177791Y-78969152D01*
X95289594Y-78999109D01*
X95330517Y-79010075D01*
X95330518Y-79010075D01*
X112638756Y-79010075D01*
X112638772Y-79010076D01*
X112646368Y-79010076D01*
X112804479Y-79010076D01*
X112804482Y-79010076D01*
X112957210Y-78969152D01*
X113007329Y-78940214D01*
X113094141Y-78890095D01*
X113205945Y-78778291D01*
X113205946Y-78778289D01*
X113700095Y-78284141D01*
X113779152Y-78147209D01*
X113820076Y-77994482D01*
X113820076Y-77836367D01*
X113820076Y-77828772D01*
X113820075Y-77828754D01*
X113820075Y-77420893D01*
X113839760Y-77353854D01*
X113892564Y-77308099D01*
X113924677Y-77298420D01*
X113944879Y-77295221D01*
X114057917Y-77237625D01*
X114147625Y-77147917D01*
X114205221Y-77034879D01*
X114205221Y-77034877D01*
X114205222Y-77034876D01*
X114217490Y-76957419D01*
X114659575Y-76957419D01*
X114665976Y-77016947D01*
X114665978Y-77016954D01*
X114716220Y-77151661D01*
X114716224Y-77151668D01*
X114802384Y-77266762D01*
X114802387Y-77266765D01*
X114917481Y-77352925D01*
X114917488Y-77352929D01*
X115052195Y-77403171D01*
X115052202Y-77403173D01*
X115111730Y-77409574D01*
X115111747Y-77409575D01*
X115509575Y-77409575D01*
X116009575Y-77409575D01*
X116407403Y-77409575D01*
X116407419Y-77409574D01*
X116466947Y-77403173D01*
X116466954Y-77403171D01*
X116601661Y-77352929D01*
X116601668Y-77352925D01*
X116716762Y-77266765D01*
X116716765Y-77266762D01*
X116802925Y-77151668D01*
X116802929Y-77151661D01*
X116853171Y-77016954D01*
X116853173Y-77016947D01*
X116859574Y-76957419D01*
X116859575Y-76957402D01*
X116859575Y-76159575D01*
X116009575Y-76159575D01*
X116009575Y-77409575D01*
X115509575Y-77409575D01*
X115509575Y-76159575D01*
X114659575Y-76159575D01*
X114659575Y-76957419D01*
X114217490Y-76957419D01*
X114220075Y-76941099D01*
X114220075Y-76108213D01*
X114220074Y-74878052D01*
X114220038Y-74877827D01*
X114220037Y-74877823D01*
X114217488Y-74861730D01*
X114659575Y-74861730D01*
X114659575Y-75659575D01*
X115509575Y-75659575D01*
X116009575Y-75659575D01*
X116859575Y-75659575D01*
X116859575Y-74861747D01*
X116859574Y-74861730D01*
X116853173Y-74802202D01*
X116853171Y-74802195D01*
X116802929Y-74667488D01*
X116802925Y-74667481D01*
X116716765Y-74552387D01*
X116716762Y-74552384D01*
X116601668Y-74466224D01*
X116601661Y-74466220D01*
X116466954Y-74415978D01*
X116466947Y-74415976D01*
X116407419Y-74409575D01*
X116009575Y-74409575D01*
X116009575Y-75659575D01*
X115509575Y-75659575D01*
X115509575Y-74409575D01*
X115111730Y-74409575D01*
X115052202Y-74415976D01*
X115052195Y-74415978D01*
X114917488Y-74466220D01*
X114917481Y-74466224D01*
X114802387Y-74552384D01*
X114802384Y-74552387D01*
X114716224Y-74667481D01*
X114716220Y-74667488D01*
X114665978Y-74802195D01*
X114665976Y-74802202D01*
X114659575Y-74861730D01*
X114217488Y-74861730D01*
X114215864Y-74851477D01*
X114205221Y-74784271D01*
X114147625Y-74671233D01*
X114147621Y-74671229D01*
X114147620Y-74671227D01*
X114057922Y-74581529D01*
X114057919Y-74581527D01*
X114057917Y-74581525D01*
X113944879Y-74523929D01*
X113944877Y-74523928D01*
X113944876Y-74523928D01*
X113924675Y-74520728D01*
X113861540Y-74490797D01*
X113824610Y-74431485D01*
X113820075Y-74398255D01*
X113820075Y-63391769D01*
X113838321Y-63329627D01*
X113837481Y-63329178D01*
X113839639Y-63325140D01*
X113839760Y-63324730D01*
X113840296Y-63323910D01*
X113840346Y-63323816D01*
X113840350Y-63323811D01*
X113893155Y-63196328D01*
X113920075Y-63060993D01*
X113920075Y-62923007D01*
X113920075Y-62923004D01*
X113893156Y-62787677D01*
X113893155Y-62787676D01*
X113893155Y-62787672D01*
X113871545Y-62735500D01*
X113840351Y-62660190D01*
X113837480Y-62654819D01*
X113838780Y-62654123D01*
X113820095Y-62594438D01*
X113820075Y-62592230D01*
X113820075Y-57819321D01*
X113839760Y-57752282D01*
X113856389Y-57731644D01*
X114894111Y-56693922D01*
X114955432Y-56660439D01*
X115025124Y-56665423D01*
X115073787Y-56701853D01*
X115074624Y-56701017D01*
X115080440Y-56706833D01*
X115081057Y-56707295D01*
X115081493Y-56707886D01*
X115171227Y-56797620D01*
X115171229Y-56797621D01*
X115171233Y-56797625D01*
X115284269Y-56855220D01*
X115284273Y-56855222D01*
X115378050Y-56870074D01*
X115378056Y-56870075D01*
X117441093Y-56870074D01*
X117534879Y-56855221D01*
X117647917Y-56797625D01*
X117737625Y-56707917D01*
X117795221Y-56594879D01*
X117795221Y-56594877D01*
X117795222Y-56594876D01*
X117810074Y-56501099D01*
X117810075Y-56501094D01*
X117810074Y-55238057D01*
X117795221Y-55144271D01*
X117737625Y-55031233D01*
X117737621Y-55031229D01*
X117737620Y-55031227D01*
X117647922Y-54941529D01*
X117647919Y-54941527D01*
X117647917Y-54941525D01*
X117571092Y-54902380D01*
X117534876Y-54883927D01*
X117441099Y-54869075D01*
X115378057Y-54869075D01*
X115297094Y-54881898D01*
X115284271Y-54883929D01*
X115171233Y-54941525D01*
X115171232Y-54941526D01*
X115171227Y-54941529D01*
X115081529Y-55031227D01*
X115081526Y-55031232D01*
X115081525Y-55031233D01*
X115074844Y-55044346D01*
X115023929Y-55144271D01*
X115020730Y-55164471D01*
X114990801Y-55227607D01*
X114931490Y-55264538D01*
X114898256Y-55269075D01*
X114790165Y-55269075D01*
X114749244Y-55280039D01*
X114749244Y-55280040D01*
X114711976Y-55290026D01*
X114637439Y-55309998D01*
X114637434Y-55310001D01*
X114500515Y-55389050D01*
X114500507Y-55389056D01*
X112739056Y-57150507D01*
X112739054Y-57150510D01*
X112703925Y-57211357D01*
X112703924Y-57211359D01*
X112659998Y-57287439D01*
X112646356Y-57338349D01*
X112619074Y-57440168D01*
X112619074Y-57440170D01*
X112619074Y-57608271D01*
X112619075Y-57608284D01*
X112619075Y-62592230D01*
X112600828Y-62654369D01*
X112601670Y-62654819D01*
X112599510Y-62658859D01*
X112599390Y-62659269D01*
X112598853Y-62660087D01*
X112598798Y-62660190D01*
X112545996Y-62787667D01*
X112545993Y-62787677D01*
X112519075Y-62923004D01*
X112519075Y-62923007D01*
X112519075Y-63060993D01*
X112519075Y-63060995D01*
X112519074Y-63060995D01*
X112545993Y-63196322D01*
X112545996Y-63196332D01*
X112598797Y-63323806D01*
X112601669Y-63329178D01*
X112600367Y-63329874D01*
X112619055Y-63389554D01*
X112619075Y-63391769D01*
X112619075Y-74398256D01*
X112599390Y-74465295D01*
X112546586Y-74511050D01*
X112514472Y-74520729D01*
X112494275Y-74523927D01*
X112494274Y-74523927D01*
X112451372Y-74545787D01*
X112381233Y-74581525D01*
X112381232Y-74581526D01*
X112381227Y-74581529D01*
X112291529Y-74671227D01*
X112291526Y-74671232D01*
X112233927Y-74784273D01*
X112219075Y-74878050D01*
X112219075Y-76941092D01*
X112229867Y-77009232D01*
X112233929Y-77034879D01*
X112291525Y-77147917D01*
X112291527Y-77147919D01*
X112291529Y-77147922D01*
X112381227Y-77237620D01*
X112381229Y-77237621D01*
X112381233Y-77237625D01*
X112494271Y-77295221D01*
X112514472Y-77298420D01*
X112545280Y-77313024D01*
X112576278Y-77327181D01*
X112576775Y-77327954D01*
X112577607Y-77328349D01*
X112595624Y-77357284D01*
X112614052Y-77385959D01*
X112614224Y-77387155D01*
X112614538Y-77387660D01*
X112619075Y-77420893D01*
X112619075Y-77615326D01*
X112599390Y-77682365D01*
X112582757Y-77703007D01*
X112513009Y-77772756D01*
X112451686Y-77806241D01*
X112425327Y-77809075D01*
X95709672Y-77809075D01*
X95642633Y-77789390D01*
X95621991Y-77772756D01*
X94806654Y-76957419D01*
X99419575Y-76957419D01*
X99425976Y-77016947D01*
X99425978Y-77016954D01*
X99476220Y-77151661D01*
X99476224Y-77151668D01*
X99562384Y-77266762D01*
X99562387Y-77266765D01*
X99677481Y-77352925D01*
X99677488Y-77352929D01*
X99812195Y-77403171D01*
X99812202Y-77403173D01*
X99871730Y-77409574D01*
X99871747Y-77409575D01*
X100269575Y-77409575D01*
X100769575Y-77409575D01*
X101167403Y-77409575D01*
X101167419Y-77409574D01*
X101226947Y-77403173D01*
X101226954Y-77403171D01*
X101361661Y-77352929D01*
X101361668Y-77352925D01*
X101476762Y-77266765D01*
X101476765Y-77266762D01*
X101562925Y-77151668D01*
X101562929Y-77151661D01*
X101613171Y-77016954D01*
X101613173Y-77016947D01*
X101619574Y-76957419D01*
X101959575Y-76957419D01*
X101965976Y-77016947D01*
X101965978Y-77016954D01*
X102016220Y-77151661D01*
X102016224Y-77151668D01*
X102102384Y-77266762D01*
X102102387Y-77266765D01*
X102217481Y-77352925D01*
X102217488Y-77352929D01*
X102352195Y-77403171D01*
X102352202Y-77403173D01*
X102411730Y-77409574D01*
X102411747Y-77409575D01*
X102809575Y-77409575D01*
X103309575Y-77409575D01*
X103707403Y-77409575D01*
X103707419Y-77409574D01*
X103766947Y-77403173D01*
X103766954Y-77403171D01*
X103901661Y-77352929D01*
X103901668Y-77352925D01*
X104016762Y-77266765D01*
X104016765Y-77266762D01*
X104102925Y-77151668D01*
X104102929Y-77151661D01*
X104153171Y-77016954D01*
X104153173Y-77016947D01*
X104159574Y-76957419D01*
X104499575Y-76957419D01*
X104505976Y-77016947D01*
X104505978Y-77016954D01*
X104556220Y-77151661D01*
X104556224Y-77151668D01*
X104642384Y-77266762D01*
X104642387Y-77266765D01*
X104757481Y-77352925D01*
X104757488Y-77352929D01*
X104892195Y-77403171D01*
X104892202Y-77403173D01*
X104951730Y-77409574D01*
X104951747Y-77409575D01*
X105349575Y-77409575D01*
X105849575Y-77409575D01*
X106247403Y-77409575D01*
X106247419Y-77409574D01*
X106306947Y-77403173D01*
X106306954Y-77403171D01*
X106441661Y-77352929D01*
X106441668Y-77352925D01*
X106556762Y-77266765D01*
X106556765Y-77266762D01*
X106642925Y-77151668D01*
X106642929Y-77151661D01*
X106693171Y-77016954D01*
X106693173Y-77016947D01*
X106699574Y-76957419D01*
X106699575Y-76957402D01*
X106699575Y-76159575D01*
X105849575Y-76159575D01*
X105849575Y-77409575D01*
X105349575Y-77409575D01*
X105349575Y-76159575D01*
X104499575Y-76159575D01*
X104499575Y-76957419D01*
X104159574Y-76957419D01*
X104159575Y-76957402D01*
X104159575Y-76159575D01*
X103309575Y-76159575D01*
X103309575Y-77409575D01*
X102809575Y-77409575D01*
X102809575Y-76159575D01*
X101959575Y-76159575D01*
X101959575Y-76957419D01*
X101619574Y-76957419D01*
X101619575Y-76957402D01*
X101619575Y-76159575D01*
X100769575Y-76159575D01*
X100769575Y-77409575D01*
X100269575Y-77409575D01*
X100269575Y-76159575D01*
X99419575Y-76159575D01*
X99419575Y-76957419D01*
X94806654Y-76957419D01*
X92710965Y-74861730D01*
X99419575Y-74861730D01*
X99419575Y-75659575D01*
X100269575Y-75659575D01*
X100769575Y-75659575D01*
X101619575Y-75659575D01*
X101619575Y-74861747D01*
X101619574Y-74861730D01*
X101959575Y-74861730D01*
X101959575Y-75659575D01*
X102809575Y-75659575D01*
X103309575Y-75659575D01*
X104159575Y-75659575D01*
X104159575Y-74861747D01*
X104159574Y-74861730D01*
X104499575Y-74861730D01*
X104499575Y-75659575D01*
X105349575Y-75659575D01*
X105849575Y-75659575D01*
X106699575Y-75659575D01*
X106699575Y-74878050D01*
X107139075Y-74878050D01*
X107139075Y-76941092D01*
X107149867Y-77009232D01*
X107153929Y-77034879D01*
X107211525Y-77147917D01*
X107211527Y-77147919D01*
X107211529Y-77147922D01*
X107301227Y-77237620D01*
X107301229Y-77237621D01*
X107301233Y-77237625D01*
X107414269Y-77295220D01*
X107414273Y-77295222D01*
X107508050Y-77310074D01*
X107508056Y-77310075D01*
X108771093Y-77310074D01*
X108864879Y-77295221D01*
X108977917Y-77237625D01*
X109067625Y-77147917D01*
X109125221Y-77034879D01*
X109125221Y-77034877D01*
X109125222Y-77034876D01*
X109136215Y-76965463D01*
X109140075Y-76941094D01*
X109140074Y-74878057D01*
X109125221Y-74784271D01*
X109067625Y-74671233D01*
X109067621Y-74671229D01*
X109067620Y-74671227D01*
X108977922Y-74581529D01*
X108977919Y-74581527D01*
X108977917Y-74581525D01*
X108901092Y-74542380D01*
X108864876Y-74523927D01*
X108771099Y-74509075D01*
X107508057Y-74509075D01*
X107427094Y-74521898D01*
X107414271Y-74523929D01*
X107301233Y-74581525D01*
X107301232Y-74581526D01*
X107301227Y-74581529D01*
X107211529Y-74671227D01*
X107211526Y-74671232D01*
X107153927Y-74784273D01*
X107139075Y-74878050D01*
X106699575Y-74878050D01*
X106699575Y-74861747D01*
X106699574Y-74861730D01*
X106693173Y-74802202D01*
X106693171Y-74802195D01*
X106642929Y-74667488D01*
X106642925Y-74667481D01*
X106556765Y-74552387D01*
X106556762Y-74552384D01*
X106441668Y-74466224D01*
X106441661Y-74466220D01*
X106306954Y-74415978D01*
X106306947Y-74415976D01*
X106247419Y-74409575D01*
X105849575Y-74409575D01*
X105849575Y-75659575D01*
X105349575Y-75659575D01*
X105349575Y-74409575D01*
X104951730Y-74409575D01*
X104892202Y-74415976D01*
X104892195Y-74415978D01*
X104757488Y-74466220D01*
X104757481Y-74466224D01*
X104642387Y-74552384D01*
X104642384Y-74552387D01*
X104556224Y-74667481D01*
X104556220Y-74667488D01*
X104505978Y-74802195D01*
X104505976Y-74802202D01*
X104499575Y-74861730D01*
X104159574Y-74861730D01*
X104153173Y-74802202D01*
X104153171Y-74802195D01*
X104102929Y-74667488D01*
X104102925Y-74667481D01*
X104016765Y-74552387D01*
X104016762Y-74552384D01*
X103901668Y-74466224D01*
X103901661Y-74466220D01*
X103766954Y-74415978D01*
X103766947Y-74415976D01*
X103707419Y-74409575D01*
X103309575Y-74409575D01*
X103309575Y-75659575D01*
X102809575Y-75659575D01*
X102809575Y-74409575D01*
X102411730Y-74409575D01*
X102352202Y-74415976D01*
X102352195Y-74415978D01*
X102217488Y-74466220D01*
X102217481Y-74466224D01*
X102102387Y-74552384D01*
X102102384Y-74552387D01*
X102016224Y-74667481D01*
X102016220Y-74667488D01*
X101965978Y-74802195D01*
X101965976Y-74802202D01*
X101959575Y-74861730D01*
X101619574Y-74861730D01*
X101613173Y-74802202D01*
X101613171Y-74802195D01*
X101562929Y-74667488D01*
X101562925Y-74667481D01*
X101476765Y-74552387D01*
X101476762Y-74552384D01*
X101361668Y-74466224D01*
X101361661Y-74466220D01*
X101226954Y-74415978D01*
X101226947Y-74415976D01*
X101167419Y-74409575D01*
X100769575Y-74409575D01*
X100769575Y-75659575D01*
X100269575Y-75659575D01*
X100269575Y-74409575D01*
X99871730Y-74409575D01*
X99812202Y-74415976D01*
X99812195Y-74415978D01*
X99677488Y-74466220D01*
X99677481Y-74466224D01*
X99562387Y-74552384D01*
X99562384Y-74552387D01*
X99476224Y-74667481D01*
X99476220Y-74667488D01*
X99425978Y-74802195D01*
X99425976Y-74802202D01*
X99419575Y-74861730D01*
X92710965Y-74861730D01*
X88033810Y-70184575D01*
X90354227Y-70184575D01*
X91501563Y-70184575D01*
X91468650Y-70241582D01*
X91434575Y-70368749D01*
X91434575Y-70500401D01*
X91468650Y-70627568D01*
X91501563Y-70684575D01*
X90354227Y-70684575D01*
X90373972Y-70809243D01*
X90373972Y-70809246D01*
X90451794Y-71048759D01*
X90566132Y-71273158D01*
X90714165Y-71476906D01*
X90714165Y-71476907D01*
X90892242Y-71654984D01*
X91095991Y-71803017D01*
X91320390Y-71917355D01*
X91559904Y-71995177D01*
X91684575Y-72014923D01*
X91684575Y-70867587D01*
X91741582Y-70900500D01*
X91868749Y-70934575D01*
X92000401Y-70934575D01*
X92127568Y-70900500D01*
X92184575Y-70867587D01*
X92184575Y-72014922D01*
X92309243Y-71995177D01*
X92309246Y-71995177D01*
X92548759Y-71917355D01*
X92773158Y-71803017D01*
X92976906Y-71654984D01*
X92976907Y-71654984D01*
X93154984Y-71476907D01*
X93154984Y-71476906D01*
X93303017Y-71273158D01*
X93417355Y-71048759D01*
X93495177Y-70809246D01*
X93495177Y-70809243D01*
X93514923Y-70684575D01*
X92367587Y-70684575D01*
X92400500Y-70627568D01*
X92434575Y-70500401D01*
X92434575Y-70368749D01*
X92400500Y-70241582D01*
X92367587Y-70184575D01*
X93514923Y-70184575D01*
X93495177Y-70059906D01*
X93495177Y-70059903D01*
X93417355Y-69820390D01*
X93303017Y-69595991D01*
X93154984Y-69392243D01*
X93154984Y-69392242D01*
X92976901Y-69214159D01*
X92955420Y-69198553D01*
X92912753Y-69143224D01*
X92906773Y-69073610D01*
X92939378Y-69011815D01*
X92940484Y-69010692D01*
X93079092Y-68872085D01*
X93217918Y-68681008D01*
X93325143Y-68470567D01*
X93398128Y-68245943D01*
X93415540Y-68136008D01*
X93435075Y-68012672D01*
X93435075Y-67776477D01*
X93398128Y-67543206D01*
X93325141Y-67318578D01*
X93217917Y-67108141D01*
X93079092Y-66917065D01*
X92912085Y-66750058D01*
X92877447Y-66724892D01*
X92834782Y-66669564D01*
X92828803Y-66599950D01*
X92861408Y-66538155D01*
X92877448Y-66524257D01*
X92912085Y-66499092D01*
X93079092Y-66332085D01*
X93217918Y-66141008D01*
X93325143Y-65930567D01*
X93398128Y-65705943D01*
X93415540Y-65596008D01*
X93435075Y-65472672D01*
X93435075Y-65236477D01*
X93398128Y-65003206D01*
X93325141Y-64778578D01*
X93217917Y-64568141D01*
X93079092Y-64377065D01*
X92912085Y-64210058D01*
X92877447Y-64184892D01*
X92834782Y-64129564D01*
X92828803Y-64059950D01*
X92861408Y-63998155D01*
X92877448Y-63984257D01*
X92912085Y-63959092D01*
X93079092Y-63792085D01*
X93217918Y-63601008D01*
X93325143Y-63390567D01*
X93398128Y-63165943D01*
X93414750Y-63060995D01*
X93435075Y-62932672D01*
X93435075Y-62696477D01*
X93398128Y-62463206D01*
X93335213Y-62269576D01*
X93325143Y-62238583D01*
X93325141Y-62238580D01*
X93325141Y-62238578D01*
X93217917Y-62028141D01*
X93079092Y-61837065D01*
X92912085Y-61670058D01*
X92877447Y-61644892D01*
X92834782Y-61589564D01*
X92828803Y-61519950D01*
X92861408Y-61458155D01*
X92877448Y-61444257D01*
X92895707Y-61430991D01*
X92912085Y-61419092D01*
X93079092Y-61252085D01*
X93217918Y-61061008D01*
X93325143Y-60850567D01*
X93398128Y-60625943D01*
X93435075Y-60392672D01*
X93435075Y-60156477D01*
X93398128Y-59923206D01*
X93327417Y-59705582D01*
X93325143Y-59698583D01*
X93325141Y-59698580D01*
X93325141Y-59698578D01*
X93217917Y-59488141D01*
X93198719Y-59461717D01*
X93079092Y-59297065D01*
X93069446Y-59287419D01*
X99909575Y-59287419D01*
X99915976Y-59346947D01*
X99915978Y-59346954D01*
X99966220Y-59481661D01*
X99966224Y-59481668D01*
X100052384Y-59596762D01*
X100052387Y-59596765D01*
X100167481Y-59682925D01*
X100167488Y-59682929D01*
X100302195Y-59733171D01*
X100302202Y-59733173D01*
X100361730Y-59739574D01*
X100361747Y-59739575D01*
X101159575Y-59739575D01*
X101659575Y-59739575D01*
X102457403Y-59739575D01*
X102457419Y-59739574D01*
X102516947Y-59733173D01*
X102516954Y-59733171D01*
X102651661Y-59682929D01*
X102651668Y-59682925D01*
X102766762Y-59596765D01*
X102766765Y-59596762D01*
X102852925Y-59481668D01*
X102852929Y-59481661D01*
X102903171Y-59346954D01*
X102903173Y-59346947D01*
X102909574Y-59287419D01*
X102909575Y-59287402D01*
X102909575Y-58889575D01*
X101659575Y-58889575D01*
X101659575Y-59739575D01*
X101159575Y-59739575D01*
X101159575Y-58889575D01*
X99909575Y-58889575D01*
X99909575Y-59287419D01*
X93069446Y-59287419D01*
X92912085Y-59130058D01*
X92877447Y-59104892D01*
X92864785Y-59088472D01*
X92848614Y-59075492D01*
X92843881Y-59061363D01*
X92834782Y-59049564D01*
X92833007Y-59028903D01*
X92826421Y-59009241D01*
X92830078Y-58994795D01*
X92828803Y-58979950D01*
X92838479Y-58961609D01*
X92843569Y-58941508D01*
X92856709Y-58927059D01*
X92861408Y-58918155D01*
X92865662Y-58913984D01*
X92871253Y-58908758D01*
X92912085Y-58879092D01*
X93079092Y-58712085D01*
X93217918Y-58521008D01*
X93325143Y-58310567D01*
X93398128Y-58085943D01*
X93401608Y-58063969D01*
X93413050Y-57991730D01*
X99909575Y-57991730D01*
X99909575Y-58389575D01*
X101159575Y-58389575D01*
X101659575Y-58389575D01*
X102909575Y-58389575D01*
X102909575Y-57991747D01*
X102909574Y-57991730D01*
X102903173Y-57932202D01*
X102903171Y-57932195D01*
X102852929Y-57797488D01*
X102852925Y-57797481D01*
X102766765Y-57682387D01*
X102766762Y-57682384D01*
X102651668Y-57596224D01*
X102651661Y-57596220D01*
X102516954Y-57545978D01*
X102516947Y-57545976D01*
X102457419Y-57539575D01*
X101659575Y-57539575D01*
X101659575Y-58389575D01*
X101159575Y-58389575D01*
X101159575Y-57539575D01*
X100361730Y-57539575D01*
X100302202Y-57545976D01*
X100302195Y-57545978D01*
X100167488Y-57596220D01*
X100167481Y-57596224D01*
X100052387Y-57682384D01*
X100052384Y-57682387D01*
X99966224Y-57797481D01*
X99966220Y-57797488D01*
X99915978Y-57932195D01*
X99915976Y-57932202D01*
X99909575Y-57991730D01*
X93413050Y-57991730D01*
X93416646Y-57969028D01*
X93435075Y-57852672D01*
X93435075Y-57616477D01*
X93398128Y-57383206D01*
X93325141Y-57158578D01*
X93264061Y-57038703D01*
X93217918Y-56948142D01*
X93079092Y-56757065D01*
X92912085Y-56590058D01*
X92721008Y-56451232D01*
X92510571Y-56344008D01*
X92285943Y-56271021D01*
X92052672Y-56234075D01*
X92052667Y-56234075D01*
X91816483Y-56234075D01*
X91816478Y-56234075D01*
X91583206Y-56271021D01*
X91358578Y-56344008D01*
X91148141Y-56451232D01*
X91079513Y-56501094D01*
X90957065Y-56590058D01*
X90957063Y-56590060D01*
X90957062Y-56590060D01*
X90790060Y-56757062D01*
X90790060Y-56757063D01*
X90790058Y-56757065D01*
X90760522Y-56797718D01*
X90651232Y-56948141D01*
X90544008Y-57158578D01*
X90471021Y-57383206D01*
X90434075Y-57616477D01*
X90434075Y-57852672D01*
X90471021Y-58085943D01*
X90544008Y-58310571D01*
X90605991Y-58432218D01*
X90651232Y-58521008D01*
X90790058Y-58712085D01*
X90957065Y-58879092D01*
X90991702Y-58904258D01*
X91034367Y-58959588D01*
X91040346Y-59029201D01*
X91007740Y-59090996D01*
X90991705Y-59104890D01*
X90978713Y-59114330D01*
X90957063Y-59130059D01*
X90790060Y-59297062D01*
X90790060Y-59297063D01*
X90790058Y-59297065D01*
X90731419Y-59377775D01*
X90651232Y-59488141D01*
X90544008Y-59698578D01*
X90471021Y-59923206D01*
X90434075Y-60156477D01*
X90434075Y-60392672D01*
X90471021Y-60625943D01*
X90544008Y-60850571D01*
X90607573Y-60975323D01*
X90651232Y-61061008D01*
X90790058Y-61252085D01*
X90957065Y-61419092D01*
X90991702Y-61444258D01*
X91034367Y-61499588D01*
X91040346Y-61569201D01*
X91007740Y-61630996D01*
X90991705Y-61644890D01*
X90977254Y-61655390D01*
X90957063Y-61670059D01*
X90790060Y-61837062D01*
X90790060Y-61837063D01*
X90790058Y-61837065D01*
X90766510Y-61869476D01*
X90651232Y-62028141D01*
X90544008Y-62238578D01*
X90471021Y-62463206D01*
X90434075Y-62696477D01*
X90434075Y-62932672D01*
X90471021Y-63165943D01*
X90544008Y-63390571D01*
X90632286Y-63563825D01*
X90651232Y-63601008D01*
X90790058Y-63792085D01*
X90957065Y-63959092D01*
X90991702Y-63984258D01*
X91034367Y-64039588D01*
X91040346Y-64109201D01*
X91007740Y-64170996D01*
X90991705Y-64184890D01*
X90986328Y-64188797D01*
X90957063Y-64210059D01*
X90790060Y-64377062D01*
X90790060Y-64377063D01*
X90790058Y-64377065D01*
X90731105Y-64458206D01*
X90651232Y-64568141D01*
X90544008Y-64778578D01*
X90471021Y-65003206D01*
X90434075Y-65236477D01*
X90434075Y-65472672D01*
X90471021Y-65705943D01*
X90544008Y-65930571D01*
X90597008Y-66034588D01*
X90651232Y-66141008D01*
X90790058Y-66332085D01*
X90957065Y-66499092D01*
X90991702Y-66524258D01*
X91034367Y-66579588D01*
X91040346Y-66649201D01*
X91007740Y-66710996D01*
X90991705Y-66724890D01*
X90985512Y-66729390D01*
X90957063Y-66750059D01*
X90790060Y-66917062D01*
X90790060Y-66917063D01*
X90790058Y-66917065D01*
X90745989Y-66977721D01*
X90651232Y-67108141D01*
X90544008Y-67318578D01*
X90471021Y-67543206D01*
X90434075Y-67776477D01*
X90434075Y-68012672D01*
X90471021Y-68245943D01*
X90544008Y-68470571D01*
X90597008Y-68574588D01*
X90651232Y-68681008D01*
X90790058Y-68872085D01*
X90790060Y-68872087D01*
X90928526Y-69010553D01*
X90962011Y-69071876D01*
X90957027Y-69141568D01*
X90915155Y-69197501D01*
X90913733Y-69198550D01*
X90892248Y-69214160D01*
X90892242Y-69214165D01*
X90714165Y-69392242D01*
X90714165Y-69392243D01*
X90566132Y-69595991D01*
X90451794Y-69820390D01*
X90373972Y-70059903D01*
X90373972Y-70059906D01*
X90354227Y-70184575D01*
X88033810Y-70184575D01*
X85168019Y-67318784D01*
X85134534Y-67257461D01*
X85131700Y-67231103D01*
X85131700Y-55468050D01*
X100009075Y-55468050D01*
X100009075Y-56731092D01*
X100013189Y-56757065D01*
X100023929Y-56824879D01*
X100081525Y-56937917D01*
X100081527Y-56937919D01*
X100081529Y-56937922D01*
X100171227Y-57027620D01*
X100171229Y-57027621D01*
X100171233Y-57027625D01*
X100284269Y-57085220D01*
X100284273Y-57085222D01*
X100378050Y-57100074D01*
X100378056Y-57100075D01*
X102441093Y-57100074D01*
X102534879Y-57085221D01*
X102647917Y-57027625D01*
X102737625Y-56937917D01*
X102795221Y-56824879D01*
X102795221Y-56824877D01*
X102795222Y-56824876D01*
X102810074Y-56731099D01*
X102810075Y-56731094D01*
X102810074Y-55468057D01*
X102795221Y-55374271D01*
X102737625Y-55261233D01*
X102737621Y-55261229D01*
X102737620Y-55261227D01*
X102647922Y-55171529D01*
X102647919Y-55171527D01*
X102647917Y-55171525D01*
X102571092Y-55132380D01*
X102534876Y-55113927D01*
X102441099Y-55099075D01*
X100378057Y-55099075D01*
X100297094Y-55111898D01*
X100284271Y-55113929D01*
X100171233Y-55171525D01*
X100171232Y-55171526D01*
X100171227Y-55171529D01*
X100081529Y-55261227D01*
X100081526Y-55261232D01*
X100081525Y-55261233D01*
X100062326Y-55298912D01*
X100023927Y-55374273D01*
X100009075Y-55468050D01*
X85131700Y-55468050D01*
X85131700Y-52928050D01*
X100009075Y-52928050D01*
X100009075Y-54191092D01*
X100019612Y-54257620D01*
X100023929Y-54284879D01*
X100081525Y-54397917D01*
X100081527Y-54397919D01*
X100081529Y-54397922D01*
X100171227Y-54487620D01*
X100171229Y-54487621D01*
X100171233Y-54487625D01*
X100284269Y-54545220D01*
X100284273Y-54545222D01*
X100378050Y-54560074D01*
X100378056Y-54560075D01*
X102441093Y-54560074D01*
X102534879Y-54545221D01*
X102647917Y-54487625D01*
X102737625Y-54397917D01*
X102795221Y-54284879D01*
X102795221Y-54284877D01*
X102795222Y-54284876D01*
X102810074Y-54191099D01*
X102810075Y-54191094D01*
X102810074Y-52928057D01*
X102795221Y-52834271D01*
X102737625Y-52721233D01*
X102737621Y-52721229D01*
X102737620Y-52721227D01*
X102647922Y-52631529D01*
X102647919Y-52631527D01*
X102647917Y-52631525D01*
X102571092Y-52592380D01*
X102534876Y-52573927D01*
X102441099Y-52559075D01*
X100378057Y-52559075D01*
X100297094Y-52571898D01*
X100284271Y-52573929D01*
X100171233Y-52631525D01*
X100171232Y-52631526D01*
X100171227Y-52631529D01*
X100081529Y-52721227D01*
X100081526Y-52721232D01*
X100081525Y-52721233D01*
X100062326Y-52758912D01*
X100023927Y-52834273D01*
X100009075Y-52928050D01*
X85131700Y-52928050D01*
X85131700Y-51620259D01*
X85131701Y-51620246D01*
X85131701Y-51452145D01*
X85131701Y-51452143D01*
X85090777Y-51299415D01*
X85061839Y-51249295D01*
X85011720Y-51162484D01*
X84899916Y-51050680D01*
X84899915Y-51050679D01*
X84895585Y-51046349D01*
X84895574Y-51046339D01*
X84237285Y-50388050D01*
X100009075Y-50388050D01*
X100009075Y-51651092D01*
X100018259Y-51709075D01*
X100023929Y-51744879D01*
X100081525Y-51857917D01*
X100081527Y-51857919D01*
X100081529Y-51857922D01*
X100171227Y-51947620D01*
X100171229Y-51947621D01*
X100171233Y-51947625D01*
X100262027Y-51993887D01*
X100284273Y-52005222D01*
X100378050Y-52020074D01*
X100378056Y-52020075D01*
X102441093Y-52020074D01*
X102534879Y-52005221D01*
X102647917Y-51947625D01*
X102737625Y-51857917D01*
X102795221Y-51744879D01*
X102795221Y-51744877D01*
X102795222Y-51744876D01*
X102810074Y-51651099D01*
X102810075Y-51651094D01*
X102810074Y-50388057D01*
X102795221Y-50294271D01*
X102737625Y-50181233D01*
X102737621Y-50181229D01*
X102737620Y-50181227D01*
X102647922Y-50091529D01*
X102647919Y-50091527D01*
X102647917Y-50091525D01*
X102560954Y-50047215D01*
X102534876Y-50033927D01*
X102441099Y-50019075D01*
X100378057Y-50019075D01*
X100297094Y-50031898D01*
X100284271Y-50033929D01*
X100171233Y-50091525D01*
X100171232Y-50091526D01*
X100171227Y-50091529D01*
X100081529Y-50181227D01*
X100081526Y-50181232D01*
X100023927Y-50294273D01*
X100009075Y-50388050D01*
X84237285Y-50388050D01*
X77136819Y-43287584D01*
X77103334Y-43226261D01*
X77100500Y-43199903D01*
X77100500Y-39073646D01*
X77834575Y-39073646D01*
X77834575Y-39325503D01*
X77873972Y-39574244D01*
X77951794Y-39813759D01*
X78066132Y-40038158D01*
X78140323Y-40140272D01*
X78140323Y-40140273D01*
X78951612Y-39328984D01*
X78968650Y-39392568D01*
X79034476Y-39506582D01*
X79127568Y-39599674D01*
X79241582Y-39665500D01*
X79305165Y-39682537D01*
X78493875Y-40493825D01*
X78595991Y-40568017D01*
X78820390Y-40682355D01*
X79059905Y-40760177D01*
X79308647Y-40799575D01*
X79560503Y-40799575D01*
X79809243Y-40760178D01*
X80003349Y-40697109D01*
X80073190Y-40695114D01*
X80133023Y-40731194D01*
X80163851Y-40793895D01*
X80155886Y-40863309D01*
X80152152Y-40871335D01*
X80044009Y-41083578D01*
X79971021Y-41308206D01*
X79934075Y-41541477D01*
X79934075Y-41777672D01*
X79971021Y-42010943D01*
X80044008Y-42235571D01*
X80109536Y-42364175D01*
X80151232Y-42446008D01*
X80290058Y-42637085D01*
X80457065Y-42804092D01*
X80648142Y-42942918D01*
X80747566Y-42993577D01*
X80858578Y-43050141D01*
X80858580Y-43050141D01*
X80858583Y-43050143D01*
X80978987Y-43089264D01*
X81083206Y-43123128D01*
X81316478Y-43160075D01*
X81316483Y-43160075D01*
X81552672Y-43160075D01*
X81785943Y-43123128D01*
X82010567Y-43050143D01*
X82221008Y-42942918D01*
X82412085Y-42804092D01*
X82579092Y-42637085D01*
X82579094Y-42637081D01*
X82580181Y-42635995D01*
X82641504Y-42602510D01*
X82677591Y-42600058D01*
X82680323Y-42600273D01*
X83491612Y-41788984D01*
X83508650Y-41852568D01*
X83574476Y-41966582D01*
X83667568Y-42059674D01*
X83781582Y-42125500D01*
X83845165Y-42142537D01*
X83033875Y-42953825D01*
X83135991Y-43028017D01*
X83360390Y-43142355D01*
X83599905Y-43220177D01*
X83848647Y-43259575D01*
X84100503Y-43259575D01*
X84349244Y-43220177D01*
X84588759Y-43142355D01*
X84813150Y-43028021D01*
X84813156Y-43028017D01*
X84915272Y-42953825D01*
X84915273Y-42953825D01*
X84103984Y-42142537D01*
X84167568Y-42125500D01*
X84281582Y-42059674D01*
X84374674Y-41966582D01*
X84440500Y-41852568D01*
X84457537Y-41788985D01*
X85268823Y-42600271D01*
X85271555Y-42600057D01*
X85339933Y-42614420D01*
X85368967Y-42635994D01*
X85370058Y-42637085D01*
X85537065Y-42804092D01*
X85728142Y-42942918D01*
X85827566Y-42993577D01*
X85938578Y-43050141D01*
X85938580Y-43050141D01*
X85938583Y-43050143D01*
X86058987Y-43089264D01*
X86163206Y-43123128D01*
X86396478Y-43160075D01*
X86396483Y-43160075D01*
X86632672Y-43160075D01*
X86865943Y-43123128D01*
X87090567Y-43050143D01*
X87301008Y-42942918D01*
X87492085Y-42804092D01*
X87659092Y-42637085D01*
X87797918Y-42446008D01*
X87905143Y-42235567D01*
X87978128Y-42010943D01*
X87992178Y-41922234D01*
X88015075Y-41777672D01*
X88015075Y-41541477D01*
X87978128Y-41308206D01*
X87905141Y-41083578D01*
X87797917Y-40873141D01*
X87744468Y-40799575D01*
X87659092Y-40682065D01*
X87492085Y-40515058D01*
X87301008Y-40376232D01*
X87279596Y-40365322D01*
X87090571Y-40269008D01*
X86865943Y-40196021D01*
X86632672Y-40159075D01*
X86632667Y-40159075D01*
X86396483Y-40159075D01*
X86396478Y-40159075D01*
X86163206Y-40196021D01*
X85938578Y-40269008D01*
X85728141Y-40376232D01*
X85619125Y-40455437D01*
X85537065Y-40515058D01*
X85537063Y-40515060D01*
X85537061Y-40515061D01*
X85368968Y-40683154D01*
X85307645Y-40716639D01*
X85271558Y-40719091D01*
X85268825Y-40718875D01*
X84457537Y-41530164D01*
X84440500Y-41466582D01*
X84374674Y-41352568D01*
X84281582Y-41259476D01*
X84167568Y-41193650D01*
X84103983Y-41176612D01*
X84915273Y-40365323D01*
X84813158Y-40291132D01*
X84588759Y-40176794D01*
X84349244Y-40098972D01*
X84100503Y-40059575D01*
X83848647Y-40059575D01*
X83599905Y-40098972D01*
X83360390Y-40176794D01*
X83135988Y-40291134D01*
X83033876Y-40365322D01*
X83033875Y-40365323D01*
X83845165Y-41176612D01*
X83781582Y-41193650D01*
X83667568Y-41259476D01*
X83574476Y-41352568D01*
X83508650Y-41466582D01*
X83491612Y-41530165D01*
X82680323Y-40718875D01*
X82677591Y-40719091D01*
X82609213Y-40704727D01*
X82580181Y-40683154D01*
X82412084Y-40515057D01*
X82411127Y-40514362D01*
X82221008Y-40376232D01*
X82199596Y-40365322D01*
X82010571Y-40269008D01*
X81785943Y-40196021D01*
X81552672Y-40159075D01*
X81552667Y-40159075D01*
X81316483Y-40159075D01*
X81316478Y-40159075D01*
X81083205Y-40196022D01*
X81083202Y-40196022D01*
X80929251Y-40246045D01*
X80859410Y-40248040D01*
X80799577Y-40211960D01*
X80768749Y-40149259D01*
X80776714Y-40079845D01*
X80790617Y-40055226D01*
X80803016Y-40038160D01*
X80917355Y-39813759D01*
X80995177Y-39574244D01*
X81034575Y-39325503D01*
X81034575Y-39073646D01*
X80995177Y-38824905D01*
X80917355Y-38585390D01*
X80803017Y-38360991D01*
X80728825Y-38258876D01*
X80728825Y-38258875D01*
X79917537Y-39070165D01*
X79900500Y-39006582D01*
X79834674Y-38892568D01*
X79741582Y-38799476D01*
X79627568Y-38733650D01*
X79563983Y-38716612D01*
X80375273Y-37905323D01*
X80375058Y-37902591D01*
X80389422Y-37834213D01*
X80410995Y-37805181D01*
X80412081Y-37804094D01*
X80412085Y-37804092D01*
X80579092Y-37637085D01*
X80717918Y-37446008D01*
X80825143Y-37235567D01*
X80898128Y-37010943D01*
X80923000Y-36853907D01*
X80935075Y-36777672D01*
X80935075Y-36541477D01*
X80898128Y-36308206D01*
X80825141Y-36083578D01*
X80767360Y-35970177D01*
X80717918Y-35873142D01*
X80579092Y-35682065D01*
X80412085Y-35515058D01*
X80221008Y-35376232D01*
X80178967Y-35354811D01*
X80010571Y-35269008D01*
X79785943Y-35196021D01*
X79552672Y-35159075D01*
X79552667Y-35159075D01*
X79316483Y-35159075D01*
X79316478Y-35159075D01*
X79083206Y-35196021D01*
X78858578Y-35269008D01*
X78648141Y-35376232D01*
X78572105Y-35431476D01*
X78457065Y-35515058D01*
X78457063Y-35515060D01*
X78457062Y-35515060D01*
X78290060Y-35682062D01*
X78290060Y-35682063D01*
X78290058Y-35682065D01*
X78230437Y-35764125D01*
X78151232Y-35873141D01*
X78044008Y-36083578D01*
X77971021Y-36308206D01*
X77934075Y-36541477D01*
X77934075Y-36777672D01*
X77971021Y-37010943D01*
X78044008Y-37235571D01*
X78136532Y-37417158D01*
X78151232Y-37446008D01*
X78290058Y-37637085D01*
X78290060Y-37637087D01*
X78458154Y-37805181D01*
X78491639Y-37866504D01*
X78494091Y-37902591D01*
X78493875Y-37905323D01*
X79305165Y-38716612D01*
X79241582Y-38733650D01*
X79127568Y-38799476D01*
X79034476Y-38892568D01*
X78968650Y-39006582D01*
X78951612Y-39070165D01*
X78140323Y-38258875D01*
X78140322Y-38258876D01*
X78066134Y-38360988D01*
X77951794Y-38585390D01*
X77873972Y-38824905D01*
X77834575Y-39073646D01*
X77100500Y-39073646D01*
X77100500Y-35712497D01*
X77120185Y-35645458D01*
X77136819Y-35624816D01*
X78490241Y-34271394D01*
X78551564Y-34237909D01*
X78577922Y-34235075D01*
X79955507Y-34235075D01*
X80022546Y-34254760D01*
X80065991Y-34302778D01*
X80126232Y-34421008D01*
X80265058Y-34612085D01*
X80432065Y-34779092D01*
X80623142Y-34917918D01*
X80710280Y-34962317D01*
X80833578Y-35025141D01*
X80833580Y-35025141D01*
X80833583Y-35025143D01*
X80921494Y-35053707D01*
X81058206Y-35098128D01*
X81291478Y-35135075D01*
X81291483Y-35135075D01*
X81527672Y-35135075D01*
X81760943Y-35098128D01*
X81792292Y-35087942D01*
X81985567Y-35025143D01*
X82196008Y-34917918D01*
X82387085Y-34779092D01*
X82554092Y-34612085D01*
X82579257Y-34577447D01*
X82634586Y-34534782D01*
X82704200Y-34528803D01*
X82765995Y-34561408D01*
X82779893Y-34577448D01*
X82800906Y-34606371D01*
X82805058Y-34612085D01*
X82972065Y-34779092D01*
X83082679Y-34859458D01*
X83163143Y-34917919D01*
X83202973Y-34938213D01*
X83281369Y-34978157D01*
X83292432Y-34988606D01*
X83306278Y-34994929D01*
X83317319Y-35012110D01*
X83332165Y-35026131D01*
X83336406Y-35041810D01*
X83344052Y-35053707D01*
X83349075Y-35088642D01*
X83349075Y-35221905D01*
X83349074Y-35221923D01*
X83349074Y-35387629D01*
X83349073Y-35387629D01*
X83389999Y-35540364D01*
X83390000Y-35540365D01*
X83413668Y-35581358D01*
X83413669Y-35581360D01*
X83469050Y-35677284D01*
X83469056Y-35677292D01*
X83587924Y-35796160D01*
X83587930Y-35796165D01*
X91120814Y-43329049D01*
X91120824Y-43329060D01*
X91125154Y-43333390D01*
X91125155Y-43333391D01*
X91236959Y-43445195D01*
X91236961Y-43445196D01*
X91236965Y-43445199D01*
X91373884Y-43524248D01*
X91373891Y-43524252D01*
X91485694Y-43554209D01*
X91526617Y-43565175D01*
X91526618Y-43565175D01*
X100164578Y-43565175D01*
X100231617Y-43584860D01*
X100252259Y-43601494D01*
X104685564Y-48034799D01*
X104685574Y-48034810D01*
X104689904Y-48039140D01*
X104689905Y-48039141D01*
X104801709Y-48150945D01*
X104801711Y-48150946D01*
X104801715Y-48150949D01*
X104938634Y-48229998D01*
X104938641Y-48230002D01*
X105050444Y-48259959D01*
X105091367Y-48270925D01*
X105091368Y-48270925D01*
X108370328Y-48270925D01*
X108437367Y-48290610D01*
X108458009Y-48307244D01*
X110042756Y-49891991D01*
X110076241Y-49953314D01*
X110079075Y-49979672D01*
X110079075Y-56900514D01*
X110079074Y-56900518D01*
X110079074Y-57058632D01*
X110079075Y-57058635D01*
X110079075Y-74398256D01*
X110059390Y-74465295D01*
X110006586Y-74511050D01*
X109974472Y-74520729D01*
X109954275Y-74523927D01*
X109954274Y-74523927D01*
X109911372Y-74545787D01*
X109841233Y-74581525D01*
X109841232Y-74581526D01*
X109841227Y-74581529D01*
X109751529Y-74671227D01*
X109751526Y-74671232D01*
X109693927Y-74784273D01*
X109679075Y-74878050D01*
X109679075Y-76941092D01*
X109689867Y-77009232D01*
X109693929Y-77034879D01*
X109751525Y-77147917D01*
X109751527Y-77147919D01*
X109751529Y-77147922D01*
X109841227Y-77237620D01*
X109841229Y-77237621D01*
X109841233Y-77237625D01*
X109954269Y-77295220D01*
X109954273Y-77295222D01*
X110048050Y-77310074D01*
X110048056Y-77310075D01*
X111311093Y-77310074D01*
X111404879Y-77295221D01*
X111517917Y-77237625D01*
X111607625Y-77147917D01*
X111665221Y-77034879D01*
X111665221Y-77034877D01*
X111665222Y-77034876D01*
X111676215Y-76965463D01*
X111680075Y-76941094D01*
X111680074Y-74878057D01*
X111665221Y-74784271D01*
X111607625Y-74671233D01*
X111607621Y-74671229D01*
X111607620Y-74671227D01*
X111517922Y-74581529D01*
X111517919Y-74581527D01*
X111517917Y-74581525D01*
X111404879Y-74523929D01*
X111404877Y-74523928D01*
X111404876Y-74523928D01*
X111384675Y-74520728D01*
X111321540Y-74490797D01*
X111284610Y-74431485D01*
X111280075Y-74398255D01*
X111280075Y-57279672D01*
X111299760Y-57212633D01*
X111316394Y-57191991D01*
X114541992Y-53966394D01*
X114603315Y-53932909D01*
X114629673Y-53930075D01*
X114898256Y-53930075D01*
X114965295Y-53949760D01*
X115011050Y-54002564D01*
X115020729Y-54034678D01*
X115023927Y-54054874D01*
X115023927Y-54054875D01*
X115023928Y-54054878D01*
X115023929Y-54054879D01*
X115081525Y-54167917D01*
X115081527Y-54167919D01*
X115081529Y-54167922D01*
X115171227Y-54257620D01*
X115171229Y-54257621D01*
X115171233Y-54257625D01*
X115284269Y-54315220D01*
X115284273Y-54315222D01*
X115378050Y-54330074D01*
X115378056Y-54330075D01*
X117441093Y-54330074D01*
X117534879Y-54315221D01*
X117647917Y-54257625D01*
X117737625Y-54167917D01*
X117737628Y-54167910D01*
X117738677Y-54166468D01*
X117740416Y-54165126D01*
X117744526Y-54161017D01*
X117745056Y-54161547D01*
X117794005Y-54123799D01*
X117863618Y-54117815D01*
X117925415Y-54150417D01*
X117926681Y-54151666D01*
X120521181Y-56746166D01*
X120554666Y-56807489D01*
X120557500Y-56833847D01*
X120557500Y-66410530D01*
X120557499Y-66410548D01*
X120557499Y-66576254D01*
X120557498Y-66576254D01*
X120566870Y-66611231D01*
X120598423Y-66728985D01*
X120598657Y-66729390D01*
X120607750Y-66745141D01*
X120607752Y-66745143D01*
X120677477Y-66865912D01*
X120677481Y-66865917D01*
X120796349Y-66984785D01*
X120796354Y-66984789D01*
X124181659Y-70370095D01*
X124181661Y-70370096D01*
X124181665Y-70370099D01*
X124318584Y-70449148D01*
X124318591Y-70449152D01*
X124471318Y-70490076D01*
X124471320Y-70490076D01*
X124637029Y-70490076D01*
X124637045Y-70490075D01*
X126930507Y-70490075D01*
X126997546Y-70509760D01*
X127040991Y-70557778D01*
X127101232Y-70676008D01*
X127240058Y-70867085D01*
X127240060Y-70867087D01*
X127408154Y-71035181D01*
X127441639Y-71096504D01*
X127444091Y-71132591D01*
X127443875Y-71135323D01*
X128255165Y-71946612D01*
X128191582Y-71963650D01*
X128077568Y-72029476D01*
X127984476Y-72122568D01*
X127918650Y-72236582D01*
X127901612Y-72300165D01*
X127090323Y-71488875D01*
X127090322Y-71488876D01*
X127016134Y-71590988D01*
X126901794Y-71815390D01*
X126823972Y-72054905D01*
X126784575Y-72303646D01*
X126784575Y-72555503D01*
X126823972Y-72804244D01*
X126901794Y-73043759D01*
X127016132Y-73268158D01*
X127090323Y-73370272D01*
X127090323Y-73370273D01*
X127901612Y-72558984D01*
X127918650Y-72622568D01*
X127984476Y-72736582D01*
X128077568Y-72829674D01*
X128191582Y-72895500D01*
X128255165Y-72912537D01*
X127443875Y-73723825D01*
X127444091Y-73726558D01*
X127429727Y-73794936D01*
X127408154Y-73823968D01*
X127240061Y-73992061D01*
X127240060Y-73992063D01*
X127240058Y-73992065D01*
X127180437Y-74074125D01*
X127101232Y-74183141D01*
X126994008Y-74393578D01*
X126921021Y-74618206D01*
X126884075Y-74851477D01*
X126884075Y-75087672D01*
X126921021Y-75320943D01*
X126994008Y-75545571D01*
X127056896Y-75668994D01*
X127101232Y-75756008D01*
X127240058Y-75947085D01*
X127407065Y-76114092D01*
X127441702Y-76139258D01*
X127484367Y-76194588D01*
X127490346Y-76264201D01*
X127457740Y-76325996D01*
X127441705Y-76339890D01*
X127423940Y-76352797D01*
X127407063Y-76365059D01*
X127240060Y-76532062D01*
X127240060Y-76532063D01*
X127240058Y-76532065D01*
X127180437Y-76614125D01*
X127101232Y-76723141D01*
X127091943Y-76741372D01*
X127043967Y-76792167D01*
X126981459Y-76809075D01*
X125621429Y-76809075D01*
X125486102Y-76835993D01*
X125486092Y-76835996D01*
X125358617Y-76888797D01*
X125243879Y-76965462D01*
X125243878Y-76965463D01*
X124206162Y-78003181D01*
X124144839Y-78036666D01*
X124118481Y-78039500D01*
X119721519Y-78039500D01*
X119654480Y-78019815D01*
X119633838Y-78003181D01*
X119079977Y-77449320D01*
X119046492Y-77387997D01*
X119051476Y-77318305D01*
X119093348Y-77262372D01*
X119111359Y-77251156D01*
X119137917Y-77237625D01*
X119227625Y-77147917D01*
X119285221Y-77034879D01*
X119285221Y-77034877D01*
X119285222Y-77034876D01*
X119296215Y-76965463D01*
X119300075Y-76941094D01*
X119300074Y-74878057D01*
X119285221Y-74784271D01*
X119227625Y-74671233D01*
X119227621Y-74671229D01*
X119227620Y-74671227D01*
X119137922Y-74581529D01*
X119137918Y-74581526D01*
X119137917Y-74581525D01*
X119136157Y-74580628D01*
X119067779Y-74545787D01*
X119016983Y-74497812D01*
X119000075Y-74435303D01*
X119000075Y-59048579D01*
X118973156Y-58913251D01*
X118973155Y-58913249D01*
X118973155Y-58913247D01*
X118968949Y-58903093D01*
X118961054Y-58884032D01*
X118961042Y-58884005D01*
X118920353Y-58785770D01*
X118920351Y-58785767D01*
X118920350Y-58785764D01*
X118843689Y-58671032D01*
X118843687Y-58671029D01*
X118038120Y-57865462D01*
X117923385Y-57788799D01*
X117867346Y-57765587D01*
X117812943Y-57721745D01*
X117796867Y-57689337D01*
X117795220Y-57684269D01*
X117793143Y-57680194D01*
X117737625Y-57571233D01*
X117737622Y-57571230D01*
X117737620Y-57571227D01*
X117647922Y-57481529D01*
X117647919Y-57481527D01*
X117647917Y-57481525D01*
X117566750Y-57440168D01*
X117534876Y-57423927D01*
X117441099Y-57409075D01*
X115378057Y-57409075D01*
X115297094Y-57421898D01*
X115284271Y-57423929D01*
X115171233Y-57481525D01*
X115171232Y-57481526D01*
X115171227Y-57481529D01*
X115081529Y-57571227D01*
X115081526Y-57571232D01*
X115081525Y-57571233D01*
X115067743Y-57598282D01*
X115023927Y-57684273D01*
X115009075Y-57778050D01*
X115009075Y-59041092D01*
X115016579Y-59088472D01*
X115023929Y-59134879D01*
X115081525Y-59247917D01*
X115081527Y-59247919D01*
X115081529Y-59247922D01*
X115171227Y-59337620D01*
X115171229Y-59337621D01*
X115171233Y-59337625D01*
X115284271Y-59395221D01*
X115284273Y-59395222D01*
X115378050Y-59410074D01*
X115378056Y-59410075D01*
X117441093Y-59410074D01*
X117455678Y-59407764D01*
X117524972Y-59416720D01*
X117578423Y-59461717D01*
X117599062Y-59528468D01*
X117599075Y-59530238D01*
X117599075Y-74435303D01*
X117579390Y-74502342D01*
X117531371Y-74545787D01*
X117461234Y-74581524D01*
X117461227Y-74581529D01*
X117371529Y-74671227D01*
X117371526Y-74671232D01*
X117313927Y-74784273D01*
X117299075Y-74878050D01*
X117299075Y-76941092D01*
X117309867Y-77009232D01*
X117313929Y-77034879D01*
X117371525Y-77147917D01*
X117371527Y-77147919D01*
X117371529Y-77147922D01*
X117461227Y-77237620D01*
X117461229Y-77237621D01*
X117461233Y-77237625D01*
X117531371Y-77273362D01*
X117582166Y-77321336D01*
X117599075Y-77383846D01*
X117599075Y-77590581D01*
X117599075Y-77728569D01*
X117599075Y-77728571D01*
X117599074Y-77728571D01*
X117625993Y-77863897D01*
X117625996Y-77863907D01*
X117678797Y-77991382D01*
X117755462Y-78106120D01*
X118933454Y-79284112D01*
X119048192Y-79360777D01*
X119151696Y-79403649D01*
X119175672Y-79413580D01*
X119175676Y-79413580D01*
X119175677Y-79413581D01*
X119311003Y-79440500D01*
X119311006Y-79440500D01*
X124528996Y-79440500D01*
X124620040Y-79422389D01*
X124664328Y-79413580D01*
X124750301Y-79377969D01*
X124791807Y-79360777D01*
X124791808Y-79360776D01*
X124791811Y-79360775D01*
X124906543Y-79284114D01*
X125944263Y-78246394D01*
X126005586Y-78212909D01*
X126031944Y-78210075D01*
X126981459Y-78210075D01*
X127048498Y-78229760D01*
X127091943Y-78277778D01*
X127101232Y-78296008D01*
X127240058Y-78487085D01*
X127407065Y-78654092D01*
X127598142Y-78792918D01*
X127697566Y-78843577D01*
X127808578Y-78900141D01*
X127808580Y-78900141D01*
X127808583Y-78900143D01*
X127913015Y-78934075D01*
X128033206Y-78973128D01*
X128266478Y-79010075D01*
X128266483Y-79010075D01*
X128502672Y-79010075D01*
X128735943Y-78973128D01*
X128748192Y-78969148D01*
X128960567Y-78900143D01*
X129171008Y-78792918D01*
X129362085Y-78654092D01*
X129529092Y-78487085D01*
X129667918Y-78296008D01*
X129677207Y-78277778D01*
X129725183Y-78226983D01*
X129787691Y-78210075D01*
X130059421Y-78210075D01*
X130150465Y-78191964D01*
X130194753Y-78183155D01*
X130281520Y-78147215D01*
X130322232Y-78130352D01*
X130322233Y-78130351D01*
X130322236Y-78130350D01*
X130436968Y-78053689D01*
X132444114Y-76046543D01*
X132520775Y-75931811D01*
X132573580Y-75804328D01*
X132600500Y-75668994D01*
X132600500Y-75531006D01*
X132600500Y-65831007D01*
X132600500Y-65831004D01*
X132573581Y-65695677D01*
X132573580Y-65695676D01*
X132573580Y-65695672D01*
X132573578Y-65695667D01*
X132520777Y-65568192D01*
X132444112Y-65453454D01*
X131256120Y-64265462D01*
X131141382Y-64188797D01*
X131013907Y-64135996D01*
X131013897Y-64135993D01*
X130878571Y-64109075D01*
X130878569Y-64109075D01*
X130878568Y-64109075D01*
X130576544Y-64109075D01*
X130509505Y-64089390D01*
X130463750Y-64036586D01*
X130453806Y-63967428D01*
X130482831Y-63903872D01*
X130488863Y-63897394D01*
X132967168Y-61419089D01*
X136578999Y-57807257D01*
X139109575Y-57807257D01*
X139109575Y-58011892D01*
X139141584Y-58213992D01*
X139204819Y-58408606D01*
X139297716Y-58590925D01*
X139297722Y-58590934D01*
X139330098Y-58635496D01*
X139330099Y-58635497D01*
X140009575Y-57956021D01*
X140009575Y-57962236D01*
X140036834Y-58063969D01*
X140089495Y-58155181D01*
X140163969Y-58229655D01*
X140255181Y-58282316D01*
X140356914Y-58309575D01*
X140363128Y-58309575D01*
X139683651Y-58989049D01*
X139728225Y-59021434D01*
X139910543Y-59114330D01*
X140105157Y-59177565D01*
X140307258Y-59209575D01*
X140511892Y-59209575D01*
X140713992Y-59177565D01*
X140908606Y-59114330D01*
X141090924Y-59021434D01*
X141135496Y-58989049D01*
X140456022Y-58309575D01*
X140462236Y-58309575D01*
X140563969Y-58282316D01*
X140655181Y-58229655D01*
X140729655Y-58155181D01*
X140782316Y-58063969D01*
X140809575Y-57962236D01*
X140809575Y-57956023D01*
X141489049Y-58635497D01*
X141489049Y-58635496D01*
X141521434Y-58590924D01*
X141614330Y-58408606D01*
X141677565Y-58213992D01*
X141709575Y-58011892D01*
X141709575Y-57807257D01*
X141677565Y-57605157D01*
X141614330Y-57410543D01*
X141521434Y-57228225D01*
X141489049Y-57183652D01*
X141489049Y-57183651D01*
X140809575Y-57863126D01*
X140809575Y-57856914D01*
X140782316Y-57755181D01*
X140729655Y-57663969D01*
X140655181Y-57589495D01*
X140563969Y-57536834D01*
X140462236Y-57509575D01*
X140456021Y-57509575D01*
X141135497Y-56830099D01*
X141135496Y-56830098D01*
X141090934Y-56797722D01*
X141090925Y-56797716D01*
X140908606Y-56704819D01*
X140713992Y-56641584D01*
X140511892Y-56609575D01*
X140307258Y-56609575D01*
X140105157Y-56641584D01*
X139910543Y-56704819D01*
X139728219Y-56797718D01*
X139683652Y-56830098D01*
X139683652Y-56830099D01*
X140363129Y-57509575D01*
X140356914Y-57509575D01*
X140255181Y-57536834D01*
X140163969Y-57589495D01*
X140089495Y-57663969D01*
X140036834Y-57755181D01*
X140009575Y-57856914D01*
X140009575Y-57863128D01*
X139330099Y-57183652D01*
X139330098Y-57183652D01*
X139297718Y-57228219D01*
X139204819Y-57410543D01*
X139141584Y-57605157D01*
X139109575Y-57807257D01*
X136578999Y-57807257D01*
X140239862Y-54146393D01*
X140301185Y-54112909D01*
X140327543Y-54110075D01*
X140504061Y-54110075D01*
X140690693Y-54080515D01*
X140870407Y-54022122D01*
X141038774Y-53936335D01*
X141191648Y-53825265D01*
X141325265Y-53691648D01*
X141436335Y-53538774D01*
X141522122Y-53370407D01*
X141580515Y-53190693D01*
X141583849Y-53169642D01*
X141610075Y-53004061D01*
X141610075Y-52815088D01*
X141580515Y-52628456D01*
X141535928Y-52491233D01*
X141522122Y-52448743D01*
X141522120Y-52448740D01*
X141522120Y-52448738D01*
X141436334Y-52280375D01*
X141325265Y-52127502D01*
X141191648Y-51993885D01*
X141038774Y-51882815D01*
X141033624Y-51880191D01*
X140870411Y-51797029D01*
X140690693Y-51738634D01*
X140504061Y-51709075D01*
X140504056Y-51709075D01*
X140315094Y-51709075D01*
X140315089Y-51709075D01*
X140128456Y-51738634D01*
X139948738Y-51797029D01*
X139780375Y-51882815D01*
X139755576Y-51900833D01*
X139627502Y-51993885D01*
X139627500Y-51993887D01*
X139627499Y-51993887D01*
X139493887Y-52127499D01*
X139493887Y-52127500D01*
X139493885Y-52127502D01*
X139446802Y-52192306D01*
X139382815Y-52280375D01*
X139297029Y-52448738D01*
X139238634Y-52628456D01*
X139209075Y-52815088D01*
X139209075Y-53004061D01*
X139225416Y-53107239D01*
X139216461Y-53176532D01*
X139190624Y-53214317D01*
X130194494Y-62210446D01*
X130133171Y-62243931D01*
X130063479Y-62238947D01*
X130007546Y-62197075D01*
X129984340Y-62142163D01*
X129945177Y-61894905D01*
X129867355Y-61655390D01*
X129753017Y-61430991D01*
X129678825Y-61328876D01*
X129678825Y-61328875D01*
X128867537Y-62140165D01*
X128850500Y-62076582D01*
X128784674Y-61962568D01*
X128691582Y-61869476D01*
X128577568Y-61803650D01*
X128513983Y-61786612D01*
X129325273Y-60975323D01*
X129223158Y-60901132D01*
X128998759Y-60786794D01*
X128759244Y-60708972D01*
X128510503Y-60669575D01*
X128258647Y-60669575D01*
X128009905Y-60708972D01*
X127770390Y-60786794D01*
X127545988Y-60901134D01*
X127443876Y-60975322D01*
X127443875Y-60975323D01*
X128255165Y-61786612D01*
X128191582Y-61803650D01*
X128077568Y-61869476D01*
X127984476Y-61962568D01*
X127918650Y-62076582D01*
X127901612Y-62140165D01*
X127090323Y-61328875D01*
X127090322Y-61328876D01*
X127016134Y-61430988D01*
X126901794Y-61655390D01*
X126823972Y-61894905D01*
X126784575Y-62143646D01*
X126784575Y-62395503D01*
X126823972Y-62644244D01*
X126901794Y-62883759D01*
X127016132Y-63108158D01*
X127090323Y-63210272D01*
X127090323Y-63210273D01*
X127901612Y-62398984D01*
X127918650Y-62462568D01*
X127984476Y-62576582D01*
X128077568Y-62669674D01*
X128191582Y-62735500D01*
X128255165Y-62752537D01*
X127443875Y-63563825D01*
X127444091Y-63566558D01*
X127429727Y-63634936D01*
X127408154Y-63663968D01*
X127240061Y-63832061D01*
X127240060Y-63832063D01*
X127240058Y-63832065D01*
X127192594Y-63897394D01*
X127101232Y-64023141D01*
X126994008Y-64233578D01*
X126921021Y-64458206D01*
X126884075Y-64691477D01*
X126884075Y-64927672D01*
X126921021Y-65160943D01*
X126994008Y-65385571D01*
X127087059Y-65568192D01*
X127101232Y-65596008D01*
X127240058Y-65787085D01*
X127407065Y-65954092D01*
X127441702Y-65979258D01*
X127484367Y-66034588D01*
X127490346Y-66104201D01*
X127457740Y-66165996D01*
X127441705Y-66179890D01*
X127427574Y-66190157D01*
X127407063Y-66205059D01*
X127240060Y-66372062D01*
X127240060Y-66372063D01*
X127240058Y-66372065D01*
X127202431Y-66423854D01*
X127101232Y-66563141D01*
X127040992Y-66681370D01*
X126993017Y-66732166D01*
X126930507Y-66749075D01*
X126476072Y-66749075D01*
X126409033Y-66729390D01*
X126388391Y-66712756D01*
X125808019Y-66132384D01*
X125774534Y-66071061D01*
X125771700Y-66044703D01*
X125771700Y-55742522D01*
X126509075Y-55742522D01*
X126509075Y-56076627D01*
X126541822Y-56409123D01*
X126541825Y-56409140D01*
X126607000Y-56736805D01*
X126607003Y-56736816D01*
X126607005Y-56736825D01*
X126607006Y-56736826D01*
X126613145Y-56757063D01*
X126703993Y-57056552D01*
X126831853Y-57365231D01*
X126831855Y-57365236D01*
X126989344Y-57659878D01*
X126989355Y-57659896D01*
X127174968Y-57937684D01*
X127174978Y-57937698D01*
X127386936Y-58195970D01*
X127623179Y-58432213D01*
X127623184Y-58432217D01*
X127623185Y-58432218D01*
X127881457Y-58644176D01*
X128159260Y-58829799D01*
X128159269Y-58829804D01*
X128159271Y-58829805D01*
X128453913Y-58987294D01*
X128453915Y-58987294D01*
X128453921Y-58987298D01*
X128762599Y-59115157D01*
X129082324Y-59212144D01*
X129082330Y-59212145D01*
X129082333Y-59212146D01*
X129082344Y-59212149D01*
X129287818Y-59253019D01*
X129410016Y-59277326D01*
X129742519Y-59310075D01*
X129742522Y-59310075D01*
X130076628Y-59310075D01*
X130076631Y-59310075D01*
X130409134Y-59277326D01*
X130571332Y-59245062D01*
X130736805Y-59212149D01*
X130736816Y-59212146D01*
X130736816Y-59212145D01*
X130736826Y-59212144D01*
X131056551Y-59115157D01*
X131365229Y-58987298D01*
X131659890Y-58829799D01*
X131937693Y-58644176D01*
X132195965Y-58432218D01*
X132432218Y-58195965D01*
X132644176Y-57937693D01*
X132829799Y-57659890D01*
X132987298Y-57365229D01*
X133115157Y-57056551D01*
X133212144Y-56736826D01*
X133212146Y-56736816D01*
X133212149Y-56736805D01*
X133268263Y-56454695D01*
X133277326Y-56409134D01*
X133310075Y-56076631D01*
X133310075Y-55742519D01*
X133277326Y-55410016D01*
X133243121Y-55238056D01*
X133212149Y-55082344D01*
X133212146Y-55082333D01*
X133212145Y-55082330D01*
X133212144Y-55082324D01*
X133115157Y-54762599D01*
X132987298Y-54453921D01*
X132957363Y-54397917D01*
X132829805Y-54159271D01*
X132829804Y-54159269D01*
X132829799Y-54159260D01*
X132644176Y-53881457D01*
X132432218Y-53623185D01*
X132432217Y-53623184D01*
X132432213Y-53623179D01*
X132195970Y-53386936D01*
X131937698Y-53174978D01*
X131937697Y-53174977D01*
X131937693Y-53174974D01*
X131659890Y-52989351D01*
X131659885Y-52989348D01*
X131659878Y-52989344D01*
X131365236Y-52831855D01*
X131365231Y-52831853D01*
X131056552Y-52703993D01*
X130736816Y-52607003D01*
X130736805Y-52607000D01*
X130409140Y-52541825D01*
X130409123Y-52541822D01*
X130157683Y-52517058D01*
X130076631Y-52509075D01*
X129742519Y-52509075D01*
X129667557Y-52516458D01*
X129410026Y-52541822D01*
X129410009Y-52541825D01*
X129082344Y-52607000D01*
X129082333Y-52607003D01*
X128762597Y-52703993D01*
X128453918Y-52831853D01*
X128453913Y-52831855D01*
X128159271Y-52989344D01*
X128159253Y-52989355D01*
X127881465Y-53174968D01*
X127881451Y-53174978D01*
X127623179Y-53386936D01*
X127386936Y-53623179D01*
X127174978Y-53881451D01*
X127174968Y-53881465D01*
X126989355Y-54159253D01*
X126989344Y-54159271D01*
X126831855Y-54453913D01*
X126831853Y-54453918D01*
X126703993Y-54762597D01*
X126607003Y-55082333D01*
X126607000Y-55082344D01*
X126541825Y-55410009D01*
X126541822Y-55410026D01*
X126509075Y-55742522D01*
X125771700Y-55742522D01*
X125771700Y-49931697D01*
X125791385Y-49864658D01*
X125808019Y-49844016D01*
X132276041Y-43375995D01*
X140396499Y-43375995D01*
X140423418Y-43511322D01*
X140423421Y-43511332D01*
X140476221Y-43638804D01*
X140476228Y-43638817D01*
X140552885Y-43753541D01*
X140552887Y-43753544D01*
X140650454Y-43851111D01*
X140650458Y-43851114D01*
X140765182Y-43927771D01*
X140765195Y-43927778D01*
X140841678Y-43959458D01*
X140892672Y-43980580D01*
X140892679Y-43980581D01*
X140898505Y-43982349D01*
X140898075Y-43983765D01*
X140953474Y-44012737D01*
X140955062Y-44014297D01*
X144397181Y-47456416D01*
X144430666Y-47517739D01*
X144433500Y-47544097D01*
X144433500Y-53448230D01*
X144415253Y-53510369D01*
X144416095Y-53510819D01*
X144413935Y-53514859D01*
X144413815Y-53515269D01*
X144413278Y-53516087D01*
X144413223Y-53516190D01*
X144360421Y-53643667D01*
X144360418Y-53643677D01*
X144333500Y-53779004D01*
X144333500Y-53779007D01*
X144333500Y-53916993D01*
X144333500Y-53916995D01*
X144333499Y-53916995D01*
X144360418Y-54052322D01*
X144360421Y-54052332D01*
X144413221Y-54179804D01*
X144413228Y-54179817D01*
X144489885Y-54294541D01*
X144489888Y-54294545D01*
X144587454Y-54392111D01*
X144587458Y-54392114D01*
X144702182Y-54468771D01*
X144702195Y-54468778D01*
X144829667Y-54521578D01*
X144829672Y-54521580D01*
X144829676Y-54521580D01*
X144829677Y-54521581D01*
X144965004Y-54548500D01*
X144965007Y-54548500D01*
X145102995Y-54548500D01*
X145194041Y-54530389D01*
X145238328Y-54521580D01*
X145358310Y-54471882D01*
X145365804Y-54468778D01*
X145365804Y-54468777D01*
X145365811Y-54468775D01*
X145480542Y-54392114D01*
X145578114Y-54294542D01*
X145654775Y-54179811D01*
X145663288Y-54159260D01*
X145680454Y-54117815D01*
X145707580Y-54052328D01*
X145722493Y-53977357D01*
X145734500Y-53916995D01*
X145734500Y-53779004D01*
X145707581Y-53643677D01*
X145707580Y-53643676D01*
X145707580Y-53643672D01*
X145664130Y-53538774D01*
X145654776Y-53516190D01*
X145651905Y-53510819D01*
X145653205Y-53510123D01*
X145634520Y-53450438D01*
X145634500Y-53448230D01*
X145634500Y-47333060D01*
X145634501Y-47333047D01*
X145634501Y-47164945D01*
X145634501Y-47164943D01*
X145593577Y-47012215D01*
X145514520Y-46875284D01*
X141804296Y-43165061D01*
X141773263Y-43108227D01*
X141772349Y-43108505D01*
X141771017Y-43104114D01*
X141770812Y-43103739D01*
X141770612Y-43102779D01*
X141770581Y-43102677D01*
X141770580Y-43102672D01*
X141728259Y-43000500D01*
X141717778Y-42975195D01*
X141717771Y-42975182D01*
X141641114Y-42860458D01*
X141641111Y-42860454D01*
X141543545Y-42762888D01*
X141543541Y-42762885D01*
X141428817Y-42686228D01*
X141428804Y-42686221D01*
X141301332Y-42633421D01*
X141301322Y-42633418D01*
X141165995Y-42606500D01*
X141165993Y-42606500D01*
X141028007Y-42606500D01*
X141028005Y-42606500D01*
X140892677Y-42633418D01*
X140892667Y-42633421D01*
X140765195Y-42686221D01*
X140765182Y-42686228D01*
X140650458Y-42762885D01*
X140650454Y-42762888D01*
X140552888Y-42860454D01*
X140552885Y-42860458D01*
X140476228Y-42975182D01*
X140476221Y-42975195D01*
X140423421Y-43102667D01*
X140423418Y-43102677D01*
X140396500Y-43238004D01*
X140396500Y-43238007D01*
X140396500Y-43375993D01*
X140396500Y-43375995D01*
X140396499Y-43375995D01*
X132276041Y-43375995D01*
X132507802Y-43144234D01*
X134920842Y-40731194D01*
X137350095Y-38301941D01*
X137429152Y-38165009D01*
X137470076Y-38012282D01*
X137470076Y-37854167D01*
X137470076Y-37846572D01*
X137470075Y-37846554D01*
X137470075Y-35705769D01*
X137488321Y-35643627D01*
X137487481Y-35643178D01*
X137489639Y-35639140D01*
X137489760Y-35638730D01*
X137490296Y-35637910D01*
X137490346Y-35637816D01*
X137490350Y-35637811D01*
X137543155Y-35510328D01*
X137552345Y-35464127D01*
X137570075Y-35374995D01*
X137570075Y-35237004D01*
X137543156Y-35101677D01*
X137543155Y-35101676D01*
X137543155Y-35101672D01*
X137525828Y-35059840D01*
X137490353Y-34974195D01*
X137490346Y-34974182D01*
X137413689Y-34859458D01*
X137413686Y-34859454D01*
X137316120Y-34761888D01*
X137316116Y-34761885D01*
X137201392Y-34685228D01*
X137201379Y-34685221D01*
X137073907Y-34632421D01*
X137073897Y-34632418D01*
X136938570Y-34605500D01*
X136938568Y-34605500D01*
X136800582Y-34605500D01*
X136800580Y-34605500D01*
X136665252Y-34632418D01*
X136665242Y-34632421D01*
X136537770Y-34685221D01*
X136537757Y-34685228D01*
X136423033Y-34761885D01*
X136423029Y-34761888D01*
X136325463Y-34859454D01*
X136325460Y-34859458D01*
X136248803Y-34974182D01*
X136248796Y-34974195D01*
X136195996Y-35101667D01*
X136195993Y-35101677D01*
X136169075Y-35237004D01*
X136169075Y-35237007D01*
X136169075Y-35374993D01*
X136169075Y-35374995D01*
X136169074Y-35374995D01*
X136195993Y-35510322D01*
X136195996Y-35510332D01*
X136248797Y-35637806D01*
X136251669Y-35643178D01*
X136250367Y-35643874D01*
X136269055Y-35703554D01*
X136269075Y-35705769D01*
X136269075Y-37633127D01*
X136249390Y-37700166D01*
X136232756Y-37720808D01*
X124690681Y-49262882D01*
X124690679Y-49262884D01*
X124671211Y-49296605D01*
X124662982Y-49310859D01*
X124611623Y-49399815D01*
X124570699Y-49552543D01*
X124570699Y-49552544D01*
X124570699Y-49720646D01*
X124570700Y-49720659D01*
X124570700Y-66258130D01*
X124570699Y-66258148D01*
X124570699Y-66423854D01*
X124570698Y-66423854D01*
X124608021Y-66563141D01*
X124611623Y-66576585D01*
X124631627Y-66611232D01*
X124665305Y-66669564D01*
X124690679Y-66713515D01*
X124809549Y-66832385D01*
X124809555Y-66832390D01*
X125691114Y-67713949D01*
X125691124Y-67713960D01*
X125695454Y-67718290D01*
X125695455Y-67718291D01*
X125807259Y-67830095D01*
X125807261Y-67830096D01*
X125807265Y-67830099D01*
X125928195Y-67899917D01*
X125944191Y-67909152D01*
X126055994Y-67939109D01*
X126096917Y-67950075D01*
X126096918Y-67950075D01*
X126930507Y-67950075D01*
X126997546Y-67969760D01*
X127040991Y-68017778D01*
X127101232Y-68136008D01*
X127240058Y-68327085D01*
X127407065Y-68494092D01*
X127441702Y-68519258D01*
X127484367Y-68574588D01*
X127490346Y-68644201D01*
X127457740Y-68705996D01*
X127441705Y-68719890D01*
X127423940Y-68732797D01*
X127407063Y-68745059D01*
X127240060Y-68912062D01*
X127240060Y-68912063D01*
X127240058Y-68912065D01*
X127180437Y-68994125D01*
X127101232Y-69103141D01*
X127081653Y-69141568D01*
X127044666Y-69214160D01*
X127040992Y-69221370D01*
X126993017Y-69272166D01*
X126930507Y-69289075D01*
X124850473Y-69289075D01*
X124783434Y-69269390D01*
X124762792Y-69252756D01*
X121794819Y-66284783D01*
X121761334Y-66223460D01*
X121758500Y-66197102D01*
X121758500Y-56454695D01*
X121758500Y-56454693D01*
X121717577Y-56301966D01*
X121717577Y-56301965D01*
X121717577Y-56301964D01*
X121688639Y-56251845D01*
X121688637Y-56251842D01*
X121638520Y-56165034D01*
X121526716Y-56053230D01*
X121526715Y-56053229D01*
X121522385Y-56048899D01*
X121522374Y-56048889D01*
X118919465Y-53445980D01*
X118885980Y-53384657D01*
X118890964Y-53314965D01*
X118919461Y-53270623D01*
X119586106Y-52603977D01*
X119586111Y-52603974D01*
X119596314Y-52593770D01*
X119596316Y-52593770D01*
X119708120Y-52481966D01*
X119775384Y-52365461D01*
X119787177Y-52345035D01*
X119828100Y-52192308D01*
X119828100Y-52034193D01*
X119828100Y-50134896D01*
X119847785Y-50067857D01*
X119864414Y-50047220D01*
X134393638Y-35517995D01*
X134450482Y-35486956D01*
X134450206Y-35486046D01*
X134454577Y-35484720D01*
X134454959Y-35484512D01*
X134455934Y-35484308D01*
X134456025Y-35484280D01*
X134456028Y-35484280D01*
X134583511Y-35431475D01*
X134698242Y-35354814D01*
X134795814Y-35257242D01*
X134872475Y-35142511D01*
X134925280Y-35015028D01*
X134941820Y-34931878D01*
X134952200Y-34879695D01*
X134952200Y-34741704D01*
X134925281Y-34606377D01*
X134925280Y-34606376D01*
X134925280Y-34606372D01*
X134906003Y-34559834D01*
X134900790Y-34544476D01*
X134898386Y-34535503D01*
X134889152Y-34501040D01*
X134810094Y-34364109D01*
X134698291Y-34252306D01*
X134619232Y-34206660D01*
X134561359Y-34173247D01*
X134561356Y-34173246D01*
X134517915Y-34161606D01*
X134502558Y-34156393D01*
X134456032Y-34137121D01*
X134456022Y-34137118D01*
X134320695Y-34110200D01*
X134320693Y-34110200D01*
X134182707Y-34110200D01*
X134182705Y-34110200D01*
X134047377Y-34137118D01*
X134047367Y-34137121D01*
X133919895Y-34189921D01*
X133919882Y-34189928D01*
X133805158Y-34266585D01*
X133805154Y-34266588D01*
X133707588Y-34364154D01*
X133707585Y-34364158D01*
X133630928Y-34478882D01*
X133630921Y-34478895D01*
X133578120Y-34606369D01*
X133576350Y-34612206D01*
X133574936Y-34611777D01*
X133545948Y-34667188D01*
X133544402Y-34668761D01*
X118858886Y-49354278D01*
X118747081Y-49466082D01*
X118747077Y-49466087D01*
X118697163Y-49552543D01*
X118668023Y-49603015D01*
X118627099Y-49755743D01*
X118627099Y-49755745D01*
X118627099Y-49923846D01*
X118627100Y-49923859D01*
X118627100Y-51813152D01*
X118607415Y-51880191D01*
X118590781Y-51900833D01*
X117946998Y-52544615D01*
X117885675Y-52578100D01*
X117815983Y-52573116D01*
X117760050Y-52531244D01*
X117748835Y-52513234D01*
X117737625Y-52491233D01*
X117737621Y-52491229D01*
X117737620Y-52491227D01*
X117647922Y-52401529D01*
X117647919Y-52401527D01*
X117647917Y-52401525D01*
X117537054Y-52345037D01*
X117534876Y-52343927D01*
X117441099Y-52329075D01*
X115378057Y-52329075D01*
X115297094Y-52341898D01*
X115284271Y-52343929D01*
X115171233Y-52401525D01*
X115171232Y-52401526D01*
X115171227Y-52401529D01*
X115081529Y-52491227D01*
X115081526Y-52491232D01*
X115081525Y-52491233D01*
X115046958Y-52559075D01*
X115023929Y-52604271D01*
X115020730Y-52624471D01*
X114990801Y-52687607D01*
X114931490Y-52724538D01*
X114898256Y-52729075D01*
X114416245Y-52729075D01*
X114416229Y-52729074D01*
X114408633Y-52729074D01*
X114250518Y-52729074D01*
X114174154Y-52749536D01*
X114097789Y-52769998D01*
X114097784Y-52770001D01*
X113960865Y-52849050D01*
X113960857Y-52849056D01*
X111491756Y-55318158D01*
X111430433Y-55351643D01*
X111360741Y-55346659D01*
X111304808Y-55304787D01*
X111280391Y-55239323D01*
X111280075Y-55230477D01*
X111280075Y-51437419D01*
X114909575Y-51437419D01*
X114915976Y-51496947D01*
X114915978Y-51496954D01*
X114966220Y-51631661D01*
X114966224Y-51631668D01*
X115052384Y-51746762D01*
X115052387Y-51746765D01*
X115167481Y-51832925D01*
X115167488Y-51832929D01*
X115302195Y-51883171D01*
X115302202Y-51883173D01*
X115361730Y-51889574D01*
X115361747Y-51889575D01*
X116159575Y-51889575D01*
X116659575Y-51889575D01*
X117457403Y-51889575D01*
X117457419Y-51889574D01*
X117516947Y-51883173D01*
X117516954Y-51883171D01*
X117651661Y-51832929D01*
X117651668Y-51832925D01*
X117766762Y-51746765D01*
X117766765Y-51746762D01*
X117852925Y-51631668D01*
X117852929Y-51631661D01*
X117903171Y-51496954D01*
X117903173Y-51496947D01*
X117909574Y-51437419D01*
X117909575Y-51437402D01*
X117909575Y-51039575D01*
X116659575Y-51039575D01*
X116659575Y-51889575D01*
X116159575Y-51889575D01*
X116159575Y-51039575D01*
X114909575Y-51039575D01*
X114909575Y-51437419D01*
X111280075Y-51437419D01*
X111280075Y-50141730D01*
X114909575Y-50141730D01*
X114909575Y-50539575D01*
X116159575Y-50539575D01*
X116659575Y-50539575D01*
X117909575Y-50539575D01*
X117909575Y-50141747D01*
X117909574Y-50141730D01*
X117903173Y-50082202D01*
X117903171Y-50082195D01*
X117852929Y-49947488D01*
X117852925Y-49947481D01*
X117766765Y-49832387D01*
X117766762Y-49832384D01*
X117651668Y-49746224D01*
X117651661Y-49746220D01*
X117516954Y-49695978D01*
X117516947Y-49695976D01*
X117457419Y-49689575D01*
X116659575Y-49689575D01*
X116659575Y-50539575D01*
X116159575Y-50539575D01*
X116159575Y-49689575D01*
X115361730Y-49689575D01*
X115302202Y-49695976D01*
X115302195Y-49695978D01*
X115167488Y-49746220D01*
X115167481Y-49746224D01*
X115052387Y-49832384D01*
X115052384Y-49832387D01*
X114966224Y-49947481D01*
X114966220Y-49947488D01*
X114915978Y-50082195D01*
X114915976Y-50082202D01*
X114909575Y-50141730D01*
X111280075Y-50141730D01*
X111280075Y-49600520D01*
X111280075Y-49600518D01*
X111247799Y-49480065D01*
X111239152Y-49447790D01*
X111239152Y-49447789D01*
X111210214Y-49397670D01*
X111210212Y-49397667D01*
X111185162Y-49354278D01*
X111160095Y-49310859D01*
X111048291Y-49199055D01*
X111048290Y-49199054D01*
X111043960Y-49194724D01*
X111043949Y-49194714D01*
X109158015Y-47308780D01*
X109158013Y-47308777D01*
X109039142Y-47189906D01*
X109039141Y-47189905D01*
X108952329Y-47139785D01*
X108952329Y-47139784D01*
X108952325Y-47139783D01*
X108902210Y-47110848D01*
X108749482Y-47069924D01*
X108591368Y-47069924D01*
X108583772Y-47069924D01*
X108583756Y-47069925D01*
X105470522Y-47069925D01*
X105403483Y-47050240D01*
X105382841Y-47033606D01*
X100952265Y-42603030D01*
X100952263Y-42603027D01*
X100833392Y-42484156D01*
X100833391Y-42484155D01*
X100746579Y-42434035D01*
X100746579Y-42434034D01*
X100746575Y-42434033D01*
X100696460Y-42405098D01*
X100543732Y-42364174D01*
X100385618Y-42364174D01*
X100378022Y-42364174D01*
X100378006Y-42364175D01*
X91905772Y-42364175D01*
X91838733Y-42344490D01*
X91818091Y-42327856D01*
X88797492Y-39307257D01*
X96109575Y-39307257D01*
X96109575Y-39511892D01*
X96141584Y-39713992D01*
X96204819Y-39908606D01*
X96297716Y-40090925D01*
X96297722Y-40090934D01*
X96330098Y-40135496D01*
X96330099Y-40135497D01*
X97009575Y-39456021D01*
X97009575Y-39462236D01*
X97036834Y-39563969D01*
X97089495Y-39655181D01*
X97163969Y-39729655D01*
X97255181Y-39782316D01*
X97356914Y-39809575D01*
X97363128Y-39809575D01*
X96683651Y-40489049D01*
X96728225Y-40521434D01*
X96910543Y-40614330D01*
X97105157Y-40677565D01*
X97307258Y-40709575D01*
X97511892Y-40709575D01*
X97713992Y-40677565D01*
X97908606Y-40614330D01*
X98090924Y-40521434D01*
X98135496Y-40489049D01*
X97456022Y-39809575D01*
X97462236Y-39809575D01*
X97563969Y-39782316D01*
X97655181Y-39729655D01*
X97729655Y-39655181D01*
X97782316Y-39563969D01*
X97809575Y-39462236D01*
X97809575Y-39456023D01*
X98489049Y-40135497D01*
X98489049Y-40135496D01*
X98521434Y-40090924D01*
X98614330Y-39908606D01*
X98677565Y-39713992D01*
X98709575Y-39511892D01*
X98709575Y-39315088D01*
X101209075Y-39315088D01*
X101209075Y-39504061D01*
X101238634Y-39690693D01*
X101297029Y-39870411D01*
X101382501Y-40038158D01*
X101382815Y-40038774D01*
X101493885Y-40191648D01*
X101627502Y-40325265D01*
X101780376Y-40436335D01*
X101802705Y-40447712D01*
X101948738Y-40522120D01*
X101948740Y-40522120D01*
X101948743Y-40522122D01*
X102045072Y-40553421D01*
X102128456Y-40580515D01*
X102315089Y-40610075D01*
X102315094Y-40610075D01*
X102504061Y-40610075D01*
X102690693Y-40580515D01*
X102870407Y-40522122D01*
X103038774Y-40436335D01*
X103191648Y-40325265D01*
X103325265Y-40191648D01*
X103436335Y-40038774D01*
X103522122Y-39870407D01*
X103580515Y-39690693D01*
X103584505Y-39665500D01*
X103610075Y-39504061D01*
X103610075Y-39315088D01*
X103580515Y-39128456D01*
X103522120Y-38948738D01*
X103469783Y-38846021D01*
X103436335Y-38780376D01*
X103325265Y-38627502D01*
X103191648Y-38493885D01*
X103038774Y-38382815D01*
X102995936Y-38360988D01*
X102870411Y-38297029D01*
X102690693Y-38238634D01*
X102504061Y-38209075D01*
X102504056Y-38209075D01*
X102315094Y-38209075D01*
X102315089Y-38209075D01*
X102128456Y-38238634D01*
X101948738Y-38297029D01*
X101780375Y-38382815D01*
X101693154Y-38446185D01*
X101627502Y-38493885D01*
X101627500Y-38493887D01*
X101627499Y-38493887D01*
X101493887Y-38627499D01*
X101493887Y-38627500D01*
X101493885Y-38627502D01*
X101446185Y-38693154D01*
X101382815Y-38780375D01*
X101297029Y-38948738D01*
X101238634Y-39128456D01*
X101209075Y-39315088D01*
X98709575Y-39315088D01*
X98709575Y-39307257D01*
X98677565Y-39105157D01*
X98614330Y-38910543D01*
X98521434Y-38728225D01*
X98489049Y-38683652D01*
X98489049Y-38683651D01*
X97809575Y-39363126D01*
X97809575Y-39356914D01*
X97782316Y-39255181D01*
X97729655Y-39163969D01*
X97655181Y-39089495D01*
X97563969Y-39036834D01*
X97462236Y-39009575D01*
X97456021Y-39009575D01*
X98135497Y-38330099D01*
X98135496Y-38330098D01*
X98090934Y-38297722D01*
X98090925Y-38297716D01*
X97908606Y-38204819D01*
X97713992Y-38141584D01*
X97511892Y-38109575D01*
X97307258Y-38109575D01*
X97105157Y-38141584D01*
X96910543Y-38204819D01*
X96728219Y-38297718D01*
X96683652Y-38330098D01*
X96683652Y-38330099D01*
X97363129Y-39009575D01*
X97356914Y-39009575D01*
X97255181Y-39036834D01*
X97163969Y-39089495D01*
X97089495Y-39163969D01*
X97036834Y-39255181D01*
X97009575Y-39356914D01*
X97009575Y-39363128D01*
X96330099Y-38683652D01*
X96330098Y-38683652D01*
X96297718Y-38728219D01*
X96204819Y-38910543D01*
X96141584Y-39105157D01*
X96109575Y-39307257D01*
X88797492Y-39307257D01*
X84639500Y-35149265D01*
X84606015Y-35087942D01*
X84610999Y-35018250D01*
X84652871Y-34962317D01*
X84670886Y-34951099D01*
X84736008Y-34917918D01*
X84927085Y-34779092D01*
X85094092Y-34612085D01*
X85119257Y-34577447D01*
X85174586Y-34534782D01*
X85244200Y-34528803D01*
X85305995Y-34561408D01*
X85319893Y-34577448D01*
X85340906Y-34606371D01*
X85345058Y-34612085D01*
X85512065Y-34779092D01*
X85703142Y-34917918D01*
X85790280Y-34962317D01*
X85913578Y-35025141D01*
X85913580Y-35025141D01*
X85913583Y-35025143D01*
X86001494Y-35053707D01*
X86138206Y-35098128D01*
X86371478Y-35135075D01*
X86371483Y-35135075D01*
X86607672Y-35135075D01*
X86840943Y-35098128D01*
X86872292Y-35087942D01*
X87065567Y-35025143D01*
X87276008Y-34917918D01*
X87467085Y-34779092D01*
X87634092Y-34612085D01*
X87772918Y-34421008D01*
X87842907Y-34283646D01*
X98809575Y-34283646D01*
X98809575Y-34535503D01*
X98848972Y-34784244D01*
X98926794Y-35023759D01*
X99041132Y-35248158D01*
X99115323Y-35350272D01*
X99115323Y-35350273D01*
X99926612Y-34538984D01*
X99943650Y-34602568D01*
X100009476Y-34716582D01*
X100102568Y-34809674D01*
X100216582Y-34875500D01*
X100280165Y-34892537D01*
X99468875Y-35703825D01*
X99570991Y-35778017D01*
X99795390Y-35892355D01*
X100034905Y-35970177D01*
X100283647Y-36009575D01*
X100535503Y-36009575D01*
X100784244Y-35970177D01*
X101023759Y-35892355D01*
X101248150Y-35778021D01*
X101248156Y-35778017D01*
X101350272Y-35703825D01*
X101350273Y-35703825D01*
X100538984Y-34892537D01*
X100602568Y-34875500D01*
X100716582Y-34809674D01*
X100809674Y-34716582D01*
X100875500Y-34602568D01*
X100892537Y-34538985D01*
X101703823Y-35350271D01*
X101706555Y-35350057D01*
X101774933Y-35364420D01*
X101803967Y-35385994D01*
X101805058Y-35387085D01*
X101972065Y-35554092D01*
X102163142Y-35692918D01*
X102181369Y-35702205D01*
X102232165Y-35750178D01*
X102249075Y-35812690D01*
X102249075Y-36580581D01*
X102249075Y-36718569D01*
X102249075Y-36718571D01*
X102249074Y-36718571D01*
X102275993Y-36853897D01*
X102275996Y-36853907D01*
X102328797Y-36981382D01*
X102405462Y-37096120D01*
X109153454Y-43844112D01*
X109268190Y-43920776D01*
X109366790Y-43961617D01*
X109395671Y-43973580D01*
X109395672Y-43973580D01*
X109395677Y-43973582D01*
X109422545Y-43978925D01*
X109422551Y-43978926D01*
X109422591Y-43978934D01*
X109512937Y-43996905D01*
X109531006Y-44000500D01*
X109531007Y-44000500D01*
X114768996Y-44000500D01*
X114877457Y-43978925D01*
X114904328Y-43973580D01*
X114968069Y-43947177D01*
X115031807Y-43920777D01*
X115031808Y-43920776D01*
X115031811Y-43920775D01*
X115146543Y-43844114D01*
X116953689Y-42036968D01*
X117030350Y-41922236D01*
X117083155Y-41794754D01*
X117092402Y-41748266D01*
X117110075Y-41659418D01*
X117110075Y-40447712D01*
X117129760Y-40380673D01*
X117161190Y-40347393D01*
X117191648Y-40325265D01*
X117325265Y-40191648D01*
X117436335Y-40038774D01*
X117522122Y-39870407D01*
X117580515Y-39690693D01*
X117584505Y-39665500D01*
X117610075Y-39504061D01*
X117610075Y-39315088D01*
X117580515Y-39128456D01*
X117522120Y-38948738D01*
X117469783Y-38846021D01*
X117436335Y-38780376D01*
X117325265Y-38627502D01*
X117191648Y-38493885D01*
X117038774Y-38382815D01*
X116995936Y-38360988D01*
X116870411Y-38297029D01*
X116690693Y-38238634D01*
X116504061Y-38209075D01*
X116504056Y-38209075D01*
X116315094Y-38209075D01*
X116315089Y-38209075D01*
X116128456Y-38238634D01*
X115948738Y-38297029D01*
X115780375Y-38382815D01*
X115693154Y-38446185D01*
X115627502Y-38493885D01*
X115627500Y-38493887D01*
X115627499Y-38493887D01*
X115493887Y-38627499D01*
X115493887Y-38627500D01*
X115493885Y-38627502D01*
X115446185Y-38693154D01*
X115382815Y-38780375D01*
X115297029Y-38948738D01*
X115238634Y-39128456D01*
X115209075Y-39315088D01*
X115209075Y-39504061D01*
X115238634Y-39690693D01*
X115297029Y-39870411D01*
X115382501Y-40038158D01*
X115382815Y-40038774D01*
X115493885Y-40191648D01*
X115627502Y-40325265D01*
X115627503Y-40325266D01*
X115627502Y-40325266D01*
X115648017Y-40340170D01*
X115657958Y-40347393D01*
X115700625Y-40402722D01*
X115709075Y-40447712D01*
X115709075Y-41248906D01*
X115689390Y-41315945D01*
X115672756Y-41336587D01*
X114446162Y-42563181D01*
X114384839Y-42596666D01*
X114358481Y-42599500D01*
X109941519Y-42599500D01*
X109874480Y-42579815D01*
X109853838Y-42563181D01*
X103686394Y-36395737D01*
X103652909Y-36334414D01*
X103650075Y-36308056D01*
X103650075Y-35812690D01*
X103669760Y-35745651D01*
X103717780Y-35702205D01*
X103736008Y-35692918D01*
X103927085Y-35554092D01*
X104094092Y-35387085D01*
X104119257Y-35352447D01*
X104174586Y-35309782D01*
X104244200Y-35303803D01*
X104305995Y-35336408D01*
X104319890Y-35352445D01*
X104345058Y-35387085D01*
X104512065Y-35554092D01*
X104703142Y-35692918D01*
X104789075Y-35736703D01*
X104913578Y-35800141D01*
X104913580Y-35800141D01*
X104913583Y-35800143D01*
X104952199Y-35812690D01*
X105138206Y-35873128D01*
X105371478Y-35910075D01*
X105371483Y-35910075D01*
X105607672Y-35910075D01*
X105840943Y-35873128D01*
X105870138Y-35863642D01*
X106065567Y-35800143D01*
X106276008Y-35692918D01*
X106467085Y-35554092D01*
X106634092Y-35387085D01*
X106659257Y-35352447D01*
X106714586Y-35309782D01*
X106784200Y-35303803D01*
X106845995Y-35336408D01*
X106859890Y-35352445D01*
X106885058Y-35387085D01*
X107052065Y-35554092D01*
X107243142Y-35692918D01*
X107329075Y-35736703D01*
X107453578Y-35800141D01*
X107453580Y-35800141D01*
X107453583Y-35800143D01*
X107492199Y-35812690D01*
X107678206Y-35873128D01*
X107911478Y-35910075D01*
X107911483Y-35910075D01*
X108147672Y-35910075D01*
X108380943Y-35873128D01*
X108410138Y-35863642D01*
X108605567Y-35800143D01*
X108816008Y-35692918D01*
X109007085Y-35554092D01*
X109174092Y-35387085D01*
X109199257Y-35352447D01*
X109254586Y-35309782D01*
X109324200Y-35303803D01*
X109385995Y-35336408D01*
X109399890Y-35352445D01*
X109425058Y-35387085D01*
X109592065Y-35554092D01*
X109689408Y-35624816D01*
X109783143Y-35692919D01*
X109854723Y-35729390D01*
X109901369Y-35753157D01*
X109952165Y-35801131D01*
X109969075Y-35863642D01*
X109969075Y-37329477D01*
X109949390Y-37396516D01*
X109932756Y-37417158D01*
X109150405Y-38199508D01*
X109089082Y-38232993D01*
X109043326Y-38234300D01*
X108884061Y-38209075D01*
X108884056Y-38209075D01*
X108695094Y-38209075D01*
X108695089Y-38209075D01*
X108508456Y-38238634D01*
X108328738Y-38297029D01*
X108160375Y-38382815D01*
X108073154Y-38446185D01*
X108007502Y-38493885D01*
X108007500Y-38493887D01*
X108007499Y-38493887D01*
X107873887Y-38627499D01*
X107873887Y-38627500D01*
X107873885Y-38627502D01*
X107826185Y-38693154D01*
X107762815Y-38780375D01*
X107677029Y-38948738D01*
X107618634Y-39128456D01*
X107589075Y-39315088D01*
X107589075Y-39504061D01*
X107618634Y-39690693D01*
X107677029Y-39870411D01*
X107762501Y-40038158D01*
X107762815Y-40038774D01*
X107873885Y-40191648D01*
X108007502Y-40325265D01*
X108160376Y-40436335D01*
X108182705Y-40447712D01*
X108328738Y-40522120D01*
X108328740Y-40522120D01*
X108328743Y-40522122D01*
X108425072Y-40553421D01*
X108508456Y-40580515D01*
X108695089Y-40610075D01*
X108695094Y-40610075D01*
X108884061Y-40610075D01*
X109070693Y-40580515D01*
X109250407Y-40522122D01*
X109418774Y-40436335D01*
X109571648Y-40325265D01*
X109705265Y-40191648D01*
X109816335Y-40038774D01*
X109902122Y-39870407D01*
X109960515Y-39690693D01*
X109964505Y-39665500D01*
X109990075Y-39504061D01*
X109990075Y-39315088D01*
X109964849Y-39155821D01*
X109973803Y-39086528D01*
X109999638Y-39048745D01*
X110938288Y-38110096D01*
X110938291Y-38110095D01*
X111050095Y-37998291D01*
X111100214Y-37911479D01*
X111129152Y-37861360D01*
X111170075Y-37708632D01*
X111170075Y-37550518D01*
X111170075Y-35863642D01*
X111189760Y-35796603D01*
X111237780Y-35753157D01*
X111356008Y-35692918D01*
X111547085Y-35554092D01*
X111714092Y-35387085D01*
X111739257Y-35352447D01*
X111794586Y-35309782D01*
X111864200Y-35303803D01*
X111925995Y-35336408D01*
X111939890Y-35352445D01*
X111965058Y-35387085D01*
X112132065Y-35554092D01*
X112323142Y-35692918D01*
X112409075Y-35736703D01*
X112533578Y-35800141D01*
X112533580Y-35800141D01*
X112533583Y-35800143D01*
X112572199Y-35812690D01*
X112758206Y-35873128D01*
X112991478Y-35910075D01*
X112991483Y-35910075D01*
X113227672Y-35910075D01*
X113460943Y-35873128D01*
X113490138Y-35863642D01*
X113685567Y-35800143D01*
X113896008Y-35692918D01*
X114087085Y-35554092D01*
X114254092Y-35387085D01*
X114279257Y-35352447D01*
X114334586Y-35309782D01*
X114404200Y-35303803D01*
X114465995Y-35336408D01*
X114479890Y-35352445D01*
X114505058Y-35387085D01*
X114672065Y-35554092D01*
X114863142Y-35692918D01*
X114949075Y-35736703D01*
X115073578Y-35800141D01*
X115073580Y-35800141D01*
X115073583Y-35800143D01*
X115269012Y-35863642D01*
X115302842Y-35874634D01*
X115302523Y-35875612D01*
X115356737Y-35905972D01*
X121892701Y-42441936D01*
X121923735Y-42498771D01*
X121924650Y-42498494D01*
X121925982Y-42502886D01*
X121926186Y-42503259D01*
X121926384Y-42504209D01*
X121926420Y-42504330D01*
X121979221Y-42631804D01*
X121979228Y-42631817D01*
X122055885Y-42746541D01*
X122055888Y-42746545D01*
X122153454Y-42844111D01*
X122153458Y-42844114D01*
X122268182Y-42920771D01*
X122268195Y-42920778D01*
X122395667Y-42973578D01*
X122395672Y-42973580D01*
X122395676Y-42973580D01*
X122395677Y-42973581D01*
X122531004Y-43000500D01*
X122531007Y-43000500D01*
X122668995Y-43000500D01*
X122760041Y-42982389D01*
X122804328Y-42973580D01*
X122931811Y-42920775D01*
X123046542Y-42844114D01*
X123144114Y-42746542D01*
X123220775Y-42631811D01*
X123273580Y-42504328D01*
X123287562Y-42434035D01*
X123300500Y-42368995D01*
X123300500Y-42231004D01*
X123273581Y-42095677D01*
X123273580Y-42095676D01*
X123273580Y-42095672D01*
X123249264Y-42036968D01*
X123220778Y-41968195D01*
X123220771Y-41968182D01*
X123144114Y-41853458D01*
X123144111Y-41853454D01*
X123046545Y-41755888D01*
X123046541Y-41755885D01*
X122931817Y-41679228D01*
X122931804Y-41679221D01*
X122804330Y-41626420D01*
X122798494Y-41624650D01*
X122798921Y-41623239D01*
X122743502Y-41594240D01*
X122741936Y-41592701D01*
X116752887Y-35603652D01*
X116750608Y-35599479D01*
X116746616Y-35596897D01*
X116734023Y-35569105D01*
X116719402Y-35542329D01*
X116719741Y-35537586D01*
X116717779Y-35533256D01*
X116722209Y-35503072D01*
X116724386Y-35472637D01*
X116727426Y-35467529D01*
X116727926Y-35464127D01*
X116738435Y-35449038D01*
X116747095Y-35434493D01*
X116749886Y-35431290D01*
X116794092Y-35387085D01*
X116822489Y-35347999D01*
X116826102Y-35343855D01*
X116851097Y-35327894D01*
X116874586Y-35309782D01*
X116880222Y-35309297D01*
X116884991Y-35306253D01*
X116914656Y-35306340D01*
X116944200Y-35303803D01*
X116949202Y-35306442D01*
X116954860Y-35306459D01*
X116979762Y-35322567D01*
X117005995Y-35336408D01*
X117012159Y-35343522D01*
X117013527Y-35344407D01*
X117014186Y-35345861D01*
X117019890Y-35352445D01*
X117045058Y-35387085D01*
X117212065Y-35554092D01*
X117403142Y-35692918D01*
X117489075Y-35736703D01*
X117613578Y-35800141D01*
X117613580Y-35800141D01*
X117613583Y-35800143D01*
X117652199Y-35812690D01*
X117838206Y-35873128D01*
X118071478Y-35910075D01*
X118071483Y-35910075D01*
X118307672Y-35910075D01*
X118540943Y-35873128D01*
X118570138Y-35863642D01*
X118765567Y-35800143D01*
X118976008Y-35692918D01*
X119167085Y-35554092D01*
X119334092Y-35387085D01*
X119472918Y-35196008D01*
X119580143Y-34985567D01*
X119653128Y-34760943D01*
X119665120Y-34685228D01*
X119690075Y-34527672D01*
X119690075Y-34291477D01*
X119653128Y-34058206D01*
X119580141Y-33833578D01*
X119472917Y-33623141D01*
X119459574Y-33604776D01*
X119334092Y-33432065D01*
X119167085Y-33265058D01*
X118976008Y-33126232D01*
X118976007Y-33126231D01*
X118976005Y-33126230D01*
X118957776Y-33116941D01*
X118906982Y-33068965D01*
X118890075Y-33006458D01*
X118890075Y-27084344D01*
X118909760Y-27017305D01*
X118926394Y-26996663D01*
X122176663Y-23746394D01*
X122237986Y-23712909D01*
X122264344Y-23710075D01*
X125394616Y-23710075D01*
X125461655Y-23729760D01*
X125507410Y-23782564D01*
X125517354Y-23851722D01*
X125488329Y-23915278D01*
X125482297Y-23921756D01*
X125463923Y-23940129D01*
X125463917Y-23940137D01*
X125380255Y-24081603D01*
X125380254Y-24081606D01*
X125334402Y-24239426D01*
X125334401Y-24239432D01*
X125331500Y-24276298D01*
X125331500Y-25507701D01*
X125334401Y-25544567D01*
X125334402Y-25544573D01*
X125380254Y-25702393D01*
X125380255Y-25702396D01*
X125463917Y-25843862D01*
X125463923Y-25843870D01*
X125580129Y-25960076D01*
X125580133Y-25960079D01*
X125580135Y-25960081D01*
X125721602Y-26043744D01*
X125742095Y-26049697D01*
X125800980Y-26087304D01*
X125830187Y-26150776D01*
X125831500Y-26168774D01*
X125831500Y-26445630D01*
X125811815Y-26512669D01*
X125795181Y-26533311D01*
X122865465Y-29463026D01*
X122865462Y-29463029D01*
X122840684Y-29500114D01*
X122788803Y-29577758D01*
X122788796Y-29577770D01*
X122735996Y-29705242D01*
X122735993Y-29705252D01*
X122709075Y-29840579D01*
X122709075Y-29840582D01*
X122709075Y-34340581D01*
X122709075Y-34478569D01*
X122709075Y-34478571D01*
X122709074Y-34478571D01*
X122735993Y-34613897D01*
X122735996Y-34613907D01*
X122788797Y-34741382D01*
X122865462Y-34856120D01*
X125003029Y-36993687D01*
X125117767Y-37070352D01*
X125245242Y-37123153D01*
X125245247Y-37123155D01*
X125245251Y-37123155D01*
X125245252Y-37123156D01*
X125380578Y-37150075D01*
X125380581Y-37150075D01*
X130243421Y-37150075D01*
X130334465Y-37131964D01*
X130378753Y-37123155D01*
X130442494Y-37096752D01*
X130506232Y-37070352D01*
X130506233Y-37070351D01*
X130506236Y-37070350D01*
X130620968Y-36993689D01*
X131258586Y-36356069D01*
X131298810Y-36329192D01*
X131353435Y-36306566D01*
X131443173Y-36269397D01*
X131443176Y-36269395D01*
X131443179Y-36269394D01*
X131574289Y-36181789D01*
X131685789Y-36070289D01*
X131773394Y-35939179D01*
X131833737Y-35793497D01*
X131864500Y-35638842D01*
X131864500Y-35481158D01*
X131864500Y-35481155D01*
X131864499Y-35481153D01*
X131855218Y-35434493D01*
X131833737Y-35326503D01*
X131825349Y-35306253D01*
X131773397Y-35180827D01*
X131773390Y-35180814D01*
X131685789Y-35049711D01*
X131685786Y-35049707D01*
X131574292Y-34938213D01*
X131574288Y-34938210D01*
X131443185Y-34850609D01*
X131443172Y-34850602D01*
X131297501Y-34790264D01*
X131297489Y-34790261D01*
X131142845Y-34759500D01*
X131142842Y-34759500D01*
X130985158Y-34759500D01*
X130985155Y-34759500D01*
X130830510Y-34790261D01*
X130830498Y-34790264D01*
X130684827Y-34850602D01*
X130684814Y-34850609D01*
X130553711Y-34938210D01*
X130553707Y-34938213D01*
X130442213Y-35049707D01*
X130442210Y-35049711D01*
X130354609Y-35180814D01*
X130354604Y-35180823D01*
X130294809Y-35325184D01*
X130267929Y-35365412D01*
X129920587Y-35712756D01*
X129859264Y-35746241D01*
X129832906Y-35749075D01*
X125791094Y-35749075D01*
X125724055Y-35729390D01*
X125703413Y-35712756D01*
X124146394Y-34155737D01*
X124112909Y-34094414D01*
X124110075Y-34068056D01*
X124110075Y-30251094D01*
X124129760Y-30184055D01*
X124146394Y-30163413D01*
X127076112Y-27233695D01*
X127076114Y-27233693D01*
X127152775Y-27118961D01*
X127205580Y-26991478D01*
X127232500Y-26856144D01*
X127232500Y-26718156D01*
X127232500Y-26168774D01*
X127252185Y-26101735D01*
X127304989Y-26055980D01*
X127321900Y-26049698D01*
X127342398Y-26043744D01*
X127483865Y-25960081D01*
X127600081Y-25843865D01*
X127683744Y-25702398D01*
X127707437Y-25620846D01*
X127745041Y-25561964D01*
X127808513Y-25532757D01*
X127877700Y-25542503D01*
X127926830Y-25582559D01*
X127952522Y-25617921D01*
X127952524Y-25617922D01*
X128632000Y-24938446D01*
X128632000Y-24944661D01*
X128659259Y-25046394D01*
X128711920Y-25137606D01*
X128786394Y-25212080D01*
X128877606Y-25264741D01*
X128979339Y-25292000D01*
X128985553Y-25292000D01*
X128306076Y-25971474D01*
X128350650Y-26003859D01*
X128532968Y-26096755D01*
X128727582Y-26159990D01*
X128929683Y-26192000D01*
X129134317Y-26192000D01*
X129336417Y-26159990D01*
X129531031Y-26096755D01*
X129713349Y-26003859D01*
X129757921Y-25971474D01*
X129078447Y-25292000D01*
X129084661Y-25292000D01*
X129186394Y-25264741D01*
X129277606Y-25212080D01*
X129352080Y-25137606D01*
X129404741Y-25046394D01*
X129432000Y-24944661D01*
X129432000Y-24938447D01*
X130111474Y-25617921D01*
X130143859Y-25573349D01*
X130236755Y-25391031D01*
X130299990Y-25196417D01*
X130332000Y-24994317D01*
X130332000Y-24789682D01*
X130299990Y-24587582D01*
X130236755Y-24392968D01*
X130143859Y-24210650D01*
X130111474Y-24166077D01*
X130111474Y-24166076D01*
X129432000Y-24845551D01*
X129432000Y-24839339D01*
X129404741Y-24737606D01*
X129352080Y-24646394D01*
X129277606Y-24571920D01*
X129186394Y-24519259D01*
X129084661Y-24492000D01*
X129078446Y-24492000D01*
X129769357Y-23801089D01*
X129774749Y-23775425D01*
X129823801Y-23725669D01*
X129884002Y-23710075D01*
X134936056Y-23710075D01*
X135003095Y-23729760D01*
X135023737Y-23746394D01*
X140777453Y-29500111D01*
X140777454Y-29500112D01*
X140892192Y-29576777D01*
X141019667Y-29629578D01*
X141019672Y-29629580D01*
X141019676Y-29629580D01*
X141019677Y-29629581D01*
X141155003Y-29656500D01*
X141155006Y-29656500D01*
X141292996Y-29656500D01*
X141384040Y-29638389D01*
X141428328Y-29629580D01*
X141492069Y-29603177D01*
X141555807Y-29576777D01*
X141555808Y-29576776D01*
X141555811Y-29576775D01*
X141670543Y-29500114D01*
X141768114Y-29402543D01*
X141844775Y-29287811D01*
X141897580Y-29160328D01*
X141924500Y-29024994D01*
X141924500Y-28887006D01*
X141924500Y-28887003D01*
X141897581Y-28751677D01*
X141897580Y-28751676D01*
X141897580Y-28751672D01*
X141897578Y-28751667D01*
X141844777Y-28624192D01*
X141768112Y-28509454D01*
X135724120Y-22465462D01*
X135609382Y-22388797D01*
X135481907Y-22335996D01*
X135481897Y-22335993D01*
X135346571Y-22309075D01*
X135346569Y-22309075D01*
X135346568Y-22309075D01*
X121991819Y-22309075D01*
X121853831Y-22309075D01*
X121853829Y-22309075D01*
X121718502Y-22335993D01*
X121718492Y-22335996D01*
X121591017Y-22388797D01*
X121476279Y-22465462D01*
X117645462Y-26296279D01*
X117568797Y-26411017D01*
X117515996Y-26538492D01*
X117515993Y-26538502D01*
X117489075Y-26673829D01*
X117489075Y-33006458D01*
X117469390Y-33073497D01*
X117421374Y-33116941D01*
X117403144Y-33126230D01*
X117307603Y-33195645D01*
X117212065Y-33265058D01*
X117212063Y-33265060D01*
X117212062Y-33265060D01*
X117045059Y-33432063D01*
X117032797Y-33448940D01*
X117019939Y-33466639D01*
X117019893Y-33466702D01*
X116964562Y-33509367D01*
X116894949Y-33515346D01*
X116833154Y-33482740D01*
X116819257Y-33466702D01*
X116794092Y-33432065D01*
X116627085Y-33265058D01*
X116436008Y-33126232D01*
X116436004Y-33126230D01*
X116225571Y-33019008D01*
X116000943Y-32946021D01*
X115767672Y-32909075D01*
X115767667Y-32909075D01*
X115531483Y-32909075D01*
X115531478Y-32909075D01*
X115298206Y-32946021D01*
X115073578Y-33019008D01*
X114863141Y-33126232D01*
X114760371Y-33200900D01*
X114672065Y-33265058D01*
X114672063Y-33265060D01*
X114672062Y-33265060D01*
X114505059Y-33432063D01*
X114492797Y-33448940D01*
X114479939Y-33466639D01*
X114479893Y-33466702D01*
X114424562Y-33509367D01*
X114354949Y-33515346D01*
X114293154Y-33482740D01*
X114279257Y-33466702D01*
X114254092Y-33432065D01*
X114087085Y-33265058D01*
X113896008Y-33126232D01*
X113896004Y-33126230D01*
X113685571Y-33019008D01*
X113460943Y-32946021D01*
X113227672Y-32909075D01*
X113227667Y-32909075D01*
X112991483Y-32909075D01*
X112991478Y-32909075D01*
X112758206Y-32946021D01*
X112533578Y-33019008D01*
X112323141Y-33126232D01*
X112220371Y-33200900D01*
X112132065Y-33265058D01*
X112132063Y-33265060D01*
X112132062Y-33265060D01*
X111965059Y-33432063D01*
X111952797Y-33448940D01*
X111939939Y-33466639D01*
X111939893Y-33466702D01*
X111884562Y-33509367D01*
X111814949Y-33515346D01*
X111753154Y-33482740D01*
X111739257Y-33466702D01*
X111714092Y-33432065D01*
X111547085Y-33265058D01*
X111356008Y-33126232D01*
X111356004Y-33126230D01*
X111145571Y-33019008D01*
X110920943Y-32946021D01*
X110687672Y-32909075D01*
X110687667Y-32909075D01*
X110451483Y-32909075D01*
X110451478Y-32909075D01*
X110218206Y-32946021D01*
X109993578Y-33019008D01*
X109783141Y-33126232D01*
X109680371Y-33200900D01*
X109592065Y-33265058D01*
X109592063Y-33265060D01*
X109592062Y-33265060D01*
X109425059Y-33432063D01*
X109412797Y-33448940D01*
X109399939Y-33466639D01*
X109399893Y-33466702D01*
X109344562Y-33509367D01*
X109274949Y-33515346D01*
X109213154Y-33482740D01*
X109199257Y-33466702D01*
X109174092Y-33432065D01*
X109007085Y-33265058D01*
X108816008Y-33126232D01*
X108816004Y-33126230D01*
X108605571Y-33019008D01*
X108380943Y-32946021D01*
X108147672Y-32909075D01*
X108147667Y-32909075D01*
X107911483Y-32909075D01*
X107911478Y-32909075D01*
X107678206Y-32946021D01*
X107453578Y-33019008D01*
X107243141Y-33126232D01*
X107140371Y-33200900D01*
X107052065Y-33265058D01*
X107052063Y-33265060D01*
X107052062Y-33265060D01*
X106885059Y-33432063D01*
X106872797Y-33448940D01*
X106859939Y-33466639D01*
X106859893Y-33466702D01*
X106804562Y-33509367D01*
X106734949Y-33515346D01*
X106673154Y-33482740D01*
X106659257Y-33466702D01*
X106634092Y-33432065D01*
X106467085Y-33265058D01*
X106276008Y-33126232D01*
X106276004Y-33126230D01*
X106065571Y-33019008D01*
X105840943Y-32946021D01*
X105607672Y-32909075D01*
X105607667Y-32909075D01*
X105371483Y-32909075D01*
X105371478Y-32909075D01*
X105138206Y-32946021D01*
X104913578Y-33019008D01*
X104703141Y-33126232D01*
X104600371Y-33200900D01*
X104512065Y-33265058D01*
X104512063Y-33265060D01*
X104512062Y-33265060D01*
X104345059Y-33432063D01*
X104332797Y-33448940D01*
X104319939Y-33466639D01*
X104319893Y-33466702D01*
X104264562Y-33509367D01*
X104194949Y-33515346D01*
X104133154Y-33482740D01*
X104119257Y-33466702D01*
X104094092Y-33432065D01*
X103927085Y-33265058D01*
X103736008Y-33126232D01*
X103736004Y-33126230D01*
X103525571Y-33019008D01*
X103300943Y-32946021D01*
X103067672Y-32909075D01*
X103067667Y-32909075D01*
X102831483Y-32909075D01*
X102831478Y-32909075D01*
X102598206Y-32946021D01*
X102373578Y-33019008D01*
X102163141Y-33126232D01*
X102060371Y-33200900D01*
X101972065Y-33265058D01*
X101972063Y-33265060D01*
X101972061Y-33265061D01*
X101803968Y-33433154D01*
X101742645Y-33466639D01*
X101706558Y-33469091D01*
X101703825Y-33468875D01*
X100892537Y-34280164D01*
X100875500Y-34216582D01*
X100809674Y-34102568D01*
X100716582Y-34009476D01*
X100602568Y-33943650D01*
X100538983Y-33926612D01*
X101350273Y-33115323D01*
X101248158Y-33041132D01*
X101023759Y-32926794D01*
X100784244Y-32848972D01*
X100535503Y-32809575D01*
X100283647Y-32809575D01*
X100034905Y-32848972D01*
X99795390Y-32926794D01*
X99570988Y-33041134D01*
X99468876Y-33115322D01*
X99468875Y-33115323D01*
X100280165Y-33926612D01*
X100216582Y-33943650D01*
X100102568Y-34009476D01*
X100009476Y-34102568D01*
X99943650Y-34216582D01*
X99926612Y-34280165D01*
X99115323Y-33468875D01*
X99115322Y-33468876D01*
X99041134Y-33570988D01*
X98926794Y-33795390D01*
X98848972Y-34034905D01*
X98809575Y-34283646D01*
X87842907Y-34283646D01*
X87851600Y-34266586D01*
X87874071Y-34222485D01*
X87874071Y-34222484D01*
X87877078Y-34216582D01*
X87880143Y-34210567D01*
X87953128Y-33985943D01*
X87959827Y-33943650D01*
X87990075Y-33752672D01*
X87990075Y-33516477D01*
X87953128Y-33283206D01*
X87926385Y-33200902D01*
X87880143Y-33058583D01*
X87772918Y-32848142D01*
X87634092Y-32657065D01*
X87467085Y-32490058D01*
X87276008Y-32351232D01*
X87065571Y-32244008D01*
X86840943Y-32171021D01*
X86607672Y-32134075D01*
X86607667Y-32134075D01*
X86371483Y-32134075D01*
X86371478Y-32134075D01*
X86138206Y-32171021D01*
X85913578Y-32244008D01*
X85703141Y-32351232D01*
X85594125Y-32430437D01*
X85512065Y-32490058D01*
X85512063Y-32490060D01*
X85512062Y-32490060D01*
X85345059Y-32657063D01*
X85319893Y-32691702D01*
X85264562Y-32734367D01*
X85194949Y-32740346D01*
X85133154Y-32707740D01*
X85119257Y-32691702D01*
X85094092Y-32657065D01*
X84927085Y-32490058D01*
X84736008Y-32351232D01*
X84525571Y-32244008D01*
X84300943Y-32171021D01*
X84067672Y-32134075D01*
X84067667Y-32134075D01*
X83831483Y-32134075D01*
X83831478Y-32134075D01*
X83598206Y-32171021D01*
X83373578Y-32244008D01*
X83163141Y-32351232D01*
X83054125Y-32430437D01*
X82972065Y-32490058D01*
X82972063Y-32490060D01*
X82972062Y-32490060D01*
X82805059Y-32657063D01*
X82779893Y-32691702D01*
X82724562Y-32734367D01*
X82654949Y-32740346D01*
X82593154Y-32707740D01*
X82579257Y-32691702D01*
X82554092Y-32657065D01*
X82387085Y-32490058D01*
X82196008Y-32351232D01*
X81985571Y-32244008D01*
X81760943Y-32171021D01*
X81527672Y-32134075D01*
X81527667Y-32134075D01*
X81291483Y-32134075D01*
X81291478Y-32134075D01*
X81058206Y-32171021D01*
X80833578Y-32244008D01*
X80623141Y-32351232D01*
X80514125Y-32430437D01*
X80432065Y-32490058D01*
X80432063Y-32490060D01*
X80432062Y-32490060D01*
X80265060Y-32657062D01*
X80265060Y-32657063D01*
X80265058Y-32657065D01*
X80208895Y-32734367D01*
X80126232Y-32848141D01*
X80125809Y-32848972D01*
X80076360Y-32946022D01*
X80065992Y-32966370D01*
X80018017Y-33017166D01*
X79955507Y-33034075D01*
X78356882Y-33034075D01*
X78198767Y-33034075D01*
X78046040Y-33074998D01*
X78046039Y-33074998D01*
X78046037Y-33074999D01*
X78046034Y-33075000D01*
X77995921Y-33103934D01*
X77995920Y-33103935D01*
X77973393Y-33116941D01*
X77909110Y-33154054D01*
X77909107Y-33154056D01*
X76019481Y-35043682D01*
X76019479Y-35043685D01*
X76016000Y-35049711D01*
X75979197Y-35113457D01*
X75940423Y-35180615D01*
X75899499Y-35333343D01*
X75899499Y-35491457D01*
X75899499Y-35491459D01*
X75899500Y-35501453D01*
X75899500Y-43413330D01*
X75899499Y-43413348D01*
X75899499Y-43579054D01*
X75899498Y-43579054D01*
X65000000Y-43579054D01*
X65000000Y-21624000D01*
X65019685Y-21556961D01*
X65072489Y-21511206D01*
X65124000Y-21500000D01*
X148876000Y-21500000D01*
X148943039Y-21519685D01*
G37*
%TD.AperFunction*%
%TD*%
M02*
