%TF.GenerationSoftware,KiCad,Pcbnew,10.0.3-2.fc44*%
%TF.CreationDate,2026-06-16T15:59:11-04:00*%
%TF.ProjectId,SupaClock_Carrier,53757061-436c-46f6-936b-5f4361727269,v1.0*%
%TF.SameCoordinates,Original*%
%TF.FileFunction,Soldermask,Bot*%
%TF.FilePolarity,Negative*%
%FSLAX46Y46*%
G04 Gerber Fmt 4.6, Leading zero omitted, Abs format (unit mm)*
G04 Created by KiCad (PCBNEW 10.0.3-2.fc44) date 2026-06-16 15:59:11*
%MOMM*%
%LPD*%
G01*
G04 APERTURE LIST*
G04 Aperture macros list*
%AMRoundRect*
0 Rectangle with rounded corners*
0 $1 Rounding radius*
0 $2 $3 $4 $5 $6 $7 $8 $9 X,Y pos of 4 corners*
0 Add a 4 corners polygon primitive as box body*
4,1,4,$2,$3,$4,$5,$6,$7,$8,$9,$2,$3,0*
0 Add four circle primitives for the rounded corners*
1,1,$1+$1,$2,$3*
1,1,$1+$1,$4,$5*
1,1,$1+$1,$6,$7*
1,1,$1+$1,$8,$9*
0 Add four rect primitives between the rounded corners*
20,1,$1+$1,$2,$3,$4,$5,0*
20,1,$1+$1,$4,$5,$6,$7,0*
20,1,$1+$1,$6,$7,$8,$9,0*
20,1,$1+$1,$8,$9,$2,$3,0*%
G04 Aperture macros list end*
%ADD10C,2.200000*%
%ADD11C,1.600000*%
%ADD12C,6.000000*%
%ADD13RoundRect,0.250000X-0.550000X-0.550000X0.550000X-0.550000X0.550000X0.550000X-0.550000X0.550000X0*%
%ADD14R,2.000000X1.200000*%
%ADD15R,1.200000X2.000000*%
G04 APERTURE END LIST*
D10*
%TO.C,J11*%
X91934575Y-70434575D03*
X91934575Y-67894575D03*
X91934575Y-65354575D03*
X91934575Y-62814575D03*
X91934575Y-60274575D03*
X91934575Y-57734575D03*
%TD*%
D11*
%TO.C,C6*%
X102409575Y-39409575D03*
X97409575Y-39409575D03*
%TD*%
%TO.C,R5*%
X116409575Y-39409575D03*
X108789575Y-39409575D03*
%TD*%
D10*
%TO.C,J13*%
X77934575Y-80434575D03*
X75394575Y-80434575D03*
X72854575Y-80434575D03*
%TD*%
%TO.C,J5*%
X128384575Y-77509575D03*
X128384575Y-74969575D03*
X128384575Y-72429575D03*
X128384575Y-69889575D03*
X128384575Y-67349575D03*
X128384575Y-64809575D03*
X128384575Y-62269575D03*
%TD*%
%TO.C,J6a1*%
X81434575Y-41659575D03*
X83974575Y-41659575D03*
X86514575Y-41659575D03*
%TD*%
D12*
%TO.C,J12_RA1*%
X107500000Y-84000000D03*
%TD*%
D10*
%TO.C,J6b1*%
X81409575Y-33634575D03*
X83949575Y-33634575D03*
X86489575Y-33634575D03*
%TD*%
D13*
%TO.C,C2*%
X126532000Y-24892000D03*
D11*
X129032000Y-24892000D03*
%TD*%
D10*
%TO.C,J7*%
X118189575Y-34409575D03*
X115649575Y-34409575D03*
X113109575Y-34409575D03*
X110569575Y-34409575D03*
X108029575Y-34409575D03*
X105489575Y-34409575D03*
X102949575Y-34409575D03*
X100409575Y-34409575D03*
%TD*%
D11*
%TO.C,C3*%
X140409575Y-52909575D03*
X140409575Y-57909575D03*
%TD*%
D12*
%TO.C,J12_LA1*%
X129909575Y-55909575D03*
%TD*%
%TO.C,J12_RL1*%
X76500000Y-56500000D03*
%TD*%
D10*
%TO.C,J6c1*%
X79434575Y-36659575D03*
X79434575Y-39199575D03*
%TD*%
D14*
%TO.C,J3*%
X101409575Y-58639575D03*
X101409575Y-56099575D03*
X101409575Y-53559575D03*
X101409575Y-51019575D03*
%TD*%
D15*
%TO.C,J4*%
X118299575Y-75909575D03*
X115759575Y-75909575D03*
X113219575Y-75909575D03*
X110679575Y-75909575D03*
X108139575Y-75909575D03*
X105599575Y-75909575D03*
X103059575Y-75909575D03*
X100519575Y-75909575D03*
%TD*%
D14*
%TO.C,J14*%
X116409575Y-58409575D03*
X116409575Y-55869575D03*
X116409575Y-53329575D03*
X116409575Y-50789575D03*
%TD*%
M02*
