%TF.GenerationSoftware,KiCad,Pcbnew,10.0.3-2.fc44*%
%TF.CreationDate,2026-06-16T15:59:11-04:00*%
%TF.ProjectId,SupaClock_Carrier,53757061-436c-46f6-936b-5f4361727269,v1.0*%
%TF.SameCoordinates,Original*%
%TF.FileFunction,Legend,Bot*%
%TF.FilePolarity,Positive*%
%FSLAX46Y46*%
G04 Gerber Fmt 4.6, Leading zero omitted, Abs format (unit mm)*
G04 Created by KiCad (PCBNEW 10.0.3-2.fc44) date 2026-06-16 15:59:11*
%MOMM*%
%LPD*%
G01*
G04 APERTURE LIST*
%ADD10C,0.150000*%
G04 APERTURE END LIST*
D10*
X99364394Y-54496241D02*
X100078679Y-54496241D01*
X100078679Y-54496241D02*
X100221536Y-54448622D01*
X100221536Y-54448622D02*
X100316775Y-54353384D01*
X100316775Y-54353384D02*
X100364394Y-54210527D01*
X100364394Y-54210527D02*
X100364394Y-54115289D01*
X99364394Y-54877194D02*
X99364394Y-55496241D01*
X99364394Y-55496241D02*
X99745346Y-55162908D01*
X99745346Y-55162908D02*
X99745346Y-55305765D01*
X99745346Y-55305765D02*
X99792965Y-55401003D01*
X99792965Y-55401003D02*
X99840584Y-55448622D01*
X99840584Y-55448622D02*
X99935822Y-55496241D01*
X99935822Y-55496241D02*
X100173917Y-55496241D01*
X100173917Y-55496241D02*
X100269155Y-55448622D01*
X100269155Y-55448622D02*
X100316775Y-55401003D01*
X100316775Y-55401003D02*
X100364394Y-55305765D01*
X100364394Y-55305765D02*
X100364394Y-55020051D01*
X100364394Y-55020051D02*
X100316775Y-54924813D01*
X100316775Y-54924813D02*
X100269155Y-54877194D01*
X109742908Y-78364394D02*
X109742908Y-79078679D01*
X109742908Y-79078679D02*
X109790527Y-79221536D01*
X109790527Y-79221536D02*
X109885765Y-79316775D01*
X109885765Y-79316775D02*
X110028622Y-79364394D01*
X110028622Y-79364394D02*
X110123860Y-79364394D01*
X108838146Y-78697727D02*
X108838146Y-79364394D01*
X109076241Y-78316775D02*
X109314336Y-79031060D01*
X109314336Y-79031060D02*
X108695289Y-79031060D01*
X114364394Y-53790051D02*
X115078679Y-53790051D01*
X115078679Y-53790051D02*
X115221536Y-53742432D01*
X115221536Y-53742432D02*
X115316775Y-53647194D01*
X115316775Y-53647194D02*
X115364394Y-53504337D01*
X115364394Y-53504337D02*
X115364394Y-53409099D01*
X115364394Y-54790051D02*
X115364394Y-54218623D01*
X115364394Y-54504337D02*
X114364394Y-54504337D01*
X114364394Y-54504337D02*
X114507251Y-54409099D01*
X114507251Y-54409099D02*
X114602489Y-54313861D01*
X114602489Y-54313861D02*
X114650108Y-54218623D01*
X114697727Y-55647194D02*
X115364394Y-55647194D01*
X114316775Y-55409099D02*
X115031060Y-55171004D01*
X115031060Y-55171004D02*
X115031060Y-55790051D01*
M02*
