%TF.GenerationSoftware,KiCad,Pcbnew,10.0.0*%
%TF.CreationDate,2026-04-13T18:05:15-04:00*%
%TF.ProjectId,tp4056,74703430-3536-42e6-9b69-6361645f7063,rev?*%
%TF.SameCoordinates,Original*%
%TF.FileFunction,Copper,L1,Top*%
%TF.FilePolarity,Positive*%
%FSLAX46Y46*%
G04 Gerber Fmt 4.6, Leading zero omitted, Abs format (unit mm)*
G04 Created by KiCad (PCBNEW 10.0.0) date 2026-04-13 18:05:15*
%MOMM*%
%LPD*%
G01*
G04 APERTURE LIST*
G04 Aperture macros list*
%AMRoundRect*
0 Rectangle with rounded corners*
0 $1 Rounding radius*
0 $2 $3 $4 $5 $6 $7 $8 $9 X,Y pos of 4 corners*
0 Add a 4 corners polygon primitive as box body*
4,1,4,$2,$3,$4,$5,$6,$7,$8,$9,$2,$3,0*
0 Add four circle primitives for the rounded corners*
1,1,$1+$1,$2,$3*
1,1,$1+$1,$4,$5*
1,1,$1+$1,$6,$7*
1,1,$1+$1,$8,$9*
0 Add four rect primitives between the rounded corners*
20,1,$1+$1,$2,$3,$4,$5,0*
20,1,$1+$1,$4,$5,$6,$7,0*
20,1,$1+$1,$6,$7,$8,$9,0*
20,1,$1+$1,$8,$9,$2,$3,0*%
G04 Aperture macros list end*
%TA.AperFunction,SMDPad,CuDef*%
%ADD10R,1.700000X1.700000*%
%TD*%
%TA.AperFunction,SMDPad,CuDef*%
%ADD11RoundRect,0.237500X0.250000X0.237500X-0.250000X0.237500X-0.250000X-0.237500X0.250000X-0.237500X0*%
%TD*%
%TA.AperFunction,SMDPad,CuDef*%
%ADD12RoundRect,0.250000X-0.450000X0.350000X-0.450000X-0.350000X0.450000X-0.350000X0.450000X0.350000X0*%
%TD*%
%TA.AperFunction,SMDPad,CuDef*%
%ADD13RoundRect,0.150000X0.150000X-0.825000X0.150000X0.825000X-0.150000X0.825000X-0.150000X-0.825000X0*%
%TD*%
%TA.AperFunction,SMDPad,CuDef*%
%ADD14R,3.000000X2.290000*%
%TD*%
%TA.AperFunction,SMDPad,CuDef*%
%ADD15RoundRect,0.237500X-0.250000X-0.237500X0.250000X-0.237500X0.250000X0.237500X-0.250000X0.237500X0*%
%TD*%
%TA.AperFunction,SMDPad,CuDef*%
%ADD16RoundRect,0.250000X-0.475000X0.337500X-0.475000X-0.337500X0.475000X-0.337500X0.475000X0.337500X0*%
%TD*%
%TA.AperFunction,SMDPad,CuDef*%
%ADD17RoundRect,0.250000X0.325000X0.450000X-0.325000X0.450000X-0.325000X-0.450000X0.325000X-0.450000X0*%
%TD*%
%TA.AperFunction,SMDPad,CuDef*%
%ADD18RoundRect,0.250000X-0.337500X-0.475000X0.337500X-0.475000X0.337500X0.475000X-0.337500X0.475000X0*%
%TD*%
%TA.AperFunction,SMDPad,CuDef*%
%ADD19R,0.650000X1.560000*%
%TD*%
%TA.AperFunction,SMDPad,CuDef*%
%ADD20RoundRect,0.250000X0.400000X0.625000X-0.400000X0.625000X-0.400000X-0.625000X0.400000X-0.625000X0*%
%TD*%
%TA.AperFunction,WasherPad*%
%ADD21C,0.450000*%
%TD*%
%TA.AperFunction,SMDPad,CuDef*%
%ADD22R,4.000000X0.450000*%
%TD*%
%TA.AperFunction,SMDPad,CuDef*%
%ADD23R,1.900000X1.800000*%
%TD*%
%TA.AperFunction,SMDPad,CuDef*%
%ADD24R,1.300000X2.300000*%
%TD*%
%TA.AperFunction,SMDPad,CuDef*%
%ADD25R,1.550000X1.425000*%
%TD*%
%TA.AperFunction,SMDPad,CuDef*%
%ADD26R,1.900000X1.000000*%
%TD*%
%TA.AperFunction,SMDPad,CuDef*%
%ADD27RoundRect,0.250000X-0.350000X-0.450000X0.350000X-0.450000X0.350000X0.450000X-0.350000X0.450000X0*%
%TD*%
%TA.AperFunction,Conductor*%
%ADD28C,0.800000*%
%TD*%
%TA.AperFunction,Conductor*%
%ADD29C,1.000000*%
%TD*%
%TA.AperFunction,Conductor*%
%ADD30C,0.500000*%
%TD*%
%TA.AperFunction,Conductor*%
%ADD31C,0.400000*%
%TD*%
G04 APERTURE END LIST*
D10*
%TO.P,J5,1,Pin_1*%
%TO.N,GND*%
X182250000Y-89250000D03*
%TD*%
D11*
%TO.P,R4,1*%
%TO.N,GND*%
X175662500Y-82750000D03*
%TO.P,R4,2*%
%TO.N,Net-(R4-Pad2)*%
X173837500Y-82750000D03*
%TD*%
D10*
%TO.P,J3,1,Pin_1*%
%TO.N,VIN*%
X146800000Y-76200000D03*
%TD*%
D12*
%TO.P,R5,1*%
%TO.N,BAT+*%
X163750000Y-77000000D03*
%TO.P,R5,2*%
%TO.N,Net-(C3-Pad1)*%
X163750000Y-79000000D03*
%TD*%
D13*
%TO.P,U1,1,TEMP*%
%TO.N,GND*%
X156595000Y-84775000D03*
%TO.P,U1,2,PROG*%
%TO.N,Net-(R3-Pad1)*%
X157865000Y-84775000D03*
%TO.P,U1,3,GND*%
%TO.N,GND*%
X159135000Y-84775000D03*
%TO.P,U1,4,VCC*%
%TO.N,VIN*%
X160405000Y-84775000D03*
%TO.P,U1,5,BAT*%
%TO.N,BAT+*%
X160405000Y-79825000D03*
%TO.P,U1,6,~{STDBY}*%
%TO.N,Net-(R2-Pad2)*%
X159135000Y-79825000D03*
%TO.P,U1,7,~{CHRG}*%
%TO.N,Net-(R1-Pad2)*%
X157865000Y-79825000D03*
%TO.P,U1,8,CE*%
%TO.N,VIN*%
X156595000Y-79825000D03*
D14*
%TO.P,U1,9,PP*%
X158500000Y-82300000D03*
%TD*%
D15*
%TO.P,R2,1*%
%TO.N,Net-(D2-Pad1)*%
X155837500Y-75750000D03*
%TO.P,R2,2*%
%TO.N,Net-(R2-Pad2)*%
X157662500Y-75750000D03*
%TD*%
D10*
%TO.P,J4,1,Pin_1*%
%TO.N,BAT-*%
X182500000Y-85000000D03*
%TD*%
D16*
%TO.P,C2,1*%
%TO.N,BAT+*%
X162575000Y-81425000D03*
%TO.P,C2,2*%
%TO.N,GND*%
X162575000Y-83500000D03*
%TD*%
D17*
%TO.P,D2,1,K*%
%TO.N,Net-(D2-Pad1)*%
X153275000Y-75800000D03*
%TO.P,D2,2,A*%
%TO.N,VIN*%
X151225000Y-75800000D03*
%TD*%
D18*
%TO.P,C1,1*%
%TO.N,VIN*%
X153425000Y-87750000D03*
%TO.P,C1,2*%
%TO.N,GND*%
X155500000Y-87750000D03*
%TD*%
D15*
%TO.P,R1,1*%
%TO.N,Net-(D1-Pad1)*%
X155087500Y-77500000D03*
%TO.P,R1,2*%
%TO.N,Net-(R1-Pad2)*%
X156912500Y-77500000D03*
%TD*%
D10*
%TO.P,J7,1,Pin_1*%
%TO.N,BAT+*%
X182750000Y-79750000D03*
%TD*%
D19*
%TO.P,U3,1,S1*%
%TO.N,BAT-*%
X169550000Y-87350000D03*
%TO.P,U3,2,D1D2*%
%TO.N,unconnected-(U3-Pad2)*%
X170500000Y-87350000D03*
%TO.P,U3,3,S2*%
%TO.N,GND*%
X171450000Y-87350000D03*
%TO.P,U3,4,G2*%
%TO.N,/G2*%
X171450000Y-84650000D03*
%TO.P,U3,5,D1D2*%
%TO.N,unconnected-(U3-Pad5)*%
X170500000Y-84650000D03*
%TO.P,U3,6,G1*%
%TO.N,/G1*%
X169550000Y-84650000D03*
%TD*%
D20*
%TO.P,R6,1*%
%TO.N,/OC*%
X177300000Y-85500000D03*
%TO.P,R6,2*%
%TO.N,/G2*%
X174200000Y-85500000D03*
%TD*%
D16*
%TO.P,C3,1*%
%TO.N,Net-(C3-Pad1)*%
X165000000Y-81500000D03*
%TO.P,C3,2*%
%TO.N,BAT-*%
X165000000Y-83575000D03*
%TD*%
D21*
%TO.P,J1,*%
%TO.N,*%
X148140090Y-84679992D03*
X148140090Y-80940000D03*
D22*
%TO.P,J1,1,VBUS*%
%TO.N,VIN*%
X150022500Y-81500000D03*
%TO.P,J1,5,GND*%
%TO.N,GND*%
X150022500Y-84100000D03*
D23*
%TO.P,J1,6,Shield*%
%TO.N,unconnected-(J1-Pad6)*%
X146052500Y-81650000D03*
D24*
X146052500Y-79425000D03*
X146052500Y-86175000D03*
D25*
X148632500Y-79810000D03*
D26*
X146052500Y-84350000D03*
D25*
X148632500Y-85790000D03*
%TD*%
D10*
%TO.P,J2,1,Pin_1*%
%TO.N,GND*%
X147200000Y-89500000D03*
%TD*%
%TO.P,J6,1,Pin_1*%
%TO.N,BAT+*%
X182750000Y-75000000D03*
%TD*%
D17*
%TO.P,D1,1,K*%
%TO.N,Net-(D1-Pad1)*%
X153275000Y-78750000D03*
%TO.P,D1,2,A*%
%TO.N,VIN*%
X151225000Y-78750000D03*
%TD*%
D27*
%TO.P,R3,1*%
%TO.N,Net-(R3-Pad1)*%
X159000000Y-88500000D03*
%TO.P,R3,2*%
%TO.N,GND*%
X161000000Y-88500000D03*
%TD*%
D19*
%TO.P,U2,1,OD*%
%TO.N,/G1*%
X169800000Y-80600000D03*
%TO.P,U2,2,CS*%
%TO.N,Net-(R4-Pad2)*%
X170750000Y-80600000D03*
%TO.P,U2,3,OC*%
%TO.N,/OC*%
X171700000Y-80600000D03*
%TO.P,U2,4,TD*%
%TO.N,unconnected-(U2-Pad4)*%
X171700000Y-77900000D03*
%TO.P,U2,5,VCC*%
%TO.N,Net-(C3-Pad1)*%
X170750000Y-77900000D03*
%TO.P,U2,6,GND*%
%TO.N,BAT-*%
X169800000Y-77900000D03*
%TD*%
%TO.N,BAT+*%
D28*
X181550000Y-73800000D02*
X182050000Y-74300000D01*
X162000000Y-77000000D02*
X163750000Y-77000000D01*
D29*
X166400000Y-73800000D02*
X181550000Y-73800000D01*
D28*
X160405000Y-78595000D02*
X162000000Y-77000000D01*
D30*
X163750000Y-77000000D02*
X163750000Y-76450000D01*
X161155000Y-78905000D02*
X160405000Y-78905000D01*
X160405000Y-78905000D02*
X160405000Y-78595000D01*
X162575000Y-80325000D02*
X161155000Y-78905000D01*
X182050000Y-74300000D02*
X182750000Y-75000000D01*
X160405000Y-78905000D02*
X160405000Y-79825000D01*
X162575000Y-81425000D02*
X162575000Y-80325000D01*
D29*
X182750000Y-79750000D02*
X182750000Y-75000000D01*
D28*
X163750000Y-76450000D02*
X166400000Y-73800000D01*
%TO.N,Net-(R1-Pad2)*%
D30*
X156912500Y-77500000D02*
X157500000Y-77500000D01*
D28*
X157500000Y-77500000D02*
X157865000Y-77865000D01*
D30*
X157865000Y-77865000D02*
X157865000Y-79825000D01*
%TO.N,Net-(D1-Pad1)*%
X153275000Y-78750000D02*
X153425000Y-78900000D01*
D28*
X153687500Y-78900000D02*
X155087500Y-77500000D01*
D30*
X153425000Y-78900000D02*
X153687500Y-78900000D01*
%TO.N,GND*%
D28*
X162500000Y-88250000D02*
X162500000Y-83575000D01*
X156595000Y-86905000D02*
X155500000Y-88000000D01*
D31*
X150022500Y-84100000D02*
X150100000Y-84100000D01*
D28*
X173900000Y-88000000D02*
X175750000Y-88000000D01*
D29*
X150700000Y-89900000D02*
X151500000Y-89900000D01*
D30*
X156595000Y-84775000D02*
X156595000Y-86905000D01*
D28*
X184500000Y-89250000D02*
X182250000Y-89250000D01*
X151100000Y-85100000D02*
X151100000Y-89500000D01*
D29*
X163500000Y-91000000D02*
X180500000Y-91000000D01*
D28*
X162500000Y-89500000D02*
X162500000Y-88250000D01*
X171450000Y-87350000D02*
X173250000Y-87350000D01*
X161000000Y-88500000D02*
X162250000Y-88500000D01*
X155150000Y-89900000D02*
X155500000Y-90250000D01*
X180500000Y-91000000D02*
X182250000Y-89250000D01*
D30*
X162250000Y-88500000D02*
X162500000Y-88250000D01*
D28*
X161650000Y-90750000D02*
X162250000Y-90150000D01*
D31*
X175662500Y-82750000D02*
X175749520Y-82837020D01*
D28*
X155150000Y-89900000D02*
X155150000Y-89740000D01*
D30*
X160250000Y-86750000D02*
X159500000Y-86750000D01*
D28*
X155630000Y-87880000D02*
X155500000Y-87750000D01*
X155500000Y-90250000D02*
X156000000Y-90750000D01*
D30*
X175750000Y-88000000D02*
X175750000Y-87500000D01*
D29*
X151500000Y-89900000D02*
X155150000Y-89900000D01*
D28*
X161000000Y-87500000D02*
X160250000Y-86750000D01*
D29*
X147200000Y-89900000D02*
X150700000Y-89900000D01*
D30*
X162500000Y-83575000D02*
X162575000Y-83500000D01*
D31*
X150100000Y-84100000D02*
X151100000Y-85100000D01*
D28*
X184750000Y-83000000D02*
X184750000Y-89000000D01*
X178600000Y-87500000D02*
X179000000Y-87100000D01*
X184250000Y-82500000D02*
X184750000Y-83000000D01*
D30*
X162250000Y-90150000D02*
X162250000Y-89750000D01*
D28*
X162250000Y-89750000D02*
X163500000Y-91000000D01*
X184750000Y-89000000D02*
X184500000Y-89250000D01*
X155630000Y-89260000D02*
X155630000Y-87880000D01*
D30*
X161000000Y-88500000D02*
X161000000Y-87500000D01*
D28*
X175750000Y-87500000D02*
X175750000Y-82837500D01*
X173250000Y-87350000D02*
X173900000Y-88000000D01*
D30*
X159500000Y-86750000D02*
X159135000Y-86385000D01*
X175750000Y-82837500D02*
X175662500Y-82750000D01*
D28*
X179000000Y-87100000D02*
X179000000Y-83250000D01*
X179750000Y-82500000D02*
X184250000Y-82500000D01*
X179000000Y-83250000D02*
X179750000Y-82500000D01*
D31*
X151100000Y-89500000D02*
X150700000Y-89900000D01*
D28*
X155150000Y-89740000D02*
X155630000Y-89260000D01*
X162250000Y-89750000D02*
X162500000Y-89500000D01*
D29*
X156000000Y-90750000D02*
X161650000Y-90750000D01*
D28*
X175750000Y-87500000D02*
X178600000Y-87500000D01*
D30*
X159135000Y-86385000D02*
X159135000Y-84775000D01*
%TO.N,VIN*%
X160050000Y-82300000D02*
X160500000Y-82750000D01*
D28*
X149400000Y-76300000D02*
X151225000Y-78125000D01*
D30*
X151450000Y-79900000D02*
X152690000Y-81140000D01*
D28*
X152800000Y-81500000D02*
X153160000Y-81140000D01*
D30*
X151200000Y-78775000D02*
X151200000Y-79900000D01*
X152690000Y-81140000D02*
X153160000Y-81140000D01*
D31*
X153550000Y-80750000D02*
X153750000Y-80750000D01*
D30*
X157000000Y-82300000D02*
X158500000Y-82300000D01*
X151200000Y-79900000D02*
X151450000Y-79900000D01*
D28*
X153160000Y-81140000D02*
X153550000Y-80750000D01*
X156595000Y-81895000D02*
X157000000Y-82300000D01*
X153750000Y-80750000D02*
X155520000Y-82520000D01*
X149700000Y-75900000D02*
X151125000Y-75900000D01*
X153100000Y-85800000D02*
X153700000Y-85200000D01*
D30*
X160500000Y-82750000D02*
X160500000Y-84680000D01*
X158500000Y-82300000D02*
X160050000Y-82300000D01*
D28*
X151125000Y-75900000D02*
X151225000Y-75800000D01*
X149400000Y-76200000D02*
X149700000Y-75900000D01*
D31*
X150022500Y-81500000D02*
X152800000Y-81500000D01*
D28*
X153100000Y-87425000D02*
X153100000Y-85800000D01*
X149400000Y-76200000D02*
X146800000Y-76200000D01*
X149400000Y-76200000D02*
X149400000Y-76300000D01*
D30*
X151225000Y-78750000D02*
X151200000Y-78775000D01*
D28*
X156145000Y-81895000D02*
X156595000Y-81895000D01*
X151225000Y-78125000D02*
X151225000Y-78750000D01*
D30*
X156595000Y-79825000D02*
X156595000Y-81895000D01*
D28*
X155520000Y-82520000D02*
X156145000Y-81895000D01*
D30*
X153425000Y-87750000D02*
X153100000Y-87425000D01*
D28*
X153700000Y-84340000D02*
X155520000Y-82520000D01*
D30*
X160500000Y-84680000D02*
X160405000Y-84775000D01*
D28*
X153700000Y-85200000D02*
X153700000Y-84340000D01*
%TO.N,Net-(D2-Pad1)*%
D30*
X155787500Y-75800000D02*
X155837500Y-75750000D01*
D28*
X153275000Y-75800000D02*
X155787500Y-75800000D01*
%TO.N,Net-(C3-Pad1)*%
X165900000Y-77600000D02*
X165900000Y-78500000D01*
D30*
X165000000Y-81500000D02*
X165000000Y-80250000D01*
D28*
X165000000Y-80250000D02*
X163750000Y-79000000D01*
X170050480Y-75500000D02*
X168000000Y-75500000D01*
X170750000Y-76199520D02*
X170050480Y-75500000D01*
X165900000Y-78500000D02*
X165400000Y-79000000D01*
X167500000Y-75500000D02*
X165900000Y-77100000D01*
D30*
X170750000Y-77900000D02*
X170750000Y-76199520D01*
X165400000Y-79000000D02*
X163750000Y-79000000D01*
D28*
X168000000Y-75500000D02*
X167500000Y-75500000D01*
X165900000Y-77100000D02*
X165900000Y-77600000D01*
%TO.N,Net-(R2-Pad2)*%
D30*
X159135000Y-77135000D02*
X159135000Y-79825000D01*
X157712500Y-75800000D02*
X157800000Y-75800000D01*
X157662500Y-75750000D02*
X157712500Y-75800000D01*
D28*
X157800000Y-75800000D02*
X159135000Y-77135000D01*
%TO.N,Net-(R4-Pad2)*%
D30*
X170750000Y-82500000D02*
X170750000Y-80600000D01*
D28*
X171000000Y-82750000D02*
X170750000Y-82500000D01*
X173837500Y-82750000D02*
X171000000Y-82750000D01*
%TO.N,Net-(R3-Pad1)*%
D30*
X157865000Y-87365000D02*
X157865000Y-84775000D01*
D28*
X159000000Y-88500000D02*
X157865000Y-87365000D01*
%TO.N,BAT-*%
X181150000Y-85000000D02*
X180200000Y-85950000D01*
X165000000Y-87750000D02*
X166500000Y-89250000D01*
X168950000Y-89250000D02*
X166500000Y-89250000D01*
X166175000Y-83575000D02*
X165000000Y-83575000D01*
D30*
X169650000Y-76900000D02*
X168350000Y-76900000D01*
D28*
X182500000Y-85000000D02*
X181150000Y-85000000D01*
X165000000Y-83575000D02*
X165000000Y-87750000D01*
X168350000Y-76900000D02*
X167400000Y-77850000D01*
X167400000Y-82350000D02*
X166175000Y-83575000D01*
X169300000Y-89600000D02*
X168950000Y-89250000D01*
D30*
X169800000Y-77050000D02*
X169650000Y-76900000D01*
D28*
X167400000Y-77850000D02*
X167400000Y-82350000D01*
D30*
X169550000Y-87350000D02*
X169550000Y-88950000D01*
X169250000Y-89250000D02*
X168950000Y-89250000D01*
D28*
X180200000Y-87900000D02*
X178500000Y-89600000D01*
X180200000Y-85950000D02*
X180200000Y-87900000D01*
X178500000Y-89600000D02*
X169300000Y-89600000D01*
D30*
X169800000Y-77900000D02*
X169800000Y-77050000D01*
D28*
X169550000Y-88950000D02*
X169250000Y-89250000D01*
%TO.N,/OC*%
D29*
X177300000Y-81300000D02*
X176600000Y-80600000D01*
X176600000Y-80600000D02*
X173100000Y-80600000D01*
D28*
X177300000Y-85500000D02*
X177300000Y-81300000D01*
D30*
X171700000Y-80600000D02*
X173100000Y-80600000D01*
%TO.N,/G2*%
D28*
X173350000Y-84650000D02*
X174200000Y-85500000D01*
X171450000Y-84650000D02*
X173350000Y-84650000D01*
%TO.N,/G1*%
D30*
X169550000Y-84650000D02*
X169550000Y-83050000D01*
X169200000Y-81200000D02*
X169800000Y-80600000D01*
D28*
X169200000Y-82700000D02*
X169200000Y-81200000D01*
X169550000Y-83050000D02*
X169200000Y-82700000D01*
%TO.N,unconnected-(J1-Pad6)*%
D30*
X148247500Y-86175000D02*
X148632500Y-85790000D01*
D28*
X146052500Y-84350000D02*
X146052500Y-81650000D01*
D30*
X146052500Y-86175000D02*
X148247500Y-86175000D01*
X146052500Y-84350000D02*
X146052500Y-86175000D01*
X146052500Y-81650000D02*
X146052500Y-79425000D01*
X146437500Y-79810000D02*
X146052500Y-79425000D01*
X148632500Y-79810000D02*
X146437500Y-79810000D01*
%TD*%
M02*
