  0
SECTION
  2
BLOCKS
  0
ENDSEC
  0
SECTION
  2
ENTITIES
  0
LINE
  8
0
 10
0
 20
12
 11
0.0164337
 21
11.372
  0
LINE
  8
0
 10
0.0164337
 20
11.372
 11
0.0657349
 21
10.7457
  0
LINE
  8
0
 10
0.0657349
 20
10.7457
 11
0.147736
 21
10.1228
  0
LINE
  8
0
 10
0.147736
 20
10.1228
 11
0.262222
 21
9.50505
  0
LINE
  8
0
 10
0.262222
 20
9.50505
 11
0.40889
 21
8.89417
  0
LINE
  8
0
 10
0.40889
 20
8.89417
 11
0.587311
 21
8.29179
  0
LINE
  8
0
 10
0.587311
 20
8.29179
 11
0.797028
 21
7.69957
  0
LINE
  8
0
 10
0.797028
 20
7.69957
 11
1.03745
 21
7.11916
  0
LINE
  8
0
 10
1.03745
 20
7.11916
 11
1.30791
 21
6.55211
  0
LINE
  8
0
 10
1.30791
 20
6.55211
 11
1.60768
 21
6
  0
LINE
  8
0
 10
1.60768
 20
6
 11
1.93594
 21
5.46432
  0
LINE
  8
0
 10
1.93594
 20
5.46432
 11
2.29179
 21
4.94656
  0
LINE
  8
0
 10
2.29179
 20
4.94656
 11
2.67424
 21
4.44815
  0
LINE
  8
0
 10
2.67424
 20
4.44815
 11
3.08226
 21
3.97043
  0
LINE
  8
0
 10
3.08226
 20
3.97043
 11
3.51471
 21
3.51471
  0
LINE
  8
0
 10
3.51471
 20
3.51471
 11
3.97043
 21
3.08226
  0
LINE
  8
0
 10
3.97043
 20
3.08226
 11
4.44815
 21
2.67424
  0
LINE
  8
0
 10
4.44815
 20
2.67424
 11
4.94656
 21
2.29179
  0
LINE
  8
0
 10
4.94656
 20
2.29179
 11
5.46432
 21
1.93594
  0
LINE
  8
0
 10
5.46432
 20
1.93594
 11
6
 21
1.60768
  0
LINE
  8
0
 10
6
 20
1.60768
 11
6.55211
 21
1.30791
  0
LINE
  8
0
 10
6.55211
 20
1.30791
 11
7.11916
 21
1.03745
  0
LINE
  8
0
 10
7.11916
 20
1.03745
 11
7.69957
 21
0.797028
  0
LINE
  8
0
 10
7.69957
 20
0.797028
 11
8.29179
 21
0.587311
  0
LINE
  8
0
 10
8.29179
 20
0.587311
 11
8.89417
 21
0.40889
  0
LINE
  8
0
 10
8.89417
 20
0.40889
 11
9.50505
 21
0.262222
  0
LINE
  8
0
 10
9.50505
 20
0.262222
 11
10.1228
 21
0.147736
  0
LINE
  8
0
 10
10.1228
 20
0.147736
 11
10.7457
 21
0.0657349
  0
LINE
  8
0
 10
10.7457
 20
0.0657349
 11
11.372
 21
0.0164337
  0
LINE
  8
0
 10
11.372
 20
0.0164337
 11
12
 21
0
  0
LINE
  8
0
 10
12
 20
0
 11
86
 21
0
  0
LINE
  8
0
 10
86
 20
0
 11
86.628
 21
0.0164337
  0
LINE
  8
0
 10
86.628
 20
0.0164337
 11
87.2543
 21
0.0657349
  0
LINE
  8
0
 10
87.2543
 20
0.0657349
 11
87.8772
 21
0.147736
  0
LINE
  8
0
 10
87.8772
 20
0.147736
 11
88.4949
 21
0.262222
  0
LINE
  8
0
 10
88.4949
 20
0.262222
 11
89.1058
 21
0.40889
  0
LINE
  8
0
 10
89.1058
 20
0.40889
 11
89.7082
 21
0.587311
  0
LINE
  8
0
 10
89.7082
 20
0.587311
 11
90.3004
 21
0.797028
  0
LINE
  8
0
 10
90.3004
 20
0.797028
 11
90.8808
 21
1.03745
  0
LINE
  8
0
 10
90.8808
 20
1.03745
 11
91.4479
 21
1.30791
  0
LINE
  8
0
 10
91.4479
 20
1.30791
 11
92
 21
1.60768
  0
LINE
  8
0
 10
92
 20
1.60768
 11
92.5357
 21
1.93594
  0
LINE
  8
0
 10
92.5357
 20
1.93594
 11
93.0534
 21
2.29179
  0
LINE
  8
0
 10
93.0534
 20
2.29179
 11
93.5518
 21
2.67424
  0
LINE
  8
0
 10
93.5518
 20
2.67424
 11
94.0296
 21
3.08226
  0
LINE
  8
0
 10
94.0296
 20
3.08226
 11
94.4853
 21
3.51471
  0
LINE
  8
0
 10
94.4853
 20
3.51471
 11
94.9177
 21
3.97043
  0
LINE
  8
0
 10
94.9177
 20
3.97043
 11
95.3257
 21
4.44815
  0
LINE
  8
0
 10
95.3257
 20
4.44815
 11
95.7082
 21
4.94656
  0
LINE
  8
0
 10
95.7082
 20
4.94656
 11
96.064
 21
5.46432
  0
LINE
  8
0
 10
96.064
 20
5.46432
 11
96.3923
 21
6
  0
LINE
  8
0
 10
96.3923
 20
6
 11
96.6921
 21
6.55211
  0
LINE
  8
0
 10
96.6921
 20
6.55211
 11
96.9625
 21
7.11916
  0
LINE
  8
0
 10
96.9625
 20
7.11916
 11
97.203
 21
7.69957
  0
LINE
  8
0
 10
97.203
 20
7.69957
 11
97.4127
 21
8.29179
  0
LINE
  8
0
 10
97.4127
 20
8.29179
 11
97.5911
 21
8.89417
  0
LINE
  8
0
 10
97.5911
 20
8.89417
 11
97.7378
 21
9.50505
  0
LINE
  8
0
 10
97.7378
 20
9.50505
 11
97.8522
 21
10.1228
  0
LINE
  8
0
 10
97.8522
 20
10.1228
 11
97.9342
 21
10.7457
  0
LINE
  8
0
 10
97.9342
 20
10.7457
 11
97.9836
 21
11.372
  0
LINE
  8
0
 10
97.9836
 20
11.372
 11
98
 21
12
  0
LINE
  8
0
 10
98
 20
12
 11
98
 21
67
  0
LINE
  8
0
 10
98
 20
67
 11
97.9836
 21
67.628
  0
LINE
  8
0
 10
97.9836
 20
67.628
 11
97.9342
 21
68.2543
  0
LINE
  8
0
 10
97.9342
 20
68.2543
 11
97.8522
 21
68.8772
  0
LINE
  8
0
 10
97.8522
 20
68.8772
 11
97.7378
 21
69.4949
  0
LINE
  8
0
 10
97.7378
 20
69.4949
 11
97.5911
 21
70.1058
  0
LINE
  8
0
 10
97.5911
 20
70.1058
 11
97.4127
 21
70.7082
  0
LINE
  8
0
 10
97.4127
 20
70.7082
 11
97.203
 21
71.3004
  0
LINE
  8
0
 10
97.203
 20
71.3004
 11
96.9625
 21
71.8808
  0
LINE
  8
0
 10
96.9625
 20
71.8808
 11
96.6921
 21
72.4479
  0
LINE
  8
0
 10
96.6921
 20
72.4479
 11
96.3923
 21
73
  0
LINE
  8
0
 10
96.3923
 20
73
 11
96.064
 21
73.5357
  0
LINE
  8
0
 10
96.064
 20
73.5357
 11
95.7082
 21
74.0534
  0
LINE
  8
0
 10
95.7082
 20
74.0534
 11
95.3257
 21
74.5518
  0
LINE
  8
0
 10
95.3257
 20
74.5518
 11
94.9177
 21
75.0296
  0
LINE
  8
0
 10
94.9177
 20
75.0296
 11
94.4853
 21
75.4853
  0
LINE
  8
0
 10
94.4853
 20
75.4853
 11
94.0296
 21
75.9177
  0
LINE
  8
0
 10
94.0296
 20
75.9177
 11
93.5518
 21
76.3257
  0
LINE
  8
0
 10
93.5518
 20
76.3257
 11
93.0534
 21
76.7082
  0
LINE
  8
0
 10
93.0534
 20
76.7082
 11
92.5357
 21
77.064
  0
LINE
  8
0
 10
92.5357
 20
77.064
 11
92
 21
77.3923
  0
LINE
  8
0
 10
92
 20
77.3923
 11
91.4479
 21
77.6921
  0
LINE
  8
0
 10
91.4479
 20
77.6921
 11
90.8808
 21
77.9625
  0
LINE
  8
0
 10
90.8808
 20
77.9625
 11
90.3004
 21
78.203
  0
LINE
  8
0
 10
90.3004
 20
78.203
 11
89.7082
 21
78.4127
  0
LINE
  8
0
 10
89.7082
 20
78.4127
 11
89.1058
 21
78.5911
  0
LINE
  8
0
 10
89.1058
 20
78.5911
 11
88.4949
 21
78.7378
  0
LINE
  8
0
 10
88.4949
 20
78.7378
 11
87.8772
 21
78.8522
  0
LINE
  8
0
 10
87.8772
 20
78.8522
 11
87.2543
 21
78.9342
  0
LINE
  8
0
 10
87.2543
 20
78.9342
 11
86.628
 21
78.9836
  0
LINE
  8
0
 10
86.628
 20
78.9836
 11
86
 21
79
  0
LINE
  8
0
 10
86
 20
79
 11
12
 21
79
  0
LINE
  8
0
 10
12
 20
79
 11
11.372
 21
78.9836
  0
LINE
  8
0
 10
11.372
 20
78.9836
 11
10.7457
 21
78.9342
  0
LINE
  8
0
 10
10.7457
 20
78.9342
 11
10.1228
 21
78.8522
  0
LINE
  8
0
 10
10.1228
 20
78.8522
 11
9.50505
 21
78.7378
  0
LINE
  8
0
 10
9.50505
 20
78.7378
 11
8.89417
 21
78.5911
  0
LINE
  8
0
 10
8.89417
 20
78.5911
 11
8.29179
 21
78.4127
  0
LINE
  8
0
 10
8.29179
 20
78.4127
 11
7.69957
 21
78.203
  0
LINE
  8
0
 10
7.69957
 20
78.203
 11
7.11916
 21
77.9625
  0
LINE
  8
0
 10
7.11916
 20
77.9625
 11
6.55211
 21
77.6921
  0
LINE
  8
0
 10
6.55211
 20
77.6921
 11
6
 21
77.3923
  0
LINE
  8
0
 10
6
 20
77.3923
 11
5.46432
 21
77.064
  0
LINE
  8
0
 10
5.46432
 20
77.064
 11
4.94656
 21
76.7082
  0
LINE
  8
0
 10
4.94656
 20
76.7082
 11
4.44815
 21
76.3257
  0
LINE
  8
0
 10
4.44815
 20
76.3257
 11
3.97043
 21
75.9177
  0
LINE
  8
0
 10
3.97043
 20
75.9177
 11
3.51471
 21
75.4853
  0
LINE
  8
0
 10
3.51471
 20
75.4853
 11
3.08226
 21
75.0296
  0
LINE
  8
0
 10
3.08226
 20
75.0296
 11
2.67424
 21
74.5518
  0
LINE
  8
0
 10
2.67424
 20
74.5518
 11
2.29179
 21
74.0534
  0
LINE
  8
0
 10
2.29179
 20
74.0534
 11
1.93594
 21
73.5357
  0
LINE
  8
0
 10
1.93594
 20
73.5357
 11
1.60768
 21
73
  0
LINE
  8
0
 10
1.60768
 20
73
 11
1.30791
 21
72.4479
  0
LINE
  8
0
 10
1.30791
 20
72.4479
 11
1.03745
 21
71.8808
  0
LINE
  8
0
 10
1.03745
 20
71.8808
 11
0.797028
 21
71.3004
  0
LINE
  8
0
 10
0.797028
 20
71.3004
 11
0.587311
 21
70.7082
  0
LINE
  8
0
 10
0.587311
 20
70.7082
 11
0.40889
 21
70.1058
  0
LINE
  8
0
 10
0.40889
 20
70.1058
 11
0.262222
 21
69.4949
  0
LINE
  8
0
 10
0.262222
 20
69.4949
 11
0.147736
 21
68.8772
  0
LINE
  8
0
 10
0.147736
 20
68.8772
 11
0.0657349
 21
68.2543
  0
LINE
  8
0
 10
0.0657349
 20
68.2543
 11
0.0164337
 21
67.628
  0
LINE
  8
0
 10
0.0164337
 20
67.628
 11
0
 21
67
  0
LINE
  8
0
 10
0
 20
67
 11
0
 21
12
  0
ENDSEC
  0
SECTION
  2
OBJECTS
  0
DICTIONARY
  0
ENDSEC
  0
EOF
