  0
SECTION
  2
BLOCKS
  0
ENDSEC
  0
SECTION
  2
ENTITIES
  0
LINE
  8
0
 10
-2.5
 20
-4.5
 11
-2.49657
 21
-4.63084
  0
LINE
  8
0
 10
-2.49657
 20
-4.63084
 11
-2.4863
 21
-4.76132
  0
LINE
  8
0
 10
-2.4863
 20
-4.76132
 11
-2.46922
 21
-4.89109
  0
LINE
  8
0
 10
-2.46922
 20
-4.89109
 11
-2.44537
 21
-5.01978
  0
LINE
  8
0
 10
-2.44537
 20
-5.01978
 11
-2.41481
 21
-5.14705
  0
LINE
  8
0
 10
-2.41481
 20
-5.14705
 11
-2.37764
 21
-5.27254
  0
LINE
  8
0
 10
-2.37764
 20
-5.27254
 11
-2.33395
 21
-5.39592
  0
LINE
  8
0
 10
-2.33395
 20
-5.39592
 11
-2.28386
 21
-5.51684
  0
LINE
  8
0
 10
-2.28386
 20
-5.51684
 11
-2.22752
 21
-5.63498
  0
LINE
  8
0
 10
-2.22752
 20
-5.63498
 11
-2.16506
 21
-5.75
  0
LINE
  8
0
 10
-2.16506
 20
-5.75
 11
-2.09668
 21
-5.8616
  0
LINE
  8
0
 10
-2.09668
 20
-5.8616
 11
-2.02254
 21
-5.96946
  0
LINE
  8
0
 10
-2.02254
 20
-5.96946
 11
-1.94286
 21
-6.0733
  0
LINE
  8
0
 10
-1.94286
 20
-6.0733
 11
-1.85786
 21
-6.17283
  0
LINE
  8
0
 10
-1.85786
 20
-6.17283
 11
-1.76777
 21
-6.26777
  0
LINE
  8
0
 10
-1.76777
 20
-6.26777
 11
-1.67283
 21
-6.35786
  0
LINE
  8
0
 10
-1.67283
 20
-6.35786
 11
-1.5733
 21
-6.44286
  0
LINE
  8
0
 10
-1.5733
 20
-6.44286
 11
-1.46946
 21
-6.52254
  0
LINE
  8
0
 10
-1.46946
 20
-6.52254
 11
-1.3616
 21
-6.59668
  0
LINE
  8
0
 10
-1.3616
 20
-6.59668
 11
-1.25
 21
-6.66506
  0
LINE
  8
0
 10
-1.25
 20
-6.66506
 11
-1.13498
 21
-6.72752
  0
LINE
  8
0
 10
-1.13498
 20
-6.72752
 11
-1.01684
 21
-6.78386
  0
LINE
  8
0
 10
-1.01684
 20
-6.78386
 11
-0.89592
 21
-6.83395
  0
LINE
  8
0
 10
-0.89592
 20
-6.83395
 11
-0.772542
 21
-6.87764
  0
LINE
  8
0
 10
-0.772542
 20
-6.87764
 11
-0.647048
 21
-6.91481
  0
LINE
  8
0
 10
-0.647048
 20
-6.91481
 11
-0.519779
 21
-6.94537
  0
LINE
  8
0
 10
-0.519779
 20
-6.94537
 11
-0.391086
 21
-6.96922
  0
LINE
  8
0
 10
-0.391086
 20
-6.96922
 11
-0.261321
 21
-6.9863
  0
LINE
  8
0
 10
-0.261321
 20
-6.9863
 11
-0.13084
 21
-6.99657
  0
LINE
  8
0
 10
-0.13084
 20
-6.99657
 11
0
 21
-7
  0
LINE
  8
0
 10
0
 20
-7
 11
0.13084
 21
-6.99657
  0
LINE
  8
0
 10
0.13084
 20
-6.99657
 11
0.261321
 21
-6.9863
  0
LINE
  8
0
 10
0.261321
 20
-6.9863
 11
0.391086
 21
-6.96922
  0
LINE
  8
0
 10
0.391086
 20
-6.96922
 11
0.519779
 21
-6.94537
  0
LINE
  8
0
 10
0.519779
 20
-6.94537
 11
0.647048
 21
-6.91481
  0
LINE
  8
0
 10
0.647048
 20
-6.91481
 11
0.772542
 21
-6.87764
  0
LINE
  8
0
 10
0.772542
 20
-6.87764
 11
0.89592
 21
-6.83395
  0
LINE
  8
0
 10
0.89592
 20
-6.83395
 11
1.01684
 21
-6.78386
  0
LINE
  8
0
 10
1.01684
 20
-6.78386
 11
1.13498
 21
-6.72752
  0
LINE
  8
0
 10
1.13498
 20
-6.72752
 11
1.25
 21
-6.66506
  0
LINE
  8
0
 10
1.25
 20
-6.66506
 11
1.3616
 21
-6.59668
  0
LINE
  8
0
 10
1.3616
 20
-6.59668
 11
1.46946
 21
-6.52254
  0
LINE
  8
0
 10
1.46946
 20
-6.52254
 11
1.5733
 21
-6.44286
  0
LINE
  8
0
 10
1.5733
 20
-6.44286
 11
1.67283
 21
-6.35786
  0
LINE
  8
0
 10
1.67283
 20
-6.35786
 11
1.76777
 21
-6.26777
  0
LINE
  8
0
 10
1.76777
 20
-6.26777
 11
1.85786
 21
-6.17283
  0
LINE
  8
0
 10
1.85786
 20
-6.17283
 11
1.94286
 21
-6.0733
  0
LINE
  8
0
 10
1.94286
 20
-6.0733
 11
2.02254
 21
-5.96946
  0
LINE
  8
0
 10
2.02254
 20
-5.96946
 11
2.09668
 21
-5.8616
  0
LINE
  8
0
 10
2.09668
 20
-5.8616
 11
2.16506
 21
-5.75
  0
LINE
  8
0
 10
2.16506
 20
-5.75
 11
2.22752
 21
-5.63498
  0
LINE
  8
0
 10
2.22752
 20
-5.63498
 11
2.28386
 21
-5.51684
  0
LINE
  8
0
 10
2.28386
 20
-5.51684
 11
2.33395
 21
-5.39592
  0
LINE
  8
0
 10
2.33395
 20
-5.39592
 11
2.37764
 21
-5.27254
  0
LINE
  8
0
 10
2.37764
 20
-5.27254
 11
2.41481
 21
-5.14705
  0
LINE
  8
0
 10
2.41481
 20
-5.14705
 11
2.44537
 21
-5.01978
  0
LINE
  8
0
 10
2.44537
 20
-5.01978
 11
2.46922
 21
-4.89109
  0
LINE
  8
0
 10
2.46922
 20
-4.89109
 11
2.4863
 21
-4.76132
  0
LINE
  8
0
 10
2.4863
 20
-4.76132
 11
2.49657
 21
-4.63084
  0
LINE
  8
0
 10
2.49657
 20
-4.63084
 11
2.5
 21
-4.5
  0
LINE
  8
0
 10
2.5
 20
-4.5
 11
2.5
 21
1
  0
LINE
  8
0
 10
2.5
 20
1
 11
-2.5
 21
1
  0
LINE
  8
0
 10
-2.5
 20
1
 11
-2.5
 21
-4.5
  0
ENDSEC
  0
SECTION
  2
OBJECTS
  0
DICTIONARY
  0
ENDSEC
  0
EOF
