  0
SECTION
  2
BLOCKS
  0
ENDSEC
  0
SECTION
  2
ENTITIES
  0
LINE
  8
0
 10
0
 20
10
 11
0.0137024
 21
9.47664
  0
LINE
  8
0
 10
0.0137024
 20
9.47664
 11
0.0547791
 21
8.95471
  0
LINE
  8
0
 10
0.0547791
 20
8.95471
 11
0.123108
 21
8.43565
  0
LINE
  8
0
 10
0.123108
 20
8.43565
 11
0.218521
 21
7.92087
  0
LINE
  8
0
 10
0.218521
 20
7.92087
 11
0.340729
 21
7.4118
  0
LINE
  8
0
 10
0.340729
 20
7.4118
 11
0.489426
 21
6.90982
  0
LINE
  8
0
 10
0.489426
 20
6.90982
 11
0.664185
 21
6.41631
  0
LINE
  8
0
 10
0.664185
 20
6.41631
 11
0.864532
 21
5.93263
  0
LINE
  8
0
 10
0.864532
 20
5.93263
 11
1.08992
 21
5.46008
  0
LINE
  8
0
 10
1.08992
 20
5.46008
 11
1.33974
 21
5
  0
LINE
  8
0
 10
1.33974
 20
5
 11
1.61328
 21
4.5536
  0
LINE
  8
0
 10
1.61328
 20
4.5536
 11
1.90982
 21
4.12215
  0
LINE
  8
0
 10
1.90982
 20
4.12215
 11
2.22853
 21
3.70679
  0
LINE
  8
0
 10
2.22853
 20
3.70679
 11
2.56854
 21
3.30869
  0
LINE
  8
0
 10
2.56854
 20
3.30869
 11
2.92892
 21
2.92892
  0
LINE
  8
0
 10
2.92892
 20
2.92892
 11
3.30869
 21
2.56854
  0
LINE
  8
0
 10
3.30869
 20
2.56854
 11
3.70679
 21
2.22853
  0
LINE
  8
0
 10
3.70679
 20
2.22853
 11
4.12215
 21
1.90982
  0
LINE
  8
0
 10
4.12215
 20
1.90982
 11
4.5536
 21
1.61328
  0
LINE
  8
0
 10
4.5536
 20
1.61328
 11
5
 21
1.33974
  0
LINE
  8
0
 10
5
 20
1.33974
 11
5.46008
 21
1.08992
  0
LINE
  8
0
 10
5.46008
 20
1.08992
 11
5.93263
 21
0.864532
  0
LINE
  8
0
 10
5.93263
 20
0.864532
 11
6.41631
 21
0.664185
  0
LINE
  8
0
 10
6.41631
 20
0.664185
 11
6.90982
 21
0.489426
  0
LINE
  8
0
 10
6.90982
 20
0.489426
 11
7.4118
 21
0.340729
  0
LINE
  8
0
 10
7.4118
 20
0.340729
 11
7.92087
 21
0.218521
  0
LINE
  8
0
 10
7.92087
 20
0.218521
 11
8.43565
 21
0.123108
  0
LINE
  8
0
 10
8.43565
 20
0.123108
 11
8.95471
 21
0.0547791
  0
LINE
  8
0
 10
8.95471
 20
0.0547791
 11
9.47664
 21
0.0137024
  0
LINE
  8
0
 10
9.47664
 20
0.0137024
 11
10
 21
0
  0
LINE
  8
0
 10
10
 20
0
 11
84
 21
0
  0
LINE
  8
0
 10
84
 20
0
 11
84.5233
 21
0.0137024
  0
LINE
  8
0
 10
84.5233
 20
0.0137024
 11
85.0453
 21
0.0547791
  0
LINE
  8
0
 10
85.0453
 20
0.0547791
 11
85.5643
 21
0.123108
  0
LINE
  8
0
 10
85.5643
 20
0.123108
 11
86.0791
 21
0.218521
  0
LINE
  8
0
 10
86.0791
 20
0.218521
 11
86.5882
 21
0.340729
  0
LINE
  8
0
 10
86.5882
 20
0.340729
 11
87.0902
 21
0.489426
  0
LINE
  8
0
 10
87.0902
 20
0.489426
 11
87.5837
 21
0.664185
  0
LINE
  8
0
 10
87.5837
 20
0.664185
 11
88.0674
 21
0.864532
  0
LINE
  8
0
 10
88.0674
 20
0.864532
 11
88.5399
 21
1.08992
  0
LINE
  8
0
 10
88.5399
 20
1.08992
 11
89
 21
1.33974
  0
LINE
  8
0
 10
89
 20
1.33974
 11
89.4464
 21
1.61328
  0
LINE
  8
0
 10
89.4464
 20
1.61328
 11
89.8778
 21
1.90982
  0
LINE
  8
0
 10
89.8778
 20
1.90982
 11
90.2932
 21
2.22853
  0
LINE
  8
0
 10
90.2932
 20
2.22853
 11
90.6913
 21
2.56854
  0
LINE
  8
0
 10
90.6913
 20
2.56854
 11
91.0711
 21
2.92892
  0
LINE
  8
0
 10
91.0711
 20
2.92892
 11
91.4314
 21
3.30869
  0
LINE
  8
0
 10
91.4314
 20
3.30869
 11
91.7715
 21
3.70679
  0
LINE
  8
0
 10
91.7715
 20
3.70679
 11
92.0902
 21
4.12215
  0
LINE
  8
0
 10
92.0902
 20
4.12215
 11
92.3867
 21
4.5536
  0
LINE
  8
0
 10
92.3867
 20
4.5536
 11
92.6602
 21
5
  0
LINE
  8
0
 10
92.6602
 20
5
 11
92.9101
 21
5.46008
  0
LINE
  8
0
 10
92.9101
 20
5.46008
 11
93.1355
 21
5.93263
  0
LINE
  8
0
 10
93.1355
 20
5.93263
 11
93.3358
 21
6.41631
  0
LINE
  8
0
 10
93.3358
 20
6.41631
 11
93.5106
 21
6.90982
  0
LINE
  8
0
 10
93.5106
 20
6.90982
 11
93.6593
 21
7.4118
  0
LINE
  8
0
 10
93.6593
 20
7.4118
 11
93.7815
 21
7.92087
  0
LINE
  8
0
 10
93.7815
 20
7.92087
 11
93.8769
 21
8.43565
  0
LINE
  8
0
 10
93.8769
 20
8.43565
 11
93.9452
 21
8.95471
  0
LINE
  8
0
 10
93.9452
 20
8.95471
 11
93.9863
 21
9.47664
  0
LINE
  8
0
 10
93.9863
 20
9.47664
 11
94
 21
10
  0
LINE
  8
0
 10
94
 20
10
 11
94
 21
65
  0
LINE
  8
0
 10
94
 20
65
 11
93.9863
 21
65.5233
  0
LINE
  8
0
 10
93.9863
 20
65.5233
 11
93.9452
 21
66.0453
  0
LINE
  8
0
 10
93.9452
 20
66.0453
 11
93.8769
 21
66.5643
  0
LINE
  8
0
 10
93.8769
 20
66.5643
 11
93.7815
 21
67.0791
  0
LINE
  8
0
 10
93.7815
 20
67.0791
 11
93.6593
 21
67.5882
  0
LINE
  8
0
 10
93.6593
 20
67.5882
 11
93.5106
 21
68.0902
  0
LINE
  8
0
 10
93.5106
 20
68.0902
 11
93.3358
 21
68.5837
  0
LINE
  8
0
 10
93.3358
 20
68.5837
 11
93.1355
 21
69.0674
  0
LINE
  8
0
 10
93.1355
 20
69.0674
 11
92.9101
 21
69.5399
  0
LINE
  8
0
 10
92.9101
 20
69.5399
 11
92.6602
 21
70
  0
LINE
  8
0
 10
92.6602
 20
70
 11
92.3867
 21
70.4464
  0
LINE
  8
0
 10
92.3867
 20
70.4464
 11
92.0902
 21
70.8778
  0
LINE
  8
0
 10
92.0902
 20
70.8778
 11
91.7715
 21
71.2932
  0
LINE
  8
0
 10
91.7715
 20
71.2932
 11
91.4314
 21
71.6913
  0
LINE
  8
0
 10
91.4314
 20
71.6913
 11
91.0711
 21
72.0711
  0
LINE
  8
0
 10
91.0711
 20
72.0711
 11
90.6913
 21
72.4314
  0
LINE
  8
0
 10
90.6913
 20
72.4314
 11
90.2932
 21
72.7715
  0
LINE
  8
0
 10
90.2932
 20
72.7715
 11
89.8778
 21
73.0902
  0
LINE
  8
0
 10
89.8778
 20
73.0902
 11
89.4464
 21
73.3867
  0
LINE
  8
0
 10
89.4464
 20
73.3867
 11
89
 21
73.6602
  0
LINE
  8
0
 10
89
 20
73.6602
 11
88.5399
 21
73.9101
  0
LINE
  8
0
 10
88.5399
 20
73.9101
 11
88.0674
 21
74.1355
  0
LINE
  8
0
 10
88.0674
 20
74.1355
 11
87.5837
 21
74.3358
  0
LINE
  8
0
 10
87.5837
 20
74.3358
 11
87.0902
 21
74.5106
  0
LINE
  8
0
 10
87.0902
 20
74.5106
 11
86.5882
 21
74.6593
  0
LINE
  8
0
 10
86.5882
 20
74.6593
 11
86.0791
 21
74.7815
  0
LINE
  8
0
 10
86.0791
 20
74.7815
 11
85.5643
 21
74.8769
  0
LINE
  8
0
 10
85.5643
 20
74.8769
 11
85.0453
 21
74.9452
  0
LINE
  8
0
 10
85.0453
 20
74.9452
 11
84.5233
 21
74.9863
  0
LINE
  8
0
 10
84.5233
 20
74.9863
 11
84
 21
75
  0
LINE
  8
0
 10
84
 20
75
 11
10
 21
75
  0
LINE
  8
0
 10
10
 20
75
 11
9.47664
 21
74.9863
  0
LINE
  8
0
 10
9.47664
 20
74.9863
 11
8.95471
 21
74.9452
  0
LINE
  8
0
 10
8.95471
 20
74.9452
 11
8.43565
 21
74.8769
  0
LINE
  8
0
 10
8.43565
 20
74.8769
 11
7.92087
 21
74.7815
  0
LINE
  8
0
 10
7.92087
 20
74.7815
 11
7.4118
 21
74.6593
  0
LINE
  8
0
 10
7.4118
 20
74.6593
 11
6.90982
 21
74.5106
  0
LINE
  8
0
 10
6.90982
 20
74.5106
 11
6.41631
 21
74.3358
  0
LINE
  8
0
 10
6.41631
 20
74.3358
 11
5.93263
 21
74.1355
  0
LINE
  8
0
 10
5.93263
 20
74.1355
 11
5.46008
 21
73.9101
  0
LINE
  8
0
 10
5.46008
 20
73.9101
 11
5
 21
73.6602
  0
LINE
  8
0
 10
5
 20
73.6602
 11
4.5536
 21
73.3867
  0
LINE
  8
0
 10
4.5536
 20
73.3867
 11
4.12215
 21
73.0902
  0
LINE
  8
0
 10
4.12215
 20
73.0902
 11
3.70679
 21
72.7715
  0
LINE
  8
0
 10
3.70679
 20
72.7715
 11
3.30869
 21
72.4314
  0
LINE
  8
0
 10
3.30869
 20
72.4314
 11
2.92892
 21
72.0711
  0
LINE
  8
0
 10
2.92892
 20
72.0711
 11
2.56854
 21
71.6913
  0
LINE
  8
0
 10
2.56854
 20
71.6913
 11
2.22853
 21
71.2932
  0
LINE
  8
0
 10
2.22853
 20
71.2932
 11
1.90982
 21
70.8778
  0
LINE
  8
0
 10
1.90982
 20
70.8778
 11
1.61328
 21
70.4464
  0
LINE
  8
0
 10
1.61328
 20
70.4464
 11
1.33974
 21
70
  0
LINE
  8
0
 10
1.33974
 20
70
 11
1.08992
 21
69.5399
  0
LINE
  8
0
 10
1.08992
 20
69.5399
 11
0.864532
 21
69.0674
  0
LINE
  8
0
 10
0.864532
 20
69.0674
 11
0.664185
 21
68.5837
  0
LINE
  8
0
 10
0.664185
 20
68.5837
 11
0.489426
 21
68.0902
  0
LINE
  8
0
 10
0.489426
 20
68.0902
 11
0.340729
 21
67.5882
  0
LINE
  8
0
 10
0.340729
 20
67.5882
 11
0.218521
 21
67.0791
  0
LINE
  8
0
 10
0.218521
 20
67.0791
 11
0.123108
 21
66.5643
  0
LINE
  8
0
 10
0.123108
 20
66.5643
 11
0.0547791
 21
66.0453
  0
LINE
  8
0
 10
0.0547791
 20
66.0453
 11
0.0137024
 21
65.5233
  0
LINE
  8
0
 10
0.0137024
 20
65.5233
 11
0
 21
65
  0
LINE
  8
0
 10
0
 20
65
 11
0
 21
10
  0
ENDSEC
  0
SECTION
  2
OBJECTS
  0
DICTIONARY
  0
ENDSEC
  0
EOF
